<?xml version="1.0" encoding="UTF-8" standalone="no"?>
<!DOCTYPE svg PUBLIC "-//W3C//DTD SVG 1.1//EN"
 "http://www.w3.org/Graphics/SVG/1.1/DTD/svg11.dtd">
<!-- Generated by graphviz version 2.38.0 (20140413.2041)
 -->
<!-- Title: snakemake_dag Pages: 1 -->
<svg width="1264pt" height="1256pt"
 viewBox="0.00 0.00 1264.25 1256.00" xmlns="http://www.w3.org/2000/svg" xmlns:xlink="http://www.w3.org/1999/xlink">
<g id="graph0" class="graph" transform="scale(1 1) rotate(0) translate(4 1252)">
<title>snakemake_dag</title>
<polygon fill="white" stroke="none" points="-4,4 -4,-1252 1260.25,-1252 1260.25,4 -4,4"/>
<!-- 0 -->
<g id="node1" class="node"><title>0</title>
<path fill="none" stroke="#56b9d8" stroke-width="2" stroke-dasharray="5,2" d="M456.32,-1024C456.32,-1024 324.263,-1024 324.263,-1024 318.263,-1024 312.263,-1018 312.263,-1012 312.263,-1012 312.263,-992 312.263,-992 312.263,-986 318.263,-980 324.263,-980 324.263,-980 456.32,-980 456.32,-980 462.32,-980 468.32,-986 468.32,-992 468.32,-992 468.32,-1012 468.32,-1012 468.32,-1018 462.32,-1024 456.32,-1024"/>
<text text-anchor="middle" x="390.292" y="-1011" font-family="sans" font-size="10.00">sortBAM_biobambam</text>
<text text-anchor="middle" x="390.292" y="-999" font-family="sans" font-size="10.00">pathSBB: output/bam</text>
<text text-anchor="middle" x="390.292" y="-987" font-family="sans" font-size="10.00">sampleSBB: Pfeiffer2_Aligned.out</text>
</g>
<!-- 3 -->
<g id="node4" class="node"><title>3</title>
<path fill="none" stroke="#56b1d8" stroke-width="2" stroke-dasharray="5,2" d="M468.087,-944C468.087,-944 312.496,-944 312.496,-944 306.496,-944 300.496,-938 300.496,-932 300.496,-932 300.496,-912 300.496,-912 300.496,-906 306.496,-900 312.496,-900 312.496,-900 468.087,-900 468.087,-900 474.087,-900 480.087,-906 480.087,-912 480.087,-912 480.087,-932 480.087,-932 480.087,-938 474.087,-944 468.087,-944"/>
<text text-anchor="middle" x="390.292" y="-931" font-family="sans" font-size="10.00">filteredBAM</text>
<text text-anchor="middle" x="390.292" y="-919" font-family="sans" font-size="10.00">pathFB: output/bam</text>
<text text-anchor="middle" x="390.292" y="-907" font-family="sans" font-size="10.00">sampleFB: Pfeiffer2_Aligned.out_sorted</text>
</g>
<!-- 0&#45;&gt;3 -->
<g id="edge4" class="edge"><title>0&#45;&gt;3</title>
<path fill="none" stroke="grey" stroke-width="2" d="M390.292,-979.686C390.292,-971.798 390.292,-962.684 390.292,-954.103"/>
<polygon fill="grey" stroke="grey" stroke-width="2" points="393.792,-954.018 390.292,-944.018 386.792,-954.018 393.792,-954.018"/>
</g>
<!-- 1 -->
<g id="node2" class="node"><title>1</title>
<path fill="none" stroke="#59d856" stroke-width="2" d="M622.45,-196C622.45,-196 248.133,-196 248.133,-196 242.133,-196 236.133,-190 236.133,-184 236.133,-184 236.133,-164 236.133,-164 236.133,-158 242.133,-152 248.133,-152 248.133,-152 622.45,-152 622.45,-152 628.45,-152 634.45,-158 634.45,-164 634.45,-164 634.45,-184 634.45,-184 634.45,-190 628.45,-196 622.45,-196"/>
<text text-anchor="middle" x="435.292" y="-183" font-family="sans" font-size="10.00">getVcfTable</text>
<text text-anchor="middle" x="435.292" y="-171" font-family="sans" font-size="10.00">pathGVCFT: output/vcfGenUtil_varScan</text>
<text text-anchor="middle" x="435.292" y="-159" font-family="sans" font-size="10.00">sampleGVCFT: Pfeiffer2.varScan.snp.canonical_annotated.dbsnp_annotated.cosmic_annotated</text>
</g>
<!-- 8 -->
<g id="node9" class="node"><title>8</title>
<path fill="none" stroke="#bed856" stroke-width="2" d="M618.477,-116C618.477,-116 266.106,-116 266.106,-116 260.106,-116 254.106,-110 254.106,-104 254.106,-104 254.106,-84 254.106,-84 254.106,-78 260.106,-72 266.106,-72 266.106,-72 618.477,-72 618.477,-72 624.477,-72 630.477,-78 630.477,-84 630.477,-84 630.477,-104 630.477,-104 630.477,-110 624.477,-116 618.477,-116"/>
<text text-anchor="middle" x="442.292" y="-103" font-family="sans" font-size="10.00">tableMERGE</text>
<text text-anchor="middle" x="442.292" y="-91" font-family="sans" font-size="10.00">annotationSUFFIX: varScan.snp.canonical_annotated.dbsnp_annotated.cosmic_annotated</text>
<text text-anchor="middle" x="442.292" y="-79" font-family="sans" font-size="10.00">tableMergeDIR: vcfGenUtil_varScan/tables</text>
</g>
<!-- 1&#45;&gt;8 -->
<g id="edge9" class="edge"><title>1&#45;&gt;8</title>
<path fill="none" stroke="grey" stroke-width="2" d="M437.204,-151.686C437.912,-143.798 438.73,-134.684 439.5,-126.103"/>
<polygon fill="grey" stroke="grey" stroke-width="2" points="442.997,-126.291 440.405,-116.018 436.025,-125.665 442.997,-126.291"/>
</g>
<!-- 2 -->
<g id="node3" class="node"><title>2</title>
<path fill="none" stroke="#d8bc56" stroke-width="2" stroke-dasharray="5,2" d="M490.009,-864C490.009,-864 290.574,-864 290.574,-864 284.574,-864 278.574,-858 278.574,-852 278.574,-852 278.574,-832 278.574,-832 278.574,-826 284.574,-820 290.574,-820 290.574,-820 490.009,-820 490.009,-820 496.009,-820 502.009,-826 502.009,-832 502.009,-832 502.009,-852 502.009,-852 502.009,-858 496.009,-864 490.009,-864"/>
<text text-anchor="middle" x="390.292" y="-851" font-family="sans" font-size="10.00">markdupBAM</text>
<text text-anchor="middle" x="390.292" y="-839" font-family="sans" font-size="10.00">outputDIR: output</text>
<text text-anchor="middle" x="390.292" y="-827" font-family="sans" font-size="10.00">sampleMDB: Pfeiffer2_Aligned.out_sorted_filtered</text>
</g>
<!-- 23 -->
<g id="node24" class="node"><title>23</title>
<path fill="none" stroke="#d8a456" stroke-width="2" d="M425.926,-784C425.926,-784 354.657,-784 354.657,-784 348.657,-784 342.657,-778 342.657,-772 342.657,-772 342.657,-760 342.657,-760 342.657,-754 348.657,-748 354.657,-748 354.657,-748 425.926,-748 425.926,-748 431.926,-748 437.926,-754 437.926,-760 437.926,-760 437.926,-772 437.926,-772 437.926,-778 431.926,-784 425.926,-784"/>
<text text-anchor="middle" x="390.292" y="-769" font-family="sans" font-size="10.00">indexBAM</text>
<text text-anchor="middle" x="390.292" y="-757" font-family="sans" font-size="10.00">sampleIB: Pfeiffer2</text>
</g>
<!-- 2&#45;&gt;23 -->
<g id="edge24" class="edge"><title>2&#45;&gt;23</title>
<path fill="none" stroke="grey" stroke-width="2" d="M390.292,-819.993C390.292,-812.061 390.292,-802.915 390.292,-794.478"/>
<polygon fill="grey" stroke="grey" stroke-width="2" points="393.792,-794.315 390.292,-784.315 386.792,-794.315 393.792,-794.315"/>
</g>
<!-- 3&#45;&gt;2 -->
<g id="edge3" class="edge"><title>3&#45;&gt;2</title>
<path fill="none" stroke="grey" stroke-width="2" d="M390.292,-899.686C390.292,-891.798 390.292,-882.684 390.292,-874.103"/>
<polygon fill="grey" stroke="grey" stroke-width="2" points="393.792,-874.018 390.292,-864.018 386.792,-874.018 393.792,-874.018"/>
</g>
<!-- 4 -->
<g id="node5" class="node"><title>4</title>
<path fill="none" stroke="#68d856" stroke-width="2" stroke-dasharray="5,2" d="M368.816,-1176C368.816,-1176 281.767,-1176 281.767,-1176 275.767,-1176 269.767,-1170 269.767,-1164 269.767,-1164 269.767,-1144 269.767,-1144 269.767,-1138 275.767,-1132 281.767,-1132 281.767,-1132 368.816,-1132 368.816,-1132 374.816,-1132 380.816,-1138 380.816,-1144 380.816,-1144 380.816,-1164 380.816,-1164 380.816,-1170 374.816,-1176 368.816,-1176"/>
<text text-anchor="middle" x="325.292" y="-1163" font-family="sans" font-size="10.00">fastq2GZ</text>
<text text-anchor="middle" x="325.292" y="-1151" font-family="sans" font-size="10.00">pathFGZ: output/fastq</text>
<text text-anchor="middle" x="325.292" y="-1139" font-family="sans" font-size="10.00">sampleFGZ: Pfeiffer2.1</text>
</g>
<!-- 16 -->
<g id="node17" class="node"><title>16</title>
<path fill="none" stroke="#56d8d0" stroke-width="2" stroke-dasharray="5,2" d="M430.985,-1096C430.985,-1096 349.598,-1096 349.598,-1096 343.598,-1096 337.598,-1090 337.598,-1084 337.598,-1084 337.598,-1072 337.598,-1072 337.598,-1066 343.598,-1060 349.598,-1060 349.598,-1060 430.985,-1060 430.985,-1060 436.985,-1060 442.985,-1066 442.985,-1072 442.985,-1072 442.985,-1084 442.985,-1084 442.985,-1090 436.985,-1096 430.985,-1096"/>
<text text-anchor="middle" x="390.292" y="-1081" font-family="sans" font-size="10.00">bamALIGN_bwa</text>
<text text-anchor="middle" x="390.292" y="-1069" font-family="sans" font-size="10.00">sampleBAB: Pfeiffer2</text>
</g>
<!-- 4&#45;&gt;16 -->
<g id="edge16" class="edge"><title>4&#45;&gt;16</title>
<path fill="none" stroke="grey" stroke-width="2" d="M343.744,-1131.99C351.408,-1123.27 360.362,-1113.07 368.358,-1103.97"/>
<polygon fill="grey" stroke="grey" stroke-width="2" points="371.113,-1106.14 375.083,-1096.31 365.854,-1101.52 371.113,-1106.14"/>
</g>
<!-- 5 -->
<g id="node6" class="node"><title>5</title>
<path fill="none" stroke="#56d86b" stroke-width="2" d="M92.3753,-524C92.3753,-524 12.2077,-524 12.2077,-524 6.20767,-524 0.207672,-518 0.207672,-512 0.207672,-512 0.207672,-500 0.207672,-500 0.207672,-494 6.20767,-488 12.2077,-488 12.2077,-488 92.3753,-488 92.3753,-488 98.3753,-488 104.375,-494 104.375,-500 104.375,-500 104.375,-512 104.375,-512 104.375,-518 98.3753,-524 92.3753,-524"/>
<text text-anchor="middle" x="52.2915" y="-509" font-family="sans" font-size="10.00">fastqc</text>
<text text-anchor="middle" x="52.2915" y="-497" font-family="sans" font-size="10.00">sampleFQC: Pfeiffer2</text>
</g>
<!-- 33 -->
<g id="node34" class="node"><title>33</title>
<path fill="none" stroke="#5663d8" stroke-width="2" d="M568.292,-36C568.292,-36 538.292,-36 538.292,-36 532.292,-36 526.292,-30 526.292,-24 526.292,-24 526.292,-12 526.292,-12 526.292,-6 532.292,-0 538.292,-0 538.292,-0 568.292,-0 568.292,-0 574.292,-0 580.292,-6 580.292,-12 580.292,-12 580.292,-24 580.292,-24 580.292,-30 574.292,-36 568.292,-36"/>
<text text-anchor="middle" x="553.292" y="-15" font-family="sans" font-size="10.00">all</text>
</g>
<!-- 5&#45;&gt;33 -->
<g id="edge40" class="edge"><title>5&#45;&gt;33</title>
<path fill="none" stroke="grey" stroke-width="2" d="M51.613,-487.627C50.4717,-456.866 48.2915,-390.797 48.2915,-335 48.2915,-335 48.2915,-335 48.2915,-173 48.2915,-116.283 77.0249,-100.1 126.292,-72 192.532,-34.2194 424.707,-22.9903 516.011,-19.9919"/>
<polygon fill="grey" stroke="grey" stroke-width="2" points="516.289,-23.485 526.175,-19.6734 516.07,-16.4885 516.289,-23.485"/>
</g>
<!-- 6 -->
<g id="node7" class="node"><title>6</title>
<path fill="none" stroke="#d86e56" stroke-width="2" d="M879.866,-356C879.866,-356 656.717,-356 656.717,-356 650.717,-356 644.717,-350 644.717,-344 644.717,-344 644.717,-324 644.717,-324 644.717,-318 650.717,-312 656.717,-312 656.717,-312 879.866,-312 879.866,-312 885.866,-312 891.866,-318 891.866,-324 891.866,-324 891.866,-344 891.866,-344 891.866,-350 885.866,-356 879.866,-356"/>
<text text-anchor="middle" x="768.292" y="-343" font-family="sans" font-size="10.00">indel</text>
<text text-anchor="middle" x="768.292" y="-331" font-family="sans" font-size="10.00">pathIndel: output/vcfGenUtil_varScan</text>
<text text-anchor="middle" x="768.292" y="-319" font-family="sans" font-size="10.00">sampleIndel: Pfeiffer2.varScan.indel.canonical_annotated</text>
</g>
<!-- 30 -->
<g id="node31" class="node"><title>30</title>
<path fill="none" stroke="#59d856" stroke-width="2" d="M954.466,-276C954.466,-276 652.117,-276 652.117,-276 646.117,-276 640.117,-270 640.117,-264 640.117,-264 640.117,-244 640.117,-244 640.117,-238 646.117,-232 652.117,-232 652.117,-232 954.466,-232 954.466,-232 960.466,-232 966.466,-238 966.466,-244 966.466,-244 966.466,-264 966.466,-264 966.466,-270 960.466,-276 954.466,-276"/>
<text text-anchor="middle" x="803.292" y="-263" font-family="sans" font-size="10.00">getVcfTable</text>
<text text-anchor="middle" x="803.292" y="-251" font-family="sans" font-size="10.00">pathGVCFT: output/vcfGenUtil_varScan</text>
<text text-anchor="middle" x="803.292" y="-239" font-family="sans" font-size="10.00">sampleGVCFT: Pfeiffer2.varScan.indel.canonical_annotated.indel_annotated</text>
</g>
<!-- 6&#45;&gt;30 -->
<g id="edge31" class="edge"><title>6&#45;&gt;30</title>
<path fill="none" stroke="grey" stroke-width="2" d="M777.855,-311.686C781.512,-303.537 785.755,-294.082 789.715,-285.256"/>
<polygon fill="grey" stroke="grey" stroke-width="2" points="792.96,-286.574 793.86,-276.018 786.573,-283.709 792.96,-286.574"/>
</g>
<!-- 7 -->
<g id="node8" class="node"><title>7</title>
<path fill="none" stroke="#d87d56" stroke-width="2" d="M256.158,-432C256.158,-432 180.425,-432 180.425,-432 174.425,-432 168.425,-426 168.425,-420 168.425,-420 168.425,-408 168.425,-408 168.425,-402 174.425,-396 180.425,-396 180.425,-396 256.158,-396 256.158,-396 262.158,-396 268.158,-402 268.158,-408 268.158,-408 268.158,-420 268.158,-420 268.158,-426 262.158,-432 256.158,-432"/>
<text text-anchor="middle" x="218.292" y="-411" font-family="sans" font-size="10.00">collectWGSMERGE</text>
</g>
<!-- 7&#45;&gt;33 -->
<g id="edge42" class="edge"><title>7&#45;&gt;33</title>
<path fill="none" stroke="grey" stroke-width="2" d="M214.796,-395.829C210.685,-375.72 203.618,-341.416 197.292,-312 174.779,-207.319 141.736,-146.86 218.292,-72 259.958,-31.2562 437.469,-21.8332 515.843,-19.6547"/>
<polygon fill="grey" stroke="grey" stroke-width="2" points="516.311,-23.1441 526.22,-19.3929 516.134,-16.1463 516.311,-23.1441"/>
</g>
<!-- 8&#45;&gt;33 -->
<g id="edge38" class="edge"><title>8&#45;&gt;33</title>
<path fill="none" stroke="grey" stroke-width="2" d="M473.803,-71.9925C487.922,-62.5799 504.605,-51.4575 519.033,-41.8389"/>
<polygon fill="grey" stroke="grey" stroke-width="2" points="521.303,-44.5321 527.682,-36.0729 517.42,-38.7078 521.303,-44.5321"/>
</g>
<!-- 9 -->
<g id="node10" class="node"><title>9</title>
<path fill="none" stroke="#d8d356" stroke-width="2" stroke-dasharray="5,2" d="M432.215,-1248C432.215,-1248 348.368,-1248 348.368,-1248 342.368,-1248 336.368,-1242 336.368,-1236 336.368,-1236 336.368,-1224 336.368,-1224 336.368,-1218 342.368,-1212 348.368,-1212 348.368,-1212 432.215,-1212 432.215,-1212 438.215,-1212 444.215,-1218 444.215,-1224 444.215,-1224 444.215,-1236 444.215,-1236 444.215,-1242 438.215,-1248 432.215,-1248"/>
<text text-anchor="middle" x="390.292" y="-1233" font-family="sans" font-size="10.00">bam2fastq_picard</text>
<text text-anchor="middle" x="390.292" y="-1221" font-family="sans" font-size="10.00">sampleB2FP: Pfeiffer2</text>
</g>
<!-- 9&#45;&gt;4 -->
<g id="edge5" class="edge"><title>9&#45;&gt;4</title>
<path fill="none" stroke="grey" stroke-width="2" d="M375.216,-1211.84C367.891,-1203.5 358.89,-1193.25 350.557,-1183.76"/>
<polygon fill="grey" stroke="grey" stroke-width="2" points="352.995,-1181.24 343.766,-1176.03 347.736,-1185.86 352.995,-1181.24"/>
</g>
<!-- 12 -->
<g id="node13" class="node"><title>12</title>
<path fill="none" stroke="#68d856" stroke-width="2" stroke-dasharray="5,2" d="M498.816,-1176C498.816,-1176 411.767,-1176 411.767,-1176 405.767,-1176 399.767,-1170 399.767,-1164 399.767,-1164 399.767,-1144 399.767,-1144 399.767,-1138 405.767,-1132 411.767,-1132 411.767,-1132 498.816,-1132 498.816,-1132 504.816,-1132 510.816,-1138 510.816,-1144 510.816,-1144 510.816,-1164 510.816,-1164 510.816,-1170 504.816,-1176 498.816,-1176"/>
<text text-anchor="middle" x="455.292" y="-1163" font-family="sans" font-size="10.00">fastq2GZ</text>
<text text-anchor="middle" x="455.292" y="-1151" font-family="sans" font-size="10.00">pathFGZ: output/fastq</text>
<text text-anchor="middle" x="455.292" y="-1139" font-family="sans" font-size="10.00">sampleFGZ: Pfeiffer2.2</text>
</g>
<!-- 9&#45;&gt;12 -->
<g id="edge12" class="edge"><title>9&#45;&gt;12</title>
<path fill="none" stroke="grey" stroke-width="2" d="M405.367,-1211.84C412.692,-1203.5 421.693,-1193.25 430.026,-1183.76"/>
<polygon fill="grey" stroke="grey" stroke-width="2" points="432.847,-1185.86 436.817,-1176.03 427.588,-1181.24 432.847,-1185.86"/>
</g>
<!-- 10 -->
<g id="node11" class="node"><title>10</title>
<path fill="none" stroke="#d85656" stroke-width="2" d="M176.654,-352C176.654,-352 87.9289,-352 87.9289,-352 81.9289,-352 75.9289,-346 75.9289,-340 75.9289,-340 75.9289,-328 75.9289,-328 75.9289,-322 81.9289,-316 87.9289,-316 87.9289,-316 176.654,-316 176.654,-316 182.654,-316 188.654,-322 188.654,-328 188.654,-328 188.654,-340 188.654,-340 188.654,-346 182.654,-352 176.654,-352"/>
<text text-anchor="middle" x="132.292" y="-337" font-family="sans" font-size="10.00">collectGCBias</text>
<text text-anchor="middle" x="132.292" y="-325" font-family="sans" font-size="10.00">sampleCGCB: Pfeiffer2</text>
</g>
<!-- 10&#45;&gt;33 -->
<g id="edge35" class="edge"><title>10&#45;&gt;33</title>
<path fill="none" stroke="grey" stroke-width="2" d="M127.509,-315.781C115.75,-269.285 90.9097,-140.12 156.292,-72 205.221,-21.0209 426.68,-17.5817 515.887,-18.3295"/>
<polygon fill="grey" stroke="grey" stroke-width="2" points="516.053,-21.8314 526.09,-18.4386 516.128,-14.8318 516.053,-21.8314"/>
</g>
<!-- 11 -->
<g id="node12" class="node"><title>11</title>
<path fill="none" stroke="#56d85b" stroke-width="2" d="M610.422,-276C610.422,-276 324.161,-276 324.161,-276 318.161,-276 312.161,-270 312.161,-264 312.161,-264 312.161,-244 312.161,-244 312.161,-238 318.161,-232 324.161,-232 324.161,-232 610.422,-232 610.422,-232 616.422,-232 622.422,-238 622.422,-244 622.422,-244 622.422,-264 622.422,-264 622.422,-270 616.422,-276 610.422,-276"/>
<text text-anchor="middle" x="467.292" y="-263" font-family="sans" font-size="10.00">cosmic</text>
<text text-anchor="middle" x="467.292" y="-251" font-family="sans" font-size="10.00">pathCOS: output/vcfGenUtil_varScan</text>
<text text-anchor="middle" x="467.292" y="-239" font-family="sans" font-size="10.00">sampleCOS: Pfeiffer2.varScan.snp.canonical_annotated.dbsnp_annotated</text>
</g>
<!-- 11&#45;&gt;1 -->
<g id="edge2" class="edge"><title>11&#45;&gt;1</title>
<path fill="none" stroke="grey" stroke-width="2" d="M458.547,-231.686C455.24,-223.624 451.408,-214.283 447.82,-205.538"/>
<polygon fill="grey" stroke="grey" stroke-width="2" points="450.948,-203.941 443.914,-196.018 444.472,-206.598 450.948,-203.941"/>
</g>
<!-- 12&#45;&gt;16 -->
<g id="edge17" class="edge"><title>12&#45;&gt;16</title>
<path fill="none" stroke="grey" stroke-width="2" d="M436.839,-1131.99C429.175,-1123.27 420.221,-1113.07 412.225,-1103.97"/>
<polygon fill="grey" stroke="grey" stroke-width="2" points="414.729,-1101.52 405.5,-1096.31 409.47,-1106.14 414.729,-1101.52"/>
</g>
<!-- 13 -->
<g id="node14" class="node"><title>13</title>
<path fill="none" stroke="#5692d8" stroke-width="2" d="M810.237,-436C810.237,-436 670.346,-436 670.346,-436 664.346,-436 658.346,-430 658.346,-424 658.346,-424 658.346,-404 658.346,-404 658.346,-398 664.346,-392 670.346,-392 670.346,-392 810.237,-392 810.237,-392 816.237,-392 822.237,-398 822.237,-404 822.237,-404 822.237,-424 822.237,-424 822.237,-430 816.237,-436 810.237,-436"/>
<text text-anchor="middle" x="740.292" y="-423" font-family="sans" font-size="10.00">canonical</text>
<text text-anchor="middle" x="740.292" y="-411" font-family="sans" font-size="10.00">pathCAN: vcfGenUtil_varScan</text>
<text text-anchor="middle" x="740.292" y="-399" font-family="sans" font-size="10.00">sampleCAN: Pfeiffer2.varScan.indel</text>
</g>
<!-- 13&#45;&gt;6 -->
<g id="edge7" class="edge"><title>13&#45;&gt;6</title>
<path fill="none" stroke="grey" stroke-width="2" d="M747.943,-391.686C750.837,-383.624 754.19,-374.283 757.329,-365.538"/>
<polygon fill="grey" stroke="grey" stroke-width="2" points="760.662,-366.613 760.747,-356.018 754.074,-364.247 760.662,-366.613"/>
</g>
<!-- 14 -->
<g id="node15" class="node"><title>14</title>
<path fill="none" stroke="#56d8a9" stroke-width="2" d="M579.489,-356C579.489,-356 355.094,-356 355.094,-356 349.094,-356 343.094,-350 343.094,-344 343.094,-344 343.094,-324 343.094,-324 343.094,-318 349.094,-312 355.094,-312 355.094,-312 579.489,-312 579.489,-312 585.489,-312 591.489,-318 591.489,-324 591.489,-324 591.489,-344 591.489,-344 591.489,-350 585.489,-356 579.489,-356"/>
<text text-anchor="middle" x="467.292" y="-343" font-family="sans" font-size="10.00">dbsnp</text>
<text text-anchor="middle" x="467.292" y="-331" font-family="sans" font-size="10.00">pathDbSnp: output/vcfGenUtil_varScan</text>
<text text-anchor="middle" x="467.292" y="-319" font-family="sans" font-size="10.00">sampleDbSnp: Pfeiffer2.varScan.snp.canonical_annotated</text>
</g>
<!-- 14&#45;&gt;11 -->
<g id="edge11" class="edge"><title>14&#45;&gt;11</title>
<path fill="none" stroke="grey" stroke-width="2" d="M467.292,-311.686C467.292,-303.798 467.292,-294.684 467.292,-286.103"/>
<polygon fill="grey" stroke="grey" stroke-width="2" points="470.792,-286.018 467.292,-276.018 463.792,-286.018 470.792,-286.018"/>
</g>
<!-- 15 -->
<g id="node16" class="node"><title>15</title>
<path fill="none" stroke="#56d8b9" stroke-width="2" d="M271.314,-622C271.314,-622 181.269,-622 181.269,-622 175.269,-622 169.269,-616 169.269,-610 169.269,-610 169.269,-598 169.269,-598 169.269,-592 175.269,-586 181.269,-586 181.269,-586 271.314,-586 271.314,-586 277.314,-586 283.314,-592 283.314,-598 283.314,-598 283.314,-610 283.314,-610 283.314,-616 277.314,-622 271.314,-622"/>
<text text-anchor="middle" x="226.292" y="-607" font-family="sans" font-size="10.00">collectWGS</text>
<text text-anchor="middle" x="226.292" y="-595" font-family="sans" font-size="10.00">sampleCWGS: Pfeiffer2</text>
</g>
<!-- 15&#45;&gt;7 -->
<g id="edge8" class="edge"><title>15&#45;&gt;7</title>
<path fill="none" stroke="grey" stroke-width="2" d="M225.567,-585.985C224.179,-553.35 221.13,-481.714 219.454,-442.312"/>
<polygon fill="grey" stroke="grey" stroke-width="2" points="222.942,-441.954 219.02,-432.112 215.948,-442.252 222.942,-441.954"/>
</g>
<!-- 16&#45;&gt;0 -->
<g id="edge1" class="edge"><title>16&#45;&gt;0</title>
<path fill="none" stroke="grey" stroke-width="2" d="M390.292,-1059.84C390.292,-1052.16 390.292,-1042.88 390.292,-1034.05"/>
<polygon fill="grey" stroke="grey" stroke-width="2" points="393.792,-1034.03 390.292,-1024.03 386.792,-1034.03 393.792,-1034.03"/>
</g>
<!-- 17 -->
<g id="node18" class="node"><title>17</title>
<path fill="none" stroke="#bed856" stroke-width="2" d="M943.993,-196C943.993,-196 664.59,-196 664.59,-196 658.59,-196 652.59,-190 652.59,-184 652.59,-184 652.59,-164 652.59,-164 652.59,-158 658.59,-152 664.59,-152 664.59,-152 943.993,-152 943.993,-152 949.993,-152 955.993,-158 955.993,-164 955.993,-164 955.993,-184 955.993,-184 955.993,-190 949.993,-196 943.993,-196"/>
<text text-anchor="middle" x="804.292" y="-183" font-family="sans" font-size="10.00">tableMERGE</text>
<text text-anchor="middle" x="804.292" y="-171" font-family="sans" font-size="10.00">annotationSUFFIX: varScan.indel.canonical_annotated.indel_annotated</text>
<text text-anchor="middle" x="804.292" y="-159" font-family="sans" font-size="10.00">tableMergeDIR: vcfGenUtil_varScan/tables</text>
</g>
<!-- 17&#45;&gt;33 -->
<g id="edge36" class="edge"><title>17&#45;&gt;33</title>
<path fill="none" stroke="grey" stroke-width="2" d="M769.917,-151.91C722.392,-122.751 637.042,-70.3846 588.881,-40.836"/>
<polygon fill="grey" stroke="grey" stroke-width="2" points="590.693,-37.8414 580.339,-35.595 587.032,-43.8079 590.693,-37.8414"/>
</g>
<!-- 18 -->
<g id="node19" class="node"><title>18</title>
<path fill="none" stroke="#ced856" stroke-width="2" d="M282.546,-272C282.546,-272 210.037,-272 210.037,-272 204.037,-272 198.037,-266 198.037,-260 198.037,-260 198.037,-248 198.037,-248 198.037,-242 204.037,-236 210.037,-236 210.037,-236 282.546,-236 282.546,-236 288.546,-236 294.546,-242 294.546,-248 294.546,-248 294.546,-260 294.546,-260 294.546,-266 288.546,-272 282.546,-272"/>
<text text-anchor="middle" x="246.292" y="-257" font-family="sans" font-size="10.00">flagStats</text>
<text text-anchor="middle" x="246.292" y="-245" font-family="sans" font-size="10.00">sampleFS: Pfeiffer2</text>
</g>
<!-- 18&#45;&gt;33 -->
<g id="edge34" class="edge"><title>18&#45;&gt;33</title>
<path fill="none" stroke="grey" stroke-width="2" d="M239.216,-235.938C225.453,-199.697 200.19,-114.862 245.292,-72 283.715,-35.484 442.909,-23.8345 516.135,-20.3652"/>
<polygon fill="grey" stroke="grey" stroke-width="2" points="516.457,-23.8544 526.29,-19.9107 516.144,-16.8614 516.457,-23.8544"/>
</g>
<!-- 19 -->
<g id="node20" class="node"><title>19</title>
<path fill="none" stroke="#5673d8" stroke-width="2" d="M523.601,-632C523.601,-632 410.982,-632 410.982,-632 404.982,-632 398.982,-626 398.982,-620 398.982,-620 398.982,-588 398.982,-588 398.982,-582 404.982,-576 410.982,-576 410.982,-576 523.601,-576 523.601,-576 529.601,-576 535.601,-582 535.601,-588 535.601,-588 535.601,-620 535.601,-620 535.601,-626 529.601,-632 523.601,-632"/>
<text text-anchor="middle" x="467.292" y="-619" font-family="sans" font-size="10.00">mpileup2vcf_single</text>
<text text-anchor="middle" x="467.292" y="-607" font-family="sans" font-size="10.00">chrMPU2VCFS: _1</text>
<text text-anchor="middle" x="467.292" y="-595" font-family="sans" font-size="10.00">sampleMPU2VCFS: Pfeiffer2</text>
<text text-anchor="middle" x="467.292" y="-583" font-family="sans" font-size="10.00">varTypeMPU2VCFS: snp</text>
</g>
<!-- 28 -->
<g id="node29" class="node"><title>28</title>
<path fill="none" stroke="#56a2d8" stroke-width="2" d="M537.921,-540C537.921,-540 396.662,-540 396.662,-540 390.662,-540 384.662,-534 384.662,-528 384.662,-528 384.662,-484 384.662,-484 384.662,-478 390.662,-472 396.662,-472 396.662,-472 537.921,-472 537.921,-472 543.921,-472 549.921,-478 549.921,-484 549.921,-484 549.921,-528 549.921,-528 549.921,-534 543.921,-540 537.921,-540"/>
<text text-anchor="middle" x="467.292" y="-527" font-family="sans" font-size="10.00">mergeVCF</text>
<text text-anchor="middle" x="467.292" y="-515" font-family="sans" font-size="10.00">pathMV: output/vcfGenUtil_varScan</text>
<text text-anchor="middle" x="467.292" y="-503" font-family="sans" font-size="10.00">sampleMVCF: Pfeiffer2</text>
<text text-anchor="middle" x="467.292" y="-491" font-family="sans" font-size="10.00">varTypeMVCF: snp</text>
<text text-anchor="middle" x="467.292" y="-479" font-family="sans" font-size="10.00">vcfProgramMVCF: varScan</text>
</g>
<!-- 19&#45;&gt;28 -->
<g id="edge29" class="edge"><title>19&#45;&gt;28</title>
<path fill="none" stroke="grey" stroke-width="2" d="M467.292,-575.747C467.292,-567.779 467.292,-558.865 467.292,-550.166"/>
<polygon fill="grey" stroke="grey" stroke-width="2" points="470.792,-550.122 467.292,-540.122 463.792,-550.122 470.792,-550.122"/>
</g>
<!-- 20 -->
<g id="node21" class="node"><title>20</title>
<path fill="none" stroke="#56d8d8" stroke-width="2" d="M853.922,-112C853.922,-112 760.661,-112 760.661,-112 754.661,-112 748.661,-106 748.661,-100 748.661,-100 748.661,-88 748.661,-88 748.661,-82 754.661,-76 760.661,-76 760.661,-76 853.922,-76 853.922,-76 859.922,-76 865.922,-82 865.922,-88 865.922,-88 865.922,-100 865.922,-100 865.922,-106 859.922,-112 853.922,-112"/>
<text text-anchor="middle" x="807.292" y="-91" font-family="sans" font-size="10.00">collectInsertSizeMERGE</text>
</g>
<!-- 20&#45;&gt;33 -->
<g id="edge37" class="edge"><title>20&#45;&gt;33</title>
<path fill="none" stroke="grey" stroke-width="2" d="M748.7,-75.93C699.839,-61.6949 631.723,-41.85 590.166,-29.7431"/>
<polygon fill="grey" stroke="grey" stroke-width="2" points="591.035,-26.3505 580.455,-26.9137 589.077,-33.0711 591.035,-26.3505"/>
</g>
<!-- 21 -->
<g id="node22" class="node"><title>21</title>
<path fill="none" stroke="#56a2d8" stroke-width="2" d="M779.921,-540C779.921,-540 638.662,-540 638.662,-540 632.662,-540 626.662,-534 626.662,-528 626.662,-528 626.662,-484 626.662,-484 626.662,-478 632.662,-472 638.662,-472 638.662,-472 779.921,-472 779.921,-472 785.921,-472 791.921,-478 791.921,-484 791.921,-484 791.921,-528 791.921,-528 791.921,-534 785.921,-540 779.921,-540"/>
<text text-anchor="middle" x="709.292" y="-527" font-family="sans" font-size="10.00">mergeVCF</text>
<text text-anchor="middle" x="709.292" y="-515" font-family="sans" font-size="10.00">pathMV: output/vcfGenUtil_varScan</text>
<text text-anchor="middle" x="709.292" y="-503" font-family="sans" font-size="10.00">sampleMVCF: Pfeiffer2</text>
<text text-anchor="middle" x="709.292" y="-491" font-family="sans" font-size="10.00">varTypeMVCF: indel</text>
<text text-anchor="middle" x="709.292" y="-479" font-family="sans" font-size="10.00">vcfProgramMVCF: varScan</text>
</g>
<!-- 21&#45;&gt;13 -->
<g id="edge13" class="edge"><title>21&#45;&gt;13</title>
<path fill="none" stroke="grey" stroke-width="2" d="M720.659,-471.998C723.615,-463.417 726.787,-454.207 729.701,-445.746"/>
<polygon fill="grey" stroke="grey" stroke-width="2" points="733.027,-446.836 732.975,-436.241 726.409,-444.556 733.027,-446.836"/>
</g>
<!-- 22 -->
<g id="node23" class="node"><title>22</title>
<path fill="none" stroke="#56c9d8" stroke-width="2" d="M507.986,-712C507.986,-712 426.597,-712 426.597,-712 420.597,-712 414.597,-706 414.597,-700 414.597,-700 414.597,-680 414.597,-680 414.597,-674 420.597,-668 426.597,-668 426.597,-668 507.986,-668 507.986,-668 513.986,-668 519.986,-674 519.986,-680 519.986,-680 519.986,-700 519.986,-700 519.986,-706 513.986,-712 507.986,-712"/>
<text text-anchor="middle" x="467.292" y="-699" font-family="sans" font-size="10.00">bam2mpileup</text>
<text text-anchor="middle" x="467.292" y="-687" font-family="sans" font-size="10.00">chrB2M: _1</text>
<text text-anchor="middle" x="467.292" y="-675" font-family="sans" font-size="10.00">sampleB2M: Pfeiffer2</text>
</g>
<!-- 22&#45;&gt;19 -->
<g id="edge20" class="edge"><title>22&#45;&gt;19</title>
<path fill="none" stroke="grey" stroke-width="2" d="M467.292,-667.803C467.292,-660.048 467.292,-651.027 467.292,-642.282"/>
<polygon fill="grey" stroke="grey" stroke-width="2" points="470.792,-642.236 467.292,-632.236 463.792,-642.236 470.792,-642.236"/>
</g>
<!-- 24 -->
<g id="node25" class="node"><title>24</title>
<path fill="none" stroke="#5673d8" stroke-width="2" d="M710.601,-632C710.601,-632 597.982,-632 597.982,-632 591.982,-632 585.982,-626 585.982,-620 585.982,-620 585.982,-588 585.982,-588 585.982,-582 591.982,-576 597.982,-576 597.982,-576 710.601,-576 710.601,-576 716.601,-576 722.601,-582 722.601,-588 722.601,-588 722.601,-620 722.601,-620 722.601,-626 716.601,-632 710.601,-632"/>
<text text-anchor="middle" x="654.292" y="-619" font-family="sans" font-size="10.00">mpileup2vcf_single</text>
<text text-anchor="middle" x="654.292" y="-607" font-family="sans" font-size="10.00">chrMPU2VCFS: _1</text>
<text text-anchor="middle" x="654.292" y="-595" font-family="sans" font-size="10.00">sampleMPU2VCFS: Pfeiffer2</text>
<text text-anchor="middle" x="654.292" y="-583" font-family="sans" font-size="10.00">varTypeMPU2VCFS: indel</text>
</g>
<!-- 22&#45;&gt;24 -->
<g id="edge25" class="edge"><title>22&#45;&gt;24</title>
<path fill="none" stroke="grey" stroke-width="2" d="M514.479,-667.803C535.78,-658.235 561.371,-646.74 584.803,-636.214"/>
<polygon fill="grey" stroke="grey" stroke-width="2" points="586.318,-639.371 594.006,-632.08 583.449,-632.985 586.318,-639.371"/>
</g>
<!-- 23&#45;&gt;5 -->
<g id="edge6" class="edge"><title>23&#45;&gt;5</title>
<path fill="none" stroke="grey" stroke-width="2" d="M342.608,-761.309C274.399,-755.103 153.623,-740.376 121.292,-712 68.7524,-665.889 56.1374,-578.443 53.1647,-534.158"/>
<polygon fill="grey" stroke="grey" stroke-width="2" points="56.6571,-533.922 52.6091,-524.131 49.6679,-534.309 56.6571,-533.922"/>
</g>
<!-- 23&#45;&gt;10 -->
<g id="edge10" class="edge"><title>23&#45;&gt;10</title>
<path fill="none" stroke="grey" stroke-width="2" d="M342.627,-757.278C268.821,-742.298 135.292,-701.819 135.292,-605 135.292,-605 135.292,-605 135.292,-505 135.292,-454.876 133.972,-396.452 133.083,-362.792"/>
<polygon fill="grey" stroke="grey" stroke-width="2" points="136.57,-362.275 132.8,-352.374 129.573,-362.465 136.57,-362.275"/>
</g>
<!-- 23&#45;&gt;15 -->
<g id="edge15" class="edge"><title>23&#45;&gt;15</title>
<path fill="none" stroke="grey" stroke-width="2" d="M353.248,-747.869C335.964,-738.757 315.83,-726.445 300.292,-712 274.849,-688.346 253.266,-654.491 240.09,-631.231"/>
<polygon fill="grey" stroke="grey" stroke-width="2" points="243.038,-629.33 235.134,-622.275 236.913,-632.719 243.038,-629.33"/>
</g>
<!-- 23&#45;&gt;18 -->
<g id="edge19" class="edge"><title>23&#45;&gt;18</title>
<path fill="none" stroke="grey" stroke-width="2" d="M375.638,-747.578C353.553,-719.485 314.292,-661.584 314.292,-605 314.292,-605 314.292,-605 314.292,-413 314.292,-362.989 285.191,-310.794 265.064,-280.675"/>
<polygon fill="grey" stroke="grey" stroke-width="2" points="267.946,-278.69 259.403,-272.425 262.175,-282.65 267.946,-278.69"/>
</g>
<!-- 23&#45;&gt;22 -->
<g id="edge23" class="edge"><title>23&#45;&gt;22</title>
<path fill="none" stroke="grey" stroke-width="2" d="M408.15,-747.837C417.001,-739.331 427.918,-728.839 437.953,-719.195"/>
<polygon fill="grey" stroke="grey" stroke-width="2" points="440.622,-721.485 445.407,-712.032 435.771,-716.438 440.622,-721.485"/>
</g>
<!-- 26 -->
<g id="node27" class="node"><title>26</title>
<path fill="none" stroke="#a7d856" stroke-width="2" d="M1071.88,-192C1071.88,-192 986.708,-192 986.708,-192 980.708,-192 974.708,-186 974.708,-180 974.708,-180 974.708,-168 974.708,-168 974.708,-162 980.708,-156 986.708,-156 986.708,-156 1071.88,-156 1071.88,-156 1077.88,-156 1083.88,-162 1083.88,-168 1083.88,-168 1083.88,-180 1083.88,-180 1083.88,-186 1077.88,-192 1071.88,-192"/>
<text text-anchor="middle" x="1029.29" y="-177" font-family="sans" font-size="10.00">collectMultMetrics</text>
<text text-anchor="middle" x="1029.29" y="-165" font-family="sans" font-size="10.00">sampleCMM: Pfeiffer2</text>
</g>
<!-- 23&#45;&gt;26 -->
<g id="edge27" class="edge"><title>23&#45;&gt;26</title>
<path fill="none" stroke="grey" stroke-width="2" d="M437.939,-762.621C580.562,-754.213 994.292,-719.919 994.292,-605 994.292,-605 994.292,-605 994.292,-333 994.292,-286.05 1009.21,-233.07 1019.56,-201.938"/>
<polygon fill="grey" stroke="grey" stroke-width="2" points="1022.95,-202.853 1022.87,-192.258 1016.32,-200.588 1022.95,-202.853"/>
</g>
<!-- 27 -->
<g id="node28" class="node"><title>27</title>
<path fill="none" stroke="#56d892" stroke-width="2" d="M1128.76,-708C1128.76,-708 1033.82,-708 1033.82,-708 1027.82,-708 1021.82,-702 1021.82,-696 1021.82,-696 1021.82,-684 1021.82,-684 1021.82,-678 1027.82,-672 1033.82,-672 1033.82,-672 1128.76,-672 1128.76,-672 1134.76,-672 1140.76,-678 1140.76,-684 1140.76,-684 1140.76,-696 1140.76,-696 1140.76,-702 1134.76,-708 1128.76,-708"/>
<text text-anchor="middle" x="1081.29" y="-693" font-family="sans" font-size="10.00">collectRNASeq</text>
<text text-anchor="middle" x="1081.29" y="-681" font-family="sans" font-size="10.00">sampleCRNAS: Pfeiffer2</text>
</g>
<!-- 23&#45;&gt;27 -->
<g id="edge28" class="edge"><title>23&#45;&gt;27</title>
<path fill="none" stroke="grey" stroke-width="2" d="M438.007,-764.062C542.308,-761.323 798.098,-750.864 1008.29,-712 1010.94,-711.511 1013.62,-710.967 1016.33,-710.379"/>
<polygon fill="grey" stroke="grey" stroke-width="2" points="1017.22,-713.766 1026.16,-708.083 1015.62,-706.949 1017.22,-713.766"/>
</g>
<!-- 32 -->
<g id="node33" class="node"><title>32</title>
<path fill="none" stroke="#b6d856" stroke-width="2" d="M1244.21,-708C1244.21,-708 1170.38,-708 1170.38,-708 1164.38,-708 1158.38,-702 1158.38,-696 1158.38,-696 1158.38,-684 1158.38,-684 1158.38,-678 1164.38,-672 1170.38,-672 1170.38,-672 1244.21,-672 1244.21,-672 1250.21,-672 1256.21,-678 1256.21,-684 1256.21,-684 1256.21,-696 1256.21,-696 1256.21,-702 1250.21,-708 1244.21,-708"/>
<text text-anchor="middle" x="1207.29" y="-693" font-family="sans" font-size="10.00">readLen</text>
<text text-anchor="middle" x="1207.29" y="-681" font-family="sans" font-size="10.00">sampleRL: Pfeiffer2</text>
</g>
<!-- 23&#45;&gt;32 -->
<g id="edge33" class="edge"><title>23&#45;&gt;32</title>
<path fill="none" stroke="grey" stroke-width="2" d="M437.964,-763.401C582.196,-758.292 1012.39,-740.972 1149.29,-712 1150.98,-711.642 1152.69,-711.245 1154.41,-710.816"/>
<polygon fill="grey" stroke="grey" stroke-width="2" points="1155.6,-714.119 1164.28,-708.053 1153.71,-707.378 1155.6,-714.119"/>
</g>
<!-- 24&#45;&gt;21 -->
<g id="edge22" class="edge"><title>24&#45;&gt;21</title>
<path fill="none" stroke="grey" stroke-width="2" d="M669.905,-575.747C674.669,-567.432 680.022,-558.089 685.21,-549.033"/>
<polygon fill="grey" stroke="grey" stroke-width="2" points="688.381,-550.539 690.315,-540.122 682.307,-547.059 688.381,-550.539"/>
</g>
<!-- 25 -->
<g id="node26" class="node"><title>25</title>
<path fill="none" stroke="#5692d8" stroke-width="2" d="M534.129,-436C534.129,-436 400.454,-436 400.454,-436 394.454,-436 388.454,-430 388.454,-424 388.454,-424 388.454,-404 388.454,-404 388.454,-398 394.454,-392 400.454,-392 400.454,-392 534.129,-392 534.129,-392 540.129,-392 546.129,-398 546.129,-404 546.129,-404 546.129,-424 546.129,-424 546.129,-430 540.129,-436 534.129,-436"/>
<text text-anchor="middle" x="467.292" y="-423" font-family="sans" font-size="10.00">canonical</text>
<text text-anchor="middle" x="467.292" y="-411" font-family="sans" font-size="10.00">pathCAN: vcfGenUtil_varScan</text>
<text text-anchor="middle" x="467.292" y="-399" font-family="sans" font-size="10.00">sampleCAN: Pfeiffer2.varScan.snp</text>
</g>
<!-- 25&#45;&gt;14 -->
<g id="edge14" class="edge"><title>25&#45;&gt;14</title>
<path fill="none" stroke="grey" stroke-width="2" d="M467.292,-391.686C467.292,-383.798 467.292,-374.684 467.292,-366.103"/>
<polygon fill="grey" stroke="grey" stroke-width="2" points="470.792,-366.018 467.292,-356.018 463.792,-366.018 470.792,-366.018"/>
</g>
<!-- 26&#45;&gt;20 -->
<g id="edge21" class="edge"><title>26&#45;&gt;20</title>
<path fill="none" stroke="grey" stroke-width="2" d="M980.847,-155.979C947.028,-144.097 901.707,-128.173 865.858,-115.577"/>
<polygon fill="grey" stroke="grey" stroke-width="2" points="866.611,-112.132 856.016,-112.119 864.29,-118.736 866.611,-112.132"/>
</g>
<!-- 31 -->
<g id="node32" class="node"><title>31</title>
<path fill="none" stroke="#56d873" stroke-width="2" d="M1058.1,-112C1058.1,-112 922.483,-112 922.483,-112 916.483,-112 910.483,-106 910.483,-100 910.483,-100 910.483,-88 910.483,-88 910.483,-82 916.483,-76 922.483,-76 922.483,-76 1058.1,-76 1058.1,-76 1064.1,-76 1070.1,-82 1070.1,-88 1070.1,-88 1070.1,-100 1070.1,-100 1070.1,-106 1064.1,-112 1058.1,-112"/>
<text text-anchor="middle" x="990.292" y="-91" font-family="sans" font-size="10.00">collectAlignmentSummaryMERGE</text>
</g>
<!-- 26&#45;&gt;31 -->
<g id="edge32" class="edge"><title>26&#45;&gt;31</title>
<path fill="none" stroke="grey" stroke-width="2" d="M1020.64,-155.689C1015.59,-145.591 1009.12,-132.648 1003.45,-121.31"/>
<polygon fill="grey" stroke="grey" stroke-width="2" points="1006.53,-119.641 998.923,-112.262 1000.26,-122.772 1006.53,-119.641"/>
</g>
<!-- 29 -->
<g id="node30" class="node"><title>29</title>
<path fill="none" stroke="#d8cb56" stroke-width="2" d="M1149.05,-524C1149.05,-524 1059.54,-524 1059.54,-524 1053.54,-524 1047.54,-518 1047.54,-512 1047.54,-512 1047.54,-500 1047.54,-500 1047.54,-494 1053.54,-488 1059.54,-488 1059.54,-488 1149.05,-488 1149.05,-488 1155.05,-488 1161.05,-494 1161.05,-500 1161.05,-500 1161.05,-512 1161.05,-512 1161.05,-518 1155.05,-524 1149.05,-524"/>
<text text-anchor="middle" x="1104.29" y="-503" font-family="sans" font-size="10.00">collectRNASeqMERGE</text>
</g>
<!-- 27&#45;&gt;29 -->
<g id="edge30" class="edge"><title>27&#45;&gt;29</title>
<path fill="none" stroke="grey" stroke-width="2" d="M1083.46,-671.878C1087.45,-640.307 1095.99,-572.673 1100.81,-534.568"/>
<polygon fill="grey" stroke="grey" stroke-width="2" points="1104.34,-534.569 1102.12,-524.209 1097.39,-533.691 1104.34,-534.569"/>
</g>
<!-- 28&#45;&gt;25 -->
<g id="edge26" class="edge"><title>28&#45;&gt;25</title>
<path fill="none" stroke="grey" stroke-width="2" d="M467.292,-471.998C467.292,-463.603 467.292,-454.607 467.292,-446.299"/>
<polygon fill="grey" stroke="grey" stroke-width="2" points="470.792,-446.241 467.292,-436.241 463.792,-446.242 470.792,-446.241"/>
</g>
<!-- 29&#45;&gt;33 -->
<g id="edge39" class="edge"><title>29&#45;&gt;33</title>
<path fill="none" stroke="grey" stroke-width="2" d="M1105.65,-487.637C1107.93,-456.89 1112.29,-390.843 1112.29,-335 1112.29,-335 1112.29,-335 1112.29,-173 1112.29,-125.776 1116.08,-101.61 1079.29,-72 1041.37,-41.477 705.044,-25.1445 590.955,-20.4454"/>
<polygon fill="grey" stroke="grey" stroke-width="2" points="590.759,-16.9346 580.625,-20.0269 590.476,-23.9289 590.759,-16.9346"/>
</g>
<!-- 30&#45;&gt;17 -->
<g id="edge18" class="edge"><title>30&#45;&gt;17</title>
<path fill="none" stroke="grey" stroke-width="2" d="M803.565,-231.686C803.666,-223.798 803.783,-214.684 803.893,-206.103"/>
<polygon fill="grey" stroke="grey" stroke-width="2" points="807.393,-206.062 804.022,-196.018 800.394,-205.972 807.393,-206.062"/>
</g>
<!-- 31&#45;&gt;33 -->
<g id="edge41" class="edge"><title>31&#45;&gt;33</title>
<path fill="none" stroke="grey" stroke-width="2" d="M910.518,-78.2464C898.713,-76.1171 886.689,-73.9786 875.292,-72 772.344,-54.1295 650.609,-34.5004 590.585,-24.9213"/>
<polygon fill="grey" stroke="grey" stroke-width="2" points="590.885,-21.425 580.458,-23.3072 589.783,-28.3377 590.885,-21.425"/>
</g>
<!-- 32&#45;&gt;33 -->
<g id="edge43" class="edge"><title>32&#45;&gt;33</title>
<path fill="none" stroke="grey" stroke-width="2" d="M1205.89,-671.951C1203.35,-639.745 1198.29,-567.741 1198.29,-507 1198.29,-507 1198.29,-507 1198.29,-173 1198.29,-113.17 1162.59,-99.1898 1109.29,-72 1018.28,-25.5694 700.351,-19.6661 590.76,-19.0302"/>
<polygon fill="grey" stroke="grey" stroke-width="2" points="590.538,-15.5292 580.521,-18.9829 590.505,-22.5291 590.538,-15.5292"/>
</g>
</g>
</svg>
