<?xml version="1.0" encoding="UTF-8" standalone="no"?>
<!DOCTYPE svg PUBLIC "-//W3C//DTD SVG 1.1//EN"
 "http://www.w3.org/Graphics/SVG/1.1/DTD/svg11.dtd">
<!-- Generated by graphviz version 2.38.0 (20140413.2041)
 -->
<!-- Title: snakemake_dag Pages: 1 -->
<svg width="1293pt" height="1256pt"
 viewBox="0.00 0.00 1293.35 1256.00" xmlns="http://www.w3.org/2000/svg" xmlns:xlink="http://www.w3.org/1999/xlink">
<g id="graph0" class="graph" transform="scale(1 1) rotate(0) translate(4 1252)">
<title>snakemake_dag</title>
<polygon fill="white" stroke="none" points="-4,4 -4,-1252 1289.35,-1252 1289.35,4 -4,4"/>
<!-- 0 -->
<g id="node1" class="node"><title>0</title>
<path fill="none" stroke="#56d8c1" stroke-width="2" d="M84.3813,-524C84.3813,-524 11.8727,-524 11.8727,-524 5.87266,-524 -0.127336,-518 -0.127336,-512 -0.127336,-512 -0.127336,-500 -0.127336,-500 -0.127336,-494 5.87266,-488 11.8727,-488 11.8727,-488 84.3813,-488 84.3813,-488 90.3813,-488 96.3813,-494 96.3813,-500 96.3813,-500 96.3813,-512 96.3813,-512 96.3813,-518 90.3813,-524 84.3813,-524"/>
<text text-anchor="middle" x="48.127" y="-509" font-family="sans" font-size="10.00">flagStats</text>
<text text-anchor="middle" x="48.127" y="-497" font-family="sans" font-size="10.00">sampleFS: Pfeiffer2</text>
</g>
<!-- 30 -->
<g id="node31" class="node"><title>30</title>
<path fill="none" stroke="#567bd8" stroke-width="2" d="M428.127,-36C428.127,-36 398.127,-36 398.127,-36 392.127,-36 386.127,-30 386.127,-24 386.127,-24 386.127,-12 386.127,-12 386.127,-6 392.127,-0 398.127,-0 398.127,-0 428.127,-0 428.127,-0 434.127,-0 440.127,-6 440.127,-12 440.127,-12 440.127,-24 440.127,-24 440.127,-30 434.127,-36 428.127,-36"/>
<text text-anchor="middle" x="413.127" y="-15" font-family="sans" font-size="10.00">all</text>
</g>
<!-- 0&#45;&gt;30 -->
<g id="edge39" class="edge"><title>0&#45;&gt;30</title>
<path fill="none" stroke="grey" stroke-width="2" d="M46.7699,-487.637C44.4875,-456.89 40.127,-390.843 40.127,-335 40.127,-335 40.127,-335 40.127,-173 40.127,-125.039 40.9526,-102.304 78.127,-72 123.188,-35.2674 298.047,-23.6683 375.658,-20.2844"/>
<polygon fill="grey" stroke="grey" stroke-width="2" points="376.093,-23.7695 385.94,-19.8596 375.804,-16.7754 376.093,-23.7695"/>
</g>
<!-- 1 -->
<g id="node2" class="node"><title>1</title>
<path fill="none" stroke="#bed856" stroke-width="2" d="M987.756,-540C987.756,-540 846.498,-540 846.498,-540 840.498,-540 834.498,-534 834.498,-528 834.498,-528 834.498,-484 834.498,-484 834.498,-478 840.498,-472 846.498,-472 846.498,-472 987.756,-472 987.756,-472 993.756,-472 999.756,-478 999.756,-484 999.756,-484 999.756,-528 999.756,-528 999.756,-534 993.756,-540 987.756,-540"/>
<text text-anchor="middle" x="917.127" y="-527" font-family="sans" font-size="10.00">mergeVCF</text>
<text text-anchor="middle" x="917.127" y="-515" font-family="sans" font-size="10.00">pathMV: output/vcfGenUtil_varScan</text>
<text text-anchor="middle" x="917.127" y="-503" font-family="sans" font-size="10.00">sampleMVCF: Pfeiffer2</text>
<text text-anchor="middle" x="917.127" y="-491" font-family="sans" font-size="10.00">varTypeMVCF: snp</text>
<text text-anchor="middle" x="917.127" y="-479" font-family="sans" font-size="10.00">vcfProgramMVCF: varScan</text>
</g>
<!-- 10 -->
<g id="node11" class="node"><title>10</title>
<path fill="none" stroke="#5673d8" stroke-width="2" d="M1012.96,-436C1012.96,-436 879.29,-436 879.29,-436 873.29,-436 867.29,-430 867.29,-424 867.29,-424 867.29,-404 867.29,-404 867.29,-398 873.29,-392 879.29,-392 879.29,-392 1012.96,-392 1012.96,-392 1018.96,-392 1024.96,-398 1024.96,-404 1024.96,-404 1024.96,-424 1024.96,-424 1024.96,-430 1018.96,-436 1012.96,-436"/>
<text text-anchor="middle" x="946.127" y="-423" font-family="sans" font-size="10.00">canonical</text>
<text text-anchor="middle" x="946.127" y="-411" font-family="sans" font-size="10.00">pathCAN: vcfGenUtil_varScan</text>
<text text-anchor="middle" x="946.127" y="-399" font-family="sans" font-size="10.00">sampleCAN: Pfeiffer2.varScan.snp</text>
</g>
<!-- 1&#45;&gt;10 -->
<g id="edge10" class="edge"><title>1&#45;&gt;10</title>
<path fill="none" stroke="grey" stroke-width="2" d="M927.761,-471.998C930.496,-463.51 933.429,-454.407 936.131,-446.022"/>
<polygon fill="grey" stroke="grey" stroke-width="2" points="939.547,-446.833 939.283,-436.241 932.884,-444.686 939.547,-446.833"/>
</g>
<!-- 2 -->
<g id="node3" class="node"><title>2</title>
<path fill="none" stroke="#56b1d8" stroke-width="2" d="M1118.31,-116C1118.31,-116 765.942,-116 765.942,-116 759.942,-116 753.942,-110 753.942,-104 753.942,-104 753.942,-84 753.942,-84 753.942,-78 759.942,-72 765.942,-72 765.942,-72 1118.31,-72 1118.31,-72 1124.31,-72 1130.31,-78 1130.31,-84 1130.31,-84 1130.31,-104 1130.31,-104 1130.31,-110 1124.31,-116 1118.31,-116"/>
<text text-anchor="middle" x="942.127" y="-103" font-family="sans" font-size="10.00">tableMERGE</text>
<text text-anchor="middle" x="942.127" y="-91" font-family="sans" font-size="10.00">annotationSUFFIX: varScan.snp.canonical_annotated.dbsnp_annotated.cosmic_annotated</text>
<text text-anchor="middle" x="942.127" y="-79" font-family="sans" font-size="10.00">tableMergeDIR: vcfGenUtil_varScan/tables</text>
</g>
<!-- 2&#45;&gt;30 -->
<g id="edge35" class="edge"><title>2&#45;&gt;30</title>
<path fill="none" stroke="grey" stroke-width="2" d="M791.952,-71.9925C674.862,-55.6132 520.76,-34.0564 450.696,-24.2554"/>
<polygon fill="grey" stroke="grey" stroke-width="2" points="450.975,-20.7605 440.587,-22.8413 450.005,-27.693 450.975,-20.7605"/>
</g>
<!-- 3 -->
<g id="node4" class="node"><title>3</title>
<path fill="none" stroke="#d87d56" stroke-width="2" d="M165.211,-432C165.211,-432 85.0432,-432 85.0432,-432 79.0432,-432 73.0432,-426 73.0432,-420 73.0432,-420 73.0432,-408 73.0432,-408 73.0432,-402 79.0432,-396 85.0432,-396 85.0432,-396 165.211,-396 165.211,-396 171.211,-396 177.211,-402 177.211,-408 177.211,-408 177.211,-420 177.211,-420 177.211,-426 171.211,-432 165.211,-432"/>
<text text-anchor="middle" x="125.127" y="-417" font-family="sans" font-size="10.00">fastqc</text>
<text text-anchor="middle" x="125.127" y="-405" font-family="sans" font-size="10.00">sampleFQC: Pfeiffer2</text>
</g>
<!-- 3&#45;&gt;30 -->
<g id="edge37" class="edge"><title>3&#45;&gt;30</title>
<path fill="none" stroke="grey" stroke-width="2" d="M116.506,-395.96C102.938,-367.517 78.127,-308.23 78.127,-255 78.127,-255 78.127,-255 78.127,-173 78.127,-125.776 75.4486,-102.938 111.127,-72 150.146,-38.1653 303.517,-25.1726 375.474,-20.8652"/>
<polygon fill="grey" stroke="grey" stroke-width="2" points="376.102,-24.3351 385.885,-20.2689 375.702,-17.3465 376.102,-24.3351"/>
</g>
<!-- 4 -->
<g id="node5" class="node"><title>4</title>
<path fill="none" stroke="#5692d8" stroke-width="2" d="M285.599,-708C285.599,-708 190.655,-708 190.655,-708 184.655,-708 178.655,-702 178.655,-696 178.655,-696 178.655,-684 178.655,-684 178.655,-678 184.655,-672 190.655,-672 190.655,-672 285.599,-672 285.599,-672 291.599,-672 297.599,-678 297.599,-684 297.599,-684 297.599,-696 297.599,-696 297.599,-702 291.599,-708 285.599,-708"/>
<text text-anchor="middle" x="238.127" y="-693" font-family="sans" font-size="10.00">collectRNASeq</text>
<text text-anchor="middle" x="238.127" y="-681" font-family="sans" font-size="10.00">sampleCRNAS: Pfeiffer2</text>
</g>
<!-- 15 -->
<g id="node16" class="node"><title>15</title>
<path fill="none" stroke="#d85656" stroke-width="2" d="M236.881,-352C236.881,-352 147.373,-352 147.373,-352 141.373,-352 135.373,-346 135.373,-340 135.373,-340 135.373,-328 135.373,-328 135.373,-322 141.373,-316 147.373,-316 147.373,-316 236.881,-316 236.881,-316 242.881,-316 248.881,-322 248.881,-328 248.881,-328 248.881,-340 248.881,-340 248.881,-346 242.881,-352 236.881,-352"/>
<text text-anchor="middle" x="192.127" y="-331" font-family="sans" font-size="10.00">collectRNASeqMERGE</text>
</g>
<!-- 4&#45;&gt;15 -->
<g id="edge15" class="edge"><title>4&#45;&gt;15</title>
<path fill="none" stroke="grey" stroke-width="2" d="M235.908,-671.926C228.532,-615.161 204.785,-432.411 195.704,-362.528"/>
<polygon fill="grey" stroke="grey" stroke-width="2" points="199.137,-361.783 194.377,-352.318 192.195,-362.685 199.137,-361.783"/>
</g>
<!-- 5 -->
<g id="node6" class="node"><title>5</title>
<path fill="none" stroke="#8fd856" stroke-width="2" d="M377.711,-192C377.711,-192 292.543,-192 292.543,-192 286.543,-192 280.543,-186 280.543,-180 280.543,-180 280.543,-168 280.543,-168 280.543,-162 286.543,-156 292.543,-156 292.543,-156 377.711,-156 377.711,-156 383.711,-156 389.711,-162 389.711,-168 389.711,-168 389.711,-180 389.711,-180 389.711,-186 383.711,-192 377.711,-192"/>
<text text-anchor="middle" x="335.127" y="-177" font-family="sans" font-size="10.00">collectMultMetrics</text>
<text text-anchor="middle" x="335.127" y="-165" font-family="sans" font-size="10.00">sampleCMM: Pfeiffer2</text>
</g>
<!-- 16 -->
<g id="node17" class="node"><title>16</title>
<path fill="none" stroke="#56d85b" stroke-width="2" d="M249.758,-112C249.758,-112 156.496,-112 156.496,-112 150.496,-112 144.496,-106 144.496,-100 144.496,-100 144.496,-88 144.496,-88 144.496,-82 150.496,-76 156.496,-76 156.496,-76 249.758,-76 249.758,-76 255.758,-76 261.758,-82 261.758,-88 261.758,-88 261.758,-100 261.758,-100 261.758,-106 255.758,-112 249.758,-112"/>
<text text-anchor="middle" x="203.127" y="-91" font-family="sans" font-size="10.00">collectInsertSizeMERGE</text>
</g>
<!-- 5&#45;&gt;16 -->
<g id="edge16" class="edge"><title>5&#45;&gt;16</title>
<path fill="none" stroke="grey" stroke-width="2" d="M306.159,-155.883C286.988,-144.554 261.652,-129.583 240.903,-117.322"/>
<polygon fill="grey" stroke="grey" stroke-width="2" points="242.417,-114.152 232.027,-112.078 238.856,-120.178 242.417,-114.152"/>
</g>
<!-- 32 -->
<g id="node33" class="node"><title>32</title>
<path fill="none" stroke="#56d8b9" stroke-width="2" d="M426.935,-112C426.935,-112 291.319,-112 291.319,-112 285.319,-112 279.319,-106 279.319,-100 279.319,-100 279.319,-88 279.319,-88 279.319,-82 285.319,-76 291.319,-76 291.319,-76 426.935,-76 426.935,-76 432.935,-76 438.935,-82 438.935,-88 438.935,-88 438.935,-100 438.935,-100 438.935,-106 432.935,-112 426.935,-112"/>
<text text-anchor="middle" x="359.127" y="-91" font-family="sans" font-size="10.00">collectAlignmentSummaryMERGE</text>
</g>
<!-- 5&#45;&gt;32 -->
<g id="edge42" class="edge"><title>5&#45;&gt;32</title>
<path fill="none" stroke="grey" stroke-width="2" d="M340.453,-155.689C343.498,-145.793 347.384,-133.164 350.822,-121.993"/>
<polygon fill="grey" stroke="grey" stroke-width="2" points="354.22,-122.849 353.816,-112.262 347.529,-120.791 354.22,-122.849"/>
</g>
<!-- 6 -->
<g id="node7" class="node"><title>6</title>
<path fill="none" stroke="#9fd856" stroke-width="2" d="M465.149,-708C465.149,-708 375.105,-708 375.105,-708 369.105,-708 363.105,-702 363.105,-696 363.105,-696 363.105,-684 363.105,-684 363.105,-678 369.105,-672 375.105,-672 375.105,-672 465.149,-672 465.149,-672 471.149,-672 477.149,-678 477.149,-684 477.149,-684 477.149,-696 477.149,-696 477.149,-702 471.149,-708 465.149,-708"/>
<text text-anchor="middle" x="420.127" y="-693" font-family="sans" font-size="10.00">collectWGS</text>
<text text-anchor="middle" x="420.127" y="-681" font-family="sans" font-size="10.00">sampleCWGS: Pfeiffer2</text>
</g>
<!-- 8 -->
<g id="node9" class="node"><title>8</title>
<path fill="none" stroke="#56d892" stroke-width="2" d="M461.993,-272C461.993,-272 386.261,-272 386.261,-272 380.261,-272 374.261,-266 374.261,-260 374.261,-260 374.261,-248 374.261,-248 374.261,-242 380.261,-236 386.261,-236 386.261,-236 461.993,-236 461.993,-236 467.993,-236 473.993,-242 473.993,-248 473.993,-248 473.993,-260 473.993,-260 473.993,-266 467.993,-272 461.993,-272"/>
<text text-anchor="middle" x="424.127" y="-251" font-family="sans" font-size="10.00">collectWGSMERGE</text>
</g>
<!-- 6&#45;&gt;8 -->
<g id="edge8" class="edge"><title>6&#45;&gt;8</title>
<path fill="none" stroke="grey" stroke-width="2" d="M420.439,-671.938C421.002,-639.71 422.127,-567.67 422.127,-507 422.127,-507 422.127,-507 422.127,-413 422.127,-367.111 422.981,-313.732 423.573,-282.244"/>
<polygon fill="grey" stroke="grey" stroke-width="2" points="427.076,-282.133 423.769,-272.067 420.077,-281.998 427.076,-282.133"/>
</g>
<!-- 7 -->
<g id="node8" class="node"><title>7</title>
<path fill="none" stroke="#d88d56" stroke-width="2" d="M419.05,-1248C419.05,-1248 335.204,-1248 335.204,-1248 329.204,-1248 323.204,-1242 323.204,-1236 323.204,-1236 323.204,-1224 323.204,-1224 323.204,-1218 329.204,-1212 335.204,-1212 335.204,-1212 419.05,-1212 419.05,-1212 425.05,-1212 431.05,-1218 431.05,-1224 431.05,-1224 431.05,-1236 431.05,-1236 431.05,-1242 425.05,-1248 419.05,-1248"/>
<text text-anchor="middle" x="377.127" y="-1233" font-family="sans" font-size="10.00">bam2fastq_picard</text>
<text text-anchor="middle" x="377.127" y="-1221" font-family="sans" font-size="10.00">sampleB2FP: Pfeiffer2</text>
</g>
<!-- 19 -->
<g id="node20" class="node"><title>19</title>
<path fill="none" stroke="#56d8d8" stroke-width="2" d="M355.651,-1176C355.651,-1176 268.603,-1176 268.603,-1176 262.603,-1176 256.603,-1170 256.603,-1164 256.603,-1164 256.603,-1144 256.603,-1144 256.603,-1138 262.603,-1132 268.603,-1132 268.603,-1132 355.651,-1132 355.651,-1132 361.651,-1132 367.651,-1138 367.651,-1144 367.651,-1144 367.651,-1164 367.651,-1164 367.651,-1170 361.651,-1176 355.651,-1176"/>
<text text-anchor="middle" x="312.127" y="-1163" font-family="sans" font-size="10.00">fastq2GZ</text>
<text text-anchor="middle" x="312.127" y="-1151" font-family="sans" font-size="10.00">pathFGZ: output/fastq</text>
<text text-anchor="middle" x="312.127" y="-1139" font-family="sans" font-size="10.00">sampleFGZ: Pfeiffer2.1</text>
</g>
<!-- 7&#45;&gt;19 -->
<g id="edge19" class="edge"><title>7&#45;&gt;19</title>
<path fill="none" stroke="grey" stroke-width="2" d="M362.051,-1211.84C354.726,-1203.5 345.725,-1193.25 337.392,-1183.76"/>
<polygon fill="grey" stroke="grey" stroke-width="2" points="339.83,-1181.24 330.601,-1176.03 334.571,-1185.86 339.83,-1181.24"/>
</g>
<!-- 25 -->
<g id="node26" class="node"><title>25</title>
<path fill="none" stroke="#56d8d8" stroke-width="2" d="M485.651,-1176C485.651,-1176 398.603,-1176 398.603,-1176 392.603,-1176 386.603,-1170 386.603,-1164 386.603,-1164 386.603,-1144 386.603,-1144 386.603,-1138 392.603,-1132 398.603,-1132 398.603,-1132 485.651,-1132 485.651,-1132 491.651,-1132 497.651,-1138 497.651,-1144 497.651,-1144 497.651,-1164 497.651,-1164 497.651,-1170 491.651,-1176 485.651,-1176"/>
<text text-anchor="middle" x="442.127" y="-1163" font-family="sans" font-size="10.00">fastq2GZ</text>
<text text-anchor="middle" x="442.127" y="-1151" font-family="sans" font-size="10.00">pathFGZ: output/fastq</text>
<text text-anchor="middle" x="442.127" y="-1139" font-family="sans" font-size="10.00">sampleFGZ: Pfeiffer2.2</text>
</g>
<!-- 7&#45;&gt;25 -->
<g id="edge26" class="edge"><title>7&#45;&gt;25</title>
<path fill="none" stroke="grey" stroke-width="2" d="M392.203,-1211.84C399.528,-1203.5 408.529,-1193.25 416.862,-1183.76"/>
<polygon fill="grey" stroke="grey" stroke-width="2" points="419.683,-1185.86 423.653,-1176.03 414.424,-1181.24 419.683,-1185.86"/>
</g>
<!-- 8&#45;&gt;30 -->
<g id="edge33" class="edge"><title>8&#45;&gt;30</title>
<path fill="none" stroke="grey" stroke-width="2" d="M431.065,-235.902C443.266,-203.335 465.682,-130.44 448.127,-72 445.207,-62.281 439.864,-52.7003 434.216,-44.4145"/>
<polygon fill="grey" stroke="grey" stroke-width="2" points="437.023,-42.3238 428.31,-36.2971 431.363,-46.4423 437.023,-42.3238"/>
</g>
<!-- 9 -->
<g id="node10" class="node"><title>9</title>
<path fill="none" stroke="#d8cb56" stroke-width="2" d="M542.041,-622C542.041,-622 468.213,-622 468.213,-622 462.213,-622 456.213,-616 456.213,-610 456.213,-610 456.213,-598 456.213,-598 456.213,-592 462.213,-586 468.213,-586 468.213,-586 542.041,-586 542.041,-586 548.041,-586 554.041,-592 554.041,-598 554.041,-598 554.041,-610 554.041,-610 554.041,-616 548.041,-622 542.041,-622"/>
<text text-anchor="middle" x="505.127" y="-607" font-family="sans" font-size="10.00">readLen</text>
<text text-anchor="middle" x="505.127" y="-595" font-family="sans" font-size="10.00">sampleRL: Pfeiffer2</text>
</g>
<!-- 9&#45;&gt;30 -->
<g id="edge32" class="edge"><title>9&#45;&gt;30</title>
<path fill="none" stroke="grey" stroke-width="2" d="M505.127,-585.892C505.127,-552.859 505.127,-477.993 505.127,-415 505.127,-415 505.127,-415 505.127,-173 505.127,-124.881 492.375,-112.33 466.127,-72 459.374,-61.6245 450.321,-51.6412 441.61,-43.1915"/>
<polygon fill="grey" stroke="grey" stroke-width="2" points="443.808,-40.4548 434.109,-36.1894 439.031,-45.5718 443.808,-40.4548"/>
</g>
<!-- 18 -->
<g id="node19" class="node"><title>18</title>
<path fill="none" stroke="#56b9d8" stroke-width="2" d="M1145.32,-356C1145.32,-356 920.93,-356 920.93,-356 914.93,-356 908.93,-350 908.93,-344 908.93,-344 908.93,-324 908.93,-324 908.93,-318 914.93,-312 920.93,-312 920.93,-312 1145.32,-312 1145.32,-312 1151.32,-312 1157.32,-318 1157.32,-324 1157.32,-324 1157.32,-344 1157.32,-344 1157.32,-350 1151.32,-356 1145.32,-356"/>
<text text-anchor="middle" x="1033.13" y="-343" font-family="sans" font-size="10.00">dbsnp</text>
<text text-anchor="middle" x="1033.13" y="-331" font-family="sans" font-size="10.00">pathDbSnp: output/vcfGenUtil_varScan</text>
<text text-anchor="middle" x="1033.13" y="-319" font-family="sans" font-size="10.00">sampleDbSnp: Pfeiffer2.varScan.snp.canonical_annotated</text>
</g>
<!-- 10&#45;&gt;18 -->
<g id="edge18" class="edge"><title>10&#45;&gt;18</title>
<path fill="none" stroke="grey" stroke-width="2" d="M969.9,-391.686C979.859,-382.757 991.569,-372.259 1002.19,-362.74"/>
<polygon fill="grey" stroke="grey" stroke-width="2" points="1004.57,-365.299 1009.68,-356.018 999.902,-360.087 1004.57,-365.299"/>
</g>
<!-- 11 -->
<g id="node12" class="node"><title>11</title>
<path fill="none" stroke="#568ad8" stroke-width="2" d="M752.436,-632C752.436,-632 639.818,-632 639.818,-632 633.818,-632 627.818,-626 627.818,-620 627.818,-620 627.818,-588 627.818,-588 627.818,-582 633.818,-576 639.818,-576 639.818,-576 752.436,-576 752.436,-576 758.436,-576 764.436,-582 764.436,-588 764.436,-588 764.436,-620 764.436,-620 764.436,-626 758.436,-632 752.436,-632"/>
<text text-anchor="middle" x="696.127" y="-619" font-family="sans" font-size="10.00">mpileup2vcf_single</text>
<text text-anchor="middle" x="696.127" y="-607" font-family="sans" font-size="10.00">chrMPU2VCFS: _1</text>
<text text-anchor="middle" x="696.127" y="-595" font-family="sans" font-size="10.00">sampleMPU2VCFS: Pfeiffer2</text>
<text text-anchor="middle" x="696.127" y="-583" font-family="sans" font-size="10.00">varTypeMPU2VCFS: indel</text>
</g>
<!-- 22 -->
<g id="node23" class="node"><title>22</title>
<path fill="none" stroke="#bed856" stroke-width="2" d="M766.756,-540C766.756,-540 625.498,-540 625.498,-540 619.498,-540 613.498,-534 613.498,-528 613.498,-528 613.498,-484 613.498,-484 613.498,-478 619.498,-472 625.498,-472 625.498,-472 766.756,-472 766.756,-472 772.756,-472 778.756,-478 778.756,-484 778.756,-484 778.756,-528 778.756,-528 778.756,-534 772.756,-540 766.756,-540"/>
<text text-anchor="middle" x="696.127" y="-527" font-family="sans" font-size="10.00">mergeVCF</text>
<text text-anchor="middle" x="696.127" y="-515" font-family="sans" font-size="10.00">pathMV: output/vcfGenUtil_varScan</text>
<text text-anchor="middle" x="696.127" y="-503" font-family="sans" font-size="10.00">sampleMVCF: Pfeiffer2</text>
<text text-anchor="middle" x="696.127" y="-491" font-family="sans" font-size="10.00">varTypeMVCF: indel</text>
<text text-anchor="middle" x="696.127" y="-479" font-family="sans" font-size="10.00">vcfProgramMVCF: varScan</text>
</g>
<!-- 11&#45;&gt;22 -->
<g id="edge23" class="edge"><title>11&#45;&gt;22</title>
<path fill="none" stroke="grey" stroke-width="2" d="M696.127,-575.747C696.127,-567.779 696.127,-558.865 696.127,-550.166"/>
<polygon fill="grey" stroke="grey" stroke-width="2" points="699.627,-550.122 696.127,-540.122 692.627,-550.122 699.627,-550.122"/>
</g>
<!-- 12 -->
<g id="node13" class="node"><title>12</title>
<path fill="none" stroke="#56c9d8" stroke-width="2" d="M1241.29,-196C1241.29,-196 866.969,-196 866.969,-196 860.969,-196 854.969,-190 854.969,-184 854.969,-184 854.969,-164 854.969,-164 854.969,-158 860.969,-152 866.969,-152 866.969,-152 1241.29,-152 1241.29,-152 1247.29,-152 1253.29,-158 1253.29,-164 1253.29,-164 1253.29,-184 1253.29,-184 1253.29,-190 1247.29,-196 1241.29,-196"/>
<text text-anchor="middle" x="1054.13" y="-183" font-family="sans" font-size="10.00">getVcfTable</text>
<text text-anchor="middle" x="1054.13" y="-171" font-family="sans" font-size="10.00">pathGVCFT: output/vcfGenUtil_varScan</text>
<text text-anchor="middle" x="1054.13" y="-159" font-family="sans" font-size="10.00">sampleGVCFT: Pfeiffer2.varScan.snp.canonical_annotated.dbsnp_annotated.cosmic_annotated</text>
</g>
<!-- 12&#45;&gt;2 -->
<g id="edge3" class="edge"><title>12&#45;&gt;2</title>
<path fill="none" stroke="grey" stroke-width="2" d="M1023.82,-151.892C1010.62,-142.701 994.992,-131.817 980.957,-122.042"/>
<polygon fill="grey" stroke="grey" stroke-width="2" points="982.666,-118.968 972.46,-116.125 978.666,-124.712 982.666,-118.968"/>
</g>
<!-- 13 -->
<g id="node14" class="node"><title>13</title>
<path fill="none" stroke="#d89556" stroke-width="2" d="M807.701,-356C807.701,-356 584.553,-356 584.553,-356 578.553,-356 572.553,-350 572.553,-344 572.553,-344 572.553,-324 572.553,-324 572.553,-318 578.553,-312 584.553,-312 584.553,-312 807.701,-312 807.701,-312 813.701,-312 819.701,-318 819.701,-324 819.701,-324 819.701,-344 819.701,-344 819.701,-350 813.701,-356 807.701,-356"/>
<text text-anchor="middle" x="696.127" y="-343" font-family="sans" font-size="10.00">indel</text>
<text text-anchor="middle" x="696.127" y="-331" font-family="sans" font-size="10.00">pathIndel: output/vcfGenUtil_varScan</text>
<text text-anchor="middle" x="696.127" y="-319" font-family="sans" font-size="10.00">sampleIndel: Pfeiffer2.varScan.indel.canonical_annotated</text>
</g>
<!-- 17 -->
<g id="node18" class="node"><title>17</title>
<path fill="none" stroke="#56c9d8" stroke-width="2" d="M847.301,-276C847.301,-276 544.953,-276 544.953,-276 538.953,-276 532.953,-270 532.953,-264 532.953,-264 532.953,-244 532.953,-244 532.953,-238 538.953,-232 544.953,-232 544.953,-232 847.301,-232 847.301,-232 853.301,-232 859.301,-238 859.301,-244 859.301,-244 859.301,-264 859.301,-264 859.301,-270 853.301,-276 847.301,-276"/>
<text text-anchor="middle" x="696.127" y="-263" font-family="sans" font-size="10.00">getVcfTable</text>
<text text-anchor="middle" x="696.127" y="-251" font-family="sans" font-size="10.00">pathGVCFT: output/vcfGenUtil_varScan</text>
<text text-anchor="middle" x="696.127" y="-239" font-family="sans" font-size="10.00">sampleGVCFT: Pfeiffer2.varScan.indel.canonical_annotated.indel_annotated</text>
</g>
<!-- 13&#45;&gt;17 -->
<g id="edge17" class="edge"><title>13&#45;&gt;17</title>
<path fill="none" stroke="grey" stroke-width="2" d="M696.127,-311.686C696.127,-303.798 696.127,-294.684 696.127,-286.103"/>
<polygon fill="grey" stroke="grey" stroke-width="2" points="699.627,-286.018 696.127,-276.018 692.627,-286.018 699.627,-286.018"/>
</g>
<!-- 14 -->
<g id="node15" class="node"><title>14</title>
<path fill="none" stroke="#d86e56" stroke-width="2" d="M443.156,-1024C443.156,-1024 311.098,-1024 311.098,-1024 305.098,-1024 299.098,-1018 299.098,-1012 299.098,-1012 299.098,-992 299.098,-992 299.098,-986 305.098,-980 311.098,-980 311.098,-980 443.156,-980 443.156,-980 449.156,-980 455.156,-986 455.156,-992 455.156,-992 455.156,-1012 455.156,-1012 455.156,-1018 449.156,-1024 443.156,-1024"/>
<text text-anchor="middle" x="377.127" y="-1011" font-family="sans" font-size="10.00">sortBAM_biobambam</text>
<text text-anchor="middle" x="377.127" y="-999" font-family="sans" font-size="10.00">pathSBB: output/bam</text>
<text text-anchor="middle" x="377.127" y="-987" font-family="sans" font-size="10.00">sampleSBB: Pfeiffer2_Aligned.out</text>
</g>
<!-- 31 -->
<g id="node32" class="node"><title>31</title>
<path fill="none" stroke="#56d873" stroke-width="2" d="M454.922,-944C454.922,-944 299.332,-944 299.332,-944 293.332,-944 287.332,-938 287.332,-932 287.332,-932 287.332,-912 287.332,-912 287.332,-906 293.332,-900 299.332,-900 299.332,-900 454.922,-900 454.922,-900 460.922,-900 466.922,-906 466.922,-912 466.922,-912 466.922,-932 466.922,-932 466.922,-938 460.922,-944 454.922,-944"/>
<text text-anchor="middle" x="377.127" y="-931" font-family="sans" font-size="10.00">filteredBAM</text>
<text text-anchor="middle" x="377.127" y="-919" font-family="sans" font-size="10.00">pathFB: output/bam</text>
<text text-anchor="middle" x="377.127" y="-907" font-family="sans" font-size="10.00">sampleFB: Pfeiffer2_Aligned.out_sorted</text>
</g>
<!-- 14&#45;&gt;31 -->
<g id="edge41" class="edge"><title>14&#45;&gt;31</title>
<path fill="none" stroke="grey" stroke-width="2" d="M377.127,-979.686C377.127,-971.798 377.127,-962.684 377.127,-954.103"/>
<polygon fill="grey" stroke="grey" stroke-width="2" points="380.627,-954.018 377.127,-944.018 373.627,-954.018 380.627,-954.018"/>
</g>
<!-- 15&#45;&gt;30 -->
<g id="edge34" class="edge"><title>15&#45;&gt;30</title>
<path fill="none" stroke="grey" stroke-width="2" d="M179.71,-315.776C148.605,-270.362 74.0732,-145.793 135.127,-72 165.229,-35.6172 306.855,-23.9903 375.56,-20.4552"/>
<polygon fill="grey" stroke="grey" stroke-width="2" points="376.113,-23.9327 385.932,-19.9547 375.775,-16.9408 376.113,-23.9327"/>
</g>
<!-- 16&#45;&gt;30 -->
<g id="edge31" class="edge"><title>16&#45;&gt;30</title>
<path fill="none" stroke="grey" stroke-width="2" d="M251.569,-75.93C289.604,-62.5272 341.752,-44.1513 376.396,-31.9433"/>
<polygon fill="grey" stroke="grey" stroke-width="2" points="377.845,-35.1436 386.114,-28.519 375.519,-28.5415 377.845,-35.1436"/>
</g>
<!-- 28 -->
<g id="node29" class="node"><title>28</title>
<path fill="none" stroke="#56b1d8" stroke-width="2" d="M824.828,-196C824.828,-196 545.426,-196 545.426,-196 539.426,-196 533.426,-190 533.426,-184 533.426,-184 533.426,-164 533.426,-164 533.426,-158 539.426,-152 545.426,-152 545.426,-152 824.828,-152 824.828,-152 830.828,-152 836.828,-158 836.828,-164 836.828,-164 836.828,-184 836.828,-184 836.828,-190 830.828,-196 824.828,-196"/>
<text text-anchor="middle" x="685.127" y="-183" font-family="sans" font-size="10.00">tableMERGE</text>
<text text-anchor="middle" x="685.127" y="-171" font-family="sans" font-size="10.00">annotationSUFFIX: varScan.indel.canonical_annotated.indel_annotated</text>
<text text-anchor="middle" x="685.127" y="-159" font-family="sans" font-size="10.00">tableMergeDIR: vcfGenUtil_varScan/tables</text>
</g>
<!-- 17&#45;&gt;28 -->
<g id="edge29" class="edge"><title>17&#45;&gt;28</title>
<path fill="none" stroke="grey" stroke-width="2" d="M693.121,-231.686C692.009,-223.798 690.723,-214.684 689.513,-206.103"/>
<polygon fill="grey" stroke="grey" stroke-width="2" points="692.953,-205.431 688.091,-196.018 686.022,-206.409 692.953,-205.431"/>
</g>
<!-- 26 -->
<g id="node27" class="node"><title>26</title>
<path fill="none" stroke="#56d8d0" stroke-width="2" d="M1190.26,-276C1190.26,-276 903.997,-276 903.997,-276 897.997,-276 891.997,-270 891.997,-264 891.997,-264 891.997,-244 891.997,-244 891.997,-238 897.997,-232 903.997,-232 903.997,-232 1190.26,-232 1190.26,-232 1196.26,-232 1202.26,-238 1202.26,-244 1202.26,-244 1202.26,-264 1202.26,-264 1202.26,-270 1196.26,-276 1190.26,-276"/>
<text text-anchor="middle" x="1047.13" y="-263" font-family="sans" font-size="10.00">cosmic</text>
<text text-anchor="middle" x="1047.13" y="-251" font-family="sans" font-size="10.00">pathCOS: output/vcfGenUtil_varScan</text>
<text text-anchor="middle" x="1047.13" y="-239" font-family="sans" font-size="10.00">sampleCOS: Pfeiffer2.varScan.snp.canonical_annotated.dbsnp_annotated</text>
</g>
<!-- 18&#45;&gt;26 -->
<g id="edge27" class="edge"><title>18&#45;&gt;26</title>
<path fill="none" stroke="grey" stroke-width="2" d="M1036.95,-311.686C1038.37,-303.798 1040,-294.684 1041.54,-286.103"/>
<polygon fill="grey" stroke="grey" stroke-width="2" points="1045.03,-286.479 1043.35,-276.018 1038.14,-285.242 1045.03,-286.479"/>
</g>
<!-- 21 -->
<g id="node22" class="node"><title>21</title>
<path fill="none" stroke="#d8ac56" stroke-width="2" d="M417.82,-1096C417.82,-1096 336.434,-1096 336.434,-1096 330.434,-1096 324.434,-1090 324.434,-1084 324.434,-1084 324.434,-1072 324.434,-1072 324.434,-1066 330.434,-1060 336.434,-1060 336.434,-1060 417.82,-1060 417.82,-1060 423.82,-1060 429.82,-1066 429.82,-1072 429.82,-1072 429.82,-1084 429.82,-1084 429.82,-1090 423.82,-1096 417.82,-1096"/>
<text text-anchor="middle" x="377.127" y="-1081" font-family="sans" font-size="10.00">bamALIGN_bwa</text>
<text text-anchor="middle" x="377.127" y="-1069" font-family="sans" font-size="10.00">sampleBAB: Pfeiffer2</text>
</g>
<!-- 19&#45;&gt;21 -->
<g id="edge22" class="edge"><title>19&#45;&gt;21</title>
<path fill="none" stroke="grey" stroke-width="2" d="M330.58,-1131.99C338.243,-1123.27 347.197,-1113.07 355.194,-1103.97"/>
<polygon fill="grey" stroke="grey" stroke-width="2" points="357.948,-1106.14 361.918,-1096.31 352.689,-1101.52 357.948,-1106.14"/>
</g>
<!-- 20 -->
<g id="node21" class="node"><title>20</title>
<path fill="none" stroke="#5673d8" stroke-width="2" d="M766.073,-436C766.073,-436 626.181,-436 626.181,-436 620.181,-436 614.181,-430 614.181,-424 614.181,-424 614.181,-404 614.181,-404 614.181,-398 620.181,-392 626.181,-392 626.181,-392 766.073,-392 766.073,-392 772.073,-392 778.073,-398 778.073,-404 778.073,-404 778.073,-424 778.073,-424 778.073,-430 772.073,-436 766.073,-436"/>
<text text-anchor="middle" x="696.127" y="-423" font-family="sans" font-size="10.00">canonical</text>
<text text-anchor="middle" x="696.127" y="-411" font-family="sans" font-size="10.00">pathCAN: vcfGenUtil_varScan</text>
<text text-anchor="middle" x="696.127" y="-399" font-family="sans" font-size="10.00">sampleCAN: Pfeiffer2.varScan.indel</text>
</g>
<!-- 20&#45;&gt;13 -->
<g id="edge13" class="edge"><title>20&#45;&gt;13</title>
<path fill="none" stroke="grey" stroke-width="2" d="M696.127,-391.686C696.127,-383.798 696.127,-374.684 696.127,-366.103"/>
<polygon fill="grey" stroke="grey" stroke-width="2" points="699.627,-366.018 696.127,-356.018 692.627,-366.018 699.627,-366.018"/>
</g>
<!-- 21&#45;&gt;14 -->
<g id="edge14" class="edge"><title>21&#45;&gt;14</title>
<path fill="none" stroke="grey" stroke-width="2" d="M377.127,-1059.84C377.127,-1052.16 377.127,-1042.88 377.127,-1034.05"/>
<polygon fill="grey" stroke="grey" stroke-width="2" points="380.627,-1034.03 377.127,-1024.03 373.627,-1034.03 380.627,-1034.03"/>
</g>
<!-- 22&#45;&gt;20 -->
<g id="edge20" class="edge"><title>22&#45;&gt;20</title>
<path fill="none" stroke="grey" stroke-width="2" d="M696.127,-471.998C696.127,-463.603 696.127,-454.607 696.127,-446.299"/>
<polygon fill="grey" stroke="grey" stroke-width="2" points="699.627,-446.241 696.127,-436.241 692.627,-446.242 699.627,-446.241"/>
</g>
<!-- 23 -->
<g id="node24" class="node"><title>23</title>
<path fill="none" stroke="#568ad8" stroke-width="2" d="M915.436,-632C915.436,-632 802.818,-632 802.818,-632 796.818,-632 790.818,-626 790.818,-620 790.818,-620 790.818,-588 790.818,-588 790.818,-582 796.818,-576 802.818,-576 802.818,-576 915.436,-576 915.436,-576 921.436,-576 927.436,-582 927.436,-588 927.436,-588 927.436,-620 927.436,-620 927.436,-626 921.436,-632 915.436,-632"/>
<text text-anchor="middle" x="859.127" y="-619" font-family="sans" font-size="10.00">mpileup2vcf_single</text>
<text text-anchor="middle" x="859.127" y="-607" font-family="sans" font-size="10.00">chrMPU2VCFS: _1</text>
<text text-anchor="middle" x="859.127" y="-595" font-family="sans" font-size="10.00">sampleMPU2VCFS: Pfeiffer2</text>
<text text-anchor="middle" x="859.127" y="-583" font-family="sans" font-size="10.00">varTypeMPU2VCFS: snp</text>
</g>
<!-- 23&#45;&gt;1 -->
<g id="edge2" class="edge"><title>23&#45;&gt;1</title>
<path fill="none" stroke="grey" stroke-width="2" d="M875.592,-575.747C880.668,-567.345 886.379,-557.894 891.903,-548.75"/>
<polygon fill="grey" stroke="grey" stroke-width="2" points="894.94,-550.491 897.116,-540.122 888.949,-546.871 894.94,-550.491"/>
</g>
<!-- 24 -->
<g id="node25" class="node"><title>24</title>
<path fill="none" stroke="#56a2d8" stroke-width="2" d="M736.821,-712C736.821,-712 655.433,-712 655.433,-712 649.433,-712 643.433,-706 643.433,-700 643.433,-700 643.433,-680 643.433,-680 643.433,-674 649.433,-668 655.433,-668 655.433,-668 736.821,-668 736.821,-668 742.821,-668 748.821,-674 748.821,-680 748.821,-680 748.821,-700 748.821,-700 748.821,-706 742.821,-712 736.821,-712"/>
<text text-anchor="middle" x="696.127" y="-699" font-family="sans" font-size="10.00">bam2mpileup</text>
<text text-anchor="middle" x="696.127" y="-687" font-family="sans" font-size="10.00">chrB2M: _1</text>
<text text-anchor="middle" x="696.127" y="-675" font-family="sans" font-size="10.00">sampleB2M: Pfeiffer2</text>
</g>
<!-- 24&#45;&gt;11 -->
<g id="edge11" class="edge"><title>24&#45;&gt;11</title>
<path fill="none" stroke="grey" stroke-width="2" d="M696.127,-667.803C696.127,-660.048 696.127,-651.027 696.127,-642.282"/>
<polygon fill="grey" stroke="grey" stroke-width="2" points="699.627,-642.236 696.127,-632.236 692.627,-642.236 699.627,-642.236"/>
</g>
<!-- 24&#45;&gt;23 -->
<g id="edge24" class="edge"><title>24&#45;&gt;23</title>
<path fill="none" stroke="grey" stroke-width="2" d="M737.259,-667.803C755.497,-658.404 777.343,-647.146 797.471,-636.774"/>
<polygon fill="grey" stroke="grey" stroke-width="2" points="799.293,-639.772 806.578,-632.08 796.086,-633.55 799.293,-639.772"/>
</g>
<!-- 25&#45;&gt;21 -->
<g id="edge21" class="edge"><title>25&#45;&gt;21</title>
<path fill="none" stroke="grey" stroke-width="2" d="M423.674,-1131.99C416.011,-1123.27 407.057,-1113.07 399.06,-1103.97"/>
<polygon fill="grey" stroke="grey" stroke-width="2" points="401.565,-1101.52 392.336,-1096.31 396.306,-1106.14 401.565,-1101.52"/>
</g>
<!-- 26&#45;&gt;12 -->
<g id="edge12" class="edge"><title>26&#45;&gt;12</title>
<path fill="none" stroke="grey" stroke-width="2" d="M1049.04,-231.686C1049.75,-223.798 1050.57,-214.684 1051.34,-206.103"/>
<polygon fill="grey" stroke="grey" stroke-width="2" points="1054.83,-206.291 1052.24,-196.018 1047.86,-205.665 1054.83,-206.291"/>
</g>
<!-- 27 -->
<g id="node28" class="node"><title>27</title>
<path fill="none" stroke="#d8a456" stroke-width="2" d="M476.844,-864C476.844,-864 277.41,-864 277.41,-864 271.41,-864 265.41,-858 265.41,-852 265.41,-852 265.41,-832 265.41,-832 265.41,-826 271.41,-820 277.41,-820 277.41,-820 476.844,-820 476.844,-820 482.844,-820 488.844,-826 488.844,-832 488.844,-832 488.844,-852 488.844,-852 488.844,-858 482.844,-864 476.844,-864"/>
<text text-anchor="middle" x="377.127" y="-851" font-family="sans" font-size="10.00">markdupBAM</text>
<text text-anchor="middle" x="377.127" y="-839" font-family="sans" font-size="10.00">outputDIR: output</text>
<text text-anchor="middle" x="377.127" y="-827" font-family="sans" font-size="10.00">sampleMDB: Pfeiffer2_Aligned.out_sorted_filtered</text>
</g>
<!-- 33 -->
<g id="node34" class="node"><title>33</title>
<path fill="none" stroke="#ced856" stroke-width="2" d="M412.761,-784C412.761,-784 341.493,-784 341.493,-784 335.493,-784 329.493,-778 329.493,-772 329.493,-772 329.493,-760 329.493,-760 329.493,-754 335.493,-748 341.493,-748 341.493,-748 412.761,-748 412.761,-748 418.761,-748 424.761,-754 424.761,-760 424.761,-760 424.761,-772 424.761,-772 424.761,-778 418.761,-784 412.761,-784"/>
<text text-anchor="middle" x="377.127" y="-769" font-family="sans" font-size="10.00">indexBAM</text>
<text text-anchor="middle" x="377.127" y="-757" font-family="sans" font-size="10.00">sampleIB: Pfeiffer2</text>
</g>
<!-- 27&#45;&gt;33 -->
<g id="edge43" class="edge"><title>27&#45;&gt;33</title>
<path fill="none" stroke="grey" stroke-width="2" d="M377.127,-819.993C377.127,-812.061 377.127,-802.915 377.127,-794.478"/>
<polygon fill="grey" stroke="grey" stroke-width="2" points="380.627,-794.315 377.127,-784.315 373.627,-794.315 380.627,-794.315"/>
</g>
<!-- 28&#45;&gt;30 -->
<g id="edge36" class="edge"><title>28&#45;&gt;30</title>
<path fill="none" stroke="grey" stroke-width="2" d="M652.22,-151.865C619.065,-130.837 566.214,-98.0379 519.127,-72 496.33,-59.3941 470.155,-46.2935 449.52,-36.2709"/>
<polygon fill="grey" stroke="grey" stroke-width="2" points="450.987,-33.0928 440.46,-31.8953 447.943,-39.3962 450.987,-33.0928"/>
</g>
<!-- 29 -->
<g id="node30" class="node"><title>29</title>
<path fill="none" stroke="#d8d356" stroke-width="2" d="M1211.49,-622C1211.49,-622 1122.76,-622 1122.76,-622 1116.76,-622 1110.76,-616 1110.76,-610 1110.76,-610 1110.76,-598 1110.76,-598 1110.76,-592 1116.76,-586 1122.76,-586 1122.76,-586 1211.49,-586 1211.49,-586 1217.49,-586 1223.49,-592 1223.49,-598 1223.49,-598 1223.49,-610 1223.49,-610 1223.49,-616 1217.49,-622 1211.49,-622"/>
<text text-anchor="middle" x="1167.13" y="-607" font-family="sans" font-size="10.00">collectGCBias</text>
<text text-anchor="middle" x="1167.13" y="-595" font-family="sans" font-size="10.00">sampleCGCB: Pfeiffer2</text>
</g>
<!-- 29&#45;&gt;30 -->
<g id="edge38" class="edge"><title>29&#45;&gt;30</title>
<path fill="none" stroke="grey" stroke-width="2" d="M1186.47,-585.933C1218.99,-555.233 1281.13,-487.143 1281.13,-415 1281.13,-415 1281.13,-415 1281.13,-173 1281.13,-130.472 1322.52,-133.745 1139.13,-72 1009.53,-28.3647 580.205,-20.6288 450.537,-19.2798"/>
<polygon fill="grey" stroke="grey" stroke-width="2" points="450.358,-15.778 440.325,-19.1805 450.29,-22.7777 450.358,-15.778"/>
</g>
<!-- 31&#45;&gt;27 -->
<g id="edge28" class="edge"><title>31&#45;&gt;27</title>
<path fill="none" stroke="grey" stroke-width="2" d="M377.127,-899.686C377.127,-891.798 377.127,-882.684 377.127,-874.103"/>
<polygon fill="grey" stroke="grey" stroke-width="2" points="380.627,-874.018 377.127,-864.018 373.627,-874.018 380.627,-874.018"/>
</g>
<!-- 32&#45;&gt;30 -->
<g id="edge40" class="edge"><title>32&#45;&gt;30</title>
<path fill="none" stroke="grey" stroke-width="2" d="M371.651,-75.8369C378.467,-66.4972 387.03,-54.7632 394.602,-44.3857"/>
<polygon fill="grey" stroke="grey" stroke-width="2" points="397.603,-46.2111 400.671,-36.07 391.949,-42.0848 397.603,-46.2111"/>
</g>
<!-- 33&#45;&gt;0 -->
<g id="edge1" class="edge"><title>33&#45;&gt;0</title>
<path fill="none" stroke="grey" stroke-width="2" d="M329.374,-760.936C263.151,-754.376 148.069,-739.336 117.127,-712 64.7394,-665.717 52.0555,-578.35 49.0341,-534.119"/>
<polygon fill="grey" stroke="grey" stroke-width="2" points="52.5269,-533.892 48.4669,-524.105 45.5381,-534.287 52.5269,-533.892"/>
</g>
<!-- 33&#45;&gt;3 -->
<g id="edge4" class="edge"><title>33&#45;&gt;3</title>
<path fill="none" stroke="grey" stroke-width="2" d="M329.421,-758.923C275.125,-750.992 191.216,-735.317 170.127,-712 100.949,-635.512 111.796,-499.967 120.312,-442.249"/>
<polygon fill="grey" stroke="grey" stroke-width="2" points="123.813,-442.518 121.908,-432.095 116.898,-441.431 123.813,-442.518"/>
</g>
<!-- 33&#45;&gt;4 -->
<g id="edge5" class="edge"><title>33&#45;&gt;4</title>
<path fill="none" stroke="grey" stroke-width="2" d="M344.888,-747.837C325.327,-737.423 300.175,-724.033 279.198,-712.865"/>
<polygon fill="grey" stroke="grey" stroke-width="2" points="280.663,-709.68 270.191,-708.07 277.373,-715.859 280.663,-709.68"/>
</g>
<!-- 33&#45;&gt;5 -->
<g id="edge6" class="edge"><title>33&#45;&gt;5</title>
<path fill="none" stroke="grey" stroke-width="2" d="M368.404,-747.72C363.58,-737.543 357.83,-724.293 354.127,-712 340.196,-665.753 335.127,-653.299 335.127,-605 335.127,-605 335.127,-605 335.127,-333 335.127,-287.115 335.127,-233.734 335.127,-202.245"/>
<polygon fill="grey" stroke="grey" stroke-width="2" points="338.627,-202.068 335.127,-192.068 331.627,-202.068 338.627,-202.068"/>
</g>
<!-- 33&#45;&gt;6 -->
<g id="edge7" class="edge"><title>33&#45;&gt;6</title>
<path fill="none" stroke="grey" stroke-width="2" d="M387.1,-747.837C392.419,-738.684 399.074,-727.232 405.013,-717.01"/>
<polygon fill="grey" stroke="grey" stroke-width="2" points="408.21,-718.475 410.208,-708.07 402.158,-714.958 408.21,-718.475"/>
</g>
<!-- 33&#45;&gt;9 -->
<g id="edge9" class="edge"><title>33&#45;&gt;9</title>
<path fill="none" stroke="grey" stroke-width="2" d="M424.953,-752.672C446.832,-744.62 471.16,-731.812 486.127,-712 503.406,-689.127 506.868,-655.714 506.826,-632.329"/>
<polygon fill="grey" stroke="grey" stroke-width="2" points="510.319,-631.969 506.584,-622.055 503.321,-632.134 510.319,-631.969"/>
</g>
<!-- 33&#45;&gt;24 -->
<g id="edge25" class="edge"><title>33&#45;&gt;24</title>
<path fill="none" stroke="grey" stroke-width="2" d="M424.885,-753.921C480.369,-741.05 572.109,-719.769 633.325,-705.568"/>
<polygon fill="grey" stroke="grey" stroke-width="2" points="634.303,-708.935 643.254,-703.265 632.721,-702.116 634.303,-708.935"/>
</g>
<!-- 33&#45;&gt;29 -->
<g id="edge30" class="edge"><title>33&#45;&gt;29</title>
<path fill="none" stroke="grey" stroke-width="2" d="M424.947,-760.176C497.431,-752.453 639.262,-735.73 758.127,-712 880.3,-687.609 1020.27,-648.522 1100.72,-624.951"/>
<polygon fill="grey" stroke="grey" stroke-width="2" points="1102.11,-628.192 1110.71,-622.014 1100.13,-621.476 1102.11,-628.192"/>
</g>
</g>
</svg>
