<?xml version="1.0" encoding="UTF-8" standalone="no"?>
<!DOCTYPE svg PUBLIC "-//W3C//DTD SVG 1.1//EN"
 "http://www.w3.org/Graphics/SVG/1.1/DTD/svg11.dtd">
<!-- Generated by graphviz version 2.38.0 (20140413.2041)
 -->
<!-- Title: snakemake_dag Pages: 1 -->
<svg width="578pt" height="268pt"
 viewBox="0.00 0.00 578.00 268.00" xmlns="http://www.w3.org/2000/svg" xmlns:xlink="http://www.w3.org/1999/xlink">
<g id="graph0" class="graph" transform="scale(1 1) rotate(0) translate(4 264)">
<title>snakemake_dag</title>
<polygon fill="white" stroke="none" points="-4,4 -4,-264 574,-264 574,4 -4,4"/>
<!-- 0 -->
<g id="node1" class="node"><title>0</title>
<path fill="none" stroke="#56d8a9" stroke-width="2" d="M188.5,-260C188.5,-260 88.5,-260 88.5,-260 82.5,-260 76.5,-254 76.5,-248 76.5,-248 76.5,-236 76.5,-236 76.5,-230 82.5,-224 88.5,-224 88.5,-224 188.5,-224 188.5,-224 194.5,-224 200.5,-230 200.5,-236 200.5,-236 200.5,-248 200.5,-248 200.5,-254 194.5,-260 188.5,-260"/>
<text text-anchor="middle" x="138.5" y="-245" font-family="sans" font-size="10.00">bam2fastq_picard</text>
<text text-anchor="middle" x="138.5" y="-233" font-family="sans" font-size="10.00">sampleB2FP: Pfeiffer3</text>
</g>
<!-- 1 -->
<g id="node2" class="node"><title>1</title>
<path fill="none" stroke="#d85656" stroke-width="2" d="M117,-188C117,-188 12,-188 12,-188 6,-188 0,-182 0,-176 0,-176 0,-156 0,-156 0,-150 6,-144 12,-144 12,-144 117,-144 117,-144 123,-144 129,-150 129,-156 129,-156 129,-176 129,-176 129,-182 123,-188 117,-188"/>
<text text-anchor="middle" x="64.5" y="-175" font-family="sans" font-size="10.00">fastq2GZ</text>
<text text-anchor="middle" x="64.5" y="-163" font-family="sans" font-size="10.00">pathFGZ: output/fastq</text>
<text text-anchor="middle" x="64.5" y="-151" font-family="sans" font-size="10.00">sampleFGZ: Pfeiffer3.2</text>
</g>
<!-- 0&#45;&gt;1 -->
<g id="edge1" class="edge"><title>0&#45;&gt;1</title>
<path fill="none" stroke="grey" stroke-width="2" d="M121.337,-223.837C112.831,-215.331 102.339,-204.839 92.6952,-195.195"/>
<polygon fill="grey" stroke="grey" stroke-width="2" points="95.0782,-192.628 85.5322,-188.032 90.1284,-197.578 95.0782,-192.628"/>
</g>
<!-- 8 -->
<g id="node9" class="node"><title>8</title>
<path fill="none" stroke="#d85656" stroke-width="2" d="M264,-188C264,-188 159,-188 159,-188 153,-188 147,-182 147,-176 147,-176 147,-156 147,-156 147,-150 153,-144 159,-144 159,-144 264,-144 264,-144 270,-144 276,-150 276,-156 276,-156 276,-176 276,-176 276,-182 270,-188 264,-188"/>
<text text-anchor="middle" x="211.5" y="-175" font-family="sans" font-size="10.00">fastq2GZ</text>
<text text-anchor="middle" x="211.5" y="-163" font-family="sans" font-size="10.00">pathFGZ: output/fastq</text>
<text text-anchor="middle" x="211.5" y="-151" font-family="sans" font-size="10.00">sampleFGZ: Pfeiffer3.1</text>
</g>
<!-- 0&#45;&gt;8 -->
<g id="edge10" class="edge"><title>0&#45;&gt;8</title>
<path fill="none" stroke="grey" stroke-width="2" d="M155.431,-223.837C163.822,-215.331 174.172,-204.839 183.686,-195.195"/>
<polygon fill="grey" stroke="grey" stroke-width="2" points="186.221,-197.609 190.752,-188.032 181.238,-192.693 186.221,-197.609"/>
</g>
<!-- 7 -->
<g id="node8" class="node"><title>7</title>
<path fill="none" stroke="#59d856" stroke-width="2" d="M259.5,-108C259.5,-108 163.5,-108 163.5,-108 157.5,-108 151.5,-102 151.5,-96 151.5,-96 151.5,-84 151.5,-84 151.5,-78 157.5,-72 163.5,-72 163.5,-72 259.5,-72 259.5,-72 265.5,-72 271.5,-78 271.5,-84 271.5,-84 271.5,-96 271.5,-96 271.5,-102 265.5,-108 259.5,-108"/>
<text text-anchor="middle" x="211.5" y="-93" font-family="sans" font-size="10.00">bamALIGN_bwa</text>
<text text-anchor="middle" x="211.5" y="-81" font-family="sans" font-size="10.00">sampleBAB: Pfeiffer3</text>
</g>
<!-- 1&#45;&gt;7 -->
<g id="edge8" class="edge"><title>1&#45;&gt;7</title>
<path fill="none" stroke="grey" stroke-width="2" d="M106.231,-143.993C125.723,-134.18 148.906,-122.51 168.548,-112.622"/>
<polygon fill="grey" stroke="grey" stroke-width="2" points="170.227,-115.696 177.585,-108.073 167.079,-109.443 170.227,-115.696"/>
</g>
<!-- 2 -->
<g id="node3" class="node"><title>2</title>
<path fill="none" stroke="#56d8a9" stroke-width="2" d="M481.5,-260C481.5,-260 381.5,-260 381.5,-260 375.5,-260 369.5,-254 369.5,-248 369.5,-248 369.5,-236 369.5,-236 369.5,-230 375.5,-224 381.5,-224 381.5,-224 481.5,-224 481.5,-224 487.5,-224 493.5,-230 493.5,-236 493.5,-236 493.5,-248 493.5,-248 493.5,-254 487.5,-260 481.5,-260"/>
<text text-anchor="middle" x="431.5" y="-245" font-family="sans" font-size="10.00">bam2fastq_picard</text>
<text text-anchor="middle" x="431.5" y="-233" font-family="sans" font-size="10.00">sampleB2FP: Pfeiffer2</text>
</g>
<!-- 5 -->
<g id="node6" class="node"><title>5</title>
<path fill="none" stroke="#d85656" stroke-width="2" d="M411,-188C411,-188 306,-188 306,-188 300,-188 294,-182 294,-176 294,-176 294,-156 294,-156 294,-150 300,-144 306,-144 306,-144 411,-144 411,-144 417,-144 423,-150 423,-156 423,-156 423,-176 423,-176 423,-182 417,-188 411,-188"/>
<text text-anchor="middle" x="358.5" y="-175" font-family="sans" font-size="10.00">fastq2GZ</text>
<text text-anchor="middle" x="358.5" y="-163" font-family="sans" font-size="10.00">pathFGZ: output/fastq</text>
<text text-anchor="middle" x="358.5" y="-151" font-family="sans" font-size="10.00">sampleFGZ: Pfeiffer2.1</text>
</g>
<!-- 2&#45;&gt;5 -->
<g id="edge6" class="edge"><title>2&#45;&gt;5</title>
<path fill="none" stroke="grey" stroke-width="2" d="M414.569,-223.837C406.178,-215.331 395.828,-204.839 386.314,-195.195"/>
<polygon fill="grey" stroke="grey" stroke-width="2" points="388.762,-192.693 379.248,-188.032 383.779,-197.609 388.762,-192.693"/>
</g>
<!-- 6 -->
<g id="node7" class="node"><title>6</title>
<path fill="none" stroke="#d85656" stroke-width="2" d="M558,-188C558,-188 453,-188 453,-188 447,-188 441,-182 441,-176 441,-176 441,-156 441,-156 441,-150 447,-144 453,-144 453,-144 558,-144 558,-144 564,-144 570,-150 570,-156 570,-156 570,-176 570,-176 570,-182 564,-188 558,-188"/>
<text text-anchor="middle" x="505.5" y="-175" font-family="sans" font-size="10.00">fastq2GZ</text>
<text text-anchor="middle" x="505.5" y="-163" font-family="sans" font-size="10.00">pathFGZ: output/fastq</text>
<text text-anchor="middle" x="505.5" y="-151" font-family="sans" font-size="10.00">sampleFGZ: Pfeiffer2.2</text>
</g>
<!-- 2&#45;&gt;6 -->
<g id="edge7" class="edge"><title>2&#45;&gt;6</title>
<path fill="none" stroke="grey" stroke-width="2" d="M448.663,-223.837C457.169,-215.331 467.661,-204.839 477.305,-195.195"/>
<polygon fill="grey" stroke="grey" stroke-width="2" points="479.872,-197.578 484.468,-188.032 474.922,-192.628 479.872,-197.578"/>
</g>
<!-- 3 -->
<g id="node4" class="node"><title>3</title>
<path fill="none" stroke="#59d856" stroke-width="2" d="M406.5,-108C406.5,-108 310.5,-108 310.5,-108 304.5,-108 298.5,-102 298.5,-96 298.5,-96 298.5,-84 298.5,-84 298.5,-78 304.5,-72 310.5,-72 310.5,-72 406.5,-72 406.5,-72 412.5,-72 418.5,-78 418.5,-84 418.5,-84 418.5,-96 418.5,-96 418.5,-102 412.5,-108 406.5,-108"/>
<text text-anchor="middle" x="358.5" y="-93" font-family="sans" font-size="10.00">bamALIGN_bwa</text>
<text text-anchor="middle" x="358.5" y="-81" font-family="sans" font-size="10.00">sampleBAB: Pfeiffer2</text>
</g>
<!-- 4 -->
<g id="node5" class="node"><title>4</title>
<path fill="none" stroke="#afd856" stroke-width="2" d="M299.5,-36C299.5,-36 269.5,-36 269.5,-36 263.5,-36 257.5,-30 257.5,-24 257.5,-24 257.5,-12 257.5,-12 257.5,-6 263.5,-0 269.5,-0 269.5,-0 299.5,-0 299.5,-0 305.5,-0 311.5,-6 311.5,-12 311.5,-12 311.5,-24 311.5,-24 311.5,-30 305.5,-36 299.5,-36"/>
<text text-anchor="middle" x="284.5" y="-15" font-family="sans" font-size="10.00">all</text>
</g>
<!-- 3&#45;&gt;4 -->
<g id="edge4" class="edge"><title>3&#45;&gt;4</title>
<path fill="none" stroke="grey" stroke-width="2" d="M340.208,-71.6966C331.067,-63.0503 319.86,-52.4486 309.9,-43.027"/>
<polygon fill="grey" stroke="grey" stroke-width="2" points="312.252,-40.4337 302.582,-36.1043 307.441,-45.519 312.252,-40.4337"/>
</g>
<!-- 5&#45;&gt;3 -->
<g id="edge2" class="edge"><title>5&#45;&gt;3</title>
<path fill="none" stroke="grey" stroke-width="2" d="M358.5,-143.993C358.5,-136.061 358.5,-126.915 358.5,-118.478"/>
<polygon fill="grey" stroke="grey" stroke-width="2" points="362,-118.315 358.5,-108.315 355,-118.315 362,-118.315"/>
</g>
<!-- 6&#45;&gt;3 -->
<g id="edge3" class="edge"><title>6&#45;&gt;3</title>
<path fill="none" stroke="grey" stroke-width="2" d="M463.769,-143.993C444.277,-134.18 421.094,-122.51 401.452,-112.622"/>
<polygon fill="grey" stroke="grey" stroke-width="2" points="402.921,-109.443 392.415,-108.073 399.773,-115.696 402.921,-109.443"/>
</g>
<!-- 7&#45;&gt;4 -->
<g id="edge5" class="edge"><title>7&#45;&gt;4</title>
<path fill="none" stroke="grey" stroke-width="2" d="M229.545,-71.6966C238.562,-63.0503 249.618,-52.4486 259.443,-43.027"/>
<polygon fill="grey" stroke="grey" stroke-width="2" points="261.867,-45.5518 266.663,-36.1043 257.022,-40.4993 261.867,-45.5518"/>
</g>
<!-- 8&#45;&gt;7 -->
<g id="edge9" class="edge"><title>8&#45;&gt;7</title>
<path fill="none" stroke="grey" stroke-width="2" d="M211.5,-143.993C211.5,-136.061 211.5,-126.915 211.5,-118.478"/>
<polygon fill="grey" stroke="grey" stroke-width="2" points="215,-118.315 211.5,-108.315 208,-118.315 215,-118.315"/>
</g>
</g>
</svg>
