<?xml version="1.0" encoding="UTF-8" standalone="no"?>
<!DOCTYPE svg PUBLIC "-//W3C//DTD SVG 1.1//EN"
 "http://www.w3.org/Graphics/SVG/1.1/DTD/svg11.dtd">
<!-- Generated by graphviz version 2.38.0 (20140413.2041)
 -->
<!-- Title: snakemake_dag Pages: 1 -->
<svg width="1176pt" height="992pt"
 viewBox="0.00 0.00 1176.00 992.00" xmlns="http://www.w3.org/2000/svg" xmlns:xlink="http://www.w3.org/1999/xlink">
<g id="graph0" class="graph" transform="scale(1 1) rotate(0) translate(4 988)">
<title>snakemake_dag</title>
<polygon fill="white" stroke="none" points="-4,4 -4,-988 1172,-988 1172,4 -4,4"/>
<!-- 0 -->
<g id="node1" class="node"><title>0</title>
<path fill="none" stroke="#8fd856" stroke-width="2" d="M826.5,-600C826.5,-600 589.5,-600 589.5,-600 583.5,-600 577.5,-594 577.5,-588 577.5,-588 577.5,-568 577.5,-568 577.5,-562 583.5,-556 589.5,-556 589.5,-556 826.5,-556 826.5,-556 832.5,-556 838.5,-562 838.5,-568 838.5,-568 838.5,-588 838.5,-588 838.5,-594 832.5,-600 826.5,-600"/>
<text text-anchor="middle" x="708" y="-587" font-family="sans" font-size="10.00">markdupBAM</text>
<text text-anchor="middle" x="708" y="-575" font-family="sans" font-size="10.00">outputDIR: output</text>
<text text-anchor="middle" x="708" y="-563" font-family="sans" font-size="10.00">sampleMDB: Pfeiffer3_Aligned.out_sorted_filtered</text>
</g>
<!-- 4 -->
<g id="node5" class="node"><title>4</title>
<path fill="none" stroke="#56d8b9" stroke-width="2" d="M751,-520C751,-520 665,-520 665,-520 659,-520 653,-514 653,-508 653,-508 653,-496 653,-496 653,-490 659,-484 665,-484 665,-484 751,-484 751,-484 757,-484 763,-490 763,-496 763,-496 763,-508 763,-508 763,-514 757,-520 751,-520"/>
<text text-anchor="middle" x="708" y="-505" font-family="sans" font-size="10.00">indexBAM</text>
<text text-anchor="middle" x="708" y="-493" font-family="sans" font-size="10.00">sampleIB: Pfeiffer3</text>
</g>
<!-- 0&#45;&gt;4 -->
<g id="edge5" class="edge"><title>0&#45;&gt;4</title>
<path fill="none" stroke="grey" stroke-width="2" d="M708,-555.993C708,-548.061 708,-538.915 708,-530.478"/>
<polygon fill="grey" stroke="grey" stroke-width="2" points="711.5,-530.315 708,-520.315 704.5,-530.315 711.5,-530.315"/>
</g>
<!-- 1 -->
<g id="node2" class="node"><title>1</title>
<path fill="none" stroke="#56d87b" stroke-width="2" d="M730.5,-368C730.5,-368 601.5,-368 601.5,-368 595.5,-368 589.5,-362 589.5,-356 589.5,-356 589.5,-324 589.5,-324 589.5,-318 595.5,-312 601.5,-312 601.5,-312 730.5,-312 730.5,-312 736.5,-312 742.5,-318 742.5,-324 742.5,-324 742.5,-356 742.5,-356 742.5,-362 736.5,-368 730.5,-368"/>
<text text-anchor="middle" x="666" y="-355" font-family="sans" font-size="10.00">mpileup2vcf_single</text>
<text text-anchor="middle" x="666" y="-343" font-family="sans" font-size="10.00">chrMPU2VCFS: </text>
<text text-anchor="middle" x="666" y="-331" font-family="sans" font-size="10.00">sampleMPU2VCFS: Pfeiffer3</text>
<text text-anchor="middle" x="666" y="-319" font-family="sans" font-size="10.00">varTypeMPU2VCFS: indel</text>
</g>
<!-- 3 -->
<g id="node4" class="node"><title>3</title>
<path fill="none" stroke="#5692d8" stroke-width="2" d="M740.5,-276C740.5,-276 573.5,-276 573.5,-276 567.5,-276 561.5,-270 561.5,-264 561.5,-264 561.5,-244 561.5,-244 561.5,-238 567.5,-232 573.5,-232 573.5,-232 740.5,-232 740.5,-232 746.5,-232 752.5,-238 752.5,-244 752.5,-244 752.5,-264 752.5,-264 752.5,-270 746.5,-276 740.5,-276"/>
<text text-anchor="middle" x="657" y="-263" font-family="sans" font-size="10.00">canonical</text>
<text text-anchor="middle" x="657" y="-251" font-family="sans" font-size="10.00">pathCAN: vcfGenUtil_varScan</text>
<text text-anchor="middle" x="657" y="-239" font-family="sans" font-size="10.00">sampleCAN: Pfeiffer3.varScan.indel</text>
</g>
<!-- 1&#45;&gt;3 -->
<g id="edge4" class="edge"><title>1&#45;&gt;3</title>
<path fill="none" stroke="grey" stroke-width="2" d="M663.103,-311.959C662.219,-303.708 661.24,-294.57 660.329,-286.074"/>
<polygon fill="grey" stroke="grey" stroke-width="2" points="663.81,-285.701 659.264,-276.131 656.849,-286.447 663.81,-285.701"/>
</g>
<!-- 2 -->
<g id="node3" class="node"><title>2</title>
<path fill="none" stroke="#d89556" stroke-width="2" d="M350.5,-760C350.5,-760 193.5,-760 193.5,-760 187.5,-760 181.5,-754 181.5,-748 181.5,-748 181.5,-728 181.5,-728 181.5,-722 187.5,-716 193.5,-716 193.5,-716 350.5,-716 350.5,-716 356.5,-716 362.5,-722 362.5,-728 362.5,-728 362.5,-748 362.5,-748 362.5,-754 356.5,-760 350.5,-760"/>
<text text-anchor="middle" x="272" y="-747" font-family="sans" font-size="10.00">sortBAM_biobambam</text>
<text text-anchor="middle" x="272" y="-735" font-family="sans" font-size="10.00">pathSBB: output/bam</text>
<text text-anchor="middle" x="272" y="-723" font-family="sans" font-size="10.00">sampleSBB: Pfeiffer2_Aligned.out</text>
</g>
<!-- 22 -->
<g id="node23" class="node"><title>22</title>
<path fill="none" stroke="#566bd8" stroke-width="2" d="M365,-680C365,-680 179,-680 179,-680 173,-680 167,-674 167,-668 167,-668 167,-648 167,-648 167,-642 173,-636 179,-636 179,-636 365,-636 365,-636 371,-636 377,-642 377,-648 377,-648 377,-668 377,-668 377,-674 371,-680 365,-680"/>
<text text-anchor="middle" x="272" y="-667" font-family="sans" font-size="10.00">filteredBAM</text>
<text text-anchor="middle" x="272" y="-655" font-family="sans" font-size="10.00">pathFB: output/bam</text>
<text text-anchor="middle" x="272" y="-643" font-family="sans" font-size="10.00">sampleFB: Pfeiffer2_Aligned.out_sorted</text>
</g>
<!-- 2&#45;&gt;22 -->
<g id="edge23" class="edge"><title>2&#45;&gt;22</title>
<path fill="none" stroke="grey" stroke-width="2" d="M272,-715.686C272,-707.798 272,-698.684 272,-690.103"/>
<polygon fill="grey" stroke="grey" stroke-width="2" points="275.5,-690.018 272,-680.018 268.5,-690.018 275.5,-690.018"/>
</g>
<!-- 10 -->
<g id="node11" class="node"><title>10</title>
<path fill="none" stroke="#56d86b" stroke-width="2" d="M760,-116C760,-116 484,-116 484,-116 478,-116 472,-110 472,-104 472,-104 472,-84 472,-84 472,-78 478,-72 484,-72 484,-72 760,-72 760,-72 766,-72 772,-78 772,-84 772,-84 772,-104 772,-104 772,-110 766,-116 760,-116"/>
<text text-anchor="middle" x="622" y="-103" font-family="sans" font-size="10.00">indel</text>
<text text-anchor="middle" x="622" y="-91" font-family="sans" font-size="10.00">pathIndel: output/vcfGenUtil_varScan</text>
<text text-anchor="middle" x="622" y="-79" font-family="sans" font-size="10.00">sampleIndel: Pfeiffer3.varScan.indel.canonical_annotated</text>
</g>
<!-- 3&#45;&gt;10 -->
<g id="edge11" class="edge"><title>3&#45;&gt;10</title>
<path fill="none" stroke="grey" stroke-width="2" d="M652.28,-231.691C646.261,-204.523 635.809,-157.339 628.898,-126.139"/>
<polygon fill="grey" stroke="grey" stroke-width="2" points="632.281,-125.229 626.701,-116.223 625.447,-126.743 632.281,-125.229"/>
</g>
<!-- 6 -->
<g id="node7" class="node"><title>6</title>
<path fill="none" stroke="#d87d56" stroke-width="2" d="M757,-448C757,-448 659,-448 659,-448 653,-448 647,-442 647,-436 647,-436 647,-416 647,-416 647,-410 653,-404 659,-404 659,-404 757,-404 757,-404 763,-404 769,-410 769,-416 769,-416 769,-436 769,-436 769,-442 763,-448 757,-448"/>
<text text-anchor="middle" x="708" y="-435" font-family="sans" font-size="10.00">bam2mpileup</text>
<text text-anchor="middle" x="708" y="-423" font-family="sans" font-size="10.00">chrB2M: </text>
<text text-anchor="middle" x="708" y="-411" font-family="sans" font-size="10.00">sampleB2M: Pfeiffer3</text>
</g>
<!-- 4&#45;&gt;6 -->
<g id="edge7" class="edge"><title>4&#45;&gt;6</title>
<path fill="none" stroke="grey" stroke-width="2" d="M708,-483.837C708,-476.165 708,-466.878 708,-458.053"/>
<polygon fill="grey" stroke="grey" stroke-width="2" points="711.5,-458.032 708,-448.032 704.5,-458.032 711.5,-458.032"/>
</g>
<!-- 5 -->
<g id="node6" class="node"><title>5</title>
<path fill="none" stroke="#56d87b" stroke-width="2" d="M918.5,-368C918.5,-368 789.5,-368 789.5,-368 783.5,-368 777.5,-362 777.5,-356 777.5,-356 777.5,-324 777.5,-324 777.5,-318 783.5,-312 789.5,-312 789.5,-312 918.5,-312 918.5,-312 924.5,-312 930.5,-318 930.5,-324 930.5,-324 930.5,-356 930.5,-356 930.5,-362 924.5,-368 918.5,-368"/>
<text text-anchor="middle" x="854" y="-355" font-family="sans" font-size="10.00">mpileup2vcf_single</text>
<text text-anchor="middle" x="854" y="-343" font-family="sans" font-size="10.00">chrMPU2VCFS: </text>
<text text-anchor="middle" x="854" y="-331" font-family="sans" font-size="10.00">sampleMPU2VCFS: Pfeiffer3</text>
<text text-anchor="middle" x="854" y="-319" font-family="sans" font-size="10.00">varTypeMPU2VCFS: snp</text>
</g>
<!-- 28 -->
<g id="node29" class="node"><title>28</title>
<path fill="none" stroke="#5692d8" stroke-width="2" d="M955,-276C955,-276 795,-276 795,-276 789,-276 783,-270 783,-264 783,-264 783,-244 783,-244 783,-238 789,-232 795,-232 795,-232 955,-232 955,-232 961,-232 967,-238 967,-244 967,-244 967,-264 967,-264 967,-270 961,-276 955,-276"/>
<text text-anchor="middle" x="875" y="-263" font-family="sans" font-size="10.00">canonical</text>
<text text-anchor="middle" x="875" y="-251" font-family="sans" font-size="10.00">pathCAN: vcfGenUtil_varScan</text>
<text text-anchor="middle" x="875" y="-239" font-family="sans" font-size="10.00">sampleCAN: Pfeiffer3.varScan.snp</text>
</g>
<!-- 5&#45;&gt;28 -->
<g id="edge28" class="edge"><title>5&#45;&gt;28</title>
<path fill="none" stroke="grey" stroke-width="2" d="M860.76,-311.959C862.823,-303.708 865.107,-294.57 867.232,-286.074"/>
<polygon fill="grey" stroke="grey" stroke-width="2" points="870.687,-286.681 869.717,-276.131 863.896,-284.983 870.687,-286.681"/>
</g>
<!-- 6&#45;&gt;1 -->
<g id="edge2" class="edge"><title>6&#45;&gt;1</title>
<path fill="none" stroke="grey" stroke-width="2" d="M697.402,-403.803C693.398,-395.795 688.719,-386.437 684.214,-377.428"/>
<polygon fill="grey" stroke="grey" stroke-width="2" points="687.221,-375.615 679.618,-368.236 680.96,-378.746 687.221,-375.615"/>
</g>
<!-- 6&#45;&gt;5 -->
<g id="edge6" class="edge"><title>6&#45;&gt;5</title>
<path fill="none" stroke="grey" stroke-width="2" d="M744.842,-403.803C760.884,-394.574 780.042,-383.551 797.798,-373.335"/>
<polygon fill="grey" stroke="grey" stroke-width="2" points="800.009,-376.101 806.932,-368.08 796.519,-370.034 800.009,-376.101"/>
</g>
<!-- 7 -->
<g id="node8" class="node"><title>7</title>
<path fill="none" stroke="#567bd8" stroke-width="2" d="M712.5,-912C712.5,-912 607.5,-912 607.5,-912 601.5,-912 595.5,-906 595.5,-900 595.5,-900 595.5,-880 595.5,-880 595.5,-874 601.5,-868 607.5,-868 607.5,-868 712.5,-868 712.5,-868 718.5,-868 724.5,-874 724.5,-880 724.5,-880 724.5,-900 724.5,-900 724.5,-906 718.5,-912 712.5,-912"/>
<text text-anchor="middle" x="660" y="-899" font-family="sans" font-size="10.00">fastq2GZ</text>
<text text-anchor="middle" x="660" y="-887" font-family="sans" font-size="10.00">pathFGZ: output/fastq</text>
<text text-anchor="middle" x="660" y="-875" font-family="sans" font-size="10.00">sampleFGZ: Pfeiffer3.1</text>
</g>
<!-- 31 -->
<g id="node32" class="node"><title>31</title>
<path fill="none" stroke="#56d892" stroke-width="2" d="M756,-832C756,-832 660,-832 660,-832 654,-832 648,-826 648,-820 648,-820 648,-808 648,-808 648,-802 654,-796 660,-796 660,-796 756,-796 756,-796 762,-796 768,-802 768,-808 768,-808 768,-820 768,-820 768,-826 762,-832 756,-832"/>
<text text-anchor="middle" x="708" y="-817" font-family="sans" font-size="10.00">bamALIGN_bwa</text>
<text text-anchor="middle" x="708" y="-805" font-family="sans" font-size="10.00">sampleBAB: Pfeiffer3</text>
</g>
<!-- 7&#45;&gt;31 -->
<g id="edge31" class="edge"><title>7&#45;&gt;31</title>
<path fill="none" stroke="grey" stroke-width="2" d="M673.626,-867.993C679.114,-859.532 685.498,-849.69 691.265,-840.8"/>
<polygon fill="grey" stroke="grey" stroke-width="2" points="694.263,-842.609 696.769,-832.315 688.391,-838.8 694.263,-842.609"/>
</g>
<!-- 8 -->
<g id="node9" class="node"><title>8</title>
<path fill="none" stroke="#56d87b" stroke-width="2" d="M287.5,-368C287.5,-368 158.5,-368 158.5,-368 152.5,-368 146.5,-362 146.5,-356 146.5,-356 146.5,-324 146.5,-324 146.5,-318 152.5,-312 158.5,-312 158.5,-312 287.5,-312 287.5,-312 293.5,-312 299.5,-318 299.5,-324 299.5,-324 299.5,-356 299.5,-356 299.5,-362 293.5,-368 287.5,-368"/>
<text text-anchor="middle" x="223" y="-355" font-family="sans" font-size="10.00">mpileup2vcf_single</text>
<text text-anchor="middle" x="223" y="-343" font-family="sans" font-size="10.00">chrMPU2VCFS: </text>
<text text-anchor="middle" x="223" y="-331" font-family="sans" font-size="10.00">sampleMPU2VCFS: Pfeiffer2</text>
<text text-anchor="middle" x="223" y="-319" font-family="sans" font-size="10.00">varTypeMPU2VCFS: snp</text>
</g>
<!-- 27 -->
<g id="node28" class="node"><title>27</title>
<path fill="none" stroke="#5692d8" stroke-width="2" d="M255,-276C255,-276 95,-276 95,-276 89,-276 83,-270 83,-264 83,-264 83,-244 83,-244 83,-238 89,-232 95,-232 95,-232 255,-232 255,-232 261,-232 267,-238 267,-244 267,-244 267,-264 267,-264 267,-270 261,-276 255,-276"/>
<text text-anchor="middle" x="175" y="-263" font-family="sans" font-size="10.00">canonical</text>
<text text-anchor="middle" x="175" y="-251" font-family="sans" font-size="10.00">pathCAN: vcfGenUtil_varScan</text>
<text text-anchor="middle" x="175" y="-239" font-family="sans" font-size="10.00">sampleCAN: Pfeiffer2.varScan.snp</text>
</g>
<!-- 8&#45;&gt;27 -->
<g id="edge27" class="edge"><title>8&#45;&gt;27</title>
<path fill="none" stroke="grey" stroke-width="2" d="M207.548,-311.959C202.626,-303.345 197.152,-293.765 192.118,-284.957"/>
<polygon fill="grey" stroke="grey" stroke-width="2" points="195.075,-283.077 187.075,-276.131 188.997,-286.55 195.075,-283.077"/>
</g>
<!-- 9 -->
<g id="node10" class="node"><title>9</title>
<path fill="none" stroke="#567bd8" stroke-width="2" d="M321.5,-912C321.5,-912 216.5,-912 216.5,-912 210.5,-912 204.5,-906 204.5,-900 204.5,-900 204.5,-880 204.5,-880 204.5,-874 210.5,-868 216.5,-868 216.5,-868 321.5,-868 321.5,-868 327.5,-868 333.5,-874 333.5,-880 333.5,-880 333.5,-900 333.5,-900 333.5,-906 327.5,-912 321.5,-912"/>
<text text-anchor="middle" x="269" y="-899" font-family="sans" font-size="10.00">fastq2GZ</text>
<text text-anchor="middle" x="269" y="-887" font-family="sans" font-size="10.00">pathFGZ: output/fastq</text>
<text text-anchor="middle" x="269" y="-875" font-family="sans" font-size="10.00">sampleFGZ: Pfeiffer2.2</text>
</g>
<!-- 18 -->
<g id="node19" class="node"><title>18</title>
<path fill="none" stroke="#56d892" stroke-width="2" d="M320,-832C320,-832 224,-832 224,-832 218,-832 212,-826 212,-820 212,-820 212,-808 212,-808 212,-802 218,-796 224,-796 224,-796 320,-796 320,-796 326,-796 332,-802 332,-808 332,-808 332,-820 332,-820 332,-826 326,-832 320,-832"/>
<text text-anchor="middle" x="272" y="-817" font-family="sans" font-size="10.00">bamALIGN_bwa</text>
<text text-anchor="middle" x="272" y="-805" font-family="sans" font-size="10.00">sampleBAB: Pfeiffer2</text>
</g>
<!-- 9&#45;&gt;18 -->
<g id="edge20" class="edge"><title>9&#45;&gt;18</title>
<path fill="none" stroke="grey" stroke-width="2" d="M269.852,-867.993C270.173,-860.061 270.544,-850.915 270.886,-842.478"/>
<polygon fill="grey" stroke="grey" stroke-width="2" points="274.39,-842.448 271.298,-832.315 267.396,-842.165 274.39,-842.448"/>
</g>
<!-- 32 -->
<g id="node33" class="node"><title>32</title>
<path fill="none" stroke="#80d856" stroke-width="2" d="M548,-36C548,-36 518,-36 518,-36 512,-36 506,-30 506,-24 506,-24 506,-12 506,-12 506,-6 512,-0 518,-0 518,-0 548,-0 548,-0 554,-0 560,-6 560,-12 560,-12 560,-24 560,-24 560,-30 554,-36 548,-36"/>
<text text-anchor="middle" x="533" y="-15" font-family="sans" font-size="10.00">all</text>
</g>
<!-- 10&#45;&gt;32 -->
<g id="edge34" class="edge"><title>10&#45;&gt;32</title>
<path fill="none" stroke="grey" stroke-width="2" d="M596.734,-71.9925C585.734,-62.8463 572.792,-52.0857 561.455,-42.6591"/>
<polygon fill="grey" stroke="grey" stroke-width="2" points="563.461,-39.775 553.534,-36.0729 558.985,-45.1576 563.461,-39.775"/>
</g>
<!-- 11 -->
<g id="node12" class="node"><title>11</title>
<path fill="none" stroke="#d8cb56" stroke-width="2" d="M379,-116C379,-116 25,-116 25,-116 19,-116 13,-110 13,-104 13,-104 13,-84 13,-84 13,-78 19,-72 25,-72 25,-72 379,-72 379,-72 385,-72 391,-78 391,-84 391,-84 391,-104 391,-104 391,-110 385,-116 379,-116"/>
<text text-anchor="middle" x="202" y="-103" font-family="sans" font-size="10.00">cosmic</text>
<text text-anchor="middle" x="202" y="-91" font-family="sans" font-size="10.00">pathCOS: output/vcfGenUtil_varScan</text>
<text text-anchor="middle" x="202" y="-79" font-family="sans" font-size="10.00">sampleCOS: Pfeiffer2.varScan.snp.canonical_annotated.dbsnp_annotated</text>
</g>
<!-- 11&#45;&gt;32 -->
<g id="edge35" class="edge"><title>11&#45;&gt;32</title>
<path fill="none" stroke="grey" stroke-width="2" d="M295.966,-71.9925C362.384,-57.1438 447.835,-38.04 495.887,-27.2972"/>
<polygon fill="grey" stroke="grey" stroke-width="2" points="496.843,-30.67 505.838,-25.0724 495.315,-23.8386 496.843,-30.67"/>
</g>
<!-- 12 -->
<g id="node13" class="node"><title>12</title>
<path fill="none" stroke="#5692d8" stroke-width="2" d="M525.5,-276C525.5,-276 358.5,-276 358.5,-276 352.5,-276 346.5,-270 346.5,-264 346.5,-264 346.5,-244 346.5,-244 346.5,-238 352.5,-232 358.5,-232 358.5,-232 525.5,-232 525.5,-232 531.5,-232 537.5,-238 537.5,-244 537.5,-244 537.5,-264 537.5,-264 537.5,-270 531.5,-276 525.5,-276"/>
<text text-anchor="middle" x="442" y="-263" font-family="sans" font-size="10.00">canonical</text>
<text text-anchor="middle" x="442" y="-251" font-family="sans" font-size="10.00">pathCAN: vcfGenUtil_varScan</text>
<text text-anchor="middle" x="442" y="-239" font-family="sans" font-size="10.00">sampleCAN: Pfeiffer2.varScan.indel</text>
</g>
<!-- 15 -->
<g id="node16" class="node"><title>15</title>
<path fill="none" stroke="#56d86b" stroke-width="2" d="M608,-196C608,-196 332,-196 332,-196 326,-196 320,-190 320,-184 320,-184 320,-164 320,-164 320,-158 326,-152 332,-152 332,-152 608,-152 608,-152 614,-152 620,-158 620,-164 620,-164 620,-184 620,-184 620,-190 614,-196 608,-196"/>
<text text-anchor="middle" x="470" y="-183" font-family="sans" font-size="10.00">indel</text>
<text text-anchor="middle" x="470" y="-171" font-family="sans" font-size="10.00">pathIndel: output/vcfGenUtil_varScan</text>
<text text-anchor="middle" x="470" y="-159" font-family="sans" font-size="10.00">sampleIndel: Pfeiffer2.varScan.indel.canonical_annotated</text>
</g>
<!-- 12&#45;&gt;15 -->
<g id="edge16" class="edge"><title>12&#45;&gt;15</title>
<path fill="none" stroke="grey" stroke-width="2" d="M449.651,-231.686C452.545,-223.624 455.898,-214.283 459.038,-205.538"/>
<polygon fill="grey" stroke="grey" stroke-width="2" points="462.371,-206.613 462.455,-196.018 455.782,-204.247 462.371,-206.613"/>
</g>
<!-- 13 -->
<g id="node14" class="node"><title>13</title>
<path fill="none" stroke="#56d8b9" stroke-width="2" d="M315,-520C315,-520 229,-520 229,-520 223,-520 217,-514 217,-508 217,-508 217,-496 217,-496 217,-490 223,-484 229,-484 229,-484 315,-484 315,-484 321,-484 327,-490 327,-496 327,-496 327,-508 327,-508 327,-514 321,-520 315,-520"/>
<text text-anchor="middle" x="272" y="-505" font-family="sans" font-size="10.00">indexBAM</text>
<text text-anchor="middle" x="272" y="-493" font-family="sans" font-size="10.00">sampleIB: Pfeiffer2</text>
</g>
<!-- 21 -->
<g id="node22" class="node"><title>21</title>
<path fill="none" stroke="#d87d56" stroke-width="2" d="M321,-448C321,-448 223,-448 223,-448 217,-448 211,-442 211,-436 211,-436 211,-416 211,-416 211,-410 217,-404 223,-404 223,-404 321,-404 321,-404 327,-404 333,-410 333,-416 333,-416 333,-436 333,-436 333,-442 327,-448 321,-448"/>
<text text-anchor="middle" x="272" y="-435" font-family="sans" font-size="10.00">bam2mpileup</text>
<text text-anchor="middle" x="272" y="-423" font-family="sans" font-size="10.00">chrB2M: </text>
<text text-anchor="middle" x="272" y="-411" font-family="sans" font-size="10.00">sampleB2M: Pfeiffer2</text>
</g>
<!-- 13&#45;&gt;21 -->
<g id="edge22" class="edge"><title>13&#45;&gt;21</title>
<path fill="none" stroke="grey" stroke-width="2" d="M272,-483.837C272,-476.165 272,-466.878 272,-458.053"/>
<polygon fill="grey" stroke="grey" stroke-width="2" points="275.5,-458.032 272,-448.032 268.5,-458.032 275.5,-458.032"/>
</g>
<!-- 14 -->
<g id="node15" class="node"><title>14</title>
<path fill="none" stroke="#566bd8" stroke-width="2" d="M801,-680C801,-680 615,-680 615,-680 609,-680 603,-674 603,-668 603,-668 603,-648 603,-648 603,-642 609,-636 615,-636 615,-636 801,-636 801,-636 807,-636 813,-642 813,-648 813,-648 813,-668 813,-668 813,-674 807,-680 801,-680"/>
<text text-anchor="middle" x="708" y="-667" font-family="sans" font-size="10.00">filteredBAM</text>
<text text-anchor="middle" x="708" y="-655" font-family="sans" font-size="10.00">pathFB: output/bam</text>
<text text-anchor="middle" x="708" y="-643" font-family="sans" font-size="10.00">sampleFB: Pfeiffer3_Aligned.out_sorted</text>
</g>
<!-- 14&#45;&gt;0 -->
<g id="edge1" class="edge"><title>14&#45;&gt;0</title>
<path fill="none" stroke="grey" stroke-width="2" d="M708,-635.686C708,-627.798 708,-618.684 708,-610.103"/>
<polygon fill="grey" stroke="grey" stroke-width="2" points="711.5,-610.018 708,-600.018 704.5,-610.018 711.5,-610.018"/>
</g>
<!-- 15&#45;&gt;32 -->
<g id="edge33" class="edge"><title>15&#45;&gt;32</title>
<path fill="none" stroke="grey" stroke-width="2" d="M462.503,-151.667C456.345,-130.34 450.48,-97.1824 463,-72 470.348,-57.2202 484.003,-45.4613 497.316,-36.812"/>
<polygon fill="grey" stroke="grey" stroke-width="2" points="499.211,-39.7561 505.945,-31.5766 495.58,-33.7714 499.211,-39.7561"/>
</g>
<!-- 16 -->
<g id="node17" class="node"><title>16</title>
<path fill="none" stroke="#567bd8" stroke-width="2" d="M468.5,-912C468.5,-912 363.5,-912 363.5,-912 357.5,-912 351.5,-906 351.5,-900 351.5,-900 351.5,-880 351.5,-880 351.5,-874 357.5,-868 363.5,-868 363.5,-868 468.5,-868 468.5,-868 474.5,-868 480.5,-874 480.5,-880 480.5,-880 480.5,-900 480.5,-900 480.5,-906 474.5,-912 468.5,-912"/>
<text text-anchor="middle" x="416" y="-899" font-family="sans" font-size="10.00">fastq2GZ</text>
<text text-anchor="middle" x="416" y="-887" font-family="sans" font-size="10.00">pathFGZ: output/fastq</text>
<text text-anchor="middle" x="416" y="-875" font-family="sans" font-size="10.00">sampleFGZ: Pfeiffer2.1</text>
</g>
<!-- 16&#45;&gt;18 -->
<g id="edge19" class="edge"><title>16&#45;&gt;18</title>
<path fill="none" stroke="grey" stroke-width="2" d="M375.121,-867.993C356.113,-858.225 333.522,-846.616 314.337,-836.757"/>
<polygon fill="grey" stroke="grey" stroke-width="2" points="315.717,-833.531 305.223,-832.073 312.518,-839.757 315.717,-833.531"/>
</g>
<!-- 17 -->
<g id="node18" class="node"><title>17</title>
<path fill="none" stroke="#567bd8" stroke-width="2" d="M859.5,-912C859.5,-912 754.5,-912 754.5,-912 748.5,-912 742.5,-906 742.5,-900 742.5,-900 742.5,-880 742.5,-880 742.5,-874 748.5,-868 754.5,-868 754.5,-868 859.5,-868 859.5,-868 865.5,-868 871.5,-874 871.5,-880 871.5,-880 871.5,-900 871.5,-900 871.5,-906 865.5,-912 859.5,-912"/>
<text text-anchor="middle" x="807" y="-899" font-family="sans" font-size="10.00">fastq2GZ</text>
<text text-anchor="middle" x="807" y="-887" font-family="sans" font-size="10.00">pathFGZ: output/fastq</text>
<text text-anchor="middle" x="807" y="-875" font-family="sans" font-size="10.00">sampleFGZ: Pfeiffer3.2</text>
</g>
<!-- 17&#45;&gt;31 -->
<g id="edge32" class="edge"><title>17&#45;&gt;31</title>
<path fill="none" stroke="grey" stroke-width="2" d="M778.895,-867.993C766.422,-858.669 751.703,-847.667 738.919,-838.111"/>
<polygon fill="grey" stroke="grey" stroke-width="2" points="740.946,-835.257 730.841,-832.073 736.755,-840.863 740.946,-835.257"/>
</g>
<!-- 18&#45;&gt;2 -->
<g id="edge3" class="edge"><title>18&#45;&gt;2</title>
<path fill="none" stroke="grey" stroke-width="2" d="M272,-795.837C272,-788.165 272,-778.878 272,-770.053"/>
<polygon fill="grey" stroke="grey" stroke-width="2" points="275.5,-770.032 272,-760.032 268.5,-770.032 275.5,-770.032"/>
</g>
<!-- 19 -->
<g id="node20" class="node"><title>19</title>
<path fill="none" stroke="#56b9d8" stroke-width="2" d="M783,-984C783,-984 683,-984 683,-984 677,-984 671,-978 671,-972 671,-972 671,-960 671,-960 671,-954 677,-948 683,-948 683,-948 783,-948 783,-948 789,-948 795,-954 795,-960 795,-960 795,-972 795,-972 795,-978 789,-984 783,-984"/>
<text text-anchor="middle" x="733" y="-969" font-family="sans" font-size="10.00">bam2fastq_picard</text>
<text text-anchor="middle" x="733" y="-957" font-family="sans" font-size="10.00">sampleB2FP: Pfeiffer3</text>
</g>
<!-- 19&#45;&gt;7 -->
<g id="edge8" class="edge"><title>19&#45;&gt;7</title>
<path fill="none" stroke="grey" stroke-width="2" d="M716.069,-947.837C707.678,-939.331 697.328,-928.839 687.814,-919.195"/>
<polygon fill="grey" stroke="grey" stroke-width="2" points="690.262,-916.693 680.748,-912.032 685.279,-921.609 690.262,-916.693"/>
</g>
<!-- 19&#45;&gt;17 -->
<g id="edge18" class="edge"><title>19&#45;&gt;17</title>
<path fill="none" stroke="grey" stroke-width="2" d="M750.163,-947.837C758.669,-939.331 769.161,-928.839 778.805,-919.195"/>
<polygon fill="grey" stroke="grey" stroke-width="2" points="781.372,-921.578 785.968,-912.032 776.422,-916.628 781.372,-921.578"/>
</g>
<!-- 20 -->
<g id="node21" class="node"><title>20</title>
<path fill="none" stroke="#8fd856" stroke-width="2" d="M390.5,-600C390.5,-600 153.5,-600 153.5,-600 147.5,-600 141.5,-594 141.5,-588 141.5,-588 141.5,-568 141.5,-568 141.5,-562 147.5,-556 153.5,-556 153.5,-556 390.5,-556 390.5,-556 396.5,-556 402.5,-562 402.5,-568 402.5,-568 402.5,-588 402.5,-588 402.5,-594 396.5,-600 390.5,-600"/>
<text text-anchor="middle" x="272" y="-587" font-family="sans" font-size="10.00">markdupBAM</text>
<text text-anchor="middle" x="272" y="-575" font-family="sans" font-size="10.00">outputDIR: output</text>
<text text-anchor="middle" x="272" y="-563" font-family="sans" font-size="10.00">sampleMDB: Pfeiffer2_Aligned.out_sorted_filtered</text>
</g>
<!-- 20&#45;&gt;13 -->
<g id="edge14" class="edge"><title>20&#45;&gt;13</title>
<path fill="none" stroke="grey" stroke-width="2" d="M272,-555.993C272,-548.061 272,-538.915 272,-530.478"/>
<polygon fill="grey" stroke="grey" stroke-width="2" points="275.5,-530.315 272,-520.315 268.5,-530.315 275.5,-530.315"/>
</g>
<!-- 21&#45;&gt;8 -->
<g id="edge9" class="edge"><title>21&#45;&gt;8</title>
<path fill="none" stroke="grey" stroke-width="2" d="M259.635,-403.803C254.915,-395.711 249.39,-386.24 244.084,-377.143"/>
<polygon fill="grey" stroke="grey" stroke-width="2" points="246.95,-375.11 238.888,-368.236 240.903,-378.637 246.95,-375.11"/>
</g>
<!-- 24 -->
<g id="node25" class="node"><title>24</title>
<path fill="none" stroke="#56d87b" stroke-width="2" d="M485.5,-368C485.5,-368 356.5,-368 356.5,-368 350.5,-368 344.5,-362 344.5,-356 344.5,-356 344.5,-324 344.5,-324 344.5,-318 350.5,-312 356.5,-312 356.5,-312 485.5,-312 485.5,-312 491.5,-312 497.5,-318 497.5,-324 497.5,-324 497.5,-356 497.5,-356 497.5,-362 491.5,-368 485.5,-368"/>
<text text-anchor="middle" x="421" y="-355" font-family="sans" font-size="10.00">mpileup2vcf_single</text>
<text text-anchor="middle" x="421" y="-343" font-family="sans" font-size="10.00">chrMPU2VCFS: </text>
<text text-anchor="middle" x="421" y="-331" font-family="sans" font-size="10.00">sampleMPU2VCFS: Pfeiffer2</text>
<text text-anchor="middle" x="421" y="-319" font-family="sans" font-size="10.00">varTypeMPU2VCFS: indel</text>
</g>
<!-- 21&#45;&gt;24 -->
<g id="edge25" class="edge"><title>21&#45;&gt;24</title>
<path fill="none" stroke="grey" stroke-width="2" d="M309.599,-403.803C326.121,-394.489 345.881,-383.349 364.142,-373.054"/>
<polygon fill="grey" stroke="grey" stroke-width="2" points="365.972,-376.04 372.965,-368.08 362.535,-369.942 365.972,-376.04"/>
</g>
<!-- 22&#45;&gt;20 -->
<g id="edge21" class="edge"><title>22&#45;&gt;20</title>
<path fill="none" stroke="grey" stroke-width="2" d="M272,-635.686C272,-627.798 272,-618.684 272,-610.103"/>
<polygon fill="grey" stroke="grey" stroke-width="2" points="275.5,-610.018 272,-600.018 268.5,-610.018 275.5,-610.018"/>
</g>
<!-- 23 -->
<g id="node24" class="node"><title>23</title>
<path fill="none" stroke="#59d856" stroke-width="2" d="M290,-196C290,-196 12,-196 12,-196 6,-196 0,-190 0,-184 0,-184 0,-164 0,-164 0,-158 6,-152 12,-152 12,-152 290,-152 290,-152 296,-152 302,-158 302,-164 302,-164 302,-184 302,-184 302,-190 296,-196 290,-196"/>
<text text-anchor="middle" x="151" y="-183" font-family="sans" font-size="10.00">dbsnp</text>
<text text-anchor="middle" x="151" y="-171" font-family="sans" font-size="10.00">pathDbSnp: output/vcfGenUtil_varScan</text>
<text text-anchor="middle" x="151" y="-159" font-family="sans" font-size="10.00">sampleDbSnp: Pfeiffer2.varScan.snp.canonical_annotated</text>
</g>
<!-- 23&#45;&gt;11 -->
<g id="edge12" class="edge"><title>23&#45;&gt;11</title>
<path fill="none" stroke="grey" stroke-width="2" d="M164.936,-151.686C170.434,-143.277 176.842,-133.477 182.768,-124.413"/>
<polygon fill="grey" stroke="grey" stroke-width="2" points="185.714,-126.303 188.257,-116.018 179.856,-122.472 185.714,-126.303"/>
</g>
<!-- 24&#45;&gt;12 -->
<g id="edge13" class="edge"><title>24&#45;&gt;12</title>
<path fill="none" stroke="grey" stroke-width="2" d="M427.76,-311.959C429.823,-303.708 432.107,-294.57 434.232,-286.074"/>
<polygon fill="grey" stroke="grey" stroke-width="2" points="437.687,-286.681 436.717,-276.131 430.896,-284.983 437.687,-286.681"/>
</g>
<!-- 25 -->
<g id="node26" class="node"><title>25</title>
<path fill="none" stroke="#d8cb56" stroke-width="2" d="M1156,-116C1156,-116 802,-116 802,-116 796,-116 790,-110 790,-104 790,-104 790,-84 790,-84 790,-78 796,-72 802,-72 802,-72 1156,-72 1156,-72 1162,-72 1168,-78 1168,-84 1168,-84 1168,-104 1168,-104 1168,-110 1162,-116 1156,-116"/>
<text text-anchor="middle" x="979" y="-103" font-family="sans" font-size="10.00">cosmic</text>
<text text-anchor="middle" x="979" y="-91" font-family="sans" font-size="10.00">pathCOS: output/vcfGenUtil_varScan</text>
<text text-anchor="middle" x="979" y="-79" font-family="sans" font-size="10.00">sampleCOS: Pfeiffer3.varScan.snp.canonical_annotated.dbsnp_annotated</text>
</g>
<!-- 25&#45;&gt;32 -->
<g id="edge36" class="edge"><title>25&#45;&gt;32</title>
<path fill="none" stroke="grey" stroke-width="2" d="M852.387,-71.9925C756.712,-56.1181 631.724,-35.3803 570.335,-25.1946"/>
<polygon fill="grey" stroke="grey" stroke-width="2" points="570.776,-21.7199 560.338,-23.5358 569.63,-28.6255 570.776,-21.7199"/>
</g>
<!-- 26 -->
<g id="node27" class="node"><title>26</title>
<path fill="none" stroke="#56b9d8" stroke-width="2" d="M393,-984C393,-984 293,-984 293,-984 287,-984 281,-978 281,-972 281,-972 281,-960 281,-960 281,-954 287,-948 293,-948 293,-948 393,-948 393,-948 399,-948 405,-954 405,-960 405,-960 405,-972 405,-972 405,-978 399,-984 393,-984"/>
<text text-anchor="middle" x="343" y="-969" font-family="sans" font-size="10.00">bam2fastq_picard</text>
<text text-anchor="middle" x="343" y="-957" font-family="sans" font-size="10.00">sampleB2FP: Pfeiffer2</text>
</g>
<!-- 26&#45;&gt;9 -->
<g id="edge10" class="edge"><title>26&#45;&gt;9</title>
<path fill="none" stroke="grey" stroke-width="2" d="M325.837,-947.837C317.331,-939.331 306.839,-928.839 297.195,-919.195"/>
<polygon fill="grey" stroke="grey" stroke-width="2" points="299.578,-916.628 290.032,-912.032 294.628,-921.578 299.578,-916.628"/>
</g>
<!-- 26&#45;&gt;16 -->
<g id="edge17" class="edge"><title>26&#45;&gt;16</title>
<path fill="none" stroke="grey" stroke-width="2" d="M359.931,-947.837C368.322,-939.331 378.672,-928.839 388.186,-919.195"/>
<polygon fill="grey" stroke="grey" stroke-width="2" points="390.721,-921.609 395.252,-912.032 385.738,-916.693 390.721,-921.609"/>
</g>
<!-- 27&#45;&gt;23 -->
<g id="edge24" class="edge"><title>27&#45;&gt;23</title>
<path fill="none" stroke="grey" stroke-width="2" d="M168.442,-231.686C165.988,-223.711 163.149,-214.484 160.483,-205.82"/>
<polygon fill="grey" stroke="grey" stroke-width="2" points="163.753,-204.546 157.467,-196.018 157.063,-206.605 163.753,-204.546"/>
</g>
<!-- 29 -->
<g id="node30" class="node"><title>29</title>
<path fill="none" stroke="#59d856" stroke-width="2" d="M1038,-196C1038,-196 760,-196 760,-196 754,-196 748,-190 748,-184 748,-184 748,-164 748,-164 748,-158 754,-152 760,-152 760,-152 1038,-152 1038,-152 1044,-152 1050,-158 1050,-164 1050,-164 1050,-184 1050,-184 1050,-190 1044,-196 1038,-196"/>
<text text-anchor="middle" x="899" y="-183" font-family="sans" font-size="10.00">dbsnp</text>
<text text-anchor="middle" x="899" y="-171" font-family="sans" font-size="10.00">pathDbSnp: output/vcfGenUtil_varScan</text>
<text text-anchor="middle" x="899" y="-159" font-family="sans" font-size="10.00">sampleDbSnp: Pfeiffer3.varScan.snp.canonical_annotated</text>
</g>
<!-- 28&#45;&gt;29 -->
<g id="edge29" class="edge"><title>28&#45;&gt;29</title>
<path fill="none" stroke="grey" stroke-width="2" d="M881.558,-231.686C884.012,-223.711 886.851,-214.484 889.517,-205.82"/>
<polygon fill="grey" stroke="grey" stroke-width="2" points="892.937,-206.605 892.533,-196.018 886.247,-204.546 892.937,-206.605"/>
</g>
<!-- 29&#45;&gt;25 -->
<g id="edge26" class="edge"><title>29&#45;&gt;25</title>
<path fill="none" stroke="grey" stroke-width="2" d="M920.86,-151.686C929.929,-142.844 940.577,-132.463 950.264,-123.018"/>
<polygon fill="grey" stroke="grey" stroke-width="2" points="952.726,-125.505 957.443,-116.018 947.84,-120.493 952.726,-125.505"/>
</g>
<!-- 30 -->
<g id="node31" class="node"><title>30</title>
<path fill="none" stroke="#d89556" stroke-width="2" d="M786.5,-760C786.5,-760 629.5,-760 629.5,-760 623.5,-760 617.5,-754 617.5,-748 617.5,-748 617.5,-728 617.5,-728 617.5,-722 623.5,-716 629.5,-716 629.5,-716 786.5,-716 786.5,-716 792.5,-716 798.5,-722 798.5,-728 798.5,-728 798.5,-748 798.5,-748 798.5,-754 792.5,-760 786.5,-760"/>
<text text-anchor="middle" x="708" y="-747" font-family="sans" font-size="10.00">sortBAM_biobambam</text>
<text text-anchor="middle" x="708" y="-735" font-family="sans" font-size="10.00">pathSBB: output/bam</text>
<text text-anchor="middle" x="708" y="-723" font-family="sans" font-size="10.00">sampleSBB: Pfeiffer3_Aligned.out</text>
</g>
<!-- 30&#45;&gt;14 -->
<g id="edge15" class="edge"><title>30&#45;&gt;14</title>
<path fill="none" stroke="grey" stroke-width="2" d="M708,-715.686C708,-707.798 708,-698.684 708,-690.103"/>
<polygon fill="grey" stroke="grey" stroke-width="2" points="711.5,-690.018 708,-680.018 704.5,-690.018 711.5,-690.018"/>
</g>
<!-- 31&#45;&gt;30 -->
<g id="edge30" class="edge"><title>31&#45;&gt;30</title>
<path fill="none" stroke="grey" stroke-width="2" d="M708,-795.837C708,-788.165 708,-778.878 708,-770.053"/>
<polygon fill="grey" stroke="grey" stroke-width="2" points="711.5,-770.032 708,-760.032 704.5,-770.032 711.5,-770.032"/>
</g>
</g>
</svg>
