<?xml version="1.0" encoding="UTF-8" standalone="no"?>
<!DOCTYPE svg PUBLIC "-//W3C//DTD SVG 1.1//EN"
 "http://www.w3.org/Graphics/SVG/1.1/DTD/svg11.dtd">
<!-- Generated by graphviz version 2.38.0 (20140413.2041)
 -->
<!-- Title: snakemake_dag Pages: 1 -->
<svg width="1494pt" height="1004pt"
 viewBox="0.00 0.00 1494.00 1004.00" xmlns="http://www.w3.org/2000/svg" xmlns:xlink="http://www.w3.org/1999/xlink">
<g id="graph0" class="graph" transform="scale(1 1) rotate(0) translate(4 1000)">
<title>snakemake_dag</title>
<polygon fill="white" stroke="none" points="-4,4 -4,-1000 1490,-1000 1490,4 -4,4"/>
<!-- 0 -->
<g id="node1" class="node"><title>0</title>
<path fill="none" stroke="#56d0d8" stroke-width="2" d="M1411.5,-196C1411.5,-196 1115.5,-196 1115.5,-196 1109.5,-196 1103.5,-190 1103.5,-184 1103.5,-184 1103.5,-164 1103.5,-164 1103.5,-158 1109.5,-152 1115.5,-152 1115.5,-152 1411.5,-152 1411.5,-152 1417.5,-152 1423.5,-158 1423.5,-164 1423.5,-164 1423.5,-184 1423.5,-184 1423.5,-190 1417.5,-196 1411.5,-196"/>
<text text-anchor="middle" x="1263.5" y="-183" font-family="sans" font-size="10.00">dbsnp</text>
<text text-anchor="middle" x="1263.5" y="-171" font-family="sans" font-size="10.00">pathDbSnp: output/vcfGenUtil_varScan</text>
<text text-anchor="middle" x="1263.5" y="-159" font-family="sans" font-size="10.00">sampleDbSnp: Pfeiffer3.varScan.snp.noncanonical_annotated</text>
</g>
<!-- 21 -->
<g id="node22" class="node"><title>21</title>
<path fill="none" stroke="#ced856" stroke-width="2" d="M1474,-116C1474,-116 1101,-116 1101,-116 1095,-116 1089,-110 1089,-104 1089,-104 1089,-84 1089,-84 1089,-78 1095,-72 1101,-72 1101,-72 1474,-72 1474,-72 1480,-72 1486,-78 1486,-84 1486,-84 1486,-104 1486,-104 1486,-110 1480,-116 1474,-116"/>
<text text-anchor="middle" x="1287.5" y="-103" font-family="sans" font-size="10.00">cosmic</text>
<text text-anchor="middle" x="1287.5" y="-91" font-family="sans" font-size="10.00">pathCOS: output/vcfGenUtil_varScan</text>
<text text-anchor="middle" x="1287.5" y="-79" font-family="sans" font-size="10.00">sampleCOS: Pfeiffer3.varScan.snp.noncanonical_annotated.dbsnp_annotated</text>
</g>
<!-- 0&#45;&gt;21 -->
<g id="edge26" class="edge"><title>0&#45;&gt;21</title>
<path fill="none" stroke="grey" stroke-width="2" d="M1270.06,-151.686C1272.51,-143.711 1275.35,-134.484 1278.02,-125.82"/>
<polygon fill="grey" stroke="grey" stroke-width="2" points="1281.44,-126.605 1281.03,-116.018 1274.75,-124.546 1281.44,-126.605"/>
</g>
<!-- 1 -->
<g id="node2" class="node"><title>1</title>
<path fill="none" stroke="#5692d8" stroke-width="2" d="M307,-116C307,-116 12,-116 12,-116 6,-116 0,-110 0,-104 0,-104 0,-84 0,-84 0,-78 6,-72 12,-72 12,-72 307,-72 307,-72 313,-72 319,-78 319,-84 319,-84 319,-104 319,-104 319,-110 313,-116 307,-116"/>
<text text-anchor="middle" x="159.5" y="-103" font-family="sans" font-size="10.00">indel</text>
<text text-anchor="middle" x="159.5" y="-91" font-family="sans" font-size="10.00">pathIndel: output/vcfGenUtil_varScan</text>
<text text-anchor="middle" x="159.5" y="-79" font-family="sans" font-size="10.00">sampleIndel: Pfeiffer2.varScan.indel.noncanonical_annotated</text>
</g>
<!-- 5 -->
<g id="node6" class="node"><title>5</title>
<path fill="none" stroke="#80d856" stroke-width="2" d="M738.5,-36C738.5,-36 708.5,-36 708.5,-36 702.5,-36 696.5,-30 696.5,-24 696.5,-24 696.5,-12 696.5,-12 696.5,-6 702.5,-0 708.5,-0 708.5,-0 738.5,-0 738.5,-0 744.5,-0 750.5,-6 750.5,-12 750.5,-12 750.5,-24 750.5,-24 750.5,-30 744.5,-36 738.5,-36"/>
<text text-anchor="middle" x="723.5" y="-15" font-family="sans" font-size="10.00">all</text>
</g>
<!-- 1&#45;&gt;5 -->
<g id="edge8" class="edge"><title>1&#45;&gt;5</title>
<path fill="none" stroke="grey" stroke-width="2" d="M319.235,-72.0419C445.584,-55.4642 612.541,-33.5584 686.042,-23.9147"/>
<polygon fill="grey" stroke="grey" stroke-width="2" points="686.733,-27.3541 696.193,-22.5829 685.822,-20.4136 686.733,-27.3541"/>
</g>
<!-- 2 -->
<g id="node3" class="node"><title>2</title>
<path fill="none" stroke="#56d892" stroke-width="2" d="M380.5,-844C380.5,-844 284.5,-844 284.5,-844 278.5,-844 272.5,-838 272.5,-832 272.5,-832 272.5,-820 272.5,-820 272.5,-814 278.5,-808 284.5,-808 284.5,-808 380.5,-808 380.5,-808 386.5,-808 392.5,-814 392.5,-820 392.5,-820 392.5,-832 392.5,-832 392.5,-838 386.5,-844 380.5,-844"/>
<text text-anchor="middle" x="332.5" y="-829" font-family="sans" font-size="10.00">bamALIGN_bwa</text>
<text text-anchor="middle" x="332.5" y="-817" font-family="sans" font-size="10.00">sampleBAB: Pfeiffer2</text>
</g>
<!-- 26 -->
<g id="node27" class="node"><title>26</title>
<path fill="none" stroke="#56d86b" stroke-width="2" d="M411,-772C411,-772 254,-772 254,-772 248,-772 242,-766 242,-760 242,-760 242,-740 242,-740 242,-734 248,-728 254,-728 254,-728 411,-728 411,-728 417,-728 423,-734 423,-740 423,-740 423,-760 423,-760 423,-766 417,-772 411,-772"/>
<text text-anchor="middle" x="332.5" y="-759" font-family="sans" font-size="10.00">sortBAM_biobambam</text>
<text text-anchor="middle" x="332.5" y="-747" font-family="sans" font-size="10.00">pathSBB: output/bam</text>
<text text-anchor="middle" x="332.5" y="-735" font-family="sans" font-size="10.00">sampleSBB: Pfeiffer2_Aligned.out</text>
</g>
<!-- 2&#45;&gt;26 -->
<g id="edge31" class="edge"><title>2&#45;&gt;26</title>
<path fill="none" stroke="grey" stroke-width="2" d="M332.5,-807.837C332.5,-800.165 332.5,-790.878 332.5,-782.053"/>
<polygon fill="grey" stroke="grey" stroke-width="2" points="336,-782.032 332.5,-772.032 329,-782.032 336,-782.032"/>
</g>
<!-- 3 -->
<g id="node4" class="node"><title>3</title>
<path fill="none" stroke="#56d892" stroke-width="2" d="M1089.5,-844C1089.5,-844 993.5,-844 993.5,-844 987.5,-844 981.5,-838 981.5,-832 981.5,-832 981.5,-820 981.5,-820 981.5,-814 987.5,-808 993.5,-808 993.5,-808 1089.5,-808 1089.5,-808 1095.5,-808 1101.5,-814 1101.5,-820 1101.5,-820 1101.5,-832 1101.5,-832 1101.5,-838 1095.5,-844 1089.5,-844"/>
<text text-anchor="middle" x="1041.5" y="-829" font-family="sans" font-size="10.00">bamALIGN_bwa</text>
<text text-anchor="middle" x="1041.5" y="-817" font-family="sans" font-size="10.00">sampleBAB: Pfeiffer3</text>
</g>
<!-- 28 -->
<g id="node29" class="node"><title>28</title>
<path fill="none" stroke="#56d86b" stroke-width="2" d="M1120,-772C1120,-772 963,-772 963,-772 957,-772 951,-766 951,-760 951,-760 951,-740 951,-740 951,-734 957,-728 963,-728 963,-728 1120,-728 1120,-728 1126,-728 1132,-734 1132,-740 1132,-740 1132,-760 1132,-760 1132,-766 1126,-772 1120,-772"/>
<text text-anchor="middle" x="1041.5" y="-759" font-family="sans" font-size="10.00">sortBAM_biobambam</text>
<text text-anchor="middle" x="1041.5" y="-747" font-family="sans" font-size="10.00">pathSBB: output/bam</text>
<text text-anchor="middle" x="1041.5" y="-735" font-family="sans" font-size="10.00">sampleSBB: Pfeiffer3_Aligned.out</text>
</g>
<!-- 3&#45;&gt;28 -->
<g id="edge33" class="edge"><title>3&#45;&gt;28</title>
<path fill="none" stroke="grey" stroke-width="2" d="M1041.5,-807.837C1041.5,-800.165 1041.5,-790.878 1041.5,-782.053"/>
<polygon fill="grey" stroke="grey" stroke-width="2" points="1045,-782.032 1041.5,-772.032 1038,-782.032 1045,-782.032"/>
</g>
<!-- 4 -->
<g id="node5" class="node"><title>4</title>
<path fill="none" stroke="#56d87b" stroke-width="2" d="M1134.5,-692C1134.5,-692 948.5,-692 948.5,-692 942.5,-692 936.5,-686 936.5,-680 936.5,-680 936.5,-660 936.5,-660 936.5,-654 942.5,-648 948.5,-648 948.5,-648 1134.5,-648 1134.5,-648 1140.5,-648 1146.5,-654 1146.5,-660 1146.5,-660 1146.5,-680 1146.5,-680 1146.5,-686 1140.5,-692 1134.5,-692"/>
<text text-anchor="middle" x="1041.5" y="-679" font-family="sans" font-size="10.00">filteredBAM</text>
<text text-anchor="middle" x="1041.5" y="-667" font-family="sans" font-size="10.00">pathFB: output/bam</text>
<text text-anchor="middle" x="1041.5" y="-655" font-family="sans" font-size="10.00">sampleFB: Pfeiffer3_Aligned.out_sorted</text>
</g>
<!-- 10 -->
<g id="node11" class="node"><title>10</title>
<path fill="none" stroke="#59d856" stroke-width="2" d="M1160,-612C1160,-612 923,-612 923,-612 917,-612 911,-606 911,-600 911,-600 911,-580 911,-580 911,-574 917,-568 923,-568 923,-568 1160,-568 1160,-568 1166,-568 1172,-574 1172,-580 1172,-580 1172,-600 1172,-600 1172,-606 1166,-612 1160,-612"/>
<text text-anchor="middle" x="1041.5" y="-599" font-family="sans" font-size="10.00">markdupBAM</text>
<text text-anchor="middle" x="1041.5" y="-587" font-family="sans" font-size="10.00">outputDIR: output</text>
<text text-anchor="middle" x="1041.5" y="-575" font-family="sans" font-size="10.00">sampleMDB: Pfeiffer3_Aligned.out_sorted_filtered</text>
</g>
<!-- 4&#45;&gt;10 -->
<g id="edge15" class="edge"><title>4&#45;&gt;10</title>
<path fill="none" stroke="grey" stroke-width="2" d="M1041.5,-647.686C1041.5,-639.798 1041.5,-630.684 1041.5,-622.103"/>
<polygon fill="grey" stroke="grey" stroke-width="2" points="1045,-622.018 1041.5,-612.018 1038,-622.018 1045,-622.018"/>
</g>
<!-- 6 -->
<g id="node7" class="node"><title>6</title>
<path fill="none" stroke="#56d0d8" stroke-width="2" d="M672.5,-196C672.5,-196 376.5,-196 376.5,-196 370.5,-196 364.5,-190 364.5,-184 364.5,-184 364.5,-164 364.5,-164 364.5,-158 370.5,-152 376.5,-152 376.5,-152 672.5,-152 672.5,-152 678.5,-152 684.5,-158 684.5,-164 684.5,-164 684.5,-184 684.5,-184 684.5,-190 678.5,-196 672.5,-196"/>
<text text-anchor="middle" x="524.5" y="-183" font-family="sans" font-size="10.00">dbsnp</text>
<text text-anchor="middle" x="524.5" y="-171" font-family="sans" font-size="10.00">pathDbSnp: output/vcfGenUtil_varScan</text>
<text text-anchor="middle" x="524.5" y="-159" font-family="sans" font-size="10.00">sampleDbSnp: Pfeiffer2.varScan.snp.noncanonical_annotated</text>
</g>
<!-- 27 -->
<g id="node28" class="node"><title>27</title>
<path fill="none" stroke="#ced856" stroke-width="2" d="M722,-116C722,-116 349,-116 349,-116 343,-116 337,-110 337,-104 337,-104 337,-84 337,-84 337,-78 343,-72 349,-72 349,-72 722,-72 722,-72 728,-72 734,-78 734,-84 734,-84 734,-104 734,-104 734,-110 728,-116 722,-116"/>
<text text-anchor="middle" x="535.5" y="-103" font-family="sans" font-size="10.00">cosmic</text>
<text text-anchor="middle" x="535.5" y="-91" font-family="sans" font-size="10.00">pathCOS: output/vcfGenUtil_varScan</text>
<text text-anchor="middle" x="535.5" y="-79" font-family="sans" font-size="10.00">sampleCOS: Pfeiffer2.varScan.snp.noncanonical_annotated.dbsnp_annotated</text>
</g>
<!-- 6&#45;&gt;27 -->
<g id="edge32" class="edge"><title>6&#45;&gt;27</title>
<path fill="none" stroke="grey" stroke-width="2" d="M527.506,-151.686C528.618,-143.798 529.904,-134.684 531.114,-126.103"/>
<polygon fill="grey" stroke="grey" stroke-width="2" points="534.605,-126.409 532.536,-116.018 527.674,-125.431 534.605,-126.409"/>
</g>
<!-- 7 -->
<g id="node8" class="node"><title>7</title>
<path fill="none" stroke="#d8cb56" stroke-width="2" d="M256.5,-196C256.5,-196 74.5,-196 74.5,-196 68.5,-196 62.5,-190 62.5,-184 62.5,-184 62.5,-164 62.5,-164 62.5,-158 68.5,-152 74.5,-152 74.5,-152 256.5,-152 256.5,-152 262.5,-152 268.5,-158 268.5,-164 268.5,-164 268.5,-184 268.5,-184 268.5,-190 262.5,-196 256.5,-196"/>
<text text-anchor="middle" x="165.5" y="-183" font-family="sans" font-size="10.00">noncanonical</text>
<text text-anchor="middle" x="165.5" y="-171" font-family="sans" font-size="10.00">pathNCAN: output/vcfGenUtil_varScan</text>
<text text-anchor="middle" x="165.5" y="-159" font-family="sans" font-size="10.00">sampleNCAN: Pfeiffer2.varScan.indel</text>
</g>
<!-- 7&#45;&gt;1 -->
<g id="edge2" class="edge"><title>7&#45;&gt;1</title>
<path fill="none" stroke="grey" stroke-width="2" d="M163.86,-151.686C163.254,-143.798 162.553,-134.684 161.893,-126.103"/>
<polygon fill="grey" stroke="grey" stroke-width="2" points="165.374,-125.72 161.117,-116.018 158.394,-126.257 165.374,-125.72"/>
</g>
<!-- 8 -->
<g id="node9" class="node"><title>8</title>
<path fill="none" stroke="#56d8a9" stroke-width="2" d="M1021,-924C1021,-924 916,-924 916,-924 910,-924 904,-918 904,-912 904,-912 904,-892 904,-892 904,-886 910,-880 916,-880 916,-880 1021,-880 1021,-880 1027,-880 1033,-886 1033,-892 1033,-892 1033,-912 1033,-912 1033,-918 1027,-924 1021,-924"/>
<text text-anchor="middle" x="968.5" y="-911" font-family="sans" font-size="10.00">fastq2GZ</text>
<text text-anchor="middle" x="968.5" y="-899" font-family="sans" font-size="10.00">pathFGZ: output/fastq</text>
<text text-anchor="middle" x="968.5" y="-887" font-family="sans" font-size="10.00">sampleFGZ: Pfeiffer3.2</text>
</g>
<!-- 8&#45;&gt;3 -->
<g id="edge5" class="edge"><title>8&#45;&gt;3</title>
<path fill="none" stroke="grey" stroke-width="2" d="M989.224,-879.993C997.918,-871.179 1008.09,-860.868 1017.14,-851.694"/>
<polygon fill="grey" stroke="grey" stroke-width="2" points="1019.89,-853.892 1024.42,-844.315 1014.9,-848.976 1019.89,-853.892"/>
</g>
<!-- 9 -->
<g id="node10" class="node"><title>9</title>
<path fill="none" stroke="#d8bc56" stroke-width="2" d="M383.5,-996C383.5,-996 283.5,-996 283.5,-996 277.5,-996 271.5,-990 271.5,-984 271.5,-984 271.5,-972 271.5,-972 271.5,-966 277.5,-960 283.5,-960 283.5,-960 383.5,-960 383.5,-960 389.5,-960 395.5,-966 395.5,-972 395.5,-972 395.5,-984 395.5,-984 395.5,-990 389.5,-996 383.5,-996"/>
<text text-anchor="middle" x="333.5" y="-981" font-family="sans" font-size="10.00">bam2fastq_picard</text>
<text text-anchor="middle" x="333.5" y="-969" font-family="sans" font-size="10.00">sampleB2FP: Pfeiffer2</text>
</g>
<!-- 18 -->
<g id="node19" class="node"><title>18</title>
<path fill="none" stroke="#56d8a9" stroke-width="2" d="M312,-924C312,-924 207,-924 207,-924 201,-924 195,-918 195,-912 195,-912 195,-892 195,-892 195,-886 201,-880 207,-880 207,-880 312,-880 312,-880 318,-880 324,-886 324,-892 324,-892 324,-912 324,-912 324,-918 318,-924 312,-924"/>
<text text-anchor="middle" x="259.5" y="-911" font-family="sans" font-size="10.00">fastq2GZ</text>
<text text-anchor="middle" x="259.5" y="-899" font-family="sans" font-size="10.00">pathFGZ: output/fastq</text>
<text text-anchor="middle" x="259.5" y="-887" font-family="sans" font-size="10.00">sampleFGZ: Pfeiffer2.1</text>
</g>
<!-- 9&#45;&gt;18 -->
<g id="edge23" class="edge"><title>9&#45;&gt;18</title>
<path fill="none" stroke="grey" stroke-width="2" d="M316.337,-959.837C307.831,-951.331 297.339,-940.839 287.695,-931.195"/>
<polygon fill="grey" stroke="grey" stroke-width="2" points="290.078,-928.628 280.532,-924.032 285.128,-933.578 290.078,-928.628"/>
</g>
<!-- 25 -->
<g id="node26" class="node"><title>25</title>
<path fill="none" stroke="#56d8a9" stroke-width="2" d="M459,-924C459,-924 354,-924 354,-924 348,-924 342,-918 342,-912 342,-912 342,-892 342,-892 342,-886 348,-880 354,-880 354,-880 459,-880 459,-880 465,-880 471,-886 471,-892 471,-892 471,-912 471,-912 471,-918 465,-924 459,-924"/>
<text text-anchor="middle" x="406.5" y="-911" font-family="sans" font-size="10.00">fastq2GZ</text>
<text text-anchor="middle" x="406.5" y="-899" font-family="sans" font-size="10.00">pathFGZ: output/fastq</text>
<text text-anchor="middle" x="406.5" y="-887" font-family="sans" font-size="10.00">sampleFGZ: Pfeiffer2.2</text>
</g>
<!-- 9&#45;&gt;25 -->
<g id="edge30" class="edge"><title>9&#45;&gt;25</title>
<path fill="none" stroke="grey" stroke-width="2" d="M350.431,-959.837C358.822,-951.331 369.172,-940.839 378.686,-931.195"/>
<polygon fill="grey" stroke="grey" stroke-width="2" points="381.221,-933.609 385.752,-924.032 376.238,-928.693 381.221,-933.609"/>
</g>
<!-- 15 -->
<g id="node16" class="node"><title>15</title>
<path fill="none" stroke="#56d8d0" stroke-width="2" d="M1084.5,-532C1084.5,-532 998.5,-532 998.5,-532 992.5,-532 986.5,-526 986.5,-520 986.5,-520 986.5,-508 986.5,-508 986.5,-502 992.5,-496 998.5,-496 998.5,-496 1084.5,-496 1084.5,-496 1090.5,-496 1096.5,-502 1096.5,-508 1096.5,-508 1096.5,-520 1096.5,-520 1096.5,-526 1090.5,-532 1084.5,-532"/>
<text text-anchor="middle" x="1041.5" y="-517" font-family="sans" font-size="10.00">indexBAM</text>
<text text-anchor="middle" x="1041.5" y="-505" font-family="sans" font-size="10.00">sampleIB: Pfeiffer3</text>
</g>
<!-- 10&#45;&gt;15 -->
<g id="edge20" class="edge"><title>10&#45;&gt;15</title>
<path fill="none" stroke="grey" stroke-width="2" d="M1041.5,-567.993C1041.5,-560.061 1041.5,-550.915 1041.5,-542.478"/>
<polygon fill="grey" stroke="grey" stroke-width="2" points="1045,-542.315 1041.5,-532.315 1038,-542.315 1045,-542.315"/>
</g>
<!-- 11 -->
<g id="node12" class="node"><title>11</title>
<path fill="none" stroke="#56d8d0" stroke-width="2" d="M375.5,-532C375.5,-532 289.5,-532 289.5,-532 283.5,-532 277.5,-526 277.5,-520 277.5,-520 277.5,-508 277.5,-508 277.5,-502 283.5,-496 289.5,-496 289.5,-496 375.5,-496 375.5,-496 381.5,-496 387.5,-502 387.5,-508 387.5,-508 387.5,-520 387.5,-520 387.5,-526 381.5,-532 375.5,-532"/>
<text text-anchor="middle" x="332.5" y="-517" font-family="sans" font-size="10.00">indexBAM</text>
<text text-anchor="middle" x="332.5" y="-505" font-family="sans" font-size="10.00">sampleIB: Pfeiffer2</text>
</g>
<!-- 14 -->
<g id="node15" class="node"><title>14</title>
<path fill="none" stroke="#d8a456" stroke-width="2" d="M381.5,-460C381.5,-460 283.5,-460 283.5,-460 277.5,-460 271.5,-454 271.5,-448 271.5,-448 271.5,-428 271.5,-428 271.5,-422 277.5,-416 283.5,-416 283.5,-416 381.5,-416 381.5,-416 387.5,-416 393.5,-422 393.5,-428 393.5,-428 393.5,-448 393.5,-448 393.5,-454 387.5,-460 381.5,-460"/>
<text text-anchor="middle" x="332.5" y="-447" font-family="sans" font-size="10.00">bam2mpileup</text>
<text text-anchor="middle" x="332.5" y="-435" font-family="sans" font-size="10.00">chrB2M: </text>
<text text-anchor="middle" x="332.5" y="-423" font-family="sans" font-size="10.00">sampleB2M: Pfeiffer2</text>
</g>
<!-- 11&#45;&gt;14 -->
<g id="edge19" class="edge"><title>11&#45;&gt;14</title>
<path fill="none" stroke="grey" stroke-width="2" d="M332.5,-495.837C332.5,-488.165 332.5,-478.878 332.5,-470.053"/>
<polygon fill="grey" stroke="grey" stroke-width="2" points="336,-470.032 332.5,-460.032 329,-470.032 336,-470.032"/>
</g>
<!-- 12 -->
<g id="node13" class="node"><title>12</title>
<path fill="none" stroke="#d8cb56" stroke-width="2" d="M526.5,-282C526.5,-282 344.5,-282 344.5,-282 338.5,-282 332.5,-276 332.5,-270 332.5,-270 332.5,-250 332.5,-250 332.5,-244 338.5,-238 344.5,-238 344.5,-238 526.5,-238 526.5,-238 532.5,-238 538.5,-244 538.5,-250 538.5,-250 538.5,-270 538.5,-270 538.5,-276 532.5,-282 526.5,-282"/>
<text text-anchor="middle" x="435.5" y="-269" font-family="sans" font-size="10.00">noncanonical</text>
<text text-anchor="middle" x="435.5" y="-257" font-family="sans" font-size="10.00">pathNCAN: output/vcfGenUtil_varScan</text>
<text text-anchor="middle" x="435.5" y="-245" font-family="sans" font-size="10.00">sampleNCAN: Pfeiffer2.varScan.snp</text>
</g>
<!-- 12&#45;&gt;6 -->
<g id="edge12" class="edge"><title>12&#45;&gt;6</title>
<path fill="none" stroke="grey" stroke-width="2" d="M457.958,-237.803C469.026,-227.358 482.527,-214.615 494.468,-203.345"/>
<polygon fill="grey" stroke="grey" stroke-width="2" points="497.179,-205.599 502.049,-196.19 492.374,-200.508 497.179,-205.599"/>
</g>
<!-- 13 -->
<g id="node14" class="node"><title>13</title>
<path fill="none" stroke="#68d856" stroke-width="2" d="M253,-288C253,-288 124,-288 124,-288 118,-288 112,-282 112,-276 112,-276 112,-244 112,-244 112,-238 118,-232 124,-232 124,-232 253,-232 253,-232 259,-232 265,-238 265,-244 265,-244 265,-276 265,-276 265,-282 259,-288 253,-288"/>
<text text-anchor="middle" x="188.5" y="-275" font-family="sans" font-size="10.00">mpileup2vcf_single</text>
<text text-anchor="middle" x="188.5" y="-263" font-family="sans" font-size="10.00">chrMPU2VCFS: </text>
<text text-anchor="middle" x="188.5" y="-251" font-family="sans" font-size="10.00">sampleMPU2VCFS: Pfeiffer2</text>
<text text-anchor="middle" x="188.5" y="-239" font-family="sans" font-size="10.00">varTypeMPU2VCFS: indel</text>
</g>
<!-- 13&#45;&gt;7 -->
<g id="edge13" class="edge"><title>13&#45;&gt;7</title>
<path fill="none" stroke="grey" stroke-width="2" d="M181.096,-231.959C178.812,-223.617 176.28,-214.369 173.932,-205.794"/>
<polygon fill="grey" stroke="grey" stroke-width="2" points="177.302,-204.851 171.286,-196.131 170.551,-206.7 177.302,-204.851"/>
</g>
<!-- 14&#45;&gt;13 -->
<g id="edge18" class="edge"><title>14&#45;&gt;13</title>
<path fill="none" stroke="grey" stroke-width="2" d="M315.13,-415.77C290.79,-386.021 246.242,-331.573 217.002,-295.836"/>
<polygon fill="grey" stroke="grey" stroke-width="2" points="219.688,-293.591 210.646,-288.068 214.27,-298.024 219.688,-293.591"/>
</g>
<!-- 17 -->
<g id="node18" class="node"><title>17</title>
<path fill="none" stroke="#68d856" stroke-width="2" d="M455,-380C455,-380 326,-380 326,-380 320,-380 314,-374 314,-368 314,-368 314,-336 314,-336 314,-330 320,-324 326,-324 326,-324 455,-324 455,-324 461,-324 467,-330 467,-336 467,-336 467,-368 467,-368 467,-374 461,-380 455,-380"/>
<text text-anchor="middle" x="390.5" y="-367" font-family="sans" font-size="10.00">mpileup2vcf_single</text>
<text text-anchor="middle" x="390.5" y="-355" font-family="sans" font-size="10.00">chrMPU2VCFS: </text>
<text text-anchor="middle" x="390.5" y="-343" font-family="sans" font-size="10.00">sampleMPU2VCFS: Pfeiffer2</text>
<text text-anchor="middle" x="390.5" y="-331" font-family="sans" font-size="10.00">varTypeMPU2VCFS: snp</text>
</g>
<!-- 14&#45;&gt;17 -->
<g id="edge22" class="edge"><title>14&#45;&gt;17</title>
<path fill="none" stroke="grey" stroke-width="2" d="M347.136,-415.803C352.84,-407.542 359.536,-397.845 365.936,-388.575"/>
<polygon fill="grey" stroke="grey" stroke-width="2" points="368.892,-390.454 371.694,-380.236 363.132,-386.476 368.892,-390.454"/>
</g>
<!-- 23 -->
<g id="node24" class="node"><title>23</title>
<path fill="none" stroke="#d8a456" stroke-width="2" d="M1090.5,-460C1090.5,-460 992.5,-460 992.5,-460 986.5,-460 980.5,-454 980.5,-448 980.5,-448 980.5,-428 980.5,-428 980.5,-422 986.5,-416 992.5,-416 992.5,-416 1090.5,-416 1090.5,-416 1096.5,-416 1102.5,-422 1102.5,-428 1102.5,-428 1102.5,-448 1102.5,-448 1102.5,-454 1096.5,-460 1090.5,-460"/>
<text text-anchor="middle" x="1041.5" y="-447" font-family="sans" font-size="10.00">bam2mpileup</text>
<text text-anchor="middle" x="1041.5" y="-435" font-family="sans" font-size="10.00">chrB2M: </text>
<text text-anchor="middle" x="1041.5" y="-423" font-family="sans" font-size="10.00">sampleB2M: Pfeiffer3</text>
</g>
<!-- 15&#45;&gt;23 -->
<g id="edge28" class="edge"><title>15&#45;&gt;23</title>
<path fill="none" stroke="grey" stroke-width="2" d="M1041.5,-495.837C1041.5,-488.165 1041.5,-478.878 1041.5,-470.053"/>
<polygon fill="grey" stroke="grey" stroke-width="2" points="1045,-470.032 1041.5,-460.032 1038,-470.032 1045,-470.032"/>
</g>
<!-- 16 -->
<g id="node17" class="node"><title>16</title>
<path fill="none" stroke="#56d87b" stroke-width="2" d="M425.5,-692C425.5,-692 239.5,-692 239.5,-692 233.5,-692 227.5,-686 227.5,-680 227.5,-680 227.5,-660 227.5,-660 227.5,-654 233.5,-648 239.5,-648 239.5,-648 425.5,-648 425.5,-648 431.5,-648 437.5,-654 437.5,-660 437.5,-660 437.5,-680 437.5,-680 437.5,-686 431.5,-692 425.5,-692"/>
<text text-anchor="middle" x="332.5" y="-679" font-family="sans" font-size="10.00">filteredBAM</text>
<text text-anchor="middle" x="332.5" y="-667" font-family="sans" font-size="10.00">pathFB: output/bam</text>
<text text-anchor="middle" x="332.5" y="-655" font-family="sans" font-size="10.00">sampleFB: Pfeiffer2_Aligned.out_sorted</text>
</g>
<!-- 20 -->
<g id="node21" class="node"><title>20</title>
<path fill="none" stroke="#59d856" stroke-width="2" d="M451,-612C451,-612 214,-612 214,-612 208,-612 202,-606 202,-600 202,-600 202,-580 202,-580 202,-574 208,-568 214,-568 214,-568 451,-568 451,-568 457,-568 463,-574 463,-580 463,-580 463,-600 463,-600 463,-606 457,-612 451,-612"/>
<text text-anchor="middle" x="332.5" y="-599" font-family="sans" font-size="10.00">markdupBAM</text>
<text text-anchor="middle" x="332.5" y="-587" font-family="sans" font-size="10.00">outputDIR: output</text>
<text text-anchor="middle" x="332.5" y="-575" font-family="sans" font-size="10.00">sampleMDB: Pfeiffer2_Aligned.out_sorted_filtered</text>
</g>
<!-- 16&#45;&gt;20 -->
<g id="edge25" class="edge"><title>16&#45;&gt;20</title>
<path fill="none" stroke="grey" stroke-width="2" d="M332.5,-647.686C332.5,-639.798 332.5,-630.684 332.5,-622.103"/>
<polygon fill="grey" stroke="grey" stroke-width="2" points="336,-622.018 332.5,-612.018 329,-622.018 336,-622.018"/>
</g>
<!-- 17&#45;&gt;12 -->
<g id="edge17" class="edge"><title>17&#45;&gt;12</title>
<path fill="none" stroke="grey" stroke-width="2" d="M404.001,-323.997C409.115,-313.769 414.972,-302.057 420.236,-291.527"/>
<polygon fill="grey" stroke="grey" stroke-width="2" points="423.525,-292.776 424.867,-282.266 417.264,-289.645 423.525,-292.776"/>
</g>
<!-- 18&#45;&gt;2 -->
<g id="edge4" class="edge"><title>18&#45;&gt;2</title>
<path fill="none" stroke="grey" stroke-width="2" d="M280.224,-879.993C288.918,-871.179 299.09,-860.868 308.139,-851.694"/>
<polygon fill="grey" stroke="grey" stroke-width="2" points="310.888,-853.892 315.419,-844.315 305.905,-848.976 310.888,-853.892"/>
</g>
<!-- 19 -->
<g id="node20" class="node"><title>19</title>
<path fill="none" stroke="#5692d8" stroke-width="2" d="M1059,-116C1059,-116 764,-116 764,-116 758,-116 752,-110 752,-104 752,-104 752,-84 752,-84 752,-78 758,-72 764,-72 764,-72 1059,-72 1059,-72 1065,-72 1071,-78 1071,-84 1071,-84 1071,-104 1071,-104 1071,-110 1065,-116 1059,-116"/>
<text text-anchor="middle" x="911.5" y="-103" font-family="sans" font-size="10.00">indel</text>
<text text-anchor="middle" x="911.5" y="-91" font-family="sans" font-size="10.00">pathIndel: output/vcfGenUtil_varScan</text>
<text text-anchor="middle" x="911.5" y="-79" font-family="sans" font-size="10.00">sampleIndel: Pfeiffer3.varScan.indel.noncanonical_annotated</text>
</g>
<!-- 19&#45;&gt;5 -->
<g id="edge9" class="edge"><title>19&#45;&gt;5</title>
<path fill="none" stroke="grey" stroke-width="2" d="M858.13,-71.9925C826.764,-59.6464 787.925,-44.3587 760.036,-33.3811"/>
<polygon fill="grey" stroke="grey" stroke-width="2" points="761.245,-30.0958 750.658,-29.6898 758.681,-36.6093 761.245,-30.0958"/>
</g>
<!-- 20&#45;&gt;11 -->
<g id="edge16" class="edge"><title>20&#45;&gt;11</title>
<path fill="none" stroke="grey" stroke-width="2" d="M332.5,-567.993C332.5,-560.061 332.5,-550.915 332.5,-542.478"/>
<polygon fill="grey" stroke="grey" stroke-width="2" points="336,-542.315 332.5,-532.315 329,-542.315 336,-542.315"/>
</g>
<!-- 21&#45;&gt;5 -->
<g id="edge11" class="edge"><title>21&#45;&gt;5</title>
<path fill="none" stroke="grey" stroke-width="2" d="M1127.39,-71.9925C1001.05,-55.4167 834.305,-33.5383 760.905,-23.9077"/>
<polygon fill="grey" stroke="grey" stroke-width="2" points="761.139,-20.4085 750.768,-22.5778 760.228,-27.349 761.139,-20.4085"/>
</g>
<!-- 22 -->
<g id="node23" class="node"><title>22</title>
<path fill="none" stroke="#68d856" stroke-width="2" d="M1021,-380C1021,-380 892,-380 892,-380 886,-380 880,-374 880,-368 880,-368 880,-336 880,-336 880,-330 886,-324 892,-324 892,-324 1021,-324 1021,-324 1027,-324 1033,-330 1033,-336 1033,-336 1033,-368 1033,-368 1033,-374 1027,-380 1021,-380"/>
<text text-anchor="middle" x="956.5" y="-367" font-family="sans" font-size="10.00">mpileup2vcf_single</text>
<text text-anchor="middle" x="956.5" y="-355" font-family="sans" font-size="10.00">chrMPU2VCFS: </text>
<text text-anchor="middle" x="956.5" y="-343" font-family="sans" font-size="10.00">sampleMPU2VCFS: Pfeiffer3</text>
<text text-anchor="middle" x="956.5" y="-331" font-family="sans" font-size="10.00">varTypeMPU2VCFS: indel</text>
</g>
<!-- 30 -->
<g id="node31" class="node"><title>30</title>
<path fill="none" stroke="#d8cb56" stroke-width="2" d="M1026.5,-196C1026.5,-196 844.5,-196 844.5,-196 838.5,-196 832.5,-190 832.5,-184 832.5,-184 832.5,-164 832.5,-164 832.5,-158 838.5,-152 844.5,-152 844.5,-152 1026.5,-152 1026.5,-152 1032.5,-152 1038.5,-158 1038.5,-164 1038.5,-164 1038.5,-184 1038.5,-184 1038.5,-190 1032.5,-196 1026.5,-196"/>
<text text-anchor="middle" x="935.5" y="-183" font-family="sans" font-size="10.00">noncanonical</text>
<text text-anchor="middle" x="935.5" y="-171" font-family="sans" font-size="10.00">pathNCAN: output/vcfGenUtil_varScan</text>
<text text-anchor="middle" x="935.5" y="-159" font-family="sans" font-size="10.00">sampleNCAN: Pfeiffer3.varScan.indel</text>
</g>
<!-- 22&#45;&gt;30 -->
<g id="edge35" class="edge"><title>22&#45;&gt;30</title>
<path fill="none" stroke="grey" stroke-width="2" d="M953.265,-323.886C949.475,-292.128 943.21,-239.619 939.222,-206.198"/>
<polygon fill="grey" stroke="grey" stroke-width="2" points="942.674,-205.583 938.014,-196.068 935.723,-206.412 942.674,-205.583"/>
</g>
<!-- 23&#45;&gt;22 -->
<g id="edge27" class="edge"><title>23&#45;&gt;22</title>
<path fill="none" stroke="grey" stroke-width="2" d="M1020.05,-415.803C1011.35,-407.205 1001.08,-397.051 991.353,-387.443"/>
<polygon fill="grey" stroke="grey" stroke-width="2" points="993.633,-384.776 984.06,-380.236 988.713,-389.755 993.633,-384.776"/>
</g>
<!-- 24 -->
<g id="node25" class="node"><title>24</title>
<path fill="none" stroke="#68d856" stroke-width="2" d="M1219,-380C1219,-380 1090,-380 1090,-380 1084,-380 1078,-374 1078,-368 1078,-368 1078,-336 1078,-336 1078,-330 1084,-324 1090,-324 1090,-324 1219,-324 1219,-324 1225,-324 1231,-330 1231,-336 1231,-336 1231,-368 1231,-368 1231,-374 1225,-380 1219,-380"/>
<text text-anchor="middle" x="1154.5" y="-367" font-family="sans" font-size="10.00">mpileup2vcf_single</text>
<text text-anchor="middle" x="1154.5" y="-355" font-family="sans" font-size="10.00">chrMPU2VCFS: </text>
<text text-anchor="middle" x="1154.5" y="-343" font-family="sans" font-size="10.00">sampleMPU2VCFS: Pfeiffer3</text>
<text text-anchor="middle" x="1154.5" y="-331" font-family="sans" font-size="10.00">varTypeMPU2VCFS: snp</text>
</g>
<!-- 23&#45;&gt;24 -->
<g id="edge29" class="edge"><title>23&#45;&gt;24</title>
<path fill="none" stroke="grey" stroke-width="2" d="M1070.01,-415.803C1082.03,-406.868 1096.32,-396.252 1109.68,-386.315"/>
<polygon fill="grey" stroke="grey" stroke-width="2" points="1111.92,-389.011 1117.86,-380.236 1107.75,-383.393 1111.92,-389.011"/>
</g>
<!-- 29 -->
<g id="node30" class="node"><title>29</title>
<path fill="none" stroke="#d8cb56" stroke-width="2" d="M1300.5,-282C1300.5,-282 1118.5,-282 1118.5,-282 1112.5,-282 1106.5,-276 1106.5,-270 1106.5,-270 1106.5,-250 1106.5,-250 1106.5,-244 1112.5,-238 1118.5,-238 1118.5,-238 1300.5,-238 1300.5,-238 1306.5,-238 1312.5,-244 1312.5,-250 1312.5,-250 1312.5,-270 1312.5,-270 1312.5,-276 1306.5,-282 1300.5,-282"/>
<text text-anchor="middle" x="1209.5" y="-269" font-family="sans" font-size="10.00">noncanonical</text>
<text text-anchor="middle" x="1209.5" y="-257" font-family="sans" font-size="10.00">pathNCAN: output/vcfGenUtil_varScan</text>
<text text-anchor="middle" x="1209.5" y="-245" font-family="sans" font-size="10.00">sampleNCAN: Pfeiffer3.varScan.snp</text>
</g>
<!-- 24&#45;&gt;29 -->
<g id="edge34" class="edge"><title>24&#45;&gt;29</title>
<path fill="none" stroke="grey" stroke-width="2" d="M1171,-323.997C1177.38,-313.561 1184.7,-301.578 1191.24,-290.884"/>
<polygon fill="grey" stroke="grey" stroke-width="2" points="1194.28,-292.624 1196.5,-282.266 1188.3,-288.974 1194.28,-292.624"/>
</g>
<!-- 25&#45;&gt;2 -->
<g id="edge3" class="edge"><title>25&#45;&gt;2</title>
<path fill="none" stroke="grey" stroke-width="2" d="M385.493,-879.993C376.591,-871.091 366.161,-860.661 356.92,-851.42"/>
<polygon fill="grey" stroke="grey" stroke-width="2" points="359.361,-848.911 349.815,-844.315 354.411,-853.861 359.361,-848.911"/>
</g>
<!-- 26&#45;&gt;16 -->
<g id="edge21" class="edge"><title>26&#45;&gt;16</title>
<path fill="none" stroke="grey" stroke-width="2" d="M332.5,-727.686C332.5,-719.798 332.5,-710.684 332.5,-702.103"/>
<polygon fill="grey" stroke="grey" stroke-width="2" points="336,-702.018 332.5,-692.018 329,-702.018 336,-702.018"/>
</g>
<!-- 27&#45;&gt;5 -->
<g id="edge10" class="edge"><title>27&#45;&gt;5</title>
<path fill="none" stroke="grey" stroke-width="2" d="M588.87,-71.9925C620.236,-59.6464 659.075,-44.3587 686.964,-33.3811"/>
<polygon fill="grey" stroke="grey" stroke-width="2" points="688.319,-36.6093 696.342,-29.6898 685.755,-30.0958 688.319,-36.6093"/>
</g>
<!-- 28&#45;&gt;4 -->
<g id="edge7" class="edge"><title>28&#45;&gt;4</title>
<path fill="none" stroke="grey" stroke-width="2" d="M1041.5,-727.686C1041.5,-719.798 1041.5,-710.684 1041.5,-702.103"/>
<polygon fill="grey" stroke="grey" stroke-width="2" points="1045,-702.018 1041.5,-692.018 1038,-702.018 1045,-702.018"/>
</g>
<!-- 29&#45;&gt;0 -->
<g id="edge1" class="edge"><title>29&#45;&gt;0</title>
<path fill="none" stroke="grey" stroke-width="2" d="M1223.13,-237.803C1229.59,-227.756 1237.41,-215.583 1244.45,-204.639"/>
<polygon fill="grey" stroke="grey" stroke-width="2" points="1247.41,-206.494 1249.88,-196.19 1241.53,-202.709 1247.41,-206.494"/>
</g>
<!-- 30&#45;&gt;19 -->
<g id="edge24" class="edge"><title>30&#45;&gt;19</title>
<path fill="none" stroke="grey" stroke-width="2" d="M928.942,-151.686C926.488,-143.711 923.649,-134.484 920.983,-125.82"/>
<polygon fill="grey" stroke="grey" stroke-width="2" points="924.253,-124.546 917.967,-116.018 917.563,-126.605 924.253,-124.546"/>
</g>
<!-- 31 -->
<g id="node32" class="node"><title>31</title>
<path fill="none" stroke="#d8bc56" stroke-width="2" d="M1091.5,-996C1091.5,-996 991.5,-996 991.5,-996 985.5,-996 979.5,-990 979.5,-984 979.5,-984 979.5,-972 979.5,-972 979.5,-966 985.5,-960 991.5,-960 991.5,-960 1091.5,-960 1091.5,-960 1097.5,-960 1103.5,-966 1103.5,-972 1103.5,-972 1103.5,-984 1103.5,-984 1103.5,-990 1097.5,-996 1091.5,-996"/>
<text text-anchor="middle" x="1041.5" y="-981" font-family="sans" font-size="10.00">bam2fastq_picard</text>
<text text-anchor="middle" x="1041.5" y="-969" font-family="sans" font-size="10.00">sampleB2FP: Pfeiffer3</text>
</g>
<!-- 31&#45;&gt;8 -->
<g id="edge14" class="edge"><title>31&#45;&gt;8</title>
<path fill="none" stroke="grey" stroke-width="2" d="M1024.57,-959.837C1016.18,-951.331 1005.83,-940.839 996.314,-931.195"/>
<polygon fill="grey" stroke="grey" stroke-width="2" points="998.762,-928.693 989.248,-924.032 993.779,-933.609 998.762,-928.693"/>
</g>
<!-- 32 -->
<g id="node33" class="node"><title>32</title>
<path fill="none" stroke="#56d8a9" stroke-width="2" d="M1168,-924C1168,-924 1063,-924 1063,-924 1057,-924 1051,-918 1051,-912 1051,-912 1051,-892 1051,-892 1051,-886 1057,-880 1063,-880 1063,-880 1168,-880 1168,-880 1174,-880 1180,-886 1180,-892 1180,-892 1180,-912 1180,-912 1180,-918 1174,-924 1168,-924"/>
<text text-anchor="middle" x="1115.5" y="-911" font-family="sans" font-size="10.00">fastq2GZ</text>
<text text-anchor="middle" x="1115.5" y="-899" font-family="sans" font-size="10.00">pathFGZ: output/fastq</text>
<text text-anchor="middle" x="1115.5" y="-887" font-family="sans" font-size="10.00">sampleFGZ: Pfeiffer3.1</text>
</g>
<!-- 31&#45;&gt;32 -->
<g id="edge36" class="edge"><title>31&#45;&gt;32</title>
<path fill="none" stroke="grey" stroke-width="2" d="M1058.66,-959.837C1067.17,-951.331 1077.66,-940.839 1087.3,-931.195"/>
<polygon fill="grey" stroke="grey" stroke-width="2" points="1089.87,-933.578 1094.47,-924.032 1084.92,-928.628 1089.87,-933.578"/>
</g>
<!-- 32&#45;&gt;3 -->
<g id="edge6" class="edge"><title>32&#45;&gt;3</title>
<path fill="none" stroke="grey" stroke-width="2" d="M1094.49,-879.993C1085.59,-871.091 1075.16,-860.661 1065.92,-851.42"/>
<polygon fill="grey" stroke="grey" stroke-width="2" points="1068.36,-848.911 1058.81,-844.315 1063.41,-853.861 1068.36,-848.911"/>
</g>
</g>
</svg>
