<?xml version="1.0" encoding="UTF-8" standalone="no"?>
<!DOCTYPE svg PUBLIC "-//W3C//DTD SVG 1.1//EN"
 "http://www.w3.org/Graphics/SVG/1.1/DTD/svg11.dtd">
<!-- Generated by graphviz version 2.38.0 (20140413.2041)
 -->
<!-- Title: snakemake_dag Pages: 1 -->
<svg width="284pt" height="340pt"
 viewBox="0.00 0.00 284.00 340.00" xmlns="http://www.w3.org/2000/svg" xmlns:xlink="http://www.w3.org/1999/xlink">
<g id="graph0" class="graph" transform="scale(1 1) rotate(0) translate(4 336)">
<title>snakemake_dag</title>
<polygon fill="white" stroke="none" points="-4,4 -4,-336 280,-336 280,4 -4,4"/>
<!-- 0 -->
<g id="node1" class="node"><title>0</title>
<path fill="none" stroke="#9fd856" stroke-width="2" d="M117,-260C117,-260 12,-260 12,-260 6,-260 0,-254 0,-248 0,-248 0,-228 0,-228 0,-222 6,-216 12,-216 12,-216 117,-216 117,-216 123,-216 129,-222 129,-228 129,-228 129,-248 129,-248 129,-254 123,-260 117,-260"/>
<text text-anchor="middle" x="64.5" y="-247" font-family="sans" font-size="10.00">fastq2GZ</text>
<text text-anchor="middle" x="64.5" y="-235" font-family="sans" font-size="10.00">pathFGZ: output/fastq</text>
<text text-anchor="middle" x="64.5" y="-223" font-family="sans" font-size="10.00">sampleFGZ: Pfeiffer2.1</text>
</g>
<!-- 4 -->
<g id="node5" class="node"><title>4</title>
<path fill="none" stroke="#d85656" stroke-width="2" d="M185.5,-180C185.5,-180 89.5,-180 89.5,-180 83.5,-180 77.5,-174 77.5,-168 77.5,-168 77.5,-156 77.5,-156 77.5,-150 83.5,-144 89.5,-144 89.5,-144 185.5,-144 185.5,-144 191.5,-144 197.5,-150 197.5,-156 197.5,-156 197.5,-168 197.5,-168 197.5,-174 191.5,-180 185.5,-180"/>
<text text-anchor="middle" x="137.5" y="-165" font-family="sans" font-size="10.00">bamALIGN_star</text>
<text text-anchor="middle" x="137.5" y="-153" font-family="sans" font-size="10.00">sampleBAS: Pfeiffer2</text>
</g>
<!-- 0&#45;&gt;4 -->
<g id="edge5" class="edge"><title>0&#45;&gt;4</title>
<path fill="none" stroke="grey" stroke-width="2" d="M85.2236,-215.993C93.9175,-207.179 104.09,-196.868 113.139,-187.694"/>
<polygon fill="grey" stroke="grey" stroke-width="2" points="115.888,-189.892 120.419,-180.315 110.905,-184.976 115.888,-189.892"/>
</g>
<!-- 1 -->
<g id="node2" class="node"><title>1</title>
<path fill="none" stroke="#bed856" stroke-width="2" d="M152.5,-36C152.5,-36 122.5,-36 122.5,-36 116.5,-36 110.5,-30 110.5,-24 110.5,-24 110.5,-12 110.5,-12 110.5,-6 116.5,-0 122.5,-0 122.5,-0 152.5,-0 152.5,-0 158.5,-0 164.5,-6 164.5,-12 164.5,-12 164.5,-24 164.5,-24 164.5,-30 158.5,-36 152.5,-36"/>
<text text-anchor="middle" x="137.5" y="-15" font-family="sans" font-size="10.00">all</text>
</g>
<!-- 2 -->
<g id="node3" class="node"><title>2</title>
<path fill="none" stroke="#5673d8" stroke-width="2" d="M187.5,-332C187.5,-332 87.5,-332 87.5,-332 81.5,-332 75.5,-326 75.5,-320 75.5,-320 75.5,-308 75.5,-308 75.5,-302 81.5,-296 87.5,-296 87.5,-296 187.5,-296 187.5,-296 193.5,-296 199.5,-302 199.5,-308 199.5,-308 199.5,-320 199.5,-320 199.5,-326 193.5,-332 187.5,-332"/>
<text text-anchor="middle" x="137.5" y="-317" font-family="sans" font-size="10.00">bam2fastq_picard</text>
<text text-anchor="middle" x="137.5" y="-305" font-family="sans" font-size="10.00">sampleB2FP: Pfeiffer2</text>
</g>
<!-- 2&#45;&gt;0 -->
<g id="edge1" class="edge"><title>2&#45;&gt;0</title>
<path fill="none" stroke="grey" stroke-width="2" d="M120.569,-295.837C112.178,-287.331 101.828,-276.839 92.3141,-267.195"/>
<polygon fill="grey" stroke="grey" stroke-width="2" points="94.7625,-264.693 85.248,-260.032 89.7792,-269.609 94.7625,-264.693"/>
</g>
<!-- 3 -->
<g id="node4" class="node"><title>3</title>
<path fill="none" stroke="#9fd856" stroke-width="2" d="M264,-260C264,-260 159,-260 159,-260 153,-260 147,-254 147,-248 147,-248 147,-228 147,-228 147,-222 153,-216 159,-216 159,-216 264,-216 264,-216 270,-216 276,-222 276,-228 276,-228 276,-248 276,-248 276,-254 270,-260 264,-260"/>
<text text-anchor="middle" x="211.5" y="-247" font-family="sans" font-size="10.00">fastq2GZ</text>
<text text-anchor="middle" x="211.5" y="-235" font-family="sans" font-size="10.00">pathFGZ: output/fastq</text>
<text text-anchor="middle" x="211.5" y="-223" font-family="sans" font-size="10.00">sampleFGZ: Pfeiffer2.2</text>
</g>
<!-- 2&#45;&gt;3 -->
<g id="edge3" class="edge"><title>2&#45;&gt;3</title>
<path fill="none" stroke="grey" stroke-width="2" d="M154.663,-295.837C163.169,-287.331 173.661,-276.839 183.305,-267.195"/>
<polygon fill="grey" stroke="grey" stroke-width="2" points="185.872,-269.578 190.468,-260.032 180.922,-264.628 185.872,-269.578"/>
</g>
<!-- 3&#45;&gt;4 -->
<g id="edge4" class="edge"><title>3&#45;&gt;4</title>
<path fill="none" stroke="grey" stroke-width="2" d="M190.493,-215.993C181.591,-207.091 171.161,-196.661 161.92,-187.42"/>
<polygon fill="grey" stroke="grey" stroke-width="2" points="164.361,-184.911 154.815,-180.315 159.411,-189.861 164.361,-184.911"/>
</g>
<!-- 5 -->
<g id="node6" class="node"><title>5</title>
<path fill="none" stroke="#5692d8" stroke-width="2" d="M184.5,-108C184.5,-108 90.5,-108 90.5,-108 84.5,-108 78.5,-102 78.5,-96 78.5,-96 78.5,-84 78.5,-84 78.5,-78 84.5,-72 90.5,-72 90.5,-72 184.5,-72 184.5,-72 190.5,-72 196.5,-78 196.5,-84 196.5,-84 196.5,-96 196.5,-96 196.5,-102 190.5,-108 184.5,-108"/>
<text text-anchor="middle" x="137.5" y="-93" font-family="sans" font-size="10.00">fusion</text>
<text text-anchor="middle" x="137.5" y="-81" font-family="sans" font-size="10.00">sampleSAF: Pfeiffer2</text>
</g>
<!-- 4&#45;&gt;5 -->
<g id="edge6" class="edge"><title>4&#45;&gt;5</title>
<path fill="none" stroke="grey" stroke-width="2" d="M137.5,-143.697C137.5,-135.983 137.5,-126.712 137.5,-118.112"/>
<polygon fill="grey" stroke="grey" stroke-width="2" points="141,-118.104 137.5,-108.104 134,-118.104 141,-118.104"/>
</g>
<!-- 5&#45;&gt;1 -->
<g id="edge2" class="edge"><title>5&#45;&gt;1</title>
<path fill="none" stroke="grey" stroke-width="2" d="M137.5,-71.6966C137.5,-63.9827 137.5,-54.7125 137.5,-46.1124"/>
<polygon fill="grey" stroke="grey" stroke-width="2" points="141,-46.1043 137.5,-36.1043 134,-46.1044 141,-46.1043"/>
</g>
</g>
</svg>
