<?xml version="1.0" encoding="UTF-8" standalone="no"?>
<!DOCTYPE svg PUBLIC "-//W3C//DTD SVG 1.1//EN"
 "http://www.w3.org/Graphics/SVG/1.1/DTD/svg11.dtd">
<!-- Generated by graphviz version 2.38.0 (20140413.2041)
 -->
<!-- Title: snakemake_dag Pages: 1 -->
<svg width="644pt" height="752pt"
 viewBox="0.00 0.00 644.00 752.00" xmlns="http://www.w3.org/2000/svg" xmlns:xlink="http://www.w3.org/1999/xlink">
<g id="graph0" class="graph" transform="scale(1 1) rotate(0) translate(4 748)">
<title>snakemake_dag</title>
<polygon fill="white" stroke="none" points="-4,4 -4,-748 640,-748 640,4 -4,4"/>
<!-- 0 -->
<g id="node1" class="node"><title>0</title>
<path fill="none" stroke="#afd856" stroke-width="2" d="M491.5,-280C491.5,-280 405.5,-280 405.5,-280 399.5,-280 393.5,-274 393.5,-268 393.5,-268 393.5,-256 393.5,-256 393.5,-250 399.5,-244 405.5,-244 405.5,-244 491.5,-244 491.5,-244 497.5,-244 503.5,-250 503.5,-256 503.5,-256 503.5,-268 503.5,-268 503.5,-274 497.5,-280 491.5,-280"/>
<text text-anchor="middle" x="448.5" y="-265" font-family="sans" font-size="10.00">indexBAM</text>
<text text-anchor="middle" x="448.5" y="-253" font-family="sans" font-size="10.00">sampleIB: Pfeiffer2</text>
</g>
<!-- 18 -->
<g id="node19" class="node"><title>18</title>
<path fill="none" stroke="#56d892" stroke-width="2" d="M462.5,-208C462.5,-208 364.5,-208 364.5,-208 358.5,-208 352.5,-202 352.5,-196 352.5,-196 352.5,-176 352.5,-176 352.5,-170 358.5,-164 364.5,-164 364.5,-164 462.5,-164 462.5,-164 468.5,-164 474.5,-170 474.5,-176 474.5,-176 474.5,-196 474.5,-196 474.5,-202 468.5,-208 462.5,-208"/>
<text text-anchor="middle" x="413.5" y="-195" font-family="sans" font-size="10.00">bam2mpileup</text>
<text text-anchor="middle" x="413.5" y="-183" font-family="sans" font-size="10.00">chrB2M: </text>
<text text-anchor="middle" x="413.5" y="-171" font-family="sans" font-size="10.00">sampleB2M: Pfeiffer2</text>
</g>
<!-- 0&#45;&gt;18 -->
<g id="edge19" class="edge"><title>0&#45;&gt;18</title>
<path fill="none" stroke="grey" stroke-width="2" d="M440.382,-243.837C436.635,-235.915 432.074,-226.27 427.78,-217.192"/>
<polygon fill="grey" stroke="grey" stroke-width="2" points="430.887,-215.576 423.448,-208.032 424.559,-218.569 430.887,-215.576"/>
</g>
<!-- 1 -->
<g id="node2" class="node"><title>1</title>
<path fill="none" stroke="#d88556" stroke-width="2" d="M271.5,-440C271.5,-440 85.5,-440 85.5,-440 79.5,-440 73.5,-434 73.5,-428 73.5,-428 73.5,-408 73.5,-408 73.5,-402 79.5,-396 85.5,-396 85.5,-396 271.5,-396 271.5,-396 277.5,-396 283.5,-402 283.5,-408 283.5,-408 283.5,-428 283.5,-428 283.5,-434 277.5,-440 271.5,-440"/>
<text text-anchor="middle" x="178.5" y="-427" font-family="sans" font-size="10.00">filteredBAM</text>
<text text-anchor="middle" x="178.5" y="-415" font-family="sans" font-size="10.00">pathFB: output/bam</text>
<text text-anchor="middle" x="178.5" y="-403" font-family="sans" font-size="10.00">sampleFB: Pfeiffer3_Aligned.out_sorted</text>
</g>
<!-- 11 -->
<g id="node12" class="node"><title>11</title>
<path fill="none" stroke="#56d8a9" stroke-width="2" d="M297,-360C297,-360 60,-360 60,-360 54,-360 48,-354 48,-348 48,-348 48,-328 48,-328 48,-322 54,-316 60,-316 60,-316 297,-316 297,-316 303,-316 309,-322 309,-328 309,-328 309,-348 309,-348 309,-354 303,-360 297,-360"/>
<text text-anchor="middle" x="178.5" y="-347" font-family="sans" font-size="10.00">markdupBAM</text>
<text text-anchor="middle" x="178.5" y="-335" font-family="sans" font-size="10.00">outputDIR: output</text>
<text text-anchor="middle" x="178.5" y="-323" font-family="sans" font-size="10.00">sampleMDB: Pfeiffer3_Aligned.out_sorted_filtered</text>
</g>
<!-- 1&#45;&gt;11 -->
<g id="edge11" class="edge"><title>1&#45;&gt;11</title>
<path fill="none" stroke="grey" stroke-width="2" d="M178.5,-395.686C178.5,-387.798 178.5,-378.684 178.5,-370.103"/>
<polygon fill="grey" stroke="grey" stroke-width="2" points="182,-370.018 178.5,-360.018 175,-370.018 182,-370.018"/>
</g>
<!-- 2 -->
<g id="node3" class="node"><title>2</title>
<path fill="none" stroke="#d8a456" stroke-width="2" d="M477,-672C477,-672 372,-672 372,-672 366,-672 360,-666 360,-660 360,-660 360,-640 360,-640 360,-634 366,-628 372,-628 372,-628 477,-628 477,-628 483,-628 489,-634 489,-640 489,-640 489,-660 489,-660 489,-666 483,-672 477,-672"/>
<text text-anchor="middle" x="424.5" y="-659" font-family="sans" font-size="10.00">fastq2GZ</text>
<text text-anchor="middle" x="424.5" y="-647" font-family="sans" font-size="10.00">pathFGZ: output/fastq</text>
<text text-anchor="middle" x="424.5" y="-635" font-family="sans" font-size="10.00">sampleFGZ: Pfeiffer2.1</text>
</g>
<!-- 5 -->
<g id="node6" class="node"><title>5</title>
<path fill="none" stroke="#c6d856" stroke-width="2" d="M505.5,-592C505.5,-592 409.5,-592 409.5,-592 403.5,-592 397.5,-586 397.5,-580 397.5,-580 397.5,-568 397.5,-568 397.5,-562 403.5,-556 409.5,-556 409.5,-556 505.5,-556 505.5,-556 511.5,-556 517.5,-562 517.5,-568 517.5,-568 517.5,-580 517.5,-580 517.5,-586 511.5,-592 505.5,-592"/>
<text text-anchor="middle" x="457.5" y="-577" font-family="sans" font-size="10.00">bamALIGN_bwa</text>
<text text-anchor="middle" x="457.5" y="-565" font-family="sans" font-size="10.00">sampleBAB: Pfeiffer2</text>
</g>
<!-- 2&#45;&gt;5 -->
<g id="edge6" class="edge"><title>2&#45;&gt;5</title>
<path fill="none" stroke="grey" stroke-width="2" d="M433.868,-627.993C437.523,-619.796 441.756,-610.304 445.622,-601.637"/>
<polygon fill="grey" stroke="grey" stroke-width="2" points="448.902,-602.873 449.779,-592.315 442.509,-600.022 448.902,-602.873"/>
</g>
<!-- 3 -->
<g id="node4" class="node"><title>3</title>
<path fill="none" stroke="#d88556" stroke-width="2" d="M550.5,-440C550.5,-440 364.5,-440 364.5,-440 358.5,-440 352.5,-434 352.5,-428 352.5,-428 352.5,-408 352.5,-408 352.5,-402 358.5,-396 364.5,-396 364.5,-396 550.5,-396 550.5,-396 556.5,-396 562.5,-402 562.5,-408 562.5,-408 562.5,-428 562.5,-428 562.5,-434 556.5,-440 550.5,-440"/>
<text text-anchor="middle" x="457.5" y="-427" font-family="sans" font-size="10.00">filteredBAM</text>
<text text-anchor="middle" x="457.5" y="-415" font-family="sans" font-size="10.00">pathFB: output/bam</text>
<text text-anchor="middle" x="457.5" y="-403" font-family="sans" font-size="10.00">sampleFB: Pfeiffer2_Aligned.out_sorted</text>
</g>
<!-- 17 -->
<g id="node18" class="node"><title>17</title>
<path fill="none" stroke="#56d8a9" stroke-width="2" d="M576,-360C576,-360 339,-360 339,-360 333,-360 327,-354 327,-348 327,-348 327,-328 327,-328 327,-322 333,-316 339,-316 339,-316 576,-316 576,-316 582,-316 588,-322 588,-328 588,-328 588,-348 588,-348 588,-354 582,-360 576,-360"/>
<text text-anchor="middle" x="457.5" y="-347" font-family="sans" font-size="10.00">markdupBAM</text>
<text text-anchor="middle" x="457.5" y="-335" font-family="sans" font-size="10.00">outputDIR: output</text>
<text text-anchor="middle" x="457.5" y="-323" font-family="sans" font-size="10.00">sampleMDB: Pfeiffer2_Aligned.out_sorted_filtered</text>
</g>
<!-- 3&#45;&gt;17 -->
<g id="edge18" class="edge"><title>3&#45;&gt;17</title>
<path fill="none" stroke="grey" stroke-width="2" d="M457.5,-395.686C457.5,-387.798 457.5,-378.684 457.5,-370.103"/>
<polygon fill="grey" stroke="grey" stroke-width="2" points="461,-370.018 457.5,-360.018 454,-370.018 461,-370.018"/>
</g>
<!-- 4 -->
<g id="node5" class="node"><title>4</title>
<path fill="none" stroke="#56b9d8" stroke-width="2" d="M188.5,-744C188.5,-744 88.5,-744 88.5,-744 82.5,-744 76.5,-738 76.5,-732 76.5,-732 76.5,-720 76.5,-720 76.5,-714 82.5,-708 88.5,-708 88.5,-708 188.5,-708 188.5,-708 194.5,-708 200.5,-714 200.5,-720 200.5,-720 200.5,-732 200.5,-732 200.5,-738 194.5,-744 188.5,-744"/>
<text text-anchor="middle" x="138.5" y="-729" font-family="sans" font-size="10.00">bam2fastq_picard</text>
<text text-anchor="middle" x="138.5" y="-717" font-family="sans" font-size="10.00">sampleB2FP: Pfeiffer3</text>
</g>
<!-- 8 -->
<g id="node9" class="node"><title>8</title>
<path fill="none" stroke="#d8a456" stroke-width="2" d="M117,-672C117,-672 12,-672 12,-672 6,-672 0,-666 0,-660 0,-660 0,-640 0,-640 0,-634 6,-628 12,-628 12,-628 117,-628 117,-628 123,-628 129,-634 129,-640 129,-640 129,-660 129,-660 129,-666 123,-672 117,-672"/>
<text text-anchor="middle" x="64.5" y="-659" font-family="sans" font-size="10.00">fastq2GZ</text>
<text text-anchor="middle" x="64.5" y="-647" font-family="sans" font-size="10.00">pathFGZ: output/fastq</text>
<text text-anchor="middle" x="64.5" y="-635" font-family="sans" font-size="10.00">sampleFGZ: Pfeiffer3.2</text>
</g>
<!-- 4&#45;&gt;8 -->
<g id="edge8" class="edge"><title>4&#45;&gt;8</title>
<path fill="none" stroke="grey" stroke-width="2" d="M121.337,-707.837C112.831,-699.331 102.339,-688.839 92.6952,-679.195"/>
<polygon fill="grey" stroke="grey" stroke-width="2" points="95.0782,-676.628 85.5322,-672.032 90.1284,-681.578 95.0782,-676.628"/>
</g>
<!-- 15 -->
<g id="node16" class="node"><title>15</title>
<path fill="none" stroke="#d8a456" stroke-width="2" d="M264,-672C264,-672 159,-672 159,-672 153,-672 147,-666 147,-660 147,-660 147,-640 147,-640 147,-634 153,-628 159,-628 159,-628 264,-628 264,-628 270,-628 276,-634 276,-640 276,-640 276,-660 276,-660 276,-666 270,-672 264,-672"/>
<text text-anchor="middle" x="211.5" y="-659" font-family="sans" font-size="10.00">fastq2GZ</text>
<text text-anchor="middle" x="211.5" y="-647" font-family="sans" font-size="10.00">pathFGZ: output/fastq</text>
<text text-anchor="middle" x="211.5" y="-635" font-family="sans" font-size="10.00">sampleFGZ: Pfeiffer3.1</text>
</g>
<!-- 4&#45;&gt;15 -->
<g id="edge16" class="edge"><title>4&#45;&gt;15</title>
<path fill="none" stroke="grey" stroke-width="2" d="M155.431,-707.837C163.822,-699.331 174.172,-688.839 183.686,-679.195"/>
<polygon fill="grey" stroke="grey" stroke-width="2" points="186.221,-681.609 190.752,-672.032 181.238,-676.693 186.221,-681.609"/>
</g>
<!-- 10 -->
<g id="node11" class="node"><title>10</title>
<path fill="none" stroke="#d85656" stroke-width="2" d="M536,-520C536,-520 379,-520 379,-520 373,-520 367,-514 367,-508 367,-508 367,-488 367,-488 367,-482 373,-476 379,-476 379,-476 536,-476 536,-476 542,-476 548,-482 548,-488 548,-488 548,-508 548,-508 548,-514 542,-520 536,-520"/>
<text text-anchor="middle" x="457.5" y="-507" font-family="sans" font-size="10.00">sortBAM_biobambam</text>
<text text-anchor="middle" x="457.5" y="-495" font-family="sans" font-size="10.00">pathSBB: output/bam</text>
<text text-anchor="middle" x="457.5" y="-483" font-family="sans" font-size="10.00">sampleSBB: Pfeiffer2_Aligned.out</text>
</g>
<!-- 5&#45;&gt;10 -->
<g id="edge10" class="edge"><title>5&#45;&gt;10</title>
<path fill="none" stroke="grey" stroke-width="2" d="M457.5,-555.837C457.5,-548.165 457.5,-538.878 457.5,-530.053"/>
<polygon fill="grey" stroke="grey" stroke-width="2" points="461,-530.032 457.5,-520.032 454,-530.032 461,-530.032"/>
</g>
<!-- 6 -->
<g id="node7" class="node"><title>6</title>
<path fill="none" stroke="#afd856" stroke-width="2" d="M290.5,-280C290.5,-280 204.5,-280 204.5,-280 198.5,-280 192.5,-274 192.5,-268 192.5,-268 192.5,-256 192.5,-256 192.5,-250 198.5,-244 204.5,-244 204.5,-244 290.5,-244 290.5,-244 296.5,-244 302.5,-250 302.5,-256 302.5,-256 302.5,-268 302.5,-268 302.5,-274 296.5,-280 290.5,-280"/>
<text text-anchor="middle" x="247.5" y="-265" font-family="sans" font-size="10.00">indexBAM</text>
<text text-anchor="middle" x="247.5" y="-253" font-family="sans" font-size="10.00">sampleIB: Pfeiffer3</text>
</g>
<!-- 14 -->
<g id="node15" class="node"><title>14</title>
<path fill="none" stroke="#56d892" stroke-width="2" d="M313.5,-208C313.5,-208 215.5,-208 215.5,-208 209.5,-208 203.5,-202 203.5,-196 203.5,-196 203.5,-176 203.5,-176 203.5,-170 209.5,-164 215.5,-164 215.5,-164 313.5,-164 313.5,-164 319.5,-164 325.5,-170 325.5,-176 325.5,-176 325.5,-196 325.5,-196 325.5,-202 319.5,-208 313.5,-208"/>
<text text-anchor="middle" x="264.5" y="-195" font-family="sans" font-size="10.00">bam2mpileup</text>
<text text-anchor="middle" x="264.5" y="-183" font-family="sans" font-size="10.00">chrB2M: </text>
<text text-anchor="middle" x="264.5" y="-171" font-family="sans" font-size="10.00">sampleB2M: Pfeiffer3</text>
</g>
<!-- 6&#45;&gt;14 -->
<g id="edge15" class="edge"><title>6&#45;&gt;14</title>
<path fill="none" stroke="grey" stroke-width="2" d="M251.443,-243.837C253.205,-236.165 255.339,-226.878 257.366,-218.053"/>
<polygon fill="grey" stroke="grey" stroke-width="2" points="260.84,-218.562 259.668,-208.032 254.018,-216.995 260.84,-218.562"/>
</g>
<!-- 7 -->
<g id="node8" class="node"><title>7</title>
<path fill="none" stroke="#56b9d8" stroke-width="2" d="M547.5,-744C547.5,-744 447.5,-744 447.5,-744 441.5,-744 435.5,-738 435.5,-732 435.5,-732 435.5,-720 435.5,-720 435.5,-714 441.5,-708 447.5,-708 447.5,-708 547.5,-708 547.5,-708 553.5,-708 559.5,-714 559.5,-720 559.5,-720 559.5,-732 559.5,-732 559.5,-738 553.5,-744 547.5,-744"/>
<text text-anchor="middle" x="497.5" y="-729" font-family="sans" font-size="10.00">bam2fastq_picard</text>
<text text-anchor="middle" x="497.5" y="-717" font-family="sans" font-size="10.00">sampleB2FP: Pfeiffer2</text>
</g>
<!-- 7&#45;&gt;2 -->
<g id="edge3" class="edge"><title>7&#45;&gt;2</title>
<path fill="none" stroke="grey" stroke-width="2" d="M480.569,-707.837C472.178,-699.331 461.828,-688.839 452.314,-679.195"/>
<polygon fill="grey" stroke="grey" stroke-width="2" points="454.762,-676.693 445.248,-672.032 449.779,-681.609 454.762,-676.693"/>
</g>
<!-- 12 -->
<g id="node13" class="node"><title>12</title>
<path fill="none" stroke="#d8a456" stroke-width="2" d="M624,-672C624,-672 519,-672 519,-672 513,-672 507,-666 507,-660 507,-660 507,-640 507,-640 507,-634 513,-628 519,-628 519,-628 624,-628 624,-628 630,-628 636,-634 636,-640 636,-640 636,-660 636,-660 636,-666 630,-672 624,-672"/>
<text text-anchor="middle" x="571.5" y="-659" font-family="sans" font-size="10.00">fastq2GZ</text>
<text text-anchor="middle" x="571.5" y="-647" font-family="sans" font-size="10.00">pathFGZ: output/fastq</text>
<text text-anchor="middle" x="571.5" y="-635" font-family="sans" font-size="10.00">sampleFGZ: Pfeiffer2.2</text>
</g>
<!-- 7&#45;&gt;12 -->
<g id="edge12" class="edge"><title>7&#45;&gt;12</title>
<path fill="none" stroke="grey" stroke-width="2" d="M514.663,-707.837C523.169,-699.331 533.661,-688.839 543.305,-679.195"/>
<polygon fill="grey" stroke="grey" stroke-width="2" points="545.872,-681.578 550.468,-672.032 540.922,-676.628 545.872,-681.578"/>
</g>
<!-- 19 -->
<g id="node20" class="node"><title>19</title>
<path fill="none" stroke="#c6d856" stroke-width="2" d="M226.5,-592C226.5,-592 130.5,-592 130.5,-592 124.5,-592 118.5,-586 118.5,-580 118.5,-580 118.5,-568 118.5,-568 118.5,-562 124.5,-556 130.5,-556 130.5,-556 226.5,-556 226.5,-556 232.5,-556 238.5,-562 238.5,-568 238.5,-568 238.5,-580 238.5,-580 238.5,-586 232.5,-592 226.5,-592"/>
<text text-anchor="middle" x="178.5" y="-577" font-family="sans" font-size="10.00">bamALIGN_bwa</text>
<text text-anchor="middle" x="178.5" y="-565" font-family="sans" font-size="10.00">sampleBAB: Pfeiffer3</text>
</g>
<!-- 8&#45;&gt;19 -->
<g id="edge21" class="edge"><title>8&#45;&gt;19</title>
<path fill="none" stroke="grey" stroke-width="2" d="M96.8629,-627.993C111.5,-618.491 128.821,-607.248 143.735,-597.567"/>
<polygon fill="grey" stroke="grey" stroke-width="2" points="145.716,-600.453 152.198,-592.073 141.905,-594.582 145.716,-600.453"/>
</g>
<!-- 9 -->
<g id="node10" class="node"><title>9</title>
<path fill="none" stroke="#d85656" stroke-width="2" d="M257,-520C257,-520 100,-520 100,-520 94,-520 88,-514 88,-508 88,-508 88,-488 88,-488 88,-482 94,-476 100,-476 100,-476 257,-476 257,-476 263,-476 269,-482 269,-488 269,-488 269,-508 269,-508 269,-514 263,-520 257,-520"/>
<text text-anchor="middle" x="178.5" y="-507" font-family="sans" font-size="10.00">sortBAM_biobambam</text>
<text text-anchor="middle" x="178.5" y="-495" font-family="sans" font-size="10.00">pathSBB: output/bam</text>
<text text-anchor="middle" x="178.5" y="-483" font-family="sans" font-size="10.00">sampleSBB: Pfeiffer3_Aligned.out</text>
</g>
<!-- 9&#45;&gt;1 -->
<g id="edge2" class="edge"><title>9&#45;&gt;1</title>
<path fill="none" stroke="grey" stroke-width="2" d="M178.5,-475.686C178.5,-467.798 178.5,-458.684 178.5,-450.103"/>
<polygon fill="grey" stroke="grey" stroke-width="2" points="182,-450.018 178.5,-440.018 175,-450.018 182,-450.018"/>
</g>
<!-- 10&#45;&gt;3 -->
<g id="edge4" class="edge"><title>10&#45;&gt;3</title>
<path fill="none" stroke="grey" stroke-width="2" d="M457.5,-475.686C457.5,-467.798 457.5,-458.684 457.5,-450.103"/>
<polygon fill="grey" stroke="grey" stroke-width="2" points="461,-450.018 457.5,-440.018 454,-450.018 461,-450.018"/>
</g>
<!-- 11&#45;&gt;6 -->
<g id="edge7" class="edge"><title>11&#45;&gt;6</title>
<path fill="none" stroke="grey" stroke-width="2" d="M198.088,-315.993C206.306,-307.179 215.921,-296.868 224.474,-287.694"/>
<polygon fill="grey" stroke="grey" stroke-width="2" points="227.095,-290.015 231.355,-280.315 221.976,-285.242 227.095,-290.015"/>
</g>
<!-- 12&#45;&gt;5 -->
<g id="edge5" class="edge"><title>12&#45;&gt;5</title>
<path fill="none" stroke="grey" stroke-width="2" d="M539.137,-627.993C524.5,-618.491 507.179,-607.248 492.265,-597.567"/>
<polygon fill="grey" stroke="grey" stroke-width="2" points="494.095,-594.582 483.802,-592.073 490.284,-600.453 494.095,-594.582"/>
</g>
<!-- 13 -->
<g id="node14" class="node"><title>13</title>
<path fill="none" stroke="#568ad8" stroke-width="2" d="M406,-128C406,-128 271,-128 271,-128 265,-128 259,-122 259,-116 259,-116 259,-84 259,-84 259,-78 265,-72 271,-72 271,-72 406,-72 406,-72 412,-72 418,-78 418,-84 418,-84 418,-116 418,-116 418,-122 412,-128 406,-128"/>
<text text-anchor="middle" x="338.5" y="-115" font-family="sans" font-size="10.00">mpileup2vcf_pair</text>
<text text-anchor="middle" x="338.5" y="-103" font-family="sans" font-size="10.00">chrMPU2VCFP: </text>
<text text-anchor="middle" x="338.5" y="-91" font-family="sans" font-size="10.00">samplenMPU2VCFP: Pfeiffer2</text>
<text text-anchor="middle" x="338.5" y="-79" font-family="sans" font-size="10.00">sampletMPU2VCFP: Pfeiffer3</text>
</g>
<!-- 16 -->
<g id="node17" class="node"><title>16</title>
<path fill="none" stroke="#56d0d8" stroke-width="2" d="M353.5,-36C353.5,-36 323.5,-36 323.5,-36 317.5,-36 311.5,-30 311.5,-24 311.5,-24 311.5,-12 311.5,-12 311.5,-6 317.5,-0 323.5,-0 323.5,-0 353.5,-0 353.5,-0 359.5,-0 365.5,-6 365.5,-12 365.5,-12 365.5,-24 365.5,-24 365.5,-30 359.5,-36 353.5,-36"/>
<text text-anchor="middle" x="338.5" y="-15" font-family="sans" font-size="10.00">all</text>
</g>
<!-- 13&#45;&gt;16 -->
<g id="edge17" class="edge"><title>13&#45;&gt;16</title>
<path fill="none" stroke="grey" stroke-width="2" d="M338.5,-71.9156C338.5,-63.721 338.5,-54.7161 338.5,-46.4948"/>
<polygon fill="grey" stroke="grey" stroke-width="2" points="342,-46.2726 338.5,-36.2726 335,-46.2727 342,-46.2726"/>
</g>
<!-- 14&#45;&gt;13 -->
<g id="edge13" class="edge"><title>14&#45;&gt;13</title>
<path fill="none" stroke="grey" stroke-width="2" d="M283.173,-163.803C290.599,-155.374 299.343,-145.449 307.659,-136.008"/>
<polygon fill="grey" stroke="grey" stroke-width="2" points="310.522,-138.053 314.506,-128.236 305.27,-133.426 310.522,-138.053"/>
</g>
<!-- 15&#45;&gt;19 -->
<g id="edge20" class="edge"><title>15&#45;&gt;19</title>
<path fill="none" stroke="grey" stroke-width="2" d="M202.132,-627.993C198.477,-619.796 194.244,-610.304 190.378,-601.637"/>
<polygon fill="grey" stroke="grey" stroke-width="2" points="193.491,-600.022 186.221,-592.315 187.098,-602.873 193.491,-600.022"/>
</g>
<!-- 17&#45;&gt;0 -->
<g id="edge1" class="edge"><title>17&#45;&gt;0</title>
<path fill="none" stroke="grey" stroke-width="2" d="M454.945,-315.993C453.98,-308.061 452.868,-298.915 451.842,-290.478"/>
<polygon fill="grey" stroke="grey" stroke-width="2" points="455.288,-289.819 450.606,-280.315 448.339,-290.664 455.288,-289.819"/>
</g>
<!-- 18&#45;&gt;13 -->
<g id="edge14" class="edge"><title>18&#45;&gt;13</title>
<path fill="none" stroke="grey" stroke-width="2" d="M394.574,-163.803C386.973,-155.29 378.009,-145.25 369.505,-135.725"/>
<polygon fill="grey" stroke="grey" stroke-width="2" points="372.089,-133.364 362.818,-128.236 366.867,-138.027 372.089,-133.364"/>
</g>
<!-- 19&#45;&gt;9 -->
<g id="edge9" class="edge"><title>19&#45;&gt;9</title>
<path fill="none" stroke="grey" stroke-width="2" d="M178.5,-555.837C178.5,-548.165 178.5,-538.878 178.5,-530.053"/>
<polygon fill="grey" stroke="grey" stroke-width="2" points="182,-530.032 178.5,-520.032 175,-530.032 182,-530.032"/>
</g>
</g>
</svg>
