<?xml version="1.0" encoding="UTF-8" standalone="no"?>
<!DOCTYPE svg PUBLIC "-//W3C//DTD SVG 1.1//EN"
 "http://www.w3.org/Graphics/SVG/1.1/DTD/svg11.dtd">
<!-- Generated by graphviz version 2.38.0 (20140413.2041)
 -->
<!-- Title: snakemake_dag Pages: 1 -->
<svg width="699pt" height="752pt"
 viewBox="0.00 0.00 699.00 752.00" xmlns="http://www.w3.org/2000/svg" xmlns:xlink="http://www.w3.org/1999/xlink">
<g id="graph0" class="graph" transform="scale(1 1) rotate(0) translate(4 748)">
<title>snakemake_dag</title>
<polygon fill="white" stroke="none" points="-4,4 -4,-748 695,-748 695,4 -4,4"/>
<!-- 0 -->
<g id="node1" class="node"><title>0</title>
<path fill="none" stroke="#d85656" stroke-width="2" d="M623,-360C623,-360 386,-360 386,-360 380,-360 374,-354 374,-348 374,-348 374,-328 374,-328 374,-322 380,-316 386,-316 386,-316 623,-316 623,-316 629,-316 635,-322 635,-328 635,-328 635,-348 635,-348 635,-354 629,-360 623,-360"/>
<text text-anchor="middle" x="504.5" y="-347" font-family="sans" font-size="10.00">markdupBAM</text>
<text text-anchor="middle" x="504.5" y="-335" font-family="sans" font-size="10.00">outputDIR: output</text>
<text text-anchor="middle" x="504.5" y="-323" font-family="sans" font-size="10.00">sampleMDB: Pfeiffer2_Aligned.out_sorted_filtered</text>
</g>
<!-- 3 -->
<g id="node4" class="node"><title>3</title>
<path fill="none" stroke="#d86e56" stroke-width="2" d="M547.5,-280C547.5,-280 461.5,-280 461.5,-280 455.5,-280 449.5,-274 449.5,-268 449.5,-268 449.5,-256 449.5,-256 449.5,-250 455.5,-244 461.5,-244 461.5,-244 547.5,-244 547.5,-244 553.5,-244 559.5,-250 559.5,-256 559.5,-256 559.5,-268 559.5,-268 559.5,-274 553.5,-280 547.5,-280"/>
<text text-anchor="middle" x="504.5" y="-265" font-family="sans" font-size="10.00">indexBAM</text>
<text text-anchor="middle" x="504.5" y="-253" font-family="sans" font-size="10.00">sampleIB: Pfeiffer2</text>
</g>
<!-- 0&#45;&gt;3 -->
<g id="edge4" class="edge"><title>0&#45;&gt;3</title>
<path fill="none" stroke="grey" stroke-width="2" d="M504.5,-315.993C504.5,-308.061 504.5,-298.915 504.5,-290.478"/>
<polygon fill="grey" stroke="grey" stroke-width="2" points="508,-290.315 504.5,-280.315 501,-290.315 508,-290.315"/>
</g>
<!-- 1 -->
<g id="node2" class="node"><title>1</title>
<path fill="none" stroke="#d85656" stroke-width="2" d="M249,-360C249,-360 12,-360 12,-360 6,-360 0,-354 0,-348 0,-348 0,-328 0,-328 0,-322 6,-316 12,-316 12,-316 249,-316 249,-316 255,-316 261,-322 261,-328 261,-328 261,-348 261,-348 261,-354 255,-360 249,-360"/>
<text text-anchor="middle" x="130.5" y="-347" font-family="sans" font-size="10.00">markdupBAM</text>
<text text-anchor="middle" x="130.5" y="-335" font-family="sans" font-size="10.00">outputDIR: output</text>
<text text-anchor="middle" x="130.5" y="-323" font-family="sans" font-size="10.00">sampleMDB: Pfeiffer3_Aligned.out_sorted_filtered</text>
</g>
<!-- 11 -->
<g id="node12" class="node"><title>11</title>
<path fill="none" stroke="#d86e56" stroke-width="2" d="M173.5,-280C173.5,-280 87.5,-280 87.5,-280 81.5,-280 75.5,-274 75.5,-268 75.5,-268 75.5,-256 75.5,-256 75.5,-250 81.5,-244 87.5,-244 87.5,-244 173.5,-244 173.5,-244 179.5,-244 185.5,-250 185.5,-256 185.5,-256 185.5,-268 185.5,-268 185.5,-274 179.5,-280 173.5,-280"/>
<text text-anchor="middle" x="130.5" y="-265" font-family="sans" font-size="10.00">indexBAM</text>
<text text-anchor="middle" x="130.5" y="-253" font-family="sans" font-size="10.00">sampleIB: Pfeiffer3</text>
</g>
<!-- 1&#45;&gt;11 -->
<g id="edge12" class="edge"><title>1&#45;&gt;11</title>
<path fill="none" stroke="grey" stroke-width="2" d="M130.5,-315.993C130.5,-308.061 130.5,-298.915 130.5,-290.478"/>
<polygon fill="grey" stroke="grey" stroke-width="2" points="134,-290.315 130.5,-280.315 127,-290.315 134,-290.315"/>
</g>
<!-- 2 -->
<g id="node3" class="node"><title>2</title>
<path fill="none" stroke="#c6d856" stroke-width="2" d="M583,-520C583,-520 426,-520 426,-520 420,-520 414,-514 414,-508 414,-508 414,-488 414,-488 414,-482 420,-476 426,-476 426,-476 583,-476 583,-476 589,-476 595,-482 595,-488 595,-488 595,-508 595,-508 595,-514 589,-520 583,-520"/>
<text text-anchor="middle" x="504.5" y="-507" font-family="sans" font-size="10.00">sortBAM_biobambam</text>
<text text-anchor="middle" x="504.5" y="-495" font-family="sans" font-size="10.00">pathSBB: output/bam</text>
<text text-anchor="middle" x="504.5" y="-483" font-family="sans" font-size="10.00">sampleSBB: Pfeiffer2_Aligned.out</text>
</g>
<!-- 14 -->
<g id="node15" class="node"><title>14</title>
<path fill="none" stroke="#56d8a9" stroke-width="2" d="M597.5,-440C597.5,-440 411.5,-440 411.5,-440 405.5,-440 399.5,-434 399.5,-428 399.5,-428 399.5,-408 399.5,-408 399.5,-402 405.5,-396 411.5,-396 411.5,-396 597.5,-396 597.5,-396 603.5,-396 609.5,-402 609.5,-408 609.5,-408 609.5,-428 609.5,-428 609.5,-434 603.5,-440 597.5,-440"/>
<text text-anchor="middle" x="504.5" y="-427" font-family="sans" font-size="10.00">filteredBAM</text>
<text text-anchor="middle" x="504.5" y="-415" font-family="sans" font-size="10.00">pathFB: output/bam</text>
<text text-anchor="middle" x="504.5" y="-403" font-family="sans" font-size="10.00">sampleFB: Pfeiffer2_Aligned.out_sorted</text>
</g>
<!-- 2&#45;&gt;14 -->
<g id="edge16" class="edge"><title>2&#45;&gt;14</title>
<path fill="none" stroke="grey" stroke-width="2" d="M504.5,-475.686C504.5,-467.798 504.5,-458.684 504.5,-450.103"/>
<polygon fill="grey" stroke="grey" stroke-width="2" points="508,-450.018 504.5,-440.018 501,-450.018 508,-450.018"/>
</g>
<!-- 20 -->
<g id="node21" class="node"><title>20</title>
<path fill="none" stroke="#56d87b" stroke-width="2" d="M553.5,-208C553.5,-208 455.5,-208 455.5,-208 449.5,-208 443.5,-202 443.5,-196 443.5,-196 443.5,-176 443.5,-176 443.5,-170 449.5,-164 455.5,-164 455.5,-164 553.5,-164 553.5,-164 559.5,-164 565.5,-170 565.5,-176 565.5,-176 565.5,-196 565.5,-196 565.5,-202 559.5,-208 553.5,-208"/>
<text text-anchor="middle" x="504.5" y="-195" font-family="sans" font-size="10.00">bam2mpileup</text>
<text text-anchor="middle" x="504.5" y="-183" font-family="sans" font-size="10.00">chrB2M: </text>
<text text-anchor="middle" x="504.5" y="-171" font-family="sans" font-size="10.00">sampleB2M: Pfeiffer2</text>
</g>
<!-- 3&#45;&gt;20 -->
<g id="edge21" class="edge"><title>3&#45;&gt;20</title>
<path fill="none" stroke="grey" stroke-width="2" d="M504.5,-243.837C504.5,-236.165 504.5,-226.878 504.5,-218.053"/>
<polygon fill="grey" stroke="grey" stroke-width="2" points="508,-218.032 504.5,-208.032 501,-218.032 508,-218.032"/>
</g>
<!-- 4 -->
<g id="node5" class="node"><title>4</title>
<path fill="none" stroke="#5673d8" stroke-width="2" d="M247.5,-744C247.5,-744 147.5,-744 147.5,-744 141.5,-744 135.5,-738 135.5,-732 135.5,-732 135.5,-720 135.5,-720 135.5,-714 141.5,-708 147.5,-708 147.5,-708 247.5,-708 247.5,-708 253.5,-708 259.5,-714 259.5,-720 259.5,-720 259.5,-732 259.5,-732 259.5,-738 253.5,-744 247.5,-744"/>
<text text-anchor="middle" x="197.5" y="-729" font-family="sans" font-size="10.00">bam2fastq_picard</text>
<text text-anchor="middle" x="197.5" y="-717" font-family="sans" font-size="10.00">sampleB2FP: Pfeiffer3</text>
</g>
<!-- 9 -->
<g id="node10" class="node"><title>9</title>
<path fill="none" stroke="#56d8c9" stroke-width="2" d="M176,-672C176,-672 71,-672 71,-672 65,-672 59,-666 59,-660 59,-660 59,-640 59,-640 59,-634 65,-628 71,-628 71,-628 176,-628 176,-628 182,-628 188,-634 188,-640 188,-640 188,-660 188,-660 188,-666 182,-672 176,-672"/>
<text text-anchor="middle" x="123.5" y="-659" font-family="sans" font-size="10.00">fastq2GZ</text>
<text text-anchor="middle" x="123.5" y="-647" font-family="sans" font-size="10.00">pathFGZ: output/fastq</text>
<text text-anchor="middle" x="123.5" y="-635" font-family="sans" font-size="10.00">sampleFGZ: Pfeiffer3.2</text>
</g>
<!-- 4&#45;&gt;9 -->
<g id="edge10" class="edge"><title>4&#45;&gt;9</title>
<path fill="none" stroke="grey" stroke-width="2" d="M180.337,-707.837C171.831,-699.331 161.339,-688.839 151.695,-679.195"/>
<polygon fill="grey" stroke="grey" stroke-width="2" points="154.078,-676.628 144.532,-672.032 149.128,-681.578 154.078,-676.628"/>
</g>
<!-- 15 -->
<g id="node16" class="node"><title>15</title>
<path fill="none" stroke="#56d8c9" stroke-width="2" d="M323,-672C323,-672 218,-672 218,-672 212,-672 206,-666 206,-660 206,-660 206,-640 206,-640 206,-634 212,-628 218,-628 218,-628 323,-628 323,-628 329,-628 335,-634 335,-640 335,-640 335,-660 335,-660 335,-666 329,-672 323,-672"/>
<text text-anchor="middle" x="270.5" y="-659" font-family="sans" font-size="10.00">fastq2GZ</text>
<text text-anchor="middle" x="270.5" y="-647" font-family="sans" font-size="10.00">pathFGZ: output/fastq</text>
<text text-anchor="middle" x="270.5" y="-635" font-family="sans" font-size="10.00">sampleFGZ: Pfeiffer3.1</text>
</g>
<!-- 4&#45;&gt;15 -->
<g id="edge17" class="edge"><title>4&#45;&gt;15</title>
<path fill="none" stroke="grey" stroke-width="2" d="M214.431,-707.837C222.822,-699.331 233.172,-688.839 242.686,-679.195"/>
<polygon fill="grey" stroke="grey" stroke-width="2" points="245.221,-681.609 249.752,-672.032 240.238,-676.693 245.221,-681.609"/>
</g>
<!-- 5 -->
<g id="node6" class="node"><title>5</title>
<path fill="none" stroke="#56d8a9" stroke-width="2" d="M223.5,-440C223.5,-440 37.5,-440 37.5,-440 31.5,-440 25.5,-434 25.5,-428 25.5,-428 25.5,-408 25.5,-408 25.5,-402 31.5,-396 37.5,-396 37.5,-396 223.5,-396 223.5,-396 229.5,-396 235.5,-402 235.5,-408 235.5,-408 235.5,-428 235.5,-428 235.5,-434 229.5,-440 223.5,-440"/>
<text text-anchor="middle" x="130.5" y="-427" font-family="sans" font-size="10.00">filteredBAM</text>
<text text-anchor="middle" x="130.5" y="-415" font-family="sans" font-size="10.00">pathFB: output/bam</text>
<text text-anchor="middle" x="130.5" y="-403" font-family="sans" font-size="10.00">sampleFB: Pfeiffer3_Aligned.out_sorted</text>
</g>
<!-- 5&#45;&gt;1 -->
<g id="edge2" class="edge"><title>5&#45;&gt;1</title>
<path fill="none" stroke="grey" stroke-width="2" d="M130.5,-395.686C130.5,-387.798 130.5,-378.684 130.5,-370.103"/>
<polygon fill="grey" stroke="grey" stroke-width="2" points="134,-370.018 130.5,-360.018 127,-370.018 134,-370.018"/>
</g>
<!-- 6 -->
<g id="node7" class="node"><title>6</title>
<path fill="none" stroke="#56d8c9" stroke-width="2" d="M528,-672C528,-672 423,-672 423,-672 417,-672 411,-666 411,-660 411,-660 411,-640 411,-640 411,-634 417,-628 423,-628 423,-628 528,-628 528,-628 534,-628 540,-634 540,-640 540,-640 540,-660 540,-660 540,-666 534,-672 528,-672"/>
<text text-anchor="middle" x="475.5" y="-659" font-family="sans" font-size="10.00">fastq2GZ</text>
<text text-anchor="middle" x="475.5" y="-647" font-family="sans" font-size="10.00">pathFGZ: output/fastq</text>
<text text-anchor="middle" x="475.5" y="-635" font-family="sans" font-size="10.00">sampleFGZ: Pfeiffer2.2</text>
</g>
<!-- 12 -->
<g id="node13" class="node"><title>12</title>
<path fill="none" stroke="#afd856" stroke-width="2" d="M552.5,-592C552.5,-592 456.5,-592 456.5,-592 450.5,-592 444.5,-586 444.5,-580 444.5,-580 444.5,-568 444.5,-568 444.5,-562 450.5,-556 456.5,-556 456.5,-556 552.5,-556 552.5,-556 558.5,-556 564.5,-562 564.5,-568 564.5,-568 564.5,-580 564.5,-580 564.5,-586 558.5,-592 552.5,-592"/>
<text text-anchor="middle" x="504.5" y="-577" font-family="sans" font-size="10.00">bamALIGN_bwa</text>
<text text-anchor="middle" x="504.5" y="-565" font-family="sans" font-size="10.00">sampleBAB: Pfeiffer2</text>
</g>
<!-- 6&#45;&gt;12 -->
<g id="edge13" class="edge"><title>6&#45;&gt;12</title>
<path fill="none" stroke="grey" stroke-width="2" d="M483.733,-627.993C486.945,-619.796 490.665,-610.304 494.061,-601.637"/>
<polygon fill="grey" stroke="grey" stroke-width="2" points="497.324,-602.902 497.715,-592.315 490.807,-600.348 497.324,-602.902"/>
</g>
<!-- 7 -->
<g id="node8" class="node"><title>7</title>
<path fill="none" stroke="#56d8c9" stroke-width="2" d="M675,-672C675,-672 570,-672 570,-672 564,-672 558,-666 558,-660 558,-660 558,-640 558,-640 558,-634 564,-628 570,-628 570,-628 675,-628 675,-628 681,-628 687,-634 687,-640 687,-640 687,-660 687,-660 687,-666 681,-672 675,-672"/>
<text text-anchor="middle" x="622.5" y="-659" font-family="sans" font-size="10.00">fastq2GZ</text>
<text text-anchor="middle" x="622.5" y="-647" font-family="sans" font-size="10.00">pathFGZ: output/fastq</text>
<text text-anchor="middle" x="622.5" y="-635" font-family="sans" font-size="10.00">sampleFGZ: Pfeiffer2.1</text>
</g>
<!-- 7&#45;&gt;12 -->
<g id="edge14" class="edge"><title>7&#45;&gt;12</title>
<path fill="none" stroke="grey" stroke-width="2" d="M589.002,-627.993C573.851,-618.491 555.922,-607.248 540.485,-597.567"/>
<polygon fill="grey" stroke="grey" stroke-width="2" points="542.056,-594.421 531.724,-592.073 538.337,-600.351 542.056,-594.421"/>
</g>
<!-- 8 -->
<g id="node9" class="node"><title>8</title>
<path fill="none" stroke="#afd856" stroke-width="2" d="M178.5,-592C178.5,-592 82.5,-592 82.5,-592 76.5,-592 70.5,-586 70.5,-580 70.5,-580 70.5,-568 70.5,-568 70.5,-562 76.5,-556 82.5,-556 82.5,-556 178.5,-556 178.5,-556 184.5,-556 190.5,-562 190.5,-568 190.5,-568 190.5,-580 190.5,-580 190.5,-586 184.5,-592 178.5,-592"/>
<text text-anchor="middle" x="130.5" y="-577" font-family="sans" font-size="10.00">bamALIGN_bwa</text>
<text text-anchor="middle" x="130.5" y="-565" font-family="sans" font-size="10.00">sampleBAB: Pfeiffer3</text>
</g>
<!-- 18 -->
<g id="node19" class="node"><title>18</title>
<path fill="none" stroke="#c6d856" stroke-width="2" d="M209,-520C209,-520 52,-520 52,-520 46,-520 40,-514 40,-508 40,-508 40,-488 40,-488 40,-482 46,-476 52,-476 52,-476 209,-476 209,-476 215,-476 221,-482 221,-488 221,-488 221,-508 221,-508 221,-514 215,-520 209,-520"/>
<text text-anchor="middle" x="130.5" y="-507" font-family="sans" font-size="10.00">sortBAM_biobambam</text>
<text text-anchor="middle" x="130.5" y="-495" font-family="sans" font-size="10.00">pathSBB: output/bam</text>
<text text-anchor="middle" x="130.5" y="-483" font-family="sans" font-size="10.00">sampleSBB: Pfeiffer3_Aligned.out</text>
</g>
<!-- 8&#45;&gt;18 -->
<g id="edge19" class="edge"><title>8&#45;&gt;18</title>
<path fill="none" stroke="grey" stroke-width="2" d="M130.5,-555.837C130.5,-548.165 130.5,-538.878 130.5,-530.053"/>
<polygon fill="grey" stroke="grey" stroke-width="2" points="134,-530.032 130.5,-520.032 127,-530.032 134,-530.032"/>
</g>
<!-- 9&#45;&gt;8 -->
<g id="edge9" class="edge"><title>9&#45;&gt;8</title>
<path fill="none" stroke="grey" stroke-width="2" d="M125.487,-627.993C126.237,-620.061 127.103,-610.915 127.901,-602.478"/>
<polygon fill="grey" stroke="grey" stroke-width="2" points="131.405,-602.6 128.862,-592.315 124.436,-601.941 131.405,-602.6"/>
</g>
<!-- 10 -->
<g id="node11" class="node"><title>10</title>
<path fill="none" stroke="#61d856" stroke-width="2" d="M166,-128C166,-128 37,-128 37,-128 31,-128 25,-122 25,-116 25,-116 25,-84 25,-84 25,-78 31,-72 37,-72 37,-72 166,-72 166,-72 172,-72 178,-78 178,-84 178,-84 178,-116 178,-116 178,-122 172,-128 166,-128"/>
<text text-anchor="middle" x="101.5" y="-115" font-family="sans" font-size="10.00">mpileup2vcf_single</text>
<text text-anchor="middle" x="101.5" y="-103" font-family="sans" font-size="10.00">chrMPU2VCFS: </text>
<text text-anchor="middle" x="101.5" y="-91" font-family="sans" font-size="10.00">sampleMPU2VCFS: Pfeiffer3</text>
<text text-anchor="middle" x="101.5" y="-79" font-family="sans" font-size="10.00">varTypeMPU2VCFS: indel</text>
</g>
<!-- 21 -->
<g id="node22" class="node"><title>21</title>
<path fill="none" stroke="#568ad8" stroke-width="2" d="M372.5,-36C372.5,-36 342.5,-36 342.5,-36 336.5,-36 330.5,-30 330.5,-24 330.5,-24 330.5,-12 330.5,-12 330.5,-6 336.5,-0 342.5,-0 342.5,-0 372.5,-0 372.5,-0 378.5,-0 384.5,-6 384.5,-12 384.5,-12 384.5,-24 384.5,-24 384.5,-30 378.5,-36 372.5,-36"/>
<text text-anchor="middle" x="357.5" y="-15" font-family="sans" font-size="10.00">all</text>
</g>
<!-- 10&#45;&gt;21 -->
<g id="edge22" class="edge"><title>10&#45;&gt;21</title>
<path fill="none" stroke="grey" stroke-width="2" d="M178.403,-74.5453C181.135,-73.685 183.841,-72.8344 186.5,-72 232.654,-57.5173 285.892,-41.0549 320.542,-30.373"/>
<polygon fill="grey" stroke="grey" stroke-width="2" points="321.709,-33.6758 330.235,-27.3861 319.648,-26.9862 321.709,-33.6758"/>
</g>
<!-- 16 -->
<g id="node17" class="node"><title>16</title>
<path fill="none" stroke="#56d87b" stroke-width="2" d="M179.5,-208C179.5,-208 81.5,-208 81.5,-208 75.5,-208 69.5,-202 69.5,-196 69.5,-196 69.5,-176 69.5,-176 69.5,-170 75.5,-164 81.5,-164 81.5,-164 179.5,-164 179.5,-164 185.5,-164 191.5,-170 191.5,-176 191.5,-176 191.5,-196 191.5,-196 191.5,-202 185.5,-208 179.5,-208"/>
<text text-anchor="middle" x="130.5" y="-195" font-family="sans" font-size="10.00">bam2mpileup</text>
<text text-anchor="middle" x="130.5" y="-183" font-family="sans" font-size="10.00">chrB2M: </text>
<text text-anchor="middle" x="130.5" y="-171" font-family="sans" font-size="10.00">sampleB2M: Pfeiffer3</text>
</g>
<!-- 11&#45;&gt;16 -->
<g id="edge18" class="edge"><title>11&#45;&gt;16</title>
<path fill="none" stroke="grey" stroke-width="2" d="M130.5,-243.837C130.5,-236.165 130.5,-226.878 130.5,-218.053"/>
<polygon fill="grey" stroke="grey" stroke-width="2" points="134,-218.032 130.5,-208.032 127,-218.032 134,-218.032"/>
</g>
<!-- 12&#45;&gt;2 -->
<g id="edge3" class="edge"><title>12&#45;&gt;2</title>
<path fill="none" stroke="grey" stroke-width="2" d="M504.5,-555.837C504.5,-548.165 504.5,-538.878 504.5,-530.053"/>
<polygon fill="grey" stroke="grey" stroke-width="2" points="508,-530.032 504.5,-520.032 501,-530.032 508,-530.032"/>
</g>
<!-- 13 -->
<g id="node14" class="node"><title>13</title>
<path fill="none" stroke="#61d856" stroke-width="2" d="M508,-128C508,-128 379,-128 379,-128 373,-128 367,-122 367,-116 367,-116 367,-84 367,-84 367,-78 373,-72 379,-72 379,-72 508,-72 508,-72 514,-72 520,-78 520,-84 520,-84 520,-116 520,-116 520,-122 514,-128 508,-128"/>
<text text-anchor="middle" x="443.5" y="-115" font-family="sans" font-size="10.00">mpileup2vcf_single</text>
<text text-anchor="middle" x="443.5" y="-103" font-family="sans" font-size="10.00">chrMPU2VCFS: </text>
<text text-anchor="middle" x="443.5" y="-91" font-family="sans" font-size="10.00">sampleMPU2VCFS: Pfeiffer2</text>
<text text-anchor="middle" x="443.5" y="-79" font-family="sans" font-size="10.00">varTypeMPU2VCFS: snp</text>
</g>
<!-- 13&#45;&gt;21 -->
<g id="edge23" class="edge"><title>13&#45;&gt;21</title>
<path fill="none" stroke="grey" stroke-width="2" d="M414.384,-71.9156C404.31,-62.5445 393.097,-52.1139 383.308,-43.0072"/>
<polygon fill="grey" stroke="grey" stroke-width="2" points="385.517,-40.2817 375.811,-36.0333 380.749,-45.407 385.517,-40.2817"/>
</g>
<!-- 14&#45;&gt;0 -->
<g id="edge1" class="edge"><title>14&#45;&gt;0</title>
<path fill="none" stroke="grey" stroke-width="2" d="M504.5,-395.686C504.5,-387.798 504.5,-378.684 504.5,-370.103"/>
<polygon fill="grey" stroke="grey" stroke-width="2" points="508,-370.018 504.5,-360.018 501,-370.018 508,-370.018"/>
</g>
<!-- 15&#45;&gt;8 -->
<g id="edge8" class="edge"><title>15&#45;&gt;8</title>
<path fill="none" stroke="grey" stroke-width="2" d="M230.756,-627.993C212.277,-618.225 190.313,-606.616 171.661,-596.757"/>
<polygon fill="grey" stroke="grey" stroke-width="2" points="173.277,-593.652 162.8,-592.073 170.005,-599.84 173.277,-593.652"/>
</g>
<!-- 16&#45;&gt;10 -->
<g id="edge11" class="edge"><title>16&#45;&gt;10</title>
<path fill="none" stroke="grey" stroke-width="2" d="M123.182,-163.803C120.447,-155.88 117.255,-146.634 114.175,-137.712"/>
<polygon fill="grey" stroke="grey" stroke-width="2" points="117.475,-136.546 110.903,-128.236 110.858,-138.831 117.475,-136.546"/>
</g>
<!-- 19 -->
<g id="node20" class="node"><title>19</title>
<path fill="none" stroke="#61d856" stroke-width="2" d="M337,-128C337,-128 208,-128 208,-128 202,-128 196,-122 196,-116 196,-116 196,-84 196,-84 196,-78 202,-72 208,-72 208,-72 337,-72 337,-72 343,-72 349,-78 349,-84 349,-84 349,-116 349,-116 349,-122 343,-128 337,-128"/>
<text text-anchor="middle" x="272.5" y="-115" font-family="sans" font-size="10.00">mpileup2vcf_single</text>
<text text-anchor="middle" x="272.5" y="-103" font-family="sans" font-size="10.00">chrMPU2VCFS: </text>
<text text-anchor="middle" x="272.5" y="-91" font-family="sans" font-size="10.00">sampleMPU2VCFS: Pfeiffer3</text>
<text text-anchor="middle" x="272.5" y="-79" font-family="sans" font-size="10.00">varTypeMPU2VCFS: snp</text>
</g>
<!-- 16&#45;&gt;19 -->
<g id="edge20" class="edge"><title>16&#45;&gt;19</title>
<path fill="none" stroke="grey" stroke-width="2" d="M166.333,-163.803C181.935,-154.574 200.568,-143.551 217.838,-133.335"/>
<polygon fill="grey" stroke="grey" stroke-width="2" points="219.896,-136.184 226.721,-128.08 216.332,-130.159 219.896,-136.184"/>
</g>
<!-- 17 -->
<g id="node18" class="node"><title>17</title>
<path fill="none" stroke="#5673d8" stroke-width="2" d="M598.5,-744C598.5,-744 498.5,-744 498.5,-744 492.5,-744 486.5,-738 486.5,-732 486.5,-732 486.5,-720 486.5,-720 486.5,-714 492.5,-708 498.5,-708 498.5,-708 598.5,-708 598.5,-708 604.5,-708 610.5,-714 610.5,-720 610.5,-720 610.5,-732 610.5,-732 610.5,-738 604.5,-744 598.5,-744"/>
<text text-anchor="middle" x="548.5" y="-729" font-family="sans" font-size="10.00">bam2fastq_picard</text>
<text text-anchor="middle" x="548.5" y="-717" font-family="sans" font-size="10.00">sampleB2FP: Pfeiffer2</text>
</g>
<!-- 17&#45;&gt;6 -->
<g id="edge6" class="edge"><title>17&#45;&gt;6</title>
<path fill="none" stroke="grey" stroke-width="2" d="M531.569,-707.837C523.178,-699.331 512.828,-688.839 503.314,-679.195"/>
<polygon fill="grey" stroke="grey" stroke-width="2" points="505.762,-676.693 496.248,-672.032 500.779,-681.609 505.762,-676.693"/>
</g>
<!-- 17&#45;&gt;7 -->
<g id="edge7" class="edge"><title>17&#45;&gt;7</title>
<path fill="none" stroke="grey" stroke-width="2" d="M565.663,-707.837C574.169,-699.331 584.661,-688.839 594.305,-679.195"/>
<polygon fill="grey" stroke="grey" stroke-width="2" points="596.872,-681.578 601.468,-672.032 591.922,-676.628 596.872,-681.578"/>
</g>
<!-- 18&#45;&gt;5 -->
<g id="edge5" class="edge"><title>18&#45;&gt;5</title>
<path fill="none" stroke="grey" stroke-width="2" d="M130.5,-475.686C130.5,-467.798 130.5,-458.684 130.5,-450.103"/>
<polygon fill="grey" stroke="grey" stroke-width="2" points="134,-450.018 130.5,-440.018 127,-450.018 134,-450.018"/>
</g>
<!-- 19&#45;&gt;21 -->
<g id="edge24" class="edge"><title>19&#45;&gt;21</title>
<path fill="none" stroke="grey" stroke-width="2" d="M301.277,-71.9156C311.234,-62.5445 322.316,-52.1139 331.992,-43.0072"/>
<polygon fill="grey" stroke="grey" stroke-width="2" points="334.519,-45.4356 339.402,-36.0333 329.721,-40.3382 334.519,-45.4356"/>
</g>
<!-- 20&#45;&gt;13 -->
<g id="edge15" class="edge"><title>20&#45;&gt;13</title>
<path fill="none" stroke="grey" stroke-width="2" d="M489.107,-163.803C483.108,-155.542 476.066,-145.845 469.335,-136.575"/>
<polygon fill="grey" stroke="grey" stroke-width="2" points="471.987,-134.271 463.279,-128.236 466.323,-138.384 471.987,-134.271"/>
</g>
<!-- 22 -->
<g id="node23" class="node"><title>22</title>
<path fill="none" stroke="#61d856" stroke-width="2" d="M679,-128C679,-128 550,-128 550,-128 544,-128 538,-122 538,-116 538,-116 538,-84 538,-84 538,-78 544,-72 550,-72 550,-72 679,-72 679,-72 685,-72 691,-78 691,-84 691,-84 691,-116 691,-116 691,-122 685,-128 679,-128"/>
<text text-anchor="middle" x="614.5" y="-115" font-family="sans" font-size="10.00">mpileup2vcf_single</text>
<text text-anchor="middle" x="614.5" y="-103" font-family="sans" font-size="10.00">chrMPU2VCFS: </text>
<text text-anchor="middle" x="614.5" y="-91" font-family="sans" font-size="10.00">sampleMPU2VCFS: Pfeiffer2</text>
<text text-anchor="middle" x="614.5" y="-79" font-family="sans" font-size="10.00">varTypeMPU2VCFS: indel</text>
</g>
<!-- 20&#45;&gt;22 -->
<g id="edge26" class="edge"><title>20&#45;&gt;22</title>
<path fill="none" stroke="grey" stroke-width="2" d="M532.258,-163.803C543.959,-154.868 557.86,-144.252 570.873,-134.315"/>
<polygon fill="grey" stroke="grey" stroke-width="2" points="573.01,-137.087 578.834,-128.236 568.762,-131.524 573.01,-137.087"/>
</g>
<!-- 22&#45;&gt;21 -->
<g id="edge25" class="edge"><title>22&#45;&gt;21</title>
<path fill="none" stroke="grey" stroke-width="2" d="M537.599,-74.5396C534.866,-73.6809 532.16,-72.8322 529.5,-72 482.952,-57.4357 429.222,-40.928 394.374,-30.2615"/>
<polygon fill="grey" stroke="grey" stroke-width="2" points="395.218,-26.8595 384.632,-27.281 393.17,-33.5533 395.218,-26.8595"/>
</g>
</g>
</svg>
