<?xml version="1.0" encoding="UTF-8" standalone="no"?>
<!DOCTYPE svg PUBLIC "-//W3C//DTD SVG 1.1//EN"
 "http://www.w3.org/Graphics/SVG/1.1/DTD/svg11.dtd">
<!-- Generated by graphviz version 2.38.0 (20140413.2041)
 -->
<!-- Title: snakemake_dag Pages: 1 -->
<svg width="644pt" height="740pt"
 viewBox="0.00 0.00 644.00 740.00" xmlns="http://www.w3.org/2000/svg" xmlns:xlink="http://www.w3.org/1999/xlink">
<g id="graph0" class="graph" transform="scale(1 1) rotate(0) translate(4 736)">
<title>snakemake_dag</title>
<polygon fill="white" stroke="none" points="-4,4 -4,-736 640,-736 640,4 -4,4"/>
<!-- 0 -->
<g id="node1" class="node"><title>0</title>
<path fill="none" stroke="#d86e56" stroke-width="2" d="M227.5,-196C227.5,-196 129.5,-196 129.5,-196 123.5,-196 117.5,-190 117.5,-184 117.5,-184 117.5,-164 117.5,-164 117.5,-158 123.5,-152 129.5,-152 129.5,-152 227.5,-152 227.5,-152 233.5,-152 239.5,-158 239.5,-164 239.5,-164 239.5,-184 239.5,-184 239.5,-190 233.5,-196 227.5,-196"/>
<text text-anchor="middle" x="178.5" y="-183" font-family="sans" font-size="10.00">bam2mpileup</text>
<text text-anchor="middle" x="178.5" y="-171" font-family="sans" font-size="10.00">chrB2M: </text>
<text text-anchor="middle" x="178.5" y="-159" font-family="sans" font-size="10.00">sampleB2M: Pfeiffer3</text>
</g>
<!-- 11 -->
<g id="node12" class="node"><title>11</title>
<path fill="none" stroke="#c6d856" stroke-width="2" d="M220,-112C220,-112 131,-112 131,-112 125,-112 119,-106 119,-100 119,-100 119,-88 119,-88 119,-82 125,-76 131,-76 131,-76 220,-76 220,-76 226,-76 232,-82 232,-88 232,-88 232,-100 232,-100 232,-106 226,-112 220,-112"/>
<text text-anchor="middle" x="175.5" y="-97" font-family="sans" font-size="10.00">conSeq</text>
<text text-anchor="middle" x="175.5" y="-85" font-family="sans" font-size="10.00">sampleCS: Pfeiffer3</text>
</g>
<!-- 0&#45;&gt;11 -->
<g id="edge11" class="edge"><title>0&#45;&gt;11</title>
<path fill="none" stroke="grey" stroke-width="2" d="M177.68,-151.686C177.332,-142.641 176.923,-131.985 176.553,-122.369"/>
<polygon fill="grey" stroke="grey" stroke-width="2" points="180.039,-121.951 176.157,-112.093 173.044,-122.22 180.039,-121.951"/>
</g>
<!-- 1 -->
<g id="node2" class="node"><title>1</title>
<path fill="none" stroke="#d86e56" stroke-width="2" d="M528.5,-196C528.5,-196 430.5,-196 430.5,-196 424.5,-196 418.5,-190 418.5,-184 418.5,-184 418.5,-164 418.5,-164 418.5,-158 424.5,-152 430.5,-152 430.5,-152 528.5,-152 528.5,-152 534.5,-152 540.5,-158 540.5,-164 540.5,-164 540.5,-184 540.5,-184 540.5,-190 534.5,-196 528.5,-196"/>
<text text-anchor="middle" x="479.5" y="-183" font-family="sans" font-size="10.00">bam2mpileup</text>
<text text-anchor="middle" x="479.5" y="-171" font-family="sans" font-size="10.00">chrB2M: </text>
<text text-anchor="middle" x="479.5" y="-159" font-family="sans" font-size="10.00">sampleB2M: Pfeiffer2</text>
</g>
<!-- 8 -->
<g id="node9" class="node"><title>8</title>
<path fill="none" stroke="#c6d856" stroke-width="2" d="M528,-112C528,-112 439,-112 439,-112 433,-112 427,-106 427,-100 427,-100 427,-88 427,-88 427,-82 433,-76 439,-76 439,-76 528,-76 528,-76 534,-76 540,-82 540,-88 540,-88 540,-100 540,-100 540,-106 534,-112 528,-112"/>
<text text-anchor="middle" x="483.5" y="-97" font-family="sans" font-size="10.00">conSeq</text>
<text text-anchor="middle" x="483.5" y="-85" font-family="sans" font-size="10.00">sampleCS: Pfeiffer2</text>
</g>
<!-- 1&#45;&gt;8 -->
<g id="edge7" class="edge"><title>1&#45;&gt;8</title>
<path fill="none" stroke="grey" stroke-width="2" d="M480.593,-151.686C481.057,-142.641 481.603,-131.985 482.096,-122.369"/>
<polygon fill="grey" stroke="grey" stroke-width="2" points="485.607,-122.259 482.623,-112.093 478.616,-121.901 485.607,-122.259"/>
</g>
<!-- 2 -->
<g id="node3" class="node"><title>2</title>
<path fill="none" stroke="#56d87b" stroke-width="2" d="M117,-660C117,-660 12,-660 12,-660 6,-660 0,-654 0,-648 0,-648 0,-628 0,-628 0,-622 6,-616 12,-616 12,-616 117,-616 117,-616 123,-616 129,-622 129,-628 129,-628 129,-648 129,-648 129,-654 123,-660 117,-660"/>
<text text-anchor="middle" x="64.5" y="-647" font-family="sans" font-size="10.00">fastq2GZ</text>
<text text-anchor="middle" x="64.5" y="-635" font-family="sans" font-size="10.00">pathFGZ: output/fastq</text>
<text text-anchor="middle" x="64.5" y="-623" font-family="sans" font-size="10.00">sampleFGZ: Pfeiffer3.1</text>
</g>
<!-- 17 -->
<g id="node18" class="node"><title>17</title>
<path fill="none" stroke="#56a2d8" stroke-width="2" d="M226.5,-580C226.5,-580 130.5,-580 130.5,-580 124.5,-580 118.5,-574 118.5,-568 118.5,-568 118.5,-556 118.5,-556 118.5,-550 124.5,-544 130.5,-544 130.5,-544 226.5,-544 226.5,-544 232.5,-544 238.5,-550 238.5,-556 238.5,-556 238.5,-568 238.5,-568 238.5,-574 232.5,-580 226.5,-580"/>
<text text-anchor="middle" x="178.5" y="-565" font-family="sans" font-size="10.00">bamALIGN_bwa</text>
<text text-anchor="middle" x="178.5" y="-553" font-family="sans" font-size="10.00">sampleBAB: Pfeiffer3</text>
</g>
<!-- 2&#45;&gt;17 -->
<g id="edge20" class="edge"><title>2&#45;&gt;17</title>
<path fill="none" stroke="grey" stroke-width="2" d="M96.8629,-615.993C111.5,-606.491 128.821,-595.248 143.735,-585.567"/>
<polygon fill="grey" stroke="grey" stroke-width="2" points="145.716,-588.453 152.198,-580.073 141.905,-582.582 145.716,-588.453"/>
</g>
<!-- 3 -->
<g id="node4" class="node"><title>3</title>
<path fill="none" stroke="#d8d356" stroke-width="2" d="M188.5,-732C188.5,-732 88.5,-732 88.5,-732 82.5,-732 76.5,-726 76.5,-720 76.5,-720 76.5,-708 76.5,-708 76.5,-702 82.5,-696 88.5,-696 88.5,-696 188.5,-696 188.5,-696 194.5,-696 200.5,-702 200.5,-708 200.5,-708 200.5,-720 200.5,-720 200.5,-726 194.5,-732 188.5,-732"/>
<text text-anchor="middle" x="138.5" y="-717" font-family="sans" font-size="10.00">bam2fastq_picard</text>
<text text-anchor="middle" x="138.5" y="-705" font-family="sans" font-size="10.00">sampleB2FP: Pfeiffer3</text>
</g>
<!-- 3&#45;&gt;2 -->
<g id="edge3" class="edge"><title>3&#45;&gt;2</title>
<path fill="none" stroke="grey" stroke-width="2" d="M121.337,-695.837C112.831,-687.331 102.339,-676.839 92.6952,-667.195"/>
<polygon fill="grey" stroke="grey" stroke-width="2" points="95.0782,-664.628 85.5322,-660.032 90.1284,-669.578 95.0782,-664.628"/>
</g>
<!-- 20 -->
<g id="node21" class="node"><title>20</title>
<path fill="none" stroke="#56d87b" stroke-width="2" d="M264,-660C264,-660 159,-660 159,-660 153,-660 147,-654 147,-648 147,-648 147,-628 147,-628 147,-622 153,-616 159,-616 159,-616 264,-616 264,-616 270,-616 276,-622 276,-628 276,-628 276,-648 276,-648 276,-654 270,-660 264,-660"/>
<text text-anchor="middle" x="211.5" y="-647" font-family="sans" font-size="10.00">fastq2GZ</text>
<text text-anchor="middle" x="211.5" y="-635" font-family="sans" font-size="10.00">pathFGZ: output/fastq</text>
<text text-anchor="middle" x="211.5" y="-623" font-family="sans" font-size="10.00">sampleFGZ: Pfeiffer3.2</text>
</g>
<!-- 3&#45;&gt;20 -->
<g id="edge25" class="edge"><title>3&#45;&gt;20</title>
<path fill="none" stroke="grey" stroke-width="2" d="M155.431,-695.837C163.822,-687.331 174.172,-676.839 183.686,-667.195"/>
<polygon fill="grey" stroke="grey" stroke-width="2" points="186.221,-669.609 190.752,-660.032 181.238,-664.693 186.221,-669.609"/>
</g>
<!-- 4 -->
<g id="node5" class="node"><title>4</title>
<path fill="none" stroke="#5673d8" stroke-width="2" d="M257,-508C257,-508 100,-508 100,-508 94,-508 88,-502 88,-496 88,-496 88,-476 88,-476 88,-470 94,-464 100,-464 100,-464 257,-464 257,-464 263,-464 269,-470 269,-476 269,-476 269,-496 269,-496 269,-502 263,-508 257,-508"/>
<text text-anchor="middle" x="178.5" y="-495" font-family="sans" font-size="10.00">sortBAM_biobambam</text>
<text text-anchor="middle" x="178.5" y="-483" font-family="sans" font-size="10.00">pathSBB: output/bam</text>
<text text-anchor="middle" x="178.5" y="-471" font-family="sans" font-size="10.00">sampleSBB: Pfeiffer3_Aligned.out</text>
</g>
<!-- 15 -->
<g id="node16" class="node"><title>15</title>
<path fill="none" stroke="#56b9d8" stroke-width="2" d="M271.5,-428C271.5,-428 85.5,-428 85.5,-428 79.5,-428 73.5,-422 73.5,-416 73.5,-416 73.5,-396 73.5,-396 73.5,-390 79.5,-384 85.5,-384 85.5,-384 271.5,-384 271.5,-384 277.5,-384 283.5,-390 283.5,-396 283.5,-396 283.5,-416 283.5,-416 283.5,-422 277.5,-428 271.5,-428"/>
<text text-anchor="middle" x="178.5" y="-415" font-family="sans" font-size="10.00">filteredBAM</text>
<text text-anchor="middle" x="178.5" y="-403" font-family="sans" font-size="10.00">pathFB: output/bam</text>
<text text-anchor="middle" x="178.5" y="-391" font-family="sans" font-size="10.00">sampleFB: Pfeiffer3_Aligned.out_sorted</text>
</g>
<!-- 4&#45;&gt;15 -->
<g id="edge15" class="edge"><title>4&#45;&gt;15</title>
<path fill="none" stroke="grey" stroke-width="2" d="M178.5,-463.686C178.5,-455.798 178.5,-446.684 178.5,-438.103"/>
<polygon fill="grey" stroke="grey" stroke-width="2" points="182,-438.018 178.5,-428.018 175,-438.018 182,-438.018"/>
</g>
<!-- 5 -->
<g id="node6" class="node"><title>5</title>
<path fill="none" stroke="#d8d356" stroke-width="2" d="M547.5,-732C547.5,-732 447.5,-732 447.5,-732 441.5,-732 435.5,-726 435.5,-720 435.5,-720 435.5,-708 435.5,-708 435.5,-702 441.5,-696 447.5,-696 447.5,-696 547.5,-696 547.5,-696 553.5,-696 559.5,-702 559.5,-708 559.5,-708 559.5,-720 559.5,-720 559.5,-726 553.5,-732 547.5,-732"/>
<text text-anchor="middle" x="497.5" y="-717" font-family="sans" font-size="10.00">bam2fastq_picard</text>
<text text-anchor="middle" x="497.5" y="-705" font-family="sans" font-size="10.00">sampleB2FP: Pfeiffer2</text>
</g>
<!-- 21 -->
<g id="node22" class="node"><title>21</title>
<path fill="none" stroke="#56d87b" stroke-width="2" d="M477,-660C477,-660 372,-660 372,-660 366,-660 360,-654 360,-648 360,-648 360,-628 360,-628 360,-622 366,-616 372,-616 372,-616 477,-616 477,-616 483,-616 489,-622 489,-628 489,-628 489,-648 489,-648 489,-654 483,-660 477,-660"/>
<text text-anchor="middle" x="424.5" y="-647" font-family="sans" font-size="10.00">fastq2GZ</text>
<text text-anchor="middle" x="424.5" y="-635" font-family="sans" font-size="10.00">pathFGZ: output/fastq</text>
<text text-anchor="middle" x="424.5" y="-623" font-family="sans" font-size="10.00">sampleFGZ: Pfeiffer2.2</text>
</g>
<!-- 5&#45;&gt;21 -->
<g id="edge26" class="edge"><title>5&#45;&gt;21</title>
<path fill="none" stroke="grey" stroke-width="2" d="M480.569,-695.837C472.178,-687.331 461.828,-676.839 452.314,-667.195"/>
<polygon fill="grey" stroke="grey" stroke-width="2" points="454.762,-664.693 445.248,-660.032 449.779,-669.609 454.762,-664.693"/>
</g>
<!-- 22 -->
<g id="node23" class="node"><title>22</title>
<path fill="none" stroke="#56d87b" stroke-width="2" d="M624,-660C624,-660 519,-660 519,-660 513,-660 507,-654 507,-648 507,-648 507,-628 507,-628 507,-622 513,-616 519,-616 519,-616 624,-616 624,-616 630,-616 636,-622 636,-628 636,-628 636,-648 636,-648 636,-654 630,-660 624,-660"/>
<text text-anchor="middle" x="571.5" y="-647" font-family="sans" font-size="10.00">fastq2GZ</text>
<text text-anchor="middle" x="571.5" y="-635" font-family="sans" font-size="10.00">pathFGZ: output/fastq</text>
<text text-anchor="middle" x="571.5" y="-623" font-family="sans" font-size="10.00">sampleFGZ: Pfeiffer2.1</text>
</g>
<!-- 5&#45;&gt;22 -->
<g id="edge27" class="edge"><title>5&#45;&gt;22</title>
<path fill="none" stroke="grey" stroke-width="2" d="M514.663,-695.837C523.169,-687.331 533.661,-676.839 543.305,-667.195"/>
<polygon fill="grey" stroke="grey" stroke-width="2" points="545.872,-669.578 550.468,-660.032 540.922,-664.628 545.872,-669.578"/>
</g>
<!-- 6 -->
<g id="node7" class="node"><title>6</title>
<path fill="none" stroke="#97d856" stroke-width="2" d="M297,-348C297,-348 60,-348 60,-348 54,-348 48,-342 48,-336 48,-336 48,-316 48,-316 48,-310 54,-304 60,-304 60,-304 297,-304 297,-304 303,-304 309,-310 309,-316 309,-316 309,-336 309,-336 309,-342 303,-348 297,-348"/>
<text text-anchor="middle" x="178.5" y="-335" font-family="sans" font-size="10.00">markdupBAM</text>
<text text-anchor="middle" x="178.5" y="-323" font-family="sans" font-size="10.00">outputDIR: output</text>
<text text-anchor="middle" x="178.5" y="-311" font-family="sans" font-size="10.00">sampleMDB: Pfeiffer3_Aligned.out_sorted_filtered</text>
</g>
<!-- 7 -->
<g id="node8" class="node"><title>7</title>
<path fill="none" stroke="#78d856" stroke-width="2" d="M221.5,-268C221.5,-268 135.5,-268 135.5,-268 129.5,-268 123.5,-262 123.5,-256 123.5,-256 123.5,-244 123.5,-244 123.5,-238 129.5,-232 135.5,-232 135.5,-232 221.5,-232 221.5,-232 227.5,-232 233.5,-238 233.5,-244 233.5,-244 233.5,-256 233.5,-256 233.5,-262 227.5,-268 221.5,-268"/>
<text text-anchor="middle" x="178.5" y="-253" font-family="sans" font-size="10.00">indexBAM</text>
<text text-anchor="middle" x="178.5" y="-241" font-family="sans" font-size="10.00">sampleIB: Pfeiffer3</text>
</g>
<!-- 6&#45;&gt;7 -->
<g id="edge6" class="edge"><title>6&#45;&gt;7</title>
<path fill="none" stroke="grey" stroke-width="2" d="M178.5,-303.993C178.5,-296.061 178.5,-286.915 178.5,-278.478"/>
<polygon fill="grey" stroke="grey" stroke-width="2" points="182,-278.315 178.5,-268.315 175,-278.315 182,-278.315"/>
</g>
<!-- 7&#45;&gt;0 -->
<g id="edge1" class="edge"><title>7&#45;&gt;0</title>
<path fill="none" stroke="grey" stroke-width="2" d="M178.5,-231.837C178.5,-224.165 178.5,-214.878 178.5,-206.053"/>
<polygon fill="grey" stroke="grey" stroke-width="2" points="182,-206.032 178.5,-196.032 175,-206.032 182,-206.032"/>
</g>
<!-- 9 -->
<g id="node10" class="node"><title>9</title>
<path fill="none" stroke="#56d863" stroke-width="2" d="M381,-196C381,-196 284,-196 284,-196 278,-196 272,-190 272,-184 272,-184 272,-164 272,-164 272,-158 278,-152 284,-152 284,-152 381,-152 381,-152 387,-152 393,-158 393,-164 393,-164 393,-184 393,-184 393,-190 387,-196 381,-196"/>
<text text-anchor="middle" x="332.5" y="-183" font-family="sans" font-size="10.00">copynum</text>
<text text-anchor="middle" x="332.5" y="-171" font-family="sans" font-size="10.00">samplenCN: Pfeiffer2</text>
<text text-anchor="middle" x="332.5" y="-159" font-family="sans" font-size="10.00">sampletCN: Pfeiffer3</text>
</g>
<!-- 7&#45;&gt;9 -->
<g id="edge9" class="edge"><title>7&#45;&gt;9</title>
<path fill="none" stroke="grey" stroke-width="2" d="M214.218,-231.837C233.655,-222.497 258.074,-210.763 279.67,-200.386"/>
<polygon fill="grey" stroke="grey" stroke-width="2" points="281.233,-203.518 288.73,-196.032 278.201,-197.209 281.233,-203.518"/>
</g>
<!-- 16 -->
<g id="node17" class="node"><title>16</title>
<path fill="none" stroke="#d85656" stroke-width="2" d="M319.5,-36C319.5,-36 289.5,-36 289.5,-36 283.5,-36 277.5,-30 277.5,-24 277.5,-24 277.5,-12 277.5,-12 277.5,-6 283.5,-0 289.5,-0 289.5,-0 319.5,-0 319.5,-0 325.5,-0 331.5,-6 331.5,-12 331.5,-12 331.5,-24 331.5,-24 331.5,-30 325.5,-36 319.5,-36"/>
<text text-anchor="middle" x="304.5" y="-15" font-family="sans" font-size="10.00">all</text>
</g>
<!-- 8&#45;&gt;16 -->
<g id="edge18" class="edge"><title>8&#45;&gt;16</title>
<path fill="none" stroke="grey" stroke-width="2" d="M441.984,-75.8369C411.456,-63.2166 370.354,-46.2247 341.062,-34.1151"/>
<polygon fill="grey" stroke="grey" stroke-width="2" points="342.192,-30.7949 331.613,-30.2089 339.518,-37.2639 342.192,-30.7949"/>
</g>
<!-- 9&#45;&gt;16 -->
<g id="edge17" class="edge"><title>9&#45;&gt;16</title>
<path fill="none" stroke="grey" stroke-width="2" d="M305.473,-151.76C295.296,-142.076 284.888,-129.708 279.5,-116 270.37,-92.7718 279.333,-65.1022 288.973,-45.2711"/>
<polygon fill="grey" stroke="grey" stroke-width="2" points="292.172,-46.7058 293.684,-36.2193 285.963,-43.4744 292.172,-46.7058"/>
</g>
<!-- 19 -->
<g id="node20" class="node"><title>19</title>
<path fill="none" stroke="#d88556" stroke-width="2" d="M396.5,-116C396.5,-116 300.5,-116 300.5,-116 294.5,-116 288.5,-110 288.5,-104 288.5,-104 288.5,-84 288.5,-84 288.5,-78 294.5,-72 300.5,-72 300.5,-72 396.5,-72 396.5,-72 402.5,-72 408.5,-78 408.5,-84 408.5,-84 408.5,-104 408.5,-104 408.5,-110 402.5,-116 396.5,-116"/>
<text text-anchor="middle" x="348.5" y="-103" font-family="sans" font-size="10.00">copycall</text>
<text text-anchor="middle" x="348.5" y="-91" font-family="sans" font-size="10.00">samplenCC: Pfeiffer2</text>
<text text-anchor="middle" x="348.5" y="-79" font-family="sans" font-size="10.00">sampletCC: Pfeiffer3</text>
</g>
<!-- 9&#45;&gt;19 -->
<g id="edge24" class="edge"><title>9&#45;&gt;19</title>
<path fill="none" stroke="grey" stroke-width="2" d="M336.872,-151.686C338.508,-143.711 340.401,-134.484 342.178,-125.82"/>
<polygon fill="grey" stroke="grey" stroke-width="2" points="345.608,-126.517 344.189,-116.018 338.75,-125.111 345.608,-126.517"/>
</g>
<!-- 10 -->
<g id="node11" class="node"><title>10</title>
<path fill="none" stroke="#97d856" stroke-width="2" d="M576,-348C576,-348 339,-348 339,-348 333,-348 327,-342 327,-336 327,-336 327,-316 327,-316 327,-310 333,-304 339,-304 339,-304 576,-304 576,-304 582,-304 588,-310 588,-316 588,-316 588,-336 588,-336 588,-342 582,-348 576,-348"/>
<text text-anchor="middle" x="457.5" y="-335" font-family="sans" font-size="10.00">markdupBAM</text>
<text text-anchor="middle" x="457.5" y="-323" font-family="sans" font-size="10.00">outputDIR: output</text>
<text text-anchor="middle" x="457.5" y="-311" font-family="sans" font-size="10.00">sampleMDB: Pfeiffer2_Aligned.out_sorted_filtered</text>
</g>
<!-- 13 -->
<g id="node14" class="node"><title>13</title>
<path fill="none" stroke="#78d856" stroke-width="2" d="M500.5,-268C500.5,-268 414.5,-268 414.5,-268 408.5,-268 402.5,-262 402.5,-256 402.5,-256 402.5,-244 402.5,-244 402.5,-238 408.5,-232 414.5,-232 414.5,-232 500.5,-232 500.5,-232 506.5,-232 512.5,-238 512.5,-244 512.5,-244 512.5,-256 512.5,-256 512.5,-262 506.5,-268 500.5,-268"/>
<text text-anchor="middle" x="457.5" y="-253" font-family="sans" font-size="10.00">indexBAM</text>
<text text-anchor="middle" x="457.5" y="-241" font-family="sans" font-size="10.00">sampleIB: Pfeiffer2</text>
</g>
<!-- 10&#45;&gt;13 -->
<g id="edge13" class="edge"><title>10&#45;&gt;13</title>
<path fill="none" stroke="grey" stroke-width="2" d="M457.5,-303.993C457.5,-296.061 457.5,-286.915 457.5,-278.478"/>
<polygon fill="grey" stroke="grey" stroke-width="2" points="461,-278.315 457.5,-268.315 454,-278.315 461,-278.315"/>
</g>
<!-- 11&#45;&gt;16 -->
<g id="edge16" class="edge"><title>11&#45;&gt;16</title>
<path fill="none" stroke="grey" stroke-width="2" d="M205.419,-75.8369C224.266,-65.0255 248.706,-51.0059 268.596,-39.5958"/>
<polygon fill="grey" stroke="grey" stroke-width="2" points="270.446,-42.5698 277.379,-34.5579 266.963,-36.4979 270.446,-42.5698"/>
</g>
<!-- 12 -->
<g id="node13" class="node"><title>12</title>
<path fill="none" stroke="#5673d8" stroke-width="2" d="M536,-508C536,-508 379,-508 379,-508 373,-508 367,-502 367,-496 367,-496 367,-476 367,-476 367,-470 373,-464 379,-464 379,-464 536,-464 536,-464 542,-464 548,-470 548,-476 548,-476 548,-496 548,-496 548,-502 542,-508 536,-508"/>
<text text-anchor="middle" x="457.5" y="-495" font-family="sans" font-size="10.00">sortBAM_biobambam</text>
<text text-anchor="middle" x="457.5" y="-483" font-family="sans" font-size="10.00">pathSBB: output/bam</text>
<text text-anchor="middle" x="457.5" y="-471" font-family="sans" font-size="10.00">sampleSBB: Pfeiffer2_Aligned.out</text>
</g>
<!-- 14 -->
<g id="node15" class="node"><title>14</title>
<path fill="none" stroke="#56b9d8" stroke-width="2" d="M550.5,-428C550.5,-428 364.5,-428 364.5,-428 358.5,-428 352.5,-422 352.5,-416 352.5,-416 352.5,-396 352.5,-396 352.5,-390 358.5,-384 364.5,-384 364.5,-384 550.5,-384 550.5,-384 556.5,-384 562.5,-390 562.5,-396 562.5,-396 562.5,-416 562.5,-416 562.5,-422 556.5,-428 550.5,-428"/>
<text text-anchor="middle" x="457.5" y="-415" font-family="sans" font-size="10.00">filteredBAM</text>
<text text-anchor="middle" x="457.5" y="-403" font-family="sans" font-size="10.00">pathFB: output/bam</text>
<text text-anchor="middle" x="457.5" y="-391" font-family="sans" font-size="10.00">sampleFB: Pfeiffer2_Aligned.out_sorted</text>
</g>
<!-- 12&#45;&gt;14 -->
<g id="edge14" class="edge"><title>12&#45;&gt;14</title>
<path fill="none" stroke="grey" stroke-width="2" d="M457.5,-463.686C457.5,-455.798 457.5,-446.684 457.5,-438.103"/>
<polygon fill="grey" stroke="grey" stroke-width="2" points="461,-438.018 457.5,-428.018 454,-438.018 461,-438.018"/>
</g>
<!-- 13&#45;&gt;1 -->
<g id="edge2" class="edge"><title>13&#45;&gt;1</title>
<path fill="none" stroke="grey" stroke-width="2" d="M462.603,-231.837C464.908,-224.082 467.705,-214.675 470.353,-205.766"/>
<polygon fill="grey" stroke="grey" stroke-width="2" points="473.752,-206.615 473.247,-196.032 467.043,-204.62 473.752,-206.615"/>
</g>
<!-- 13&#45;&gt;9 -->
<g id="edge8" class="edge"><title>13&#45;&gt;9</title>
<path fill="none" stroke="grey" stroke-width="2" d="M428.508,-231.837C413.154,-222.747 393.97,-211.39 376.795,-201.222"/>
<polygon fill="grey" stroke="grey" stroke-width="2" points="378.416,-198.115 368.027,-196.032 374.85,-204.138 378.416,-198.115"/>
</g>
<!-- 14&#45;&gt;10 -->
<g id="edge10" class="edge"><title>14&#45;&gt;10</title>
<path fill="none" stroke="grey" stroke-width="2" d="M457.5,-383.686C457.5,-375.798 457.5,-366.684 457.5,-358.103"/>
<polygon fill="grey" stroke="grey" stroke-width="2" points="461,-358.018 457.5,-348.018 454,-358.018 461,-358.018"/>
</g>
<!-- 15&#45;&gt;6 -->
<g id="edge5" class="edge"><title>15&#45;&gt;6</title>
<path fill="none" stroke="grey" stroke-width="2" d="M178.5,-383.686C178.5,-375.798 178.5,-366.684 178.5,-358.103"/>
<polygon fill="grey" stroke="grey" stroke-width="2" points="182,-358.018 178.5,-348.018 175,-358.018 182,-358.018"/>
</g>
<!-- 17&#45;&gt;4 -->
<g id="edge4" class="edge"><title>17&#45;&gt;4</title>
<path fill="none" stroke="grey" stroke-width="2" d="M178.5,-543.837C178.5,-536.165 178.5,-526.878 178.5,-518.053"/>
<polygon fill="grey" stroke="grey" stroke-width="2" points="182,-518.032 178.5,-508.032 175,-518.032 182,-518.032"/>
</g>
<!-- 18 -->
<g id="node19" class="node"><title>18</title>
<path fill="none" stroke="#56a2d8" stroke-width="2" d="M505.5,-580C505.5,-580 409.5,-580 409.5,-580 403.5,-580 397.5,-574 397.5,-568 397.5,-568 397.5,-556 397.5,-556 397.5,-550 403.5,-544 409.5,-544 409.5,-544 505.5,-544 505.5,-544 511.5,-544 517.5,-550 517.5,-556 517.5,-556 517.5,-568 517.5,-568 517.5,-574 511.5,-580 505.5,-580"/>
<text text-anchor="middle" x="457.5" y="-565" font-family="sans" font-size="10.00">bamALIGN_bwa</text>
<text text-anchor="middle" x="457.5" y="-553" font-family="sans" font-size="10.00">sampleBAB: Pfeiffer2</text>
</g>
<!-- 18&#45;&gt;12 -->
<g id="edge12" class="edge"><title>18&#45;&gt;12</title>
<path fill="none" stroke="grey" stroke-width="2" d="M457.5,-543.837C457.5,-536.165 457.5,-526.878 457.5,-518.053"/>
<polygon fill="grey" stroke="grey" stroke-width="2" points="461,-518.032 457.5,-508.032 454,-518.032 461,-518.032"/>
</g>
<!-- 19&#45;&gt;16 -->
<g id="edge19" class="edge"><title>19&#45;&gt;16</title>
<path fill="none" stroke="grey" stroke-width="2" d="M336.009,-71.9925C331.031,-63.6201 325.248,-53.895 320.006,-45.0786"/>
<polygon fill="grey" stroke="grey" stroke-width="2" points="322.914,-43.1213 314.795,-36.3147 316.898,-46.6988 322.914,-43.1213"/>
</g>
<!-- 20&#45;&gt;17 -->
<g id="edge21" class="edge"><title>20&#45;&gt;17</title>
<path fill="none" stroke="grey" stroke-width="2" d="M202.132,-615.993C198.477,-607.796 194.244,-598.304 190.378,-589.637"/>
<polygon fill="grey" stroke="grey" stroke-width="2" points="193.491,-588.022 186.221,-580.315 187.098,-590.873 193.491,-588.022"/>
</g>
<!-- 21&#45;&gt;18 -->
<g id="edge22" class="edge"><title>21&#45;&gt;18</title>
<path fill="none" stroke="grey" stroke-width="2" d="M433.868,-615.993C437.523,-607.796 441.756,-598.304 445.622,-589.637"/>
<polygon fill="grey" stroke="grey" stroke-width="2" points="448.902,-590.873 449.779,-580.315 442.509,-588.022 448.902,-590.873"/>
</g>
<!-- 22&#45;&gt;18 -->
<g id="edge23" class="edge"><title>22&#45;&gt;18</title>
<path fill="none" stroke="grey" stroke-width="2" d="M539.137,-615.993C524.5,-606.491 507.179,-595.248 492.265,-585.567"/>
<polygon fill="grey" stroke="grey" stroke-width="2" points="494.095,-582.582 483.802,-580.073 490.284,-588.453 494.095,-582.582"/>
</g>
</g>
</svg>
