<?xml version="1.0" encoding="UTF-8" standalone="no"?>
<!DOCTYPE svg PUBLIC "-//W3C//DTD SVG 1.1//EN"
 "http://www.w3.org/Graphics/SVG/1.1/DTD/svg11.dtd">
<!-- Generated by graphviz version 2.38.0 (20140413.2041)
 -->
<!-- Title: snakemake_dag Pages: 1 -->
<svg width="266pt" height="124pt"
 viewBox="0.00 0.00 266.00 124.00" xmlns="http://www.w3.org/2000/svg" xmlns:xlink="http://www.w3.org/1999/xlink">
<g id="graph0" class="graph" transform="scale(1 1) rotate(0) translate(4 120)">
<title>snakemake_dag</title>
<polygon fill="white" stroke="none" points="-4,4 -4,-120 262,-120 262,4 -4,4"/>
<!-- 0 -->
<g id="node1" class="node"><title>0</title>
<path fill="none" stroke="#d85656" stroke-width="2" d="M144,-36C144,-36 114,-36 114,-36 108,-36 102,-30 102,-24 102,-24 102,-12 102,-12 102,-6 108,-0 114,-0 114,-0 144,-0 144,-0 150,-0 156,-6 156,-12 156,-12 156,-24 156,-24 156,-30 150,-36 144,-36"/>
<text text-anchor="middle" x="129" y="-15" font-family="sans" font-size="10.00">all</text>
</g>
<!-- 1 -->
<g id="node2" class="node"><title>1</title>
<path fill="none" stroke="#56d88a" stroke-width="2" d="M108,-116C108,-116 12,-116 12,-116 6,-116 7.10543e-15,-110 7.10543e-15,-104 7.10543e-15,-104 7.10543e-15,-84 7.10543e-15,-84 7.10543e-15,-78 6,-72 12,-72 12,-72 108,-72 108,-72 114,-72 120,-78 120,-84 120,-84 120,-104 120,-104 120,-110 114,-116 108,-116"/>
<text text-anchor="middle" x="60" y="-103" font-family="sans" font-size="10.00">fastqc</text>
<text text-anchor="middle" x="60" y="-91" font-family="sans" font-size="10.00">outputDIR: output</text>
<text text-anchor="middle" x="60" y="-79" font-family="sans" font-size="10.00">sampleFQC: Pfeiffer3</text>
</g>
<!-- 1&#45;&gt;0 -->
<g id="edge1" class="edge"><title>1&#45;&gt;0</title>
<path fill="none" stroke="grey" stroke-width="2" d="M79.5881,-71.9925C87.8056,-63.1795 97.4208,-52.8675 105.974,-43.6944"/>
<polygon fill="grey" stroke="grey" stroke-width="2" points="108.595,-46.0154 112.855,-36.3147 103.476,-41.2416 108.595,-46.0154"/>
</g>
<!-- 2 -->
<g id="node3" class="node"><title>2</title>
<path fill="none" stroke="#56d88a" stroke-width="2" d="M246,-116C246,-116 150,-116 150,-116 144,-116 138,-110 138,-104 138,-104 138,-84 138,-84 138,-78 144,-72 150,-72 150,-72 246,-72 246,-72 252,-72 258,-78 258,-84 258,-84 258,-104 258,-104 258,-110 252,-116 246,-116"/>
<text text-anchor="middle" x="198" y="-103" font-family="sans" font-size="10.00">fastqc</text>
<text text-anchor="middle" x="198" y="-91" font-family="sans" font-size="10.00">outputDIR: output</text>
<text text-anchor="middle" x="198" y="-79" font-family="sans" font-size="10.00">sampleFQC: Pfeiffer2</text>
</g>
<!-- 2&#45;&gt;0 -->
<g id="edge2" class="edge"><title>2&#45;&gt;0</title>
<path fill="none" stroke="grey" stroke-width="2" d="M178.412,-71.9925C170.194,-63.1795 160.579,-52.8675 152.026,-43.6944"/>
<polygon fill="grey" stroke="grey" stroke-width="2" points="154.524,-41.2416 145.145,-36.3147 149.405,-46.0154 154.524,-41.2416"/>
</g>
</g>
</svg>
