<?xml version="1.0" encoding="UTF-8" standalone="no"?>
<!DOCTYPE svg PUBLIC "-//W3C//DTD SVG 1.1//EN"
 "http://www.w3.org/Graphics/SVG/1.1/DTD/svg11.dtd">
<!-- Generated by graphviz version 2.38.0 (20140413.2041)
 -->
<!-- Title: snakemake_dag Pages: 1 -->
<svg width="294pt" height="124pt"
 viewBox="0.00 0.00 294.00 124.00" xmlns="http://www.w3.org/2000/svg" xmlns:xlink="http://www.w3.org/1999/xlink">
<g id="graph0" class="graph" transform="scale(1 1) rotate(0) translate(4 120)">
<title>snakemake_dag</title>
<polygon fill="white" stroke="none" points="-4,4 -4,-120 290,-120 290,4 -4,4"/>
<!-- 0 -->
<g id="node1" class="node"><title>0</title>
<path fill="none" stroke="#d8a456" stroke-width="2" d="M158,-36C158,-36 128,-36 128,-36 122,-36 116,-30 116,-24 116,-24 116,-12 116,-12 116,-6 122,-0 128,-0 128,-0 158,-0 158,-0 164,-0 170,-6 170,-12 170,-12 170,-24 170,-24 170,-30 164,-36 158,-36"/>
<text text-anchor="middle" x="143" y="-15" font-family="sans" font-size="10.00">all</text>
</g>
<!-- 1 -->
<g id="node2" class="node"><title>1</title>
<path fill="none" stroke="#56d8c9" stroke-width="2" d="M122,-116C122,-116 12,-116 12,-116 6,-116 0,-110 0,-104 0,-104 0,-84 0,-84 0,-78 6,-72 12,-72 12,-72 122,-72 122,-72 128,-72 134,-78 134,-84 134,-84 134,-104 134,-104 134,-110 128,-116 122,-116"/>
<text text-anchor="middle" x="67" y="-103" font-family="sans" font-size="10.00">sam2BAM</text>
<text text-anchor="middle" x="67" y="-91" font-family="sans" font-size="10.00">pathS2B: input/rawBam</text>
<text text-anchor="middle" x="67" y="-79" font-family="sans" font-size="10.00">sampleS2B: Pfeiffer2</text>
</g>
<!-- 1&#45;&gt;0 -->
<g id="edge1" class="edge"><title>1&#45;&gt;0</title>
<path fill="none" stroke="grey" stroke-width="2" d="M88.5753,-71.9925C97.717,-63.0914 108.429,-52.6611 117.92,-43.4195"/>
<polygon fill="grey" stroke="grey" stroke-width="2" points="120.494,-45.7985 125.217,-36.3147 115.611,-40.7832 120.494,-45.7985"/>
</g>
<!-- 2 -->
<g id="node3" class="node"><title>2</title>
<path fill="none" stroke="#56d8c9" stroke-width="2" d="M274,-116C274,-116 164,-116 164,-116 158,-116 152,-110 152,-104 152,-104 152,-84 152,-84 152,-78 158,-72 164,-72 164,-72 274,-72 274,-72 280,-72 286,-78 286,-84 286,-84 286,-104 286,-104 286,-110 280,-116 274,-116"/>
<text text-anchor="middle" x="219" y="-103" font-family="sans" font-size="10.00">sam2BAM</text>
<text text-anchor="middle" x="219" y="-91" font-family="sans" font-size="10.00">pathS2B: input/rawBam</text>
<text text-anchor="middle" x="219" y="-79" font-family="sans" font-size="10.00">sampleS2B: Pfeiffer3</text>
</g>
<!-- 2&#45;&gt;0 -->
<g id="edge2" class="edge"><title>2&#45;&gt;0</title>
<path fill="none" stroke="grey" stroke-width="2" d="M197.425,-71.9925C188.283,-63.0914 177.571,-52.6611 168.08,-43.4195"/>
<polygon fill="grey" stroke="grey" stroke-width="2" points="170.389,-40.7832 160.783,-36.3147 165.506,-45.7985 170.389,-40.7832"/>
</g>
</g>
</svg>
