<?xml version="1.0" encoding="UTF-8" standalone="no"?>
<!DOCTYPE svg PUBLIC "-//W3C//DTD SVG 1.1//EN"
 "http://www.w3.org/Graphics/SVG/1.1/DTD/svg11.dtd">
<!-- Generated by graphviz version 2.38.0 (20140413.2041)
 -->
<!-- Title: snakemake_dag Pages: 1 -->
<svg width="562pt" height="668pt"
 viewBox="0.00 0.00 561.50 668.00" xmlns="http://www.w3.org/2000/svg" xmlns:xlink="http://www.w3.org/1999/xlink">
<g id="graph0" class="graph" transform="scale(1 1) rotate(0) translate(4 664)">
<title>snakemake_dag</title>
<polygon fill="white" stroke="none" points="-4,4 -4,-664 557.503,-664 557.503,4 -4,4"/>
<!-- 0 -->
<g id="node1" class="node"><title>0</title>
<path fill="none" stroke="#d8bc56" stroke-width="2" d="M487.537,-356C487.537,-356 331.947,-356 331.947,-356 325.947,-356 319.947,-350 319.947,-344 319.947,-344 319.947,-324 319.947,-324 319.947,-318 325.947,-312 331.947,-312 331.947,-312 487.537,-312 487.537,-312 493.537,-312 499.537,-318 499.537,-324 499.537,-324 499.537,-344 499.537,-344 499.537,-350 493.537,-356 487.537,-356"/>
<text text-anchor="middle" x="409.742" y="-343" font-family="sans" font-size="10.00">filteredBAM</text>
<text text-anchor="middle" x="409.742" y="-331" font-family="sans" font-size="10.00">pathFB: output/bam</text>
<text text-anchor="middle" x="409.742" y="-319" font-family="sans" font-size="10.00">sampleFB: Pfeiffer3_Aligned.out_sorted</text>
</g>
<!-- 4 -->
<g id="node5" class="node"><title>4</title>
<path fill="none" stroke="#56a9d8" stroke-width="2" d="M509.459,-276C509.459,-276 310.025,-276 310.025,-276 304.025,-276 298.025,-270 298.025,-264 298.025,-264 298.025,-244 298.025,-244 298.025,-238 304.025,-232 310.025,-232 310.025,-232 509.459,-232 509.459,-232 515.459,-232 521.459,-238 521.459,-244 521.459,-244 521.459,-264 521.459,-264 521.459,-270 515.459,-276 509.459,-276"/>
<text text-anchor="middle" x="409.742" y="-263" font-family="sans" font-size="10.00">markdupBAM</text>
<text text-anchor="middle" x="409.742" y="-251" font-family="sans" font-size="10.00">outputDIR: output</text>
<text text-anchor="middle" x="409.742" y="-239" font-family="sans" font-size="10.00">sampleMDB: Pfeiffer3_Aligned.out_sorted_filtered</text>
</g>
<!-- 0&#45;&gt;4 -->
<g id="edge5" class="edge"><title>0&#45;&gt;4</title>
<path fill="none" stroke="grey" stroke-width="2" d="M409.742,-311.686C409.742,-303.798 409.742,-294.684 409.742,-286.103"/>
<polygon fill="grey" stroke="grey" stroke-width="2" points="413.242,-286.018 409.742,-276.018 406.242,-286.018 413.242,-286.018"/>
</g>
<!-- 1 -->
<g id="node2" class="node"><title>1</title>
<path fill="none" stroke="#78d856" stroke-width="2" d="M475.771,-436C475.771,-436 343.713,-436 343.713,-436 337.713,-436 331.713,-430 331.713,-424 331.713,-424 331.713,-404 331.713,-404 331.713,-398 337.713,-392 343.713,-392 343.713,-392 475.771,-392 475.771,-392 481.771,-392 487.771,-398 487.771,-404 487.771,-404 487.771,-424 487.771,-424 487.771,-430 481.771,-436 475.771,-436"/>
<text text-anchor="middle" x="409.742" y="-423" font-family="sans" font-size="10.00">sortBAM_biobambam</text>
<text text-anchor="middle" x="409.742" y="-411" font-family="sans" font-size="10.00">pathSBB: output/bam</text>
<text text-anchor="middle" x="409.742" y="-399" font-family="sans" font-size="10.00">sampleSBB: Pfeiffer3_Aligned.out</text>
</g>
<!-- 1&#45;&gt;0 -->
<g id="edge1" class="edge"><title>1&#45;&gt;0</title>
<path fill="none" stroke="grey" stroke-width="2" d="M409.742,-391.686C409.742,-383.798 409.742,-374.684 409.742,-366.103"/>
<polygon fill="grey" stroke="grey" stroke-width="2" points="413.242,-366.018 409.742,-356.018 406.242,-366.018 413.242,-366.018"/>
</g>
<!-- 2 -->
<g id="node3" class="node"><title>2</title>
<path fill="none" stroke="#d8a456" stroke-width="2" d="M109.266,-588C109.266,-588 22.218,-588 22.218,-588 16.218,-588 10.218,-582 10.218,-576 10.218,-576 10.218,-556 10.218,-556 10.218,-550 16.218,-544 22.218,-544 22.218,-544 109.266,-544 109.266,-544 115.266,-544 121.266,-550 121.266,-556 121.266,-556 121.266,-576 121.266,-576 121.266,-582 115.266,-588 109.266,-588"/>
<text text-anchor="middle" x="65.742" y="-575" font-family="sans" font-size="10.00">fastq2GZ</text>
<text text-anchor="middle" x="65.742" y="-563" font-family="sans" font-size="10.00">pathFGZ: output/fastq</text>
<text text-anchor="middle" x="65.742" y="-551" font-family="sans" font-size="10.00">sampleFGZ: Pfeiffer2.1</text>
</g>
<!-- 8 -->
<g id="node9" class="node"><title>8</title>
<path fill="none" stroke="#56d873" stroke-width="2" d="M171.435,-508C171.435,-508 90.0486,-508 90.0486,-508 84.0486,-508 78.0486,-502 78.0486,-496 78.0486,-496 78.0486,-484 78.0486,-484 78.0486,-478 84.0486,-472 90.0486,-472 90.0486,-472 171.435,-472 171.435,-472 177.435,-472 183.435,-478 183.435,-484 183.435,-484 183.435,-496 183.435,-496 183.435,-502 177.435,-508 171.435,-508"/>
<text text-anchor="middle" x="130.742" y="-493" font-family="sans" font-size="10.00">bamALIGN_bwa</text>
<text text-anchor="middle" x="130.742" y="-481" font-family="sans" font-size="10.00">sampleBAB: Pfeiffer2</text>
</g>
<!-- 2&#45;&gt;8 -->
<g id="edge9" class="edge"><title>2&#45;&gt;8</title>
<path fill="none" stroke="grey" stroke-width="2" d="M84.1945,-543.993C91.8583,-535.268 100.812,-525.074 108.809,-515.97"/>
<polygon fill="grey" stroke="grey" stroke-width="2" points="111.563,-518.138 115.533,-508.315 106.304,-513.518 111.563,-518.138"/>
</g>
<!-- 3 -->
<g id="node4" class="node"><title>3</title>
<path fill="none" stroke="#d8a456" stroke-width="2" d="M239.266,-588C239.266,-588 152.218,-588 152.218,-588 146.218,-588 140.218,-582 140.218,-576 140.218,-576 140.218,-556 140.218,-556 140.218,-550 146.218,-544 152.218,-544 152.218,-544 239.266,-544 239.266,-544 245.266,-544 251.266,-550 251.266,-556 251.266,-556 251.266,-576 251.266,-576 251.266,-582 245.266,-588 239.266,-588"/>
<text text-anchor="middle" x="195.742" y="-575" font-family="sans" font-size="10.00">fastq2GZ</text>
<text text-anchor="middle" x="195.742" y="-563" font-family="sans" font-size="10.00">pathFGZ: output/fastq</text>
<text text-anchor="middle" x="195.742" y="-551" font-family="sans" font-size="10.00">sampleFGZ: Pfeiffer2.2</text>
</g>
<!-- 3&#45;&gt;8 -->
<g id="edge10" class="edge"><title>3&#45;&gt;8</title>
<path fill="none" stroke="grey" stroke-width="2" d="M177.289,-543.993C169.626,-535.268 160.672,-525.074 152.675,-515.97"/>
<polygon fill="grey" stroke="grey" stroke-width="2" points="155.18,-513.518 145.951,-508.315 149.921,-518.138 155.18,-513.518"/>
</g>
<!-- 7 -->
<g id="node8" class="node"><title>7</title>
<path fill="none" stroke="#88d856" stroke-width="2" d="M528.726,-196C528.726,-196 290.758,-196 290.758,-196 284.758,-196 278.758,-190 278.758,-184 278.758,-184 278.758,-164 278.758,-164 278.758,-158 284.758,-152 290.758,-152 290.758,-152 528.726,-152 528.726,-152 534.726,-152 540.726,-158 540.726,-164 540.726,-164 540.726,-184 540.726,-184 540.726,-190 534.726,-196 528.726,-196"/>
<text text-anchor="middle" x="409.742" y="-183" font-family="sans" font-size="10.00">endUtilBAM</text>
<text text-anchor="middle" x="409.742" y="-171" font-family="sans" font-size="10.00">pathEUB: output/bam</text>
<text text-anchor="middle" x="409.742" y="-159" font-family="sans" font-size="10.00">sampleEUB: Pfeiffer3_Aligned.out_sorted_filtered_markdup</text>
</g>
<!-- 4&#45;&gt;7 -->
<g id="edge8" class="edge"><title>4&#45;&gt;7</title>
<path fill="none" stroke="grey" stroke-width="2" d="M409.742,-231.686C409.742,-223.798 409.742,-214.684 409.742,-206.103"/>
<polygon fill="grey" stroke="grey" stroke-width="2" points="413.242,-206.018 409.742,-196.018 406.242,-206.018 413.242,-206.018"/>
</g>
<!-- 5 -->
<g id="node6" class="node"><title>5</title>
<path fill="none" stroke="#56a9d8" stroke-width="2" d="M230.459,-276C230.459,-276 31.0248,-276 31.0248,-276 25.0248,-276 19.0248,-270 19.0248,-264 19.0248,-264 19.0248,-244 19.0248,-244 19.0248,-238 25.0248,-232 31.0248,-232 31.0248,-232 230.459,-232 230.459,-232 236.459,-232 242.459,-238 242.459,-244 242.459,-244 242.459,-264 242.459,-264 242.459,-270 236.459,-276 230.459,-276"/>
<text text-anchor="middle" x="130.742" y="-263" font-family="sans" font-size="10.00">markdupBAM</text>
<text text-anchor="middle" x="130.742" y="-251" font-family="sans" font-size="10.00">outputDIR: output</text>
<text text-anchor="middle" x="130.742" y="-239" font-family="sans" font-size="10.00">sampleMDB: Pfeiffer2_Aligned.out_sorted_filtered</text>
</g>
<!-- 11 -->
<g id="node12" class="node"><title>11</title>
<path fill="none" stroke="#88d856" stroke-width="2" d="M249.726,-196C249.726,-196 11.7576,-196 11.7576,-196 5.75755,-196 -0.242449,-190 -0.242449,-184 -0.242449,-184 -0.242449,-164 -0.242449,-164 -0.242449,-158 5.75755,-152 11.7576,-152 11.7576,-152 249.726,-152 249.726,-152 255.726,-152 261.726,-158 261.726,-164 261.726,-164 261.726,-184 261.726,-184 261.726,-190 255.726,-196 249.726,-196"/>
<text text-anchor="middle" x="130.742" y="-183" font-family="sans" font-size="10.00">endUtilBAM</text>
<text text-anchor="middle" x="130.742" y="-171" font-family="sans" font-size="10.00">pathEUB: output/bam</text>
<text text-anchor="middle" x="130.742" y="-159" font-family="sans" font-size="10.00">sampleEUB: Pfeiffer2_Aligned.out_sorted_filtered_markdup</text>
</g>
<!-- 5&#45;&gt;11 -->
<g id="edge14" class="edge"><title>5&#45;&gt;11</title>
<path fill="none" stroke="grey" stroke-width="2" d="M130.742,-231.686C130.742,-223.798 130.742,-214.684 130.742,-206.103"/>
<polygon fill="grey" stroke="grey" stroke-width="2" points="134.242,-206.018 130.742,-196.018 127.242,-206.018 134.242,-206.018"/>
</g>
<!-- 6 -->
<g id="node7" class="node"><title>6</title>
<path fill="none" stroke="#78d856" stroke-width="2" d="M196.771,-436C196.771,-436 64.7133,-436 64.7133,-436 58.7133,-436 52.7133,-430 52.7133,-424 52.7133,-424 52.7133,-404 52.7133,-404 52.7133,-398 58.7133,-392 64.7133,-392 64.7133,-392 196.771,-392 196.771,-392 202.771,-392 208.771,-398 208.771,-404 208.771,-404 208.771,-424 208.771,-424 208.771,-430 202.771,-436 196.771,-436"/>
<text text-anchor="middle" x="130.742" y="-423" font-family="sans" font-size="10.00">sortBAM_biobambam</text>
<text text-anchor="middle" x="130.742" y="-411" font-family="sans" font-size="10.00">pathSBB: output/bam</text>
<text text-anchor="middle" x="130.742" y="-399" font-family="sans" font-size="10.00">sampleSBB: Pfeiffer2_Aligned.out</text>
</g>
<!-- 12 -->
<g id="node13" class="node"><title>12</title>
<path fill="none" stroke="#d8bc56" stroke-width="2" d="M208.537,-356C208.537,-356 52.9468,-356 52.9468,-356 46.9468,-356 40.9468,-350 40.9468,-344 40.9468,-344 40.9468,-324 40.9468,-324 40.9468,-318 46.9468,-312 52.9468,-312 52.9468,-312 208.537,-312 208.537,-312 214.537,-312 220.537,-318 220.537,-324 220.537,-324 220.537,-344 220.537,-344 220.537,-350 214.537,-356 208.537,-356"/>
<text text-anchor="middle" x="130.742" y="-343" font-family="sans" font-size="10.00">filteredBAM</text>
<text text-anchor="middle" x="130.742" y="-331" font-family="sans" font-size="10.00">pathFB: output/bam</text>
<text text-anchor="middle" x="130.742" y="-319" font-family="sans" font-size="10.00">sampleFB: Pfeiffer2_Aligned.out_sorted</text>
</g>
<!-- 6&#45;&gt;12 -->
<g id="edge15" class="edge"><title>6&#45;&gt;12</title>
<path fill="none" stroke="grey" stroke-width="2" d="M130.742,-391.686C130.742,-383.798 130.742,-374.684 130.742,-366.103"/>
<polygon fill="grey" stroke="grey" stroke-width="2" points="134.242,-366.018 130.742,-356.018 127.242,-366.018 134.242,-366.018"/>
</g>
<!-- 14 -->
<g id="node15" class="node"><title>14</title>
<path fill="none" stroke="#d8d356" stroke-width="2" d="M403.376,-116C403.376,-116 332.108,-116 332.108,-116 326.108,-116 320.108,-110 320.108,-104 320.108,-104 320.108,-84 320.108,-84 320.108,-78 326.108,-72 332.108,-72 332.108,-72 403.376,-72 403.376,-72 409.376,-72 415.376,-78 415.376,-84 415.376,-84 415.376,-104 415.376,-104 415.376,-110 409.376,-116 403.376,-116"/>
<text text-anchor="middle" x="367.742" y="-103" font-family="sans" font-size="10.00">indexBAM</text>
<text text-anchor="middle" x="367.742" y="-91" font-family="sans" font-size="10.00">outputDIR: output</text>
<text text-anchor="middle" x="367.742" y="-79" font-family="sans" font-size="10.00">sampleIB: Pfeiffer3</text>
</g>
<!-- 7&#45;&gt;14 -->
<g id="edge16" class="edge"><title>7&#45;&gt;14</title>
<path fill="none" stroke="grey" stroke-width="2" d="M398.265,-151.686C393.831,-143.451 388.678,-133.88 383.882,-124.975"/>
<polygon fill="grey" stroke="grey" stroke-width="2" points="386.882,-123.163 379.059,-116.018 380.719,-126.482 386.882,-123.163"/>
</g>
<!-- 8&#45;&gt;6 -->
<g id="edge7" class="edge"><title>8&#45;&gt;6</title>
<path fill="none" stroke="grey" stroke-width="2" d="M130.742,-471.837C130.742,-464.165 130.742,-454.878 130.742,-446.053"/>
<polygon fill="grey" stroke="grey" stroke-width="2" points="134.242,-446.032 130.742,-436.032 127.242,-446.032 134.242,-446.032"/>
</g>
<!-- 9 -->
<g id="node10" class="node"><title>9</title>
<path fill="none" stroke="#d8a456" stroke-width="2" d="M411.266,-588C411.266,-588 324.218,-588 324.218,-588 318.218,-588 312.218,-582 312.218,-576 312.218,-576 312.218,-556 312.218,-556 312.218,-550 318.218,-544 324.218,-544 324.218,-544 411.266,-544 411.266,-544 417.266,-544 423.266,-550 423.266,-556 423.266,-556 423.266,-576 423.266,-576 423.266,-582 417.266,-588 411.266,-588"/>
<text text-anchor="middle" x="367.742" y="-575" font-family="sans" font-size="10.00">fastq2GZ</text>
<text text-anchor="middle" x="367.742" y="-563" font-family="sans" font-size="10.00">pathFGZ: output/fastq</text>
<text text-anchor="middle" x="367.742" y="-551" font-family="sans" font-size="10.00">sampleFGZ: Pfeiffer3.2</text>
</g>
<!-- 18 -->
<g id="node19" class="node"><title>18</title>
<path fill="none" stroke="#56d873" stroke-width="2" d="M450.435,-508C450.435,-508 369.049,-508 369.049,-508 363.049,-508 357.049,-502 357.049,-496 357.049,-496 357.049,-484 357.049,-484 357.049,-478 363.049,-472 369.049,-472 369.049,-472 450.435,-472 450.435,-472 456.435,-472 462.435,-478 462.435,-484 462.435,-484 462.435,-496 462.435,-496 462.435,-502 456.435,-508 450.435,-508"/>
<text text-anchor="middle" x="409.742" y="-493" font-family="sans" font-size="10.00">bamALIGN_bwa</text>
<text text-anchor="middle" x="409.742" y="-481" font-family="sans" font-size="10.00">sampleBAB: Pfeiffer3</text>
</g>
<!-- 9&#45;&gt;18 -->
<g id="edge19" class="edge"><title>9&#45;&gt;18</title>
<path fill="none" stroke="grey" stroke-width="2" d="M379.665,-543.993C384.417,-535.62 389.937,-525.895 394.941,-517.079"/>
<polygon fill="grey" stroke="grey" stroke-width="2" points="398.023,-518.739 399.915,-508.315 391.935,-515.284 398.023,-518.739"/>
</g>
<!-- 10 -->
<g id="node11" class="node"><title>10</title>
<path fill="none" stroke="#567bd8" stroke-width="2" d="M305.742,-36C305.742,-36 275.742,-36 275.742,-36 269.742,-36 263.742,-30 263.742,-24 263.742,-24 263.742,-12 263.742,-12 263.742,-6 269.742,-0 275.742,-0 275.742,-0 305.742,-0 305.742,-0 311.742,-0 317.742,-6 317.742,-12 317.742,-12 317.742,-24 317.742,-24 317.742,-30 311.742,-36 305.742,-36"/>
<text text-anchor="middle" x="290.742" y="-15" font-family="sans" font-size="10.00">all</text>
</g>
<!-- 15 -->
<g id="node16" class="node"><title>15</title>
<path fill="none" stroke="#d8d356" stroke-width="2" d="M249.376,-116C249.376,-116 178.108,-116 178.108,-116 172.108,-116 166.108,-110 166.108,-104 166.108,-104 166.108,-84 166.108,-84 166.108,-78 172.108,-72 178.108,-72 178.108,-72 249.376,-72 249.376,-72 255.376,-72 261.376,-78 261.376,-84 261.376,-84 261.376,-104 261.376,-104 261.376,-110 255.376,-116 249.376,-116"/>
<text text-anchor="middle" x="213.742" y="-103" font-family="sans" font-size="10.00">indexBAM</text>
<text text-anchor="middle" x="213.742" y="-91" font-family="sans" font-size="10.00">outputDIR: output</text>
<text text-anchor="middle" x="213.742" y="-79" font-family="sans" font-size="10.00">sampleIB: Pfeiffer2</text>
</g>
<!-- 11&#45;&gt;15 -->
<g id="edge17" class="edge"><title>11&#45;&gt;15</title>
<path fill="none" stroke="grey" stroke-width="2" d="M153.422,-151.686C162.831,-142.844 173.878,-132.463 183.928,-123.018"/>
<polygon fill="grey" stroke="grey" stroke-width="2" points="186.486,-125.417 191.377,-116.018 181.693,-120.316 186.486,-125.417"/>
</g>
<!-- 12&#45;&gt;5 -->
<g id="edge6" class="edge"><title>12&#45;&gt;5</title>
<path fill="none" stroke="grey" stroke-width="2" d="M130.742,-311.686C130.742,-303.798 130.742,-294.684 130.742,-286.103"/>
<polygon fill="grey" stroke="grey" stroke-width="2" points="134.242,-286.018 130.742,-276.018 127.242,-286.018 134.242,-286.018"/>
</g>
<!-- 13 -->
<g id="node14" class="node"><title>13</title>
<path fill="none" stroke="#5692d8" stroke-width="2" d="M474.665,-660C474.665,-660 390.819,-660 390.819,-660 384.819,-660 378.819,-654 378.819,-648 378.819,-648 378.819,-636 378.819,-636 378.819,-630 384.819,-624 390.819,-624 390.819,-624 474.665,-624 474.665,-624 480.665,-624 486.665,-630 486.665,-636 486.665,-636 486.665,-648 486.665,-648 486.665,-654 480.665,-660 474.665,-660"/>
<text text-anchor="middle" x="432.742" y="-645" font-family="sans" font-size="10.00">bam2fastq_picard</text>
<text text-anchor="middle" x="432.742" y="-633" font-family="sans" font-size="10.00">sampleB2FP: Pfeiffer3</text>
</g>
<!-- 13&#45;&gt;9 -->
<g id="edge11" class="edge"><title>13&#45;&gt;9</title>
<path fill="none" stroke="grey" stroke-width="2" d="M417.666,-623.837C410.341,-615.498 401.34,-605.25 393.007,-595.763"/>
<polygon fill="grey" stroke="grey" stroke-width="2" points="395.445,-593.236 386.216,-588.032 390.186,-597.855 395.445,-593.236"/>
</g>
<!-- 16 -->
<g id="node17" class="node"><title>16</title>
<path fill="none" stroke="#d8a456" stroke-width="2" d="M541.266,-588C541.266,-588 454.218,-588 454.218,-588 448.218,-588 442.218,-582 442.218,-576 442.218,-576 442.218,-556 442.218,-556 442.218,-550 448.218,-544 454.218,-544 454.218,-544 541.266,-544 541.266,-544 547.266,-544 553.266,-550 553.266,-556 553.266,-556 553.266,-576 553.266,-576 553.266,-582 547.266,-588 541.266,-588"/>
<text text-anchor="middle" x="497.742" y="-575" font-family="sans" font-size="10.00">fastq2GZ</text>
<text text-anchor="middle" x="497.742" y="-563" font-family="sans" font-size="10.00">pathFGZ: output/fastq</text>
<text text-anchor="middle" x="497.742" y="-551" font-family="sans" font-size="10.00">sampleFGZ: Pfeiffer3.1</text>
</g>
<!-- 13&#45;&gt;16 -->
<g id="edge18" class="edge"><title>13&#45;&gt;16</title>
<path fill="none" stroke="grey" stroke-width="2" d="M447.818,-623.837C455.143,-615.498 464.144,-605.25 472.477,-595.763"/>
<polygon fill="grey" stroke="grey" stroke-width="2" points="475.298,-597.855 479.268,-588.032 470.039,-593.236 475.298,-597.855"/>
</g>
<!-- 14&#45;&gt;10 -->
<g id="edge12" class="edge"><title>14&#45;&gt;10</title>
<path fill="none" stroke="grey" stroke-width="2" d="M345.883,-71.9925C336.551,-63.0239 325.603,-52.503 315.933,-43.2097"/>
<polygon fill="grey" stroke="grey" stroke-width="2" points="318.142,-40.4786 308.507,-36.0729 313.292,-45.5257 318.142,-40.4786"/>
</g>
<!-- 15&#45;&gt;10 -->
<g id="edge13" class="edge"><title>15&#45;&gt;10</title>
<path fill="none" stroke="grey" stroke-width="2" d="M235.601,-71.9925C244.933,-63.0239 255.881,-52.503 265.551,-43.2097"/>
<polygon fill="grey" stroke="grey" stroke-width="2" points="268.192,-45.5257 272.977,-36.0729 263.342,-40.4786 268.192,-45.5257"/>
</g>
<!-- 16&#45;&gt;18 -->
<g id="edge20" class="edge"><title>16&#45;&gt;18</title>
<path fill="none" stroke="grey" stroke-width="2" d="M472.76,-543.993C461.884,-534.846 449.087,-524.086 437.877,-514.659"/>
<polygon fill="grey" stroke="grey" stroke-width="2" points="439.951,-511.83 430.045,-508.073 435.446,-517.188 439.951,-511.83"/>
</g>
<!-- 17 -->
<g id="node18" class="node"><title>17</title>
<path fill="none" stroke="#5692d8" stroke-width="2" d="M172.665,-660C172.665,-660 88.819,-660 88.819,-660 82.819,-660 76.819,-654 76.819,-648 76.819,-648 76.819,-636 76.819,-636 76.819,-630 82.819,-624 88.819,-624 88.819,-624 172.665,-624 172.665,-624 178.665,-624 184.665,-630 184.665,-636 184.665,-636 184.665,-648 184.665,-648 184.665,-654 178.665,-660 172.665,-660"/>
<text text-anchor="middle" x="130.742" y="-645" font-family="sans" font-size="10.00">bam2fastq_picard</text>
<text text-anchor="middle" x="130.742" y="-633" font-family="sans" font-size="10.00">sampleB2FP: Pfeiffer2</text>
</g>
<!-- 17&#45;&gt;2 -->
<g id="edge3" class="edge"><title>17&#45;&gt;2</title>
<path fill="none" stroke="grey" stroke-width="2" d="M115.666,-623.837C108.341,-615.498 99.3401,-605.25 91.0072,-595.763"/>
<polygon fill="grey" stroke="grey" stroke-width="2" points="93.4453,-593.236 84.2162,-588.032 88.1861,-597.855 93.4453,-593.236"/>
</g>
<!-- 17&#45;&gt;3 -->
<g id="edge4" class="edge"><title>17&#45;&gt;3</title>
<path fill="none" stroke="grey" stroke-width="2" d="M145.818,-623.837C153.143,-615.498 162.144,-605.25 170.477,-595.763"/>
<polygon fill="grey" stroke="grey" stroke-width="2" points="173.298,-597.855 177.268,-588.032 168.039,-593.236 173.298,-597.855"/>
</g>
<!-- 18&#45;&gt;1 -->
<g id="edge2" class="edge"><title>18&#45;&gt;1</title>
<path fill="none" stroke="grey" stroke-width="2" d="M409.742,-471.837C409.742,-464.165 409.742,-454.878 409.742,-446.053"/>
<polygon fill="grey" stroke="grey" stroke-width="2" points="413.242,-446.032 409.742,-436.032 406.242,-446.032 413.242,-446.032"/>
</g>
</g>
</svg>
