<?xml version="1.0" encoding="UTF-8" standalone="no"?>
<!DOCTYPE svg PUBLIC "-//W3C//DTD SVG 1.1//EN"
 "http://www.w3.org/Graphics/SVG/1.1/DTD/svg11.dtd">
<!-- Generated by graphviz version 2.38.0 (20140413.2041)
 -->
<!-- Title: snakemake_dag Pages: 1 -->
<svg width="1838pt" height="1328pt"
 viewBox="0.00 0.00 1838.00 1328.00" xmlns="http://www.w3.org/2000/svg" xmlns:xlink="http://www.w3.org/1999/xlink">
<g id="graph0" class="graph" transform="scale(1 1) rotate(0) translate(4 1324)">
<title>snakemake_dag</title>
<polygon fill="white" stroke="none" points="-4,4 -4,-1324 1834,-1324 1834,4 -4,4"/>
<!-- 0 -->
<g id="node1" class="node"><title>0</title>
<path fill="none" stroke="#d89556" stroke-width="2" d="M1290,-1248C1290,-1248 1156,-1248 1156,-1248 1150,-1248 1144,-1242 1144,-1236 1144,-1236 1144,-1216 1144,-1216 1144,-1210 1150,-1204 1156,-1204 1156,-1204 1290,-1204 1290,-1204 1296,-1204 1302,-1210 1302,-1216 1302,-1216 1302,-1236 1302,-1236 1302,-1242 1296,-1248 1290,-1248"/>
<text text-anchor="middle" x="1223" y="-1235" font-family="sans" font-size="10.00">fastq2GZ</text>
<text text-anchor="middle" x="1223" y="-1223" font-family="sans" font-size="10.00">pathFGZ: output/fastq</text>
<text text-anchor="middle" x="1223" y="-1211" font-family="sans" font-size="10.00">sampleFGZ: Part2&#45;Pfeiffer2.1</text>
</g>
<!-- 49 -->
<g id="node50" class="node"><title>49</title>
<path fill="none" stroke="#d88d56" stroke-width="2" d="M1325.5,-1168C1325.5,-1168 1200.5,-1168 1200.5,-1168 1194.5,-1168 1188.5,-1162 1188.5,-1156 1188.5,-1156 1188.5,-1144 1188.5,-1144 1188.5,-1138 1194.5,-1132 1200.5,-1132 1200.5,-1132 1325.5,-1132 1325.5,-1132 1331.5,-1132 1337.5,-1138 1337.5,-1144 1337.5,-1144 1337.5,-1156 1337.5,-1156 1337.5,-1162 1331.5,-1168 1325.5,-1168"/>
<text text-anchor="middle" x="1263" y="-1153" font-family="sans" font-size="10.00">bamALIGN_bwa</text>
<text text-anchor="middle" x="1263" y="-1141" font-family="sans" font-size="10.00">sampleBAB: Part2&#45;Pfeiffer2</text>
</g>
<!-- 0&#45;&gt;49 -->
<g id="edge61" class="edge"><title>0&#45;&gt;49</title>
<path fill="none" stroke="grey" stroke-width="2" d="M1234.36,-1203.99C1238.83,-1195.71 1244.03,-1186.1 1248.75,-1177.36"/>
<polygon fill="grey" stroke="grey" stroke-width="2" points="1251.96,-1178.78 1253.64,-1168.31 1245.81,-1175.45 1251.96,-1178.78"/>
</g>
<!-- 1 -->
<g id="node2" class="node"><title>1</title>
<path fill="none" stroke="#567bd8" stroke-width="2" d="M668,-356C668,-356 392,-356 392,-356 386,-356 380,-350 380,-344 380,-344 380,-324 380,-324 380,-318 386,-312 392,-312 392,-312 668,-312 668,-312 674,-312 680,-318 680,-324 680,-324 680,-344 680,-344 680,-350 674,-356 668,-356"/>
<text text-anchor="middle" x="530" y="-343" font-family="sans" font-size="10.00">indel</text>
<text text-anchor="middle" x="530" y="-331" font-family="sans" font-size="10.00">pathIndel: output/vcfGenUtil_varScan</text>
<text text-anchor="middle" x="530" y="-319" font-family="sans" font-size="10.00">sampleIndel: Pfeiffer2.varScan.indel.canonical_annotated</text>
</g>
<!-- 4 -->
<g id="node5" class="node"><title>4</title>
<path fill="none" stroke="#59d856" stroke-width="2" d="M713,-276C713,-276 347,-276 347,-276 341,-276 335,-270 335,-264 335,-264 335,-244 335,-244 335,-238 341,-232 347,-232 347,-232 713,-232 713,-232 719,-232 725,-238 725,-244 725,-244 725,-264 725,-264 725,-270 719,-276 713,-276"/>
<text text-anchor="middle" x="530" y="-263" font-family="sans" font-size="10.00">getVcfTable</text>
<text text-anchor="middle" x="530" y="-251" font-family="sans" font-size="10.00">pathGVCFT: output/vcfGenUtil_varScan</text>
<text text-anchor="middle" x="530" y="-239" font-family="sans" font-size="10.00">sampleGVCFT: Pfeiffer2.varScan.indel.canonical_annotated.indel_annotated</text>
</g>
<!-- 1&#45;&gt;4 -->
<g id="edge14" class="edge"><title>1&#45;&gt;4</title>
<path fill="none" stroke="grey" stroke-width="2" d="M530,-311.686C530,-303.798 530,-294.684 530,-286.103"/>
<polygon fill="grey" stroke="grey" stroke-width="2" points="533.5,-286.018 530,-276.018 526.5,-286.018 533.5,-286.018"/>
</g>
<!-- 2 -->
<g id="node3" class="node"><title>2</title>
<path fill="none" stroke="#d87d56" stroke-width="2" d="M1253,-36C1253,-36 1223,-36 1223,-36 1217,-36 1211,-30 1211,-24 1211,-24 1211,-12 1211,-12 1211,-6 1217,-0 1223,-0 1223,-0 1253,-0 1253,-0 1259,-0 1265,-6 1265,-12 1265,-12 1265,-24 1265,-24 1265,-30 1259,-36 1253,-36"/>
<text text-anchor="middle" x="1238" y="-15" font-family="sans" font-size="10.00">all</text>
</g>
<!-- 3 -->
<g id="node4" class="node"><title>3</title>
<path fill="none" stroke="#d8a456" stroke-width="2" d="M100,-524C100,-524 12,-524 12,-524 6,-524 0,-518 0,-512 0,-512 0,-500 0,-500 0,-494 6,-488 12,-488 12,-488 100,-488 100,-488 106,-488 112,-494 112,-500 112,-500 112,-512 112,-512 112,-518 106,-524 100,-524"/>
<text text-anchor="middle" x="56" y="-509" font-family="sans" font-size="10.00">flagStats</text>
<text text-anchor="middle" x="56" y="-497" font-family="sans" font-size="10.00">sampleFS: Pfeiffer2</text>
</g>
<!-- 3&#45;&gt;2 -->
<g id="edge12" class="edge"><title>3&#45;&gt;2</title>
<path fill="none" stroke="grey" stroke-width="2" d="M68.6934,-487.643C89.1155,-457.951 127,-394.811 127,-335 127,-335 127,-335 127,-173 127,-52.7517 260.704,-98.4832 378,-72 538.326,-35.8015 1057.1,-22.6955 1200.8,-19.7097"/>
<polygon fill="grey" stroke="grey" stroke-width="2" points="1200.94,-23.2075 1210.87,-19.5043 1200.8,-16.209 1200.94,-23.2075"/>
</g>
<!-- 11 -->
<g id="node12" class="node"><title>11</title>
<path fill="none" stroke="#d86e56" stroke-width="2" d="M701,-196C701,-196 359,-196 359,-196 353,-196 347,-190 347,-184 347,-184 347,-164 347,-164 347,-158 353,-152 359,-152 359,-152 701,-152 701,-152 707,-152 713,-158 713,-164 713,-164 713,-184 713,-184 713,-190 707,-196 701,-196"/>
<text text-anchor="middle" x="530" y="-183" font-family="sans" font-size="10.00">tableMERGE</text>
<text text-anchor="middle" x="530" y="-171" font-family="sans" font-size="10.00">annotationSUFFIX: varScan.indel.canonical_annotated.indel_annotated</text>
<text text-anchor="middle" x="530" y="-159" font-family="sans" font-size="10.00">tableMergeDIR: vcfGenUtil_varScan/tables</text>
</g>
<!-- 4&#45;&gt;11 -->
<g id="edge21" class="edge"><title>4&#45;&gt;11</title>
<path fill="none" stroke="grey" stroke-width="2" d="M530,-231.686C530,-223.798 530,-214.684 530,-206.103"/>
<polygon fill="grey" stroke="grey" stroke-width="2" points="533.5,-206.018 530,-196.018 526.5,-206.018 533.5,-206.018"/>
</g>
<!-- 5 -->
<g id="node6" class="node"><title>5</title>
<path fill="none" stroke="#56d873" stroke-width="2" d="M1099,-1096C1099,-1096 913,-1096 913,-1096 907,-1096 901,-1090 901,-1084 901,-1084 901,-1064 901,-1064 901,-1058 907,-1052 913,-1052 913,-1052 1099,-1052 1099,-1052 1105,-1052 1111,-1058 1111,-1064 1111,-1064 1111,-1084 1111,-1084 1111,-1090 1105,-1096 1099,-1096"/>
<text text-anchor="middle" x="1006" y="-1083" font-family="sans" font-size="10.00">sortBAM_biobambam</text>
<text text-anchor="middle" x="1006" y="-1071" font-family="sans" font-size="10.00">pathSBB: output/bam</text>
<text text-anchor="middle" x="1006" y="-1059" font-family="sans" font-size="10.00">sampleSBB: Part4&#45;Pfeiffer2_Aligned.out</text>
</g>
<!-- 28 -->
<g id="node29" class="node"><title>28</title>
<path fill="none" stroke="#a7d856" stroke-width="2" d="M1113.5,-1016C1113.5,-1016 898.5,-1016 898.5,-1016 892.5,-1016 886.5,-1010 886.5,-1004 886.5,-1004 886.5,-984 886.5,-984 886.5,-978 892.5,-972 898.5,-972 898.5,-972 1113.5,-972 1113.5,-972 1119.5,-972 1125.5,-978 1125.5,-984 1125.5,-984 1125.5,-1004 1125.5,-1004 1125.5,-1010 1119.5,-1016 1113.5,-1016"/>
<text text-anchor="middle" x="1006" y="-1003" font-family="sans" font-size="10.00">filteredBAM</text>
<text text-anchor="middle" x="1006" y="-991" font-family="sans" font-size="10.00">pathFB: output/bam</text>
<text text-anchor="middle" x="1006" y="-979" font-family="sans" font-size="10.00">sampleFB: Part4&#45;Pfeiffer2_Aligned.out_sorted</text>
</g>
<!-- 5&#45;&gt;28 -->
<g id="edge40" class="edge"><title>5&#45;&gt;28</title>
<path fill="none" stroke="grey" stroke-width="2" d="M1006,-1051.69C1006,-1043.8 1006,-1034.68 1006,-1026.1"/>
<polygon fill="grey" stroke="grey" stroke-width="2" points="1009.5,-1026.02 1006,-1016.02 1002.5,-1026.02 1009.5,-1026.02"/>
</g>
<!-- 6 -->
<g id="node7" class="node"><title>6</title>
<path fill="none" stroke="#56b1d8" stroke-width="2" d="M1728,-1320C1728,-1320 1598,-1320 1598,-1320 1592,-1320 1586,-1314 1586,-1308 1586,-1308 1586,-1296 1586,-1296 1586,-1290 1592,-1284 1598,-1284 1598,-1284 1728,-1284 1728,-1284 1734,-1284 1740,-1290 1740,-1296 1740,-1296 1740,-1308 1740,-1308 1740,-1314 1734,-1320 1728,-1320"/>
<text text-anchor="middle" x="1663" y="-1305" font-family="sans" font-size="10.00">bam2fastq_picard</text>
<text text-anchor="middle" x="1663" y="-1293" font-family="sans" font-size="10.00">sampleB2FP: Part1&#45;Pfeiffer2</text>
</g>
<!-- 21 -->
<g id="node22" class="node"><title>21</title>
<path fill="none" stroke="#d89556" stroke-width="2" d="M1642,-1248C1642,-1248 1508,-1248 1508,-1248 1502,-1248 1496,-1242 1496,-1236 1496,-1236 1496,-1216 1496,-1216 1496,-1210 1502,-1204 1508,-1204 1508,-1204 1642,-1204 1642,-1204 1648,-1204 1654,-1210 1654,-1216 1654,-1216 1654,-1236 1654,-1236 1654,-1242 1648,-1248 1642,-1248"/>
<text text-anchor="middle" x="1575" y="-1235" font-family="sans" font-size="10.00">fastq2GZ</text>
<text text-anchor="middle" x="1575" y="-1223" font-family="sans" font-size="10.00">pathFGZ: output/fastq</text>
<text text-anchor="middle" x="1575" y="-1211" font-family="sans" font-size="10.00">sampleFGZ: Part1&#45;Pfeiffer2.2</text>
</g>
<!-- 6&#45;&gt;21 -->
<g id="edge35" class="edge"><title>6&#45;&gt;21</title>
<path fill="none" stroke="grey" stroke-width="2" d="M1642.59,-1283.84C1632.28,-1275.16 1619.51,-1264.43 1607.86,-1254.63"/>
<polygon fill="grey" stroke="grey" stroke-width="2" points="1609.92,-1251.79 1600.01,-1248.03 1605.41,-1257.15 1609.92,-1251.79"/>
</g>
<!-- 27 -->
<g id="node28" class="node"><title>27</title>
<path fill="none" stroke="#d89556" stroke-width="2" d="M1818,-1248C1818,-1248 1684,-1248 1684,-1248 1678,-1248 1672,-1242 1672,-1236 1672,-1236 1672,-1216 1672,-1216 1672,-1210 1678,-1204 1684,-1204 1684,-1204 1818,-1204 1818,-1204 1824,-1204 1830,-1210 1830,-1216 1830,-1216 1830,-1236 1830,-1236 1830,-1242 1824,-1248 1818,-1248"/>
<text text-anchor="middle" x="1751" y="-1235" font-family="sans" font-size="10.00">fastq2GZ</text>
<text text-anchor="middle" x="1751" y="-1223" font-family="sans" font-size="10.00">pathFGZ: output/fastq</text>
<text text-anchor="middle" x="1751" y="-1211" font-family="sans" font-size="10.00">sampleFGZ: Part1&#45;Pfeiffer2.1</text>
</g>
<!-- 6&#45;&gt;27 -->
<g id="edge39" class="edge"><title>6&#45;&gt;27</title>
<path fill="none" stroke="grey" stroke-width="2" d="M1683.41,-1283.84C1693.72,-1275.16 1706.49,-1264.43 1718.14,-1254.63"/>
<polygon fill="grey" stroke="grey" stroke-width="2" points="1720.59,-1257.15 1725.99,-1248.03 1716.08,-1251.79 1720.59,-1257.15"/>
</g>
<!-- 7 -->
<g id="node8" class="node"><title>7</title>
<path fill="none" stroke="#56d873" stroke-width="2" d="M1356,-1096C1356,-1096 1170,-1096 1170,-1096 1164,-1096 1158,-1090 1158,-1084 1158,-1084 1158,-1064 1158,-1064 1158,-1058 1164,-1052 1170,-1052 1170,-1052 1356,-1052 1356,-1052 1362,-1052 1368,-1058 1368,-1064 1368,-1064 1368,-1084 1368,-1084 1368,-1090 1362,-1096 1356,-1096"/>
<text text-anchor="middle" x="1263" y="-1083" font-family="sans" font-size="10.00">sortBAM_biobambam</text>
<text text-anchor="middle" x="1263" y="-1071" font-family="sans" font-size="10.00">pathSBB: output/bam</text>
<text text-anchor="middle" x="1263" y="-1059" font-family="sans" font-size="10.00">sampleSBB: Part2&#45;Pfeiffer2_Aligned.out</text>
</g>
<!-- 45 -->
<g id="node46" class="node"><title>45</title>
<path fill="none" stroke="#a7d856" stroke-width="2" d="M1370.5,-1016C1370.5,-1016 1155.5,-1016 1155.5,-1016 1149.5,-1016 1143.5,-1010 1143.5,-1004 1143.5,-1004 1143.5,-984 1143.5,-984 1143.5,-978 1149.5,-972 1155.5,-972 1155.5,-972 1370.5,-972 1370.5,-972 1376.5,-972 1382.5,-978 1382.5,-984 1382.5,-984 1382.5,-1004 1382.5,-1004 1382.5,-1010 1376.5,-1016 1370.5,-1016"/>
<text text-anchor="middle" x="1263" y="-1003" font-family="sans" font-size="10.00">filteredBAM</text>
<text text-anchor="middle" x="1263" y="-991" font-family="sans" font-size="10.00">pathFB: output/bam</text>
<text text-anchor="middle" x="1263" y="-979" font-family="sans" font-size="10.00">sampleFB: Part2&#45;Pfeiffer2_Aligned.out_sorted</text>
</g>
<!-- 7&#45;&gt;45 -->
<g id="edge57" class="edge"><title>7&#45;&gt;45</title>
<path fill="none" stroke="grey" stroke-width="2" d="M1263,-1051.69C1263,-1043.8 1263,-1034.68 1263,-1026.1"/>
<polygon fill="grey" stroke="grey" stroke-width="2" points="1266.5,-1026.02 1263,-1016.02 1259.5,-1026.02 1266.5,-1026.02"/>
</g>
<!-- 8 -->
<g id="node9" class="node"><title>8</title>
<path fill="none" stroke="#d88d56" stroke-width="2" d="M1068.5,-1168C1068.5,-1168 943.5,-1168 943.5,-1168 937.5,-1168 931.5,-1162 931.5,-1156 931.5,-1156 931.5,-1144 931.5,-1144 931.5,-1138 937.5,-1132 943.5,-1132 943.5,-1132 1068.5,-1132 1068.5,-1132 1074.5,-1132 1080.5,-1138 1080.5,-1144 1080.5,-1144 1080.5,-1156 1080.5,-1156 1080.5,-1162 1074.5,-1168 1068.5,-1168"/>
<text text-anchor="middle" x="1006" y="-1153" font-family="sans" font-size="10.00">bamALIGN_bwa</text>
<text text-anchor="middle" x="1006" y="-1141" font-family="sans" font-size="10.00">sampleBAB: Part4&#45;Pfeiffer2</text>
</g>
<!-- 8&#45;&gt;5 -->
<g id="edge15" class="edge"><title>8&#45;&gt;5</title>
<path fill="none" stroke="grey" stroke-width="2" d="M1006,-1131.84C1006,-1124.16 1006,-1114.88 1006,-1106.05"/>
<polygon fill="grey" stroke="grey" stroke-width="2" points="1009.5,-1106.03 1006,-1096.03 1002.5,-1106.03 1009.5,-1106.03"/>
</g>
<!-- 9 -->
<g id="node10" class="node"><title>9</title>
<path fill="none" stroke="#bed856" stroke-width="2" d="M1455.5,-632C1455.5,-632 1326.5,-632 1326.5,-632 1320.5,-632 1314.5,-626 1314.5,-620 1314.5,-620 1314.5,-588 1314.5,-588 1314.5,-582 1320.5,-576 1326.5,-576 1326.5,-576 1455.5,-576 1455.5,-576 1461.5,-576 1467.5,-582 1467.5,-588 1467.5,-588 1467.5,-620 1467.5,-620 1467.5,-626 1461.5,-632 1455.5,-632"/>
<text text-anchor="middle" x="1391" y="-619" font-family="sans" font-size="10.00">mpileup2vcf_single</text>
<text text-anchor="middle" x="1391" y="-607" font-family="sans" font-size="10.00">chrMPU2VCFS: _2</text>
<text text-anchor="middle" x="1391" y="-595" font-family="sans" font-size="10.00">sampleMPU2VCFS: Pfeiffer2</text>
<text text-anchor="middle" x="1391" y="-583" font-family="sans" font-size="10.00">varTypeMPU2VCFS: snp</text>
</g>
<!-- 55 -->
<g id="node56" class="node"><title>55</title>
<path fill="none" stroke="#d8d356" stroke-width="2" d="M1056,-540C1056,-540 888,-540 888,-540 882,-540 876,-534 876,-528 876,-528 876,-484 876,-484 876,-478 882,-472 888,-472 888,-472 1056,-472 1056,-472 1062,-472 1068,-478 1068,-484 1068,-484 1068,-528 1068,-528 1068,-534 1062,-540 1056,-540"/>
<text text-anchor="middle" x="972" y="-527" font-family="sans" font-size="10.00">mergeVCF</text>
<text text-anchor="middle" x="972" y="-515" font-family="sans" font-size="10.00">pathMV: output/vcfGenUtil_varScan</text>
<text text-anchor="middle" x="972" y="-503" font-family="sans" font-size="10.00">sampleMVCF: Pfeiffer2</text>
<text text-anchor="middle" x="972" y="-491" font-family="sans" font-size="10.00">varTypeMVCF: snp</text>
<text text-anchor="middle" x="972" y="-479" font-family="sans" font-size="10.00">vcfProgramMVCF: varScan</text>
</g>
<!-- 9&#45;&gt;55 -->
<g id="edge71" class="edge"><title>9&#45;&gt;55</title>
<path fill="none" stroke="grey" stroke-width="2" d="M1314.22,-578.476C1311.11,-577.616 1308.03,-576.787 1305,-576 1229.72,-556.436 1143.74,-538.735 1078,-526.161"/>
<polygon fill="grey" stroke="grey" stroke-width="2" points="1078.52,-522.697 1068.04,-524.265 1077.21,-529.573 1078.52,-522.697"/>
</g>
<!-- 10 -->
<g id="node11" class="node"><title>10</title>
<path fill="none" stroke="#56d8c1" stroke-width="2" d="M337,-432C337,-432 237,-432 237,-432 231,-432 225,-426 225,-420 225,-420 225,-408 225,-408 225,-402 231,-396 237,-396 237,-396 337,-396 337,-396 343,-396 349,-402 349,-408 349,-408 349,-420 349,-420 349,-426 343,-432 337,-432"/>
<text text-anchor="middle" x="287" y="-411" font-family="sans" font-size="10.00">collectRNASeqMERGE</text>
</g>
<!-- 10&#45;&gt;2 -->
<g id="edge10" class="edge"><title>10&#45;&gt;2</title>
<path fill="none" stroke="grey" stroke-width="2" d="M287.894,-395.938C289.332,-366.971 292,-306.321 292,-255 292,-255 292,-255 292,-173 292,-140.972 106.023,-168.287 576,-72 810.274,-24.0029 1099.48,-18.9898 1200.83,-18.8159"/>
<polygon fill="grey" stroke="grey" stroke-width="2" points="1200.87,-22.316 1210.87,-18.8139 1200.87,-15.316 1200.87,-22.316"/>
</g>
<!-- 11&#45;&gt;2 -->
<g id="edge5" class="edge"><title>11&#45;&gt;2</title>
<path fill="none" stroke="grey" stroke-width="2" d="M545.552,-151.636C564.415,-127.588 598.62,-89.5864 638,-72 739.505,-26.6694 1086.26,-20.0773 1200.89,-19.1449"/>
<polygon fill="grey" stroke="grey" stroke-width="2" points="1200.95,-22.6446 1210.93,-19.0731 1200.9,-15.6447 1200.95,-22.6446"/>
</g>
<!-- 12 -->
<g id="node13" class="node"><title>12</title>
<path fill="none" stroke="#568ad8" stroke-width="2" d="M756,-712C756,-712 658,-712 658,-712 652,-712 646,-706 646,-700 646,-700 646,-680 646,-680 646,-674 652,-668 658,-668 658,-668 756,-668 756,-668 762,-668 768,-674 768,-680 768,-680 768,-700 768,-700 768,-706 762,-712 756,-712"/>
<text text-anchor="middle" x="707" y="-699" font-family="sans" font-size="10.00">bam2mpileup</text>
<text text-anchor="middle" x="707" y="-687" font-family="sans" font-size="10.00">chrB2M: _3</text>
<text text-anchor="middle" x="707" y="-675" font-family="sans" font-size="10.00">sampleB2M: Pfeiffer2</text>
</g>
<!-- 26 -->
<g id="node27" class="node"><title>26</title>
<path fill="none" stroke="#bed856" stroke-width="2" d="M771.5,-632C771.5,-632 642.5,-632 642.5,-632 636.5,-632 630.5,-626 630.5,-620 630.5,-620 630.5,-588 630.5,-588 630.5,-582 636.5,-576 642.5,-576 642.5,-576 771.5,-576 771.5,-576 777.5,-576 783.5,-582 783.5,-588 783.5,-588 783.5,-620 783.5,-620 783.5,-626 777.5,-632 771.5,-632"/>
<text text-anchor="middle" x="707" y="-619" font-family="sans" font-size="10.00">mpileup2vcf_single</text>
<text text-anchor="middle" x="707" y="-607" font-family="sans" font-size="10.00">chrMPU2VCFS: _3</text>
<text text-anchor="middle" x="707" y="-595" font-family="sans" font-size="10.00">sampleMPU2VCFS: Pfeiffer2</text>
<text text-anchor="middle" x="707" y="-583" font-family="sans" font-size="10.00">varTypeMPU2VCFS: snp</text>
</g>
<!-- 12&#45;&gt;26 -->
<g id="edge38" class="edge"><title>12&#45;&gt;26</title>
<path fill="none" stroke="grey" stroke-width="2" d="M707,-667.803C707,-660.048 707,-651.027 707,-642.282"/>
<polygon fill="grey" stroke="grey" stroke-width="2" points="710.5,-642.236 707,-632.236 703.5,-642.236 710.5,-642.236"/>
</g>
<!-- 41 -->
<g id="node42" class="node"><title>41</title>
<path fill="none" stroke="#bed856" stroke-width="2" d="M258.5,-632C258.5,-632 129.5,-632 129.5,-632 123.5,-632 117.5,-626 117.5,-620 117.5,-620 117.5,-588 117.5,-588 117.5,-582 123.5,-576 129.5,-576 129.5,-576 258.5,-576 258.5,-576 264.5,-576 270.5,-582 270.5,-588 270.5,-588 270.5,-620 270.5,-620 270.5,-626 264.5,-632 258.5,-632"/>
<text text-anchor="middle" x="194" y="-619" font-family="sans" font-size="10.00">mpileup2vcf_single</text>
<text text-anchor="middle" x="194" y="-607" font-family="sans" font-size="10.00">chrMPU2VCFS: _3</text>
<text text-anchor="middle" x="194" y="-595" font-family="sans" font-size="10.00">sampleMPU2VCFS: Pfeiffer2</text>
<text text-anchor="middle" x="194" y="-583" font-family="sans" font-size="10.00">varTypeMPU2VCFS: indel</text>
</g>
<!-- 12&#45;&gt;41 -->
<g id="edge53" class="edge"><title>12&#45;&gt;41</title>
<path fill="none" stroke="grey" stroke-width="2" d="M645.809,-684.245C564.246,-677.158 415.426,-661.614 280.823,-632.27"/>
<polygon fill="grey" stroke="grey" stroke-width="2" points="281.266,-628.784 270.746,-630.041 279.754,-635.618 281.266,-628.784"/>
</g>
<!-- 13 -->
<g id="node14" class="node"><title>13</title>
<path fill="none" stroke="#56d882" stroke-width="2" d="M1245.5,-112C1245.5,-112 1136.5,-112 1136.5,-112 1130.5,-112 1124.5,-106 1124.5,-100 1124.5,-100 1124.5,-88 1124.5,-88 1124.5,-82 1130.5,-76 1136.5,-76 1136.5,-76 1245.5,-76 1245.5,-76 1251.5,-76 1257.5,-82 1257.5,-88 1257.5,-88 1257.5,-100 1257.5,-100 1257.5,-106 1251.5,-112 1245.5,-112"/>
<text text-anchor="middle" x="1191" y="-91" font-family="sans" font-size="10.00">collectInsertSizeMERGE</text>
</g>
<!-- 13&#45;&gt;2 -->
<g id="edge8" class="edge"><title>13&#45;&gt;2</title>
<path fill="none" stroke="grey" stroke-width="2" d="M1201.9,-75.8369C1207.77,-66.5906 1215.14,-54.9976 1221.68,-44.6974"/>
<polygon fill="grey" stroke="grey" stroke-width="2" points="1224.75,-46.3878 1227.16,-36.07 1218.84,-42.6348 1224.75,-46.3878"/>
</g>
<!-- 14 -->
<g id="node15" class="node"><title>14</title>
<path fill="none" stroke="#d88d56" stroke-width="2" d="M1637.5,-1168C1637.5,-1168 1512.5,-1168 1512.5,-1168 1506.5,-1168 1500.5,-1162 1500.5,-1156 1500.5,-1156 1500.5,-1144 1500.5,-1144 1500.5,-1138 1506.5,-1132 1512.5,-1132 1512.5,-1132 1637.5,-1132 1637.5,-1132 1643.5,-1132 1649.5,-1138 1649.5,-1144 1649.5,-1144 1649.5,-1156 1649.5,-1156 1649.5,-1162 1643.5,-1168 1637.5,-1168"/>
<text text-anchor="middle" x="1575" y="-1153" font-family="sans" font-size="10.00">bamALIGN_bwa</text>
<text text-anchor="middle" x="1575" y="-1141" font-family="sans" font-size="10.00">sampleBAB: Part1&#45;Pfeiffer2</text>
</g>
<!-- 30 -->
<g id="node31" class="node"><title>30</title>
<path fill="none" stroke="#56d873" stroke-width="2" d="M1654,-1096C1654,-1096 1468,-1096 1468,-1096 1462,-1096 1456,-1090 1456,-1084 1456,-1084 1456,-1064 1456,-1064 1456,-1058 1462,-1052 1468,-1052 1468,-1052 1654,-1052 1654,-1052 1660,-1052 1666,-1058 1666,-1064 1666,-1064 1666,-1084 1666,-1084 1666,-1090 1660,-1096 1654,-1096"/>
<text text-anchor="middle" x="1561" y="-1083" font-family="sans" font-size="10.00">sortBAM_biobambam</text>
<text text-anchor="middle" x="1561" y="-1071" font-family="sans" font-size="10.00">pathSBB: output/bam</text>
<text text-anchor="middle" x="1561" y="-1059" font-family="sans" font-size="10.00">sampleSBB: Part1&#45;Pfeiffer2_Aligned.out</text>
</g>
<!-- 14&#45;&gt;30 -->
<g id="edge42" class="edge"><title>14&#45;&gt;30</title>
<path fill="none" stroke="grey" stroke-width="2" d="M1571.75,-1131.84C1570.3,-1124.16 1568.54,-1114.88 1566.87,-1106.05"/>
<polygon fill="grey" stroke="grey" stroke-width="2" points="1570.28,-1105.21 1564.98,-1096.03 1563.4,-1106.51 1570.28,-1105.21"/>
</g>
<!-- 15 -->
<g id="node16" class="node"><title>15</title>
<path fill="none" stroke="#d85656" stroke-width="2" d="M1764,-524C1764,-524 1658,-524 1658,-524 1652,-524 1646,-518 1646,-512 1646,-512 1646,-500 1646,-500 1646,-494 1652,-488 1658,-488 1658,-488 1764,-488 1764,-488 1770,-488 1776,-494 1776,-500 1776,-500 1776,-512 1776,-512 1776,-518 1770,-524 1764,-524"/>
<text text-anchor="middle" x="1711" y="-509" font-family="sans" font-size="10.00">collectWGS</text>
<text text-anchor="middle" x="1711" y="-497" font-family="sans" font-size="10.00">sampleCWGS: Pfeiffer2</text>
</g>
<!-- 56 -->
<g id="node57" class="node"><title>56</title>
<path fill="none" stroke="#56d8d8" stroke-width="2" d="M1752,-432C1752,-432 1668,-432 1668,-432 1662,-432 1656,-426 1656,-420 1656,-420 1656,-408 1656,-408 1656,-402 1662,-396 1668,-396 1668,-396 1752,-396 1752,-396 1758,-396 1764,-402 1764,-408 1764,-408 1764,-420 1764,-420 1764,-426 1758,-432 1752,-432"/>
<text text-anchor="middle" x="1710" y="-411" font-family="sans" font-size="10.00">collectWGSMERGE</text>
</g>
<!-- 15&#45;&gt;56 -->
<g id="edge75" class="edge"><title>15&#45;&gt;56</title>
<path fill="none" stroke="grey" stroke-width="2" d="M1710.81,-487.647C1710.66,-474.823 1710.47,-457.108 1710.3,-442.381"/>
<polygon fill="grey" stroke="grey" stroke-width="2" points="1713.8,-442.26 1710.19,-432.3 1706.8,-442.338 1713.8,-442.26"/>
</g>
<!-- 16 -->
<g id="node17" class="node"><title>16</title>
<path fill="none" stroke="#d89556" stroke-width="2" d="M586,-1248C586,-1248 452,-1248 452,-1248 446,-1248 440,-1242 440,-1236 440,-1236 440,-1216 440,-1216 440,-1210 446,-1204 452,-1204 452,-1204 586,-1204 586,-1204 592,-1204 598,-1210 598,-1216 598,-1216 598,-1236 598,-1236 598,-1242 592,-1248 586,-1248"/>
<text text-anchor="middle" x="519" y="-1235" font-family="sans" font-size="10.00">fastq2GZ</text>
<text text-anchor="middle" x="519" y="-1223" font-family="sans" font-size="10.00">pathFGZ: output/fastq</text>
<text text-anchor="middle" x="519" y="-1211" font-family="sans" font-size="10.00">sampleFGZ: Part3&#45;Pfeiffer2.2</text>
</g>
<!-- 34 -->
<g id="node35" class="node"><title>34</title>
<path fill="none" stroke="#d88d56" stroke-width="2" d="M757.5,-1168C757.5,-1168 632.5,-1168 632.5,-1168 626.5,-1168 620.5,-1162 620.5,-1156 620.5,-1156 620.5,-1144 620.5,-1144 620.5,-1138 626.5,-1132 632.5,-1132 632.5,-1132 757.5,-1132 757.5,-1132 763.5,-1132 769.5,-1138 769.5,-1144 769.5,-1144 769.5,-1156 769.5,-1156 769.5,-1162 763.5,-1168 757.5,-1168"/>
<text text-anchor="middle" x="695" y="-1153" font-family="sans" font-size="10.00">bamALIGN_bwa</text>
<text text-anchor="middle" x="695" y="-1141" font-family="sans" font-size="10.00">sampleBAB: Part3&#45;Pfeiffer2</text>
</g>
<!-- 16&#45;&gt;34 -->
<g id="edge47" class="edge"><title>16&#45;&gt;34</title>
<path fill="none" stroke="grey" stroke-width="2" d="M568.964,-1203.99C592.829,-1193.96 621.315,-1181.98 645.164,-1171.95"/>
<polygon fill="grey" stroke="grey" stroke-width="2" points="646.532,-1175.18 654.394,-1168.07 643.819,-1168.72 646.532,-1175.18"/>
</g>
<!-- 17 -->
<g id="node18" class="node"><title>17</title>
<path fill="none" stroke="#68d856" stroke-width="2" d="M1578,-352C1578,-352 1490,-352 1490,-352 1484,-352 1478,-346 1478,-340 1478,-340 1478,-328 1478,-328 1478,-322 1484,-316 1490,-316 1490,-316 1578,-316 1578,-316 1584,-316 1590,-322 1590,-328 1590,-328 1590,-340 1590,-340 1590,-346 1584,-352 1578,-352"/>
<text text-anchor="middle" x="1534" y="-337" font-family="sans" font-size="10.00">readLen</text>
<text text-anchor="middle" x="1534" y="-325" font-family="sans" font-size="10.00">sampleRL: Pfeiffer2</text>
</g>
<!-- 17&#45;&gt;2 -->
<g id="edge4" class="edge"><title>17&#45;&gt;2</title>
<path fill="none" stroke="grey" stroke-width="2" d="M1534.69,-315.678C1536.41,-263.24 1538.62,-107.634 1506,-72 1475.45,-38.6246 1341.58,-25.5588 1275.36,-21.068"/>
<polygon fill="grey" stroke="grey" stroke-width="2" points="1275.54,-17.5727 1265.34,-20.4191 1275.09,-24.5581 1275.54,-17.5727"/>
</g>
<!-- 18 -->
<g id="node19" class="node"><title>18</title>
<path fill="none" stroke="#a7d856" stroke-width="2" d="M843.5,-1016C843.5,-1016 628.5,-1016 628.5,-1016 622.5,-1016 616.5,-1010 616.5,-1004 616.5,-1004 616.5,-984 616.5,-984 616.5,-978 622.5,-972 628.5,-972 628.5,-972 843.5,-972 843.5,-972 849.5,-972 855.5,-978 855.5,-984 855.5,-984 855.5,-1004 855.5,-1004 855.5,-1010 849.5,-1016 843.5,-1016"/>
<text text-anchor="middle" x="736" y="-1003" font-family="sans" font-size="10.00">filteredBAM</text>
<text text-anchor="middle" x="736" y="-991" font-family="sans" font-size="10.00">pathFB: output/bam</text>
<text text-anchor="middle" x="736" y="-979" font-family="sans" font-size="10.00">sampleFB: Part3&#45;Pfeiffer2_Aligned.out_sorted</text>
</g>
<!-- 51 -->
<g id="node52" class="node"><title>51</title>
<path fill="none" stroke="#5663d8" stroke-width="2" d="M1179.5,-936C1179.5,-936 1088.5,-936 1088.5,-936 1082.5,-936 1076.5,-930 1076.5,-924 1076.5,-924 1076.5,-912 1076.5,-912 1076.5,-906 1082.5,-900 1088.5,-900 1088.5,-900 1179.5,-900 1179.5,-900 1185.5,-900 1191.5,-906 1191.5,-912 1191.5,-912 1191.5,-924 1191.5,-924 1191.5,-930 1185.5,-936 1179.5,-936"/>
<text text-anchor="middle" x="1134" y="-921" font-family="sans" font-size="10.00">mergeBAM</text>
<text text-anchor="middle" x="1134" y="-909" font-family="sans" font-size="10.00">sampleMB: Pfeiffer2</text>
</g>
<!-- 18&#45;&gt;51 -->
<g id="edge66" class="edge"><title>18&#45;&gt;51</title>
<path fill="none" stroke="grey" stroke-width="2" d="M848.986,-971.993C919.049,-958.966 1006.73,-942.664 1066.2,-931.606"/>
<polygon fill="grey" stroke="grey" stroke-width="2" points="1067.04,-935.01 1076.23,-929.741 1065.76,-928.128 1067.04,-935.01"/>
</g>
<!-- 19 -->
<g id="node20" class="node"><title>19</title>
<path fill="none" stroke="#56a2d8" stroke-width="2" d="M1399,-192C1399,-192 1299,-192 1299,-192 1293,-192 1287,-186 1287,-180 1287,-180 1287,-168 1287,-168 1287,-162 1293,-156 1299,-156 1299,-156 1399,-156 1399,-156 1405,-156 1411,-162 1411,-168 1411,-168 1411,-180 1411,-180 1411,-186 1405,-192 1399,-192"/>
<text text-anchor="middle" x="1349" y="-177" font-family="sans" font-size="10.00">collectMultMetrics</text>
<text text-anchor="middle" x="1349" y="-165" font-family="sans" font-size="10.00">sampleCMM: Pfeiffer2</text>
</g>
<!-- 19&#45;&gt;2 -->
<g id="edge6" class="edge"><title>19&#45;&gt;2</title>
<path fill="none" stroke="grey" stroke-width="2" d="M1335.48,-155.969C1326.65,-144.733 1314.96,-129.628 1305,-116 1287.52,-92.066 1268.37,-64.1691 1255.04,-44.4523"/>
<polygon fill="grey" stroke="grey" stroke-width="2" points="1257.84,-42.3484 1249.35,-36.0125 1252.04,-46.2609 1257.84,-42.3484"/>
</g>
<!-- 19&#45;&gt;13 -->
<g id="edge23" class="edge"><title>19&#45;&gt;13</title>
<path fill="none" stroke="grey" stroke-width="2" d="M1314.33,-155.883C1290.97,-144.351 1259.96,-129.045 1234.89,-116.665"/>
<polygon fill="grey" stroke="grey" stroke-width="2" points="1236.11,-113.366 1225.59,-112.078 1233.01,-119.643 1236.11,-113.366"/>
</g>
<!-- 42 -->
<g id="node43" class="node"><title>42</title>
<path fill="none" stroke="#56b9d8" stroke-width="2" d="M1485.5,-112C1485.5,-112 1326.5,-112 1326.5,-112 1320.5,-112 1314.5,-106 1314.5,-100 1314.5,-100 1314.5,-88 1314.5,-88 1314.5,-82 1320.5,-76 1326.5,-76 1326.5,-76 1485.5,-76 1485.5,-76 1491.5,-76 1497.5,-82 1497.5,-88 1497.5,-88 1497.5,-100 1497.5,-100 1497.5,-106 1491.5,-112 1485.5,-112"/>
<text text-anchor="middle" x="1406" y="-91" font-family="sans" font-size="10.00">collectAlignmentSummaryMERGE</text>
</g>
<!-- 19&#45;&gt;42 -->
<g id="edge54" class="edge"><title>19&#45;&gt;42</title>
<path fill="none" stroke="grey" stroke-width="2" d="M1361.65,-155.689C1369.18,-145.389 1378.87,-132.129 1387.27,-120.632"/>
<polygon fill="grey" stroke="grey" stroke-width="2" points="1390.31,-122.401 1393.39,-112.262 1384.66,-118.271 1390.31,-122.401"/>
</g>
<!-- 20 -->
<g id="node21" class="node"><title>20</title>
<path fill="none" stroke="#d8d356" stroke-width="2" d="M614,-540C614,-540 446,-540 446,-540 440,-540 434,-534 434,-528 434,-528 434,-484 434,-484 434,-478 440,-472 446,-472 446,-472 614,-472 614,-472 620,-472 626,-478 626,-484 626,-484 626,-528 626,-528 626,-534 620,-540 614,-540"/>
<text text-anchor="middle" x="530" y="-527" font-family="sans" font-size="10.00">mergeVCF</text>
<text text-anchor="middle" x="530" y="-515" font-family="sans" font-size="10.00">pathMV: output/vcfGenUtil_varScan</text>
<text text-anchor="middle" x="530" y="-503" font-family="sans" font-size="10.00">sampleMVCF: Pfeiffer2</text>
<text text-anchor="middle" x="530" y="-491" font-family="sans" font-size="10.00">varTypeMVCF: indel</text>
<text text-anchor="middle" x="530" y="-479" font-family="sans" font-size="10.00">vcfProgramMVCF: varScan</text>
</g>
<!-- 33 -->
<g id="node34" class="node"><title>33</title>
<path fill="none" stroke="#d8bc56" stroke-width="2" d="M613.5,-436C613.5,-436 446.5,-436 446.5,-436 440.5,-436 434.5,-430 434.5,-424 434.5,-424 434.5,-404 434.5,-404 434.5,-398 440.5,-392 446.5,-392 446.5,-392 613.5,-392 613.5,-392 619.5,-392 625.5,-398 625.5,-404 625.5,-404 625.5,-424 625.5,-424 625.5,-430 619.5,-436 613.5,-436"/>
<text text-anchor="middle" x="530" y="-423" font-family="sans" font-size="10.00">canonical</text>
<text text-anchor="middle" x="530" y="-411" font-family="sans" font-size="10.00">pathCAN: vcfGenUtil_varScan</text>
<text text-anchor="middle" x="530" y="-399" font-family="sans" font-size="10.00">sampleCAN: Pfeiffer2.varScan.indel</text>
</g>
<!-- 20&#45;&gt;33 -->
<g id="edge45" class="edge"><title>20&#45;&gt;33</title>
<path fill="none" stroke="grey" stroke-width="2" d="M530,-471.998C530,-463.603 530,-454.607 530,-446.299"/>
<polygon fill="grey" stroke="grey" stroke-width="2" points="533.5,-446.241 530,-436.241 526.5,-446.242 533.5,-446.241"/>
</g>
<!-- 21&#45;&gt;14 -->
<g id="edge25" class="edge"><title>21&#45;&gt;14</title>
<path fill="none" stroke="grey" stroke-width="2" d="M1575,-1203.99C1575,-1196.06 1575,-1186.91 1575,-1178.48"/>
<polygon fill="grey" stroke="grey" stroke-width="2" points="1578.5,-1178.31 1575,-1168.31 1571.5,-1178.31 1578.5,-1178.31"/>
</g>
<!-- 22 -->
<g id="node23" class="node"><title>22</title>
<path fill="none" stroke="#56b1d8" stroke-width="2" d="M1376,-1320C1376,-1320 1246,-1320 1246,-1320 1240,-1320 1234,-1314 1234,-1308 1234,-1308 1234,-1296 1234,-1296 1234,-1290 1240,-1284 1246,-1284 1246,-1284 1376,-1284 1376,-1284 1382,-1284 1388,-1290 1388,-1296 1388,-1296 1388,-1308 1388,-1308 1388,-1314 1382,-1320 1376,-1320"/>
<text text-anchor="middle" x="1311" y="-1305" font-family="sans" font-size="10.00">bam2fastq_picard</text>
<text text-anchor="middle" x="1311" y="-1293" font-family="sans" font-size="10.00">sampleB2FP: Part2&#45;Pfeiffer2</text>
</g>
<!-- 22&#45;&gt;0 -->
<g id="edge1" class="edge"><title>22&#45;&gt;0</title>
<path fill="none" stroke="grey" stroke-width="2" d="M1290.59,-1283.84C1280.28,-1275.16 1267.51,-1264.43 1255.86,-1254.63"/>
<polygon fill="grey" stroke="grey" stroke-width="2" points="1257.92,-1251.79 1248.01,-1248.03 1253.41,-1257.15 1257.92,-1251.79"/>
</g>
<!-- 54 -->
<g id="node55" class="node"><title>54</title>
<path fill="none" stroke="#d89556" stroke-width="2" d="M1466,-1248C1466,-1248 1332,-1248 1332,-1248 1326,-1248 1320,-1242 1320,-1236 1320,-1236 1320,-1216 1320,-1216 1320,-1210 1326,-1204 1332,-1204 1332,-1204 1466,-1204 1466,-1204 1472,-1204 1478,-1210 1478,-1216 1478,-1216 1478,-1236 1478,-1236 1478,-1242 1472,-1248 1466,-1248"/>
<text text-anchor="middle" x="1399" y="-1235" font-family="sans" font-size="10.00">fastq2GZ</text>
<text text-anchor="middle" x="1399" y="-1223" font-family="sans" font-size="10.00">pathFGZ: output/fastq</text>
<text text-anchor="middle" x="1399" y="-1211" font-family="sans" font-size="10.00">sampleFGZ: Part2&#45;Pfeiffer2.2</text>
</g>
<!-- 22&#45;&gt;54 -->
<g id="edge70" class="edge"><title>22&#45;&gt;54</title>
<path fill="none" stroke="grey" stroke-width="2" d="M1331.41,-1283.84C1341.72,-1275.16 1354.49,-1264.43 1366.14,-1254.63"/>
<polygon fill="grey" stroke="grey" stroke-width="2" points="1368.59,-1257.15 1373.99,-1248.03 1364.08,-1251.79 1368.59,-1257.15"/>
</g>
<!-- 23 -->
<g id="node24" class="node"><title>23</title>
<path fill="none" stroke="#56b1d8" stroke-width="2" d="M672,-1320C672,-1320 542,-1320 542,-1320 536,-1320 530,-1314 530,-1308 530,-1308 530,-1296 530,-1296 530,-1290 536,-1284 542,-1284 542,-1284 672,-1284 672,-1284 678,-1284 684,-1290 684,-1296 684,-1296 684,-1308 684,-1308 684,-1314 678,-1320 672,-1320"/>
<text text-anchor="middle" x="607" y="-1305" font-family="sans" font-size="10.00">bam2fastq_picard</text>
<text text-anchor="middle" x="607" y="-1293" font-family="sans" font-size="10.00">sampleB2FP: Part3&#45;Pfeiffer2</text>
</g>
<!-- 23&#45;&gt;16 -->
<g id="edge27" class="edge"><title>23&#45;&gt;16</title>
<path fill="none" stroke="grey" stroke-width="2" d="M586.59,-1283.84C576.276,-1275.16 563.508,-1264.43 551.856,-1254.63"/>
<polygon fill="grey" stroke="grey" stroke-width="2" points="553.918,-1251.79 544.011,-1248.03 549.412,-1257.15 553.918,-1251.79"/>
</g>
<!-- 58 -->
<g id="node59" class="node"><title>58</title>
<path fill="none" stroke="#d89556" stroke-width="2" d="M762,-1248C762,-1248 628,-1248 628,-1248 622,-1248 616,-1242 616,-1236 616,-1236 616,-1216 616,-1216 616,-1210 622,-1204 628,-1204 628,-1204 762,-1204 762,-1204 768,-1204 774,-1210 774,-1216 774,-1216 774,-1236 774,-1236 774,-1242 768,-1248 762,-1248"/>
<text text-anchor="middle" x="695" y="-1235" font-family="sans" font-size="10.00">fastq2GZ</text>
<text text-anchor="middle" x="695" y="-1223" font-family="sans" font-size="10.00">pathFGZ: output/fastq</text>
<text text-anchor="middle" x="695" y="-1211" font-family="sans" font-size="10.00">sampleFGZ: Part3&#45;Pfeiffer2.1</text>
</g>
<!-- 23&#45;&gt;58 -->
<g id="edge77" class="edge"><title>23&#45;&gt;58</title>
<path fill="none" stroke="grey" stroke-width="2" d="M627.41,-1283.84C637.724,-1275.16 650.492,-1264.43 662.144,-1254.63"/>
<polygon fill="grey" stroke="grey" stroke-width="2" points="664.588,-1257.15 669.989,-1248.03 660.082,-1251.79 664.588,-1257.15"/>
</g>
<!-- 24 -->
<g id="node25" class="node"><title>24</title>
<path fill="none" stroke="#bed856" stroke-width="2" d="M1113.5,-632C1113.5,-632 984.5,-632 984.5,-632 978.5,-632 972.5,-626 972.5,-620 972.5,-620 972.5,-588 972.5,-588 972.5,-582 978.5,-576 984.5,-576 984.5,-576 1113.5,-576 1113.5,-576 1119.5,-576 1125.5,-582 1125.5,-588 1125.5,-588 1125.5,-620 1125.5,-620 1125.5,-626 1119.5,-632 1113.5,-632"/>
<text text-anchor="middle" x="1049" y="-619" font-family="sans" font-size="10.00">mpileup2vcf_single</text>
<text text-anchor="middle" x="1049" y="-607" font-family="sans" font-size="10.00">chrMPU2VCFS: _4</text>
<text text-anchor="middle" x="1049" y="-595" font-family="sans" font-size="10.00">sampleMPU2VCFS: Pfeiffer2</text>
<text text-anchor="middle" x="1049" y="-583" font-family="sans" font-size="10.00">varTypeMPU2VCFS: snp</text>
</g>
<!-- 24&#45;&gt;55 -->
<g id="edge73" class="edge"><title>24&#45;&gt;55</title>
<path fill="none" stroke="grey" stroke-width="2" d="M1027.14,-575.747C1020.26,-567.172 1012.51,-557.504 1005.03,-548.185"/>
<polygon fill="grey" stroke="grey" stroke-width="2" points="1007.55,-545.733 998.566,-540.122 1002.09,-550.112 1007.55,-545.733"/>
</g>
<!-- 25 -->
<g id="node26" class="node"><title>25</title>
<path fill="none" stroke="#d89556" stroke-width="2" d="M938,-1248C938,-1248 804,-1248 804,-1248 798,-1248 792,-1242 792,-1236 792,-1236 792,-1216 792,-1216 792,-1210 798,-1204 804,-1204 804,-1204 938,-1204 938,-1204 944,-1204 950,-1210 950,-1216 950,-1216 950,-1236 950,-1236 950,-1242 944,-1248 938,-1248"/>
<text text-anchor="middle" x="871" y="-1235" font-family="sans" font-size="10.00">fastq2GZ</text>
<text text-anchor="middle" x="871" y="-1223" font-family="sans" font-size="10.00">pathFGZ: output/fastq</text>
<text text-anchor="middle" x="871" y="-1211" font-family="sans" font-size="10.00">sampleFGZ: Part4&#45;Pfeiffer2.1</text>
</g>
<!-- 25&#45;&gt;8 -->
<g id="edge17" class="edge"><title>25&#45;&gt;8</title>
<path fill="none" stroke="grey" stroke-width="2" d="M909.324,-1203.99C926.982,-1194.31 947.938,-1182.83 965.818,-1173.03"/>
<polygon fill="grey" stroke="grey" stroke-width="2" points="967.767,-1175.95 974.853,-1168.07 964.402,-1169.81 967.767,-1175.95"/>
</g>
<!-- 26&#45;&gt;55 -->
<g id="edge72" class="edge"><title>26&#45;&gt;55</title>
<path fill="none" stroke="grey" stroke-width="2" d="M781.876,-575.875C809.635,-565.819 841.586,-554.244 871.274,-543.489"/>
<polygon fill="grey" stroke="grey" stroke-width="2" points="872.616,-546.726 880.826,-540.029 870.232,-540.144 872.616,-546.726"/>
</g>
<!-- 27&#45;&gt;14 -->
<g id="edge24" class="edge"><title>27&#45;&gt;14</title>
<path fill="none" stroke="grey" stroke-width="2" d="M1701.04,-1203.99C1677.17,-1193.96 1648.68,-1181.98 1624.84,-1171.95"/>
<polygon fill="grey" stroke="grey" stroke-width="2" points="1626.18,-1168.72 1615.61,-1168.07 1623.47,-1175.18 1626.18,-1168.72"/>
</g>
<!-- 28&#45;&gt;51 -->
<g id="edge67" class="edge"><title>28&#45;&gt;51</title>
<path fill="none" stroke="grey" stroke-width="2" d="M1042.34,-971.993C1058.93,-962.402 1078.58,-951.037 1095.43,-941.296"/>
<polygon fill="grey" stroke="grey" stroke-width="2" points="1097.56,-944.108 1104.47,-936.073 1094.06,-938.048 1097.56,-944.108"/>
</g>
<!-- 29 -->
<g id="node30" class="node"><title>29</title>
<path fill="none" stroke="#59d856" stroke-width="2" d="M1201,-196C1201,-196 743,-196 743,-196 737,-196 731,-190 731,-184 731,-184 731,-164 731,-164 731,-158 737,-152 743,-152 743,-152 1201,-152 1201,-152 1207,-152 1213,-158 1213,-164 1213,-164 1213,-184 1213,-184 1213,-190 1207,-196 1201,-196"/>
<text text-anchor="middle" x="972" y="-183" font-family="sans" font-size="10.00">getVcfTable</text>
<text text-anchor="middle" x="972" y="-171" font-family="sans" font-size="10.00">pathGVCFT: output/vcfGenUtil_varScan</text>
<text text-anchor="middle" x="972" y="-159" font-family="sans" font-size="10.00">sampleGVCFT: Pfeiffer2.varScan.snp.canonical_annotated.dbsnp_annotated.cosmic_annotated</text>
</g>
<!-- 37 -->
<g id="node38" class="node"><title>37</title>
<path fill="none" stroke="#d86e56" stroke-width="2" d="M1094.5,-116C1094.5,-116 659.5,-116 659.5,-116 653.5,-116 647.5,-110 647.5,-104 647.5,-104 647.5,-84 647.5,-84 647.5,-78 653.5,-72 659.5,-72 659.5,-72 1094.5,-72 1094.5,-72 1100.5,-72 1106.5,-78 1106.5,-84 1106.5,-84 1106.5,-104 1106.5,-104 1106.5,-110 1100.5,-116 1094.5,-116"/>
<text text-anchor="middle" x="877" y="-103" font-family="sans" font-size="10.00">tableMERGE</text>
<text text-anchor="middle" x="877" y="-91" font-family="sans" font-size="10.00">annotationSUFFIX: varScan.snp.canonical_annotated.dbsnp_annotated.cosmic_annotated</text>
<text text-anchor="middle" x="877" y="-79" font-family="sans" font-size="10.00">tableMergeDIR: vcfGenUtil_varScan/tables</text>
</g>
<!-- 29&#45;&gt;37 -->
<g id="edge50" class="edge"><title>29&#45;&gt;37</title>
<path fill="none" stroke="grey" stroke-width="2" d="M946.041,-151.686C935.06,-142.671 922.131,-132.055 910.449,-122.463"/>
<polygon fill="grey" stroke="grey" stroke-width="2" points="912.549,-119.659 902.599,-116.018 908.107,-125.069 912.549,-119.659"/>
</g>
<!-- 57 -->
<g id="node58" class="node"><title>57</title>
<path fill="none" stroke="#a7d856" stroke-width="2" d="M1641.5,-1016C1641.5,-1016 1426.5,-1016 1426.5,-1016 1420.5,-1016 1414.5,-1010 1414.5,-1004 1414.5,-1004 1414.5,-984 1414.5,-984 1414.5,-978 1420.5,-972 1426.5,-972 1426.5,-972 1641.5,-972 1641.5,-972 1647.5,-972 1653.5,-978 1653.5,-984 1653.5,-984 1653.5,-1004 1653.5,-1004 1653.5,-1010 1647.5,-1016 1641.5,-1016"/>
<text text-anchor="middle" x="1534" y="-1003" font-family="sans" font-size="10.00">filteredBAM</text>
<text text-anchor="middle" x="1534" y="-991" font-family="sans" font-size="10.00">pathFB: output/bam</text>
<text text-anchor="middle" x="1534" y="-979" font-family="sans" font-size="10.00">sampleFB: Part1&#45;Pfeiffer2_Aligned.out_sorted</text>
</g>
<!-- 30&#45;&gt;57 -->
<g id="edge76" class="edge"><title>30&#45;&gt;57</title>
<path fill="none" stroke="grey" stroke-width="2" d="M1553.62,-1051.69C1550.83,-1043.62 1547.6,-1034.28 1544.57,-1025.54"/>
<polygon fill="grey" stroke="grey" stroke-width="2" points="1547.85,-1024.32 1541.28,-1016.02 1541.24,-1026.61 1547.85,-1024.32"/>
</g>
<!-- 31 -->
<g id="node32" class="node"><title>31</title>
<path fill="none" stroke="#bed856" stroke-width="2" d="M1284.5,-632C1284.5,-632 1155.5,-632 1155.5,-632 1149.5,-632 1143.5,-626 1143.5,-620 1143.5,-620 1143.5,-588 1143.5,-588 1143.5,-582 1149.5,-576 1155.5,-576 1155.5,-576 1284.5,-576 1284.5,-576 1290.5,-576 1296.5,-582 1296.5,-588 1296.5,-588 1296.5,-620 1296.5,-620 1296.5,-626 1290.5,-632 1284.5,-632"/>
<text text-anchor="middle" x="1220" y="-619" font-family="sans" font-size="10.00">mpileup2vcf_single</text>
<text text-anchor="middle" x="1220" y="-607" font-family="sans" font-size="10.00">chrMPU2VCFS: _2</text>
<text text-anchor="middle" x="1220" y="-595" font-family="sans" font-size="10.00">sampleMPU2VCFS: Pfeiffer2</text>
<text text-anchor="middle" x="1220" y="-583" font-family="sans" font-size="10.00">varTypeMPU2VCFS: indel</text>
</g>
<!-- 31&#45;&gt;20 -->
<g id="edge32" class="edge"><title>31&#45;&gt;20</title>
<path fill="none" stroke="grey" stroke-width="2" d="M1143.3,-578.124C1140.17,-577.362 1137.06,-576.649 1134,-576 1086.64,-565.957 796.928,-534.868 636.569,-518.059"/>
<polygon fill="grey" stroke="grey" stroke-width="2" points="636.508,-514.533 626.197,-516.972 635.778,-521.495 636.508,-514.533"/>
</g>
<!-- 32 -->
<g id="node33" class="node"><title>32</title>
<path fill="none" stroke="#56d8d0" stroke-width="2" d="M1252.5,-864C1252.5,-864 1015.5,-864 1015.5,-864 1009.5,-864 1003.5,-858 1003.5,-852 1003.5,-852 1003.5,-832 1003.5,-832 1003.5,-826 1009.5,-820 1015.5,-820 1015.5,-820 1252.5,-820 1252.5,-820 1258.5,-820 1264.5,-826 1264.5,-832 1264.5,-832 1264.5,-852 1264.5,-852 1264.5,-858 1258.5,-864 1252.5,-864"/>
<text text-anchor="middle" x="1134" y="-851" font-family="sans" font-size="10.00">markdupBAM</text>
<text text-anchor="middle" x="1134" y="-839" font-family="sans" font-size="10.00">outputDIR: output</text>
<text text-anchor="middle" x="1134" y="-827" font-family="sans" font-size="10.00">sampleMDB: Pfeiffer2_Aligned.out_sorted_filtered</text>
</g>
<!-- 43 -->
<g id="node44" class="node"><title>43</title>
<path fill="none" stroke="#56d89a" stroke-width="2" d="M1177,-784C1177,-784 1091,-784 1091,-784 1085,-784 1079,-778 1079,-772 1079,-772 1079,-760 1079,-760 1079,-754 1085,-748 1091,-748 1091,-748 1177,-748 1177,-748 1183,-748 1189,-754 1189,-760 1189,-760 1189,-772 1189,-772 1189,-778 1183,-784 1177,-784"/>
<text text-anchor="middle" x="1134" y="-769" font-family="sans" font-size="10.00">indexBAM</text>
<text text-anchor="middle" x="1134" y="-757" font-family="sans" font-size="10.00">sampleIB: Pfeiffer2</text>
</g>
<!-- 32&#45;&gt;43 -->
<g id="edge55" class="edge"><title>32&#45;&gt;43</title>
<path fill="none" stroke="grey" stroke-width="2" d="M1134,-819.993C1134,-812.061 1134,-802.915 1134,-794.478"/>
<polygon fill="grey" stroke="grey" stroke-width="2" points="1137.5,-794.315 1134,-784.315 1130.5,-794.315 1137.5,-794.315"/>
</g>
<!-- 33&#45;&gt;1 -->
<g id="edge2" class="edge"><title>33&#45;&gt;1</title>
<path fill="none" stroke="grey" stroke-width="2" d="M530,-391.686C530,-383.798 530,-374.684 530,-366.103"/>
<polygon fill="grey" stroke="grey" stroke-width="2" points="533.5,-366.018 530,-356.018 526.5,-366.018 533.5,-366.018"/>
</g>
<!-- 39 -->
<g id="node40" class="node"><title>39</title>
<path fill="none" stroke="#56d873" stroke-width="2" d="M802,-1096C802,-1096 616,-1096 616,-1096 610,-1096 604,-1090 604,-1084 604,-1084 604,-1064 604,-1064 604,-1058 610,-1052 616,-1052 616,-1052 802,-1052 802,-1052 808,-1052 814,-1058 814,-1064 814,-1064 814,-1084 814,-1084 814,-1090 808,-1096 802,-1096"/>
<text text-anchor="middle" x="709" y="-1083" font-family="sans" font-size="10.00">sortBAM_biobambam</text>
<text text-anchor="middle" x="709" y="-1071" font-family="sans" font-size="10.00">pathSBB: output/bam</text>
<text text-anchor="middle" x="709" y="-1059" font-family="sans" font-size="10.00">sampleSBB: Part3&#45;Pfeiffer2_Aligned.out</text>
</g>
<!-- 34&#45;&gt;39 -->
<g id="edge51" class="edge"><title>34&#45;&gt;39</title>
<path fill="none" stroke="grey" stroke-width="2" d="M698.247,-1131.84C699.699,-1124.16 701.456,-1114.88 703.125,-1106.05"/>
<polygon fill="grey" stroke="grey" stroke-width="2" points="706.601,-1106.51 705.021,-1096.03 699.723,-1105.21 706.601,-1106.51"/>
</g>
<!-- 35 -->
<g id="node36" class="node"><title>35</title>
<path fill="none" stroke="#5692d8" stroke-width="2" d="M1111,-356C1111,-356 833,-356 833,-356 827,-356 821,-350 821,-344 821,-344 821,-324 821,-324 821,-318 827,-312 833,-312 833,-312 1111,-312 1111,-312 1117,-312 1123,-318 1123,-324 1123,-324 1123,-344 1123,-344 1123,-350 1117,-356 1111,-356"/>
<text text-anchor="middle" x="972" y="-343" font-family="sans" font-size="10.00">dbsnp</text>
<text text-anchor="middle" x="972" y="-331" font-family="sans" font-size="10.00">pathDbSnp: output/vcfGenUtil_varScan</text>
<text text-anchor="middle" x="972" y="-319" font-family="sans" font-size="10.00">sampleDbSnp: Pfeiffer2.varScan.snp.canonical_annotated</text>
</g>
<!-- 52 -->
<g id="node53" class="node"><title>52</title>
<path fill="none" stroke="#56d85b" stroke-width="2" d="M1149,-276C1149,-276 795,-276 795,-276 789,-276 783,-270 783,-264 783,-264 783,-244 783,-244 783,-238 789,-232 795,-232 795,-232 1149,-232 1149,-232 1155,-232 1161,-238 1161,-244 1161,-244 1161,-264 1161,-264 1161,-270 1155,-276 1149,-276"/>
<text text-anchor="middle" x="972" y="-263" font-family="sans" font-size="10.00">cosmic</text>
<text text-anchor="middle" x="972" y="-251" font-family="sans" font-size="10.00">pathCOS: output/vcfGenUtil_varScan</text>
<text text-anchor="middle" x="972" y="-239" font-family="sans" font-size="10.00">sampleCOS: Pfeiffer2.varScan.snp.canonical_annotated.dbsnp_annotated</text>
</g>
<!-- 35&#45;&gt;52 -->
<g id="edge68" class="edge"><title>35&#45;&gt;52</title>
<path fill="none" stroke="grey" stroke-width="2" d="M972,-311.686C972,-303.798 972,-294.684 972,-286.103"/>
<polygon fill="grey" stroke="grey" stroke-width="2" points="975.5,-286.018 972,-276.018 968.5,-286.018 975.5,-286.018"/>
</g>
<!-- 36 -->
<g id="node37" class="node"><title>36</title>
<path fill="none" stroke="#d8bc56" stroke-width="2" d="M1052,-436C1052,-436 892,-436 892,-436 886,-436 880,-430 880,-424 880,-424 880,-404 880,-404 880,-398 886,-392 892,-392 892,-392 1052,-392 1052,-392 1058,-392 1064,-398 1064,-404 1064,-404 1064,-424 1064,-424 1064,-430 1058,-436 1052,-436"/>
<text text-anchor="middle" x="972" y="-423" font-family="sans" font-size="10.00">canonical</text>
<text text-anchor="middle" x="972" y="-411" font-family="sans" font-size="10.00">pathCAN: vcfGenUtil_varScan</text>
<text text-anchor="middle" x="972" y="-399" font-family="sans" font-size="10.00">sampleCAN: Pfeiffer2.varScan.snp</text>
</g>
<!-- 36&#45;&gt;35 -->
<g id="edge48" class="edge"><title>36&#45;&gt;35</title>
<path fill="none" stroke="grey" stroke-width="2" d="M972,-391.686C972,-383.798 972,-374.684 972,-366.103"/>
<polygon fill="grey" stroke="grey" stroke-width="2" points="975.5,-366.018 972,-356.018 968.5,-366.018 975.5,-366.018"/>
</g>
<!-- 37&#45;&gt;2 -->
<g id="edge11" class="edge"><title>37&#45;&gt;2</title>
<path fill="none" stroke="grey" stroke-width="2" d="M979.482,-71.9925C1053.39,-56.8417 1148.92,-37.2609 1200.67,-26.6519"/>
<polygon fill="grey" stroke="grey" stroke-width="2" points="1201.63,-30.0283 1210.72,-24.5914 1200.22,-23.1709 1201.63,-30.0283"/>
</g>
<!-- 38 -->
<g id="node39" class="node"><title>38</title>
<path fill="none" stroke="#56b1d8" stroke-width="2" d="M1023.5,-1320C1023.5,-1320 894.5,-1320 894.5,-1320 888.5,-1320 882.5,-1314 882.5,-1308 882.5,-1308 882.5,-1296 882.5,-1296 882.5,-1290 888.5,-1284 894.5,-1284 894.5,-1284 1023.5,-1284 1023.5,-1284 1029.5,-1284 1035.5,-1290 1035.5,-1296 1035.5,-1296 1035.5,-1308 1035.5,-1308 1035.5,-1314 1029.5,-1320 1023.5,-1320"/>
<text text-anchor="middle" x="959" y="-1305" font-family="sans" font-size="10.00">bam2fastq_picard</text>
<text text-anchor="middle" x="959" y="-1293" font-family="sans" font-size="10.00">sampleB2FP: Part4&#45;Pfeiffer2</text>
</g>
<!-- 38&#45;&gt;25 -->
<g id="edge37" class="edge"><title>38&#45;&gt;25</title>
<path fill="none" stroke="grey" stroke-width="2" d="M938.59,-1283.84C928.276,-1275.16 915.508,-1264.43 903.856,-1254.63"/>
<polygon fill="grey" stroke="grey" stroke-width="2" points="905.918,-1251.79 896.011,-1248.03 901.412,-1257.15 905.918,-1251.79"/>
</g>
<!-- 46 -->
<g id="node47" class="node"><title>46</title>
<path fill="none" stroke="#d89556" stroke-width="2" d="M1114,-1248C1114,-1248 980,-1248 980,-1248 974,-1248 968,-1242 968,-1236 968,-1236 968,-1216 968,-1216 968,-1210 974,-1204 980,-1204 980,-1204 1114,-1204 1114,-1204 1120,-1204 1126,-1210 1126,-1216 1126,-1216 1126,-1236 1126,-1236 1126,-1242 1120,-1248 1114,-1248"/>
<text text-anchor="middle" x="1047" y="-1235" font-family="sans" font-size="10.00">fastq2GZ</text>
<text text-anchor="middle" x="1047" y="-1223" font-family="sans" font-size="10.00">pathFGZ: output/fastq</text>
<text text-anchor="middle" x="1047" y="-1211" font-family="sans" font-size="10.00">sampleFGZ: Part4&#45;Pfeiffer2.2</text>
</g>
<!-- 38&#45;&gt;46 -->
<g id="edge58" class="edge"><title>38&#45;&gt;46</title>
<path fill="none" stroke="grey" stroke-width="2" d="M979.41,-1283.84C989.724,-1275.16 1002.49,-1264.43 1014.14,-1254.63"/>
<polygon fill="grey" stroke="grey" stroke-width="2" points="1016.59,-1257.15 1021.99,-1248.03 1012.08,-1251.79 1016.59,-1257.15"/>
</g>
<!-- 39&#45;&gt;18 -->
<g id="edge29" class="edge"><title>39&#45;&gt;18</title>
<path fill="none" stroke="grey" stroke-width="2" d="M716.378,-1051.69C719.169,-1043.62 722.402,-1034.28 725.429,-1025.54"/>
<polygon fill="grey" stroke="grey" stroke-width="2" points="728.761,-1026.61 728.725,-1016.02 722.146,-1024.32 728.761,-1026.61"/>
</g>
<!-- 40 -->
<g id="node41" class="node"><title>40</title>
<path fill="none" stroke="#bed856" stroke-width="2" d="M600.5,-632C600.5,-632 471.5,-632 471.5,-632 465.5,-632 459.5,-626 459.5,-620 459.5,-620 459.5,-588 459.5,-588 459.5,-582 465.5,-576 471.5,-576 471.5,-576 600.5,-576 600.5,-576 606.5,-576 612.5,-582 612.5,-588 612.5,-588 612.5,-620 612.5,-620 612.5,-626 606.5,-632 600.5,-632"/>
<text text-anchor="middle" x="536" y="-619" font-family="sans" font-size="10.00">mpileup2vcf_single</text>
<text text-anchor="middle" x="536" y="-607" font-family="sans" font-size="10.00">chrMPU2VCFS: _4</text>
<text text-anchor="middle" x="536" y="-595" font-family="sans" font-size="10.00">sampleMPU2VCFS: Pfeiffer2</text>
<text text-anchor="middle" x="536" y="-583" font-family="sans" font-size="10.00">varTypeMPU2VCFS: indel</text>
</g>
<!-- 40&#45;&gt;20 -->
<g id="edge31" class="edge"><title>40&#45;&gt;20</title>
<path fill="none" stroke="grey" stroke-width="2" d="M534.297,-575.747C533.799,-567.779 533.242,-558.865 532.698,-550.166"/>
<polygon fill="grey" stroke="grey" stroke-width="2" points="536.187,-549.884 532.07,-540.122 529.201,-550.321 536.187,-549.884"/>
</g>
<!-- 41&#45;&gt;20 -->
<g id="edge33" class="edge"><title>41&#45;&gt;20</title>
<path fill="none" stroke="grey" stroke-width="2" d="M270.869,-578.434C273.611,-577.605 276.328,-576.791 279,-576 326.435,-561.952 379.198,-547.302 424.059,-535.133"/>
<polygon fill="grey" stroke="grey" stroke-width="2" points="425.063,-538.487 433.801,-532.495 423.234,-531.73 425.063,-538.487"/>
</g>
<!-- 42&#45;&gt;2 -->
<g id="edge7" class="edge"><title>42&#45;&gt;2</title>
<path fill="none" stroke="grey" stroke-width="2" d="M1367.04,-75.8369C1339.12,-63.5388 1301.77,-47.0895 1274.44,-35.052"/>
<polygon fill="grey" stroke="grey" stroke-width="2" points="1275.79,-31.8203 1265.23,-30.9922 1272.97,-38.2264 1275.79,-31.8203"/>
</g>
<!-- 43&#45;&gt;3 -->
<g id="edge13" class="edge"><title>43&#45;&gt;3</title>
<path fill="none" stroke="grey" stroke-width="2" d="M1078.95,-763.761C890.822,-759.267 280.494,-742.47 198,-712 142.966,-691.672 126.308,-680.296 93,-632 72.5595,-602.361 63.2353,-561.289 59.1049,-534.438"/>
<polygon fill="grey" stroke="grey" stroke-width="2" points="62.5271,-533.637 57.678,-524.217 55.5943,-534.605 62.5271,-533.637"/>
</g>
<!-- 43&#45;&gt;12 -->
<g id="edge22" class="edge"><title>43&#45;&gt;12</title>
<path fill="none" stroke="grey" stroke-width="2" d="M1078.79,-756.779C1013.85,-746.934 902.863,-729.564 808,-712 798.292,-710.203 788.082,-708.205 778.036,-706.178"/>
<polygon fill="grey" stroke="grey" stroke-width="2" points="778.567,-702.714 768.069,-704.147 777.169,-709.573 778.567,-702.714"/>
</g>
<!-- 43&#45;&gt;15 -->
<g id="edge26" class="edge"><title>43&#45;&gt;15</title>
<path fill="none" stroke="grey" stroke-width="2" d="M1189.2,-762.348C1311.53,-756.014 1597.42,-738.531 1632,-712 1688.47,-668.67 1704.59,-579.579 1709.18,-534.467"/>
<polygon fill="grey" stroke="grey" stroke-width="2" points="1712.69,-534.528 1710.1,-524.255 1705.72,-533.902 1712.69,-534.528"/>
</g>
<!-- 43&#45;&gt;17 -->
<g id="edge28" class="edge"><title>43&#45;&gt;17</title>
<path fill="none" stroke="grey" stroke-width="2" d="M1189.11,-764.676C1282.06,-762.952 1464.33,-754.128 1510,-712 1545.82,-678.954 1534,-653.737 1534,-605 1534,-605 1534,-605 1534,-505 1534,-454.884 1534,-396.458 1534,-362.795"/>
<polygon fill="grey" stroke="grey" stroke-width="2" points="1537.5,-362.376 1534,-352.376 1530.5,-362.376 1537.5,-362.376"/>
</g>
<!-- 43&#45;&gt;19 -->
<g id="edge30" class="edge"><title>43&#45;&gt;19</title>
<path fill="none" stroke="grey" stroke-width="2" d="M1189.19,-762.179C1268.68,-754.768 1412.76,-728.04 1476,-632 1570.87,-487.925 1425.43,-273.63 1369.45,-200.511"/>
<polygon fill="grey" stroke="grey" stroke-width="2" points="1371.98,-198.065 1363.09,-192.308 1366.45,-202.355 1371.98,-198.065"/>
</g>
<!-- 44 -->
<g id="node45" class="node"><title>44</title>
<path fill="none" stroke="#568ad8" stroke-width="2" d="M1098,-712C1098,-712 1000,-712 1000,-712 994,-712 988,-706 988,-700 988,-700 988,-680 988,-680 988,-674 994,-668 1000,-668 1000,-668 1098,-668 1098,-668 1104,-668 1110,-674 1110,-680 1110,-680 1110,-700 1110,-700 1110,-706 1104,-712 1098,-712"/>
<text text-anchor="middle" x="1049" y="-699" font-family="sans" font-size="10.00">bam2mpileup</text>
<text text-anchor="middle" x="1049" y="-687" font-family="sans" font-size="10.00">chrB2M: _4</text>
<text text-anchor="middle" x="1049" y="-675" font-family="sans" font-size="10.00">sampleB2M: Pfeiffer2</text>
</g>
<!-- 43&#45;&gt;44 -->
<g id="edge56" class="edge"><title>43&#45;&gt;44</title>
<path fill="none" stroke="grey" stroke-width="2" d="M1114.29,-747.837C1104.32,-739.164 1091.99,-728.427 1080.74,-718.629"/>
<polygon fill="grey" stroke="grey" stroke-width="2" points="1083,-715.959 1073.16,-712.032 1078.4,-721.238 1083,-715.959"/>
</g>
<!-- 48 -->
<g id="node49" class="node"><title>48</title>
<path fill="none" stroke="#d86656" stroke-width="2" d="M1670,-272C1670,-272 1566,-272 1566,-272 1560,-272 1554,-266 1554,-260 1554,-260 1554,-248 1554,-248 1554,-242 1560,-236 1566,-236 1566,-236 1670,-236 1670,-236 1676,-236 1682,-242 1682,-248 1682,-248 1682,-260 1682,-260 1682,-266 1676,-272 1670,-272"/>
<text text-anchor="middle" x="1618" y="-257" font-family="sans" font-size="10.00">collectGCBias</text>
<text text-anchor="middle" x="1618" y="-245" font-family="sans" font-size="10.00">sampleCGCB: Pfeiffer2</text>
</g>
<!-- 43&#45;&gt;48 -->
<g id="edge60" class="edge"><title>43&#45;&gt;48</title>
<path fill="none" stroke="grey" stroke-width="2" d="M1189.37,-762.952C1285.64,-758.54 1479.13,-745.661 1537,-712 1588.56,-682.013 1618,-664.645 1618,-605 1618,-605 1618,-605 1618,-413 1618,-367.115 1618,-313.734 1618,-282.245"/>
<polygon fill="grey" stroke="grey" stroke-width="2" points="1621.5,-282.068 1618,-272.068 1614.5,-282.068 1621.5,-282.068"/>
</g>
<!-- 50 -->
<g id="node51" class="node"><title>50</title>
<path fill="none" stroke="#568ad8" stroke-width="2" d="M1269,-712C1269,-712 1171,-712 1171,-712 1165,-712 1159,-706 1159,-700 1159,-700 1159,-680 1159,-680 1159,-674 1165,-668 1171,-668 1171,-668 1269,-668 1269,-668 1275,-668 1281,-674 1281,-680 1281,-680 1281,-700 1281,-700 1281,-706 1275,-712 1269,-712"/>
<text text-anchor="middle" x="1220" y="-699" font-family="sans" font-size="10.00">bam2mpileup</text>
<text text-anchor="middle" x="1220" y="-687" font-family="sans" font-size="10.00">chrB2M: _2</text>
<text text-anchor="middle" x="1220" y="-675" font-family="sans" font-size="10.00">sampleB2M: Pfeiffer2</text>
</g>
<!-- 43&#45;&gt;50 -->
<g id="edge63" class="edge"><title>43&#45;&gt;50</title>
<path fill="none" stroke="grey" stroke-width="2" d="M1153.95,-747.837C1164.03,-739.164 1176.5,-728.427 1187.89,-718.629"/>
<polygon fill="grey" stroke="grey" stroke-width="2" points="1190.26,-721.208 1195.56,-712.032 1185.69,-715.902 1190.26,-721.208"/>
</g>
<!-- 59 -->
<g id="node60" class="node"><title>59</title>
<path fill="none" stroke="#ced856" stroke-width="2" d="M312,-524C312,-524 202,-524 202,-524 196,-524 190,-518 190,-512 190,-512 190,-500 190,-500 190,-494 196,-488 202,-488 202,-488 312,-488 312,-488 318,-488 324,-494 324,-500 324,-500 324,-512 324,-512 324,-518 318,-524 312,-524"/>
<text text-anchor="middle" x="257" y="-509" font-family="sans" font-size="10.00">collectRNASeq</text>
<text text-anchor="middle" x="257" y="-497" font-family="sans" font-size="10.00">sampleCRNAS: Pfeiffer2</text>
</g>
<!-- 43&#45;&gt;59 -->
<g id="edge78" class="edge"><title>43&#45;&gt;59</title>
<path fill="none" stroke="grey" stroke-width="2" d="M1078.87,-762.082C874.978,-750.732 172.017,-706.427 108,-632 91.7699,-613.131 94.5994,-596.973 108,-576 124.27,-550.536 152.613,-534.329 180.241,-524.08"/>
<polygon fill="grey" stroke="grey" stroke-width="2" points="181.668,-527.289 189.962,-520.697 179.368,-520.678 181.668,-527.289"/>
</g>
<!-- 60 -->
<g id="node61" class="node"><title>60</title>
<path fill="none" stroke="#568ad8" stroke-width="2" d="M927,-712C927,-712 829,-712 829,-712 823,-712 817,-706 817,-700 817,-700 817,-680 817,-680 817,-674 823,-668 829,-668 829,-668 927,-668 927,-668 933,-668 939,-674 939,-680 939,-680 939,-700 939,-700 939,-706 933,-712 927,-712"/>
<text text-anchor="middle" x="878" y="-699" font-family="sans" font-size="10.00">bam2mpileup</text>
<text text-anchor="middle" x="878" y="-687" font-family="sans" font-size="10.00">chrB2M: _1</text>
<text text-anchor="middle" x="878" y="-675" font-family="sans" font-size="10.00">sampleB2M: Pfeiffer2</text>
</g>
<!-- 43&#45;&gt;60 -->
<g id="edge79" class="edge"><title>43&#45;&gt;60</title>
<path fill="none" stroke="grey" stroke-width="2" d="M1078.77,-749.034C1040.8,-738.06 990.047,-723.388 949.068,-711.543"/>
<polygon fill="grey" stroke="grey" stroke-width="2" points="949.992,-708.167 939.413,-708.752 948.048,-714.892 949.992,-708.167"/>
</g>
<!-- 44&#45;&gt;24 -->
<g id="edge36" class="edge"><title>44&#45;&gt;24</title>
<path fill="none" stroke="grey" stroke-width="2" d="M1049,-667.803C1049,-660.048 1049,-651.027 1049,-642.282"/>
<polygon fill="grey" stroke="grey" stroke-width="2" points="1052.5,-642.236 1049,-632.236 1045.5,-642.236 1052.5,-642.236"/>
</g>
<!-- 44&#45;&gt;40 -->
<g id="edge52" class="edge"><title>44&#45;&gt;40</title>
<path fill="none" stroke="grey" stroke-width="2" d="M987.749,-675.289C974.674,-672.636 960.913,-670.048 948,-668 806.838,-645.607 765.871,-661.528 622.758,-632.215"/>
<polygon fill="grey" stroke="grey" stroke-width="2" points="623.233,-628.739 612.728,-630.122 621.802,-635.591 623.233,-628.739"/>
</g>
<!-- 45&#45;&gt;51 -->
<g id="edge64" class="edge"><title>45&#45;&gt;51</title>
<path fill="none" stroke="grey" stroke-width="2" d="M1226.38,-971.993C1209.66,-962.402 1189.85,-951.037 1172.87,-941.296"/>
<polygon fill="grey" stroke="grey" stroke-width="2" points="1174.18,-938.013 1163.76,-936.073 1170.69,-944.085 1174.18,-938.013"/>
</g>
<!-- 46&#45;&gt;8 -->
<g id="edge18" class="edge"><title>46&#45;&gt;8</title>
<path fill="none" stroke="grey" stroke-width="2" d="M1035.36,-1203.99C1030.72,-1195.62 1025.33,-1185.89 1020.45,-1177.08"/>
<polygon fill="grey" stroke="grey" stroke-width="2" points="1023.5,-1175.37 1015.59,-1168.31 1017.38,-1178.76 1023.5,-1175.37"/>
</g>
<!-- 47 -->
<g id="node48" class="node"><title>47</title>
<path fill="none" stroke="#bed856" stroke-width="2" d="M429.5,-632C429.5,-632 300.5,-632 300.5,-632 294.5,-632 288.5,-626 288.5,-620 288.5,-620 288.5,-588 288.5,-588 288.5,-582 294.5,-576 300.5,-576 300.5,-576 429.5,-576 429.5,-576 435.5,-576 441.5,-582 441.5,-588 441.5,-588 441.5,-620 441.5,-620 441.5,-626 435.5,-632 429.5,-632"/>
<text text-anchor="middle" x="365" y="-619" font-family="sans" font-size="10.00">mpileup2vcf_single</text>
<text text-anchor="middle" x="365" y="-607" font-family="sans" font-size="10.00">chrMPU2VCFS: _1</text>
<text text-anchor="middle" x="365" y="-595" font-family="sans" font-size="10.00">sampleMPU2VCFS: Pfeiffer2</text>
<text text-anchor="middle" x="365" y="-583" font-family="sans" font-size="10.00">varTypeMPU2VCFS: indel</text>
</g>
<!-- 47&#45;&gt;20 -->
<g id="edge34" class="edge"><title>47&#45;&gt;20</title>
<path fill="none" stroke="grey" stroke-width="2" d="M411.841,-575.747C428.068,-566.306 446.573,-555.539 464.046,-545.373"/>
<polygon fill="grey" stroke="grey" stroke-width="2" points="466.189,-548.176 473.072,-540.122 462.668,-542.126 466.189,-548.176"/>
</g>
<!-- 48&#45;&gt;2 -->
<g id="edge3" class="edge"><title>48&#45;&gt;2</title>
<path fill="none" stroke="grey" stroke-width="2" d="M1615.99,-235.806C1610.75,-199.311 1593.15,-114.009 1540,-72 1499.48,-39.9769 1346.88,-26.0495 1275.39,-21.1836"/>
<polygon fill="grey" stroke="grey" stroke-width="2" points="1275.25,-17.6673 1265.05,-20.5047 1274.8,-24.6522 1275.25,-17.6673"/>
</g>
<!-- 49&#45;&gt;7 -->
<g id="edge16" class="edge"><title>49&#45;&gt;7</title>
<path fill="none" stroke="grey" stroke-width="2" d="M1263,-1131.84C1263,-1124.16 1263,-1114.88 1263,-1106.05"/>
<polygon fill="grey" stroke="grey" stroke-width="2" points="1266.5,-1106.03 1263,-1096.03 1259.5,-1106.03 1266.5,-1106.03"/>
</g>
<!-- 50&#45;&gt;9 -->
<g id="edge19" class="edge"><title>50&#45;&gt;9</title>
<path fill="none" stroke="grey" stroke-width="2" d="M1263.15,-667.803C1282.46,-658.32 1305.62,-646.943 1326.89,-636.494"/>
<polygon fill="grey" stroke="grey" stroke-width="2" points="1328.44,-639.631 1335.87,-632.08 1325.35,-633.348 1328.44,-639.631"/>
</g>
<!-- 50&#45;&gt;31 -->
<g id="edge43" class="edge"><title>50&#45;&gt;31</title>
<path fill="none" stroke="grey" stroke-width="2" d="M1220,-667.803C1220,-660.048 1220,-651.027 1220,-642.282"/>
<polygon fill="grey" stroke="grey" stroke-width="2" points="1223.5,-642.236 1220,-632.236 1216.5,-642.236 1223.5,-642.236"/>
</g>
<!-- 51&#45;&gt;32 -->
<g id="edge44" class="edge"><title>51&#45;&gt;32</title>
<path fill="none" stroke="grey" stroke-width="2" d="M1134,-899.837C1134,-892.165 1134,-882.878 1134,-874.053"/>
<polygon fill="grey" stroke="grey" stroke-width="2" points="1137.5,-874.032 1134,-864.032 1130.5,-874.032 1137.5,-874.032"/>
</g>
<!-- 52&#45;&gt;29 -->
<g id="edge41" class="edge"><title>52&#45;&gt;29</title>
<path fill="none" stroke="grey" stroke-width="2" d="M972,-231.686C972,-223.798 972,-214.684 972,-206.103"/>
<polygon fill="grey" stroke="grey" stroke-width="2" points="975.5,-206.018 972,-196.018 968.5,-206.018 975.5,-206.018"/>
</g>
<!-- 53 -->
<g id="node54" class="node"><title>53</title>
<path fill="none" stroke="#bed856" stroke-width="2" d="M942.5,-632C942.5,-632 813.5,-632 813.5,-632 807.5,-632 801.5,-626 801.5,-620 801.5,-620 801.5,-588 801.5,-588 801.5,-582 807.5,-576 813.5,-576 813.5,-576 942.5,-576 942.5,-576 948.5,-576 954.5,-582 954.5,-588 954.5,-588 954.5,-620 954.5,-620 954.5,-626 948.5,-632 942.5,-632"/>
<text text-anchor="middle" x="878" y="-619" font-family="sans" font-size="10.00">mpileup2vcf_single</text>
<text text-anchor="middle" x="878" y="-607" font-family="sans" font-size="10.00">chrMPU2VCFS: _1</text>
<text text-anchor="middle" x="878" y="-595" font-family="sans" font-size="10.00">sampleMPU2VCFS: Pfeiffer2</text>
<text text-anchor="middle" x="878" y="-583" font-family="sans" font-size="10.00">varTypeMPU2VCFS: snp</text>
</g>
<!-- 53&#45;&gt;55 -->
<g id="edge74" class="edge"><title>53&#45;&gt;55</title>
<path fill="none" stroke="grey" stroke-width="2" d="M904.685,-575.747C913.336,-566.912 923.123,-556.917 932.502,-547.339"/>
<polygon fill="grey" stroke="grey" stroke-width="2" points="935.073,-549.716 939.568,-540.122 930.071,-544.818 935.073,-549.716"/>
</g>
<!-- 54&#45;&gt;49 -->
<g id="edge62" class="edge"><title>54&#45;&gt;49</title>
<path fill="none" stroke="grey" stroke-width="2" d="M1360.39,-1203.99C1342.6,-1194.31 1321.49,-1182.83 1303.48,-1173.03"/>
<polygon fill="grey" stroke="grey" stroke-width="2" points="1304.83,-1169.78 1294.38,-1168.07 1301.49,-1175.93 1304.83,-1169.78"/>
</g>
<!-- 55&#45;&gt;36 -->
<g id="edge49" class="edge"><title>55&#45;&gt;36</title>
<path fill="none" stroke="grey" stroke-width="2" d="M972,-471.998C972,-463.603 972,-454.607 972,-446.299"/>
<polygon fill="grey" stroke="grey" stroke-width="2" points="975.5,-446.241 972,-436.241 968.5,-446.242 975.5,-446.241"/>
</g>
<!-- 56&#45;&gt;2 -->
<g id="edge9" class="edge"><title>56&#45;&gt;2</title>
<path fill="none" stroke="grey" stroke-width="2" d="M1710,-395.932C1710,-366.958 1710,-306.295 1710,-255 1710,-255 1710,-255 1710,-173 1710,-97.353 1642.79,-101.186 1573,-72 1471.32,-29.4782 1339.25,-20.8032 1275.58,-19.2122"/>
<polygon fill="grey" stroke="grey" stroke-width="2" points="1275.3,-15.706 1265.23,-19.002 1275.16,-22.7045 1275.3,-15.706"/>
</g>
<!-- 57&#45;&gt;51 -->
<g id="edge65" class="edge"><title>57&#45;&gt;51</title>
<path fill="none" stroke="grey" stroke-width="2" d="M1420.45,-971.993C1349.81,-958.925 1261.37,-942.563 1201.59,-931.503"/>
<polygon fill="grey" stroke="grey" stroke-width="2" points="1201.98,-928.016 1191.51,-929.639 1200.7,-934.9 1201.98,-928.016"/>
</g>
<!-- 58&#45;&gt;34 -->
<g id="edge46" class="edge"><title>58&#45;&gt;34</title>
<path fill="none" stroke="grey" stroke-width="2" d="M695,-1203.99C695,-1196.06 695,-1186.91 695,-1178.48"/>
<polygon fill="grey" stroke="grey" stroke-width="2" points="698.5,-1178.31 695,-1168.31 691.5,-1178.31 698.5,-1178.31"/>
</g>
<!-- 59&#45;&gt;10 -->
<g id="edge20" class="edge"><title>59&#45;&gt;10</title>
<path fill="none" stroke="grey" stroke-width="2" d="M262.784,-487.647C267.101,-474.698 273.079,-456.763 278.016,-441.953"/>
<polygon fill="grey" stroke="grey" stroke-width="2" points="281.392,-442.893 281.233,-432.3 274.751,-440.68 281.392,-442.893"/>
</g>
<!-- 60&#45;&gt;47 -->
<g id="edge59" class="edge"><title>60&#45;&gt;47</title>
<path fill="none" stroke="grey" stroke-width="2" d="M816.749,-675.289C803.674,-672.636 789.913,-670.048 777,-668 635.838,-645.607 594.871,-661.528 451.758,-632.215"/>
<polygon fill="grey" stroke="grey" stroke-width="2" points="452.233,-628.739 441.728,-630.122 450.802,-635.591 452.233,-628.739"/>
</g>
<!-- 60&#45;&gt;53 -->
<g id="edge69" class="edge"><title>60&#45;&gt;53</title>
<path fill="none" stroke="grey" stroke-width="2" d="M878,-667.803C878,-660.048 878,-651.027 878,-642.282"/>
<polygon fill="grey" stroke="grey" stroke-width="2" points="881.5,-642.236 878,-632.236 874.5,-642.236 881.5,-642.236"/>
</g>
</g>
</svg>
