<?xml version="1.0" encoding="UTF-8" standalone="no"?>
<!DOCTYPE svg PUBLIC "-//W3C//DTD SVG 1.1//EN"
 "http://www.w3.org/Graphics/SVG/1.1/DTD/svg11.dtd">
<!-- Generated by graphviz version 2.38.0 (20140413.2041)
 -->
<!-- Title: snakemake_dag Pages: 1 -->
<svg width="648pt" height="668pt"
 viewBox="0.00 0.00 647.50 668.00" xmlns="http://www.w3.org/2000/svg" xmlns:xlink="http://www.w3.org/1999/xlink">
<g id="graph0" class="graph" transform="scale(1 1) rotate(0) translate(4 664)">
<title>snakemake_dag</title>
<polygon fill="white" stroke="none" points="-4,4 -4,-664 643.5,-664 643.5,4 -4,4"/>
<!-- 0 -->
<g id="node1" class="node"><title>0</title>
<path fill="none" stroke="#d85656" stroke-width="2" d="M356,-36C356,-36 326,-36 326,-36 320,-36 314,-30 314,-24 314,-24 314,-12 314,-12 314,-6 320,-0 326,-0 326,-0 356,-0 356,-0 362,-0 368,-6 368,-12 368,-12 368,-24 368,-24 368,-30 362,-36 356,-36"/>
<text text-anchor="middle" x="341" y="-15" font-family="sans" font-size="10.00">all</text>
</g>
<!-- 1 -->
<g id="node2" class="node"><title>1</title>
<path fill="none" stroke="#97d856" stroke-width="2" d="M622,-196C622,-196 338,-196 338,-196 332,-196 326,-190 326,-184 326,-184 326,-164 326,-164 326,-158 332,-152 338,-152 338,-152 622,-152 622,-152 628,-152 634,-158 634,-164 634,-164 634,-184 634,-184 634,-190 628,-196 622,-196"/>
<text text-anchor="middle" x="480" y="-183" font-family="sans" font-size="10.00">endUtilBAM</text>
<text text-anchor="middle" x="480" y="-171" font-family="sans" font-size="10.00">pathEUB: output/bam</text>
<text text-anchor="middle" x="480" y="-159" font-family="sans" font-size="10.00">sampleEUB: Pfeiffer2_Aligned.out_sorted_filtered_markdup</text>
</g>
<!-- 18 -->
<g id="node19" class="node"><title>18</title>
<path fill="none" stroke="#56c9d8" stroke-width="2" d="M473,-116C473,-116 387,-116 387,-116 381,-116 375,-110 375,-104 375,-104 375,-84 375,-84 375,-78 381,-72 387,-72 387,-72 473,-72 473,-72 479,-72 485,-78 485,-84 485,-84 485,-104 485,-104 485,-110 479,-116 473,-116"/>
<text text-anchor="middle" x="430" y="-103" font-family="sans" font-size="10.00">indexBAM</text>
<text text-anchor="middle" x="430" y="-91" font-family="sans" font-size="10.00">outputDIR: output</text>
<text text-anchor="middle" x="430" y="-79" font-family="sans" font-size="10.00">sampleIB: Pfeiffer2</text>
</g>
<!-- 1&#45;&gt;18 -->
<g id="edge20" class="edge"><title>1&#45;&gt;18</title>
<path fill="none" stroke="grey" stroke-width="2" d="M466.337,-151.686C461.003,-143.364 454.794,-133.679 449.034,-124.694"/>
<polygon fill="grey" stroke="grey" stroke-width="2" points="451.816,-122.548 443.473,-116.018 445.923,-126.326 451.816,-122.548"/>
</g>
<!-- 2 -->
<g id="node3" class="node"><title>2</title>
<path fill="none" stroke="#97d856" stroke-width="2" d="M296,-196C296,-196 12,-196 12,-196 6,-196 0,-190 0,-184 0,-184 0,-164 0,-164 0,-158 6,-152 12,-152 12,-152 296,-152 296,-152 302,-152 308,-158 308,-164 308,-164 308,-184 308,-184 308,-190 302,-196 296,-196"/>
<text text-anchor="middle" x="154" y="-183" font-family="sans" font-size="10.00">endUtilBAM</text>
<text text-anchor="middle" x="154" y="-171" font-family="sans" font-size="10.00">pathEUB: output/bam</text>
<text text-anchor="middle" x="154" y="-159" font-family="sans" font-size="10.00">sampleEUB: Pfeiffer3_Aligned.out_sorted_filtered_markdup</text>
</g>
<!-- 15 -->
<g id="node16" class="node"><title>15</title>
<path fill="none" stroke="#56c9d8" stroke-width="2" d="M296,-116C296,-116 210,-116 210,-116 204,-116 198,-110 198,-104 198,-104 198,-84 198,-84 198,-78 204,-72 210,-72 210,-72 296,-72 296,-72 302,-72 308,-78 308,-84 308,-84 308,-104 308,-104 308,-110 302,-116 296,-116"/>
<text text-anchor="middle" x="253" y="-103" font-family="sans" font-size="10.00">indexBAM</text>
<text text-anchor="middle" x="253" y="-91" font-family="sans" font-size="10.00">outputDIR: output</text>
<text text-anchor="middle" x="253" y="-79" font-family="sans" font-size="10.00">sampleIB: Pfeiffer3</text>
</g>
<!-- 2&#45;&gt;15 -->
<g id="edge17" class="edge"><title>2&#45;&gt;15</title>
<path fill="none" stroke="grey" stroke-width="2" d="M180.791,-151.892C192.347,-142.788 206.01,-132.022 218.325,-122.319"/>
<polygon fill="grey" stroke="grey" stroke-width="2" points="220.499,-125.063 226.188,-116.125 216.167,-119.564 220.499,-125.063"/>
</g>
<!-- 3 -->
<g id="node4" class="node"><title>3</title>
<path fill="none" stroke="#afd856" stroke-width="2" d="M598.5,-276C598.5,-276 361.5,-276 361.5,-276 355.5,-276 349.5,-270 349.5,-264 349.5,-264 349.5,-244 349.5,-244 349.5,-238 355.5,-232 361.5,-232 361.5,-232 598.5,-232 598.5,-232 604.5,-232 610.5,-238 610.5,-244 610.5,-244 610.5,-264 610.5,-264 610.5,-270 604.5,-276 598.5,-276"/>
<text text-anchor="middle" x="480" y="-263" font-family="sans" font-size="10.00">markdupBAM</text>
<text text-anchor="middle" x="480" y="-251" font-family="sans" font-size="10.00">outputDIR: output</text>
<text text-anchor="middle" x="480" y="-239" font-family="sans" font-size="10.00">sampleMDB: Pfeiffer2_Aligned.out_sorted_filtered</text>
</g>
<!-- 3&#45;&gt;1 -->
<g id="edge3" class="edge"><title>3&#45;&gt;1</title>
<path fill="none" stroke="grey" stroke-width="2" d="M480,-231.686C480,-223.798 480,-214.684 480,-206.103"/>
<polygon fill="grey" stroke="grey" stroke-width="2" points="483.5,-206.018 480,-196.018 476.5,-206.018 483.5,-206.018"/>
</g>
<!-- 4 -->
<g id="node5" class="node"><title>4</title>
<path fill="none" stroke="#56d0d8" stroke-width="2" d="M480.5,-588C480.5,-588 375.5,-588 375.5,-588 369.5,-588 363.5,-582 363.5,-576 363.5,-576 363.5,-556 363.5,-556 363.5,-550 369.5,-544 375.5,-544 375.5,-544 480.5,-544 480.5,-544 486.5,-544 492.5,-550 492.5,-556 492.5,-556 492.5,-576 492.5,-576 492.5,-582 486.5,-588 480.5,-588"/>
<text text-anchor="middle" x="428" y="-575" font-family="sans" font-size="10.00">fastq2GZ</text>
<text text-anchor="middle" x="428" y="-563" font-family="sans" font-size="10.00">pathFGZ: output/fastq</text>
<text text-anchor="middle" x="428" y="-551" font-family="sans" font-size="10.00">sampleFGZ: Pfeiffer2.2</text>
</g>
<!-- 9 -->
<g id="node10" class="node"><title>9</title>
<path fill="none" stroke="#d8ac56" stroke-width="2" d="M528,-508C528,-508 432,-508 432,-508 426,-508 420,-502 420,-496 420,-496 420,-484 420,-484 420,-478 426,-472 432,-472 432,-472 528,-472 528,-472 534,-472 540,-478 540,-484 540,-484 540,-496 540,-496 540,-502 534,-508 528,-508"/>
<text text-anchor="middle" x="480" y="-493" font-family="sans" font-size="10.00">bamALIGN_bwa</text>
<text text-anchor="middle" x="480" y="-481" font-family="sans" font-size="10.00">sampleBAB: Pfeiffer2</text>
</g>
<!-- 4&#45;&gt;9 -->
<g id="edge9" class="edge"><title>4&#45;&gt;9</title>
<path fill="none" stroke="grey" stroke-width="2" d="M442.762,-543.993C448.769,-535.444 455.767,-525.485 462.065,-516.523"/>
<polygon fill="grey" stroke="grey" stroke-width="2" points="464.947,-518.509 467.833,-508.315 459.22,-514.484 464.947,-518.509"/>
</g>
<!-- 5 -->
<g id="node6" class="node"><title>5</title>
<path fill="none" stroke="#d88556" stroke-width="2" d="M551,-660C551,-660 451,-660 451,-660 445,-660 439,-654 439,-648 439,-648 439,-636 439,-636 439,-630 445,-624 451,-624 451,-624 551,-624 551,-624 557,-624 563,-630 563,-636 563,-636 563,-648 563,-648 563,-654 557,-660 551,-660"/>
<text text-anchor="middle" x="501" y="-645" font-family="sans" font-size="10.00">bam2fastq_picard</text>
<text text-anchor="middle" x="501" y="-633" font-family="sans" font-size="10.00">sampleB2FP: Pfeiffer2</text>
</g>
<!-- 5&#45;&gt;4 -->
<g id="edge6" class="edge"><title>5&#45;&gt;4</title>
<path fill="none" stroke="grey" stroke-width="2" d="M484.069,-623.837C475.678,-615.331 465.328,-604.839 455.814,-595.195"/>
<polygon fill="grey" stroke="grey" stroke-width="2" points="458.262,-592.693 448.748,-588.032 453.279,-597.609 458.262,-592.693"/>
</g>
<!-- 11 -->
<g id="node12" class="node"><title>11</title>
<path fill="none" stroke="#56d0d8" stroke-width="2" d="M627.5,-588C627.5,-588 522.5,-588 522.5,-588 516.5,-588 510.5,-582 510.5,-576 510.5,-576 510.5,-556 510.5,-556 510.5,-550 516.5,-544 522.5,-544 522.5,-544 627.5,-544 627.5,-544 633.5,-544 639.5,-550 639.5,-556 639.5,-556 639.5,-576 639.5,-576 639.5,-582 633.5,-588 627.5,-588"/>
<text text-anchor="middle" x="575" y="-575" font-family="sans" font-size="10.00">fastq2GZ</text>
<text text-anchor="middle" x="575" y="-563" font-family="sans" font-size="10.00">pathFGZ: output/fastq</text>
<text text-anchor="middle" x="575" y="-551" font-family="sans" font-size="10.00">sampleFGZ: Pfeiffer2.1</text>
</g>
<!-- 5&#45;&gt;11 -->
<g id="edge12" class="edge"><title>5&#45;&gt;11</title>
<path fill="none" stroke="grey" stroke-width="2" d="M518.163,-623.837C526.669,-615.331 537.161,-604.839 546.805,-595.195"/>
<polygon fill="grey" stroke="grey" stroke-width="2" points="549.372,-597.578 553.968,-588.032 544.422,-592.628 549.372,-597.578"/>
</g>
<!-- 6 -->
<g id="node7" class="node"><title>6</title>
<path fill="none" stroke="#d88556" stroke-width="2" d="M205,-660C205,-660 105,-660 105,-660 99,-660 93,-654 93,-648 93,-648 93,-636 93,-636 93,-630 99,-624 105,-624 105,-624 205,-624 205,-624 211,-624 217,-630 217,-636 217,-636 217,-648 217,-648 217,-654 211,-660 205,-660"/>
<text text-anchor="middle" x="155" y="-645" font-family="sans" font-size="10.00">bam2fastq_picard</text>
<text text-anchor="middle" x="155" y="-633" font-family="sans" font-size="10.00">sampleB2FP: Pfeiffer3</text>
</g>
<!-- 12 -->
<g id="node13" class="node"><title>12</title>
<path fill="none" stroke="#56d0d8" stroke-width="2" d="M133.5,-588C133.5,-588 28.5,-588 28.5,-588 22.5,-588 16.5,-582 16.5,-576 16.5,-576 16.5,-556 16.5,-556 16.5,-550 22.5,-544 28.5,-544 28.5,-544 133.5,-544 133.5,-544 139.5,-544 145.5,-550 145.5,-556 145.5,-556 145.5,-576 145.5,-576 145.5,-582 139.5,-588 133.5,-588"/>
<text text-anchor="middle" x="81" y="-575" font-family="sans" font-size="10.00">fastq2GZ</text>
<text text-anchor="middle" x="81" y="-563" font-family="sans" font-size="10.00">pathFGZ: output/fastq</text>
<text text-anchor="middle" x="81" y="-551" font-family="sans" font-size="10.00">sampleFGZ: Pfeiffer3.2</text>
</g>
<!-- 6&#45;&gt;12 -->
<g id="edge13" class="edge"><title>6&#45;&gt;12</title>
<path fill="none" stroke="grey" stroke-width="2" d="M137.837,-623.837C129.331,-615.331 118.839,-604.839 109.195,-595.195"/>
<polygon fill="grey" stroke="grey" stroke-width="2" points="111.578,-592.628 102.032,-588.032 106.628,-597.578 111.578,-592.628"/>
</g>
<!-- 17 -->
<g id="node18" class="node"><title>17</title>
<path fill="none" stroke="#56d0d8" stroke-width="2" d="M280.5,-588C280.5,-588 175.5,-588 175.5,-588 169.5,-588 163.5,-582 163.5,-576 163.5,-576 163.5,-556 163.5,-556 163.5,-550 169.5,-544 175.5,-544 175.5,-544 280.5,-544 280.5,-544 286.5,-544 292.5,-550 292.5,-556 292.5,-556 292.5,-576 292.5,-576 292.5,-582 286.5,-588 280.5,-588"/>
<text text-anchor="middle" x="228" y="-575" font-family="sans" font-size="10.00">fastq2GZ</text>
<text text-anchor="middle" x="228" y="-563" font-family="sans" font-size="10.00">pathFGZ: output/fastq</text>
<text text-anchor="middle" x="228" y="-551" font-family="sans" font-size="10.00">sampleFGZ: Pfeiffer3.1</text>
</g>
<!-- 6&#45;&gt;17 -->
<g id="edge19" class="edge"><title>6&#45;&gt;17</title>
<path fill="none" stroke="grey" stroke-width="2" d="M171.931,-623.837C180.322,-615.331 190.672,-604.839 200.186,-595.195"/>
<polygon fill="grey" stroke="grey" stroke-width="2" points="202.721,-597.609 207.252,-588.032 197.738,-592.693 202.721,-597.609"/>
</g>
<!-- 7 -->
<g id="node8" class="node"><title>7</title>
<path fill="none" stroke="#d8c356" stroke-width="2" d="M558.5,-436C558.5,-436 401.5,-436 401.5,-436 395.5,-436 389.5,-430 389.5,-424 389.5,-424 389.5,-404 389.5,-404 389.5,-398 395.5,-392 401.5,-392 401.5,-392 558.5,-392 558.5,-392 564.5,-392 570.5,-398 570.5,-404 570.5,-404 570.5,-424 570.5,-424 570.5,-430 564.5,-436 558.5,-436"/>
<text text-anchor="middle" x="480" y="-423" font-family="sans" font-size="10.00">sortBAM_biobambam</text>
<text text-anchor="middle" x="480" y="-411" font-family="sans" font-size="10.00">pathSBB: output/bam</text>
<text text-anchor="middle" x="480" y="-399" font-family="sans" font-size="10.00">sampleSBB: Pfeiffer2_Aligned.out</text>
</g>
<!-- 16 -->
<g id="node17" class="node"><title>16</title>
<path fill="none" stroke="#56d8d0" stroke-width="2" d="M573,-356C573,-356 387,-356 387,-356 381,-356 375,-350 375,-344 375,-344 375,-324 375,-324 375,-318 381,-312 387,-312 387,-312 573,-312 573,-312 579,-312 585,-318 585,-324 585,-324 585,-344 585,-344 585,-350 579,-356 573,-356"/>
<text text-anchor="middle" x="480" y="-343" font-family="sans" font-size="10.00">filteredBAM</text>
<text text-anchor="middle" x="480" y="-331" font-family="sans" font-size="10.00">pathFB: output/bam</text>
<text text-anchor="middle" x="480" y="-319" font-family="sans" font-size="10.00">sampleFB: Pfeiffer2_Aligned.out_sorted</text>
</g>
<!-- 7&#45;&gt;16 -->
<g id="edge18" class="edge"><title>7&#45;&gt;16</title>
<path fill="none" stroke="grey" stroke-width="2" d="M480,-391.686C480,-383.798 480,-374.684 480,-366.103"/>
<polygon fill="grey" stroke="grey" stroke-width="2" points="483.5,-366.018 480,-356.018 476.5,-366.018 483.5,-366.018"/>
</g>
<!-- 8 -->
<g id="node9" class="node"><title>8</title>
<path fill="none" stroke="#d8c356" stroke-width="2" d="M232.5,-436C232.5,-436 75.5,-436 75.5,-436 69.5,-436 63.5,-430 63.5,-424 63.5,-424 63.5,-404 63.5,-404 63.5,-398 69.5,-392 75.5,-392 75.5,-392 232.5,-392 232.5,-392 238.5,-392 244.5,-398 244.5,-404 244.5,-404 244.5,-424 244.5,-424 244.5,-430 238.5,-436 232.5,-436"/>
<text text-anchor="middle" x="154" y="-423" font-family="sans" font-size="10.00">sortBAM_biobambam</text>
<text text-anchor="middle" x="154" y="-411" font-family="sans" font-size="10.00">pathSBB: output/bam</text>
<text text-anchor="middle" x="154" y="-399" font-family="sans" font-size="10.00">sampleSBB: Pfeiffer3_Aligned.out</text>
</g>
<!-- 14 -->
<g id="node15" class="node"><title>14</title>
<path fill="none" stroke="#56d8d0" stroke-width="2" d="M247,-356C247,-356 61,-356 61,-356 55,-356 49,-350 49,-344 49,-344 49,-324 49,-324 49,-318 55,-312 61,-312 61,-312 247,-312 247,-312 253,-312 259,-318 259,-324 259,-324 259,-344 259,-344 259,-350 253,-356 247,-356"/>
<text text-anchor="middle" x="154" y="-343" font-family="sans" font-size="10.00">filteredBAM</text>
<text text-anchor="middle" x="154" y="-331" font-family="sans" font-size="10.00">pathFB: output/bam</text>
<text text-anchor="middle" x="154" y="-319" font-family="sans" font-size="10.00">sampleFB: Pfeiffer3_Aligned.out_sorted</text>
</g>
<!-- 8&#45;&gt;14 -->
<g id="edge16" class="edge"><title>8&#45;&gt;14</title>
<path fill="none" stroke="grey" stroke-width="2" d="M154,-391.686C154,-383.798 154,-374.684 154,-366.103"/>
<polygon fill="grey" stroke="grey" stroke-width="2" points="157.5,-366.018 154,-356.018 150.5,-366.018 157.5,-366.018"/>
</g>
<!-- 9&#45;&gt;7 -->
<g id="edge7" class="edge"><title>9&#45;&gt;7</title>
<path fill="none" stroke="grey" stroke-width="2" d="M480,-471.837C480,-464.165 480,-454.878 480,-446.053"/>
<polygon fill="grey" stroke="grey" stroke-width="2" points="483.5,-446.032 480,-436.032 476.5,-446.032 483.5,-446.032"/>
</g>
<!-- 10 -->
<g id="node11" class="node"><title>10</title>
<path fill="none" stroke="#afd856" stroke-width="2" d="M272.5,-276C272.5,-276 35.5,-276 35.5,-276 29.5,-276 23.5,-270 23.5,-264 23.5,-264 23.5,-244 23.5,-244 23.5,-238 29.5,-232 35.5,-232 35.5,-232 272.5,-232 272.5,-232 278.5,-232 284.5,-238 284.5,-244 284.5,-244 284.5,-264 284.5,-264 284.5,-270 278.5,-276 272.5,-276"/>
<text text-anchor="middle" x="154" y="-263" font-family="sans" font-size="10.00">markdupBAM</text>
<text text-anchor="middle" x="154" y="-251" font-family="sans" font-size="10.00">outputDIR: output</text>
<text text-anchor="middle" x="154" y="-239" font-family="sans" font-size="10.00">sampleMDB: Pfeiffer3_Aligned.out_sorted_filtered</text>
</g>
<!-- 10&#45;&gt;2 -->
<g id="edge4" class="edge"><title>10&#45;&gt;2</title>
<path fill="none" stroke="grey" stroke-width="2" d="M154,-231.686C154,-223.798 154,-214.684 154,-206.103"/>
<polygon fill="grey" stroke="grey" stroke-width="2" points="157.5,-206.018 154,-196.018 150.5,-206.018 157.5,-206.018"/>
</g>
<!-- 11&#45;&gt;9 -->
<g id="edge10" class="edge"><title>11&#45;&gt;9</title>
<path fill="none" stroke="grey" stroke-width="2" d="M548.031,-543.993C536.175,-534.758 522.206,-523.877 510.021,-514.385"/>
<polygon fill="grey" stroke="grey" stroke-width="2" points="511.958,-511.457 501.918,-508.073 507.656,-516.979 511.958,-511.457"/>
</g>
<!-- 13 -->
<g id="node14" class="node"><title>13</title>
<path fill="none" stroke="#d8ac56" stroke-width="2" d="M202,-508C202,-508 106,-508 106,-508 100,-508 94,-502 94,-496 94,-496 94,-484 94,-484 94,-478 100,-472 106,-472 106,-472 202,-472 202,-472 208,-472 214,-478 214,-484 214,-484 214,-496 214,-496 214,-502 208,-508 202,-508"/>
<text text-anchor="middle" x="154" y="-493" font-family="sans" font-size="10.00">bamALIGN_bwa</text>
<text text-anchor="middle" x="154" y="-481" font-family="sans" font-size="10.00">sampleBAB: Pfeiffer3</text>
</g>
<!-- 12&#45;&gt;13 -->
<g id="edge15" class="edge"><title>12&#45;&gt;13</title>
<path fill="none" stroke="grey" stroke-width="2" d="M101.724,-543.993C110.418,-535.179 120.59,-524.868 129.639,-515.694"/>
<polygon fill="grey" stroke="grey" stroke-width="2" points="132.388,-517.892 136.919,-508.315 127.405,-512.976 132.388,-517.892"/>
</g>
<!-- 13&#45;&gt;8 -->
<g id="edge8" class="edge"><title>13&#45;&gt;8</title>
<path fill="none" stroke="grey" stroke-width="2" d="M154,-471.837C154,-464.165 154,-454.878 154,-446.053"/>
<polygon fill="grey" stroke="grey" stroke-width="2" points="157.5,-446.032 154,-436.032 150.5,-446.032 157.5,-446.032"/>
</g>
<!-- 14&#45;&gt;10 -->
<g id="edge11" class="edge"><title>14&#45;&gt;10</title>
<path fill="none" stroke="grey" stroke-width="2" d="M154,-311.686C154,-303.798 154,-294.684 154,-286.103"/>
<polygon fill="grey" stroke="grey" stroke-width="2" points="157.5,-286.018 154,-276.018 150.5,-286.018 157.5,-286.018"/>
</g>
<!-- 15&#45;&gt;0 -->
<g id="edge1" class="edge"><title>15&#45;&gt;0</title>
<path fill="none" stroke="grey" stroke-width="2" d="M277.982,-71.9925C288.858,-62.8463 301.655,-52.0857 312.865,-42.6591"/>
<polygon fill="grey" stroke="grey" stroke-width="2" points="315.296,-45.1877 320.697,-36.0729 310.791,-39.8302 315.296,-45.1877"/>
</g>
<!-- 16&#45;&gt;3 -->
<g id="edge5" class="edge"><title>16&#45;&gt;3</title>
<path fill="none" stroke="grey" stroke-width="2" d="M480,-311.686C480,-303.798 480,-294.684 480,-286.103"/>
<polygon fill="grey" stroke="grey" stroke-width="2" points="483.5,-286.018 480,-276.018 476.5,-286.018 483.5,-286.018"/>
</g>
<!-- 17&#45;&gt;13 -->
<g id="edge14" class="edge"><title>17&#45;&gt;13</title>
<path fill="none" stroke="grey" stroke-width="2" d="M206.993,-543.993C198.091,-535.091 187.661,-524.661 178.42,-515.42"/>
<polygon fill="grey" stroke="grey" stroke-width="2" points="180.861,-512.911 171.315,-508.315 175.911,-517.861 180.861,-512.911"/>
</g>
<!-- 18&#45;&gt;0 -->
<g id="edge2" class="edge"><title>18&#45;&gt;0</title>
<path fill="none" stroke="grey" stroke-width="2" d="M404.734,-71.9925C393.734,-62.8463 380.792,-52.0857 369.455,-42.6591"/>
<polygon fill="grey" stroke="grey" stroke-width="2" points="371.461,-39.775 361.534,-36.0729 366.985,-45.1576 371.461,-39.775"/>
</g>
</g>
</svg>
