<?xml version="1.0" encoding="UTF-8" standalone="no"?>
<!DOCTYPE svg PUBLIC "-//W3C//DTD SVG 1.1//EN"
 "http://www.w3.org/Graphics/SVG/1.1/DTD/svg11.dtd">
<!-- Generated by graphviz version 2.38.0 (20140413.2041)
 -->
<!-- Title: snakemake_dag Pages: 1 -->
<svg width="1224pt" height="1072pt"
 viewBox="0.00 0.00 1224.03 1072.00" xmlns="http://www.w3.org/2000/svg" xmlns:xlink="http://www.w3.org/1999/xlink">
<g id="graph0" class="graph" transform="scale(1 1) rotate(0) translate(4 1068)">
<title>snakemake_dag</title>
<polygon fill="white" stroke="none" points="-4,4 -4,-1068 1220.03,-1068 1220.03,4 -4,4"/>
<!-- 0 -->
<g id="node1" class="node"><title>0</title>
<path fill="none" stroke="#a7d856" stroke-width="2" d="M513.645,-600C513.645,-600 439.938,-600 439.938,-600 433.938,-600 427.938,-594 427.938,-588 427.938,-588 427.938,-576 427.938,-576 427.938,-570 433.938,-564 439.938,-564 439.938,-564 513.645,-564 513.645,-564 519.645,-564 525.645,-570 525.645,-576 525.645,-576 525.645,-588 525.645,-588 525.645,-594 519.645,-600 513.645,-600"/>
<text text-anchor="middle" x="476.792" y="-585" font-family="sans" font-size="10.00">indexBAM</text>
<text text-anchor="middle" x="476.792" y="-573" font-family="sans" font-size="10.00">sampleIB: PfeifferN</text>
</g>
<!-- 12 -->
<g id="node13" class="node"><title>12</title>
<path fill="none" stroke="#56d873" stroke-width="2" d="M516.705,-528C516.705,-528 432.878,-528 432.878,-528 426.878,-528 420.878,-522 420.878,-516 420.878,-516 420.878,-496 420.878,-496 420.878,-490 426.878,-484 432.878,-484 432.878,-484 516.705,-484 516.705,-484 522.705,-484 528.705,-490 528.705,-496 528.705,-496 528.705,-516 528.705,-516 528.705,-522 522.705,-528 516.705,-528"/>
<text text-anchor="middle" x="474.792" y="-515" font-family="sans" font-size="10.00">bam2mpileup</text>
<text text-anchor="middle" x="474.792" y="-503" font-family="sans" font-size="10.00">chrB2M: </text>
<text text-anchor="middle" x="474.792" y="-491" font-family="sans" font-size="10.00">sampleB2M: PfeifferN</text>
</g>
<!-- 0&#45;&gt;12 -->
<g id="edge14" class="edge"><title>0&#45;&gt;12</title>
<path fill="none" stroke="grey" stroke-width="2" d="M476.328,-563.837C476.12,-556.165 475.869,-546.878 475.631,-538.053"/>
<polygon fill="grey" stroke="grey" stroke-width="2" points="479.129,-537.934 475.36,-528.032 472.131,-538.123 479.129,-537.934"/>
</g>
<!-- 30 -->
<g id="node31" class="node"><title>30</title>
<path fill="none" stroke="#d87d56" stroke-width="2" d="M641.035,-528C641.035,-528 558.548,-528 558.548,-528 552.548,-528 546.548,-522 546.548,-516 546.548,-516 546.548,-496 546.548,-496 546.548,-490 552.548,-484 558.548,-484 558.548,-484 641.035,-484 641.035,-484 647.035,-484 653.035,-490 653.035,-496 653.035,-496 653.035,-516 653.035,-516 653.035,-522 647.035,-528 641.035,-528"/>
<text text-anchor="middle" x="599.792" y="-515" font-family="sans" font-size="10.00">copynum</text>
<text text-anchor="middle" x="599.792" y="-503" font-family="sans" font-size="10.00">samplenCN: PfeifferN</text>
<text text-anchor="middle" x="599.792" y="-491" font-family="sans" font-size="10.00">sampletCN: PfeifferT</text>
</g>
<!-- 0&#45;&gt;30 -->
<g id="edge40" class="edge"><title>0&#45;&gt;30</title>
<path fill="none" stroke="grey" stroke-width="2" d="M505.319,-563.837C520.428,-554.747 539.305,-543.39 556.206,-533.222"/>
<polygon fill="grey" stroke="grey" stroke-width="2" points="558.068,-536.187 564.833,-528.032 554.459,-530.188 558.068,-536.187"/>
</g>
<!-- 1 -->
<g id="node2" class="node"><title>1</title>
<path fill="none" stroke="#d8d356" stroke-width="2" stroke-dasharray="5,2" d="M710.924,-992C710.924,-992 622.659,-992 622.659,-992 616.659,-992 610.659,-986 610.659,-980 610.659,-980 610.659,-960 610.659,-960 610.659,-954 616.659,-948 622.659,-948 622.659,-948 710.924,-948 710.924,-948 716.924,-948 722.924,-954 722.924,-960 722.924,-960 722.924,-980 722.924,-980 722.924,-986 716.924,-992 710.924,-992"/>
<text text-anchor="middle" x="666.792" y="-979" font-family="sans" font-size="10.00">fastq2GZ</text>
<text text-anchor="middle" x="666.792" y="-967" font-family="sans" font-size="10.00">pathFGZ: output/fastq</text>
<text text-anchor="middle" x="666.792" y="-955" font-family="sans" font-size="10.00">sampleFGZ: PfeifferT.1</text>
</g>
<!-- 11 -->
<g id="node12" class="node"><title>11</title>
<path fill="none" stroke="#56d8a9" stroke-width="2" stroke-dasharray="5,2" d="M764.094,-912C764.094,-912 681.489,-912 681.489,-912 675.489,-912 669.489,-906 669.489,-900 669.489,-900 669.489,-888 669.489,-888 669.489,-882 675.489,-876 681.489,-876 681.489,-876 764.094,-876 764.094,-876 770.094,-876 776.094,-882 776.094,-888 776.094,-888 776.094,-900 776.094,-900 776.094,-906 770.094,-912 764.094,-912"/>
<text text-anchor="middle" x="722.792" y="-897" font-family="sans" font-size="10.00">bamALIGN_bwa</text>
<text text-anchor="middle" x="722.792" y="-885" font-family="sans" font-size="10.00">sampleBAB: PfeifferT</text>
</g>
<!-- 1&#45;&gt;11 -->
<g id="edge12" class="edge"><title>1&#45;&gt;11</title>
<path fill="none" stroke="grey" stroke-width="2" d="M682.689,-947.993C689.158,-939.444 696.695,-929.485 703.477,-920.523"/>
<polygon fill="grey" stroke="grey" stroke-width="2" points="706.445,-922.401 709.689,-912.315 700.863,-918.177 706.445,-922.401"/>
</g>
<!-- 2 -->
<g id="node3" class="node"><title>2</title>
<path fill="none" stroke="#5673d8" stroke-width="2" d="M87.3754,-352C87.3754,-352 12.2076,-352 12.2076,-352 6.20763,-352 0.207631,-346 0.207631,-340 0.207631,-340 0.207631,-328 0.207631,-328 0.207631,-322 6.20763,-316 12.2076,-316 12.2076,-316 87.3754,-316 87.3754,-316 93.3754,-316 99.3754,-322 99.3754,-328 99.3754,-328 99.3754,-340 99.3754,-340 99.3754,-346 93.3754,-352 87.3754,-352"/>
<text text-anchor="middle" x="49.7915" y="-337" font-family="sans" font-size="10.00">conSeq</text>
<text text-anchor="middle" x="49.7915" y="-325" font-family="sans" font-size="10.00">sampleCS: PfeifferN</text>
</g>
<!-- 26 -->
<g id="node27" class="node"><title>26</title>
<path fill="none" stroke="#568ad8" stroke-width="2" d="M641.792,-36C641.792,-36 611.792,-36 611.792,-36 605.792,-36 599.792,-30 599.792,-24 599.792,-24 599.792,-12 599.792,-12 599.792,-6 605.792,-0 611.792,-0 611.792,-0 641.792,-0 641.792,-0 647.792,-0 653.792,-6 653.792,-12 653.792,-12 653.792,-24 653.792,-24 653.792,-30 647.792,-36 641.792,-36"/>
<text text-anchor="middle" x="626.792" y="-15" font-family="sans" font-size="10.00">all</text>
</g>
<!-- 2&#45;&gt;26 -->
<g id="edge33" class="edge"><title>2&#45;&gt;26</title>
<path fill="none" stroke="grey" stroke-width="2" d="M48.0084,-315.977C44.1194,-268.841 40.4441,-135.896 113.792,-72 149.558,-40.842 477.636,-24.9511 589.572,-20.4019"/>
<polygon fill="grey" stroke="grey" stroke-width="2" points="589.861,-23.8933 599.713,-19.9969 589.581,-16.8989 589.861,-23.8933"/>
</g>
<!-- 3 -->
<g id="node4" class="node"><title>3</title>
<path fill="none" stroke="#d8d356" stroke-width="2" stroke-dasharray="5,2" d="M419.534,-992C419.534,-992 330.049,-992 330.049,-992 324.049,-992 318.049,-986 318.049,-980 318.049,-980 318.049,-960 318.049,-960 318.049,-954 324.049,-948 330.049,-948 330.049,-948 419.534,-948 419.534,-948 425.534,-948 431.534,-954 431.534,-960 431.534,-960 431.534,-980 431.534,-980 431.534,-986 425.534,-992 419.534,-992"/>
<text text-anchor="middle" x="374.792" y="-979" font-family="sans" font-size="10.00">fastq2GZ</text>
<text text-anchor="middle" x="374.792" y="-967" font-family="sans" font-size="10.00">pathFGZ: output/fastq</text>
<text text-anchor="middle" x="374.792" y="-955" font-family="sans" font-size="10.00">sampleFGZ: PfeifferN.1</text>
</g>
<!-- 28 -->
<g id="node29" class="node"><title>28</title>
<path fill="none" stroke="#56d8a9" stroke-width="2" stroke-dasharray="5,2" d="M518.704,-912C518.704,-912 434.879,-912 434.879,-912 428.879,-912 422.879,-906 422.879,-900 422.879,-900 422.879,-888 422.879,-888 422.879,-882 428.879,-876 434.879,-876 434.879,-876 518.704,-876 518.704,-876 524.704,-876 530.704,-882 530.704,-888 530.704,-888 530.704,-900 530.704,-900 530.704,-906 524.704,-912 518.704,-912"/>
<text text-anchor="middle" x="476.792" y="-897" font-family="sans" font-size="10.00">bamALIGN_bwa</text>
<text text-anchor="middle" x="476.792" y="-885" font-family="sans" font-size="10.00">sampleBAB: PfeifferN</text>
</g>
<!-- 3&#45;&gt;28 -->
<g id="edge37" class="edge"><title>3&#45;&gt;28</title>
<path fill="none" stroke="grey" stroke-width="2" d="M403.748,-947.993C416.599,-938.669 431.764,-927.667 444.935,-918.111"/>
<polygon fill="grey" stroke="grey" stroke-width="2" points="447.22,-920.778 453.259,-912.073 443.109,-915.112 447.22,-920.778"/>
</g>
<!-- 4 -->
<g id="node5" class="node"><title>4</title>
<path fill="none" stroke="#8fd856" stroke-width="2" d="M1011.83,-116C1011.83,-116 665.757,-116 665.757,-116 659.757,-116 653.757,-110 653.757,-104 653.757,-104 653.757,-84 653.757,-84 653.757,-78 659.757,-72 665.757,-72 665.757,-72 1011.83,-72 1011.83,-72 1017.83,-72 1023.83,-78 1023.83,-84 1023.83,-84 1023.83,-104 1023.83,-104 1023.83,-110 1017.83,-116 1011.83,-116"/>
<text text-anchor="middle" x="838.792" y="-103" font-family="sans" font-size="10.00">getVcfTable</text>
<text text-anchor="middle" x="838.792" y="-91" font-family="sans" font-size="10.00">pathGVCFT: output/vcfGenUtil_varScan</text>
<text text-anchor="middle" x="838.792" y="-79" font-family="sans" font-size="10.00">sampleGVCFT: PfeifferT_PfeifferN.varScan.indel.canonical_annotated.indel_annotated</text>
</g>
<!-- 4&#45;&gt;26 -->
<g id="edge28" class="edge"><title>4&#45;&gt;26</title>
<path fill="none" stroke="grey" stroke-width="2" d="M778.608,-71.9925C741.604,-59.0759 695.375,-42.9395 663.713,-31.8876"/>
<polygon fill="grey" stroke="grey" stroke-width="2" points="664.57,-28.4797 653.975,-28.4885 662.263,-35.0886 664.57,-28.4797"/>
</g>
<!-- 5 -->
<g id="node6" class="node"><title>5</title>
<path fill="none" stroke="#56d8b9" stroke-width="2" stroke-dasharray="5,2" d="M823.118,-680C823.118,-680 622.465,-680 622.465,-680 616.465,-680 610.465,-674 610.465,-668 610.465,-668 610.465,-648 610.465,-648 610.465,-642 616.465,-636 622.465,-636 622.465,-636 823.118,-636 823.118,-636 829.118,-636 835.118,-642 835.118,-648 835.118,-648 835.118,-668 835.118,-668 835.118,-674 829.118,-680 823.118,-680"/>
<text text-anchor="middle" x="722.792" y="-667" font-family="sans" font-size="10.00">markdupBAM</text>
<text text-anchor="middle" x="722.792" y="-655" font-family="sans" font-size="10.00">outputDIR: output</text>
<text text-anchor="middle" x="722.792" y="-643" font-family="sans" font-size="10.00">sampleMDB: PfeifferT_Aligned.out_sorted_filtered</text>
</g>
<!-- 6 -->
<g id="node7" class="node"><title>6</title>
<path fill="none" stroke="#a7d856" stroke-width="2" d="M759.035,-600C759.035,-600 686.548,-600 686.548,-600 680.548,-600 674.548,-594 674.548,-588 674.548,-588 674.548,-576 674.548,-576 674.548,-570 680.548,-564 686.548,-564 686.548,-564 759.035,-564 759.035,-564 765.035,-564 771.035,-570 771.035,-576 771.035,-576 771.035,-588 771.035,-588 771.035,-594 765.035,-600 759.035,-600"/>
<text text-anchor="middle" x="722.792" y="-585" font-family="sans" font-size="10.00">indexBAM</text>
<text text-anchor="middle" x="722.792" y="-573" font-family="sans" font-size="10.00">sampleIB: PfeifferT</text>
</g>
<!-- 5&#45;&gt;6 -->
<g id="edge7" class="edge"><title>5&#45;&gt;6</title>
<path fill="none" stroke="grey" stroke-width="2" d="M722.792,-635.993C722.792,-628.061 722.792,-618.915 722.792,-610.478"/>
<polygon fill="grey" stroke="grey" stroke-width="2" points="726.292,-610.315 722.792,-600.315 719.292,-610.315 726.292,-610.315"/>
</g>
<!-- 19 -->
<g id="node20" class="node"><title>19</title>
<path fill="none" stroke="#56d873" stroke-width="2" d="M766.095,-528C766.095,-528 683.488,-528 683.488,-528 677.488,-528 671.488,-522 671.488,-516 671.488,-516 671.488,-496 671.488,-496 671.488,-490 677.488,-484 683.488,-484 683.488,-484 766.095,-484 766.095,-484 772.095,-484 778.095,-490 778.095,-496 778.095,-496 778.095,-516 778.095,-516 778.095,-522 772.095,-528 766.095,-528"/>
<text text-anchor="middle" x="724.792" y="-515" font-family="sans" font-size="10.00">bam2mpileup</text>
<text text-anchor="middle" x="724.792" y="-503" font-family="sans" font-size="10.00">chrB2M: </text>
<text text-anchor="middle" x="724.792" y="-491" font-family="sans" font-size="10.00">sampleB2M: PfeifferT</text>
</g>
<!-- 6&#45;&gt;19 -->
<g id="edge20" class="edge"><title>6&#45;&gt;19</title>
<path fill="none" stroke="grey" stroke-width="2" d="M723.255,-563.837C723.463,-556.165 723.714,-546.878 723.952,-538.053"/>
<polygon fill="grey" stroke="grey" stroke-width="2" points="727.452,-538.123 724.223,-528.032 720.454,-537.934 727.452,-538.123"/>
</g>
<!-- 6&#45;&gt;30 -->
<g id="edge39" class="edge"><title>6&#45;&gt;30</title>
<path fill="none" stroke="grey" stroke-width="2" d="M694.264,-563.837C679.155,-554.747 660.278,-543.39 643.377,-533.222"/>
<polygon fill="grey" stroke="grey" stroke-width="2" points="645.124,-530.188 634.75,-528.032 641.515,-536.187 645.124,-530.188"/>
</g>
<!-- 7 -->
<g id="node8" class="node"><title>7</title>
<path fill="none" stroke="#d8d356" stroke-width="2" stroke-dasharray="5,2" d="M841.924,-992C841.924,-992 753.659,-992 753.659,-992 747.659,-992 741.659,-986 741.659,-980 741.659,-980 741.659,-960 741.659,-960 741.659,-954 747.659,-948 753.659,-948 753.659,-948 841.924,-948 841.924,-948 847.924,-948 853.924,-954 853.924,-960 853.924,-960 853.924,-980 853.924,-980 853.924,-986 847.924,-992 841.924,-992"/>
<text text-anchor="middle" x="797.792" y="-979" font-family="sans" font-size="10.00">fastq2GZ</text>
<text text-anchor="middle" x="797.792" y="-967" font-family="sans" font-size="10.00">pathFGZ: output/fastq</text>
<text text-anchor="middle" x="797.792" y="-955" font-family="sans" font-size="10.00">sampleFGZ: PfeifferT.2</text>
</g>
<!-- 7&#45;&gt;11 -->
<g id="edge13" class="edge"><title>7&#45;&gt;11</title>
<path fill="none" stroke="grey" stroke-width="2" d="M776.5,-947.993C767.479,-939.091 756.908,-928.661 747.541,-919.42"/>
<polygon fill="grey" stroke="grey" stroke-width="2" points="749.917,-916.847 740.34,-912.315 745,-921.83 749.917,-916.847"/>
</g>
<!-- 8 -->
<g id="node9" class="node"><title>8</title>
<path fill="none" stroke="#5673d8" stroke-width="2" d="M1204.27,-272C1204.27,-272 1129.32,-272 1129.32,-272 1123.32,-272 1117.32,-266 1117.32,-260 1117.32,-260 1117.32,-248 1117.32,-248 1117.32,-242 1123.32,-236 1129.32,-236 1129.32,-236 1204.27,-236 1204.27,-236 1210.27,-236 1216.27,-242 1216.27,-248 1216.27,-248 1216.27,-260 1216.27,-260 1216.27,-266 1210.27,-272 1204.27,-272"/>
<text text-anchor="middle" x="1166.79" y="-257" font-family="sans" font-size="10.00">conSeq</text>
<text text-anchor="middle" x="1166.79" y="-245" font-family="sans" font-size="10.00">sampleCS: PfeifferT</text>
</g>
<!-- 8&#45;&gt;26 -->
<g id="edge31" class="edge"><title>8&#45;&gt;26</title>
<path fill="none" stroke="grey" stroke-width="2" d="M1166.5,-235.941C1164.86,-199.322 1155.43,-113.182 1103.79,-72 1069.59,-44.7194 770.418,-26.527 664.092,-20.8738"/>
<polygon fill="grey" stroke="grey" stroke-width="2" points="664.008,-17.3646 653.838,-20.3358 663.641,-24.355 664.008,-17.3646"/>
</g>
<!-- 9 -->
<g id="node10" class="node"><title>9</title>
<path fill="none" stroke="#56d8d0" stroke-width="2" stroke-dasharray="5,2" d="M544.039,-840C544.039,-840 409.544,-840 409.544,-840 403.544,-840 397.544,-834 397.544,-828 397.544,-828 397.544,-808 397.544,-808 397.544,-802 403.544,-796 409.544,-796 409.544,-796 544.039,-796 544.039,-796 550.039,-796 556.039,-802 556.039,-808 556.039,-808 556.039,-828 556.039,-828 556.039,-834 550.039,-840 544.039,-840"/>
<text text-anchor="middle" x="476.792" y="-827" font-family="sans" font-size="10.00">sortBAM_biobambam</text>
<text text-anchor="middle" x="476.792" y="-815" font-family="sans" font-size="10.00">pathSBB: output/bam</text>
<text text-anchor="middle" x="476.792" y="-803" font-family="sans" font-size="10.00">sampleSBB: PfeifferN_Aligned.out</text>
</g>
<!-- 18 -->
<g id="node19" class="node"><title>18</title>
<path fill="none" stroke="#5663d8" stroke-width="2" stroke-dasharray="5,2" d="M555.306,-760C555.306,-760 398.277,-760 398.277,-760 392.277,-760 386.277,-754 386.277,-748 386.277,-748 386.277,-728 386.277,-728 386.277,-722 392.277,-716 398.277,-716 398.277,-716 555.306,-716 555.306,-716 561.306,-716 567.306,-722 567.306,-728 567.306,-728 567.306,-748 567.306,-748 567.306,-754 561.306,-760 555.306,-760"/>
<text text-anchor="middle" x="476.792" y="-747" font-family="sans" font-size="10.00">filteredBAM</text>
<text text-anchor="middle" x="476.792" y="-735" font-family="sans" font-size="10.00">pathFB: output/bam</text>
<text text-anchor="middle" x="476.792" y="-723" font-family="sans" font-size="10.00">sampleFB: PfeifferN_Aligned.out_sorted</text>
</g>
<!-- 9&#45;&gt;18 -->
<g id="edge19" class="edge"><title>9&#45;&gt;18</title>
<path fill="none" stroke="grey" stroke-width="2" d="M476.792,-795.686C476.792,-787.798 476.792,-778.684 476.792,-770.103"/>
<polygon fill="grey" stroke="grey" stroke-width="2" points="480.292,-770.018 476.792,-760.018 473.292,-770.018 480.292,-770.018"/>
</g>
<!-- 10 -->
<g id="node11" class="node"><title>10</title>
<path fill="none" stroke="#68d856" stroke-width="2" d="M862.485,-442C862.485,-442 781.098,-442 781.098,-442 775.098,-442 769.098,-436 769.098,-430 769.098,-430 769.098,-410 769.098,-410 769.098,-404 775.098,-398 781.098,-398 781.098,-398 862.485,-398 862.485,-398 868.485,-398 874.485,-404 874.485,-410 874.485,-410 874.485,-430 874.485,-430 874.485,-436 868.485,-442 862.485,-442"/>
<text text-anchor="middle" x="821.792" y="-429" font-family="sans" font-size="10.00">copycall</text>
<text text-anchor="middle" x="821.792" y="-417" font-family="sans" font-size="10.00">samplenCC: PfeifferN</text>
<text text-anchor="middle" x="821.792" y="-405" font-family="sans" font-size="10.00">sampletCC: PfeifferT</text>
</g>
<!-- 10&#45;&gt;26 -->
<g id="edge34" class="edge"><title>10&#45;&gt;26</title>
<path fill="none" stroke="grey" stroke-width="2" d="M874.74,-398.774C952.843,-367.269 1089.79,-304.912 1089.79,-255 1089.79,-255 1089.79,-255 1089.79,-173 1089.79,-125.039 1089.46,-101.689 1051.79,-72 992.047,-24.9095 756.3,-19.237 664.066,-18.857"/>
<polygon fill="grey" stroke="grey" stroke-width="2" points="664.068,-15.3571 654.06,-18.8346 664.052,-22.3571 664.068,-15.3571"/>
</g>
<!-- 14 -->
<g id="node15" class="node"><title>14</title>
<path fill="none" stroke="#56d8d0" stroke-width="2" stroke-dasharray="5,2" d="M789.429,-840C789.429,-840 656.154,-840 656.154,-840 650.154,-840 644.154,-834 644.154,-828 644.154,-828 644.154,-808 644.154,-808 644.154,-802 650.154,-796 656.154,-796 656.154,-796 789.429,-796 789.429,-796 795.429,-796 801.429,-802 801.429,-808 801.429,-808 801.429,-828 801.429,-828 801.429,-834 795.429,-840 789.429,-840"/>
<text text-anchor="middle" x="722.792" y="-827" font-family="sans" font-size="10.00">sortBAM_biobambam</text>
<text text-anchor="middle" x="722.792" y="-815" font-family="sans" font-size="10.00">pathSBB: output/bam</text>
<text text-anchor="middle" x="722.792" y="-803" font-family="sans" font-size="10.00">sampleSBB: PfeifferT_Aligned.out</text>
</g>
<!-- 11&#45;&gt;14 -->
<g id="edge15" class="edge"><title>11&#45;&gt;14</title>
<path fill="none" stroke="grey" stroke-width="2" d="M722.792,-875.837C722.792,-868.165 722.792,-858.878 722.792,-850.053"/>
<polygon fill="grey" stroke="grey" stroke-width="2" points="726.292,-850.032 722.792,-840.032 719.292,-850.032 726.292,-850.032"/>
</g>
<!-- 12&#45;&gt;2 -->
<g id="edge3" class="edge"><title>12&#45;&gt;2</title>
<path fill="none" stroke="grey" stroke-width="2" d="M420.525,-502.152C332.246,-496.591 162.487,-481.748 113.792,-448 84.0176,-427.366 66.4069,-388.12 57.42,-361.754"/>
<polygon fill="grey" stroke="grey" stroke-width="2" points="60.68,-360.458 54.2887,-352.008 54.0155,-362.599 60.68,-360.458"/>
</g>
<!-- 23 -->
<g id="node24" class="node"><title>23</title>
<path fill="none" stroke="#56d85b" stroke-width="2" d="M659.82,-448C659.82,-448 539.763,-448 539.763,-448 533.763,-448 527.763,-442 527.763,-436 527.763,-436 527.763,-404 527.763,-404 527.763,-398 533.763,-392 539.763,-392 539.763,-392 659.82,-392 659.82,-392 665.82,-392 671.82,-398 671.82,-404 671.82,-404 671.82,-436 671.82,-436 671.82,-442 665.82,-448 659.82,-448"/>
<text text-anchor="middle" x="599.792" y="-435" font-family="sans" font-size="10.00">mpileup2vcf_pair</text>
<text text-anchor="middle" x="599.792" y="-423" font-family="sans" font-size="10.00">chrMPU2VCFP: </text>
<text text-anchor="middle" x="599.792" y="-411" font-family="sans" font-size="10.00">samplenMPU2VCFP: PfeifferN</text>
<text text-anchor="middle" x="599.792" y="-399" font-family="sans" font-size="10.00">sampletMPU2VCFP: PfeifferT</text>
</g>
<!-- 12&#45;&gt;23 -->
<g id="edge25" class="edge"><title>12&#45;&gt;23</title>
<path fill="none" stroke="grey" stroke-width="2" d="M506.334,-483.803C519.756,-474.784 535.726,-464.052 550.634,-454.034"/>
<polygon fill="grey" stroke="grey" stroke-width="2" points="552.914,-456.719 559.262,-448.236 549.009,-450.909 552.914,-456.719"/>
</g>
<!-- 13 -->
<g id="node14" class="node"><title>13</title>
<path fill="none" stroke="#56d882" stroke-width="2" stroke-dasharray="5,2" d="M483.934,-1064C483.934,-1064 397.649,-1064 397.649,-1064 391.649,-1064 385.649,-1058 385.649,-1052 385.649,-1052 385.649,-1040 385.649,-1040 385.649,-1034 391.649,-1028 397.649,-1028 397.649,-1028 483.934,-1028 483.934,-1028 489.934,-1028 495.934,-1034 495.934,-1040 495.934,-1040 495.934,-1052 495.934,-1052 495.934,-1058 489.934,-1064 483.934,-1064"/>
<text text-anchor="middle" x="440.792" y="-1049" font-family="sans" font-size="10.00">bam2fastq_picard</text>
<text text-anchor="middle" x="440.792" y="-1037" font-family="sans" font-size="10.00">sampleB2FP: PfeifferN</text>
</g>
<!-- 13&#45;&gt;3 -->
<g id="edge4" class="edge"><title>13&#45;&gt;3</title>
<path fill="none" stroke="grey" stroke-width="2" d="M425.484,-1027.84C418.046,-1019.5 408.906,-1009.25 400.445,-999.763"/>
<polygon fill="grey" stroke="grey" stroke-width="2" points="402.818,-997.166 393.55,-992.032 397.594,-1001.82 402.818,-997.166"/>
</g>
<!-- 17 -->
<g id="node18" class="node"><title>17</title>
<path fill="none" stroke="#d8d356" stroke-width="2" stroke-dasharray="5,2" d="M551.534,-992C551.534,-992 462.049,-992 462.049,-992 456.049,-992 450.049,-986 450.049,-980 450.049,-980 450.049,-960 450.049,-960 450.049,-954 456.049,-948 462.049,-948 462.049,-948 551.534,-948 551.534,-948 557.534,-948 563.534,-954 563.534,-960 563.534,-960 563.534,-980 563.534,-980 563.534,-986 557.534,-992 551.534,-992"/>
<text text-anchor="middle" x="506.792" y="-979" font-family="sans" font-size="10.00">fastq2GZ</text>
<text text-anchor="middle" x="506.792" y="-967" font-family="sans" font-size="10.00">pathFGZ: output/fastq</text>
<text text-anchor="middle" x="506.792" y="-955" font-family="sans" font-size="10.00">sampleFGZ: PfeifferN.2</text>
</g>
<!-- 13&#45;&gt;17 -->
<g id="edge18" class="edge"><title>13&#45;&gt;17</title>
<path fill="none" stroke="grey" stroke-width="2" d="M456.099,-1027.84C463.537,-1019.5 472.677,-1009.25 481.138,-999.763"/>
<polygon fill="grey" stroke="grey" stroke-width="2" points="483.989,-1001.82 488.033,-992.032 478.765,-997.166 483.989,-1001.82"/>
</g>
<!-- 22 -->
<g id="node23" class="node"><title>22</title>
<path fill="none" stroke="#5663d8" stroke-width="2" stroke-dasharray="5,2" d="M801.196,-760C801.196,-760 644.387,-760 644.387,-760 638.387,-760 632.387,-754 632.387,-748 632.387,-748 632.387,-728 632.387,-728 632.387,-722 638.387,-716 644.387,-716 644.387,-716 801.196,-716 801.196,-716 807.196,-716 813.196,-722 813.196,-728 813.196,-728 813.196,-748 813.196,-748 813.196,-754 807.196,-760 801.196,-760"/>
<text text-anchor="middle" x="722.792" y="-747" font-family="sans" font-size="10.00">filteredBAM</text>
<text text-anchor="middle" x="722.792" y="-735" font-family="sans" font-size="10.00">pathFB: output/bam</text>
<text text-anchor="middle" x="722.792" y="-723" font-family="sans" font-size="10.00">sampleFB: PfeifferT_Aligned.out_sorted</text>
</g>
<!-- 14&#45;&gt;22 -->
<g id="edge23" class="edge"><title>14&#45;&gt;22</title>
<path fill="none" stroke="grey" stroke-width="2" d="M722.792,-795.686C722.792,-787.798 722.792,-778.684 722.792,-770.103"/>
<polygon fill="grey" stroke="grey" stroke-width="2" points="726.292,-770.018 722.792,-760.018 719.292,-770.018 726.292,-770.018"/>
</g>
<!-- 15 -->
<g id="node16" class="node"><title>15</title>
<path fill="none" stroke="#d89556" stroke-width="2" d="M561.849,-276C561.849,-276 293.734,-276 293.734,-276 287.734,-276 281.734,-270 281.734,-264 281.734,-264 281.734,-244 281.734,-244 281.734,-238 287.734,-232 293.734,-232 293.734,-232 561.849,-232 561.849,-232 567.849,-232 573.849,-238 573.849,-244 573.849,-244 573.849,-264 573.849,-264 573.849,-270 567.849,-276 561.849,-276"/>
<text text-anchor="middle" x="427.792" y="-263" font-family="sans" font-size="10.00">dbsnp</text>
<text text-anchor="middle" x="427.792" y="-251" font-family="sans" font-size="10.00">pathDbSnp: output/vcfGenUtil_varScan</text>
<text text-anchor="middle" x="427.792" y="-239" font-family="sans" font-size="10.00">sampleDbSnp: PfeifferT_PfeifferN.varScan.snp.canonical_annotated</text>
</g>
<!-- 25 -->
<g id="node26" class="node"><title>25</title>
<path fill="none" stroke="#d8cb56" stroke-width="2" d="M580.282,-196C580.282,-196 249.301,-196 249.301,-196 243.301,-196 237.301,-190 237.301,-184 237.301,-184 237.301,-164 237.301,-164 237.301,-158 243.301,-152 249.301,-152 249.301,-152 580.282,-152 580.282,-152 586.282,-152 592.282,-158 592.282,-164 592.282,-164 592.282,-184 592.282,-184 592.282,-190 586.282,-196 580.282,-196"/>
<text text-anchor="middle" x="414.792" y="-183" font-family="sans" font-size="10.00">cosmic</text>
<text text-anchor="middle" x="414.792" y="-171" font-family="sans" font-size="10.00">pathCOS: output/vcfGenUtil_varScan</text>
<text text-anchor="middle" x="414.792" y="-159" font-family="sans" font-size="10.00">sampleCOS: PfeifferT_PfeifferN.varScan.snp.canonical_annotated.dbsnp_annotated</text>
</g>
<!-- 15&#45;&gt;25 -->
<g id="edge27" class="edge"><title>15&#45;&gt;25</title>
<path fill="none" stroke="grey" stroke-width="2" d="M424.239,-231.686C422.924,-223.798 421.406,-214.684 419.975,-206.103"/>
<polygon fill="grey" stroke="grey" stroke-width="2" points="423.391,-205.307 418.295,-196.018 416.486,-206.457 423.391,-205.307"/>
</g>
<!-- 16 -->
<g id="node17" class="node"><title>16</title>
<path fill="none" stroke="#8fd856" stroke-width="2" d="M623.81,-116C623.81,-116 205.773,-116 205.773,-116 199.773,-116 193.773,-110 193.773,-104 193.773,-104 193.773,-84 193.773,-84 193.773,-78 199.773,-72 205.773,-72 205.773,-72 623.81,-72 623.81,-72 629.81,-72 635.81,-78 635.81,-84 635.81,-84 635.81,-104 635.81,-104 635.81,-110 629.81,-116 623.81,-116"/>
<text text-anchor="middle" x="414.792" y="-103" font-family="sans" font-size="10.00">getVcfTable</text>
<text text-anchor="middle" x="414.792" y="-91" font-family="sans" font-size="10.00">pathGVCFT: output/vcfGenUtil_varScan</text>
<text text-anchor="middle" x="414.792" y="-79" font-family="sans" font-size="10.00">sampleGVCFT: PfeifferT_PfeifferN.varScan.snp.canonical_annotated.dbsnp_annotated.cosmic_annotated</text>
</g>
<!-- 16&#45;&gt;26 -->
<g id="edge29" class="edge"><title>16&#45;&gt;26</title>
<path fill="none" stroke="grey" stroke-width="2" d="M474.975,-71.9925C511.979,-59.0759 558.208,-42.9395 589.87,-31.8876"/>
<polygon fill="grey" stroke="grey" stroke-width="2" points="591.32,-35.0886 599.608,-28.4885 589.013,-28.4797 591.32,-35.0886"/>
</g>
<!-- 17&#45;&gt;28 -->
<g id="edge38" class="edge"><title>17&#45;&gt;28</title>
<path fill="none" stroke="grey" stroke-width="2" d="M498.275,-947.993C494.952,-939.796 491.104,-930.304 487.59,-921.637"/>
<polygon fill="grey" stroke="grey" stroke-width="2" points="490.812,-920.267 483.811,-912.315 484.324,-922.897 490.812,-920.267"/>
</g>
<!-- 20 -->
<g id="node21" class="node"><title>20</title>
<path fill="none" stroke="#56d8b9" stroke-width="2" stroke-dasharray="5,2" d="M577.728,-680C577.728,-680 375.855,-680 375.855,-680 369.855,-680 363.855,-674 363.855,-668 363.855,-668 363.855,-648 363.855,-648 363.855,-642 369.855,-636 375.855,-636 375.855,-636 577.728,-636 577.728,-636 583.728,-636 589.728,-642 589.728,-648 589.728,-648 589.728,-668 589.728,-668 589.728,-674 583.728,-680 577.728,-680"/>
<text text-anchor="middle" x="476.792" y="-667" font-family="sans" font-size="10.00">markdupBAM</text>
<text text-anchor="middle" x="476.792" y="-655" font-family="sans" font-size="10.00">outputDIR: output</text>
<text text-anchor="middle" x="476.792" y="-643" font-family="sans" font-size="10.00">sampleMDB: PfeifferN_Aligned.out_sorted_filtered</text>
</g>
<!-- 18&#45;&gt;20 -->
<g id="edge21" class="edge"><title>18&#45;&gt;20</title>
<path fill="none" stroke="grey" stroke-width="2" d="M476.792,-715.686C476.792,-707.798 476.792,-698.684 476.792,-690.103"/>
<polygon fill="grey" stroke="grey" stroke-width="2" points="480.292,-690.018 476.792,-680.018 473.292,-690.018 480.292,-690.018"/>
</g>
<!-- 19&#45;&gt;8 -->
<g id="edge9" class="edge"><title>19&#45;&gt;8</title>
<path fill="none" stroke="grey" stroke-width="2" d="M778.216,-495.47C857.205,-479.051 1006.29,-438.887 1103.79,-356 1127.66,-335.711 1145.35,-304.042 1155.81,-281.58"/>
<polygon fill="grey" stroke="grey" stroke-width="2" points="1159.08,-282.837 1159.97,-272.28 1152.69,-279.976 1159.08,-282.837"/>
</g>
<!-- 19&#45;&gt;23 -->
<g id="edge24" class="edge"><title>19&#45;&gt;23</title>
<path fill="none" stroke="grey" stroke-width="2" d="M693.249,-483.803C679.827,-474.784 663.857,-464.052 648.949,-454.034"/>
<polygon fill="grey" stroke="grey" stroke-width="2" points="650.574,-450.909 640.321,-448.236 646.669,-456.719 650.574,-450.909"/>
</g>
<!-- 20&#45;&gt;0 -->
<g id="edge1" class="edge"><title>20&#45;&gt;0</title>
<path fill="none" stroke="grey" stroke-width="2" d="M476.792,-635.993C476.792,-628.061 476.792,-618.915 476.792,-610.478"/>
<polygon fill="grey" stroke="grey" stroke-width="2" points="480.292,-610.315 476.792,-600.315 473.292,-610.315 480.292,-610.315"/>
</g>
<!-- 21 -->
<g id="node22" class="node"><title>21</title>
<path fill="none" stroke="#56c9d8" stroke-width="2" d="M804.597,-356C804.597,-356 620.986,-356 620.986,-356 614.986,-356 608.986,-350 608.986,-344 608.986,-344 608.986,-324 608.986,-324 608.986,-318 614.986,-312 620.986,-312 620.986,-312 804.597,-312 804.597,-312 810.597,-312 816.597,-318 816.597,-324 816.597,-324 816.597,-344 816.597,-344 816.597,-350 810.597,-356 804.597,-356"/>
<text text-anchor="middle" x="712.792" y="-343" font-family="sans" font-size="10.00">canonical</text>
<text text-anchor="middle" x="712.792" y="-331" font-family="sans" font-size="10.00">pathCAN: vcfGenUtil_varScan</text>
<text text-anchor="middle" x="712.792" y="-319" font-family="sans" font-size="10.00">sampleCAN: PfeifferT_PfeifferN.varScan.indel</text>
</g>
<!-- 27 -->
<g id="node28" class="node"><title>27</title>
<path fill="none" stroke="#d8ac56" stroke-width="2" d="M972.726,-196C972.726,-196 704.857,-196 704.857,-196 698.857,-196 692.857,-190 692.857,-184 692.857,-184 692.857,-164 692.857,-164 692.857,-158 698.857,-152 704.857,-152 704.857,-152 972.726,-152 972.726,-152 978.726,-152 984.726,-158 984.726,-164 984.726,-164 984.726,-184 984.726,-184 984.726,-190 978.726,-196 972.726,-196"/>
<text text-anchor="middle" x="838.792" y="-183" font-family="sans" font-size="10.00">indel</text>
<text text-anchor="middle" x="838.792" y="-171" font-family="sans" font-size="10.00">pathIndel: output/vcfGenUtil_varScan</text>
<text text-anchor="middle" x="838.792" y="-159" font-family="sans" font-size="10.00">sampleIndel: PfeifferT_PfeifferN.varScan.indel.canonical_annotated</text>
</g>
<!-- 21&#45;&gt;27 -->
<g id="edge36" class="edge"><title>21&#45;&gt;27</title>
<path fill="none" stroke="grey" stroke-width="2" d="M729.784,-311.691C751.921,-283.932 790.722,-235.278 815.564,-204.127"/>
<polygon fill="grey" stroke="grey" stroke-width="2" points="818.369,-206.223 821.867,-196.223 812.896,-201.859 818.369,-206.223"/>
</g>
<!-- 22&#45;&gt;5 -->
<g id="edge6" class="edge"><title>22&#45;&gt;5</title>
<path fill="none" stroke="grey" stroke-width="2" d="M722.792,-715.686C722.792,-707.798 722.792,-698.684 722.792,-690.103"/>
<polygon fill="grey" stroke="grey" stroke-width="2" points="726.292,-690.018 722.792,-680.018 719.292,-690.018 726.292,-690.018"/>
</g>
<!-- 23&#45;&gt;21 -->
<g id="edge22" class="edge"><title>23&#45;&gt;21</title>
<path fill="none" stroke="grey" stroke-width="2" d="M636.167,-391.959C648.975,-382.439 663.37,-371.738 676.196,-362.204"/>
<polygon fill="grey" stroke="grey" stroke-width="2" points="678.428,-364.905 684.366,-356.131 674.252,-359.288 678.428,-364.905"/>
</g>
<!-- 24 -->
<g id="node25" class="node"><title>24</title>
<path fill="none" stroke="#56c9d8" stroke-width="2" d="M566.489,-356C566.489,-356 389.094,-356 389.094,-356 383.094,-356 377.094,-350 377.094,-344 377.094,-344 377.094,-324 377.094,-324 377.094,-318 383.094,-312 389.094,-312 389.094,-312 566.489,-312 566.489,-312 572.489,-312 578.489,-318 578.489,-324 578.489,-324 578.489,-344 578.489,-344 578.489,-350 572.489,-356 566.489,-356"/>
<text text-anchor="middle" x="477.792" y="-343" font-family="sans" font-size="10.00">canonical</text>
<text text-anchor="middle" x="477.792" y="-331" font-family="sans" font-size="10.00">pathCAN: vcfGenUtil_varScan</text>
<text text-anchor="middle" x="477.792" y="-319" font-family="sans" font-size="10.00">sampleCAN: PfeifferT_PfeifferN.varScan.snp</text>
</g>
<!-- 23&#45;&gt;24 -->
<g id="edge26" class="edge"><title>23&#45;&gt;24</title>
<path fill="none" stroke="grey" stroke-width="2" d="M560.518,-391.959C546.559,-382.348 530.853,-371.534 516.906,-361.931"/>
<polygon fill="grey" stroke="grey" stroke-width="2" points="518.703,-358.919 508.481,-356.131 514.733,-364.684 518.703,-358.919"/>
</g>
<!-- 24&#45;&gt;15 -->
<g id="edge16" class="edge"><title>24&#45;&gt;15</title>
<path fill="none" stroke="grey" stroke-width="2" d="M464.129,-311.686C458.794,-303.364 452.586,-293.679 446.826,-284.694"/>
<polygon fill="grey" stroke="grey" stroke-width="2" points="449.608,-282.548 441.265,-276.018 443.715,-286.326 449.608,-282.548"/>
</g>
<!-- 25&#45;&gt;16 -->
<g id="edge17" class="edge"><title>25&#45;&gt;16</title>
<path fill="none" stroke="grey" stroke-width="2" d="M414.792,-151.686C414.792,-143.798 414.792,-134.684 414.792,-126.103"/>
<polygon fill="grey" stroke="grey" stroke-width="2" points="418.292,-126.018 414.792,-116.018 411.292,-126.018 418.292,-126.018"/>
</g>
<!-- 25&#45;&gt;26 -->
<g id="edge30" class="edge"><title>25&#45;&gt;26</title>
<path fill="none" stroke="grey" stroke-width="2" d="M263.843,-151.941C200.686,-136.907 149.263,-112.043 184.792,-72 211.512,-41.884 487.577,-25.6801 589.367,-20.6935"/>
<polygon fill="grey" stroke="grey" stroke-width="2" points="589.68,-24.1825 599.5,-20.2061 589.343,-17.1906 589.68,-24.1825"/>
</g>
<!-- 27&#45;&gt;4 -->
<g id="edge5" class="edge"><title>27&#45;&gt;4</title>
<path fill="none" stroke="grey" stroke-width="2" d="M838.792,-151.686C838.792,-143.798 838.792,-134.684 838.792,-126.103"/>
<polygon fill="grey" stroke="grey" stroke-width="2" points="842.292,-126.018 838.792,-116.018 835.292,-126.018 842.292,-126.018"/>
</g>
<!-- 27&#45;&gt;26 -->
<g id="edge32" class="edge"><title>27&#45;&gt;26</title>
<path fill="none" stroke="grey" stroke-width="2" d="M951.449,-151.968C987.949,-142.703 1021.88,-130.579 1032.79,-116 1044.51,-100.344 1045.69,-86.6956 1032.79,-72 1008.61,-44.4538 759.818,-26.8895 664.067,-21.1047"/>
<polygon fill="grey" stroke="grey" stroke-width="2" points="664.154,-17.6038 653.964,-20.5039 663.739,-24.5915 664.154,-17.6038"/>
</g>
<!-- 28&#45;&gt;9 -->
<g id="edge10" class="edge"><title>28&#45;&gt;9</title>
<path fill="none" stroke="grey" stroke-width="2" d="M476.792,-875.837C476.792,-868.165 476.792,-858.878 476.792,-850.053"/>
<polygon fill="grey" stroke="grey" stroke-width="2" points="480.292,-850.032 476.792,-840.032 473.292,-850.032 480.292,-850.032"/>
</g>
<!-- 29 -->
<g id="node30" class="node"><title>29</title>
<path fill="none" stroke="#56d882" stroke-width="2" stroke-dasharray="5,2" d="M774.324,-1064C774.324,-1064 689.259,-1064 689.259,-1064 683.259,-1064 677.259,-1058 677.259,-1052 677.259,-1052 677.259,-1040 677.259,-1040 677.259,-1034 683.259,-1028 689.259,-1028 689.259,-1028 774.324,-1028 774.324,-1028 780.324,-1028 786.324,-1034 786.324,-1040 786.324,-1040 786.324,-1052 786.324,-1052 786.324,-1058 780.324,-1064 774.324,-1064"/>
<text text-anchor="middle" x="731.792" y="-1049" font-family="sans" font-size="10.00">bam2fastq_picard</text>
<text text-anchor="middle" x="731.792" y="-1037" font-family="sans" font-size="10.00">sampleB2FP: PfeifferT</text>
</g>
<!-- 29&#45;&gt;1 -->
<g id="edge2" class="edge"><title>29&#45;&gt;1</title>
<path fill="none" stroke="grey" stroke-width="2" d="M716.716,-1027.84C709.391,-1019.5 700.39,-1009.25 692.057,-999.763"/>
<polygon fill="grey" stroke="grey" stroke-width="2" points="694.495,-997.236 685.266,-992.032 689.236,-1001.86 694.495,-997.236"/>
</g>
<!-- 29&#45;&gt;7 -->
<g id="edge8" class="edge"><title>29&#45;&gt;7</title>
<path fill="none" stroke="grey" stroke-width="2" d="M747.099,-1027.84C754.537,-1019.5 763.677,-1009.25 772.138,-999.763"/>
<polygon fill="grey" stroke="grey" stroke-width="2" points="774.989,-1001.82 779.033,-992.032 769.765,-997.166 774.989,-1001.82"/>
</g>
<!-- 30&#45;&gt;10 -->
<g id="edge11" class="edge"><title>30&#45;&gt;10</title>
<path fill="none" stroke="grey" stroke-width="2" d="M652.966,-484.88C684.956,-472.776 725.835,-457.308 759.355,-444.625"/>
<polygon fill="grey" stroke="grey" stroke-width="2" points="760.937,-447.768 769.051,-440.956 758.459,-441.221 760.937,-447.768"/>
</g>
<!-- 30&#45;&gt;26 -->
<g id="edge35" class="edge"><title>30&#45;&gt;26</title>
<path fill="none" stroke="grey" stroke-width="2" d="M546.565,-486.551C423.125,-443.674 127.792,-340.512 127.792,-335 127.792,-335 127.792,-335 127.792,-173 127.792,-124.385 130.975,-101.27 169.792,-72 235.641,-22.347 492.633,-18.3133 589.538,-18.6094"/>
<polygon fill="grey" stroke="grey" stroke-width="2" points="589.726,-22.1102 599.743,-18.6588 589.76,-15.1103 589.726,-22.1102"/>
</g>
</g>
</svg>
