<?xml version="1.0" encoding="UTF-8" standalone="no"?>
<!DOCTYPE svg PUBLIC "-//W3C//DTD SVG 1.1//EN"
 "http://www.w3.org/Graphics/SVG/1.1/DTD/svg11.dtd">
<!-- Generated by graphviz version 2.38.0 (20140413.2041)
 -->
<!-- Title: snakemake_dag Pages: 1 -->
<svg width="774pt" height="828pt"
 viewBox="0.00 0.00 774.00 828.00" xmlns="http://www.w3.org/2000/svg" xmlns:xlink="http://www.w3.org/1999/xlink">
<g id="graph0" class="graph" transform="scale(1 1) rotate(0) translate(4 824)">
<title>snakemake_dag</title>
<polygon fill="white" stroke="none" points="-4,4 -4,-824 770,-824 770,4 -4,4"/>
<!-- 0 -->
<g id="node1" class="node"><title>0</title>
<path fill="none" stroke="#88d856" stroke-width="2" d="M627,-668C627,-668 531,-668 531,-668 525,-668 519,-662 519,-656 519,-656 519,-644 519,-644 519,-638 525,-632 531,-632 531,-632 627,-632 627,-632 633,-632 639,-638 639,-644 639,-644 639,-656 639,-656 639,-662 633,-668 627,-668"/>
<text text-anchor="middle" x="579" y="-653" font-family="sans" font-size="10.00">bamALIGN_bwa</text>
<text text-anchor="middle" x="579" y="-641" font-family="sans" font-size="10.00">sampleBAB: Pfeiffer2</text>
</g>
<!-- 15 -->
<g id="node16" class="node"><title>15</title>
<path fill="none" stroke="#569ad8" stroke-width="2" d="M661.5,-596C661.5,-596 496.5,-596 496.5,-596 490.5,-596 484.5,-590 484.5,-584 484.5,-584 484.5,-564 484.5,-564 484.5,-558 490.5,-552 496.5,-552 496.5,-552 661.5,-552 661.5,-552 667.5,-552 673.5,-558 673.5,-564 673.5,-564 673.5,-584 673.5,-584 673.5,-590 667.5,-596 661.5,-596"/>
<text text-anchor="middle" x="579" y="-583" font-family="sans" font-size="10.00">namesortBAM_biobambam</text>
<text text-anchor="middle" x="579" y="-571" font-family="sans" font-size="10.00">pathNSBB: output/bam</text>
<text text-anchor="middle" x="579" y="-559" font-family="sans" font-size="10.00">sampleNSBB: Pfeiffer2_Aligned.out</text>
</g>
<!-- 0&#45;&gt;15 -->
<g id="edge17" class="edge"><title>0&#45;&gt;15</title>
<path fill="none" stroke="grey" stroke-width="2" d="M579,-631.837C579,-624.165 579,-614.878 579,-606.053"/>
<polygon fill="grey" stroke="grey" stroke-width="2" points="582.5,-606.032 579,-596.032 575.5,-606.032 582.5,-606.032"/>
</g>
<!-- 1 -->
<g id="node2" class="node"><title>1</title>
<path fill="none" stroke="#88d856" stroke-width="2" d="M235,-668C235,-668 139,-668 139,-668 133,-668 127,-662 127,-656 127,-656 127,-644 127,-644 127,-638 133,-632 139,-632 139,-632 235,-632 235,-632 241,-632 247,-638 247,-644 247,-644 247,-656 247,-656 247,-662 241,-668 235,-668"/>
<text text-anchor="middle" x="187" y="-653" font-family="sans" font-size="10.00">bamALIGN_bwa</text>
<text text-anchor="middle" x="187" y="-641" font-family="sans" font-size="10.00">sampleBAB: Pfeiffer3</text>
</g>
<!-- 11 -->
<g id="node12" class="node"><title>11</title>
<path fill="none" stroke="#569ad8" stroke-width="2" d="M269.5,-596C269.5,-596 104.5,-596 104.5,-596 98.5,-596 92.5,-590 92.5,-584 92.5,-584 92.5,-564 92.5,-564 92.5,-558 98.5,-552 104.5,-552 104.5,-552 269.5,-552 269.5,-552 275.5,-552 281.5,-558 281.5,-564 281.5,-564 281.5,-584 281.5,-584 281.5,-590 275.5,-596 269.5,-596"/>
<text text-anchor="middle" x="187" y="-583" font-family="sans" font-size="10.00">namesortBAM_biobambam</text>
<text text-anchor="middle" x="187" y="-571" font-family="sans" font-size="10.00">pathNSBB: output/bam</text>
<text text-anchor="middle" x="187" y="-559" font-family="sans" font-size="10.00">sampleNSBB: Pfeiffer3_Aligned.out</text>
</g>
<!-- 1&#45;&gt;11 -->
<g id="edge14" class="edge"><title>1&#45;&gt;11</title>
<path fill="none" stroke="grey" stroke-width="2" d="M187,-631.837C187,-624.165 187,-614.878 187,-606.053"/>
<polygon fill="grey" stroke="grey" stroke-width="2" points="190.5,-606.032 187,-596.032 183.5,-606.032 190.5,-606.032"/>
</g>
<!-- 2 -->
<g id="node3" class="node"><title>2</title>
<path fill="none" stroke="#56d86b" stroke-width="2" d="M556,-116C556,-116 470,-116 470,-116 464,-116 458,-110 458,-104 458,-104 458,-84 458,-84 458,-78 464,-72 470,-72 470,-72 556,-72 556,-72 562,-72 568,-78 568,-84 568,-84 568,-104 568,-104 568,-110 562,-116 556,-116"/>
<text text-anchor="middle" x="513" y="-103" font-family="sans" font-size="10.00">indexBAM</text>
<text text-anchor="middle" x="513" y="-91" font-family="sans" font-size="10.00">outputDIR: output</text>
<text text-anchor="middle" x="513" y="-79" font-family="sans" font-size="10.00">sampleIB: Pfeiffer2</text>
</g>
<!-- 3 -->
<g id="node4" class="node"><title>3</title>
<path fill="none" stroke="#56d88a" stroke-width="2" d="M431,-36C431,-36 401,-36 401,-36 395,-36 389,-30 389,-24 389,-24 389,-12 389,-12 389,-6 395,-0 401,-0 401,-0 431,-0 431,-0 437,-0 443,-6 443,-12 443,-12 443,-24 443,-24 443,-30 437,-36 431,-36"/>
<text text-anchor="middle" x="416" y="-15" font-family="sans" font-size="10.00">all</text>
</g>
<!-- 2&#45;&gt;3 -->
<g id="edge7" class="edge"><title>2&#45;&gt;3</title>
<path fill="none" stroke="grey" stroke-width="2" d="M485.463,-71.9925C473.358,-62.7575 459.095,-51.8766 446.653,-42.3849"/>
<polygon fill="grey" stroke="grey" stroke-width="2" points="448.453,-39.3556 438.379,-36.0729 444.207,-44.921 448.453,-39.3556"/>
</g>
<!-- 4 -->
<g id="node5" class="node"><title>4</title>
<path fill="none" stroke="#d89c56" stroke-width="2" d="M558.5,-748C558.5,-748 453.5,-748 453.5,-748 447.5,-748 441.5,-742 441.5,-736 441.5,-736 441.5,-716 441.5,-716 441.5,-710 447.5,-704 453.5,-704 453.5,-704 558.5,-704 558.5,-704 564.5,-704 570.5,-710 570.5,-716 570.5,-716 570.5,-736 570.5,-736 570.5,-742 564.5,-748 558.5,-748"/>
<text text-anchor="middle" x="506" y="-735" font-family="sans" font-size="10.00">fastq2GZ</text>
<text text-anchor="middle" x="506" y="-723" font-family="sans" font-size="10.00">pathFGZ: output/fastq</text>
<text text-anchor="middle" x="506" y="-711" font-family="sans" font-size="10.00">sampleFGZ: Pfeiffer2.1</text>
</g>
<!-- 4&#45;&gt;0 -->
<g id="edge2" class="edge"><title>4&#45;&gt;0</title>
<path fill="none" stroke="grey" stroke-width="2" d="M526.724,-703.993C535.418,-695.179 545.59,-684.868 554.639,-675.694"/>
<polygon fill="grey" stroke="grey" stroke-width="2" points="557.388,-677.892 561.919,-668.315 552.405,-672.976 557.388,-677.892"/>
</g>
<!-- 5 -->
<g id="node6" class="node"><title>5</title>
<path fill="none" stroke="#56d8a9" stroke-width="2" d="M238,-820C238,-820 138,-820 138,-820 132,-820 126,-814 126,-808 126,-808 126,-796 126,-796 126,-790 132,-784 138,-784 138,-784 238,-784 238,-784 244,-784 250,-790 250,-796 250,-796 250,-808 250,-808 250,-814 244,-820 238,-820"/>
<text text-anchor="middle" x="188" y="-805" font-family="sans" font-size="10.00">bam2fastq_picard</text>
<text text-anchor="middle" x="188" y="-793" font-family="sans" font-size="10.00">sampleB2FP: Pfeiffer3</text>
</g>
<!-- 16 -->
<g id="node17" class="node"><title>16</title>
<path fill="none" stroke="#d89c56" stroke-width="2" d="M166.5,-748C166.5,-748 61.5,-748 61.5,-748 55.5,-748 49.5,-742 49.5,-736 49.5,-736 49.5,-716 49.5,-716 49.5,-710 55.5,-704 61.5,-704 61.5,-704 166.5,-704 166.5,-704 172.5,-704 178.5,-710 178.5,-716 178.5,-716 178.5,-736 178.5,-736 178.5,-742 172.5,-748 166.5,-748"/>
<text text-anchor="middle" x="114" y="-735" font-family="sans" font-size="10.00">fastq2GZ</text>
<text text-anchor="middle" x="114" y="-723" font-family="sans" font-size="10.00">pathFGZ: output/fastq</text>
<text text-anchor="middle" x="114" y="-711" font-family="sans" font-size="10.00">sampleFGZ: Pfeiffer3.1</text>
</g>
<!-- 5&#45;&gt;16 -->
<g id="edge18" class="edge"><title>5&#45;&gt;16</title>
<path fill="none" stroke="grey" stroke-width="2" d="M170.837,-783.837C162.331,-775.331 151.839,-764.839 142.195,-755.195"/>
<polygon fill="grey" stroke="grey" stroke-width="2" points="144.578,-752.628 135.032,-748.032 139.628,-757.578 144.578,-752.628"/>
</g>
<!-- 21 -->
<g id="node22" class="node"><title>21</title>
<path fill="none" stroke="#d89c56" stroke-width="2" d="M313.5,-748C313.5,-748 208.5,-748 208.5,-748 202.5,-748 196.5,-742 196.5,-736 196.5,-736 196.5,-716 196.5,-716 196.5,-710 202.5,-704 208.5,-704 208.5,-704 313.5,-704 313.5,-704 319.5,-704 325.5,-710 325.5,-716 325.5,-716 325.5,-736 325.5,-736 325.5,-742 319.5,-748 313.5,-748"/>
<text text-anchor="middle" x="261" y="-735" font-family="sans" font-size="10.00">fastq2GZ</text>
<text text-anchor="middle" x="261" y="-723" font-family="sans" font-size="10.00">pathFGZ: output/fastq</text>
<text text-anchor="middle" x="261" y="-711" font-family="sans" font-size="10.00">sampleFGZ: Pfeiffer3.2</text>
</g>
<!-- 5&#45;&gt;21 -->
<g id="edge23" class="edge"><title>5&#45;&gt;21</title>
<path fill="none" stroke="grey" stroke-width="2" d="M204.931,-783.837C213.322,-775.331 223.672,-764.839 233.186,-755.195"/>
<polygon fill="grey" stroke="grey" stroke-width="2" points="235.721,-757.609 240.252,-748.032 230.738,-752.693 235.721,-757.609"/>
</g>
<!-- 6 -->
<g id="node7" class="node"><title>6</title>
<path fill="none" stroke="#d8bc56" stroke-width="2" d="M288.5,-516C288.5,-516 85.5,-516 85.5,-516 79.5,-516 73.5,-510 73.5,-504 73.5,-504 73.5,-484 73.5,-484 73.5,-478 79.5,-472 85.5,-472 85.5,-472 288.5,-472 288.5,-472 294.5,-472 300.5,-478 300.5,-484 300.5,-484 300.5,-504 300.5,-504 300.5,-510 294.5,-516 288.5,-516"/>
<text text-anchor="middle" x="187" y="-503" font-family="sans" font-size="10.00">cleanBAM</text>
<text text-anchor="middle" x="187" y="-491" font-family="sans" font-size="10.00">pathCB: output/bam</text>
<text text-anchor="middle" x="187" y="-479" font-family="sans" font-size="10.00">sampleCB: Pfeiffer3_Aligned.out_namesort</text>
</g>
<!-- 7 -->
<g id="node8" class="node"><title>7</title>
<path fill="none" stroke="#ced856" stroke-width="2" d="M308,-436C308,-436 66,-436 66,-436 60,-436 54,-430 54,-424 54,-424 54,-404 54,-404 54,-398 60,-392 66,-392 66,-392 308,-392 308,-392 314,-392 320,-398 320,-404 320,-404 320,-424 320,-424 320,-430 314,-436 308,-436"/>
<text text-anchor="middle" x="187" y="-423" font-family="sans" font-size="10.00">fixmateBAM</text>
<text text-anchor="middle" x="187" y="-411" font-family="sans" font-size="10.00">pathFMB: output/bam</text>
<text text-anchor="middle" x="187" y="-399" font-family="sans" font-size="10.00">sampleFMB: Pfeiffer3_Aligned.out_namesort_clean</text>
</g>
<!-- 6&#45;&gt;7 -->
<g id="edge10" class="edge"><title>6&#45;&gt;7</title>
<path fill="none" stroke="grey" stroke-width="2" d="M187,-471.686C187,-463.798 187,-454.684 187,-446.103"/>
<polygon fill="grey" stroke="grey" stroke-width="2" points="190.5,-446.018 187,-436.018 183.5,-446.018 190.5,-446.018"/>
</g>
<!-- 12 -->
<g id="node13" class="node"><title>12</title>
<path fill="none" stroke="#68d856" stroke-width="2" d="M329.5,-356C329.5,-356 44.5,-356 44.5,-356 38.5,-356 32.5,-350 32.5,-344 32.5,-344 32.5,-324 32.5,-324 32.5,-318 38.5,-312 44.5,-312 44.5,-312 329.5,-312 329.5,-312 335.5,-312 341.5,-318 341.5,-324 341.5,-324 341.5,-344 341.5,-344 341.5,-350 335.5,-356 329.5,-356"/>
<text text-anchor="middle" x="187" y="-343" font-family="sans" font-size="10.00">rmdupBAM</text>
<text text-anchor="middle" x="187" y="-331" font-family="sans" font-size="10.00">pathRDB: output/bam</text>
<text text-anchor="middle" x="187" y="-319" font-family="sans" font-size="10.00">sampleRDB: Pfeiffer3_Aligned.out_namesort_clean_fixmate</text>
</g>
<!-- 7&#45;&gt;12 -->
<g id="edge15" class="edge"><title>7&#45;&gt;12</title>
<path fill="none" stroke="grey" stroke-width="2" d="M187,-391.686C187,-383.798 187,-374.684 187,-366.103"/>
<polygon fill="grey" stroke="grey" stroke-width="2" points="190.5,-366.018 187,-356.018 183.5,-366.018 190.5,-366.018"/>
</g>
<!-- 8 -->
<g id="node9" class="node"><title>8</title>
<path fill="none" stroke="#d85656" stroke-width="2" d="M754,-196C754,-196 404,-196 404,-196 398,-196 392,-190 392,-184 392,-184 392,-164 392,-164 392,-158 398,-152 404,-152 404,-152 754,-152 754,-152 760,-152 766,-158 766,-164 766,-164 766,-184 766,-184 766,-190 760,-196 754,-196"/>
<text text-anchor="middle" x="579" y="-183" font-family="sans" font-size="10.00">filteredBAM</text>
<text text-anchor="middle" x="579" y="-171" font-family="sans" font-size="10.00">pathFB: output/bam</text>
<text text-anchor="middle" x="579" y="-159" font-family="sans" font-size="10.00">sampleFB: Pfeiffer2_Aligned.out_namesort_clean_fixmate_rmdup_sorted</text>
</g>
<!-- 8&#45;&gt;2 -->
<g id="edge5" class="edge"><title>8&#45;&gt;2</title>
<path fill="none" stroke="grey" stroke-width="2" d="M560.965,-151.686C553.703,-143.104 545.215,-133.072 537.414,-123.853"/>
<polygon fill="grey" stroke="grey" stroke-width="2" points="539.916,-121.391 530.784,-116.018 534.572,-125.913 539.916,-121.391"/>
</g>
<!-- 9 -->
<g id="node10" class="node"><title>9</title>
<path fill="none" stroke="#d85656" stroke-width="2" d="M362,-196C362,-196 12,-196 12,-196 6,-196 2.84217e-14,-190 2.84217e-14,-184 2.84217e-14,-184 2.84217e-14,-164 2.84217e-14,-164 2.84217e-14,-158 6,-152 12,-152 12,-152 362,-152 362,-152 368,-152 374,-158 374,-164 374,-164 374,-184 374,-184 374,-190 368,-196 362,-196"/>
<text text-anchor="middle" x="187" y="-183" font-family="sans" font-size="10.00">filteredBAM</text>
<text text-anchor="middle" x="187" y="-171" font-family="sans" font-size="10.00">pathFB: output/bam</text>
<text text-anchor="middle" x="187" y="-159" font-family="sans" font-size="10.00">sampleFB: Pfeiffer3_Aligned.out_namesort_clean_fixmate_rmdup_sorted</text>
</g>
<!-- 18 -->
<g id="node19" class="node"><title>18</title>
<path fill="none" stroke="#56d86b" stroke-width="2" d="M362,-116C362,-116 276,-116 276,-116 270,-116 264,-110 264,-104 264,-104 264,-84 264,-84 264,-78 270,-72 276,-72 276,-72 362,-72 362,-72 368,-72 374,-78 374,-84 374,-84 374,-104 374,-104 374,-110 368,-116 362,-116"/>
<text text-anchor="middle" x="319" y="-103" font-family="sans" font-size="10.00">indexBAM</text>
<text text-anchor="middle" x="319" y="-91" font-family="sans" font-size="10.00">outputDIR: output</text>
<text text-anchor="middle" x="319" y="-79" font-family="sans" font-size="10.00">sampleIB: Pfeiffer3</text>
</g>
<!-- 9&#45;&gt;18 -->
<g id="edge20" class="edge"><title>9&#45;&gt;18</title>
<path fill="none" stroke="grey" stroke-width="2" d="M222.721,-151.892C238.716,-142.441 257.739,-131.199 274.636,-121.215"/>
<polygon fill="grey" stroke="grey" stroke-width="2" points="276.422,-124.225 283.25,-116.125 272.86,-118.199 276.422,-124.225"/>
</g>
<!-- 10 -->
<g id="node11" class="node"><title>10</title>
<path fill="none" stroke="#d89c56" stroke-width="2" d="M705.5,-748C705.5,-748 600.5,-748 600.5,-748 594.5,-748 588.5,-742 588.5,-736 588.5,-736 588.5,-716 588.5,-716 588.5,-710 594.5,-704 600.5,-704 600.5,-704 705.5,-704 705.5,-704 711.5,-704 717.5,-710 717.5,-716 717.5,-716 717.5,-736 717.5,-736 717.5,-742 711.5,-748 705.5,-748"/>
<text text-anchor="middle" x="653" y="-735" font-family="sans" font-size="10.00">fastq2GZ</text>
<text text-anchor="middle" x="653" y="-723" font-family="sans" font-size="10.00">pathFGZ: output/fastq</text>
<text text-anchor="middle" x="653" y="-711" font-family="sans" font-size="10.00">sampleFGZ: Pfeiffer2.2</text>
</g>
<!-- 10&#45;&gt;0 -->
<g id="edge1" class="edge"><title>10&#45;&gt;0</title>
<path fill="none" stroke="grey" stroke-width="2" d="M631.993,-703.993C623.091,-695.091 612.661,-684.661 603.42,-675.42"/>
<polygon fill="grey" stroke="grey" stroke-width="2" points="605.861,-672.911 596.315,-668.315 600.911,-677.861 605.861,-672.911"/>
</g>
<!-- 11&#45;&gt;6 -->
<g id="edge9" class="edge"><title>11&#45;&gt;6</title>
<path fill="none" stroke="grey" stroke-width="2" d="M187,-551.686C187,-543.798 187,-534.684 187,-526.103"/>
<polygon fill="grey" stroke="grey" stroke-width="2" points="190.5,-526.018 187,-516.018 183.5,-526.018 190.5,-526.018"/>
</g>
<!-- 22 -->
<g id="node23" class="node"><title>22</title>
<path fill="none" stroke="#56d8d0" stroke-width="2" d="M347.5,-276C347.5,-276 26.5,-276 26.5,-276 20.5,-276 14.5,-270 14.5,-264 14.5,-264 14.5,-244 14.5,-244 14.5,-238 20.5,-232 26.5,-232 26.5,-232 347.5,-232 347.5,-232 353.5,-232 359.5,-238 359.5,-244 359.5,-244 359.5,-264 359.5,-264 359.5,-270 353.5,-276 347.5,-276"/>
<text text-anchor="middle" x="187" y="-263" font-family="sans" font-size="10.00">sortBAM_biobambam</text>
<text text-anchor="middle" x="187" y="-251" font-family="sans" font-size="10.00">pathSBB: output/bam</text>
<text text-anchor="middle" x="187" y="-239" font-family="sans" font-size="10.00">sampleSBB: Pfeiffer3_Aligned.out_namesort_clean_fixmate_rmdup</text>
</g>
<!-- 12&#45;&gt;22 -->
<g id="edge24" class="edge"><title>12&#45;&gt;22</title>
<path fill="none" stroke="grey" stroke-width="2" d="M187,-311.686C187,-303.798 187,-294.684 187,-286.103"/>
<polygon fill="grey" stroke="grey" stroke-width="2" points="190.5,-286.018 187,-276.018 183.5,-286.018 190.5,-286.018"/>
</g>
<!-- 13 -->
<g id="node14" class="node"><title>13</title>
<path fill="none" stroke="#56d8a9" stroke-width="2" d="M629,-820C629,-820 529,-820 529,-820 523,-820 517,-814 517,-808 517,-808 517,-796 517,-796 517,-790 523,-784 529,-784 529,-784 629,-784 629,-784 635,-784 641,-790 641,-796 641,-796 641,-808 641,-808 641,-814 635,-820 629,-820"/>
<text text-anchor="middle" x="579" y="-805" font-family="sans" font-size="10.00">bam2fastq_picard</text>
<text text-anchor="middle" x="579" y="-793" font-family="sans" font-size="10.00">sampleB2FP: Pfeiffer2</text>
</g>
<!-- 13&#45;&gt;4 -->
<g id="edge8" class="edge"><title>13&#45;&gt;4</title>
<path fill="none" stroke="grey" stroke-width="2" d="M562.069,-783.837C553.678,-775.331 543.328,-764.839 533.814,-755.195"/>
<polygon fill="grey" stroke="grey" stroke-width="2" points="536.262,-752.693 526.748,-748.032 531.279,-757.609 536.262,-752.693"/>
</g>
<!-- 13&#45;&gt;10 -->
<g id="edge13" class="edge"><title>13&#45;&gt;10</title>
<path fill="none" stroke="grey" stroke-width="2" d="M596.163,-783.837C604.669,-775.331 615.161,-764.839 624.805,-755.195"/>
<polygon fill="grey" stroke="grey" stroke-width="2" points="627.372,-757.578 631.968,-748.032 622.422,-752.628 627.372,-757.578"/>
</g>
<!-- 14 -->
<g id="node15" class="node"><title>14</title>
<path fill="none" stroke="#ced856" stroke-width="2" d="M700,-436C700,-436 458,-436 458,-436 452,-436 446,-430 446,-424 446,-424 446,-404 446,-404 446,-398 452,-392 458,-392 458,-392 700,-392 700,-392 706,-392 712,-398 712,-404 712,-404 712,-424 712,-424 712,-430 706,-436 700,-436"/>
<text text-anchor="middle" x="579" y="-423" font-family="sans" font-size="10.00">fixmateBAM</text>
<text text-anchor="middle" x="579" y="-411" font-family="sans" font-size="10.00">pathFMB: output/bam</text>
<text text-anchor="middle" x="579" y="-399" font-family="sans" font-size="10.00">sampleFMB: Pfeiffer2_Aligned.out_namesort_clean</text>
</g>
<!-- 17 -->
<g id="node18" class="node"><title>17</title>
<path fill="none" stroke="#68d856" stroke-width="2" d="M721.5,-356C721.5,-356 436.5,-356 436.5,-356 430.5,-356 424.5,-350 424.5,-344 424.5,-344 424.5,-324 424.5,-324 424.5,-318 430.5,-312 436.5,-312 436.5,-312 721.5,-312 721.5,-312 727.5,-312 733.5,-318 733.5,-324 733.5,-324 733.5,-344 733.5,-344 733.5,-350 727.5,-356 721.5,-356"/>
<text text-anchor="middle" x="579" y="-343" font-family="sans" font-size="10.00">rmdupBAM</text>
<text text-anchor="middle" x="579" y="-331" font-family="sans" font-size="10.00">pathRDB: output/bam</text>
<text text-anchor="middle" x="579" y="-319" font-family="sans" font-size="10.00">sampleRDB: Pfeiffer2_Aligned.out_namesort_clean_fixmate</text>
</g>
<!-- 14&#45;&gt;17 -->
<g id="edge19" class="edge"><title>14&#45;&gt;17</title>
<path fill="none" stroke="grey" stroke-width="2" d="M579,-391.686C579,-383.798 579,-374.684 579,-366.103"/>
<polygon fill="grey" stroke="grey" stroke-width="2" points="582.5,-366.018 579,-356.018 575.5,-366.018 582.5,-366.018"/>
</g>
<!-- 20 -->
<g id="node21" class="node"><title>20</title>
<path fill="none" stroke="#d8bc56" stroke-width="2" d="M680.5,-516C680.5,-516 477.5,-516 477.5,-516 471.5,-516 465.5,-510 465.5,-504 465.5,-504 465.5,-484 465.5,-484 465.5,-478 471.5,-472 477.5,-472 477.5,-472 680.5,-472 680.5,-472 686.5,-472 692.5,-478 692.5,-484 692.5,-484 692.5,-504 692.5,-504 692.5,-510 686.5,-516 680.5,-516"/>
<text text-anchor="middle" x="579" y="-503" font-family="sans" font-size="10.00">cleanBAM</text>
<text text-anchor="middle" x="579" y="-491" font-family="sans" font-size="10.00">pathCB: output/bam</text>
<text text-anchor="middle" x="579" y="-479" font-family="sans" font-size="10.00">sampleCB: Pfeiffer2_Aligned.out_namesort</text>
</g>
<!-- 15&#45;&gt;20 -->
<g id="edge22" class="edge"><title>15&#45;&gt;20</title>
<path fill="none" stroke="grey" stroke-width="2" d="M579,-551.686C579,-543.798 579,-534.684 579,-526.103"/>
<polygon fill="grey" stroke="grey" stroke-width="2" points="582.5,-526.018 579,-516.018 575.5,-526.018 582.5,-526.018"/>
</g>
<!-- 16&#45;&gt;1 -->
<g id="edge4" class="edge"><title>16&#45;&gt;1</title>
<path fill="none" stroke="grey" stroke-width="2" d="M134.724,-703.993C143.418,-695.179 153.59,-684.868 162.639,-675.694"/>
<polygon fill="grey" stroke="grey" stroke-width="2" points="165.388,-677.892 169.919,-668.315 160.405,-672.976 165.388,-677.892"/>
</g>
<!-- 19 -->
<g id="node20" class="node"><title>19</title>
<path fill="none" stroke="#56d8d0" stroke-width="2" d="M739.5,-276C739.5,-276 418.5,-276 418.5,-276 412.5,-276 406.5,-270 406.5,-264 406.5,-264 406.5,-244 406.5,-244 406.5,-238 412.5,-232 418.5,-232 418.5,-232 739.5,-232 739.5,-232 745.5,-232 751.5,-238 751.5,-244 751.5,-244 751.5,-264 751.5,-264 751.5,-270 745.5,-276 739.5,-276"/>
<text text-anchor="middle" x="579" y="-263" font-family="sans" font-size="10.00">sortBAM_biobambam</text>
<text text-anchor="middle" x="579" y="-251" font-family="sans" font-size="10.00">pathSBB: output/bam</text>
<text text-anchor="middle" x="579" y="-239" font-family="sans" font-size="10.00">sampleSBB: Pfeiffer2_Aligned.out_namesort_clean_fixmate_rmdup</text>
</g>
<!-- 17&#45;&gt;19 -->
<g id="edge21" class="edge"><title>17&#45;&gt;19</title>
<path fill="none" stroke="grey" stroke-width="2" d="M579,-311.686C579,-303.798 579,-294.684 579,-286.103"/>
<polygon fill="grey" stroke="grey" stroke-width="2" points="582.5,-286.018 579,-276.018 575.5,-286.018 582.5,-286.018"/>
</g>
<!-- 18&#45;&gt;3 -->
<g id="edge6" class="edge"><title>18&#45;&gt;3</title>
<path fill="none" stroke="grey" stroke-width="2" d="M346.537,-71.9925C358.642,-62.7575 372.905,-51.8766 385.347,-42.3849"/>
<polygon fill="grey" stroke="grey" stroke-width="2" points="387.793,-44.921 393.621,-36.0729 383.547,-39.3556 387.793,-44.921"/>
</g>
<!-- 19&#45;&gt;8 -->
<g id="edge11" class="edge"><title>19&#45;&gt;8</title>
<path fill="none" stroke="grey" stroke-width="2" d="M579,-231.686C579,-223.798 579,-214.684 579,-206.103"/>
<polygon fill="grey" stroke="grey" stroke-width="2" points="582.5,-206.018 579,-196.018 575.5,-206.018 582.5,-206.018"/>
</g>
<!-- 20&#45;&gt;14 -->
<g id="edge16" class="edge"><title>20&#45;&gt;14</title>
<path fill="none" stroke="grey" stroke-width="2" d="M579,-471.686C579,-463.798 579,-454.684 579,-446.103"/>
<polygon fill="grey" stroke="grey" stroke-width="2" points="582.5,-446.018 579,-436.018 575.5,-446.018 582.5,-446.018"/>
</g>
<!-- 21&#45;&gt;1 -->
<g id="edge3" class="edge"><title>21&#45;&gt;1</title>
<path fill="none" stroke="grey" stroke-width="2" d="M239.993,-703.993C231.091,-695.091 220.661,-684.661 211.42,-675.42"/>
<polygon fill="grey" stroke="grey" stroke-width="2" points="213.861,-672.911 204.315,-668.315 208.911,-677.861 213.861,-672.911"/>
</g>
<!-- 22&#45;&gt;9 -->
<g id="edge12" class="edge"><title>22&#45;&gt;9</title>
<path fill="none" stroke="grey" stroke-width="2" d="M187,-231.686C187,-223.798 187,-214.684 187,-206.103"/>
<polygon fill="grey" stroke="grey" stroke-width="2" points="190.5,-206.018 187,-196.018 183.5,-206.018 190.5,-206.018"/>
</g>
</g>
</svg>
