<?xml version="1.0" encoding="UTF-8" standalone="no"?>
<!DOCTYPE svg PUBLIC "-//W3C//DTD SVG 1.1//EN"
 "http://www.w3.org/Graphics/SVG/1.1/DTD/svg11.dtd">
<!-- Generated by graphviz version 2.38.0 (20140413.2041)
 -->
<!-- Title: snakemake_dag Pages: 1 -->
<svg width="568pt" height="580pt"
 viewBox="0.00 0.00 567.79 580.00" xmlns="http://www.w3.org/2000/svg" xmlns:xlink="http://www.w3.org/1999/xlink">
<g id="graph0" class="graph" transform="scale(1 1) rotate(0) translate(4 576)">
<title>snakemake_dag</title>
<polygon fill="white" stroke="none" points="-4,4 -4,-576 563.795,-576 563.795,4 -4,4"/>
<!-- 0 -->
<g id="node1" class="node"><title>0</title>
<path fill="none" stroke="#78d856" stroke-width="2" stroke-dasharray="5,2" d="M516.82,-500C516.82,-500 432.974,-500 432.974,-500 426.974,-500 420.974,-494 420.974,-488 420.974,-488 420.974,-476 420.974,-476 420.974,-470 426.974,-464 432.974,-464 432.974,-464 516.82,-464 516.82,-464 522.82,-464 528.82,-470 528.82,-476 528.82,-476 528.82,-488 528.82,-488 528.82,-494 522.82,-500 516.82,-500"/>
<text text-anchor="middle" x="474.897" y="-485" font-family="sans" font-size="10.00">bam2fastq_picard</text>
<text text-anchor="middle" x="474.897" y="-473" font-family="sans" font-size="10.00">sampleB2FP: Pfeiffer3</text>
</g>
<!-- 3 -->
<g id="node4" class="node"><title>3</title>
<path fill="none" stroke="#56b9d8" stroke-width="2" stroke-dasharray="5,2" d="M388.421,-428C388.421,-428 301.373,-428 301.373,-428 295.373,-428 289.373,-422 289.373,-416 289.373,-416 289.373,-396 289.373,-396 289.373,-390 295.373,-384 301.373,-384 301.373,-384 388.421,-384 388.421,-384 394.421,-384 400.421,-390 400.421,-396 400.421,-396 400.421,-416 400.421,-416 400.421,-422 394.421,-428 388.421,-428"/>
<text text-anchor="middle" x="344.897" y="-415" font-family="sans" font-size="10.00">fastq2GZ</text>
<text text-anchor="middle" x="344.897" y="-403" font-family="sans" font-size="10.00">pathFGZ: output/fastq</text>
<text text-anchor="middle" x="344.897" y="-391" font-family="sans" font-size="10.00">sampleFGZ: Pfeiffer3.1</text>
</g>
<!-- 0&#45;&gt;3 -->
<g id="edge3" class="edge"><title>0&#45;&gt;3</title>
<path fill="none" stroke="grey" stroke-width="2" d="M444.746,-463.837C428.778,-454.747 408.826,-443.39 390.964,-433.222"/>
<polygon fill="grey" stroke="grey" stroke-width="2" points="392.268,-429.938 381.846,-428.032 388.805,-436.021 392.268,-429.938"/>
</g>
<!-- 9 -->
<g id="node10" class="node"><title>9</title>
<path fill="none" stroke="#56d87b" stroke-width="2" d="M310.897,-36C310.897,-36 280.897,-36 280.897,-36 274.897,-36 268.897,-30 268.897,-24 268.897,-24 268.897,-12 268.897,-12 268.897,-6 274.897,-0 280.897,-0 280.897,-0 310.897,-0 310.897,-0 316.897,-0 322.897,-6 322.897,-12 322.897,-12 322.897,-24 322.897,-24 322.897,-30 316.897,-36 310.897,-36"/>
<text text-anchor="middle" x="295.897" y="-15" font-family="sans" font-size="10.00">all</text>
</g>
<!-- 0&#45;&gt;9 -->
<g id="edge11" class="edge"><title>0&#45;&gt;9</title>
<path fill="none" stroke="grey" stroke-width="2" d="M504.162,-463.782C517.052,-454.726 531.212,-442.486 539.897,-428 562.487,-390.322 558.897,-374.93 558.897,-331 558.897,-331 558.897,-331 558.897,-173 558.897,-69.6158 405.689,-34.335 333.143,-23.4241"/>
<polygon fill="grey" stroke="grey" stroke-width="2" points="333.446,-19.9321 323.052,-21.9859 332.458,-26.862 333.446,-19.9321"/>
</g>
<!-- 14 -->
<g id="node15" class="node"><title>14</title>
<path fill="none" stroke="#56b9d8" stroke-width="2" stroke-dasharray="5,2" d="M518.421,-428C518.421,-428 431.373,-428 431.373,-428 425.373,-428 419.373,-422 419.373,-416 419.373,-416 419.373,-396 419.373,-396 419.373,-390 425.373,-384 431.373,-384 431.373,-384 518.421,-384 518.421,-384 524.421,-384 530.421,-390 530.421,-396 530.421,-396 530.421,-416 530.421,-416 530.421,-422 524.421,-428 518.421,-428"/>
<text text-anchor="middle" x="474.897" y="-415" font-family="sans" font-size="10.00">fastq2GZ</text>
<text text-anchor="middle" x="474.897" y="-403" font-family="sans" font-size="10.00">pathFGZ: output/fastq</text>
<text text-anchor="middle" x="474.897" y="-391" font-family="sans" font-size="10.00">sampleFGZ: Pfeiffer3.2</text>
</g>
<!-- 0&#45;&gt;14 -->
<g id="edge21" class="edge"><title>0&#45;&gt;14</title>
<path fill="none" stroke="grey" stroke-width="2" d="M474.897,-463.837C474.897,-456.165 474.897,-446.878 474.897,-438.053"/>
<polygon fill="grey" stroke="grey" stroke-width="2" points="478.397,-438.032 474.897,-428.032 471.397,-438.032 478.397,-438.032"/>
</g>
<!-- 1 -->
<g id="node2" class="node"><title>1</title>
<path fill="none" stroke="#567bd8" stroke-width="2" d="M452.882,-116C452.882,-116 360.912,-116 360.912,-116 354.912,-116 348.912,-110 348.912,-104 348.912,-104 348.912,-84 348.912,-84 348.912,-78 354.912,-72 360.912,-72 360.912,-72 452.882,-72 452.882,-72 458.882,-72 464.882,-78 464.882,-84 464.882,-84 464.882,-104 464.882,-104 464.882,-110 458.882,-116 452.882,-116"/>
<text text-anchor="middle" x="406.897" y="-103" font-family="sans" font-size="10.00">namesortBAM_samtools</text>
<text text-anchor="middle" x="406.897" y="-91" font-family="sans" font-size="10.00">pathNSBS: output/bam</text>
<text text-anchor="middle" x="406.897" y="-79" font-family="sans" font-size="10.00">sampleNSBS: Pfeiffer3</text>
</g>
<!-- 1&#45;&gt;9 -->
<g id="edge12" class="edge"><title>1&#45;&gt;9</title>
<path fill="none" stroke="grey" stroke-width="2" d="M375.386,-71.9925C361.267,-62.5799 344.584,-51.4575 330.156,-41.8389"/>
<polygon fill="grey" stroke="grey" stroke-width="2" points="331.769,-38.7078 321.507,-36.0729 327.886,-44.5321 331.769,-38.7078"/>
</g>
<!-- 2 -->
<g id="node3" class="node"><title>2</title>
<path fill="none" stroke="#56d89a" stroke-width="2" stroke-dasharray="5,2" d="M513.092,-572C513.092,-572 436.703,-572 436.703,-572 430.703,-572 424.703,-566 424.703,-560 424.703,-560 424.703,-548 424.703,-548 424.703,-542 430.703,-536 436.703,-536 436.703,-536 513.092,-536 513.092,-536 519.092,-536 525.092,-542 525.092,-548 525.092,-548 525.092,-560 525.092,-560 525.092,-566 519.092,-572 513.092,-572"/>
<text text-anchor="middle" x="474.897" y="-557" font-family="sans" font-size="10.00">mergeBAM</text>
<text text-anchor="middle" x="474.897" y="-545" font-family="sans" font-size="10.00">sampleMB: Pfeiffer3</text>
</g>
<!-- 2&#45;&gt;0 -->
<g id="edge1" class="edge"><title>2&#45;&gt;0</title>
<path fill="none" stroke="grey" stroke-width="2" d="M474.897,-535.697C474.897,-527.983 474.897,-518.712 474.897,-510.112"/>
<polygon fill="grey" stroke="grey" stroke-width="2" points="478.397,-510.104 474.897,-500.104 471.397,-510.104 478.397,-510.104"/>
</g>
<!-- 6 -->
<g id="node7" class="node"><title>6</title>
<path fill="none" stroke="#569ad8" stroke-width="2" stroke-dasharray="5,2" d="M437.591,-348C437.591,-348 356.204,-348 356.204,-348 350.204,-348 344.204,-342 344.204,-336 344.204,-336 344.204,-324 344.204,-324 344.204,-318 350.204,-312 356.204,-312 356.204,-312 437.591,-312 437.591,-312 443.591,-312 449.591,-318 449.591,-324 449.591,-324 449.591,-336 449.591,-336 449.591,-342 443.591,-348 437.591,-348"/>
<text text-anchor="middle" x="396.897" y="-333" font-family="sans" font-size="10.00">bamALIGN_bwa</text>
<text text-anchor="middle" x="396.897" y="-321" font-family="sans" font-size="10.00">sampleBAB: Pfeiffer3</text>
</g>
<!-- 3&#45;&gt;6 -->
<g id="edge6" class="edge"><title>3&#45;&gt;6</title>
<path fill="none" stroke="grey" stroke-width="2" d="M359.659,-383.993C365.667,-375.444 372.665,-365.485 378.962,-356.523"/>
<polygon fill="grey" stroke="grey" stroke-width="2" points="381.844,-358.509 384.73,-348.315 376.117,-354.484 381.844,-358.509"/>
</g>
<!-- 4 -->
<g id="node5" class="node"><title>4</title>
<path fill="none" stroke="#567bd8" stroke-width="2" d="M237.035,-276C237.035,-276 98.76,-276 98.76,-276 92.76,-276 86.76,-270 86.76,-264 86.76,-264 86.76,-244 86.76,-244 86.76,-238 92.76,-232 98.76,-232 98.76,-232 237.035,-232 237.035,-232 243.035,-232 249.035,-238 249.035,-244 249.035,-244 249.035,-264 249.035,-264 249.035,-270 243.035,-276 237.035,-276"/>
<text text-anchor="middle" x="167.897" y="-263" font-family="sans" font-size="10.00">namesortBAM_samtools</text>
<text text-anchor="middle" x="167.897" y="-251" font-family="sans" font-size="10.00">pathNSBS: output/bam</text>
<text text-anchor="middle" x="167.897" y="-239" font-family="sans" font-size="10.00">sampleNSBS: Pfeiffer2_Aligned.out</text>
</g>
<!-- 12 -->
<g id="node13" class="node"><title>12</title>
<path fill="none" stroke="#d6d856" stroke-width="2" d="M209.531,-196C209.531,-196 138.263,-196 138.263,-196 132.263,-196 126.263,-190 126.263,-184 126.263,-184 126.263,-164 126.263,-164 126.263,-158 132.263,-152 138.263,-152 138.263,-152 209.531,-152 209.531,-152 215.531,-152 221.531,-158 221.531,-164 221.531,-164 221.531,-184 221.531,-184 221.531,-190 215.531,-196 209.531,-196"/>
<text text-anchor="middle" x="173.897" y="-183" font-family="sans" font-size="10.00">indexBAM</text>
<text text-anchor="middle" x="173.897" y="-171" font-family="sans" font-size="10.00">outputDIR: output</text>
<text text-anchor="middle" x="173.897" y="-159" font-family="sans" font-size="10.00">sampleIB: Pfeiffer2</text>
</g>
<!-- 4&#45;&gt;12 -->
<g id="edge19" class="edge"><title>4&#45;&gt;12</title>
<path fill="none" stroke="grey" stroke-width="2" d="M169.537,-231.686C170.144,-223.798 170.845,-214.684 171.505,-206.103"/>
<polygon fill="grey" stroke="grey" stroke-width="2" points="175.003,-206.257 172.281,-196.018 168.024,-205.72 175.003,-206.257"/>
</g>
<!-- 5 -->
<g id="node6" class="node"><title>5</title>
<path fill="none" stroke="#78d856" stroke-width="2" stroke-dasharray="5,2" d="M126.82,-500C126.82,-500 42.9743,-500 42.9743,-500 36.9743,-500 30.9743,-494 30.9743,-488 30.9743,-488 30.9743,-476 30.9743,-476 30.9743,-470 36.9743,-464 42.9743,-464 42.9743,-464 126.82,-464 126.82,-464 132.82,-464 138.82,-470 138.82,-476 138.82,-476 138.82,-488 138.82,-488 138.82,-494 132.82,-500 126.82,-500"/>
<text text-anchor="middle" x="84.8974" y="-485" font-family="sans" font-size="10.00">bam2fastq_picard</text>
<text text-anchor="middle" x="84.8974" y="-473" font-family="sans" font-size="10.00">sampleB2FP: Pfeiffer2</text>
</g>
<!-- 5&#45;&gt;9 -->
<g id="edge13" class="edge"><title>5&#45;&gt;9</title>
<path fill="none" stroke="grey" stroke-width="2" d="M55.6329,-463.782C42.7427,-454.726 28.5825,-442.486 19.8974,-428 -2.69206,-390.322 0.897355,-374.93 0.897355,-331 0.897355,-331 0.897355,-331 0.897355,-173 0.897355,-57.9938 179.267,-28.7275 258.61,-21.3981"/>
<polygon fill="grey" stroke="grey" stroke-width="2" points="259.008,-24.877 268.673,-20.5378 258.411,-17.9024 259.008,-24.877"/>
</g>
<!-- 11 -->
<g id="node12" class="node"><title>11</title>
<path fill="none" stroke="#56b9d8" stroke-width="2" stroke-dasharray="5,2" d="M128.421,-428C128.421,-428 41.3733,-428 41.3733,-428 35.3733,-428 29.3733,-422 29.3733,-416 29.3733,-416 29.3733,-396 29.3733,-396 29.3733,-390 35.3733,-384 41.3733,-384 41.3733,-384 128.421,-384 128.421,-384 134.421,-384 140.421,-390 140.421,-396 140.421,-396 140.421,-416 140.421,-416 140.421,-422 134.421,-428 128.421,-428"/>
<text text-anchor="middle" x="84.8974" y="-415" font-family="sans" font-size="10.00">fastq2GZ</text>
<text text-anchor="middle" x="84.8974" y="-403" font-family="sans" font-size="10.00">pathFGZ: output/fastq</text>
<text text-anchor="middle" x="84.8974" y="-391" font-family="sans" font-size="10.00">sampleFGZ: Pfeiffer2.1</text>
</g>
<!-- 5&#45;&gt;11 -->
<g id="edge18" class="edge"><title>5&#45;&gt;11</title>
<path fill="none" stroke="grey" stroke-width="2" d="M84.8974,-463.837C84.8974,-456.165 84.8974,-446.878 84.8974,-438.053"/>
<polygon fill="grey" stroke="grey" stroke-width="2" points="88.3975,-438.032 84.8974,-428.032 81.3975,-438.032 88.3975,-438.032"/>
</g>
<!-- 15 -->
<g id="node16" class="node"><title>15</title>
<path fill="none" stroke="#56b9d8" stroke-width="2" stroke-dasharray="5,2" d="M258.421,-428C258.421,-428 171.373,-428 171.373,-428 165.373,-428 159.373,-422 159.373,-416 159.373,-416 159.373,-396 159.373,-396 159.373,-390 165.373,-384 171.373,-384 171.373,-384 258.421,-384 258.421,-384 264.421,-384 270.421,-390 270.421,-396 270.421,-396 270.421,-416 270.421,-416 270.421,-422 264.421,-428 258.421,-428"/>
<text text-anchor="middle" x="214.897" y="-415" font-family="sans" font-size="10.00">fastq2GZ</text>
<text text-anchor="middle" x="214.897" y="-403" font-family="sans" font-size="10.00">pathFGZ: output/fastq</text>
<text text-anchor="middle" x="214.897" y="-391" font-family="sans" font-size="10.00">sampleFGZ: Pfeiffer2.2</text>
</g>
<!-- 5&#45;&gt;15 -->
<g id="edge22" class="edge"><title>5&#45;&gt;15</title>
<path fill="none" stroke="grey" stroke-width="2" d="M115.049,-463.837C131.017,-454.747 150.969,-443.39 168.831,-433.222"/>
<polygon fill="grey" stroke="grey" stroke-width="2" points="170.99,-436.021 177.949,-428.032 167.527,-429.938 170.99,-436.021"/>
</g>
<!-- 6&#45;&gt;9 -->
<g id="edge14" class="edge"><title>6&#45;&gt;9</title>
<path fill="none" stroke="grey" stroke-width="2" d="M368.231,-311.774C355.671,-302.717 341.978,-290.477 333.897,-276 292.104,-201.124 291.428,-95.7158 293.848,-46.4231"/>
<polygon fill="grey" stroke="grey" stroke-width="2" points="297.354,-46.424 294.434,-36.2395 290.366,-46.0219 297.354,-46.424"/>
</g>
<!-- 10 -->
<g id="node11" class="node"><title>10</title>
<path fill="none" stroke="#567bd8" stroke-width="2" d="M493.035,-276C493.035,-276 354.76,-276 354.76,-276 348.76,-276 342.76,-270 342.76,-264 342.76,-264 342.76,-244 342.76,-244 342.76,-238 348.76,-232 354.76,-232 354.76,-232 493.035,-232 493.035,-232 499.035,-232 505.035,-238 505.035,-244 505.035,-244 505.035,-264 505.035,-264 505.035,-270 499.035,-276 493.035,-276"/>
<text text-anchor="middle" x="423.897" y="-263" font-family="sans" font-size="10.00">namesortBAM_samtools</text>
<text text-anchor="middle" x="423.897" y="-251" font-family="sans" font-size="10.00">pathNSBS: output/bam</text>
<text text-anchor="middle" x="423.897" y="-239" font-family="sans" font-size="10.00">sampleNSBS: Pfeiffer3_Aligned.out</text>
</g>
<!-- 6&#45;&gt;10 -->
<g id="edge17" class="edge"><title>6&#45;&gt;10</title>
<path fill="none" stroke="grey" stroke-width="2" d="M403.16,-311.837C406.02,-303.998 409.495,-294.473 412.777,-285.479"/>
<polygon fill="grey" stroke="grey" stroke-width="2" points="416.084,-286.626 416.223,-276.032 409.508,-284.227 416.084,-286.626"/>
</g>
<!-- 7 -->
<g id="node8" class="node"><title>7</title>
<path fill="none" stroke="#567bd8" stroke-width="2" d="M225.882,-116C225.882,-116 133.912,-116 133.912,-116 127.912,-116 121.912,-110 121.912,-104 121.912,-104 121.912,-84 121.912,-84 121.912,-78 127.912,-72 133.912,-72 133.912,-72 225.882,-72 225.882,-72 231.882,-72 237.882,-78 237.882,-84 237.882,-84 237.882,-104 237.882,-104 237.882,-110 231.882,-116 225.882,-116"/>
<text text-anchor="middle" x="179.897" y="-103" font-family="sans" font-size="10.00">namesortBAM_samtools</text>
<text text-anchor="middle" x="179.897" y="-91" font-family="sans" font-size="10.00">pathNSBS: output/bam</text>
<text text-anchor="middle" x="179.897" y="-79" font-family="sans" font-size="10.00">sampleNSBS: Pfeiffer2</text>
</g>
<!-- 7&#45;&gt;9 -->
<g id="edge15" class="edge"><title>7&#45;&gt;9</title>
<path fill="none" stroke="grey" stroke-width="2" d="M212.828,-71.9925C227.722,-62.4911 245.347,-51.2475 260.522,-41.567"/>
<polygon fill="grey" stroke="grey" stroke-width="2" points="262.586,-44.4018 269.134,-36.0729 258.821,-38.5004 262.586,-44.4018"/>
</g>
<!-- 8 -->
<g id="node9" class="node"><title>8</title>
<path fill="none" stroke="#569ad8" stroke-width="2" stroke-dasharray="5,2" d="M218.591,-348C218.591,-348 137.204,-348 137.204,-348 131.204,-348 125.204,-342 125.204,-336 125.204,-336 125.204,-324 125.204,-324 125.204,-318 131.204,-312 137.204,-312 137.204,-312 218.591,-312 218.591,-312 224.591,-312 230.591,-318 230.591,-324 230.591,-324 230.591,-336 230.591,-336 230.591,-342 224.591,-348 218.591,-348"/>
<text text-anchor="middle" x="177.897" y="-333" font-family="sans" font-size="10.00">bamALIGN_bwa</text>
<text text-anchor="middle" x="177.897" y="-321" font-family="sans" font-size="10.00">sampleBAB: Pfeiffer2</text>
</g>
<!-- 8&#45;&gt;4 -->
<g id="edge4" class="edge"><title>8&#45;&gt;4</title>
<path fill="none" stroke="grey" stroke-width="2" d="M175.578,-311.837C174.541,-304.165 173.286,-294.878 172.094,-286.053"/>
<polygon fill="grey" stroke="grey" stroke-width="2" points="175.547,-285.473 170.74,-276.032 168.61,-286.411 175.547,-285.473"/>
</g>
<!-- 8&#45;&gt;9 -->
<g id="edge16" class="edge"><title>8&#45;&gt;9</title>
<path fill="none" stroke="grey" stroke-width="2" d="M217.102,-311.803C232.206,-303.209 248.155,-291.325 257.897,-276 270.081,-256.834 286.614,-108.75 293.112,-46.4631"/>
<polygon fill="grey" stroke="grey" stroke-width="2" points="296.624,-46.5248 294.171,-36.218 289.661,-45.8052 296.624,-46.5248"/>
</g>
<!-- 13 -->
<g id="node14" class="node"><title>13</title>
<path fill="none" stroke="#d6d856" stroke-width="2" d="M453.531,-196C453.531,-196 382.263,-196 382.263,-196 376.263,-196 370.263,-190 370.263,-184 370.263,-184 370.263,-164 370.263,-164 370.263,-158 376.263,-152 382.263,-152 382.263,-152 453.531,-152 453.531,-152 459.531,-152 465.531,-158 465.531,-164 465.531,-164 465.531,-184 465.531,-184 465.531,-190 459.531,-196 453.531,-196"/>
<text text-anchor="middle" x="417.897" y="-183" font-family="sans" font-size="10.00">indexBAM</text>
<text text-anchor="middle" x="417.897" y="-171" font-family="sans" font-size="10.00">outputDIR: output</text>
<text text-anchor="middle" x="417.897" y="-159" font-family="sans" font-size="10.00">sampleIB: Pfeiffer3</text>
</g>
<!-- 10&#45;&gt;13 -->
<g id="edge20" class="edge"><title>10&#45;&gt;13</title>
<path fill="none" stroke="grey" stroke-width="2" d="M422.258,-231.686C421.651,-223.798 420.95,-214.684 420.29,-206.103"/>
<polygon fill="grey" stroke="grey" stroke-width="2" points="423.771,-205.72 419.514,-196.018 416.791,-206.257 423.771,-205.72"/>
</g>
<!-- 11&#45;&gt;8 -->
<g id="edge9" class="edge"><title>11&#45;&gt;8</title>
<path fill="none" stroke="grey" stroke-width="2" d="M111.299,-383.993C122.905,-374.758 136.579,-363.877 148.508,-354.385"/>
<polygon fill="grey" stroke="grey" stroke-width="2" points="150.795,-357.038 156.441,-348.073 146.436,-351.561 150.795,-357.038"/>
</g>
<!-- 12&#45;&gt;7 -->
<g id="edge8" class="edge"><title>12&#45;&gt;7</title>
<path fill="none" stroke="grey" stroke-width="2" d="M175.537,-151.686C176.144,-143.798 176.845,-134.684 177.505,-126.103"/>
<polygon fill="grey" stroke="grey" stroke-width="2" points="181.003,-126.257 178.281,-116.018 174.024,-125.72 181.003,-126.257"/>
</g>
<!-- 13&#45;&gt;1 -->
<g id="edge2" class="edge"><title>13&#45;&gt;1</title>
<path fill="none" stroke="grey" stroke-width="2" d="M414.892,-151.686C413.779,-143.798 412.494,-134.684 411.284,-126.103"/>
<polygon fill="grey" stroke="grey" stroke-width="2" points="414.724,-125.431 409.861,-116.018 407.792,-126.409 414.724,-125.431"/>
</g>
<!-- 14&#45;&gt;6 -->
<g id="edge7" class="edge"><title>14&#45;&gt;6</title>
<path fill="none" stroke="grey" stroke-width="2" d="M452.754,-383.993C443.301,-375.024 432.211,-364.503 422.416,-355.21"/>
<polygon fill="grey" stroke="grey" stroke-width="2" points="424.557,-352.416 414.893,-348.073 419.739,-357.495 424.557,-352.416"/>
</g>
<!-- 15&#45;&gt;8 -->
<g id="edge10" class="edge"><title>15&#45;&gt;8</title>
<path fill="none" stroke="grey" stroke-width="2" d="M204.394,-383.993C200.251,-375.708 195.447,-366.1 191.076,-357.357"/>
<polygon fill="grey" stroke="grey" stroke-width="2" points="194.157,-355.694 186.555,-348.315 187.896,-358.824 194.157,-355.694"/>
</g>
<!-- 16 -->
<g id="node17" class="node"><title>16</title>
<path fill="none" stroke="#56d89a" stroke-width="2" stroke-dasharray="5,2" d="M123.092,-572C123.092,-572 46.7029,-572 46.7029,-572 40.7029,-572 34.7029,-566 34.7029,-560 34.7029,-560 34.7029,-548 34.7029,-548 34.7029,-542 40.7029,-536 46.7029,-536 46.7029,-536 123.092,-536 123.092,-536 129.092,-536 135.092,-542 135.092,-548 135.092,-548 135.092,-560 135.092,-560 135.092,-566 129.092,-572 123.092,-572"/>
<text text-anchor="middle" x="84.8974" y="-557" font-family="sans" font-size="10.00">mergeBAM</text>
<text text-anchor="middle" x="84.8974" y="-545" font-family="sans" font-size="10.00">sampleMB: Pfeiffer2</text>
</g>
<!-- 16&#45;&gt;5 -->
<g id="edge5" class="edge"><title>16&#45;&gt;5</title>
<path fill="none" stroke="grey" stroke-width="2" d="M84.8974,-535.697C84.8974,-527.983 84.8974,-518.712 84.8974,-510.112"/>
<polygon fill="grey" stroke="grey" stroke-width="2" points="88.3975,-510.104 84.8974,-500.104 81.3975,-510.104 88.3975,-510.104"/>
</g>
</g>
</svg>
