<?xml version="1.0" encoding="UTF-8" standalone="no"?>
<!DOCTYPE svg PUBLIC "-//W3C//DTD SVG 1.1//EN"
 "http://www.w3.org/Graphics/SVG/1.1/DTD/svg11.dtd">
<!-- Generated by graphviz version 2.38.0 (20140413.2041)
 -->
<!-- Title: snakemake_dag Pages: 1 -->
<svg width="2726pt" height="1248pt"
 viewBox="0.00 0.00 2726.00 1248.00" xmlns="http://www.w3.org/2000/svg" xmlns:xlink="http://www.w3.org/1999/xlink">
<g id="graph0" class="graph" transform="scale(1 1) rotate(0) translate(4 1244)">
<title>snakemake_dag</title>
<polygon fill="white" stroke="none" points="-4,4 -4,-1244 2722,-1244 2722,4 -4,4"/>
<!-- 0 -->
<g id="node1" class="node"><title>0</title>
<path fill="none" stroke="#d8ac56" stroke-width="2" d="M1106.5,-276C1106.5,-276 828.5,-276 828.5,-276 822.5,-276 816.5,-270 816.5,-264 816.5,-264 816.5,-244 816.5,-244 816.5,-238 822.5,-232 828.5,-232 828.5,-232 1106.5,-232 1106.5,-232 1112.5,-232 1118.5,-238 1118.5,-244 1118.5,-244 1118.5,-264 1118.5,-264 1118.5,-270 1112.5,-276 1106.5,-276"/>
<text text-anchor="middle" x="967.5" y="-263" font-family="sans" font-size="10.00">dbsnp</text>
<text text-anchor="middle" x="967.5" y="-251" font-family="sans" font-size="10.00">pathDbSnp: output/vcfGenUtil_varScan</text>
<text text-anchor="middle" x="967.5" y="-239" font-family="sans" font-size="10.00">sampleDbSnp: Pfeiffer2.varScan.snp.canonical_annotated</text>
</g>
<!-- 42 -->
<g id="node43" class="node"><title>42</title>
<path fill="none" stroke="#97d856" stroke-width="2" d="M1259.5,-196C1259.5,-196 905.5,-196 905.5,-196 899.5,-196 893.5,-190 893.5,-184 893.5,-184 893.5,-164 893.5,-164 893.5,-158 899.5,-152 905.5,-152 905.5,-152 1259.5,-152 1259.5,-152 1265.5,-152 1271.5,-158 1271.5,-164 1271.5,-164 1271.5,-184 1271.5,-184 1271.5,-190 1265.5,-196 1259.5,-196"/>
<text text-anchor="middle" x="1082.5" y="-183" font-family="sans" font-size="10.00">cosmic</text>
<text text-anchor="middle" x="1082.5" y="-171" font-family="sans" font-size="10.00">pathCOS: output/vcfGenUtil_varScan</text>
<text text-anchor="middle" x="1082.5" y="-159" font-family="sans" font-size="10.00">sampleCOS: Pfeiffer2.varScan.snp.canonical_annotated.dbsnp_annotated</text>
</g>
<!-- 0&#45;&gt;42 -->
<g id="edge57" class="edge"><title>0&#45;&gt;42</title>
<path fill="none" stroke="grey" stroke-width="2" d="M998.621,-231.892C1012.3,-222.614 1028.52,-211.611 1043.04,-201.766"/>
<polygon fill="grey" stroke="grey" stroke-width="2" points="1045.04,-204.635 1051.35,-196.125 1041.11,-198.842 1045.04,-204.635"/>
</g>
<!-- 1 -->
<g id="node2" class="node"><title>1</title>
<path fill="none" stroke="#61d856" stroke-width="2" d="M795,-1096C795,-1096 690,-1096 690,-1096 684,-1096 678,-1090 678,-1084 678,-1084 678,-1064 678,-1064 678,-1058 684,-1052 690,-1052 690,-1052 795,-1052 795,-1052 801,-1052 807,-1058 807,-1064 807,-1064 807,-1084 807,-1084 807,-1090 801,-1096 795,-1096"/>
<text text-anchor="middle" x="742.5" y="-1083" font-family="sans" font-size="10.00">fastq2GZ</text>
<text text-anchor="middle" x="742.5" y="-1071" font-family="sans" font-size="10.00">pathFGZ: output/fastq</text>
<text text-anchor="middle" x="742.5" y="-1059" font-family="sans" font-size="10.00">sampleFGZ: Pfeiffer2.2</text>
</g>
<!-- 14 -->
<g id="node15" class="node"><title>14</title>
<path fill="none" stroke="#a7d856" stroke-width="2" d="M863.5,-1016C863.5,-1016 767.5,-1016 767.5,-1016 761.5,-1016 755.5,-1010 755.5,-1004 755.5,-1004 755.5,-992 755.5,-992 755.5,-986 761.5,-980 767.5,-980 767.5,-980 863.5,-980 863.5,-980 869.5,-980 875.5,-986 875.5,-992 875.5,-992 875.5,-1004 875.5,-1004 875.5,-1010 869.5,-1016 863.5,-1016"/>
<text text-anchor="middle" x="815.5" y="-1001" font-family="sans" font-size="10.00">bamALIGN_bwa</text>
<text text-anchor="middle" x="815.5" y="-989" font-family="sans" font-size="10.00">sampleBAB: Pfeiffer2</text>
</g>
<!-- 1&#45;&gt;14 -->
<g id="edge24" class="edge"><title>1&#45;&gt;14</title>
<path fill="none" stroke="grey" stroke-width="2" d="M763.224,-1051.99C771.918,-1043.18 782.09,-1032.87 791.139,-1023.69"/>
<polygon fill="grey" stroke="grey" stroke-width="2" points="793.888,-1025.89 798.419,-1016.31 788.905,-1020.98 793.888,-1025.89"/>
</g>
<!-- 2 -->
<g id="node3" class="node"><title>2</title>
<path fill="none" stroke="#56d892" stroke-width="2" d="M2193,-552C2193,-552 2064,-552 2064,-552 2058,-552 2052,-546 2052,-540 2052,-540 2052,-508 2052,-508 2052,-502 2058,-496 2064,-496 2064,-496 2193,-496 2193,-496 2199,-496 2205,-502 2205,-508 2205,-508 2205,-540 2205,-540 2205,-546 2199,-552 2193,-552"/>
<text text-anchor="middle" x="2128.5" y="-539" font-family="sans" font-size="10.00">mpileup2vcf_single</text>
<text text-anchor="middle" x="2128.5" y="-527" font-family="sans" font-size="10.00">chrMPU2VCFS: _1</text>
<text text-anchor="middle" x="2128.5" y="-515" font-family="sans" font-size="10.00">sampleMPU2VCFS: Pfeiffer3</text>
<text text-anchor="middle" x="2128.5" y="-503" font-family="sans" font-size="10.00">varTypeMPU2VCFS: snp</text>
</g>
<!-- 8 -->
<g id="node9" class="node"><title>8</title>
<path fill="none" stroke="#56b1d8" stroke-width="2" d="M2212.5,-460C2212.5,-460 2044.5,-460 2044.5,-460 2038.5,-460 2032.5,-454 2032.5,-448 2032.5,-448 2032.5,-404 2032.5,-404 2032.5,-398 2038.5,-392 2044.5,-392 2044.5,-392 2212.5,-392 2212.5,-392 2218.5,-392 2224.5,-398 2224.5,-404 2224.5,-404 2224.5,-448 2224.5,-448 2224.5,-454 2218.5,-460 2212.5,-460"/>
<text text-anchor="middle" x="2128.5" y="-447" font-family="sans" font-size="10.00">mergeVCF</text>
<text text-anchor="middle" x="2128.5" y="-435" font-family="sans" font-size="10.00">pathMV: output/vcfGenUtil_varScan</text>
<text text-anchor="middle" x="2128.5" y="-423" font-family="sans" font-size="10.00">sampleMVCF: Pfeiffer3</text>
<text text-anchor="middle" x="2128.5" y="-411" font-family="sans" font-size="10.00">varTypeMVCF: snp</text>
<text text-anchor="middle" x="2128.5" y="-399" font-family="sans" font-size="10.00">vcfProgramMVCF: varScan</text>
</g>
<!-- 2&#45;&gt;8 -->
<g id="edge14" class="edge"><title>2&#45;&gt;8</title>
<path fill="none" stroke="grey" stroke-width="2" d="M2128.5,-495.747C2128.5,-487.779 2128.5,-478.865 2128.5,-470.166"/>
<polygon fill="grey" stroke="grey" stroke-width="2" points="2132,-470.122 2128.5,-460.122 2125,-470.122 2132,-470.122"/>
</g>
<!-- 3 -->
<g id="node4" class="node"><title>3</title>
<path fill="none" stroke="#97d856" stroke-width="2" d="M2185.5,-196C2185.5,-196 1831.5,-196 1831.5,-196 1825.5,-196 1819.5,-190 1819.5,-184 1819.5,-184 1819.5,-164 1819.5,-164 1819.5,-158 1825.5,-152 1831.5,-152 1831.5,-152 2185.5,-152 2185.5,-152 2191.5,-152 2197.5,-158 2197.5,-164 2197.5,-164 2197.5,-184 2197.5,-184 2197.5,-190 2191.5,-196 2185.5,-196"/>
<text text-anchor="middle" x="2008.5" y="-183" font-family="sans" font-size="10.00">cosmic</text>
<text text-anchor="middle" x="2008.5" y="-171" font-family="sans" font-size="10.00">pathCOS: output/vcfGenUtil_varScan</text>
<text text-anchor="middle" x="2008.5" y="-159" font-family="sans" font-size="10.00">sampleCOS: Pfeiffer3.varScan.snp.canonical_annotated.dbsnp_annotated</text>
</g>
<!-- 56 -->
<g id="node57" class="node"><title>56</title>
<path fill="none" stroke="#d88d56" stroke-width="2" d="M2228.5,-116C2228.5,-116 1770.5,-116 1770.5,-116 1764.5,-116 1758.5,-110 1758.5,-104 1758.5,-104 1758.5,-84 1758.5,-84 1758.5,-78 1764.5,-72 1770.5,-72 1770.5,-72 2228.5,-72 2228.5,-72 2234.5,-72 2240.5,-78 2240.5,-84 2240.5,-84 2240.5,-104 2240.5,-104 2240.5,-110 2234.5,-116 2228.5,-116"/>
<text text-anchor="middle" x="1999.5" y="-103" font-family="sans" font-size="10.00">getVcfTable</text>
<text text-anchor="middle" x="1999.5" y="-91" font-family="sans" font-size="10.00">pathGVCFT: output/vcfGenUtil_varScan</text>
<text text-anchor="middle" x="1999.5" y="-79" font-family="sans" font-size="10.00">sampleGVCFT: Pfeiffer3.varScan.snp.canonical_annotated.dbsnp_annotated.cosmic_annotated</text>
</g>
<!-- 3&#45;&gt;56 -->
<g id="edge72" class="edge"><title>3&#45;&gt;56</title>
<path fill="none" stroke="grey" stroke-width="2" d="M2006.04,-151.686C2005.13,-143.798 2004.08,-134.684 2003.09,-126.103"/>
<polygon fill="grey" stroke="grey" stroke-width="2" points="2006.55,-125.551 2001.93,-116.018 1999.59,-126.353 2006.55,-125.551"/>
</g>
<!-- 4 -->
<g id="node5" class="node"><title>4</title>
<path fill="none" stroke="#56d892" stroke-width="2" d="M141,-552C141,-552 12,-552 12,-552 6,-552 0,-546 0,-540 0,-540 0,-508 0,-508 0,-502 6,-496 12,-496 12,-496 141,-496 141,-496 147,-496 153,-502 153,-508 153,-508 153,-540 153,-540 153,-546 147,-552 141,-552"/>
<text text-anchor="middle" x="76.5" y="-539" font-family="sans" font-size="10.00">mpileup2vcf_single</text>
<text text-anchor="middle" x="76.5" y="-527" font-family="sans" font-size="10.00">chrMPU2VCFS: _2</text>
<text text-anchor="middle" x="76.5" y="-515" font-family="sans" font-size="10.00">sampleMPU2VCFS: Pfeiffer2</text>
<text text-anchor="middle" x="76.5" y="-503" font-family="sans" font-size="10.00">varTypeMPU2VCFS: indel</text>
</g>
<!-- 6 -->
<g id="node7" class="node"><title>6</title>
<path fill="none" stroke="#56b1d8" stroke-width="2" d="M502.5,-460C502.5,-460 334.5,-460 334.5,-460 328.5,-460 322.5,-454 322.5,-448 322.5,-448 322.5,-404 322.5,-404 322.5,-398 328.5,-392 334.5,-392 334.5,-392 502.5,-392 502.5,-392 508.5,-392 514.5,-398 514.5,-404 514.5,-404 514.5,-448 514.5,-448 514.5,-454 508.5,-460 502.5,-460"/>
<text text-anchor="middle" x="418.5" y="-447" font-family="sans" font-size="10.00">mergeVCF</text>
<text text-anchor="middle" x="418.5" y="-435" font-family="sans" font-size="10.00">pathMV: output/vcfGenUtil_varScan</text>
<text text-anchor="middle" x="418.5" y="-423" font-family="sans" font-size="10.00">sampleMVCF: Pfeiffer2</text>
<text text-anchor="middle" x="418.5" y="-411" font-family="sans" font-size="10.00">varTypeMVCF: indel</text>
<text text-anchor="middle" x="418.5" y="-399" font-family="sans" font-size="10.00">vcfProgramMVCF: varScan</text>
</g>
<!-- 4&#45;&gt;6 -->
<g id="edge8" class="edge"><title>4&#45;&gt;6</title>
<path fill="none" stroke="grey" stroke-width="2" d="M153.363,-498.413C156.107,-497.59 158.825,-496.783 161.5,-496 210.963,-481.512 266.123,-466.548 312.622,-454.273"/>
<polygon fill="grey" stroke="grey" stroke-width="2" points="313.629,-457.627 322.407,-451.696 311.846,-450.858 313.629,-457.627"/>
</g>
<!-- 5 -->
<g id="node6" class="node"><title>5</title>
<path fill="none" stroke="#80d856" stroke-width="2" d="M2276.5,-864C2276.5,-864 2090.5,-864 2090.5,-864 2084.5,-864 2078.5,-858 2078.5,-852 2078.5,-852 2078.5,-832 2078.5,-832 2078.5,-826 2084.5,-820 2090.5,-820 2090.5,-820 2276.5,-820 2276.5,-820 2282.5,-820 2288.5,-826 2288.5,-832 2288.5,-832 2288.5,-852 2288.5,-852 2288.5,-858 2282.5,-864 2276.5,-864"/>
<text text-anchor="middle" x="2183.5" y="-851" font-family="sans" font-size="10.00">filteredBAM</text>
<text text-anchor="middle" x="2183.5" y="-839" font-family="sans" font-size="10.00">pathFB: output/bam</text>
<text text-anchor="middle" x="2183.5" y="-827" font-family="sans" font-size="10.00">sampleFB: Pfeiffer3_Aligned.out_sorted</text>
</g>
<!-- 10 -->
<g id="node11" class="node"><title>10</title>
<path fill="none" stroke="#56d8b9" stroke-width="2" d="M2302,-784C2302,-784 2065,-784 2065,-784 2059,-784 2053,-778 2053,-772 2053,-772 2053,-752 2053,-752 2053,-746 2059,-740 2065,-740 2065,-740 2302,-740 2302,-740 2308,-740 2314,-746 2314,-752 2314,-752 2314,-772 2314,-772 2314,-778 2308,-784 2302,-784"/>
<text text-anchor="middle" x="2183.5" y="-771" font-family="sans" font-size="10.00">markdupBAM</text>
<text text-anchor="middle" x="2183.5" y="-759" font-family="sans" font-size="10.00">outputDIR: output</text>
<text text-anchor="middle" x="2183.5" y="-747" font-family="sans" font-size="10.00">sampleMDB: Pfeiffer3_Aligned.out_sorted_filtered</text>
</g>
<!-- 5&#45;&gt;10 -->
<g id="edge17" class="edge"><title>5&#45;&gt;10</title>
<path fill="none" stroke="grey" stroke-width="2" d="M2183.5,-819.686C2183.5,-811.798 2183.5,-802.684 2183.5,-794.103"/>
<polygon fill="grey" stroke="grey" stroke-width="2" points="2187,-794.018 2183.5,-784.018 2180,-794.018 2187,-794.018"/>
</g>
<!-- 19 -->
<g id="node20" class="node"><title>19</title>
<path fill="none" stroke="#566bd8" stroke-width="2" d="M517,-356C517,-356 350,-356 350,-356 344,-356 338,-350 338,-344 338,-344 338,-324 338,-324 338,-318 344,-312 350,-312 350,-312 517,-312 517,-312 523,-312 529,-318 529,-324 529,-324 529,-344 529,-344 529,-350 523,-356 517,-356"/>
<text text-anchor="middle" x="433.5" y="-343" font-family="sans" font-size="10.00">canonical</text>
<text text-anchor="middle" x="433.5" y="-331" font-family="sans" font-size="10.00">pathCAN: vcfGenUtil_varScan</text>
<text text-anchor="middle" x="433.5" y="-319" font-family="sans" font-size="10.00">sampleCAN: Pfeiffer2.varScan.indel</text>
</g>
<!-- 6&#45;&gt;19 -->
<g id="edge30" class="edge"><title>6&#45;&gt;19</title>
<path fill="none" stroke="grey" stroke-width="2" d="M424,-391.998C425.399,-383.603 426.899,-374.607 428.283,-366.299"/>
<polygon fill="grey" stroke="grey" stroke-width="2" points="431.768,-366.681 429.96,-356.241 424.863,-365.53 431.768,-366.681"/>
</g>
<!-- 7 -->
<g id="node8" class="node"><title>7</title>
<path fill="none" stroke="#56d892" stroke-width="2" d="M996,-552C996,-552 867,-552 867,-552 861,-552 855,-546 855,-540 855,-540 855,-508 855,-508 855,-502 861,-496 867,-496 867,-496 996,-496 996,-496 1002,-496 1008,-502 1008,-508 1008,-508 1008,-540 1008,-540 1008,-546 1002,-552 996,-552"/>
<text text-anchor="middle" x="931.5" y="-539" font-family="sans" font-size="10.00">mpileup2vcf_single</text>
<text text-anchor="middle" x="931.5" y="-527" font-family="sans" font-size="10.00">chrMPU2VCFS: _1</text>
<text text-anchor="middle" x="931.5" y="-515" font-family="sans" font-size="10.00">sampleMPU2VCFS: Pfeiffer2</text>
<text text-anchor="middle" x="931.5" y="-503" font-family="sans" font-size="10.00">varTypeMPU2VCFS: snp</text>
</g>
<!-- 32 -->
<g id="node33" class="node"><title>32</title>
<path fill="none" stroke="#56b1d8" stroke-width="2" d="M1015.5,-460C1015.5,-460 847.5,-460 847.5,-460 841.5,-460 835.5,-454 835.5,-448 835.5,-448 835.5,-404 835.5,-404 835.5,-398 841.5,-392 847.5,-392 847.5,-392 1015.5,-392 1015.5,-392 1021.5,-392 1027.5,-398 1027.5,-404 1027.5,-404 1027.5,-448 1027.5,-448 1027.5,-454 1021.5,-460 1015.5,-460"/>
<text text-anchor="middle" x="931.5" y="-447" font-family="sans" font-size="10.00">mergeVCF</text>
<text text-anchor="middle" x="931.5" y="-435" font-family="sans" font-size="10.00">pathMV: output/vcfGenUtil_varScan</text>
<text text-anchor="middle" x="931.5" y="-423" font-family="sans" font-size="10.00">sampleMVCF: Pfeiffer2</text>
<text text-anchor="middle" x="931.5" y="-411" font-family="sans" font-size="10.00">varTypeMVCF: snp</text>
<text text-anchor="middle" x="931.5" y="-399" font-family="sans" font-size="10.00">vcfProgramMVCF: varScan</text>
</g>
<!-- 7&#45;&gt;32 -->
<g id="edge44" class="edge"><title>7&#45;&gt;32</title>
<path fill="none" stroke="grey" stroke-width="2" d="M931.5,-495.747C931.5,-487.779 931.5,-478.865 931.5,-470.166"/>
<polygon fill="grey" stroke="grey" stroke-width="2" points="935,-470.122 931.5,-460.122 928,-470.122 935,-470.122"/>
</g>
<!-- 34 -->
<g id="node35" class="node"><title>34</title>
<path fill="none" stroke="#566bd8" stroke-width="2" d="M2204.5,-356C2204.5,-356 2044.5,-356 2044.5,-356 2038.5,-356 2032.5,-350 2032.5,-344 2032.5,-344 2032.5,-324 2032.5,-324 2032.5,-318 2038.5,-312 2044.5,-312 2044.5,-312 2204.5,-312 2204.5,-312 2210.5,-312 2216.5,-318 2216.5,-324 2216.5,-324 2216.5,-344 2216.5,-344 2216.5,-350 2210.5,-356 2204.5,-356"/>
<text text-anchor="middle" x="2124.5" y="-343" font-family="sans" font-size="10.00">canonical</text>
<text text-anchor="middle" x="2124.5" y="-331" font-family="sans" font-size="10.00">pathCAN: vcfGenUtil_varScan</text>
<text text-anchor="middle" x="2124.5" y="-319" font-family="sans" font-size="10.00">sampleCAN: Pfeiffer3.varScan.snp</text>
</g>
<!-- 8&#45;&gt;34 -->
<g id="edge46" class="edge"><title>8&#45;&gt;34</title>
<path fill="none" stroke="grey" stroke-width="2" d="M2127.03,-391.998C2126.66,-383.603 2126.26,-374.607 2125.89,-366.299"/>
<polygon fill="grey" stroke="grey" stroke-width="2" points="2129.38,-366.076 2125.44,-356.241 2122.39,-366.387 2129.38,-366.076"/>
</g>
<!-- 9 -->
<g id="node10" class="node"><title>9</title>
<path fill="none" stroke="#61d856" stroke-width="2" d="M2162,-1096C2162,-1096 2057,-1096 2057,-1096 2051,-1096 2045,-1090 2045,-1084 2045,-1084 2045,-1064 2045,-1064 2045,-1058 2051,-1052 2057,-1052 2057,-1052 2162,-1052 2162,-1052 2168,-1052 2174,-1058 2174,-1064 2174,-1064 2174,-1084 2174,-1084 2174,-1090 2168,-1096 2162,-1096"/>
<text text-anchor="middle" x="2109.5" y="-1083" font-family="sans" font-size="10.00">fastq2GZ</text>
<text text-anchor="middle" x="2109.5" y="-1071" font-family="sans" font-size="10.00">pathFGZ: output/fastq</text>
<text text-anchor="middle" x="2109.5" y="-1059" font-family="sans" font-size="10.00">sampleFGZ: Pfeiffer3.1</text>
</g>
<!-- 52 -->
<g id="node53" class="node"><title>52</title>
<path fill="none" stroke="#a7d856" stroke-width="2" d="M2231.5,-1016C2231.5,-1016 2135.5,-1016 2135.5,-1016 2129.5,-1016 2123.5,-1010 2123.5,-1004 2123.5,-1004 2123.5,-992 2123.5,-992 2123.5,-986 2129.5,-980 2135.5,-980 2135.5,-980 2231.5,-980 2231.5,-980 2237.5,-980 2243.5,-986 2243.5,-992 2243.5,-992 2243.5,-1004 2243.5,-1004 2243.5,-1010 2237.5,-1016 2231.5,-1016"/>
<text text-anchor="middle" x="2183.5" y="-1001" font-family="sans" font-size="10.00">bamALIGN_bwa</text>
<text text-anchor="middle" x="2183.5" y="-989" font-family="sans" font-size="10.00">sampleBAB: Pfeiffer3</text>
</g>
<!-- 9&#45;&gt;52 -->
<g id="edge68" class="edge"><title>9&#45;&gt;52</title>
<path fill="none" stroke="grey" stroke-width="2" d="M2130.51,-1051.99C2139.41,-1043.09 2149.84,-1032.66 2159.08,-1023.42"/>
<polygon fill="grey" stroke="grey" stroke-width="2" points="2161.59,-1025.86 2166.19,-1016.31 2156.64,-1020.91 2161.59,-1025.86"/>
</g>
<!-- 12 -->
<g id="node13" class="node"><title>12</title>
<path fill="none" stroke="#56a2d8" stroke-width="2" d="M2226.5,-704C2226.5,-704 2140.5,-704 2140.5,-704 2134.5,-704 2128.5,-698 2128.5,-692 2128.5,-692 2128.5,-680 2128.5,-680 2128.5,-674 2134.5,-668 2140.5,-668 2140.5,-668 2226.5,-668 2226.5,-668 2232.5,-668 2238.5,-674 2238.5,-680 2238.5,-680 2238.5,-692 2238.5,-692 2238.5,-698 2232.5,-704 2226.5,-704"/>
<text text-anchor="middle" x="2183.5" y="-689" font-family="sans" font-size="10.00">indexBAM</text>
<text text-anchor="middle" x="2183.5" y="-677" font-family="sans" font-size="10.00">sampleIB: Pfeiffer3</text>
</g>
<!-- 10&#45;&gt;12 -->
<g id="edge22" class="edge"><title>10&#45;&gt;12</title>
<path fill="none" stroke="grey" stroke-width="2" d="M2183.5,-739.993C2183.5,-732.061 2183.5,-722.915 2183.5,-714.478"/>
<polygon fill="grey" stroke="grey" stroke-width="2" points="2187,-714.315 2183.5,-704.315 2180,-714.315 2187,-714.315"/>
</g>
<!-- 11 -->
<g id="node12" class="node"><title>11</title>
<path fill="none" stroke="#56b1d8" stroke-width="2" d="M1699.5,-460C1699.5,-460 1531.5,-460 1531.5,-460 1525.5,-460 1519.5,-454 1519.5,-448 1519.5,-448 1519.5,-404 1519.5,-404 1519.5,-398 1525.5,-392 1531.5,-392 1531.5,-392 1699.5,-392 1699.5,-392 1705.5,-392 1711.5,-398 1711.5,-404 1711.5,-404 1711.5,-448 1711.5,-448 1711.5,-454 1705.5,-460 1699.5,-460"/>
<text text-anchor="middle" x="1615.5" y="-447" font-family="sans" font-size="10.00">mergeVCF</text>
<text text-anchor="middle" x="1615.5" y="-435" font-family="sans" font-size="10.00">pathMV: output/vcfGenUtil_varScan</text>
<text text-anchor="middle" x="1615.5" y="-423" font-family="sans" font-size="10.00">sampleMVCF: Pfeiffer3</text>
<text text-anchor="middle" x="1615.5" y="-411" font-family="sans" font-size="10.00">varTypeMVCF: indel</text>
<text text-anchor="middle" x="1615.5" y="-399" font-family="sans" font-size="10.00">vcfProgramMVCF: varScan</text>
</g>
<!-- 13 -->
<g id="node14" class="node"><title>13</title>
<path fill="none" stroke="#566bd8" stroke-width="2" d="M1641,-276C1641,-276 1474,-276 1474,-276 1468,-276 1462,-270 1462,-264 1462,-264 1462,-244 1462,-244 1462,-238 1468,-232 1474,-232 1474,-232 1641,-232 1641,-232 1647,-232 1653,-238 1653,-244 1653,-244 1653,-264 1653,-264 1653,-270 1647,-276 1641,-276"/>
<text text-anchor="middle" x="1557.5" y="-263" font-family="sans" font-size="10.00">canonical</text>
<text text-anchor="middle" x="1557.5" y="-251" font-family="sans" font-size="10.00">pathCAN: vcfGenUtil_varScan</text>
<text text-anchor="middle" x="1557.5" y="-239" font-family="sans" font-size="10.00">sampleCAN: Pfeiffer3.varScan.indel</text>
</g>
<!-- 11&#45;&gt;13 -->
<g id="edge23" class="edge"><title>11&#45;&gt;13</title>
<path fill="none" stroke="grey" stroke-width="2" d="M1604.18,-391.819C1593.69,-361.087 1578.22,-315.741 1568.01,-285.796"/>
<polygon fill="grey" stroke="grey" stroke-width="2" points="1571.3,-284.608 1564.76,-276.274 1564.67,-286.868 1571.3,-284.608"/>
</g>
<!-- 26 -->
<g id="node27" class="node"><title>26</title>
<path fill="none" stroke="#56d8c9" stroke-width="2" d="M2302.5,-632C2302.5,-632 2204.5,-632 2204.5,-632 2198.5,-632 2192.5,-626 2192.5,-620 2192.5,-620 2192.5,-600 2192.5,-600 2192.5,-594 2198.5,-588 2204.5,-588 2204.5,-588 2302.5,-588 2302.5,-588 2308.5,-588 2314.5,-594 2314.5,-600 2314.5,-600 2314.5,-620 2314.5,-620 2314.5,-626 2308.5,-632 2302.5,-632"/>
<text text-anchor="middle" x="2253.5" y="-619" font-family="sans" font-size="10.00">bam2mpileup</text>
<text text-anchor="middle" x="2253.5" y="-607" font-family="sans" font-size="10.00">chrB2M: _2</text>
<text text-anchor="middle" x="2253.5" y="-595" font-family="sans" font-size="10.00">sampleB2M: Pfeiffer3</text>
</g>
<!-- 12&#45;&gt;26 -->
<g id="edge36" class="edge"><title>12&#45;&gt;26</title>
<path fill="none" stroke="grey" stroke-width="2" d="M2199.74,-667.837C2207.7,-659.414 2217.51,-649.045 2226.56,-639.479"/>
<polygon fill="grey" stroke="grey" stroke-width="2" points="2229.28,-641.702 2233.6,-632.032 2224.19,-636.892 2229.28,-641.702"/>
</g>
<!-- 30 -->
<g id="node31" class="node"><title>30</title>
<path fill="none" stroke="#56d8c9" stroke-width="2" d="M2006.5,-632C2006.5,-632 1908.5,-632 1908.5,-632 1902.5,-632 1896.5,-626 1896.5,-620 1896.5,-620 1896.5,-600 1896.5,-600 1896.5,-594 1902.5,-588 1908.5,-588 1908.5,-588 2006.5,-588 2006.5,-588 2012.5,-588 2018.5,-594 2018.5,-600 2018.5,-600 2018.5,-620 2018.5,-620 2018.5,-626 2012.5,-632 2006.5,-632"/>
<text text-anchor="middle" x="1957.5" y="-619" font-family="sans" font-size="10.00">bam2mpileup</text>
<text text-anchor="middle" x="1957.5" y="-607" font-family="sans" font-size="10.00">chrB2M: _4</text>
<text text-anchor="middle" x="1957.5" y="-595" font-family="sans" font-size="10.00">sampleB2M: Pfeiffer3</text>
</g>
<!-- 12&#45;&gt;30 -->
<g id="edge39" class="edge"><title>12&#45;&gt;30</title>
<path fill="none" stroke="grey" stroke-width="2" d="M2131.37,-667.93C2100.76,-657.907 2061.65,-645.103 2028.28,-634.177"/>
<polygon fill="grey" stroke="grey" stroke-width="2" points="2029.18,-630.786 2018.58,-631.001 2027,-637.439 2029.18,-630.786"/>
</g>
<!-- 31 -->
<g id="node32" class="node"><title>31</title>
<path fill="none" stroke="#56d8c9" stroke-width="2" d="M2519.5,-632C2519.5,-632 2421.5,-632 2421.5,-632 2415.5,-632 2409.5,-626 2409.5,-620 2409.5,-620 2409.5,-600 2409.5,-600 2409.5,-594 2415.5,-588 2421.5,-588 2421.5,-588 2519.5,-588 2519.5,-588 2525.5,-588 2531.5,-594 2531.5,-600 2531.5,-600 2531.5,-620 2531.5,-620 2531.5,-626 2525.5,-632 2519.5,-632"/>
<text text-anchor="middle" x="2470.5" y="-619" font-family="sans" font-size="10.00">bam2mpileup</text>
<text text-anchor="middle" x="2470.5" y="-607" font-family="sans" font-size="10.00">chrB2M: _3</text>
<text text-anchor="middle" x="2470.5" y="-595" font-family="sans" font-size="10.00">sampleB2M: Pfeiffer3</text>
</g>
<!-- 12&#45;&gt;31 -->
<g id="edge40" class="edge"><title>12&#45;&gt;31</title>
<path fill="none" stroke="grey" stroke-width="2" d="M2238.84,-670.732C2284.65,-658.92 2350.03,-642.061 2399.67,-629.264"/>
<polygon fill="grey" stroke="grey" stroke-width="2" points="2400.56,-632.647 2409.37,-626.761 2398.81,-625.869 2400.56,-632.647"/>
</g>
<!-- 40 -->
<g id="node41" class="node"><title>40</title>
<path fill="none" stroke="#56d8c9" stroke-width="2" d="M2162.5,-632C2162.5,-632 2064.5,-632 2064.5,-632 2058.5,-632 2052.5,-626 2052.5,-620 2052.5,-620 2052.5,-600 2052.5,-600 2052.5,-594 2058.5,-588 2064.5,-588 2064.5,-588 2162.5,-588 2162.5,-588 2168.5,-588 2174.5,-594 2174.5,-600 2174.5,-600 2174.5,-620 2174.5,-620 2174.5,-626 2168.5,-632 2162.5,-632"/>
<text text-anchor="middle" x="2113.5" y="-619" font-family="sans" font-size="10.00">bam2mpileup</text>
<text text-anchor="middle" x="2113.5" y="-607" font-family="sans" font-size="10.00">chrB2M: _1</text>
<text text-anchor="middle" x="2113.5" y="-595" font-family="sans" font-size="10.00">sampleB2M: Pfeiffer3</text>
</g>
<!-- 12&#45;&gt;40 -->
<g id="edge55" class="edge"><title>12&#45;&gt;40</title>
<path fill="none" stroke="grey" stroke-width="2" d="M2167.26,-667.837C2159.3,-659.414 2149.49,-649.045 2140.44,-639.479"/>
<polygon fill="grey" stroke="grey" stroke-width="2" points="2142.81,-636.892 2133.4,-632.032 2137.72,-641.702 2142.81,-636.892"/>
</g>
<!-- 47 -->
<g id="node48" class="node"><title>47</title>
<path fill="none" stroke="#56c1d8" stroke-width="2" d="M1681.5,-196C1681.5,-196 1405.5,-196 1405.5,-196 1399.5,-196 1393.5,-190 1393.5,-184 1393.5,-184 1393.5,-164 1393.5,-164 1393.5,-158 1399.5,-152 1405.5,-152 1405.5,-152 1681.5,-152 1681.5,-152 1687.5,-152 1693.5,-158 1693.5,-164 1693.5,-164 1693.5,-184 1693.5,-184 1693.5,-190 1687.5,-196 1681.5,-196"/>
<text text-anchor="middle" x="1543.5" y="-183" font-family="sans" font-size="10.00">indel</text>
<text text-anchor="middle" x="1543.5" y="-171" font-family="sans" font-size="10.00">pathIndel: output/vcfGenUtil_varScan</text>
<text text-anchor="middle" x="1543.5" y="-159" font-family="sans" font-size="10.00">sampleIndel: Pfeiffer3.varScan.indel.canonical_annotated</text>
</g>
<!-- 13&#45;&gt;47 -->
<g id="edge62" class="edge"><title>13&#45;&gt;47</title>
<path fill="none" stroke="grey" stroke-width="2" d="M1553.67,-231.686C1552.26,-223.798 1550.62,-214.684 1549.08,-206.103"/>
<polygon fill="grey" stroke="grey" stroke-width="2" points="1552.48,-205.242 1547.27,-196.018 1545.59,-206.479 1552.48,-205.242"/>
</g>
<!-- 58 -->
<g id="node59" class="node"><title>58</title>
<path fill="none" stroke="#568ad8" stroke-width="2" d="M894,-944C894,-944 737,-944 737,-944 731,-944 725,-938 725,-932 725,-932 725,-912 725,-912 725,-906 731,-900 737,-900 737,-900 894,-900 894,-900 900,-900 906,-906 906,-912 906,-912 906,-932 906,-932 906,-938 900,-944 894,-944"/>
<text text-anchor="middle" x="815.5" y="-931" font-family="sans" font-size="10.00">sortBAM_biobambam</text>
<text text-anchor="middle" x="815.5" y="-919" font-family="sans" font-size="10.00">pathSBB: output/bam</text>
<text text-anchor="middle" x="815.5" y="-907" font-family="sans" font-size="10.00">sampleSBB: Pfeiffer2_Aligned.out</text>
</g>
<!-- 14&#45;&gt;58 -->
<g id="edge74" class="edge"><title>14&#45;&gt;58</title>
<path fill="none" stroke="grey" stroke-width="2" d="M815.5,-979.837C815.5,-972.165 815.5,-962.878 815.5,-954.053"/>
<polygon fill="grey" stroke="grey" stroke-width="2" points="819,-954.032 815.5,-944.032 812,-954.032 819,-954.032"/>
</g>
<!-- 15 -->
<g id="node16" class="node"><title>15</title>
<path fill="none" stroke="#56d8c9" stroke-width="2" d="M934.5,-632C934.5,-632 836.5,-632 836.5,-632 830.5,-632 824.5,-626 824.5,-620 824.5,-620 824.5,-600 824.5,-600 824.5,-594 830.5,-588 836.5,-588 836.5,-588 934.5,-588 934.5,-588 940.5,-588 946.5,-594 946.5,-600 946.5,-600 946.5,-620 946.5,-620 946.5,-626 940.5,-632 934.5,-632"/>
<text text-anchor="middle" x="885.5" y="-619" font-family="sans" font-size="10.00">bam2mpileup</text>
<text text-anchor="middle" x="885.5" y="-607" font-family="sans" font-size="10.00">chrB2M: _1</text>
<text text-anchor="middle" x="885.5" y="-595" font-family="sans" font-size="10.00">sampleB2M: Pfeiffer2</text>
</g>
<!-- 15&#45;&gt;7 -->
<g id="edge11" class="edge"><title>15&#45;&gt;7</title>
<path fill="none" stroke="grey" stroke-width="2" d="M897.108,-587.803C901.539,-579.711 906.726,-570.24 911.707,-561.143"/>
<polygon fill="grey" stroke="grey" stroke-width="2" points="914.852,-562.688 916.585,-552.236 908.712,-559.326 914.852,-562.688"/>
</g>
<!-- 16 -->
<g id="node17" class="node"><title>16</title>
<path fill="none" stroke="#56d892" stroke-width="2" d="M483,-552C483,-552 354,-552 354,-552 348,-552 342,-546 342,-540 342,-540 342,-508 342,-508 342,-502 348,-496 354,-496 354,-496 483,-496 483,-496 489,-496 495,-502 495,-508 495,-508 495,-540 495,-540 495,-546 489,-552 483,-552"/>
<text text-anchor="middle" x="418.5" y="-539" font-family="sans" font-size="10.00">mpileup2vcf_single</text>
<text text-anchor="middle" x="418.5" y="-527" font-family="sans" font-size="10.00">chrMPU2VCFS: _1</text>
<text text-anchor="middle" x="418.5" y="-515" font-family="sans" font-size="10.00">sampleMPU2VCFS: Pfeiffer2</text>
<text text-anchor="middle" x="418.5" y="-503" font-family="sans" font-size="10.00">varTypeMPU2VCFS: indel</text>
</g>
<!-- 15&#45;&gt;16 -->
<g id="edge27" class="edge"><title>15&#45;&gt;16</title>
<path fill="none" stroke="grey" stroke-width="2" d="M824.197,-589.941C821.268,-589.241 818.358,-588.589 815.5,-588 681.989,-560.495 641.857,-580.288 505.238,-552.209"/>
<polygon fill="grey" stroke="grey" stroke-width="2" points="505.739,-548.738 495.232,-550.103 504.297,-555.588 505.739,-548.738"/>
</g>
<!-- 16&#45;&gt;6 -->
<g id="edge10" class="edge"><title>16&#45;&gt;6</title>
<path fill="none" stroke="grey" stroke-width="2" d="M418.5,-495.747C418.5,-487.779 418.5,-478.865 418.5,-470.166"/>
<polygon fill="grey" stroke="grey" stroke-width="2" points="422,-470.122 418.5,-460.122 415,-470.122 422,-470.122"/>
</g>
<!-- 17 -->
<g id="node18" class="node"><title>17</title>
<path fill="none" stroke="#566bd8" stroke-width="2" d="M1040.5,-356C1040.5,-356 880.5,-356 880.5,-356 874.5,-356 868.5,-350 868.5,-344 868.5,-344 868.5,-324 868.5,-324 868.5,-318 874.5,-312 880.5,-312 880.5,-312 1040.5,-312 1040.5,-312 1046.5,-312 1052.5,-318 1052.5,-324 1052.5,-324 1052.5,-344 1052.5,-344 1052.5,-350 1046.5,-356 1040.5,-356"/>
<text text-anchor="middle" x="960.5" y="-343" font-family="sans" font-size="10.00">canonical</text>
<text text-anchor="middle" x="960.5" y="-331" font-family="sans" font-size="10.00">pathCAN: vcfGenUtil_varScan</text>
<text text-anchor="middle" x="960.5" y="-319" font-family="sans" font-size="10.00">sampleCAN: Pfeiffer2.varScan.snp</text>
</g>
<!-- 17&#45;&gt;0 -->
<g id="edge1" class="edge"><title>17&#45;&gt;0</title>
<path fill="none" stroke="grey" stroke-width="2" d="M962.413,-311.686C963.121,-303.798 963.939,-294.684 964.709,-286.103"/>
<polygon fill="grey" stroke="grey" stroke-width="2" points="968.206,-286.291 965.614,-276.018 961.234,-285.665 968.206,-286.291"/>
</g>
<!-- 18 -->
<g id="node19" class="node"><title>18</title>
<path fill="none" stroke="#d88d56" stroke-width="2" d="M1315.5,-116C1315.5,-116 857.5,-116 857.5,-116 851.5,-116 845.5,-110 845.5,-104 845.5,-104 845.5,-84 845.5,-84 845.5,-78 851.5,-72 857.5,-72 857.5,-72 1315.5,-72 1315.5,-72 1321.5,-72 1327.5,-78 1327.5,-84 1327.5,-84 1327.5,-104 1327.5,-104 1327.5,-110 1321.5,-116 1315.5,-116"/>
<text text-anchor="middle" x="1086.5" y="-103" font-family="sans" font-size="10.00">getVcfTable</text>
<text text-anchor="middle" x="1086.5" y="-91" font-family="sans" font-size="10.00">pathGVCFT: output/vcfGenUtil_varScan</text>
<text text-anchor="middle" x="1086.5" y="-79" font-family="sans" font-size="10.00">sampleGVCFT: Pfeiffer2.varScan.snp.canonical_annotated.dbsnp_annotated.cosmic_annotated</text>
</g>
<!-- 38 -->
<g id="node39" class="node"><title>38</title>
<path fill="none" stroke="#70d856" stroke-width="2" d="M1328.5,-36C1328.5,-36 1298.5,-36 1298.5,-36 1292.5,-36 1286.5,-30 1286.5,-24 1286.5,-24 1286.5,-12 1286.5,-12 1286.5,-6 1292.5,-0 1298.5,-0 1298.5,-0 1328.5,-0 1328.5,-0 1334.5,-0 1340.5,-6 1340.5,-12 1340.5,-12 1340.5,-24 1340.5,-24 1340.5,-30 1334.5,-36 1328.5,-36"/>
<text text-anchor="middle" x="1313.5" y="-15" font-family="sans" font-size="10.00">all</text>
</g>
<!-- 18&#45;&gt;38 -->
<g id="edge50" class="edge"><title>18&#45;&gt;38</title>
<path fill="none" stroke="grey" stroke-width="2" d="M1150.94,-71.9925C1191.74,-58.6919 1243.02,-41.9771 1276.95,-30.9155"/>
<polygon fill="grey" stroke="grey" stroke-width="2" points="1278.04,-34.2408 1286.46,-27.8137 1275.87,-27.5855 1278.04,-34.2408"/>
</g>
<!-- 45 -->
<g id="node46" class="node"><title>45</title>
<path fill="none" stroke="#56c1d8" stroke-width="2" d="M726.5,-196C726.5,-196 450.5,-196 450.5,-196 444.5,-196 438.5,-190 438.5,-184 438.5,-184 438.5,-164 438.5,-164 438.5,-158 444.5,-152 450.5,-152 450.5,-152 726.5,-152 726.5,-152 732.5,-152 738.5,-158 738.5,-164 738.5,-164 738.5,-184 738.5,-184 738.5,-190 732.5,-196 726.5,-196"/>
<text text-anchor="middle" x="588.5" y="-183" font-family="sans" font-size="10.00">indel</text>
<text text-anchor="middle" x="588.5" y="-171" font-family="sans" font-size="10.00">pathIndel: output/vcfGenUtil_varScan</text>
<text text-anchor="middle" x="588.5" y="-159" font-family="sans" font-size="10.00">sampleIndel: Pfeiffer2.varScan.indel.canonical_annotated</text>
</g>
<!-- 19&#45;&gt;45 -->
<g id="edge60" class="edge"><title>19&#45;&gt;45</title>
<path fill="none" stroke="grey" stroke-width="2" d="M454.404,-311.691C481.752,-283.814 529.773,-234.863 560.315,-203.73"/>
<polygon fill="grey" stroke="grey" stroke-width="2" points="563.176,-205.812 567.68,-196.223 558.179,-200.91 563.176,-205.812"/>
</g>
<!-- 20 -->
<g id="node21" class="node"><title>20</title>
<path fill="none" stroke="#56d892" stroke-width="2" d="M2022,-552C2022,-552 1893,-552 1893,-552 1887,-552 1881,-546 1881,-540 1881,-540 1881,-508 1881,-508 1881,-502 1887,-496 1893,-496 1893,-496 2022,-496 2022,-496 2028,-496 2034,-502 2034,-508 2034,-508 2034,-540 2034,-540 2034,-546 2028,-552 2022,-552"/>
<text text-anchor="middle" x="1957.5" y="-539" font-family="sans" font-size="10.00">mpileup2vcf_single</text>
<text text-anchor="middle" x="1957.5" y="-527" font-family="sans" font-size="10.00">chrMPU2VCFS: _4</text>
<text text-anchor="middle" x="1957.5" y="-515" font-family="sans" font-size="10.00">sampleMPU2VCFS: Pfeiffer3</text>
<text text-anchor="middle" x="1957.5" y="-503" font-family="sans" font-size="10.00">varTypeMPU2VCFS: snp</text>
</g>
<!-- 20&#45;&gt;8 -->
<g id="edge15" class="edge"><title>20&#45;&gt;8</title>
<path fill="none" stroke="grey" stroke-width="2" d="M2006.04,-495.747C2023.02,-486.219 2042.39,-475.341 2060.65,-465.093"/>
<polygon fill="grey" stroke="grey" stroke-width="2" points="2062.5,-468.069 2069.5,-460.122 2059.07,-461.965 2062.5,-468.069"/>
</g>
<!-- 21 -->
<g id="node22" class="node"><title>21</title>
<path fill="none" stroke="#56d8b9" stroke-width="2" d="M934,-784C934,-784 697,-784 697,-784 691,-784 685,-778 685,-772 685,-772 685,-752 685,-752 685,-746 691,-740 697,-740 697,-740 934,-740 934,-740 940,-740 946,-746 946,-752 946,-752 946,-772 946,-772 946,-778 940,-784 934,-784"/>
<text text-anchor="middle" x="815.5" y="-771" font-family="sans" font-size="10.00">markdupBAM</text>
<text text-anchor="middle" x="815.5" y="-759" font-family="sans" font-size="10.00">outputDIR: output</text>
<text text-anchor="middle" x="815.5" y="-747" font-family="sans" font-size="10.00">sampleMDB: Pfeiffer2_Aligned.out_sorted_filtered</text>
</g>
<!-- 37 -->
<g id="node38" class="node"><title>37</title>
<path fill="none" stroke="#56a2d8" stroke-width="2" d="M858.5,-704C858.5,-704 772.5,-704 772.5,-704 766.5,-704 760.5,-698 760.5,-692 760.5,-692 760.5,-680 760.5,-680 760.5,-674 766.5,-668 772.5,-668 772.5,-668 858.5,-668 858.5,-668 864.5,-668 870.5,-674 870.5,-680 870.5,-680 870.5,-692 870.5,-692 870.5,-698 864.5,-704 858.5,-704"/>
<text text-anchor="middle" x="815.5" y="-689" font-family="sans" font-size="10.00">indexBAM</text>
<text text-anchor="middle" x="815.5" y="-677" font-family="sans" font-size="10.00">sampleIB: Pfeiffer2</text>
</g>
<!-- 21&#45;&gt;37 -->
<g id="edge49" class="edge"><title>21&#45;&gt;37</title>
<path fill="none" stroke="grey" stroke-width="2" d="M815.5,-739.993C815.5,-732.061 815.5,-722.915 815.5,-714.478"/>
<polygon fill="grey" stroke="grey" stroke-width="2" points="819,-714.315 815.5,-704.315 812,-714.315 819,-714.315"/>
</g>
<!-- 22 -->
<g id="node23" class="node"><title>22</title>
<path fill="none" stroke="#56d892" stroke-width="2" d="M825,-552C825,-552 696,-552 696,-552 690,-552 684,-546 684,-540 684,-540 684,-508 684,-508 684,-502 690,-496 696,-496 696,-496 825,-496 825,-496 831,-496 837,-502 837,-508 837,-508 837,-540 837,-540 837,-546 831,-552 825,-552"/>
<text text-anchor="middle" x="760.5" y="-539" font-family="sans" font-size="10.00">mpileup2vcf_single</text>
<text text-anchor="middle" x="760.5" y="-527" font-family="sans" font-size="10.00">chrMPU2VCFS: _3</text>
<text text-anchor="middle" x="760.5" y="-515" font-family="sans" font-size="10.00">sampleMPU2VCFS: Pfeiffer2</text>
<text text-anchor="middle" x="760.5" y="-503" font-family="sans" font-size="10.00">varTypeMPU2VCFS: snp</text>
</g>
<!-- 22&#45;&gt;32 -->
<g id="edge41" class="edge"><title>22&#45;&gt;32</title>
<path fill="none" stroke="grey" stroke-width="2" d="M809.044,-495.747C826.015,-486.219 845.392,-475.341 863.646,-465.093"/>
<polygon fill="grey" stroke="grey" stroke-width="2" points="865.495,-468.069 872.502,-460.122 862.069,-461.965 865.495,-468.069"/>
</g>
<!-- 23 -->
<g id="node24" class="node"><title>23</title>
<path fill="none" stroke="#56d8a9" stroke-width="2" d="M862,-1240C862,-1240 771,-1240 771,-1240 765,-1240 759,-1234 759,-1228 759,-1228 759,-1216 759,-1216 759,-1210 765,-1204 771,-1204 771,-1204 862,-1204 862,-1204 868,-1204 874,-1210 874,-1216 874,-1216 874,-1228 874,-1228 874,-1234 868,-1240 862,-1240"/>
<text text-anchor="middle" x="816.5" y="-1225" font-family="sans" font-size="10.00">mergeBAM</text>
<text text-anchor="middle" x="816.5" y="-1213" font-family="sans" font-size="10.00">sampleMB: Pfeiffer2</text>
</g>
<!-- 60 -->
<g id="node61" class="node"><title>60</title>
<path fill="none" stroke="#56d0d8" stroke-width="2" d="M866.5,-1168C866.5,-1168 766.5,-1168 766.5,-1168 760.5,-1168 754.5,-1162 754.5,-1156 754.5,-1156 754.5,-1144 754.5,-1144 754.5,-1138 760.5,-1132 766.5,-1132 766.5,-1132 866.5,-1132 866.5,-1132 872.5,-1132 878.5,-1138 878.5,-1144 878.5,-1144 878.5,-1156 878.5,-1156 878.5,-1162 872.5,-1168 866.5,-1168"/>
<text text-anchor="middle" x="816.5" y="-1153" font-family="sans" font-size="10.00">bam2fastq_picard</text>
<text text-anchor="middle" x="816.5" y="-1141" font-family="sans" font-size="10.00">sampleB2FP: Pfeiffer2</text>
</g>
<!-- 23&#45;&gt;60 -->
<g id="edge76" class="edge"><title>23&#45;&gt;60</title>
<path fill="none" stroke="grey" stroke-width="2" d="M816.5,-1203.7C816.5,-1195.98 816.5,-1186.71 816.5,-1178.11"/>
<polygon fill="grey" stroke="grey" stroke-width="2" points="820,-1178.1 816.5,-1168.1 813,-1178.1 820,-1178.1"/>
</g>
<!-- 24 -->
<g id="node25" class="node"><title>24</title>
<path fill="none" stroke="#56d892" stroke-width="2" d="M312,-552C312,-552 183,-552 183,-552 177,-552 171,-546 171,-540 171,-540 171,-508 171,-508 171,-502 177,-496 183,-496 183,-496 312,-496 312,-496 318,-496 324,-502 324,-508 324,-508 324,-540 324,-540 324,-546 318,-552 312,-552"/>
<text text-anchor="middle" x="247.5" y="-539" font-family="sans" font-size="10.00">mpileup2vcf_single</text>
<text text-anchor="middle" x="247.5" y="-527" font-family="sans" font-size="10.00">chrMPU2VCFS: _3</text>
<text text-anchor="middle" x="247.5" y="-515" font-family="sans" font-size="10.00">sampleMPU2VCFS: Pfeiffer2</text>
<text text-anchor="middle" x="247.5" y="-503" font-family="sans" font-size="10.00">varTypeMPU2VCFS: indel</text>
</g>
<!-- 24&#45;&gt;6 -->
<g id="edge9" class="edge"><title>24&#45;&gt;6</title>
<path fill="none" stroke="grey" stroke-width="2" d="M296.044,-495.747C313.015,-486.219 332.392,-475.341 350.646,-465.093"/>
<polygon fill="grey" stroke="grey" stroke-width="2" points="352.495,-468.069 359.502,-460.122 349.069,-461.965 352.495,-468.069"/>
</g>
<!-- 25 -->
<g id="node26" class="node"><title>25</title>
<path fill="none" stroke="#56d892" stroke-width="2" d="M1851,-552C1851,-552 1722,-552 1722,-552 1716,-552 1710,-546 1710,-540 1710,-540 1710,-508 1710,-508 1710,-502 1716,-496 1722,-496 1722,-496 1851,-496 1851,-496 1857,-496 1863,-502 1863,-508 1863,-508 1863,-540 1863,-540 1863,-546 1857,-552 1851,-552"/>
<text text-anchor="middle" x="1786.5" y="-539" font-family="sans" font-size="10.00">mpileup2vcf_single</text>
<text text-anchor="middle" x="1786.5" y="-527" font-family="sans" font-size="10.00">chrMPU2VCFS: _2</text>
<text text-anchor="middle" x="1786.5" y="-515" font-family="sans" font-size="10.00">sampleMPU2VCFS: Pfeiffer3</text>
<text text-anchor="middle" x="1786.5" y="-503" font-family="sans" font-size="10.00">varTypeMPU2VCFS: indel</text>
</g>
<!-- 25&#45;&gt;11 -->
<g id="edge21" class="edge"><title>25&#45;&gt;11</title>
<path fill="none" stroke="grey" stroke-width="2" d="M1737.96,-495.747C1720.98,-486.219 1701.61,-475.341 1683.35,-465.093"/>
<polygon fill="grey" stroke="grey" stroke-width="2" points="1684.93,-461.965 1674.5,-460.122 1681.5,-468.069 1684.93,-461.965"/>
</g>
<!-- 26&#45;&gt;25 -->
<g id="edge35" class="edge"><title>26&#45;&gt;25</title>
<path fill="none" stroke="grey" stroke-width="2" d="M2192.2,-589.941C2189.27,-589.241 2186.36,-588.589 2183.5,-588 2049.99,-560.495 2009.86,-580.288 1873.24,-552.209"/>
<polygon fill="grey" stroke="grey" stroke-width="2" points="1873.74,-548.738 1863.23,-550.103 1872.3,-555.588 1873.74,-548.738"/>
</g>
<!-- 28 -->
<g id="node29" class="node"><title>28</title>
<path fill="none" stroke="#56d892" stroke-width="2" d="M2364,-552C2364,-552 2235,-552 2235,-552 2229,-552 2223,-546 2223,-540 2223,-540 2223,-508 2223,-508 2223,-502 2229,-496 2235,-496 2235,-496 2364,-496 2364,-496 2370,-496 2376,-502 2376,-508 2376,-508 2376,-540 2376,-540 2376,-546 2370,-552 2364,-552"/>
<text text-anchor="middle" x="2299.5" y="-539" font-family="sans" font-size="10.00">mpileup2vcf_single</text>
<text text-anchor="middle" x="2299.5" y="-527" font-family="sans" font-size="10.00">chrMPU2VCFS: _2</text>
<text text-anchor="middle" x="2299.5" y="-515" font-family="sans" font-size="10.00">sampleMPU2VCFS: Pfeiffer3</text>
<text text-anchor="middle" x="2299.5" y="-503" font-family="sans" font-size="10.00">varTypeMPU2VCFS: snp</text>
</g>
<!-- 26&#45;&gt;28 -->
<g id="edge38" class="edge"><title>26&#45;&gt;28</title>
<path fill="none" stroke="grey" stroke-width="2" d="M2265.11,-587.803C2269.54,-579.711 2274.73,-570.24 2279.71,-561.143"/>
<polygon fill="grey" stroke="grey" stroke-width="2" points="2282.85,-562.688 2284.58,-552.236 2276.71,-559.326 2282.85,-562.688"/>
</g>
<!-- 27 -->
<g id="node28" class="node"><title>27</title>
<path fill="none" stroke="#56d8c9" stroke-width="2" d="M794.5,-632C794.5,-632 696.5,-632 696.5,-632 690.5,-632 684.5,-626 684.5,-620 684.5,-620 684.5,-600 684.5,-600 684.5,-594 690.5,-588 696.5,-588 696.5,-588 794.5,-588 794.5,-588 800.5,-588 806.5,-594 806.5,-600 806.5,-600 806.5,-620 806.5,-620 806.5,-626 800.5,-632 794.5,-632"/>
<text text-anchor="middle" x="745.5" y="-619" font-family="sans" font-size="10.00">bam2mpileup</text>
<text text-anchor="middle" x="745.5" y="-607" font-family="sans" font-size="10.00">chrB2M: _3</text>
<text text-anchor="middle" x="745.5" y="-595" font-family="sans" font-size="10.00">sampleB2M: Pfeiffer2</text>
</g>
<!-- 27&#45;&gt;22 -->
<g id="edge33" class="edge"><title>27&#45;&gt;22</title>
<path fill="none" stroke="grey" stroke-width="2" d="M749.285,-587.803C750.67,-580.048 752.281,-571.027 753.842,-562.282"/>
<polygon fill="grey" stroke="grey" stroke-width="2" points="757.324,-562.696 755.636,-552.236 750.433,-561.465 757.324,-562.696"/>
</g>
<!-- 27&#45;&gt;24 -->
<g id="edge34" class="edge"><title>27&#45;&gt;24</title>
<path fill="none" stroke="grey" stroke-width="2" d="M684.165,-592.997C675.908,-591.144 667.522,-589.415 659.5,-588 518.745,-563.175 477.39,-581.419 334.258,-552.211"/>
<polygon fill="grey" stroke="grey" stroke-width="2" points="334.732,-548.735 324.228,-550.122 333.304,-555.588 334.732,-548.735"/>
</g>
<!-- 28&#45;&gt;8 -->
<g id="edge12" class="edge"><title>28&#45;&gt;8</title>
<path fill="none" stroke="grey" stroke-width="2" d="M2250.96,-495.747C2233.98,-486.219 2214.61,-475.341 2196.35,-465.093"/>
<polygon fill="grey" stroke="grey" stroke-width="2" points="2197.93,-461.965 2187.5,-460.122 2194.5,-468.069 2197.93,-461.965"/>
</g>
<!-- 29 -->
<g id="node30" class="node"><title>29</title>
<path fill="none" stroke="#56d8a9" stroke-width="2" d="M2228,-1240C2228,-1240 2137,-1240 2137,-1240 2131,-1240 2125,-1234 2125,-1228 2125,-1228 2125,-1216 2125,-1216 2125,-1210 2131,-1204 2137,-1204 2137,-1204 2228,-1204 2228,-1204 2234,-1204 2240,-1210 2240,-1216 2240,-1216 2240,-1228 2240,-1228 2240,-1234 2234,-1240 2228,-1240"/>
<text text-anchor="middle" x="2182.5" y="-1225" font-family="sans" font-size="10.00">mergeBAM</text>
<text text-anchor="middle" x="2182.5" y="-1213" font-family="sans" font-size="10.00">sampleMB: Pfeiffer3</text>
</g>
<!-- 53 -->
<g id="node54" class="node"><title>53</title>
<path fill="none" stroke="#56d0d8" stroke-width="2" d="M2232.5,-1168C2232.5,-1168 2132.5,-1168 2132.5,-1168 2126.5,-1168 2120.5,-1162 2120.5,-1156 2120.5,-1156 2120.5,-1144 2120.5,-1144 2120.5,-1138 2126.5,-1132 2132.5,-1132 2132.5,-1132 2232.5,-1132 2232.5,-1132 2238.5,-1132 2244.5,-1138 2244.5,-1144 2244.5,-1144 2244.5,-1156 2244.5,-1156 2244.5,-1162 2238.5,-1168 2232.5,-1168"/>
<text text-anchor="middle" x="2182.5" y="-1153" font-family="sans" font-size="10.00">bam2fastq_picard</text>
<text text-anchor="middle" x="2182.5" y="-1141" font-family="sans" font-size="10.00">sampleB2FP: Pfeiffer3</text>
</g>
<!-- 29&#45;&gt;53 -->
<g id="edge69" class="edge"><title>29&#45;&gt;53</title>
<path fill="none" stroke="grey" stroke-width="2" d="M2182.5,-1203.7C2182.5,-1195.98 2182.5,-1186.71 2182.5,-1178.11"/>
<polygon fill="grey" stroke="grey" stroke-width="2" points="2186,-1178.1 2182.5,-1168.1 2179,-1178.1 2186,-1178.1"/>
</g>
<!-- 30&#45;&gt;20 -->
<g id="edge31" class="edge"><title>30&#45;&gt;20</title>
<path fill="none" stroke="grey" stroke-width="2" d="M1957.5,-587.803C1957.5,-580.048 1957.5,-571.027 1957.5,-562.282"/>
<polygon fill="grey" stroke="grey" stroke-width="2" points="1961,-562.236 1957.5,-552.236 1954,-562.236 1961,-562.236"/>
</g>
<!-- 51 -->
<g id="node52" class="node"><title>51</title>
<path fill="none" stroke="#56d892" stroke-width="2" d="M1509,-552C1509,-552 1380,-552 1380,-552 1374,-552 1368,-546 1368,-540 1368,-540 1368,-508 1368,-508 1368,-502 1374,-496 1380,-496 1380,-496 1509,-496 1509,-496 1515,-496 1521,-502 1521,-508 1521,-508 1521,-540 1521,-540 1521,-546 1515,-552 1509,-552"/>
<text text-anchor="middle" x="1444.5" y="-539" font-family="sans" font-size="10.00">mpileup2vcf_single</text>
<text text-anchor="middle" x="1444.5" y="-527" font-family="sans" font-size="10.00">chrMPU2VCFS: _4</text>
<text text-anchor="middle" x="1444.5" y="-515" font-family="sans" font-size="10.00">sampleMPU2VCFS: Pfeiffer3</text>
<text text-anchor="middle" x="1444.5" y="-503" font-family="sans" font-size="10.00">varTypeMPU2VCFS: indel</text>
</g>
<!-- 30&#45;&gt;51 -->
<g id="edge66" class="edge"><title>30&#45;&gt;51</title>
<path fill="none" stroke="grey" stroke-width="2" d="M1896.31,-604.245C1814.75,-597.158 1665.93,-581.614 1531.32,-552.27"/>
<polygon fill="grey" stroke="grey" stroke-width="2" points="1531.77,-548.784 1521.25,-550.041 1530.25,-555.618 1531.77,-548.784"/>
</g>
<!-- 54 -->
<g id="node55" class="node"><title>54</title>
<path fill="none" stroke="#56d892" stroke-width="2" d="M2706,-552C2706,-552 2577,-552 2577,-552 2571,-552 2565,-546 2565,-540 2565,-540 2565,-508 2565,-508 2565,-502 2571,-496 2577,-496 2577,-496 2706,-496 2706,-496 2712,-496 2718,-502 2718,-508 2718,-508 2718,-540 2718,-540 2718,-546 2712,-552 2706,-552"/>
<text text-anchor="middle" x="2641.5" y="-539" font-family="sans" font-size="10.00">mpileup2vcf_single</text>
<text text-anchor="middle" x="2641.5" y="-527" font-family="sans" font-size="10.00">chrMPU2VCFS: _3</text>
<text text-anchor="middle" x="2641.5" y="-515" font-family="sans" font-size="10.00">sampleMPU2VCFS: Pfeiffer3</text>
<text text-anchor="middle" x="2641.5" y="-503" font-family="sans" font-size="10.00">varTypeMPU2VCFS: snp</text>
</g>
<!-- 31&#45;&gt;54 -->
<g id="edge70" class="edge"><title>31&#45;&gt;54</title>
<path fill="none" stroke="grey" stroke-width="2" d="M2513.65,-587.803C2532.96,-578.32 2556.12,-566.943 2577.39,-556.494"/>
<polygon fill="grey" stroke="grey" stroke-width="2" points="2578.94,-559.631 2586.37,-552.08 2575.85,-553.348 2578.94,-559.631"/>
</g>
<!-- 57 -->
<g id="node58" class="node"><title>57</title>
<path fill="none" stroke="#56d892" stroke-width="2" d="M2535,-552C2535,-552 2406,-552 2406,-552 2400,-552 2394,-546 2394,-540 2394,-540 2394,-508 2394,-508 2394,-502 2400,-496 2406,-496 2406,-496 2535,-496 2535,-496 2541,-496 2547,-502 2547,-508 2547,-508 2547,-540 2547,-540 2547,-546 2541,-552 2535,-552"/>
<text text-anchor="middle" x="2470.5" y="-539" font-family="sans" font-size="10.00">mpileup2vcf_single</text>
<text text-anchor="middle" x="2470.5" y="-527" font-family="sans" font-size="10.00">chrMPU2VCFS: _3</text>
<text text-anchor="middle" x="2470.5" y="-515" font-family="sans" font-size="10.00">sampleMPU2VCFS: Pfeiffer3</text>
<text text-anchor="middle" x="2470.5" y="-503" font-family="sans" font-size="10.00">varTypeMPU2VCFS: indel</text>
</g>
<!-- 31&#45;&gt;57 -->
<g id="edge73" class="edge"><title>31&#45;&gt;57</title>
<path fill="none" stroke="grey" stroke-width="2" d="M2470.5,-587.803C2470.5,-580.048 2470.5,-571.027 2470.5,-562.282"/>
<polygon fill="grey" stroke="grey" stroke-width="2" points="2474,-562.236 2470.5,-552.236 2467,-562.236 2474,-562.236"/>
</g>
<!-- 32&#45;&gt;17 -->
<g id="edge28" class="edge"><title>32&#45;&gt;17</title>
<path fill="none" stroke="grey" stroke-width="2" d="M942.134,-391.998C944.869,-383.51 947.802,-374.407 950.504,-366.022"/>
<polygon fill="grey" stroke="grey" stroke-width="2" points="953.92,-366.833 953.656,-356.241 947.257,-364.686 953.92,-366.833"/>
</g>
<!-- 33 -->
<g id="node34" class="node"><title>33</title>
<path fill="none" stroke="#568ad8" stroke-width="2" d="M2262,-944C2262,-944 2105,-944 2105,-944 2099,-944 2093,-938 2093,-932 2093,-932 2093,-912 2093,-912 2093,-906 2099,-900 2105,-900 2105,-900 2262,-900 2262,-900 2268,-900 2274,-906 2274,-912 2274,-912 2274,-932 2274,-932 2274,-938 2268,-944 2262,-944"/>
<text text-anchor="middle" x="2183.5" y="-931" font-family="sans" font-size="10.00">sortBAM_biobambam</text>
<text text-anchor="middle" x="2183.5" y="-919" font-family="sans" font-size="10.00">pathSBB: output/bam</text>
<text text-anchor="middle" x="2183.5" y="-907" font-family="sans" font-size="10.00">sampleSBB: Pfeiffer3_Aligned.out</text>
</g>
<!-- 33&#45;&gt;5 -->
<g id="edge6" class="edge"><title>33&#45;&gt;5</title>
<path fill="none" stroke="grey" stroke-width="2" d="M2183.5,-899.686C2183.5,-891.798 2183.5,-882.684 2183.5,-874.103"/>
<polygon fill="grey" stroke="grey" stroke-width="2" points="2187,-874.018 2183.5,-864.018 2180,-874.018 2187,-874.018"/>
</g>
<!-- 49 -->
<g id="node50" class="node"><title>49</title>
<path fill="none" stroke="#d8ac56" stroke-width="2" d="M2176.5,-276C2176.5,-276 1898.5,-276 1898.5,-276 1892.5,-276 1886.5,-270 1886.5,-264 1886.5,-264 1886.5,-244 1886.5,-244 1886.5,-238 1892.5,-232 1898.5,-232 1898.5,-232 2176.5,-232 2176.5,-232 2182.5,-232 2188.5,-238 2188.5,-244 2188.5,-244 2188.5,-264 2188.5,-264 2188.5,-270 2182.5,-276 2176.5,-276"/>
<text text-anchor="middle" x="2037.5" y="-263" font-family="sans" font-size="10.00">dbsnp</text>
<text text-anchor="middle" x="2037.5" y="-251" font-family="sans" font-size="10.00">pathDbSnp: output/vcfGenUtil_varScan</text>
<text text-anchor="middle" x="2037.5" y="-239" font-family="sans" font-size="10.00">sampleDbSnp: Pfeiffer3.varScan.snp.canonical_annotated</text>
</g>
<!-- 34&#45;&gt;49 -->
<g id="edge64" class="edge"><title>34&#45;&gt;49</title>
<path fill="none" stroke="grey" stroke-width="2" d="M2100.73,-311.686C2090.77,-302.757 2079.06,-292.259 2068.44,-282.74"/>
<polygon fill="grey" stroke="grey" stroke-width="2" points="2070.73,-280.087 2060.94,-276.018 2066.05,-285.299 2070.73,-280.087"/>
</g>
<!-- 35 -->
<g id="node36" class="node"><title>35</title>
<path fill="none" stroke="#56d892" stroke-width="2" d="M654,-552C654,-552 525,-552 525,-552 519,-552 513,-546 513,-540 513,-540 513,-508 513,-508 513,-502 519,-496 525,-496 525,-496 654,-496 654,-496 660,-496 666,-502 666,-508 666,-508 666,-540 666,-540 666,-546 660,-552 654,-552"/>
<text text-anchor="middle" x="589.5" y="-539" font-family="sans" font-size="10.00">mpileup2vcf_single</text>
<text text-anchor="middle" x="589.5" y="-527" font-family="sans" font-size="10.00">chrMPU2VCFS: _2</text>
<text text-anchor="middle" x="589.5" y="-515" font-family="sans" font-size="10.00">sampleMPU2VCFS: Pfeiffer2</text>
<text text-anchor="middle" x="589.5" y="-503" font-family="sans" font-size="10.00">varTypeMPU2VCFS: snp</text>
</g>
<!-- 35&#45;&gt;32 -->
<g id="edge42" class="edge"><title>35&#45;&gt;32</title>
<path fill="none" stroke="grey" stroke-width="2" d="M666.363,-498.413C669.107,-497.59 671.825,-496.783 674.5,-496 723.963,-481.512 779.123,-466.548 825.622,-454.273"/>
<polygon fill="grey" stroke="grey" stroke-width="2" points="826.629,-457.627 835.407,-451.696 824.846,-450.858 826.629,-457.627"/>
</g>
<!-- 36 -->
<g id="node37" class="node"><title>36</title>
<path fill="none" stroke="#d88d56" stroke-width="2" d="M1724.5,-116C1724.5,-116 1358.5,-116 1358.5,-116 1352.5,-116 1346.5,-110 1346.5,-104 1346.5,-104 1346.5,-84 1346.5,-84 1346.5,-78 1352.5,-72 1358.5,-72 1358.5,-72 1724.5,-72 1724.5,-72 1730.5,-72 1736.5,-78 1736.5,-84 1736.5,-84 1736.5,-104 1736.5,-104 1736.5,-110 1730.5,-116 1724.5,-116"/>
<text text-anchor="middle" x="1541.5" y="-103" font-family="sans" font-size="10.00">getVcfTable</text>
<text text-anchor="middle" x="1541.5" y="-91" font-family="sans" font-size="10.00">pathGVCFT: output/vcfGenUtil_varScan</text>
<text text-anchor="middle" x="1541.5" y="-79" font-family="sans" font-size="10.00">sampleGVCFT: Pfeiffer3.varScan.indel.canonical_annotated.indel_annotated</text>
</g>
<!-- 36&#45;&gt;38 -->
<g id="edge51" class="edge"><title>36&#45;&gt;38</title>
<path fill="none" stroke="grey" stroke-width="2" d="M1476.77,-71.9925C1435.79,-58.6919 1384.29,-41.9771 1350.21,-30.9155"/>
<polygon fill="grey" stroke="grey" stroke-width="2" points="1351.25,-27.5718 1340.66,-27.8137 1349.09,-34.2299 1351.25,-27.5718"/>
</g>
<!-- 37&#45;&gt;15 -->
<g id="edge26" class="edge"><title>37&#45;&gt;15</title>
<path fill="none" stroke="grey" stroke-width="2" d="M831.735,-667.837C839.703,-659.414 849.512,-649.045 858.56,-639.479"/>
<polygon fill="grey" stroke="grey" stroke-width="2" points="861.275,-641.702 865.605,-632.032 856.19,-636.892 861.275,-641.702"/>
</g>
<!-- 37&#45;&gt;27 -->
<g id="edge37" class="edge"><title>37&#45;&gt;27</title>
<path fill="none" stroke="grey" stroke-width="2" d="M799.265,-667.837C791.297,-659.414 781.488,-649.045 772.44,-639.479"/>
<polygon fill="grey" stroke="grey" stroke-width="2" points="774.81,-636.892 765.395,-632.032 769.725,-641.702 774.81,-636.892"/>
</g>
<!-- 43 -->
<g id="node44" class="node"><title>43</title>
<path fill="none" stroke="#56d8c9" stroke-width="2" d="M1151.5,-632C1151.5,-632 1053.5,-632 1053.5,-632 1047.5,-632 1041.5,-626 1041.5,-620 1041.5,-620 1041.5,-600 1041.5,-600 1041.5,-594 1047.5,-588 1053.5,-588 1053.5,-588 1151.5,-588 1151.5,-588 1157.5,-588 1163.5,-594 1163.5,-600 1163.5,-600 1163.5,-620 1163.5,-620 1163.5,-626 1157.5,-632 1151.5,-632"/>
<text text-anchor="middle" x="1102.5" y="-619" font-family="sans" font-size="10.00">bam2mpileup</text>
<text text-anchor="middle" x="1102.5" y="-607" font-family="sans" font-size="10.00">chrB2M: _4</text>
<text text-anchor="middle" x="1102.5" y="-595" font-family="sans" font-size="10.00">sampleB2M: Pfeiffer2</text>
</g>
<!-- 37&#45;&gt;43 -->
<g id="edge58" class="edge"><title>37&#45;&gt;43</title>
<path fill="none" stroke="grey" stroke-width="2" d="M870.836,-670.732C916.649,-658.92 982.034,-642.061 1031.67,-629.264"/>
<polygon fill="grey" stroke="grey" stroke-width="2" points="1032.56,-632.647 1041.37,-626.761 1030.81,-625.869 1032.56,-632.647"/>
</g>
<!-- 50 -->
<g id="node51" class="node"><title>50</title>
<path fill="none" stroke="#56d8c9" stroke-width="2" d="M638.5,-632C638.5,-632 540.5,-632 540.5,-632 534.5,-632 528.5,-626 528.5,-620 528.5,-620 528.5,-600 528.5,-600 528.5,-594 534.5,-588 540.5,-588 540.5,-588 638.5,-588 638.5,-588 644.5,-588 650.5,-594 650.5,-600 650.5,-600 650.5,-620 650.5,-620 650.5,-626 644.5,-632 638.5,-632"/>
<text text-anchor="middle" x="589.5" y="-619" font-family="sans" font-size="10.00">bam2mpileup</text>
<text text-anchor="middle" x="589.5" y="-607" font-family="sans" font-size="10.00">chrB2M: _2</text>
<text text-anchor="middle" x="589.5" y="-595" font-family="sans" font-size="10.00">sampleB2M: Pfeiffer2</text>
</g>
<!-- 37&#45;&gt;50 -->
<g id="edge65" class="edge"><title>37&#45;&gt;50</title>
<path fill="none" stroke="grey" stroke-width="2" d="M763.367,-667.93C732.757,-657.907 693.652,-645.103 660.284,-634.177"/>
<polygon fill="grey" stroke="grey" stroke-width="2" points="661.176,-630.786 650.583,-631.001 658.998,-637.439 661.176,-630.786"/>
</g>
<!-- 39 -->
<g id="node40" class="node"><title>39</title>
<path fill="none" stroke="#56d892" stroke-width="2" d="M1167,-552C1167,-552 1038,-552 1038,-552 1032,-552 1026,-546 1026,-540 1026,-540 1026,-508 1026,-508 1026,-502 1032,-496 1038,-496 1038,-496 1167,-496 1167,-496 1173,-496 1179,-502 1179,-508 1179,-508 1179,-540 1179,-540 1179,-546 1173,-552 1167,-552"/>
<text text-anchor="middle" x="1102.5" y="-539" font-family="sans" font-size="10.00">mpileup2vcf_single</text>
<text text-anchor="middle" x="1102.5" y="-527" font-family="sans" font-size="10.00">chrMPU2VCFS: _4</text>
<text text-anchor="middle" x="1102.5" y="-515" font-family="sans" font-size="10.00">sampleMPU2VCFS: Pfeiffer2</text>
<text text-anchor="middle" x="1102.5" y="-503" font-family="sans" font-size="10.00">varTypeMPU2VCFS: indel</text>
</g>
<!-- 39&#45;&gt;6 -->
<g id="edge7" class="edge"><title>39&#45;&gt;6</title>
<path fill="none" stroke="grey" stroke-width="2" d="M1025.8,-498.129C1022.67,-497.365 1019.56,-496.651 1016.5,-496 846.65,-459.879 645.365,-441.579 525.003,-433.184"/>
<polygon fill="grey" stroke="grey" stroke-width="2" points="524.904,-429.669 514.687,-432.475 524.424,-436.652 524.904,-429.669"/>
</g>
<!-- 40&#45;&gt;2 -->
<g id="edge3" class="edge"><title>40&#45;&gt;2</title>
<path fill="none" stroke="grey" stroke-width="2" d="M2117.29,-587.803C2118.67,-580.048 2120.28,-571.027 2121.84,-562.282"/>
<polygon fill="grey" stroke="grey" stroke-width="2" points="2125.32,-562.696 2123.64,-552.236 2118.43,-561.465 2125.32,-562.696"/>
</g>
<!-- 44 -->
<g id="node45" class="node"><title>44</title>
<path fill="none" stroke="#56d892" stroke-width="2" d="M1680,-552C1680,-552 1551,-552 1551,-552 1545,-552 1539,-546 1539,-540 1539,-540 1539,-508 1539,-508 1539,-502 1545,-496 1551,-496 1551,-496 1680,-496 1680,-496 1686,-496 1692,-502 1692,-508 1692,-508 1692,-540 1692,-540 1692,-546 1686,-552 1680,-552"/>
<text text-anchor="middle" x="1615.5" y="-539" font-family="sans" font-size="10.00">mpileup2vcf_single</text>
<text text-anchor="middle" x="1615.5" y="-527" font-family="sans" font-size="10.00">chrMPU2VCFS: _1</text>
<text text-anchor="middle" x="1615.5" y="-515" font-family="sans" font-size="10.00">sampleMPU2VCFS: Pfeiffer3</text>
<text text-anchor="middle" x="1615.5" y="-503" font-family="sans" font-size="10.00">varTypeMPU2VCFS: indel</text>
</g>
<!-- 40&#45;&gt;44 -->
<g id="edge59" class="edge"><title>40&#45;&gt;44</title>
<path fill="none" stroke="grey" stroke-width="2" d="M2052.16,-592.997C2043.91,-591.144 2035.52,-589.415 2027.5,-588 1886.75,-563.175 1845.39,-581.419 1702.26,-552.211"/>
<polygon fill="grey" stroke="grey" stroke-width="2" points="1702.73,-548.735 1692.23,-550.122 1701.3,-555.588 1702.73,-548.735"/>
</g>
<!-- 41 -->
<g id="node42" class="node"><title>41</title>
<path fill="none" stroke="#80d856" stroke-width="2" d="M908.5,-864C908.5,-864 722.5,-864 722.5,-864 716.5,-864 710.5,-858 710.5,-852 710.5,-852 710.5,-832 710.5,-832 710.5,-826 716.5,-820 722.5,-820 722.5,-820 908.5,-820 908.5,-820 914.5,-820 920.5,-826 920.5,-832 920.5,-832 920.5,-852 920.5,-852 920.5,-858 914.5,-864 908.5,-864"/>
<text text-anchor="middle" x="815.5" y="-851" font-family="sans" font-size="10.00">filteredBAM</text>
<text text-anchor="middle" x="815.5" y="-839" font-family="sans" font-size="10.00">pathFB: output/bam</text>
<text text-anchor="middle" x="815.5" y="-827" font-family="sans" font-size="10.00">sampleFB: Pfeiffer2_Aligned.out_sorted</text>
</g>
<!-- 41&#45;&gt;21 -->
<g id="edge32" class="edge"><title>41&#45;&gt;21</title>
<path fill="none" stroke="grey" stroke-width="2" d="M815.5,-819.686C815.5,-811.798 815.5,-802.684 815.5,-794.103"/>
<polygon fill="grey" stroke="grey" stroke-width="2" points="819,-794.018 815.5,-784.018 812,-794.018 819,-794.018"/>
</g>
<!-- 42&#45;&gt;18 -->
<g id="edge29" class="edge"><title>42&#45;&gt;18</title>
<path fill="none" stroke="grey" stroke-width="2" d="M1083.59,-151.686C1084,-143.798 1084.46,-134.684 1084.9,-126.103"/>
<polygon fill="grey" stroke="grey" stroke-width="2" points="1088.41,-126.184 1085.42,-116.018 1081.41,-125.826 1088.41,-126.184"/>
</g>
<!-- 43&#45;&gt;39 -->
<g id="edge54" class="edge"><title>43&#45;&gt;39</title>
<path fill="none" stroke="grey" stroke-width="2" d="M1102.5,-587.803C1102.5,-580.048 1102.5,-571.027 1102.5,-562.282"/>
<polygon fill="grey" stroke="grey" stroke-width="2" points="1106,-562.236 1102.5,-552.236 1099,-562.236 1106,-562.236"/>
</g>
<!-- 55 -->
<g id="node56" class="node"><title>55</title>
<path fill="none" stroke="#56d892" stroke-width="2" d="M1338,-552C1338,-552 1209,-552 1209,-552 1203,-552 1197,-546 1197,-540 1197,-540 1197,-508 1197,-508 1197,-502 1203,-496 1209,-496 1209,-496 1338,-496 1338,-496 1344,-496 1350,-502 1350,-508 1350,-508 1350,-540 1350,-540 1350,-546 1344,-552 1338,-552"/>
<text text-anchor="middle" x="1273.5" y="-539" font-family="sans" font-size="10.00">mpileup2vcf_single</text>
<text text-anchor="middle" x="1273.5" y="-527" font-family="sans" font-size="10.00">chrMPU2VCFS: _4</text>
<text text-anchor="middle" x="1273.5" y="-515" font-family="sans" font-size="10.00">sampleMPU2VCFS: Pfeiffer2</text>
<text text-anchor="middle" x="1273.5" y="-503" font-family="sans" font-size="10.00">varTypeMPU2VCFS: snp</text>
</g>
<!-- 43&#45;&gt;55 -->
<g id="edge71" class="edge"><title>43&#45;&gt;55</title>
<path fill="none" stroke="grey" stroke-width="2" d="M1145.65,-587.803C1164.96,-578.32 1188.12,-566.943 1209.39,-556.494"/>
<polygon fill="grey" stroke="grey" stroke-width="2" points="1210.94,-559.631 1218.37,-552.08 1207.85,-553.348 1210.94,-559.631"/>
</g>
<!-- 44&#45;&gt;11 -->
<g id="edge19" class="edge"><title>44&#45;&gt;11</title>
<path fill="none" stroke="grey" stroke-width="2" d="M1615.5,-495.747C1615.5,-487.779 1615.5,-478.865 1615.5,-470.166"/>
<polygon fill="grey" stroke="grey" stroke-width="2" points="1619,-470.122 1615.5,-460.122 1612,-470.122 1619,-470.122"/>
</g>
<!-- 46 -->
<g id="node47" class="node"><title>46</title>
<path fill="none" stroke="#d88d56" stroke-width="2" d="M800.5,-116C800.5,-116 434.5,-116 434.5,-116 428.5,-116 422.5,-110 422.5,-104 422.5,-104 422.5,-84 422.5,-84 422.5,-78 428.5,-72 434.5,-72 434.5,-72 800.5,-72 800.5,-72 806.5,-72 812.5,-78 812.5,-84 812.5,-84 812.5,-104 812.5,-104 812.5,-110 806.5,-116 800.5,-116"/>
<text text-anchor="middle" x="617.5" y="-103" font-family="sans" font-size="10.00">getVcfTable</text>
<text text-anchor="middle" x="617.5" y="-91" font-family="sans" font-size="10.00">pathGVCFT: output/vcfGenUtil_varScan</text>
<text text-anchor="middle" x="617.5" y="-79" font-family="sans" font-size="10.00">sampleGVCFT: Pfeiffer2.varScan.indel.canonical_annotated.indel_annotated</text>
</g>
<!-- 45&#45;&gt;46 -->
<g id="edge61" class="edge"><title>45&#45;&gt;46</title>
<path fill="none" stroke="grey" stroke-width="2" d="M596.424,-151.686C599.422,-143.624 602.895,-134.283 606.146,-125.538"/>
<polygon fill="grey" stroke="grey" stroke-width="2" points="609.481,-126.611 609.686,-116.018 602.92,-124.171 609.481,-126.611"/>
</g>
<!-- 46&#45;&gt;38 -->
<g id="edge52" class="edge"><title>46&#45;&gt;38</title>
<path fill="none" stroke="grey" stroke-width="2" d="M812.763,-72.2392C974.309,-55.0634 1190.63,-32.0632 1276.31,-22.9538"/>
<polygon fill="grey" stroke="grey" stroke-width="2" points="1276.76,-26.4256 1286.34,-21.8879 1276.02,-19.4649 1276.76,-26.4256"/>
</g>
<!-- 47&#45;&gt;36 -->
<g id="edge48" class="edge"><title>47&#45;&gt;36</title>
<path fill="none" stroke="grey" stroke-width="2" d="M1542.95,-151.686C1542.75,-143.798 1542.52,-134.684 1542.3,-126.103"/>
<polygon fill="grey" stroke="grey" stroke-width="2" points="1545.79,-125.925 1542.04,-116.018 1538.8,-126.104 1545.79,-125.925"/>
</g>
<!-- 48 -->
<g id="node49" class="node"><title>48</title>
<path fill="none" stroke="#61d856" stroke-width="2" d="M2309,-1096C2309,-1096 2204,-1096 2204,-1096 2198,-1096 2192,-1090 2192,-1084 2192,-1084 2192,-1064 2192,-1064 2192,-1058 2198,-1052 2204,-1052 2204,-1052 2309,-1052 2309,-1052 2315,-1052 2321,-1058 2321,-1064 2321,-1064 2321,-1084 2321,-1084 2321,-1090 2315,-1096 2309,-1096"/>
<text text-anchor="middle" x="2256.5" y="-1083" font-family="sans" font-size="10.00">fastq2GZ</text>
<text text-anchor="middle" x="2256.5" y="-1071" font-family="sans" font-size="10.00">pathFGZ: output/fastq</text>
<text text-anchor="middle" x="2256.5" y="-1059" font-family="sans" font-size="10.00">sampleFGZ: Pfeiffer3.2</text>
</g>
<!-- 48&#45;&gt;52 -->
<g id="edge67" class="edge"><title>48&#45;&gt;52</title>
<path fill="none" stroke="grey" stroke-width="2" d="M2235.78,-1051.99C2227.08,-1043.18 2216.91,-1032.87 2207.86,-1023.69"/>
<polygon fill="grey" stroke="grey" stroke-width="2" points="2210.1,-1020.98 2200.58,-1016.31 2205.11,-1025.89 2210.1,-1020.98"/>
</g>
<!-- 49&#45;&gt;3 -->
<g id="edge4" class="edge"><title>49&#45;&gt;3</title>
<path fill="none" stroke="grey" stroke-width="2" d="M2029.58,-231.686C2026.58,-223.624 2023.11,-214.283 2019.85,-205.538"/>
<polygon fill="grey" stroke="grey" stroke-width="2" points="2023.08,-204.171 2016.31,-196.018 2016.52,-206.611 2023.08,-204.171"/>
</g>
<!-- 50&#45;&gt;4 -->
<g id="edge5" class="edge"><title>50&#45;&gt;4</title>
<path fill="none" stroke="grey" stroke-width="2" d="M528.309,-604.245C446.746,-597.158 297.926,-581.614 163.323,-552.27"/>
<polygon fill="grey" stroke="grey" stroke-width="2" points="163.766,-548.784 153.246,-550.041 162.254,-555.618 163.766,-548.784"/>
</g>
<!-- 50&#45;&gt;35 -->
<g id="edge47" class="edge"><title>50&#45;&gt;35</title>
<path fill="none" stroke="grey" stroke-width="2" d="M589.5,-587.803C589.5,-580.048 589.5,-571.027 589.5,-562.282"/>
<polygon fill="grey" stroke="grey" stroke-width="2" points="593,-562.236 589.5,-552.236 586,-562.236 593,-562.236"/>
</g>
<!-- 51&#45;&gt;11 -->
<g id="edge20" class="edge"><title>51&#45;&gt;11</title>
<path fill="none" stroke="grey" stroke-width="2" d="M1493.04,-495.747C1510.02,-486.219 1529.39,-475.341 1547.65,-465.093"/>
<polygon fill="grey" stroke="grey" stroke-width="2" points="1549.5,-468.069 1556.5,-460.122 1546.07,-461.965 1549.5,-468.069"/>
</g>
<!-- 52&#45;&gt;33 -->
<g id="edge45" class="edge"><title>52&#45;&gt;33</title>
<path fill="none" stroke="grey" stroke-width="2" d="M2183.5,-979.837C2183.5,-972.165 2183.5,-962.878 2183.5,-954.053"/>
<polygon fill="grey" stroke="grey" stroke-width="2" points="2187,-954.032 2183.5,-944.032 2180,-954.032 2187,-954.032"/>
</g>
<!-- 53&#45;&gt;9 -->
<g id="edge16" class="edge"><title>53&#45;&gt;9</title>
<path fill="none" stroke="grey" stroke-width="2" d="M2165.57,-1131.84C2157.18,-1123.33 2146.83,-1112.84 2137.31,-1103.2"/>
<polygon fill="grey" stroke="grey" stroke-width="2" points="2139.76,-1100.69 2130.25,-1096.03 2134.78,-1105.61 2139.76,-1100.69"/>
</g>
<!-- 53&#45;&gt;48 -->
<g id="edge63" class="edge"><title>53&#45;&gt;48</title>
<path fill="none" stroke="grey" stroke-width="2" d="M2199.66,-1131.84C2208.17,-1123.33 2218.66,-1112.84 2228.3,-1103.2"/>
<polygon fill="grey" stroke="grey" stroke-width="2" points="2230.87,-1105.58 2235.47,-1096.03 2225.92,-1100.63 2230.87,-1105.58"/>
</g>
<!-- 54&#45;&gt;8 -->
<g id="edge13" class="edge"><title>54&#45;&gt;8</title>
<path fill="none" stroke="grey" stroke-width="2" d="M2564.73,-498.055C2561.96,-497.334 2559.21,-496.645 2556.5,-496 2448.21,-470.222 2322.2,-451.2 2235.08,-439.731"/>
<polygon fill="grey" stroke="grey" stroke-width="2" points="2235.29,-436.228 2224.92,-438.404 2234.38,-443.169 2235.29,-436.228"/>
</g>
<!-- 55&#45;&gt;32 -->
<g id="edge43" class="edge"><title>55&#45;&gt;32</title>
<path fill="none" stroke="grey" stroke-width="2" d="M1196.65,-498.703C1193.56,-497.78 1190.5,-496.876 1187.5,-496 1138.41,-481.684 1083.71,-466.798 1037.52,-454.534"/>
<polygon fill="grey" stroke="grey" stroke-width="2" points="1038.36,-451.136 1027.8,-451.958 1036.57,-457.902 1038.36,-451.136"/>
</g>
<!-- 56&#45;&gt;38 -->
<g id="edge53" class="edge"><title>56&#45;&gt;38</title>
<path fill="none" stroke="grey" stroke-width="2" d="M1804.75,-71.9925C1646.16,-54.8845 1435.2,-32.128 1350.75,-23.0186"/>
<polygon fill="grey" stroke="grey" stroke-width="2" points="1350.94,-19.5189 1340.63,-21.9262 1350.19,-26.4786 1350.94,-19.5189"/>
</g>
<!-- 57&#45;&gt;11 -->
<g id="edge18" class="edge"><title>57&#45;&gt;11</title>
<path fill="none" stroke="grey" stroke-width="2" d="M2393.79,-497.807C2391,-497.155 2388.23,-496.55 2385.5,-496 2353.49,-489.563 1925.26,-453.045 1721.64,-435.895"/>
<polygon fill="grey" stroke="grey" stroke-width="2" points="1721.78,-432.395 1711.53,-435.044 1721.2,-439.37 1721.78,-432.395"/>
</g>
<!-- 58&#45;&gt;41 -->
<g id="edge56" class="edge"><title>58&#45;&gt;41</title>
<path fill="none" stroke="grey" stroke-width="2" d="M815.5,-899.686C815.5,-891.798 815.5,-882.684 815.5,-874.103"/>
<polygon fill="grey" stroke="grey" stroke-width="2" points="819,-874.018 815.5,-864.018 812,-874.018 819,-874.018"/>
</g>
<!-- 59 -->
<g id="node60" class="node"><title>59</title>
<path fill="none" stroke="#61d856" stroke-width="2" d="M942,-1096C942,-1096 837,-1096 837,-1096 831,-1096 825,-1090 825,-1084 825,-1084 825,-1064 825,-1064 825,-1058 831,-1052 837,-1052 837,-1052 942,-1052 942,-1052 948,-1052 954,-1058 954,-1064 954,-1064 954,-1084 954,-1084 954,-1090 948,-1096 942,-1096"/>
<text text-anchor="middle" x="889.5" y="-1083" font-family="sans" font-size="10.00">fastq2GZ</text>
<text text-anchor="middle" x="889.5" y="-1071" font-family="sans" font-size="10.00">pathFGZ: output/fastq</text>
<text text-anchor="middle" x="889.5" y="-1059" font-family="sans" font-size="10.00">sampleFGZ: Pfeiffer2.1</text>
</g>
<!-- 59&#45;&gt;14 -->
<g id="edge25" class="edge"><title>59&#45;&gt;14</title>
<path fill="none" stroke="grey" stroke-width="2" d="M868.493,-1051.99C859.591,-1043.09 849.161,-1032.66 839.92,-1023.42"/>
<polygon fill="grey" stroke="grey" stroke-width="2" points="842.361,-1020.91 832.815,-1016.31 837.411,-1025.86 842.361,-1020.91"/>
</g>
<!-- 60&#45;&gt;1 -->
<g id="edge2" class="edge"><title>60&#45;&gt;1</title>
<path fill="none" stroke="grey" stroke-width="2" d="M799.337,-1131.84C790.831,-1123.33 780.339,-1112.84 770.695,-1103.2"/>
<polygon fill="grey" stroke="grey" stroke-width="2" points="773.078,-1100.63 763.532,-1096.03 768.128,-1105.58 773.078,-1100.63"/>
</g>
<!-- 60&#45;&gt;59 -->
<g id="edge75" class="edge"><title>60&#45;&gt;59</title>
<path fill="none" stroke="grey" stroke-width="2" d="M833.431,-1131.84C841.822,-1123.33 852.172,-1112.84 861.686,-1103.2"/>
<polygon fill="grey" stroke="grey" stroke-width="2" points="864.221,-1105.61 868.752,-1096.03 859.238,-1100.69 864.221,-1105.61"/>
</g>
</g>
</svg>
