<?xml version="1.0" encoding="UTF-8" standalone="no"?>
<!DOCTYPE svg PUBLIC "-//W3C//DTD SVG 1.1//EN"
 "http://www.w3.org/Graphics/SVG/1.1/DTD/svg11.dtd">
<!-- Generated by graphviz version 2.38.0 (20140413.2041)
 -->
<!-- Title: snakemake_dag Pages: 1 -->
<svg width="1310pt" height="1336pt"
 viewBox="0.00 0.00 1310.00 1336.00" xmlns="http://www.w3.org/2000/svg" xmlns:xlink="http://www.w3.org/1999/xlink">
<g id="graph0" class="graph" transform="scale(1 1) rotate(0) translate(4 1332)">
<title>snakemake_dag</title>
<polygon fill="white" stroke="none" points="-4,4 -4,-1332 1306,-1332 1306,4 -4,4"/>
<!-- 0 -->
<g id="node1" class="node"><title>0</title>
<path fill="none" stroke="#97d856" stroke-width="2" d="M488,-356C488,-356 183,-356 183,-356 177,-356 171,-350 171,-344 171,-344 171,-324 171,-324 171,-318 177,-312 183,-312 183,-312 488,-312 488,-312 494,-312 500,-318 500,-324 500,-324 500,-344 500,-344 500,-350 494,-356 488,-356"/>
<text text-anchor="middle" x="335.5" y="-343" font-family="sans" font-size="10.00">indel</text>
<text text-anchor="middle" x="335.5" y="-331" font-family="sans" font-size="10.00">pathIndel: output/vcfGenUtil_varScan</text>
<text text-anchor="middle" x="335.5" y="-319" font-family="sans" font-size="10.00">sampleIndel: Pfeiffer.varScan.indel.canonical_annotated_sorted</text>
</g>
<!-- 13 -->
<g id="node14" class="node"><title>13</title>
<path fill="none" stroke="#567bd8" stroke-width="2" d="M533,-276C533,-276 138,-276 138,-276 132,-276 126,-270 126,-264 126,-264 126,-244 126,-244 126,-238 132,-232 138,-232 138,-232 533,-232 533,-232 539,-232 545,-238 545,-244 545,-244 545,-264 545,-264 545,-270 539,-276 533,-276"/>
<text text-anchor="middle" x="335.5" y="-263" font-family="sans" font-size="10.00">getVcfTable</text>
<text text-anchor="middle" x="335.5" y="-251" font-family="sans" font-size="10.00">pathGVCFT: output/vcfGenUtil_varScan</text>
<text text-anchor="middle" x="335.5" y="-239" font-family="sans" font-size="10.00">sampleGVCFT: Pfeiffer.varScan.indel.canonical_annotated_sorted.indel_annotated</text>
</g>
<!-- 0&#45;&gt;13 -->
<g id="edge13" class="edge"><title>0&#45;&gt;13</title>
<path fill="none" stroke="grey" stroke-width="2" d="M335.5,-311.686C335.5,-303.798 335.5,-294.684 335.5,-286.103"/>
<polygon fill="grey" stroke="grey" stroke-width="2" points="339,-286.018 335.5,-276.018 332,-286.018 339,-286.018"/>
</g>
<!-- 1 -->
<g id="node2" class="node"><title>1</title>
<path fill="none" stroke="#9fd856" stroke-width="2" d="M415.5,-516C415.5,-516 255.5,-516 255.5,-516 249.5,-516 243.5,-510 243.5,-504 243.5,-504 243.5,-484 243.5,-484 243.5,-478 249.5,-472 255.5,-472 255.5,-472 415.5,-472 415.5,-472 421.5,-472 427.5,-478 427.5,-484 427.5,-484 427.5,-504 427.5,-504 427.5,-510 421.5,-516 415.5,-516"/>
<text text-anchor="middle" x="335.5" y="-503" font-family="sans" font-size="10.00">canonical</text>
<text text-anchor="middle" x="335.5" y="-491" font-family="sans" font-size="10.00">pathCAN: vcfGenUtil_varScan</text>
<text text-anchor="middle" x="335.5" y="-479" font-family="sans" font-size="10.00">sampleCAN: Pfeiffer.varScan.indel</text>
</g>
<!-- 7 -->
<g id="node8" class="node"><title>7</title>
<path fill="none" stroke="#56c9d8" stroke-width="2" d="M470,-436C470,-436 201,-436 201,-436 195,-436 189,-430 189,-424 189,-424 189,-404 189,-404 189,-398 195,-392 201,-392 201,-392 470,-392 470,-392 476,-392 482,-398 482,-404 482,-404 482,-424 482,-424 482,-430 476,-436 470,-436"/>
<text text-anchor="middle" x="335.5" y="-423" font-family="sans" font-size="10.00">sortVCF</text>
<text text-anchor="middle" x="335.5" y="-411" font-family="sans" font-size="10.00">pathSVCF: output/vcfGenUtil_varScan</text>
<text text-anchor="middle" x="335.5" y="-399" font-family="sans" font-size="10.00">sampleSVCF: Pfeiffer.varScan.indel.canonical_annotated</text>
</g>
<!-- 1&#45;&gt;7 -->
<g id="edge7" class="edge"><title>1&#45;&gt;7</title>
<path fill="none" stroke="grey" stroke-width="2" d="M335.5,-471.686C335.5,-463.798 335.5,-454.684 335.5,-446.103"/>
<polygon fill="grey" stroke="grey" stroke-width="2" points="339,-446.018 335.5,-436.018 332,-446.018 339,-446.018"/>
</g>
<!-- 2 -->
<g id="node3" class="node"><title>2</title>
<path fill="none" stroke="#d8d356" stroke-width="2" d="M896,-792C896,-792 805,-792 805,-792 799,-792 793,-786 793,-780 793,-780 793,-760 793,-760 793,-754 799,-748 805,-748 805,-748 896,-748 896,-748 902,-748 908,-754 908,-760 908,-760 908,-780 908,-780 908,-786 902,-792 896,-792"/>
<text text-anchor="middle" x="850.5" y="-779" font-family="sans" font-size="10.00">bam2mpileup</text>
<text text-anchor="middle" x="850.5" y="-767" font-family="sans" font-size="10.00">chrB2M: _2</text>
<text text-anchor="middle" x="850.5" y="-755" font-family="sans" font-size="10.00">sampleB2M: Pfeiffer</text>
</g>
<!-- 3 -->
<g id="node4" class="node"><title>3</title>
<path fill="none" stroke="#afd856" stroke-width="2" d="M465,-712C465,-712 342,-712 342,-712 336,-712 330,-706 330,-700 330,-700 330,-668 330,-668 330,-662 336,-656 342,-656 342,-656 465,-656 465,-656 471,-656 477,-662 477,-668 477,-668 477,-700 477,-700 477,-706 471,-712 465,-712"/>
<text text-anchor="middle" x="403.5" y="-699" font-family="sans" font-size="10.00">mpileup2vcf_single</text>
<text text-anchor="middle" x="403.5" y="-687" font-family="sans" font-size="10.00">chrMPU2VCFS: _2</text>
<text text-anchor="middle" x="403.5" y="-675" font-family="sans" font-size="10.00">sampleMPU2VCFS: Pfeiffer</text>
<text text-anchor="middle" x="403.5" y="-663" font-family="sans" font-size="10.00">varTypeMPU2VCFS: indel</text>
</g>
<!-- 2&#45;&gt;3 -->
<g id="edge4" class="edge"><title>2&#45;&gt;3</title>
<path fill="none" stroke="grey" stroke-width="2" d="M792.936,-750.221C789.759,-749.415 786.598,-748.667 783.5,-748 656.263,-720.617 617.596,-740.004 487.042,-712.164"/>
<polygon fill="grey" stroke="grey" stroke-width="2" points="487.582,-708.7 477.065,-709.984 486.087,-715.538 487.582,-708.7"/>
</g>
<!-- 31 -->
<g id="node32" class="node"><title>31</title>
<path fill="none" stroke="#afd856" stroke-width="2" d="M960,-712C960,-712 837,-712 837,-712 831,-712 825,-706 825,-700 825,-700 825,-668 825,-668 825,-662 831,-656 837,-656 837,-656 960,-656 960,-656 966,-656 972,-662 972,-668 972,-668 972,-700 972,-700 972,-706 966,-712 960,-712"/>
<text text-anchor="middle" x="898.5" y="-699" font-family="sans" font-size="10.00">mpileup2vcf_single</text>
<text text-anchor="middle" x="898.5" y="-687" font-family="sans" font-size="10.00">chrMPU2VCFS: _2</text>
<text text-anchor="middle" x="898.5" y="-675" font-family="sans" font-size="10.00">sampleMPU2VCFS: Pfeiffer</text>
<text text-anchor="middle" x="898.5" y="-663" font-family="sans" font-size="10.00">varTypeMPU2VCFS: snp</text>
</g>
<!-- 2&#45;&gt;31 -->
<g id="edge39" class="edge"><title>2&#45;&gt;31</title>
<path fill="none" stroke="grey" stroke-width="2" d="M862.612,-747.803C867.237,-739.711 872.648,-730.24 877.847,-721.143"/>
<polygon fill="grey" stroke="grey" stroke-width="2" points="881.014,-722.655 882.936,-712.236 874.936,-719.182 881.014,-722.655"/>
</g>
<!-- 16 -->
<g id="node17" class="node"><title>16</title>
<path fill="none" stroke="#5673d8" stroke-width="2" d="M419.5,-620C419.5,-620 251.5,-620 251.5,-620 245.5,-620 239.5,-614 239.5,-608 239.5,-608 239.5,-564 239.5,-564 239.5,-558 245.5,-552 251.5,-552 251.5,-552 419.5,-552 419.5,-552 425.5,-552 431.5,-558 431.5,-564 431.5,-564 431.5,-608 431.5,-608 431.5,-614 425.5,-620 419.5,-620"/>
<text text-anchor="middle" x="335.5" y="-607" font-family="sans" font-size="10.00">mergeVCF</text>
<text text-anchor="middle" x="335.5" y="-595" font-family="sans" font-size="10.00">pathMV: output/vcfGenUtil_varScan</text>
<text text-anchor="middle" x="335.5" y="-583" font-family="sans" font-size="10.00">sampleMVCF: Pfeiffer</text>
<text text-anchor="middle" x="335.5" y="-571" font-family="sans" font-size="10.00">varTypeMVCF: indel</text>
<text text-anchor="middle" x="335.5" y="-559" font-family="sans" font-size="10.00">vcfProgramMVCF: varScan</text>
</g>
<!-- 3&#45;&gt;16 -->
<g id="edge18" class="edge"><title>3&#45;&gt;16</title>
<path fill="none" stroke="grey" stroke-width="2" d="M384.196,-655.747C378.183,-647.259 371.412,-637.699 364.873,-628.467"/>
<polygon fill="grey" stroke="grey" stroke-width="2" points="367.598,-626.259 358.961,-620.122 361.885,-630.305 367.598,-626.259"/>
</g>
<!-- 4 -->
<g id="node5" class="node"><title>4</title>
<path fill="none" stroke="#d8d356" stroke-width="2" d="M1109,-792C1109,-792 1018,-792 1018,-792 1012,-792 1006,-786 1006,-780 1006,-780 1006,-760 1006,-760 1006,-754 1012,-748 1018,-748 1018,-748 1109,-748 1109,-748 1115,-748 1121,-754 1121,-760 1121,-760 1121,-780 1121,-780 1121,-786 1115,-792 1109,-792"/>
<text text-anchor="middle" x="1063.5" y="-779" font-family="sans" font-size="10.00">bam2mpileup</text>
<text text-anchor="middle" x="1063.5" y="-767" font-family="sans" font-size="10.00">chrB2M: _1</text>
<text text-anchor="middle" x="1063.5" y="-755" font-family="sans" font-size="10.00">sampleB2M: Pfeiffer</text>
</g>
<!-- 26 -->
<g id="node27" class="node"><title>26</title>
<path fill="none" stroke="#afd856" stroke-width="2" d="M1290,-712C1290,-712 1167,-712 1167,-712 1161,-712 1155,-706 1155,-700 1155,-700 1155,-668 1155,-668 1155,-662 1161,-656 1167,-656 1167,-656 1290,-656 1290,-656 1296,-656 1302,-662 1302,-668 1302,-668 1302,-700 1302,-700 1302,-706 1296,-712 1290,-712"/>
<text text-anchor="middle" x="1228.5" y="-699" font-family="sans" font-size="10.00">mpileup2vcf_single</text>
<text text-anchor="middle" x="1228.5" y="-687" font-family="sans" font-size="10.00">chrMPU2VCFS: _1</text>
<text text-anchor="middle" x="1228.5" y="-675" font-family="sans" font-size="10.00">sampleMPU2VCFS: Pfeiffer</text>
<text text-anchor="middle" x="1228.5" y="-663" font-family="sans" font-size="10.00">varTypeMPU2VCFS: snp</text>
</g>
<!-- 4&#45;&gt;26 -->
<g id="edge33" class="edge"><title>4&#45;&gt;26</title>
<path fill="none" stroke="grey" stroke-width="2" d="M1105.14,-747.803C1123.68,-738.362 1145.91,-727.045 1166.36,-716.634"/>
<polygon fill="grey" stroke="grey" stroke-width="2" points="1167.98,-719.736 1175.31,-712.08 1164.81,-713.498 1167.98,-719.736"/>
</g>
<!-- 33 -->
<g id="node34" class="node"><title>33</title>
<path fill="none" stroke="#afd856" stroke-width="2" d="M1125,-712C1125,-712 1002,-712 1002,-712 996,-712 990,-706 990,-700 990,-700 990,-668 990,-668 990,-662 996,-656 1002,-656 1002,-656 1125,-656 1125,-656 1131,-656 1137,-662 1137,-668 1137,-668 1137,-700 1137,-700 1137,-706 1131,-712 1125,-712"/>
<text text-anchor="middle" x="1063.5" y="-699" font-family="sans" font-size="10.00">mpileup2vcf_single</text>
<text text-anchor="middle" x="1063.5" y="-687" font-family="sans" font-size="10.00">chrMPU2VCFS: _1</text>
<text text-anchor="middle" x="1063.5" y="-675" font-family="sans" font-size="10.00">sampleMPU2VCFS: Pfeiffer</text>
<text text-anchor="middle" x="1063.5" y="-663" font-family="sans" font-size="10.00">varTypeMPU2VCFS: indel</text>
</g>
<!-- 4&#45;&gt;33 -->
<g id="edge41" class="edge"><title>4&#45;&gt;33</title>
<path fill="none" stroke="grey" stroke-width="2" d="M1063.5,-747.803C1063.5,-740.048 1063.5,-731.027 1063.5,-722.282"/>
<polygon fill="grey" stroke="grey" stroke-width="2" points="1067,-722.236 1063.5,-712.236 1060,-722.236 1067,-722.236"/>
</g>
<!-- 5 -->
<g id="node6" class="node"><title>5</title>
<path fill="none" stroke="#59d856" stroke-width="2" d="M830.5,-1328C830.5,-1328 736.5,-1328 736.5,-1328 730.5,-1328 724.5,-1322 724.5,-1316 724.5,-1316 724.5,-1304 724.5,-1304 724.5,-1298 730.5,-1292 736.5,-1292 736.5,-1292 830.5,-1292 830.5,-1292 836.5,-1292 842.5,-1298 842.5,-1304 842.5,-1304 842.5,-1316 842.5,-1316 842.5,-1322 836.5,-1328 830.5,-1328"/>
<text text-anchor="middle" x="783.5" y="-1313" font-family="sans" font-size="10.00">bam2fastq_picard</text>
<text text-anchor="middle" x="783.5" y="-1301" font-family="sans" font-size="10.00">sampleB2FP: Pfeiffer</text>
</g>
<!-- 21 -->
<g id="node22" class="node"><title>21</title>
<path fill="none" stroke="#61d856" stroke-width="2" d="M762.5,-1256C762.5,-1256 660.5,-1256 660.5,-1256 654.5,-1256 648.5,-1250 648.5,-1244 648.5,-1244 648.5,-1224 648.5,-1224 648.5,-1218 654.5,-1212 660.5,-1212 660.5,-1212 762.5,-1212 762.5,-1212 768.5,-1212 774.5,-1218 774.5,-1224 774.5,-1224 774.5,-1244 774.5,-1244 774.5,-1250 768.5,-1256 762.5,-1256"/>
<text text-anchor="middle" x="711.5" y="-1243" font-family="sans" font-size="10.00">fastq2GZ</text>
<text text-anchor="middle" x="711.5" y="-1231" font-family="sans" font-size="10.00">pathFGZ: output/fastq</text>
<text text-anchor="middle" x="711.5" y="-1219" font-family="sans" font-size="10.00">sampleFGZ: Pfeiffer.2</text>
</g>
<!-- 5&#45;&gt;21 -->
<g id="edge28" class="edge"><title>5&#45;&gt;21</title>
<path fill="none" stroke="grey" stroke-width="2" d="M766.801,-1291.84C758.606,-1283.41 748.517,-1273.04 739.209,-1263.48"/>
<polygon fill="grey" stroke="grey" stroke-width="2" points="741.446,-1260.76 731.964,-1256.03 736.429,-1265.64 741.446,-1260.76"/>
</g>
<!-- 25 -->
<g id="node26" class="node"><title>25</title>
<path fill="none" stroke="#61d856" stroke-width="2" d="M906.5,-1256C906.5,-1256 804.5,-1256 804.5,-1256 798.5,-1256 792.5,-1250 792.5,-1244 792.5,-1244 792.5,-1224 792.5,-1224 792.5,-1218 798.5,-1212 804.5,-1212 804.5,-1212 906.5,-1212 906.5,-1212 912.5,-1212 918.5,-1218 918.5,-1224 918.5,-1224 918.5,-1244 918.5,-1244 918.5,-1250 912.5,-1256 906.5,-1256"/>
<text text-anchor="middle" x="855.5" y="-1243" font-family="sans" font-size="10.00">fastq2GZ</text>
<text text-anchor="middle" x="855.5" y="-1231" font-family="sans" font-size="10.00">pathFGZ: output/fastq</text>
<text text-anchor="middle" x="855.5" y="-1219" font-family="sans" font-size="10.00">sampleFGZ: Pfeiffer.1</text>
</g>
<!-- 5&#45;&gt;25 -->
<g id="edge32" class="edge"><title>5&#45;&gt;25</title>
<path fill="none" stroke="grey" stroke-width="2" d="M800.199,-1291.84C808.394,-1283.41 818.483,-1273.04 827.791,-1263.48"/>
<polygon fill="grey" stroke="grey" stroke-width="2" points="830.571,-1265.64 835.036,-1256.03 825.554,-1260.76 830.571,-1265.64"/>
</g>
<!-- 6 -->
<g id="node7" class="node"><title>6</title>
<path fill="none" stroke="#9fd856" stroke-width="2" d="M879,-516C879,-516 726,-516 726,-516 720,-516 714,-510 714,-504 714,-504 714,-484 714,-484 714,-478 720,-472 726,-472 726,-472 879,-472 879,-472 885,-472 891,-478 891,-484 891,-484 891,-504 891,-504 891,-510 885,-516 879,-516"/>
<text text-anchor="middle" x="802.5" y="-503" font-family="sans" font-size="10.00">canonical</text>
<text text-anchor="middle" x="802.5" y="-491" font-family="sans" font-size="10.00">pathCAN: vcfGenUtil_varScan</text>
<text text-anchor="middle" x="802.5" y="-479" font-family="sans" font-size="10.00">sampleCAN: Pfeiffer.varScan.snp</text>
</g>
<!-- 11 -->
<g id="node12" class="node"><title>11</title>
<path fill="none" stroke="#56c9d8" stroke-width="2" d="M934,-436C934,-436 671,-436 671,-436 665,-436 659,-430 659,-424 659,-424 659,-404 659,-404 659,-398 665,-392 671,-392 671,-392 934,-392 934,-392 940,-392 946,-398 946,-404 946,-404 946,-424 946,-424 946,-430 940,-436 934,-436"/>
<text text-anchor="middle" x="802.5" y="-423" font-family="sans" font-size="10.00">sortVCF</text>
<text text-anchor="middle" x="802.5" y="-411" font-family="sans" font-size="10.00">pathSVCF: output/vcfGenUtil_varScan</text>
<text text-anchor="middle" x="802.5" y="-399" font-family="sans" font-size="10.00">sampleSVCF: Pfeiffer.varScan.snp.canonical_annotated</text>
</g>
<!-- 6&#45;&gt;11 -->
<g id="edge11" class="edge"><title>6&#45;&gt;11</title>
<path fill="none" stroke="grey" stroke-width="2" d="M802.5,-471.686C802.5,-463.798 802.5,-454.684 802.5,-446.103"/>
<polygon fill="grey" stroke="grey" stroke-width="2" points="806,-446.018 802.5,-436.018 799,-446.018 806,-446.018"/>
</g>
<!-- 7&#45;&gt;0 -->
<g id="edge1" class="edge"><title>7&#45;&gt;0</title>
<path fill="none" stroke="grey" stroke-width="2" d="M335.5,-391.686C335.5,-383.798 335.5,-374.684 335.5,-366.103"/>
<polygon fill="grey" stroke="grey" stroke-width="2" points="339,-366.018 335.5,-356.018 332,-366.018 339,-366.018"/>
</g>
<!-- 8 -->
<g id="node9" class="node"><title>8</title>
<path fill="none" stroke="#70d856" stroke-width="2" d="M823,-864C823,-864 744,-864 744,-864 738,-864 732,-858 732,-852 732,-852 732,-840 732,-840 732,-834 738,-828 744,-828 744,-828 823,-828 823,-828 829,-828 835,-834 835,-840 835,-840 835,-852 835,-852 835,-858 829,-864 823,-864"/>
<text text-anchor="middle" x="783.5" y="-849" font-family="sans" font-size="10.00">indexBAM</text>
<text text-anchor="middle" x="783.5" y="-837" font-family="sans" font-size="10.00">sampleIB: Pfeiffer</text>
</g>
<!-- 8&#45;&gt;2 -->
<g id="edge3" class="edge"><title>8&#45;&gt;2</title>
<path fill="none" stroke="grey" stroke-width="2" d="M799.04,-827.837C806.665,-819.414 816.054,-809.045 824.715,-799.479"/>
<polygon fill="grey" stroke="grey" stroke-width="2" points="827.34,-801.794 831.457,-792.032 822.151,-797.096 827.34,-801.794"/>
</g>
<!-- 8&#45;&gt;4 -->
<g id="edge5" class="edge"><title>8&#45;&gt;4</title>
<path fill="none" stroke="grey" stroke-width="2" d="M835.183,-831.341C880.419,-819.386 946.448,-801.935 995.876,-788.872"/>
<polygon fill="grey" stroke="grey" stroke-width="2" points="997.069,-792.177 1005.84,-786.238 995.281,-785.409 997.069,-792.177"/>
</g>
<!-- 12 -->
<g id="node13" class="node"><title>12</title>
<path fill="none" stroke="#d8d356" stroke-width="2" d="M763,-792C763,-792 672,-792 672,-792 666,-792 660,-786 660,-780 660,-780 660,-760 660,-760 660,-754 666,-748 672,-748 672,-748 763,-748 763,-748 769,-748 775,-754 775,-760 775,-760 775,-780 775,-780 775,-786 769,-792 763,-792"/>
<text text-anchor="middle" x="717.5" y="-779" font-family="sans" font-size="10.00">bam2mpileup</text>
<text text-anchor="middle" x="717.5" y="-767" font-family="sans" font-size="10.00">chrB2M: _3</text>
<text text-anchor="middle" x="717.5" y="-755" font-family="sans" font-size="10.00">sampleB2M: Pfeiffer</text>
</g>
<!-- 8&#45;&gt;12 -->
<g id="edge12" class="edge"><title>8&#45;&gt;12</title>
<path fill="none" stroke="grey" stroke-width="2" d="M768.192,-827.837C760.755,-819.498 751.615,-809.25 743.154,-799.763"/>
<polygon fill="grey" stroke="grey" stroke-width="2" points="745.527,-797.166 736.258,-792.032 740.303,-801.825 745.527,-797.166"/>
</g>
<!-- 14 -->
<g id="node15" class="node"><title>14</title>
<path fill="none" stroke="#d8d356" stroke-width="2" d="M614,-792C614,-792 523,-792 523,-792 517,-792 511,-786 511,-780 511,-780 511,-760 511,-760 511,-754 517,-748 523,-748 523,-748 614,-748 614,-748 620,-748 626,-754 626,-760 626,-760 626,-780 626,-780 626,-786 620,-792 614,-792"/>
<text text-anchor="middle" x="568.5" y="-779" font-family="sans" font-size="10.00">bam2mpileup</text>
<text text-anchor="middle" x="568.5" y="-767" font-family="sans" font-size="10.00">chrB2M: _4</text>
<text text-anchor="middle" x="568.5" y="-755" font-family="sans" font-size="10.00">sampleB2M: Pfeiffer</text>
</g>
<!-- 8&#45;&gt;14 -->
<g id="edge14" class="edge"><title>8&#45;&gt;14</title>
<path fill="none" stroke="grey" stroke-width="2" d="M733.905,-827.93C704.797,-817.911 667.615,-805.114 635.879,-794.191"/>
<polygon fill="grey" stroke="grey" stroke-width="2" points="636.815,-790.812 626.22,-790.867 634.537,-797.431 636.815,-790.812"/>
</g>
<!-- 9 -->
<g id="node10" class="node"><title>9</title>
<path fill="none" stroke="#afd856" stroke-width="2" d="M795,-712C795,-712 672,-712 672,-712 666,-712 660,-706 660,-700 660,-700 660,-668 660,-668 660,-662 666,-656 672,-656 672,-656 795,-656 795,-656 801,-656 807,-662 807,-668 807,-668 807,-700 807,-700 807,-706 801,-712 795,-712"/>
<text text-anchor="middle" x="733.5" y="-699" font-family="sans" font-size="10.00">mpileup2vcf_single</text>
<text text-anchor="middle" x="733.5" y="-687" font-family="sans" font-size="10.00">chrMPU2VCFS: _3</text>
<text text-anchor="middle" x="733.5" y="-675" font-family="sans" font-size="10.00">sampleMPU2VCFS: Pfeiffer</text>
<text text-anchor="middle" x="733.5" y="-663" font-family="sans" font-size="10.00">varTypeMPU2VCFS: snp</text>
</g>
<!-- 19 -->
<g id="node20" class="node"><title>19</title>
<path fill="none" stroke="#5673d8" stroke-width="2" d="M886.5,-620C886.5,-620 718.5,-620 718.5,-620 712.5,-620 706.5,-614 706.5,-608 706.5,-608 706.5,-564 706.5,-564 706.5,-558 712.5,-552 718.5,-552 718.5,-552 886.5,-552 886.5,-552 892.5,-552 898.5,-558 898.5,-564 898.5,-564 898.5,-608 898.5,-608 898.5,-614 892.5,-620 886.5,-620"/>
<text text-anchor="middle" x="802.5" y="-607" font-family="sans" font-size="10.00">mergeVCF</text>
<text text-anchor="middle" x="802.5" y="-595" font-family="sans" font-size="10.00">pathMV: output/vcfGenUtil_varScan</text>
<text text-anchor="middle" x="802.5" y="-583" font-family="sans" font-size="10.00">sampleMVCF: Pfeiffer</text>
<text text-anchor="middle" x="802.5" y="-571" font-family="sans" font-size="10.00">varTypeMVCF: snp</text>
<text text-anchor="middle" x="802.5" y="-559" font-family="sans" font-size="10.00">vcfProgramMVCF: varScan</text>
</g>
<!-- 9&#45;&gt;19 -->
<g id="edge22" class="edge"><title>9&#45;&gt;19</title>
<path fill="none" stroke="grey" stroke-width="2" d="M753.088,-655.747C759.189,-647.259 766.06,-637.699 772.695,-628.467"/>
<polygon fill="grey" stroke="grey" stroke-width="2" points="775.699,-630.285 778.694,-620.122 770.015,-626.199 775.699,-630.285"/>
</g>
<!-- 10 -->
<g id="node11" class="node"><title>10</title>
<path fill="none" stroke="#afd856" stroke-width="2" d="M300,-712C300,-712 177,-712 177,-712 171,-712 165,-706 165,-700 165,-700 165,-668 165,-668 165,-662 171,-656 177,-656 177,-656 300,-656 300,-656 306,-656 312,-662 312,-668 312,-668 312,-700 312,-700 312,-706 306,-712 300,-712"/>
<text text-anchor="middle" x="238.5" y="-699" font-family="sans" font-size="10.00">mpileup2vcf_single</text>
<text text-anchor="middle" x="238.5" y="-687" font-family="sans" font-size="10.00">chrMPU2VCFS: _3</text>
<text text-anchor="middle" x="238.5" y="-675" font-family="sans" font-size="10.00">sampleMPU2VCFS: Pfeiffer</text>
<text text-anchor="middle" x="238.5" y="-663" font-family="sans" font-size="10.00">varTypeMPU2VCFS: indel</text>
</g>
<!-- 10&#45;&gt;16 -->
<g id="edge16" class="edge"><title>10&#45;&gt;16</title>
<path fill="none" stroke="grey" stroke-width="2" d="M266.037,-655.747C274.964,-646.912 285.063,-636.917 294.741,-627.339"/>
<polygon fill="grey" stroke="grey" stroke-width="2" points="297.388,-629.644 302.033,-620.122 292.464,-624.668 297.388,-629.644"/>
</g>
<!-- 32 -->
<g id="node33" class="node"><title>32</title>
<path fill="none" stroke="#d88556" stroke-width="2" d="M956,-356C956,-356 649,-356 649,-356 643,-356 637,-350 637,-344 637,-344 637,-324 637,-324 637,-318 643,-312 649,-312 649,-312 956,-312 956,-312 962,-312 968,-318 968,-324 968,-324 968,-344 968,-344 968,-350 962,-356 956,-356"/>
<text text-anchor="middle" x="802.5" y="-343" font-family="sans" font-size="10.00">dbsnp</text>
<text text-anchor="middle" x="802.5" y="-331" font-family="sans" font-size="10.00">pathDbSnp: output/vcfGenUtil_varScan</text>
<text text-anchor="middle" x="802.5" y="-319" font-family="sans" font-size="10.00">sampleDbSnp: Pfeiffer.varScan.snp.canonical_annotated_sorted</text>
</g>
<!-- 11&#45;&gt;32 -->
<g id="edge40" class="edge"><title>11&#45;&gt;32</title>
<path fill="none" stroke="grey" stroke-width="2" d="M802.5,-391.686C802.5,-383.798 802.5,-374.684 802.5,-366.103"/>
<polygon fill="grey" stroke="grey" stroke-width="2" points="806,-366.018 802.5,-356.018 799,-366.018 806,-366.018"/>
</g>
<!-- 12&#45;&gt;9 -->
<g id="edge9" class="edge"><title>12&#45;&gt;9</title>
<path fill="none" stroke="grey" stroke-width="2" d="M721.537,-747.803C723.015,-740.048 724.733,-731.027 726.399,-722.282"/>
<polygon fill="grey" stroke="grey" stroke-width="2" points="729.879,-722.714 728.312,-712.236 723.003,-721.405 729.879,-722.714"/>
</g>
<!-- 12&#45;&gt;10 -->
<g id="edge10" class="edge"><title>12&#45;&gt;10</title>
<path fill="none" stroke="grey" stroke-width="2" d="M659.67,-753.318C651.265,-751.346 642.688,-749.498 634.5,-748 499.563,-723.309 459.567,-741.237 322.127,-712.18"/>
<polygon fill="grey" stroke="grey" stroke-width="2" points="322.574,-708.696 312.06,-710.006 321.096,-715.538 322.574,-708.696"/>
</g>
<!-- 22 -->
<g id="node23" class="node"><title>22</title>
<path fill="none" stroke="#88d856" stroke-width="2" d="M525,-116C525,-116 146,-116 146,-116 140,-116 134,-110 134,-104 134,-104 134,-84 134,-84 134,-78 140,-72 146,-72 146,-72 525,-72 525,-72 531,-72 537,-78 537,-84 537,-84 537,-104 537,-104 537,-110 531,-116 525,-116"/>
<text text-anchor="middle" x="335.5" y="-103" font-family="sans" font-size="10.00">tableMERGE</text>
<text text-anchor="middle" x="335.5" y="-91" font-family="sans" font-size="10.00">annotationSUFFIX: varScan.indel.canonical_annotated_sorted.indel_annotated</text>
<text text-anchor="middle" x="335.5" y="-79" font-family="sans" font-size="10.00">tableMergeDIR: vcfGenUtil_varScan/tables</text>
</g>
<!-- 13&#45;&gt;22 -->
<g id="edge29" class="edge"><title>13&#45;&gt;22</title>
<path fill="none" stroke="grey" stroke-width="2" d="M335.5,-231.691C335.5,-204.641 335.5,-157.749 335.5,-126.547"/>
<polygon fill="grey" stroke="grey" stroke-width="2" points="339,-126.223 335.5,-116.223 332,-126.223 339,-126.223"/>
</g>
<!-- 24 -->
<g id="node25" class="node"><title>24</title>
<path fill="none" stroke="#afd856" stroke-width="2" d="M630,-712C630,-712 507,-712 507,-712 501,-712 495,-706 495,-700 495,-700 495,-668 495,-668 495,-662 501,-656 507,-656 507,-656 630,-656 630,-656 636,-656 642,-662 642,-668 642,-668 642,-700 642,-700 642,-706 636,-712 630,-712"/>
<text text-anchor="middle" x="568.5" y="-699" font-family="sans" font-size="10.00">mpileup2vcf_single</text>
<text text-anchor="middle" x="568.5" y="-687" font-family="sans" font-size="10.00">chrMPU2VCFS: _4</text>
<text text-anchor="middle" x="568.5" y="-675" font-family="sans" font-size="10.00">sampleMPU2VCFS: Pfeiffer</text>
<text text-anchor="middle" x="568.5" y="-663" font-family="sans" font-size="10.00">varTypeMPU2VCFS: snp</text>
</g>
<!-- 14&#45;&gt;24 -->
<g id="edge31" class="edge"><title>14&#45;&gt;24</title>
<path fill="none" stroke="grey" stroke-width="2" d="M568.5,-747.803C568.5,-740.048 568.5,-731.027 568.5,-722.282"/>
<polygon fill="grey" stroke="grey" stroke-width="2" points="572,-722.236 568.5,-712.236 565,-722.236 572,-722.236"/>
</g>
<!-- 27 -->
<g id="node28" class="node"><title>27</title>
<path fill="none" stroke="#afd856" stroke-width="2" d="M135,-712C135,-712 12,-712 12,-712 6,-712 0,-706 0,-700 0,-700 0,-668 0,-668 0,-662 6,-656 12,-656 12,-656 135,-656 135,-656 141,-656 147,-662 147,-668 147,-668 147,-700 147,-700 147,-706 141,-712 135,-712"/>
<text text-anchor="middle" x="73.5" y="-699" font-family="sans" font-size="10.00">mpileup2vcf_single</text>
<text text-anchor="middle" x="73.5" y="-687" font-family="sans" font-size="10.00">chrMPU2VCFS: _4</text>
<text text-anchor="middle" x="73.5" y="-675" font-family="sans" font-size="10.00">sampleMPU2VCFS: Pfeiffer</text>
<text text-anchor="middle" x="73.5" y="-663" font-family="sans" font-size="10.00">varTypeMPU2VCFS: indel</text>
</g>
<!-- 14&#45;&gt;27 -->
<g id="edge34" class="edge"><title>14&#45;&gt;27</title>
<path fill="none" stroke="grey" stroke-width="2" d="M510.782,-764.356C432.348,-757.313 287.764,-741.736 156.878,-712.17"/>
<polygon fill="grey" stroke="grey" stroke-width="2" points="157.608,-708.746 147.079,-709.924 156.044,-715.569 157.608,-708.746"/>
</g>
<!-- 15 -->
<g id="node16" class="node"><title>15</title>
<path fill="none" stroke="#d86e56" stroke-width="2" d="M873.5,-1024C873.5,-1024 693.5,-1024 693.5,-1024 687.5,-1024 681.5,-1018 681.5,-1012 681.5,-1012 681.5,-992 681.5,-992 681.5,-986 687.5,-980 693.5,-980 693.5,-980 873.5,-980 873.5,-980 879.5,-980 885.5,-986 885.5,-992 885.5,-992 885.5,-1012 885.5,-1012 885.5,-1018 879.5,-1024 873.5,-1024"/>
<text text-anchor="middle" x="783.5" y="-1011" font-family="sans" font-size="10.00">filteredBAM</text>
<text text-anchor="middle" x="783.5" y="-999" font-family="sans" font-size="10.00">pathFB: output/bam</text>
<text text-anchor="middle" x="783.5" y="-987" font-family="sans" font-size="10.00">sampleFB: Pfeiffer_Aligned.out_sorted</text>
</g>
<!-- 29 -->
<g id="node30" class="node"><title>29</title>
<path fill="none" stroke="#56a9d8" stroke-width="2" d="M898.5,-944C898.5,-944 668.5,-944 668.5,-944 662.5,-944 656.5,-938 656.5,-932 656.5,-932 656.5,-912 656.5,-912 656.5,-906 662.5,-900 668.5,-900 668.5,-900 898.5,-900 898.5,-900 904.5,-900 910.5,-906 910.5,-912 910.5,-912 910.5,-932 910.5,-932 910.5,-938 904.5,-944 898.5,-944"/>
<text text-anchor="middle" x="783.5" y="-931" font-family="sans" font-size="10.00">markdupBAM</text>
<text text-anchor="middle" x="783.5" y="-919" font-family="sans" font-size="10.00">outputDIR: output</text>
<text text-anchor="middle" x="783.5" y="-907" font-family="sans" font-size="10.00">sampleMDB: Pfeiffer_Aligned.out_sorted_filtered</text>
</g>
<!-- 15&#45;&gt;29 -->
<g id="edge36" class="edge"><title>15&#45;&gt;29</title>
<path fill="none" stroke="grey" stroke-width="2" d="M783.5,-979.686C783.5,-971.798 783.5,-962.684 783.5,-954.103"/>
<polygon fill="grey" stroke="grey" stroke-width="2" points="787,-954.018 783.5,-944.018 780,-954.018 787,-954.018"/>
</g>
<!-- 16&#45;&gt;1 -->
<g id="edge2" class="edge"><title>16&#45;&gt;1</title>
<path fill="none" stroke="grey" stroke-width="2" d="M335.5,-551.998C335.5,-543.603 335.5,-534.607 335.5,-526.299"/>
<polygon fill="grey" stroke="grey" stroke-width="2" points="339,-526.241 335.5,-516.241 332,-526.242 339,-526.241"/>
</g>
<!-- 17 -->
<g id="node18" class="node"><title>17</title>
<path fill="none" stroke="#567bd8" stroke-width="2" d="M1046,-196C1046,-196 559,-196 559,-196 553,-196 547,-190 547,-184 547,-184 547,-164 547,-164 547,-158 553,-152 559,-152 559,-152 1046,-152 1046,-152 1052,-152 1058,-158 1058,-164 1058,-164 1058,-184 1058,-184 1058,-190 1052,-196 1046,-196"/>
<text text-anchor="middle" x="802.5" y="-183" font-family="sans" font-size="10.00">getVcfTable</text>
<text text-anchor="middle" x="802.5" y="-171" font-family="sans" font-size="10.00">pathGVCFT: output/vcfGenUtil_varScan</text>
<text text-anchor="middle" x="802.5" y="-159" font-family="sans" font-size="10.00">sampleGVCFT: Pfeiffer.varScan.snp.canonical_annotated_sorted.dbsnp_annotated.cosmic_annotated</text>
</g>
<!-- 23 -->
<g id="node24" class="node"><title>23</title>
<path fill="none" stroke="#88d856" stroke-width="2" d="M1038,-116C1038,-116 567,-116 567,-116 561,-116 555,-110 555,-104 555,-104 555,-84 555,-84 555,-78 561,-72 567,-72 567,-72 1038,-72 1038,-72 1044,-72 1050,-78 1050,-84 1050,-84 1050,-104 1050,-104 1050,-110 1044,-116 1038,-116"/>
<text text-anchor="middle" x="802.5" y="-103" font-family="sans" font-size="10.00">tableMERGE</text>
<text text-anchor="middle" x="802.5" y="-91" font-family="sans" font-size="10.00">annotationSUFFIX: varScan.snp.canonical_annotated_sorted.dbsnp_annotated.cosmic_annotated</text>
<text text-anchor="middle" x="802.5" y="-79" font-family="sans" font-size="10.00">tableMergeDIR: vcfGenUtil_varScan/tables</text>
</g>
<!-- 17&#45;&gt;23 -->
<g id="edge30" class="edge"><title>17&#45;&gt;23</title>
<path fill="none" stroke="grey" stroke-width="2" d="M802.5,-151.686C802.5,-143.798 802.5,-134.684 802.5,-126.103"/>
<polygon fill="grey" stroke="grey" stroke-width="2" points="806,-126.018 802.5,-116.018 799,-126.018 806,-126.018"/>
</g>
<!-- 18 -->
<g id="node19" class="node"><title>18</title>
<path fill="none" stroke="#5663d8" stroke-width="2" d="M859,-1104C859,-1104 708,-1104 708,-1104 702,-1104 696,-1098 696,-1092 696,-1092 696,-1072 696,-1072 696,-1066 702,-1060 708,-1060 708,-1060 859,-1060 859,-1060 865,-1060 871,-1066 871,-1072 871,-1072 871,-1092 871,-1092 871,-1098 865,-1104 859,-1104"/>
<text text-anchor="middle" x="783.5" y="-1091" font-family="sans" font-size="10.00">sortBAM_biobambam</text>
<text text-anchor="middle" x="783.5" y="-1079" font-family="sans" font-size="10.00">pathSBB: output/bam</text>
<text text-anchor="middle" x="783.5" y="-1067" font-family="sans" font-size="10.00">sampleSBB: Pfeiffer_Aligned.out</text>
</g>
<!-- 18&#45;&gt;15 -->
<g id="edge15" class="edge"><title>18&#45;&gt;15</title>
<path fill="none" stroke="grey" stroke-width="2" d="M783.5,-1059.69C783.5,-1051.8 783.5,-1042.68 783.5,-1034.1"/>
<polygon fill="grey" stroke="grey" stroke-width="2" points="787,-1034.02 783.5,-1024.02 780,-1034.02 787,-1034.02"/>
</g>
<!-- 19&#45;&gt;6 -->
<g id="edge6" class="edge"><title>19&#45;&gt;6</title>
<path fill="none" stroke="grey" stroke-width="2" d="M802.5,-551.998C802.5,-543.603 802.5,-534.607 802.5,-526.299"/>
<polygon fill="grey" stroke="grey" stroke-width="2" points="806,-526.241 802.5,-516.241 799,-526.242 806,-526.241"/>
</g>
<!-- 20 -->
<g id="node21" class="node"><title>20</title>
<path fill="none" stroke="#d6d856" stroke-width="2" d="M583.5,-36C583.5,-36 553.5,-36 553.5,-36 547.5,-36 541.5,-30 541.5,-24 541.5,-24 541.5,-12 541.5,-12 541.5,-6 547.5,-0 553.5,-0 553.5,-0 583.5,-0 583.5,-0 589.5,-0 595.5,-6 595.5,-12 595.5,-12 595.5,-24 595.5,-24 595.5,-30 589.5,-36 583.5,-36"/>
<text text-anchor="middle" x="568.5" y="-15" font-family="sans" font-size="10.00">all</text>
</g>
<!-- 30 -->
<g id="node31" class="node"><title>30</title>
<path fill="none" stroke="#56d8b9" stroke-width="2" d="M828.5,-1176C828.5,-1176 738.5,-1176 738.5,-1176 732.5,-1176 726.5,-1170 726.5,-1164 726.5,-1164 726.5,-1152 726.5,-1152 726.5,-1146 732.5,-1140 738.5,-1140 738.5,-1140 828.5,-1140 828.5,-1140 834.5,-1140 840.5,-1146 840.5,-1152 840.5,-1152 840.5,-1164 840.5,-1164 840.5,-1170 834.5,-1176 828.5,-1176"/>
<text text-anchor="middle" x="783.5" y="-1161" font-family="sans" font-size="10.00">bamALIGN_bwa</text>
<text text-anchor="middle" x="783.5" y="-1149" font-family="sans" font-size="10.00">sampleBAB: Pfeiffer</text>
</g>
<!-- 21&#45;&gt;30 -->
<g id="edge37" class="edge"><title>21&#45;&gt;30</title>
<path fill="none" stroke="grey" stroke-width="2" d="M731.94,-1211.99C740.515,-1203.18 750.548,-1192.87 759.473,-1183.69"/>
<polygon fill="grey" stroke="grey" stroke-width="2" points="762.188,-1185.92 766.653,-1176.31 757.171,-1181.04 762.188,-1185.92"/>
</g>
<!-- 22&#45;&gt;20 -->
<g id="edge26" class="edge"><title>22&#45;&gt;20</title>
<path fill="none" stroke="grey" stroke-width="2" d="M401.645,-71.9925C443.769,-58.6141 496.769,-41.7814 531.592,-30.722"/>
<polygon fill="grey" stroke="grey" stroke-width="2" points="532.873,-33.9873 541.345,-27.6245 530.754,-27.3157 532.873,-33.9873"/>
</g>
<!-- 23&#45;&gt;20 -->
<g id="edge27" class="edge"><title>23&#45;&gt;20</title>
<path fill="none" stroke="grey" stroke-width="2" d="M736.071,-71.9925C693.766,-58.6141 640.539,-41.7814 605.567,-30.722"/>
<polygon fill="grey" stroke="grey" stroke-width="2" points="606.362,-27.3027 595.772,-27.6245 604.251,-33.9769 606.362,-27.3027"/>
</g>
<!-- 24&#45;&gt;19 -->
<g id="edge24" class="edge"><title>24&#45;&gt;19</title>
<path fill="none" stroke="grey" stroke-width="2" d="M634.617,-655.875C658.811,-645.95 686.61,-634.545 712.535,-623.909"/>
<polygon fill="grey" stroke="grey" stroke-width="2" points="714.068,-627.063 721.992,-620.029 711.411,-620.587 714.068,-627.063"/>
</g>
<!-- 25&#45;&gt;30 -->
<g id="edge38" class="edge"><title>25&#45;&gt;30</title>
<path fill="none" stroke="grey" stroke-width="2" d="M835.06,-1211.99C826.485,-1203.18 816.452,-1192.87 807.527,-1183.69"/>
<polygon fill="grey" stroke="grey" stroke-width="2" points="809.829,-1181.04 800.347,-1176.31 804.812,-1185.92 809.829,-1181.04"/>
</g>
<!-- 26&#45;&gt;19 -->
<g id="edge23" class="edge"><title>26&#45;&gt;19</title>
<path fill="none" stroke="grey" stroke-width="2" d="M1154.87,-658.556C1151.71,-657.664 1148.58,-656.807 1145.5,-656 1066.82,-635.363 976.598,-617.436 908.439,-605.03"/>
<polygon fill="grey" stroke="grey" stroke-width="2" points="909.011,-601.577 898.547,-603.24 907.764,-608.465 909.011,-601.577"/>
</g>
<!-- 27&#45;&gt;16 -->
<g id="edge17" class="edge"><title>27&#45;&gt;16</title>
<path fill="none" stroke="grey" stroke-width="2" d="M147.179,-656.003C174.63,-645.945 206.264,-634.354 235.673,-623.578"/>
<polygon fill="grey" stroke="grey" stroke-width="2" points="236.95,-626.838 245.135,-620.111 234.542,-620.265 236.95,-626.838"/>
</g>
<!-- 28 -->
<g id="node29" class="node"><title>28</title>
<path fill="none" stroke="#56d8a9" stroke-width="2" d="M994,-276C994,-276 611,-276 611,-276 605,-276 599,-270 599,-264 599,-264 599,-244 599,-244 599,-238 605,-232 611,-232 611,-232 994,-232 994,-232 1000,-232 1006,-238 1006,-244 1006,-244 1006,-264 1006,-264 1006,-270 1000,-276 994,-276"/>
<text text-anchor="middle" x="802.5" y="-263" font-family="sans" font-size="10.00">cosmic</text>
<text text-anchor="middle" x="802.5" y="-251" font-family="sans" font-size="10.00">pathCOS: output/vcfGenUtil_varScan</text>
<text text-anchor="middle" x="802.5" y="-239" font-family="sans" font-size="10.00">sampleCOS: Pfeiffer.varScan.snp.canonical_annotated_sorted.dbsnp_annotated</text>
</g>
<!-- 28&#45;&gt;17 -->
<g id="edge20" class="edge"><title>28&#45;&gt;17</title>
<path fill="none" stroke="grey" stroke-width="2" d="M802.5,-231.686C802.5,-223.798 802.5,-214.684 802.5,-206.103"/>
<polygon fill="grey" stroke="grey" stroke-width="2" points="806,-206.018 802.5,-196.018 799,-206.018 806,-206.018"/>
</g>
<!-- 29&#45;&gt;8 -->
<g id="edge8" class="edge"><title>29&#45;&gt;8</title>
<path fill="none" stroke="grey" stroke-width="2" d="M783.5,-899.993C783.5,-892.061 783.5,-882.915 783.5,-874.478"/>
<polygon fill="grey" stroke="grey" stroke-width="2" points="787,-874.315 783.5,-864.315 780,-874.315 787,-874.315"/>
</g>
<!-- 30&#45;&gt;18 -->
<g id="edge21" class="edge"><title>30&#45;&gt;18</title>
<path fill="none" stroke="grey" stroke-width="2" d="M783.5,-1139.84C783.5,-1132.16 783.5,-1122.88 783.5,-1114.05"/>
<polygon fill="grey" stroke="grey" stroke-width="2" points="787,-1114.03 783.5,-1104.03 780,-1114.03 787,-1114.03"/>
</g>
<!-- 31&#45;&gt;19 -->
<g id="edge25" class="edge"><title>31&#45;&gt;19</title>
<path fill="none" stroke="grey" stroke-width="2" d="M871.247,-655.747C862.412,-646.912 852.417,-636.917 842.839,-627.339"/>
<polygon fill="grey" stroke="grey" stroke-width="2" points="845.168,-624.718 835.622,-620.122 840.218,-629.668 845.168,-624.718"/>
</g>
<!-- 32&#45;&gt;28 -->
<g id="edge35" class="edge"><title>32&#45;&gt;28</title>
<path fill="none" stroke="grey" stroke-width="2" d="M802.5,-311.686C802.5,-303.798 802.5,-294.684 802.5,-286.103"/>
<polygon fill="grey" stroke="grey" stroke-width="2" points="806,-286.018 802.5,-276.018 799,-286.018 806,-286.018"/>
</g>
<!-- 33&#45;&gt;16 -->
<g id="edge19" class="edge"><title>33&#45;&gt;16</title>
<path fill="none" stroke="grey" stroke-width="2" d="M989.951,-658.196C986.772,-657.403 983.612,-656.665 980.5,-656 929.235,-645.044 611.333,-613.524 441.779,-597.149"/>
<polygon fill="grey" stroke="grey" stroke-width="2" points="441.867,-593.641 431.577,-596.165 441.195,-600.609 441.867,-593.641"/>
</g>
</g>
</svg>
