<?xml version="1.0" encoding="UTF-8" standalone="no"?>
<!DOCTYPE svg PUBLIC "-//W3C//DTD SVG 1.1//EN"
 "http://www.w3.org/Graphics/SVG/1.1/DTD/svg11.dtd">
<!-- Generated by graphviz version 2.38.0 (20140413.2041)
 -->
<!-- Title: snakemake_dag Pages: 1 -->
<svg width="957pt" height="724pt"
 viewBox="0.00 0.00 957.38 724.00" xmlns="http://www.w3.org/2000/svg" xmlns:xlink="http://www.w3.org/1999/xlink">
<g id="graph0" class="graph" transform="scale(1 1) rotate(0) translate(4 720)">
<title>snakemake_dag</title>
<polygon fill="white" stroke="none" points="-4,4 -4,-720 953.379,-720 953.379,4 -4,4"/>
<!-- 0 -->
<g id="node1" class="node"><title>0</title>
<path fill="none" stroke="#56d8d8" stroke-width="2" stroke-dasharray="5,2" d="M531.13,-340C531.13,-340 351.669,-340 351.669,-340 345.669,-340 339.669,-334 339.669,-328 339.669,-328 339.669,-308 339.669,-308 339.669,-302 345.669,-296 351.669,-296 351.669,-296 531.13,-296 531.13,-296 537.13,-296 543.13,-302 543.13,-308 543.13,-308 543.13,-328 543.13,-328 543.13,-334 537.13,-340 531.13,-340"/>
<text text-anchor="middle" x="441.399" y="-327" font-family="sans" font-size="10.00">filteredBAM</text>
<text text-anchor="middle" x="441.399" y="-315" font-family="sans" font-size="10.00">pathFB: output/bam</text>
<text text-anchor="middle" x="441.399" y="-303" font-family="sans" font-size="10.00">sampleFB: Part2&#45;Pfeiffer2_Aligned.out_sorted</text>
</g>
<!-- 5 -->
<g id="node6" class="node"><title>5</title>
<path fill="none" stroke="#d85656" stroke-width="2" stroke-dasharray="5,2" d="M373.594,-260C373.594,-260 297.205,-260 297.205,-260 291.205,-260 285.205,-254 285.205,-248 285.205,-248 285.205,-236 285.205,-236 285.205,-230 291.205,-224 297.205,-224 297.205,-224 373.594,-224 373.594,-224 379.594,-224 385.594,-230 385.594,-236 385.594,-236 385.594,-248 385.594,-248 385.594,-254 379.594,-260 373.594,-260"/>
<text text-anchor="middle" x="335.399" y="-245" font-family="sans" font-size="10.00">mergeBAM</text>
<text text-anchor="middle" x="335.399" y="-233" font-family="sans" font-size="10.00">sampleMB: Pfeiffer2</text>
</g>
<!-- 0&#45;&gt;5 -->
<g id="edge7" class="edge"><title>0&#45;&gt;5</title>
<path fill="none" stroke="grey" stroke-width="2" d="M411.308,-295.993C397.825,-286.58 381.893,-275.458 368.115,-265.839"/>
<polygon fill="grey" stroke="grey" stroke-width="2" points="370.058,-262.927 359.855,-260.073 366.051,-268.667 370.058,-262.927"/>
</g>
<!-- 1 -->
<g id="node2" class="node"><title>1</title>
<path fill="none" stroke="#569ad8" stroke-width="2" stroke-dasharray="5,2" d="M114.699,-716C114.699,-716 12.1003,-716 12.1003,-716 6.10034,-716 0.100341,-710 0.100341,-704 0.100341,-704 0.100341,-692 0.100341,-692 0.100341,-686 6.10034,-680 12.1003,-680 12.1003,-680 114.699,-680 114.699,-680 120.699,-680 126.699,-686 126.699,-692 126.699,-692 126.699,-704 126.699,-704 126.699,-710 120.699,-716 114.699,-716"/>
<text text-anchor="middle" x="63.3995" y="-701" font-family="sans" font-size="10.00">sam2BAM</text>
<text text-anchor="middle" x="63.3995" y="-689" font-family="sans" font-size="10.00">sampleS2B: Part1&#45;Pfeiffer2</text>
</g>
<!-- 10 -->
<g id="node11" class="node"><title>10</title>
<path fill="none" stroke="#56d8b9" stroke-width="2" stroke-dasharray="5,2" d="M165.758,-644C165.758,-644 57.041,-644 57.041,-644 51.041,-644 45.041,-638 45.041,-632 45.041,-632 45.041,-620 45.041,-620 45.041,-614 51.041,-608 57.041,-608 57.041,-608 165.758,-608 165.758,-608 171.758,-608 177.758,-614 177.758,-620 177.758,-620 177.758,-632 177.758,-632 177.758,-638 171.758,-644 165.758,-644"/>
<text text-anchor="middle" x="111.399" y="-629" font-family="sans" font-size="10.00">bam2fastq_picard</text>
<text text-anchor="middle" x="111.399" y="-617" font-family="sans" font-size="10.00">sampleB2FP: Part1&#45;Pfeiffer2</text>
</g>
<!-- 1&#45;&gt;10 -->
<g id="edge13" class="edge"><title>1&#45;&gt;10</title>
<path fill="none" stroke="grey" stroke-width="2" d="M75.2647,-679.697C80.903,-671.474 87.7538,-661.483 93.9682,-652.421"/>
<polygon fill="grey" stroke="grey" stroke-width="2" points="96.902,-654.331 99.6708,-644.104 91.1289,-650.372 96.902,-654.331"/>
</g>
<!-- 14 -->
<g id="node15" class="node"><title>14</title>
<path fill="none" stroke="#d87556" stroke-width="2" d="M129.399,-36C129.399,-36 99.3995,-36 99.3995,-36 93.3995,-36 87.3995,-30 87.3995,-24 87.3995,-24 87.3995,-12 87.3995,-12 87.3995,-6 93.3995,-0 99.3995,-0 99.3995,-0 129.399,-0 129.399,-0 135.399,-0 141.399,-6 141.399,-12 141.399,-12 141.399,-24 141.399,-24 141.399,-30 135.399,-36 129.399,-36"/>
<text text-anchor="middle" x="114.399" y="-15" font-family="sans" font-size="10.00">all</text>
</g>
<!-- 1&#45;&gt;14 -->
<g id="edge17" class="edge"><title>1&#45;&gt;14</title>
<path fill="none" stroke="grey" stroke-width="2" d="M53.2674,-679.824C47.64,-669.682 40.89,-656.432 36.3995,-644 22.004,-604.146 15.3995,-593.374 15.3995,-551 15.3995,-551 15.3995,-551 15.3995,-165 15.3995,-114.959 55.7316,-69.3183 84.9099,-42.847"/>
<polygon fill="grey" stroke="grey" stroke-width="2" points="87.2406,-45.4582 92.4282,-36.2202 82.612,-40.2069 87.2406,-45.4582"/>
</g>
<!-- 2 -->
<g id="node3" class="node"><title>2</title>
<path fill="none" stroke="#97d856" stroke-width="2" stroke-dasharray="5,2" d="M789.253,-420C789.253,-420 633.546,-420 633.546,-420 627.546,-420 621.546,-414 621.546,-408 621.546,-408 621.546,-388 621.546,-388 621.546,-382 627.546,-376 633.546,-376 633.546,-376 789.253,-376 789.253,-376 795.253,-376 801.253,-382 801.253,-388 801.253,-388 801.253,-408 801.253,-408 801.253,-414 795.253,-420 789.253,-420"/>
<text text-anchor="middle" x="711.399" y="-407" font-family="sans" font-size="10.00">sortBAM_samtools</text>
<text text-anchor="middle" x="711.399" y="-395" font-family="sans" font-size="10.00">pathSBS: output/bam</text>
<text text-anchor="middle" x="711.399" y="-383" font-family="sans" font-size="10.00">sampleSBS: Part3&#45;Pfeiffer2_Aligned.out</text>
</g>
<!-- 8 -->
<g id="node9" class="node"><title>8</title>
<path fill="none" stroke="#56d8d8" stroke-width="2" stroke-dasharray="5,2" d="M769.13,-340C769.13,-340 589.669,-340 589.669,-340 583.669,-340 577.669,-334 577.669,-328 577.669,-328 577.669,-308 577.669,-308 577.669,-302 583.669,-296 589.669,-296 589.669,-296 769.13,-296 769.13,-296 775.13,-296 781.13,-302 781.13,-308 781.13,-308 781.13,-328 781.13,-328 781.13,-334 775.13,-340 769.13,-340"/>
<text text-anchor="middle" x="679.399" y="-327" font-family="sans" font-size="10.00">filteredBAM</text>
<text text-anchor="middle" x="679.399" y="-315" font-family="sans" font-size="10.00">pathFB: output/bam</text>
<text text-anchor="middle" x="679.399" y="-303" font-family="sans" font-size="10.00">sampleFB: Part3&#45;Pfeiffer2_Aligned.out_sorted</text>
</g>
<!-- 2&#45;&gt;8 -->
<g id="edge12" class="edge"><title>2&#45;&gt;8</title>
<path fill="none" stroke="grey" stroke-width="2" d="M702.655,-375.686C699.348,-367.624 695.516,-358.283 691.928,-349.538"/>
<polygon fill="grey" stroke="grey" stroke-width="2" points="695.056,-347.941 688.022,-340.018 688.58,-350.598 695.056,-347.941"/>
</g>
<!-- 3 -->
<g id="node4" class="node"><title>3</title>
<path fill="none" stroke="#97d856" stroke-width="2" stroke-dasharray="5,2" d="M519.253,-420C519.253,-420 363.546,-420 363.546,-420 357.546,-420 351.546,-414 351.546,-408 351.546,-408 351.546,-388 351.546,-388 351.546,-382 357.546,-376 363.546,-376 363.546,-376 519.253,-376 519.253,-376 525.253,-376 531.253,-382 531.253,-388 531.253,-388 531.253,-408 531.253,-408 531.253,-414 525.253,-420 519.253,-420"/>
<text text-anchor="middle" x="441.399" y="-407" font-family="sans" font-size="10.00">sortBAM_samtools</text>
<text text-anchor="middle" x="441.399" y="-395" font-family="sans" font-size="10.00">pathSBS: output/bam</text>
<text text-anchor="middle" x="441.399" y="-383" font-family="sans" font-size="10.00">sampleSBS: Part2&#45;Pfeiffer2_Aligned.out</text>
</g>
<!-- 3&#45;&gt;0 -->
<g id="edge1" class="edge"><title>3&#45;&gt;0</title>
<path fill="none" stroke="grey" stroke-width="2" d="M441.399,-375.686C441.399,-367.798 441.399,-358.684 441.399,-350.103"/>
<polygon fill="grey" stroke="grey" stroke-width="2" points="444.9,-350.018 441.399,-340.018 437.9,-350.018 444.9,-350.018"/>
</g>
<!-- 4 -->
<g id="node5" class="node"><title>4</title>
<path fill="none" stroke="#567bd8" stroke-width="2" stroke-dasharray="5,2" d="M218.528,-492C218.528,-492 112.271,-492 112.271,-492 106.271,-492 100.271,-486 100.271,-480 100.271,-480 100.271,-468 100.271,-468 100.271,-462 106.271,-456 112.271,-456 112.271,-456 218.528,-456 218.528,-456 224.528,-456 230.528,-462 230.528,-468 230.528,-468 230.528,-480 230.528,-480 230.528,-486 224.528,-492 218.528,-492"/>
<text text-anchor="middle" x="165.399" y="-477" font-family="sans" font-size="10.00">bamALIGN_bwa</text>
<text text-anchor="middle" x="165.399" y="-465" font-family="sans" font-size="10.00">sampleBAB: Part1&#45;Pfeiffer2</text>
</g>
<!-- 4&#45;&gt;14 -->
<g id="edge16" class="edge"><title>4&#45;&gt;14</title>
<path fill="none" stroke="grey" stroke-width="2" d="M144.296,-455.849C133.864,-446.315 121.929,-433.639 114.399,-420 92.0504,-379.516 89.3995,-365.244 89.3995,-319 89.3995,-319 89.3995,-319 89.3995,-165 89.3995,-123.087 99.5328,-75.3636 106.897,-46.2173"/>
<polygon fill="grey" stroke="grey" stroke-width="2" points="110.329,-46.924 109.46,-36.3648 103.555,-45.1612 110.329,-46.924"/>
</g>
<!-- 19 -->
<g id="node20" class="node"><title>19</title>
<path fill="none" stroke="#97d856" stroke-width="2" stroke-dasharray="5,2" d="M291.253,-420C291.253,-420 135.546,-420 135.546,-420 129.546,-420 123.546,-414 123.546,-408 123.546,-408 123.546,-388 123.546,-388 123.546,-382 129.546,-376 135.546,-376 135.546,-376 291.253,-376 291.253,-376 297.253,-376 303.253,-382 303.253,-388 303.253,-388 303.253,-408 303.253,-408 303.253,-414 297.253,-420 291.253,-420"/>
<text text-anchor="middle" x="213.399" y="-407" font-family="sans" font-size="10.00">sortBAM_samtools</text>
<text text-anchor="middle" x="213.399" y="-395" font-family="sans" font-size="10.00">pathSBS: output/bam</text>
<text text-anchor="middle" x="213.399" y="-383" font-family="sans" font-size="10.00">sampleSBS: Part1&#45;Pfeiffer2_Aligned.out</text>
</g>
<!-- 4&#45;&gt;19 -->
<g id="edge24" class="edge"><title>4&#45;&gt;19</title>
<path fill="none" stroke="grey" stroke-width="2" d="M176.532,-455.837C181.779,-447.748 188.191,-437.863 194.187,-428.619"/>
<polygon fill="grey" stroke="grey" stroke-width="2" points="197.251,-430.327 199.757,-420.032 191.379,-426.517 197.251,-430.327"/>
</g>
<!-- 11 -->
<g id="node12" class="node"><title>11</title>
<path fill="none" stroke="#d8b456" stroke-width="2" stroke-dasharray="5,2" d="M329.117,-188C329.117,-188 129.682,-188 129.682,-188 123.682,-188 117.682,-182 117.682,-176 117.682,-176 117.682,-156 117.682,-156 117.682,-150 123.682,-144 129.682,-144 129.682,-144 329.117,-144 329.117,-144 335.117,-144 341.117,-150 341.117,-156 341.117,-156 341.117,-176 341.117,-176 341.117,-182 335.117,-188 329.117,-188"/>
<text text-anchor="middle" x="229.399" y="-175" font-family="sans" font-size="10.00">markdupBAM</text>
<text text-anchor="middle" x="229.399" y="-163" font-family="sans" font-size="10.00">outputDIR: output</text>
<text text-anchor="middle" x="229.399" y="-151" font-family="sans" font-size="10.00">sampleMDB: Pfeiffer2_Aligned.out_sorted_filtered</text>
</g>
<!-- 5&#45;&gt;11 -->
<g id="edge14" class="edge"><title>5&#45;&gt;11</title>
<path fill="none" stroke="grey" stroke-width="2" d="M310.815,-223.837C298.033,-214.914 282.122,-203.806 267.765,-193.783"/>
<polygon fill="grey" stroke="grey" stroke-width="2" points="269.73,-190.887 259.527,-188.032 265.723,-196.626 269.73,-190.887"/>
</g>
<!-- 6 -->
<g id="node7" class="node"><title>6</title>
<path fill="none" stroke="#d6d856" stroke-width="2" stroke-dasharray="5,2" d="M167.358,-572C167.358,-572 55.4415,-572 55.4415,-572 49.4415,-572 43.4415,-566 43.4415,-560 43.4415,-560 43.4415,-540 43.4415,-540 43.4415,-534 49.4415,-528 55.4415,-528 55.4415,-528 167.358,-528 167.358,-528 173.358,-528 179.358,-534 179.358,-540 179.358,-540 179.358,-560 179.358,-560 179.358,-566 173.358,-572 167.358,-572"/>
<text text-anchor="middle" x="111.399" y="-559" font-family="sans" font-size="10.00">fastq2GZ</text>
<text text-anchor="middle" x="111.399" y="-547" font-family="sans" font-size="10.00">pathFGZ: output/fastq</text>
<text text-anchor="middle" x="111.399" y="-535" font-family="sans" font-size="10.00">sampleFGZ: Part1&#45;Pfeiffer2.2</text>
</g>
<!-- 6&#45;&gt;4 -->
<g id="edge4" class="edge"><title>6&#45;&gt;4</title>
<path fill="none" stroke="grey" stroke-width="2" d="M126.729,-527.993C132.967,-519.444 140.235,-509.485 146.775,-500.523"/>
<polygon fill="grey" stroke="grey" stroke-width="2" points="149.697,-502.456 152.764,-492.315 144.042,-498.329 149.697,-502.456"/>
</g>
<!-- 7 -->
<g id="node8" class="node"><title>7</title>
<path fill="none" stroke="#567bd8" stroke-width="2" stroke-dasharray="5,2" d="M780.528,-492C780.528,-492 674.271,-492 674.271,-492 668.271,-492 662.271,-486 662.271,-480 662.271,-480 662.271,-468 662.271,-468 662.271,-462 668.271,-456 674.271,-456 674.271,-456 780.528,-456 780.528,-456 786.528,-456 792.528,-462 792.528,-468 792.528,-468 792.528,-480 792.528,-480 792.528,-486 786.528,-492 780.528,-492"/>
<text text-anchor="middle" x="727.399" y="-477" font-family="sans" font-size="10.00">bamALIGN_bwa</text>
<text text-anchor="middle" x="727.399" y="-465" font-family="sans" font-size="10.00">sampleBAB: Part3&#45;Pfeiffer2</text>
</g>
<!-- 7&#45;&gt;2 -->
<g id="edge2" class="edge"><title>7&#45;&gt;2</title>
<path fill="none" stroke="grey" stroke-width="2" d="M723.689,-455.837C722.03,-448.165 720.022,-438.878 718.114,-430.053"/>
<polygon fill="grey" stroke="grey" stroke-width="2" points="721.481,-429.067 715.947,-420.032 714.639,-430.546 721.481,-429.067"/>
</g>
<!-- 8&#45;&gt;5 -->
<g id="edge6" class="edge"><title>8&#45;&gt;5</title>
<path fill="none" stroke="grey" stroke-width="2" d="M581.743,-295.993C521.966,-283.134 447.354,-267.083 395.998,-256.036"/>
<polygon fill="grey" stroke="grey" stroke-width="2" points="396.561,-252.577 386.048,-253.895 395.088,-259.42 396.561,-252.577"/>
</g>
<!-- 9 -->
<g id="node10" class="node"><title>9</title>
<path fill="none" stroke="#569ad8" stroke-width="2" stroke-dasharray="5,2" d="M547.699,-716C547.699,-716 445.1,-716 445.1,-716 439.1,-716 433.1,-710 433.1,-704 433.1,-704 433.1,-692 433.1,-692 433.1,-686 439.1,-680 445.1,-680 445.1,-680 547.699,-680 547.699,-680 553.699,-680 559.699,-686 559.699,-692 559.699,-692 559.699,-704 559.699,-704 559.699,-710 553.699,-716 547.699,-716"/>
<text text-anchor="middle" x="496.399" y="-701" font-family="sans" font-size="10.00">sam2BAM</text>
<text text-anchor="middle" x="496.399" y="-689" font-family="sans" font-size="10.00">sampleS2B: Part2&#45;Pfeiffer2</text>
</g>
<!-- 18 -->
<g id="node19" class="node"><title>18</title>
<path fill="none" stroke="#56d8b9" stroke-width="2" stroke-dasharray="5,2" d="M550.758,-644C550.758,-644 442.041,-644 442.041,-644 436.041,-644 430.041,-638 430.041,-632 430.041,-632 430.041,-620 430.041,-620 430.041,-614 436.041,-608 442.041,-608 442.041,-608 550.758,-608 550.758,-608 556.758,-608 562.758,-614 562.758,-620 562.758,-620 562.758,-632 562.758,-632 562.758,-638 556.758,-644 550.758,-644"/>
<text text-anchor="middle" x="496.399" y="-629" font-family="sans" font-size="10.00">bam2fastq_picard</text>
<text text-anchor="middle" x="496.399" y="-617" font-family="sans" font-size="10.00">sampleB2FP: Part2&#45;Pfeiffer2</text>
</g>
<!-- 9&#45;&gt;18 -->
<g id="edge23" class="edge"><title>9&#45;&gt;18</title>
<path fill="none" stroke="grey" stroke-width="2" d="M496.399,-679.697C496.399,-671.983 496.399,-662.712 496.399,-654.112"/>
<polygon fill="grey" stroke="grey" stroke-width="2" points="499.9,-654.104 496.399,-644.104 492.9,-654.104 499.9,-654.104"/>
</g>
<!-- 10&#45;&gt;6 -->
<g id="edge9" class="edge"><title>10&#45;&gt;6</title>
<path fill="none" stroke="grey" stroke-width="2" d="M111.399,-607.837C111.399,-600.165 111.399,-590.878 111.399,-582.053"/>
<polygon fill="grey" stroke="grey" stroke-width="2" points="114.9,-582.032 111.399,-572.032 107.9,-582.032 114.9,-582.032"/>
</g>
<!-- 17 -->
<g id="node18" class="node"><title>17</title>
<path fill="none" stroke="#d6d856" stroke-width="2" stroke-dasharray="5,2" d="M321.358,-572C321.358,-572 209.441,-572 209.441,-572 203.441,-572 197.441,-566 197.441,-560 197.441,-560 197.441,-540 197.441,-540 197.441,-534 203.441,-528 209.441,-528 209.441,-528 321.358,-528 321.358,-528 327.358,-528 333.358,-534 333.358,-540 333.358,-540 333.358,-560 333.358,-560 333.358,-566 327.358,-572 321.358,-572"/>
<text text-anchor="middle" x="265.399" y="-559" font-family="sans" font-size="10.00">fastq2GZ</text>
<text text-anchor="middle" x="265.399" y="-547" font-family="sans" font-size="10.00">pathFGZ: output/fastq</text>
<text text-anchor="middle" x="265.399" y="-535" font-family="sans" font-size="10.00">sampleFGZ: Part1&#45;Pfeiffer2.1</text>
</g>
<!-- 10&#45;&gt;17 -->
<g id="edge22" class="edge"><title>10&#45;&gt;17</title>
<path fill="none" stroke="grey" stroke-width="2" d="M147.117,-607.837C166.554,-598.497 190.973,-586.763 212.57,-576.386"/>
<polygon fill="grey" stroke="grey" stroke-width="2" points="214.132,-579.518 221.63,-572.032 211.1,-573.209 214.132,-579.518"/>
</g>
<!-- 11&#45;&gt;14 -->
<g id="edge19" class="edge"><title>11&#45;&gt;14</title>
<path fill="none" stroke="grey" stroke-width="2" d="M202.037,-144C189.949,-133.914 176.088,-121.17 165.399,-108 149.631,-88.5712 135.809,-63.6589 126.546,-45.1352"/>
<polygon fill="grey" stroke="grey" stroke-width="2" points="129.664,-43.5444 122.132,-36.0937 123.374,-46.6155 129.664,-43.5444"/>
</g>
<!-- 20 -->
<g id="node21" class="node"><title>20</title>
<path fill="none" stroke="#56b9d8" stroke-width="2" d="M258.034,-108C258.034,-108 186.765,-108 186.765,-108 180.765,-108 174.765,-102 174.765,-96 174.765,-96 174.765,-84 174.765,-84 174.765,-78 180.765,-72 186.765,-72 186.765,-72 258.034,-72 258.034,-72 264.034,-72 270.034,-78 270.034,-84 270.034,-84 270.034,-96 270.034,-96 270.034,-102 264.034,-108 258.034,-108"/>
<text text-anchor="middle" x="222.399" y="-93" font-family="sans" font-size="10.00">indexBAM</text>
<text text-anchor="middle" x="222.399" y="-81" font-family="sans" font-size="10.00">sampleIB: Pfeiffer2</text>
</g>
<!-- 11&#45;&gt;20 -->
<g id="edge25" class="edge"><title>11&#45;&gt;20</title>
<path fill="none" stroke="grey" stroke-width="2" d="M227.412,-143.993C226.662,-136.061 225.797,-126.915 224.999,-118.478"/>
<polygon fill="grey" stroke="grey" stroke-width="2" points="228.464,-117.941 224.037,-108.315 221.495,-118.6 228.464,-117.941"/>
</g>
<!-- 12 -->
<g id="node13" class="node"><title>12</title>
<path fill="none" stroke="#569ad8" stroke-width="2" stroke-dasharray="5,2" d="M855.699,-716C855.699,-716 753.1,-716 753.1,-716 747.1,-716 741.1,-710 741.1,-704 741.1,-704 741.1,-692 741.1,-692 741.1,-686 747.1,-680 753.1,-680 753.1,-680 855.699,-680 855.699,-680 861.699,-680 867.699,-686 867.699,-692 867.699,-692 867.699,-704 867.699,-704 867.699,-710 861.699,-716 855.699,-716"/>
<text text-anchor="middle" x="804.399" y="-701" font-family="sans" font-size="10.00">sam2BAM</text>
<text text-anchor="middle" x="804.399" y="-689" font-family="sans" font-size="10.00">sampleS2B: Part3&#45;Pfeiffer2</text>
</g>
<!-- 23 -->
<g id="node24" class="node"><title>23</title>
<path fill="none" stroke="#56d8b9" stroke-width="2" stroke-dasharray="5,2" d="M858.758,-644C858.758,-644 750.041,-644 750.041,-644 744.041,-644 738.041,-638 738.041,-632 738.041,-632 738.041,-620 738.041,-620 738.041,-614 744.041,-608 750.041,-608 750.041,-608 858.758,-608 858.758,-608 864.758,-608 870.758,-614 870.758,-620 870.758,-620 870.758,-632 870.758,-632 870.758,-638 864.758,-644 858.758,-644"/>
<text text-anchor="middle" x="804.399" y="-629" font-family="sans" font-size="10.00">bam2fastq_picard</text>
<text text-anchor="middle" x="804.399" y="-617" font-family="sans" font-size="10.00">sampleB2FP: Part3&#45;Pfeiffer2</text>
</g>
<!-- 12&#45;&gt;23 -->
<g id="edge28" class="edge"><title>12&#45;&gt;23</title>
<path fill="none" stroke="grey" stroke-width="2" d="M804.399,-679.697C804.399,-671.983 804.399,-662.712 804.399,-654.112"/>
<polygon fill="grey" stroke="grey" stroke-width="2" points="807.9,-654.104 804.399,-644.104 800.9,-654.104 807.9,-654.104"/>
</g>
<!-- 13 -->
<g id="node14" class="node"><title>13</title>
<path fill="none" stroke="#d6d856" stroke-width="2" stroke-dasharray="5,2" d="M783.358,-572C783.358,-572 671.441,-572 671.441,-572 665.441,-572 659.441,-566 659.441,-560 659.441,-560 659.441,-540 659.441,-540 659.441,-534 665.441,-528 671.441,-528 671.441,-528 783.358,-528 783.358,-528 789.358,-528 795.358,-534 795.358,-540 795.358,-540 795.358,-560 795.358,-560 795.358,-566 789.358,-572 783.358,-572"/>
<text text-anchor="middle" x="727.399" y="-559" font-family="sans" font-size="10.00">fastq2GZ</text>
<text text-anchor="middle" x="727.399" y="-547" font-family="sans" font-size="10.00">pathFGZ: output/fastq</text>
<text text-anchor="middle" x="727.399" y="-535" font-family="sans" font-size="10.00">sampleFGZ: Part3&#45;Pfeiffer2.1</text>
</g>
<!-- 13&#45;&gt;7 -->
<g id="edge11" class="edge"><title>13&#45;&gt;7</title>
<path fill="none" stroke="grey" stroke-width="2" d="M727.399,-527.993C727.399,-520.061 727.399,-510.915 727.399,-502.478"/>
<polygon fill="grey" stroke="grey" stroke-width="2" points="730.9,-502.315 727.399,-492.315 723.9,-502.315 730.9,-502.315"/>
</g>
<!-- 15 -->
<g id="node16" class="node"><title>15</title>
<path fill="none" stroke="#d6d856" stroke-width="2" stroke-dasharray="5,2" d="M937.358,-572C937.358,-572 825.441,-572 825.441,-572 819.441,-572 813.441,-566 813.441,-560 813.441,-560 813.441,-540 813.441,-540 813.441,-534 819.441,-528 825.441,-528 825.441,-528 937.358,-528 937.358,-528 943.358,-528 949.358,-534 949.358,-540 949.358,-540 949.358,-560 949.358,-560 949.358,-566 943.358,-572 937.358,-572"/>
<text text-anchor="middle" x="881.399" y="-559" font-family="sans" font-size="10.00">fastq2GZ</text>
<text text-anchor="middle" x="881.399" y="-547" font-family="sans" font-size="10.00">pathFGZ: output/fastq</text>
<text text-anchor="middle" x="881.399" y="-535" font-family="sans" font-size="10.00">sampleFGZ: Part3&#45;Pfeiffer2.2</text>
</g>
<!-- 15&#45;&gt;7 -->
<g id="edge10" class="edge"><title>15&#45;&gt;7</title>
<path fill="none" stroke="grey" stroke-width="2" d="M837.681,-527.993C817.169,-518.136 792.755,-506.404 772.118,-496.488"/>
<polygon fill="grey" stroke="grey" stroke-width="2" points="773.459,-493.249 762.93,-492.073 770.427,-499.559 773.459,-493.249"/>
</g>
<!-- 16 -->
<g id="node17" class="node"><title>16</title>
<path fill="none" stroke="#d6d856" stroke-width="2" stroke-dasharray="5,2" d="M475.358,-572C475.358,-572 363.441,-572 363.441,-572 357.441,-572 351.441,-566 351.441,-560 351.441,-560 351.441,-540 351.441,-540 351.441,-534 357.441,-528 363.441,-528 363.441,-528 475.358,-528 475.358,-528 481.358,-528 487.358,-534 487.358,-540 487.358,-540 487.358,-560 487.358,-560 487.358,-566 481.358,-572 475.358,-572"/>
<text text-anchor="middle" x="419.399" y="-559" font-family="sans" font-size="10.00">fastq2GZ</text>
<text text-anchor="middle" x="419.399" y="-547" font-family="sans" font-size="10.00">pathFGZ: output/fastq</text>
<text text-anchor="middle" x="419.399" y="-535" font-family="sans" font-size="10.00">sampleFGZ: Part2&#45;Pfeiffer2.1</text>
</g>
<!-- 24 -->
<g id="node25" class="node"><title>24</title>
<path fill="none" stroke="#567bd8" stroke-width="2" stroke-dasharray="5,2" d="M494.528,-492C494.528,-492 388.271,-492 388.271,-492 382.271,-492 376.271,-486 376.271,-480 376.271,-480 376.271,-468 376.271,-468 376.271,-462 382.271,-456 388.271,-456 388.271,-456 494.528,-456 494.528,-456 500.528,-456 506.528,-462 506.528,-468 506.528,-468 506.528,-480 506.528,-480 506.528,-486 500.528,-492 494.528,-492"/>
<text text-anchor="middle" x="441.399" y="-477" font-family="sans" font-size="10.00">bamALIGN_bwa</text>
<text text-anchor="middle" x="441.399" y="-465" font-family="sans" font-size="10.00">sampleBAB: Part2&#45;Pfeiffer2</text>
</g>
<!-- 16&#45;&gt;24 -->
<g id="edge29" class="edge"><title>16&#45;&gt;24</title>
<path fill="none" stroke="grey" stroke-width="2" d="M425.645,-527.993C428.055,-519.885 430.843,-510.508 433.397,-501.916"/>
<polygon fill="grey" stroke="grey" stroke-width="2" points="436.757,-502.897 436.252,-492.315 430.047,-500.903 436.757,-502.897"/>
</g>
<!-- 17&#45;&gt;4 -->
<g id="edge5" class="edge"><title>17&#45;&gt;4</title>
<path fill="none" stroke="grey" stroke-width="2" d="M237.011,-527.993C224.411,-518.669 209.544,-507.667 196.631,-498.111"/>
<polygon fill="grey" stroke="grey" stroke-width="2" points="198.591,-495.208 188.471,-492.073 194.427,-500.835 198.591,-495.208"/>
</g>
<!-- 18&#45;&gt;16 -->
<g id="edge21" class="edge"><title>18&#45;&gt;16</title>
<path fill="none" stroke="grey" stroke-width="2" d="M478.541,-607.837C469.69,-599.331 458.773,-588.839 448.738,-579.195"/>
<polygon fill="grey" stroke="grey" stroke-width="2" points="450.92,-576.438 441.284,-572.032 446.069,-581.485 450.92,-576.438"/>
</g>
<!-- 21 -->
<g id="node22" class="node"><title>21</title>
<path fill="none" stroke="#d6d856" stroke-width="2" stroke-dasharray="5,2" d="M629.358,-572C629.358,-572 517.441,-572 517.441,-572 511.441,-572 505.441,-566 505.441,-560 505.441,-560 505.441,-540 505.441,-540 505.441,-534 511.441,-528 517.441,-528 517.441,-528 629.358,-528 629.358,-528 635.358,-528 641.358,-534 641.358,-540 641.358,-540 641.358,-560 641.358,-560 641.358,-566 635.358,-572 629.358,-572"/>
<text text-anchor="middle" x="573.399" y="-559" font-family="sans" font-size="10.00">fastq2GZ</text>
<text text-anchor="middle" x="573.399" y="-547" font-family="sans" font-size="10.00">pathFGZ: output/fastq</text>
<text text-anchor="middle" x="573.399" y="-535" font-family="sans" font-size="10.00">sampleFGZ: Part2&#45;Pfeiffer2.2</text>
</g>
<!-- 18&#45;&gt;21 -->
<g id="edge26" class="edge"><title>18&#45;&gt;21</title>
<path fill="none" stroke="grey" stroke-width="2" d="M514.258,-607.837C523.109,-599.331 534.026,-588.839 544.061,-579.195"/>
<polygon fill="grey" stroke="grey" stroke-width="2" points="546.73,-581.485 551.515,-572.032 541.879,-576.438 546.73,-581.485"/>
</g>
<!-- 22 -->
<g id="node23" class="node"><title>22</title>
<path fill="none" stroke="#56d8d8" stroke-width="2" stroke-dasharray="5,2" d="M309.13,-340C309.13,-340 129.669,-340 129.669,-340 123.669,-340 117.669,-334 117.669,-328 117.669,-328 117.669,-308 117.669,-308 117.669,-302 123.669,-296 129.669,-296 129.669,-296 309.13,-296 309.13,-296 315.13,-296 321.13,-302 321.13,-308 321.13,-308 321.13,-328 321.13,-328 321.13,-334 315.13,-340 309.13,-340"/>
<text text-anchor="middle" x="219.399" y="-327" font-family="sans" font-size="10.00">filteredBAM</text>
<text text-anchor="middle" x="219.399" y="-315" font-family="sans" font-size="10.00">pathFB: output/bam</text>
<text text-anchor="middle" x="219.399" y="-303" font-family="sans" font-size="10.00">sampleFB: Part1&#45;Pfeiffer2_Aligned.out_sorted</text>
</g>
<!-- 19&#45;&gt;22 -->
<g id="edge27" class="edge"><title>19&#45;&gt;22</title>
<path fill="none" stroke="grey" stroke-width="2" d="M215.039,-375.686C215.646,-367.798 216.347,-358.684 217.007,-350.103"/>
<polygon fill="grey" stroke="grey" stroke-width="2" points="220.505,-350.257 217.783,-340.018 213.526,-349.72 220.505,-350.257"/>
</g>
<!-- 20&#45;&gt;14 -->
<g id="edge18" class="edge"><title>20&#45;&gt;14</title>
<path fill="none" stroke="grey" stroke-width="2" d="M195.98,-71.8761C181.989,-62.8083 164.623,-51.5523 149.514,-41.7592"/>
<polygon fill="grey" stroke="grey" stroke-width="2" points="151.216,-38.6917 140.921,-36.1898 147.409,-44.5658 151.216,-38.6917"/>
</g>
<!-- 21&#45;&gt;24 -->
<g id="edge30" class="edge"><title>21&#45;&gt;24</title>
<path fill="none" stroke="grey" stroke-width="2" d="M535.927,-527.993C518.662,-518.314 498.171,-506.827 480.689,-497.026"/>
<polygon fill="grey" stroke="grey" stroke-width="2" points="482.288,-493.91 471.854,-492.073 478.865,-500.016 482.288,-493.91"/>
</g>
<!-- 22&#45;&gt;5 -->
<g id="edge8" class="edge"><title>22&#45;&gt;5</title>
<path fill="none" stroke="grey" stroke-width="2" d="M252.33,-295.993C267.224,-286.491 284.849,-275.248 300.024,-265.567"/>
<polygon fill="grey" stroke="grey" stroke-width="2" points="302.088,-268.402 308.637,-260.073 298.324,-262.5 302.088,-268.402"/>
</g>
<!-- 23&#45;&gt;13 -->
<g id="edge15" class="edge"><title>23&#45;&gt;13</title>
<path fill="none" stroke="grey" stroke-width="2" d="M786.541,-607.837C777.69,-599.331 766.773,-588.839 756.738,-579.195"/>
<polygon fill="grey" stroke="grey" stroke-width="2" points="758.92,-576.438 749.284,-572.032 754.069,-581.485 758.92,-576.438"/>
</g>
<!-- 23&#45;&gt;15 -->
<g id="edge20" class="edge"><title>23&#45;&gt;15</title>
<path fill="none" stroke="grey" stroke-width="2" d="M822.258,-607.837C831.109,-599.331 842.026,-588.839 852.061,-579.195"/>
<polygon fill="grey" stroke="grey" stroke-width="2" points="854.73,-581.485 859.515,-572.032 849.879,-576.438 854.73,-581.485"/>
</g>
<!-- 24&#45;&gt;3 -->
<g id="edge3" class="edge"><title>24&#45;&gt;3</title>
<path fill="none" stroke="grey" stroke-width="2" d="M441.399,-455.837C441.399,-448.165 441.399,-438.878 441.399,-430.053"/>
<polygon fill="grey" stroke="grey" stroke-width="2" points="444.9,-430.032 441.399,-420.032 437.9,-430.032 444.9,-430.032"/>
</g>
</g>
</svg>
