<?xml version="1.0" encoding="UTF-8" standalone="no"?>
<!DOCTYPE svg PUBLIC "-//W3C//DTD SVG 1.1//EN"
 "http://www.w3.org/Graphics/SVG/1.1/DTD/svg11.dtd">
<!-- Generated by graphviz version 2.38.0 (20140413.2041)
 -->
<!-- Title: snakemake_dag Pages: 1 -->
<svg width="1220pt" height="652pt"
 viewBox="0.00 0.00 1220.00 652.00" xmlns="http://www.w3.org/2000/svg" xmlns:xlink="http://www.w3.org/1999/xlink">
<g id="graph0" class="graph" transform="scale(1 1) rotate(0) translate(4 648)">
<title>snakemake_dag</title>
<polygon fill="white" stroke="none" points="-4,4 -4,-648 1216,-648 1216,4 -4,4"/>
<!-- 0 -->
<g id="node1" class="node"><title>0</title>
<path fill="none" stroke="#d85656" stroke-width="2" d="M1013.5,-340C1013.5,-340 769.5,-340 769.5,-340 763.5,-340 757.5,-334 757.5,-328 757.5,-328 757.5,-308 757.5,-308 757.5,-302 763.5,-296 769.5,-296 769.5,-296 1013.5,-296 1013.5,-296 1019.5,-296 1025.5,-302 1025.5,-308 1025.5,-308 1025.5,-328 1025.5,-328 1025.5,-334 1019.5,-340 1013.5,-340"/>
<text text-anchor="middle" x="891.5" y="-327" font-family="sans" font-size="10.00">filteredBAM</text>
<text text-anchor="middle" x="891.5" y="-315" font-family="sans" font-size="10.00">pathFB: output/bam</text>
<text text-anchor="middle" x="891.5" y="-303" font-family="sans" font-size="10.00">sampleFB: Part3&#45;PfeifferSubSet_Aligned.out_sorted</text>
</g>
<!-- 19 -->
<g id="node20" class="node"><title>19</title>
<path fill="none" stroke="#68d856" stroke-width="2" d="M662,-260C662,-260 543,-260 543,-260 537,-260 531,-254 531,-248 531,-248 531,-236 531,-236 531,-230 537,-224 543,-224 543,-224 662,-224 662,-224 668,-224 674,-230 674,-236 674,-236 674,-248 674,-248 674,-254 668,-260 662,-260"/>
<text text-anchor="middle" x="602.5" y="-245" font-family="sans" font-size="10.00">mergeBAM</text>
<text text-anchor="middle" x="602.5" y="-233" font-family="sans" font-size="10.00">sampleMB: PfeifferSubset</text>
</g>
<!-- 0&#45;&gt;19 -->
<g id="edge22" class="edge"><title>0&#45;&gt;19</title>
<path fill="none" stroke="grey" stroke-width="2" d="M809.457,-295.993C768.449,-285.492 719.131,-272.864 678.926,-262.569"/>
<polygon fill="grey" stroke="grey" stroke-width="2" points="679.732,-259.163 669.177,-260.073 677.996,-265.944 679.732,-259.163"/>
</g>
<!-- 1 -->
<g id="node2" class="node"><title>1</title>
<path fill="none" stroke="#bed856" stroke-width="2" d="M1020,-420C1020,-420 805,-420 805,-420 799,-420 793,-414 793,-408 793,-408 793,-388 793,-388 793,-382 799,-376 805,-376 805,-376 1020,-376 1020,-376 1026,-376 1032,-382 1032,-388 1032,-388 1032,-408 1032,-408 1032,-414 1026,-420 1020,-420"/>
<text text-anchor="middle" x="912.5" y="-407" font-family="sans" font-size="10.00">sortBAM_biobambam</text>
<text text-anchor="middle" x="912.5" y="-395" font-family="sans" font-size="10.00">pathSBB: output/bam</text>
<text text-anchor="middle" x="912.5" y="-383" font-family="sans" font-size="10.00">sampleSBB: Part3&#45;PfeifferSubSet_Aligned.out</text>
</g>
<!-- 1&#45;&gt;0 -->
<g id="edge1" class="edge"><title>1&#45;&gt;0</title>
<path fill="none" stroke="grey" stroke-width="2" d="M906.762,-375.686C904.614,-367.711 902.13,-358.484 899.798,-349.82"/>
<polygon fill="grey" stroke="grey" stroke-width="2" points="903.138,-348.764 897.159,-340.018 896.379,-350.584 903.138,-348.764"/>
</g>
<!-- 2 -->
<g id="node3" class="node"><title>2</title>
<path fill="none" stroke="#56d0d8" stroke-width="2" d="M175,-572C175,-572 12,-572 12,-572 6,-572 1.42109e-14,-566 1.42109e-14,-560 1.42109e-14,-560 1.42109e-14,-540 1.42109e-14,-540 1.42109e-14,-534 6,-528 12,-528 12,-528 175,-528 175,-528 181,-528 187,-534 187,-540 187,-540 187,-560 187,-560 187,-566 181,-572 175,-572"/>
<text text-anchor="middle" x="93.5" y="-559" font-family="sans" font-size="10.00">fastq2GZ</text>
<text text-anchor="middle" x="93.5" y="-547" font-family="sans" font-size="10.00">pathFGZ: output/fastq</text>
<text text-anchor="middle" x="93.5" y="-535" font-family="sans" font-size="10.00">sampleFGZ: Part2&#45;PfeifferSubSet.2</text>
</g>
<!-- 14 -->
<g id="node15" class="node"><title>14</title>
<path fill="none" stroke="#56b1d8" stroke-width="2" d="M375.5,-492C375.5,-492 221.5,-492 221.5,-492 215.5,-492 209.5,-486 209.5,-480 209.5,-480 209.5,-468 209.5,-468 209.5,-462 215.5,-456 221.5,-456 221.5,-456 375.5,-456 375.5,-456 381.5,-456 387.5,-462 387.5,-468 387.5,-468 387.5,-480 387.5,-480 387.5,-486 381.5,-492 375.5,-492"/>
<text text-anchor="middle" x="298.5" y="-477" font-family="sans" font-size="10.00">bamALIGN_bwa</text>
<text text-anchor="middle" x="298.5" y="-465" font-family="sans" font-size="10.00">sampleBAB: Part2&#45;PfeifferSubSet</text>
</g>
<!-- 2&#45;&gt;14 -->
<g id="edge17" class="edge"><title>2&#45;&gt;14</title>
<path fill="none" stroke="grey" stroke-width="2" d="M151.696,-527.993C179.863,-517.825 213.556,-505.663 241.555,-495.556"/>
<polygon fill="grey" stroke="grey" stroke-width="2" points="242.986,-498.76 251.203,-492.073 240.609,-492.176 242.986,-498.76"/>
</g>
<!-- 3 -->
<g id="node4" class="node"><title>3</title>
<path fill="none" stroke="#bed856" stroke-width="2" d="M710,-420C710,-420 495,-420 495,-420 489,-420 483,-414 483,-408 483,-408 483,-388 483,-388 483,-382 489,-376 495,-376 495,-376 710,-376 710,-376 716,-376 722,-382 722,-388 722,-388 722,-408 722,-408 722,-414 716,-420 710,-420"/>
<text text-anchor="middle" x="602.5" y="-407" font-family="sans" font-size="10.00">sortBAM_biobambam</text>
<text text-anchor="middle" x="602.5" y="-395" font-family="sans" font-size="10.00">pathSBB: output/bam</text>
<text text-anchor="middle" x="602.5" y="-383" font-family="sans" font-size="10.00">sampleSBB: Part1&#45;PfeifferSubSet_Aligned.out</text>
</g>
<!-- 20 -->
<g id="node21" class="node"><title>20</title>
<path fill="none" stroke="#d85656" stroke-width="2" d="M724.5,-340C724.5,-340 480.5,-340 480.5,-340 474.5,-340 468.5,-334 468.5,-328 468.5,-328 468.5,-308 468.5,-308 468.5,-302 474.5,-296 480.5,-296 480.5,-296 724.5,-296 724.5,-296 730.5,-296 736.5,-302 736.5,-308 736.5,-308 736.5,-328 736.5,-328 736.5,-334 730.5,-340 724.5,-340"/>
<text text-anchor="middle" x="602.5" y="-327" font-family="sans" font-size="10.00">filteredBAM</text>
<text text-anchor="middle" x="602.5" y="-315" font-family="sans" font-size="10.00">pathFB: output/bam</text>
<text text-anchor="middle" x="602.5" y="-303" font-family="sans" font-size="10.00">sampleFB: Part1&#45;PfeifferSubSet_Aligned.out_sorted</text>
</g>
<!-- 3&#45;&gt;20 -->
<g id="edge24" class="edge"><title>3&#45;&gt;20</title>
<path fill="none" stroke="grey" stroke-width="2" d="M602.5,-375.686C602.5,-367.798 602.5,-358.684 602.5,-350.103"/>
<polygon fill="grey" stroke="grey" stroke-width="2" points="606,-350.018 602.5,-340.018 599,-350.018 606,-350.018"/>
</g>
<!-- 4 -->
<g id="node5" class="node"><title>4</title>
<path fill="none" stroke="#56d0d8" stroke-width="2" d="M585,-572C585,-572 422,-572 422,-572 416,-572 410,-566 410,-560 410,-560 410,-540 410,-540 410,-534 416,-528 422,-528 422,-528 585,-528 585,-528 591,-528 597,-534 597,-540 597,-540 597,-560 597,-560 597,-566 591,-572 585,-572"/>
<text text-anchor="middle" x="503.5" y="-559" font-family="sans" font-size="10.00">fastq2GZ</text>
<text text-anchor="middle" x="503.5" y="-547" font-family="sans" font-size="10.00">pathFGZ: output/fastq</text>
<text text-anchor="middle" x="503.5" y="-535" font-family="sans" font-size="10.00">sampleFGZ: Part1&#45;PfeifferSubSet.1</text>
</g>
<!-- 8 -->
<g id="node9" class="node"><title>8</title>
<path fill="none" stroke="#56b1d8" stroke-width="2" d="M679.5,-492C679.5,-492 525.5,-492 525.5,-492 519.5,-492 513.5,-486 513.5,-480 513.5,-480 513.5,-468 513.5,-468 513.5,-462 519.5,-456 525.5,-456 525.5,-456 679.5,-456 679.5,-456 685.5,-456 691.5,-462 691.5,-468 691.5,-468 691.5,-480 691.5,-480 691.5,-486 685.5,-492 679.5,-492"/>
<text text-anchor="middle" x="602.5" y="-477" font-family="sans" font-size="10.00">bamALIGN_bwa</text>
<text text-anchor="middle" x="602.5" y="-465" font-family="sans" font-size="10.00">sampleBAB: Part1&#45;PfeifferSubSet</text>
</g>
<!-- 4&#45;&gt;8 -->
<g id="edge10" class="edge"><title>4&#45;&gt;8</title>
<path fill="none" stroke="grey" stroke-width="2" d="M531.605,-527.993C544.078,-518.669 558.797,-507.667 571.581,-498.111"/>
<polygon fill="grey" stroke="grey" stroke-width="2" points="573.745,-500.863 579.659,-492.073 569.554,-495.257 573.745,-500.863"/>
</g>
<!-- 5 -->
<g id="node6" class="node"><title>5</title>
<path fill="none" stroke="#56b1d8" stroke-width="2" d="M990.5,-492C990.5,-492 836.5,-492 836.5,-492 830.5,-492 824.5,-486 824.5,-480 824.5,-480 824.5,-468 824.5,-468 824.5,-462 830.5,-456 836.5,-456 836.5,-456 990.5,-456 990.5,-456 996.5,-456 1002.5,-462 1002.5,-468 1002.5,-468 1002.5,-480 1002.5,-480 1002.5,-486 996.5,-492 990.5,-492"/>
<text text-anchor="middle" x="913.5" y="-477" font-family="sans" font-size="10.00">bamALIGN_bwa</text>
<text text-anchor="middle" x="913.5" y="-465" font-family="sans" font-size="10.00">sampleBAB: Part3&#45;PfeifferSubSet</text>
</g>
<!-- 5&#45;&gt;1 -->
<g id="edge2" class="edge"><title>5&#45;&gt;1</title>
<path fill="none" stroke="grey" stroke-width="2" d="M913.268,-455.837C913.164,-448.165 913.039,-438.878 912.92,-430.053"/>
<polygon fill="grey" stroke="grey" stroke-width="2" points="916.419,-429.984 912.784,-420.032 909.42,-430.079 916.419,-429.984"/>
</g>
<!-- 6 -->
<g id="node7" class="node"><title>6</title>
<path fill="none" stroke="#56d0d8" stroke-width="2" d="M995,-572C995,-572 832,-572 832,-572 826,-572 820,-566 820,-560 820,-560 820,-540 820,-540 820,-534 826,-528 832,-528 832,-528 995,-528 995,-528 1001,-528 1007,-534 1007,-540 1007,-540 1007,-560 1007,-560 1007,-566 1001,-572 995,-572"/>
<text text-anchor="middle" x="913.5" y="-559" font-family="sans" font-size="10.00">fastq2GZ</text>
<text text-anchor="middle" x="913.5" y="-547" font-family="sans" font-size="10.00">pathFGZ: output/fastq</text>
<text text-anchor="middle" x="913.5" y="-535" font-family="sans" font-size="10.00">sampleFGZ: Part3&#45;PfeifferSubSet.2</text>
</g>
<!-- 6&#45;&gt;5 -->
<g id="edge6" class="edge"><title>6&#45;&gt;5</title>
<path fill="none" stroke="grey" stroke-width="2" d="M913.5,-527.993C913.5,-520.061 913.5,-510.915 913.5,-502.478"/>
<polygon fill="grey" stroke="grey" stroke-width="2" points="917,-502.315 913.5,-492.315 910,-502.315 917,-502.315"/>
</g>
<!-- 7 -->
<g id="node8" class="node"><title>7</title>
<path fill="none" stroke="#9fd856" stroke-width="2" d="M734.5,-188C734.5,-188 470.5,-188 470.5,-188 464.5,-188 458.5,-182 458.5,-176 458.5,-176 458.5,-156 458.5,-156 458.5,-150 464.5,-144 470.5,-144 470.5,-144 734.5,-144 734.5,-144 740.5,-144 746.5,-150 746.5,-156 746.5,-156 746.5,-176 746.5,-176 746.5,-182 740.5,-188 734.5,-188"/>
<text text-anchor="middle" x="602.5" y="-175" font-family="sans" font-size="10.00">markdupBAM</text>
<text text-anchor="middle" x="602.5" y="-163" font-family="sans" font-size="10.00">outputDIR: output</text>
<text text-anchor="middle" x="602.5" y="-151" font-family="sans" font-size="10.00">sampleMDB: PfeifferSubset_Aligned.out_sorted_filtered</text>
</g>
<!-- 12 -->
<g id="node13" class="node"><title>12</title>
<path fill="none" stroke="#56d8c1" stroke-width="2" d="M659,-108C659,-108 546,-108 546,-108 540,-108 534,-102 534,-96 534,-96 534,-84 534,-84 534,-78 540,-72 546,-72 546,-72 659,-72 659,-72 665,-72 671,-78 671,-84 671,-84 671,-96 671,-96 671,-102 665,-108 659,-108"/>
<text text-anchor="middle" x="602.5" y="-93" font-family="sans" font-size="10.00">indexBAM</text>
<text text-anchor="middle" x="602.5" y="-81" font-family="sans" font-size="10.00">sampleIB: PfeifferSubset</text>
</g>
<!-- 7&#45;&gt;12 -->
<g id="edge14" class="edge"><title>7&#45;&gt;12</title>
<path fill="none" stroke="grey" stroke-width="2" d="M602.5,-143.993C602.5,-136.061 602.5,-126.915 602.5,-118.478"/>
<polygon fill="grey" stroke="grey" stroke-width="2" points="606,-118.315 602.5,-108.315 599,-118.315 606,-118.315"/>
</g>
<!-- 8&#45;&gt;3 -->
<g id="edge4" class="edge"><title>8&#45;&gt;3</title>
<path fill="none" stroke="grey" stroke-width="2" d="M602.5,-455.837C602.5,-448.165 602.5,-438.878 602.5,-430.053"/>
<polygon fill="grey" stroke="grey" stroke-width="2" points="606,-430.032 602.5,-420.032 599,-430.032 606,-430.032"/>
</g>
<!-- 9 -->
<g id="node10" class="node"><title>9</title>
<path fill="none" stroke="#56d0d8" stroke-width="2" d="M1200,-572C1200,-572 1037,-572 1037,-572 1031,-572 1025,-566 1025,-560 1025,-560 1025,-540 1025,-540 1025,-534 1031,-528 1037,-528 1037,-528 1200,-528 1200,-528 1206,-528 1212,-534 1212,-540 1212,-540 1212,-560 1212,-560 1212,-566 1206,-572 1200,-572"/>
<text text-anchor="middle" x="1118.5" y="-559" font-family="sans" font-size="10.00">fastq2GZ</text>
<text text-anchor="middle" x="1118.5" y="-547" font-family="sans" font-size="10.00">pathFGZ: output/fastq</text>
<text text-anchor="middle" x="1118.5" y="-535" font-family="sans" font-size="10.00">sampleFGZ: Part3&#45;PfeifferSubSet.1</text>
</g>
<!-- 9&#45;&gt;5 -->
<g id="edge7" class="edge"><title>9&#45;&gt;5</title>
<path fill="none" stroke="grey" stroke-width="2" d="M1060.3,-527.993C1032.14,-517.825 998.444,-505.663 970.445,-495.556"/>
<polygon fill="grey" stroke="grey" stroke-width="2" points="971.391,-492.176 960.797,-492.073 969.014,-498.76 971.391,-492.176"/>
</g>
<!-- 10 -->
<g id="node11" class="node"><title>10</title>
<path fill="none" stroke="#56d882" stroke-width="2" d="M275.5,-644C275.5,-644 117.5,-644 117.5,-644 111.5,-644 105.5,-638 105.5,-632 105.5,-632 105.5,-620 105.5,-620 105.5,-614 111.5,-608 117.5,-608 117.5,-608 275.5,-608 275.5,-608 281.5,-608 287.5,-614 287.5,-620 287.5,-620 287.5,-632 287.5,-632 287.5,-638 281.5,-644 275.5,-644"/>
<text text-anchor="middle" x="196.5" y="-629" font-family="sans" font-size="10.00">bam2fastq_picard</text>
<text text-anchor="middle" x="196.5" y="-617" font-family="sans" font-size="10.00">sampleB2FP: Part2&#45;PfeifferSubSet</text>
</g>
<!-- 10&#45;&gt;2 -->
<g id="edge3" class="edge"><title>10&#45;&gt;2</title>
<path fill="none" stroke="grey" stroke-width="2" d="M172.611,-607.837C160.307,-598.998 145.019,-588.014 131.171,-578.065"/>
<polygon fill="grey" stroke="grey" stroke-width="2" points="132.938,-575.025 122.775,-572.032 128.854,-580.709 132.938,-575.025"/>
</g>
<!-- 15 -->
<g id="node16" class="node"><title>15</title>
<path fill="none" stroke="#56d0d8" stroke-width="2" d="M380,-572C380,-572 217,-572 217,-572 211,-572 205,-566 205,-560 205,-560 205,-540 205,-540 205,-534 211,-528 217,-528 217,-528 380,-528 380,-528 386,-528 392,-534 392,-540 392,-540 392,-560 392,-560 392,-566 386,-572 380,-572"/>
<text text-anchor="middle" x="298.5" y="-559" font-family="sans" font-size="10.00">fastq2GZ</text>
<text text-anchor="middle" x="298.5" y="-547" font-family="sans" font-size="10.00">pathFGZ: output/fastq</text>
<text text-anchor="middle" x="298.5" y="-535" font-family="sans" font-size="10.00">sampleFGZ: Part2&#45;PfeifferSubSet.1</text>
</g>
<!-- 10&#45;&gt;15 -->
<g id="edge18" class="edge"><title>10&#45;&gt;15</title>
<path fill="none" stroke="grey" stroke-width="2" d="M220.157,-607.837C232.341,-598.998 247.481,-588.014 261.195,-578.065"/>
<polygon fill="grey" stroke="grey" stroke-width="2" points="263.471,-580.738 269.51,-572.032 259.36,-575.072 263.471,-580.738"/>
</g>
<!-- 11 -->
<g id="node12" class="node"><title>11</title>
<path fill="none" stroke="#5673d8" stroke-width="2" d="M617.5,-36C617.5,-36 587.5,-36 587.5,-36 581.5,-36 575.5,-30 575.5,-24 575.5,-24 575.5,-12 575.5,-12 575.5,-6 581.5,-0 587.5,-0 587.5,-0 617.5,-0 617.5,-0 623.5,-0 629.5,-6 629.5,-12 629.5,-12 629.5,-24 629.5,-24 629.5,-30 623.5,-36 617.5,-36"/>
<text text-anchor="middle" x="602.5" y="-15" font-family="sans" font-size="10.00">all</text>
</g>
<!-- 12&#45;&gt;11 -->
<g id="edge13" class="edge"><title>12&#45;&gt;11</title>
<path fill="none" stroke="grey" stroke-width="2" d="M602.5,-71.6966C602.5,-63.9827 602.5,-54.7125 602.5,-46.1124"/>
<polygon fill="grey" stroke="grey" stroke-width="2" points="606,-46.1043 602.5,-36.1043 599,-46.1044 606,-46.1043"/>
</g>
<!-- 13 -->
<g id="node14" class="node"><title>13</title>
<path fill="none" stroke="#56d0d8" stroke-width="2" d="M790,-572C790,-572 627,-572 627,-572 621,-572 615,-566 615,-560 615,-560 615,-540 615,-540 615,-534 621,-528 627,-528 627,-528 790,-528 790,-528 796,-528 802,-534 802,-540 802,-540 802,-560 802,-560 802,-566 796,-572 790,-572"/>
<text text-anchor="middle" x="708.5" y="-559" font-family="sans" font-size="10.00">fastq2GZ</text>
<text text-anchor="middle" x="708.5" y="-547" font-family="sans" font-size="10.00">pathFGZ: output/fastq</text>
<text text-anchor="middle" x="708.5" y="-535" font-family="sans" font-size="10.00">sampleFGZ: Part1&#45;PfeifferSubSet.2</text>
</g>
<!-- 13&#45;&gt;8 -->
<g id="edge11" class="edge"><title>13&#45;&gt;8</title>
<path fill="none" stroke="grey" stroke-width="2" d="M678.408,-527.993C664.925,-518.58 648.993,-507.458 635.215,-497.839"/>
<polygon fill="grey" stroke="grey" stroke-width="2" points="637.159,-494.927 626.956,-492.073 633.152,-500.667 637.159,-494.927"/>
</g>
<!-- 17 -->
<g id="node18" class="node"><title>17</title>
<path fill="none" stroke="#bed856" stroke-width="2" d="M408,-420C408,-420 193,-420 193,-420 187,-420 181,-414 181,-408 181,-408 181,-388 181,-388 181,-382 187,-376 193,-376 193,-376 408,-376 408,-376 414,-376 420,-382 420,-388 420,-388 420,-408 420,-408 420,-414 414,-420 408,-420"/>
<text text-anchor="middle" x="300.5" y="-407" font-family="sans" font-size="10.00">sortBAM_biobambam</text>
<text text-anchor="middle" x="300.5" y="-395" font-family="sans" font-size="10.00">pathSBB: output/bam</text>
<text text-anchor="middle" x="300.5" y="-383" font-family="sans" font-size="10.00">sampleSBB: Part2&#45;PfeifferSubSet_Aligned.out</text>
</g>
<!-- 14&#45;&gt;17 -->
<g id="edge19" class="edge"><title>14&#45;&gt;17</title>
<path fill="none" stroke="grey" stroke-width="2" d="M298.964,-455.837C299.171,-448.165 299.422,-438.878 299.661,-430.053"/>
<polygon fill="grey" stroke="grey" stroke-width="2" points="303.16,-430.123 299.932,-420.032 296.163,-429.934 303.16,-430.123"/>
</g>
<!-- 15&#45;&gt;14 -->
<g id="edge16" class="edge"><title>15&#45;&gt;14</title>
<path fill="none" stroke="grey" stroke-width="2" d="M298.5,-527.993C298.5,-520.061 298.5,-510.915 298.5,-502.478"/>
<polygon fill="grey" stroke="grey" stroke-width="2" points="302,-502.315 298.5,-492.315 295,-502.315 302,-502.315"/>
</g>
<!-- 16 -->
<g id="node17" class="node"><title>16</title>
<path fill="none" stroke="#56d882" stroke-width="2" d="M1094.5,-644C1094.5,-644 936.5,-644 936.5,-644 930.5,-644 924.5,-638 924.5,-632 924.5,-632 924.5,-620 924.5,-620 924.5,-614 930.5,-608 936.5,-608 936.5,-608 1094.5,-608 1094.5,-608 1100.5,-608 1106.5,-614 1106.5,-620 1106.5,-620 1106.5,-632 1106.5,-632 1106.5,-638 1100.5,-644 1094.5,-644"/>
<text text-anchor="middle" x="1015.5" y="-629" font-family="sans" font-size="10.00">bam2fastq_picard</text>
<text text-anchor="middle" x="1015.5" y="-617" font-family="sans" font-size="10.00">sampleB2FP: Part3&#45;PfeifferSubSet</text>
</g>
<!-- 16&#45;&gt;6 -->
<g id="edge8" class="edge"><title>16&#45;&gt;6</title>
<path fill="none" stroke="grey" stroke-width="2" d="M991.843,-607.837C979.659,-598.998 964.519,-588.014 950.805,-578.065"/>
<polygon fill="grey" stroke="grey" stroke-width="2" points="952.64,-575.072 942.49,-572.032 948.529,-580.738 952.64,-575.072"/>
</g>
<!-- 16&#45;&gt;9 -->
<g id="edge12" class="edge"><title>16&#45;&gt;9</title>
<path fill="none" stroke="grey" stroke-width="2" d="M1039.39,-607.837C1051.69,-598.998 1066.98,-588.014 1080.83,-578.065"/>
<polygon fill="grey" stroke="grey" stroke-width="2" points="1083.15,-580.709 1089.23,-572.032 1079.06,-575.025 1083.15,-580.709"/>
</g>
<!-- 18 -->
<g id="node19" class="node"><title>18</title>
<path fill="none" stroke="#d85656" stroke-width="2" d="M433.5,-340C433.5,-340 189.5,-340 189.5,-340 183.5,-340 177.5,-334 177.5,-328 177.5,-328 177.5,-308 177.5,-308 177.5,-302 183.5,-296 189.5,-296 189.5,-296 433.5,-296 433.5,-296 439.5,-296 445.5,-302 445.5,-308 445.5,-308 445.5,-328 445.5,-328 445.5,-334 439.5,-340 433.5,-340"/>
<text text-anchor="middle" x="311.5" y="-327" font-family="sans" font-size="10.00">filteredBAM</text>
<text text-anchor="middle" x="311.5" y="-315" font-family="sans" font-size="10.00">pathFB: output/bam</text>
<text text-anchor="middle" x="311.5" y="-303" font-family="sans" font-size="10.00">sampleFB: Part2&#45;PfeifferSubSet_Aligned.out_sorted</text>
</g>
<!-- 17&#45;&gt;18 -->
<g id="edge20" class="edge"><title>17&#45;&gt;18</title>
<path fill="none" stroke="grey" stroke-width="2" d="M303.506,-375.686C304.618,-367.798 305.904,-358.684 307.114,-350.103"/>
<polygon fill="grey" stroke="grey" stroke-width="2" points="310.605,-350.409 308.536,-340.018 303.674,-349.431 310.605,-350.409"/>
</g>
<!-- 18&#45;&gt;19 -->
<g id="edge21" class="edge"><title>18&#45;&gt;19</title>
<path fill="none" stroke="grey" stroke-width="2" d="M394.111,-295.993C435.402,-285.492 485.062,-272.864 525.545,-262.569"/>
<polygon fill="grey" stroke="grey" stroke-width="2" points="526.533,-265.93 535.362,-260.073 524.808,-259.145 526.533,-265.93"/>
</g>
<!-- 19&#45;&gt;7 -->
<g id="edge9" class="edge"><title>19&#45;&gt;7</title>
<path fill="none" stroke="grey" stroke-width="2" d="M602.5,-223.837C602.5,-216.165 602.5,-206.878 602.5,-198.053"/>
<polygon fill="grey" stroke="grey" stroke-width="2" points="606,-198.032 602.5,-188.032 599,-198.032 606,-198.032"/>
</g>
<!-- 20&#45;&gt;19 -->
<g id="edge23" class="edge"><title>20&#45;&gt;19</title>
<path fill="none" stroke="grey" stroke-width="2" d="M602.5,-295.993C602.5,-288.061 602.5,-278.915 602.5,-270.478"/>
<polygon fill="grey" stroke="grey" stroke-width="2" points="606,-270.315 602.5,-260.315 599,-270.315 606,-270.315"/>
</g>
<!-- 21 -->
<g id="node22" class="node"><title>21</title>
<path fill="none" stroke="#56d882" stroke-width="2" d="M684.5,-644C684.5,-644 526.5,-644 526.5,-644 520.5,-644 514.5,-638 514.5,-632 514.5,-632 514.5,-620 514.5,-620 514.5,-614 520.5,-608 526.5,-608 526.5,-608 684.5,-608 684.5,-608 690.5,-608 696.5,-614 696.5,-620 696.5,-620 696.5,-632 696.5,-632 696.5,-638 690.5,-644 684.5,-644"/>
<text text-anchor="middle" x="605.5" y="-629" font-family="sans" font-size="10.00">bam2fastq_picard</text>
<text text-anchor="middle" x="605.5" y="-617" font-family="sans" font-size="10.00">sampleB2FP: Part1&#45;PfeifferSubSet</text>
</g>
<!-- 21&#45;&gt;4 -->
<g id="edge5" class="edge"><title>21&#45;&gt;4</title>
<path fill="none" stroke="grey" stroke-width="2" d="M581.843,-607.837C569.659,-598.998 554.519,-588.014 540.805,-578.065"/>
<polygon fill="grey" stroke="grey" stroke-width="2" points="542.64,-575.072 532.49,-572.032 538.529,-580.738 542.64,-575.072"/>
</g>
<!-- 21&#45;&gt;13 -->
<g id="edge15" class="edge"><title>21&#45;&gt;13</title>
<path fill="none" stroke="grey" stroke-width="2" d="M629.389,-607.837C641.693,-598.998 656.981,-588.014 670.829,-578.065"/>
<polygon fill="grey" stroke="grey" stroke-width="2" points="673.146,-580.709 679.225,-572.032 669.062,-575.025 673.146,-580.709"/>
</g>
</g>
</svg>
