<?xml version="1.0" encoding="UTF-8" standalone="no"?>
<!DOCTYPE svg PUBLIC "-//W3C//DTD SVG 1.1//EN"
 "http://www.w3.org/Graphics/SVG/1.1/DTD/svg11.dtd">
<!-- Generated by graphviz version 2.38.0 (20140413.2041)
 -->
<!-- Title: snakemake_dag Pages: 1 -->
<svg width="644pt" height="580pt"
 viewBox="0.00 0.00 644.00 580.00" xmlns="http://www.w3.org/2000/svg" xmlns:xlink="http://www.w3.org/1999/xlink">
<g id="graph0" class="graph" transform="scale(1 1) rotate(0) translate(4 576)">
<title>snakemake_dag</title>
<polygon fill="white" stroke="none" points="-4,4 -4,-576 640,-576 640,4 -4,4"/>
<!-- 0 -->
<g id="node1" class="node"><title>0</title>
<path fill="none" stroke="#d85656" stroke-width="2" d="M351.5,-36C351.5,-36 321.5,-36 321.5,-36 315.5,-36 309.5,-30 309.5,-24 309.5,-24 309.5,-12 309.5,-12 309.5,-6 315.5,-0 321.5,-0 321.5,-0 351.5,-0 351.5,-0 357.5,-0 363.5,-6 363.5,-12 363.5,-12 363.5,-24 363.5,-24 363.5,-30 357.5,-36 351.5,-36"/>
<text text-anchor="middle" x="336.5" y="-15" font-family="sans" font-size="10.00">all</text>
</g>
<!-- 1 -->
<g id="node2" class="node"><title>1</title>
<path fill="none" stroke="#d89556" stroke-width="2" d="M271.5,-268C271.5,-268 85.5,-268 85.5,-268 79.5,-268 73.5,-262 73.5,-256 73.5,-256 73.5,-236 73.5,-236 73.5,-230 79.5,-224 85.5,-224 85.5,-224 271.5,-224 271.5,-224 277.5,-224 283.5,-230 283.5,-236 283.5,-236 283.5,-256 283.5,-256 283.5,-262 277.5,-268 271.5,-268"/>
<text text-anchor="middle" x="178.5" y="-255" font-family="sans" font-size="10.00">filteredBAM</text>
<text text-anchor="middle" x="178.5" y="-243" font-family="sans" font-size="10.00">pathFB: output/bam</text>
<text text-anchor="middle" x="178.5" y="-231" font-family="sans" font-size="10.00">sampleFB: Pfeiffer2_Aligned.out_sorted</text>
</g>
<!-- 11 -->
<g id="node12" class="node"><title>11</title>
<path fill="none" stroke="#56d8b9" stroke-width="2" d="M297,-188C297,-188 60,-188 60,-188 54,-188 48,-182 48,-176 48,-176 48,-156 48,-156 48,-150 54,-144 60,-144 60,-144 297,-144 297,-144 303,-144 309,-150 309,-156 309,-156 309,-176 309,-176 309,-182 303,-188 297,-188"/>
<text text-anchor="middle" x="178.5" y="-175" font-family="sans" font-size="10.00">markdupBAM</text>
<text text-anchor="middle" x="178.5" y="-163" font-family="sans" font-size="10.00">outputDIR: output</text>
<text text-anchor="middle" x="178.5" y="-151" font-family="sans" font-size="10.00">sampleMDB: Pfeiffer2_Aligned.out_sorted_filtered</text>
</g>
<!-- 1&#45;&gt;11 -->
<g id="edge13" class="edge"><title>1&#45;&gt;11</title>
<path fill="none" stroke="grey" stroke-width="2" d="M178.5,-223.686C178.5,-215.798 178.5,-206.684 178.5,-198.103"/>
<polygon fill="grey" stroke="grey" stroke-width="2" points="182,-198.018 178.5,-188.018 175,-198.018 182,-198.018"/>
</g>
<!-- 2 -->
<g id="node3" class="node"><title>2</title>
<path fill="none" stroke="#569ad8" stroke-width="2" d="M477,-500C477,-500 372,-500 372,-500 366,-500 360,-494 360,-488 360,-488 360,-468 360,-468 360,-462 366,-456 372,-456 372,-456 477,-456 477,-456 483,-456 489,-462 489,-468 489,-468 489,-488 489,-488 489,-494 483,-500 477,-500"/>
<text text-anchor="middle" x="424.5" y="-487" font-family="sans" font-size="10.00">fastq2GZ</text>
<text text-anchor="middle" x="424.5" y="-475" font-family="sans" font-size="10.00">pathFGZ: output/fastq</text>
<text text-anchor="middle" x="424.5" y="-463" font-family="sans" font-size="10.00">sampleFGZ: Pfeiffer3.2</text>
</g>
<!-- 16 -->
<g id="node17" class="node"><title>16</title>
<path fill="none" stroke="#56d87b" stroke-width="2" d="M505.5,-420C505.5,-420 409.5,-420 409.5,-420 403.5,-420 397.5,-414 397.5,-408 397.5,-408 397.5,-396 397.5,-396 397.5,-390 403.5,-384 409.5,-384 409.5,-384 505.5,-384 505.5,-384 511.5,-384 517.5,-390 517.5,-396 517.5,-396 517.5,-408 517.5,-408 517.5,-414 511.5,-420 505.5,-420"/>
<text text-anchor="middle" x="457.5" y="-405" font-family="sans" font-size="10.00">bamALIGN_bwa</text>
<text text-anchor="middle" x="457.5" y="-393" font-family="sans" font-size="10.00">sampleBAB: Pfeiffer3</text>
</g>
<!-- 2&#45;&gt;16 -->
<g id="edge18" class="edge"><title>2&#45;&gt;16</title>
<path fill="none" stroke="grey" stroke-width="2" d="M433.868,-455.993C437.523,-447.796 441.756,-438.304 445.622,-429.637"/>
<polygon fill="grey" stroke="grey" stroke-width="2" points="448.902,-430.873 449.779,-420.315 442.509,-428.022 448.902,-430.873"/>
</g>
<!-- 3 -->
<g id="node4" class="node"><title>3</title>
<path fill="none" stroke="#56d8b9" stroke-width="2" d="M576,-188C576,-188 339,-188 339,-188 333,-188 327,-182 327,-176 327,-176 327,-156 327,-156 327,-150 333,-144 339,-144 339,-144 576,-144 576,-144 582,-144 588,-150 588,-156 588,-156 588,-176 588,-176 588,-182 582,-188 576,-188"/>
<text text-anchor="middle" x="457.5" y="-175" font-family="sans" font-size="10.00">markdupBAM</text>
<text text-anchor="middle" x="457.5" y="-163" font-family="sans" font-size="10.00">outputDIR: output</text>
<text text-anchor="middle" x="457.5" y="-151" font-family="sans" font-size="10.00">sampleMDB: Pfeiffer3_Aligned.out_sorted_filtered</text>
</g>
<!-- 12 -->
<g id="node13" class="node"><title>12</title>
<path fill="none" stroke="#567bd8" stroke-width="2" d="M462.5,-108C462.5,-108 376.5,-108 376.5,-108 370.5,-108 364.5,-102 364.5,-96 364.5,-96 364.5,-84 364.5,-84 364.5,-78 370.5,-72 376.5,-72 376.5,-72 462.5,-72 462.5,-72 468.5,-72 474.5,-78 474.5,-84 474.5,-84 474.5,-96 474.5,-96 474.5,-102 468.5,-108 462.5,-108"/>
<text text-anchor="middle" x="419.5" y="-93" font-family="sans" font-size="10.00">indexBAM</text>
<text text-anchor="middle" x="419.5" y="-81" font-family="sans" font-size="10.00">sampleIB: Pfeiffer3</text>
</g>
<!-- 3&#45;&gt;12 -->
<g id="edge14" class="edge"><title>3&#45;&gt;12</title>
<path fill="none" stroke="grey" stroke-width="2" d="M446.712,-143.993C442.458,-135.708 437.524,-126.1 433.035,-117.357"/>
<polygon fill="grey" stroke="grey" stroke-width="2" points="436.073,-115.612 428.391,-108.315 429.846,-118.809 436.073,-115.612"/>
</g>
<!-- 4 -->
<g id="node5" class="node"><title>4</title>
<path fill="none" stroke="#569ad8" stroke-width="2" d="M117,-500C117,-500 12,-500 12,-500 6,-500 0,-494 0,-488 0,-488 0,-468 0,-468 0,-462 6,-456 12,-456 12,-456 117,-456 117,-456 123,-456 129,-462 129,-468 129,-468 129,-488 129,-488 129,-494 123,-500 117,-500"/>
<text text-anchor="middle" x="64.5" y="-487" font-family="sans" font-size="10.00">fastq2GZ</text>
<text text-anchor="middle" x="64.5" y="-475" font-family="sans" font-size="10.00">pathFGZ: output/fastq</text>
<text text-anchor="middle" x="64.5" y="-463" font-family="sans" font-size="10.00">sampleFGZ: Pfeiffer2.2</text>
</g>
<!-- 7 -->
<g id="node8" class="node"><title>7</title>
<path fill="none" stroke="#56d87b" stroke-width="2" d="M226.5,-420C226.5,-420 130.5,-420 130.5,-420 124.5,-420 118.5,-414 118.5,-408 118.5,-408 118.5,-396 118.5,-396 118.5,-390 124.5,-384 130.5,-384 130.5,-384 226.5,-384 226.5,-384 232.5,-384 238.5,-390 238.5,-396 238.5,-396 238.5,-408 238.5,-408 238.5,-414 232.5,-420 226.5,-420"/>
<text text-anchor="middle" x="178.5" y="-405" font-family="sans" font-size="10.00">bamALIGN_bwa</text>
<text text-anchor="middle" x="178.5" y="-393" font-family="sans" font-size="10.00">sampleBAB: Pfeiffer2</text>
</g>
<!-- 4&#45;&gt;7 -->
<g id="edge10" class="edge"><title>4&#45;&gt;7</title>
<path fill="none" stroke="grey" stroke-width="2" d="M96.8629,-455.993C111.5,-446.491 128.821,-435.248 143.735,-425.567"/>
<polygon fill="grey" stroke="grey" stroke-width="2" points="145.716,-428.453 152.198,-420.073 141.905,-422.582 145.716,-428.453"/>
</g>
<!-- 5 -->
<g id="node6" class="node"><title>5</title>
<path fill="none" stroke="#d6d856" stroke-width="2" d="M256.5,-348C256.5,-348 100.5,-348 100.5,-348 94.5,-348 88.5,-342 88.5,-336 88.5,-336 88.5,-316 88.5,-316 88.5,-310 94.5,-304 100.5,-304 100.5,-304 256.5,-304 256.5,-304 262.5,-304 268.5,-310 268.5,-316 268.5,-316 268.5,-336 268.5,-336 268.5,-342 262.5,-348 256.5,-348"/>
<text text-anchor="middle" x="178.5" y="-335" font-family="sans" font-size="10.00">sortBAM_samtools</text>
<text text-anchor="middle" x="178.5" y="-323" font-family="sans" font-size="10.00">pathSBS: output/bam</text>
<text text-anchor="middle" x="178.5" y="-311" font-family="sans" font-size="10.00">sampleSBS: Pfeiffer2_Aligned.out</text>
</g>
<!-- 5&#45;&gt;1 -->
<g id="edge3" class="edge"><title>5&#45;&gt;1</title>
<path fill="none" stroke="grey" stroke-width="2" d="M178.5,-303.686C178.5,-295.798 178.5,-286.684 178.5,-278.103"/>
<polygon fill="grey" stroke="grey" stroke-width="2" points="182,-278.018 178.5,-268.018 175,-278.018 182,-278.018"/>
</g>
<!-- 6 -->
<g id="node7" class="node"><title>6</title>
<path fill="none" stroke="#569ad8" stroke-width="2" d="M264,-500C264,-500 159,-500 159,-500 153,-500 147,-494 147,-488 147,-488 147,-468 147,-468 147,-462 153,-456 159,-456 159,-456 264,-456 264,-456 270,-456 276,-462 276,-468 276,-468 276,-488 276,-488 276,-494 270,-500 264,-500"/>
<text text-anchor="middle" x="211.5" y="-487" font-family="sans" font-size="10.00">fastq2GZ</text>
<text text-anchor="middle" x="211.5" y="-475" font-family="sans" font-size="10.00">pathFGZ: output/fastq</text>
<text text-anchor="middle" x="211.5" y="-463" font-family="sans" font-size="10.00">sampleFGZ: Pfeiffer2.1</text>
</g>
<!-- 6&#45;&gt;7 -->
<g id="edge9" class="edge"><title>6&#45;&gt;7</title>
<path fill="none" stroke="grey" stroke-width="2" d="M202.132,-455.993C198.477,-447.796 194.244,-438.304 190.378,-429.637"/>
<polygon fill="grey" stroke="grey" stroke-width="2" points="193.491,-428.022 186.221,-420.315 187.098,-430.873 193.491,-428.022"/>
</g>
<!-- 7&#45;&gt;5 -->
<g id="edge7" class="edge"><title>7&#45;&gt;5</title>
<path fill="none" stroke="grey" stroke-width="2" d="M178.5,-383.837C178.5,-376.165 178.5,-366.878 178.5,-358.053"/>
<polygon fill="grey" stroke="grey" stroke-width="2" points="182,-358.032 178.5,-348.032 175,-358.032 182,-358.032"/>
</g>
<!-- 8 -->
<g id="node9" class="node"><title>8</title>
<path fill="none" stroke="#567bd8" stroke-width="2" d="M296.5,-108C296.5,-108 210.5,-108 210.5,-108 204.5,-108 198.5,-102 198.5,-96 198.5,-96 198.5,-84 198.5,-84 198.5,-78 204.5,-72 210.5,-72 210.5,-72 296.5,-72 296.5,-72 302.5,-72 308.5,-78 308.5,-84 308.5,-84 308.5,-96 308.5,-96 308.5,-102 302.5,-108 296.5,-108"/>
<text text-anchor="middle" x="253.5" y="-93" font-family="sans" font-size="10.00">indexBAM</text>
<text text-anchor="middle" x="253.5" y="-81" font-family="sans" font-size="10.00">sampleIB: Pfeiffer2</text>
</g>
<!-- 8&#45;&gt;0 -->
<g id="edge1" class="edge"><title>8&#45;&gt;0</title>
<path fill="none" stroke="grey" stroke-width="2" d="M274.017,-71.6966C284.369,-62.9655 297.086,-52.2405 308.339,-42.7503"/>
<polygon fill="grey" stroke="grey" stroke-width="2" points="310.831,-45.2269 316.219,-36.1043 306.318,-39.8759 310.831,-45.2269"/>
</g>
<!-- 9 -->
<g id="node10" class="node"><title>9</title>
<path fill="none" stroke="#d89556" stroke-width="2" d="M550.5,-268C550.5,-268 364.5,-268 364.5,-268 358.5,-268 352.5,-262 352.5,-256 352.5,-256 352.5,-236 352.5,-236 352.5,-230 358.5,-224 364.5,-224 364.5,-224 550.5,-224 550.5,-224 556.5,-224 562.5,-230 562.5,-236 562.5,-236 562.5,-256 562.5,-256 562.5,-262 556.5,-268 550.5,-268"/>
<text text-anchor="middle" x="457.5" y="-255" font-family="sans" font-size="10.00">filteredBAM</text>
<text text-anchor="middle" x="457.5" y="-243" font-family="sans" font-size="10.00">pathFB: output/bam</text>
<text text-anchor="middle" x="457.5" y="-231" font-family="sans" font-size="10.00">sampleFB: Pfeiffer3_Aligned.out_sorted</text>
</g>
<!-- 9&#45;&gt;3 -->
<g id="edge5" class="edge"><title>9&#45;&gt;3</title>
<path fill="none" stroke="grey" stroke-width="2" d="M457.5,-223.686C457.5,-215.798 457.5,-206.684 457.5,-198.103"/>
<polygon fill="grey" stroke="grey" stroke-width="2" points="461,-198.018 457.5,-188.018 454,-198.018 461,-198.018"/>
</g>
<!-- 10 -->
<g id="node11" class="node"><title>10</title>
<path fill="none" stroke="#56d89a" stroke-width="2" d="M188.5,-572C188.5,-572 88.5,-572 88.5,-572 82.5,-572 76.5,-566 76.5,-560 76.5,-560 76.5,-548 76.5,-548 76.5,-542 82.5,-536 88.5,-536 88.5,-536 188.5,-536 188.5,-536 194.5,-536 200.5,-542 200.5,-548 200.5,-548 200.5,-560 200.5,-560 200.5,-566 194.5,-572 188.5,-572"/>
<text text-anchor="middle" x="138.5" y="-557" font-family="sans" font-size="10.00">bam2fastq_picard</text>
<text text-anchor="middle" x="138.5" y="-545" font-family="sans" font-size="10.00">sampleB2FP: Pfeiffer2</text>
</g>
<!-- 10&#45;&gt;4 -->
<g id="edge6" class="edge"><title>10&#45;&gt;4</title>
<path fill="none" stroke="grey" stroke-width="2" d="M121.337,-535.837C112.831,-527.331 102.339,-516.839 92.6952,-507.195"/>
<polygon fill="grey" stroke="grey" stroke-width="2" points="95.0782,-504.628 85.5322,-500.032 90.1284,-509.578 95.0782,-504.628"/>
</g>
<!-- 10&#45;&gt;6 -->
<g id="edge8" class="edge"><title>10&#45;&gt;6</title>
<path fill="none" stroke="grey" stroke-width="2" d="M155.431,-535.837C163.822,-527.331 174.172,-516.839 183.686,-507.195"/>
<polygon fill="grey" stroke="grey" stroke-width="2" points="186.221,-509.609 190.752,-500.032 181.238,-504.693 186.221,-509.609"/>
</g>
<!-- 11&#45;&gt;8 -->
<g id="edge11" class="edge"><title>11&#45;&gt;8</title>
<path fill="none" stroke="grey" stroke-width="2" d="M199.791,-143.993C208.813,-135.091 219.384,-124.661 228.75,-115.42"/>
<polygon fill="grey" stroke="grey" stroke-width="2" points="231.291,-117.83 235.951,-108.315 226.375,-112.847 231.291,-117.83"/>
</g>
<!-- 12&#45;&gt;0 -->
<g id="edge2" class="edge"><title>12&#45;&gt;0</title>
<path fill="none" stroke="grey" stroke-width="2" d="M398.983,-71.6966C388.631,-62.9655 375.914,-52.2405 364.661,-42.7503"/>
<polygon fill="grey" stroke="grey" stroke-width="2" points="366.682,-39.8759 356.781,-36.1043 362.169,-45.2269 366.682,-39.8759"/>
</g>
<!-- 13 -->
<g id="node14" class="node"><title>13</title>
<path fill="none" stroke="#569ad8" stroke-width="2" d="M624,-500C624,-500 519,-500 519,-500 513,-500 507,-494 507,-488 507,-488 507,-468 507,-468 507,-462 513,-456 519,-456 519,-456 624,-456 624,-456 630,-456 636,-462 636,-468 636,-468 636,-488 636,-488 636,-494 630,-500 624,-500"/>
<text text-anchor="middle" x="571.5" y="-487" font-family="sans" font-size="10.00">fastq2GZ</text>
<text text-anchor="middle" x="571.5" y="-475" font-family="sans" font-size="10.00">pathFGZ: output/fastq</text>
<text text-anchor="middle" x="571.5" y="-463" font-family="sans" font-size="10.00">sampleFGZ: Pfeiffer3.1</text>
</g>
<!-- 13&#45;&gt;16 -->
<g id="edge17" class="edge"><title>13&#45;&gt;16</title>
<path fill="none" stroke="grey" stroke-width="2" d="M539.137,-455.993C524.5,-446.491 507.179,-435.248 492.265,-425.567"/>
<polygon fill="grey" stroke="grey" stroke-width="2" points="494.095,-422.582 483.802,-420.073 490.284,-428.453 494.095,-422.582"/>
</g>
<!-- 14 -->
<g id="node15" class="node"><title>14</title>
<path fill="none" stroke="#56d89a" stroke-width="2" d="M547.5,-572C547.5,-572 447.5,-572 447.5,-572 441.5,-572 435.5,-566 435.5,-560 435.5,-560 435.5,-548 435.5,-548 435.5,-542 441.5,-536 447.5,-536 447.5,-536 547.5,-536 547.5,-536 553.5,-536 559.5,-542 559.5,-548 559.5,-548 559.5,-560 559.5,-560 559.5,-566 553.5,-572 547.5,-572"/>
<text text-anchor="middle" x="497.5" y="-557" font-family="sans" font-size="10.00">bam2fastq_picard</text>
<text text-anchor="middle" x="497.5" y="-545" font-family="sans" font-size="10.00">sampleB2FP: Pfeiffer3</text>
</g>
<!-- 14&#45;&gt;2 -->
<g id="edge4" class="edge"><title>14&#45;&gt;2</title>
<path fill="none" stroke="grey" stroke-width="2" d="M480.569,-535.837C472.178,-527.331 461.828,-516.839 452.314,-507.195"/>
<polygon fill="grey" stroke="grey" stroke-width="2" points="454.762,-504.693 445.248,-500.032 449.779,-509.609 454.762,-504.693"/>
</g>
<!-- 14&#45;&gt;13 -->
<g id="edge15" class="edge"><title>14&#45;&gt;13</title>
<path fill="none" stroke="grey" stroke-width="2" d="M514.663,-535.837C523.169,-527.331 533.661,-516.839 543.305,-507.195"/>
<polygon fill="grey" stroke="grey" stroke-width="2" points="545.872,-509.578 550.468,-500.032 540.922,-504.628 545.872,-509.578"/>
</g>
<!-- 15 -->
<g id="node16" class="node"><title>15</title>
<path fill="none" stroke="#d6d856" stroke-width="2" d="M535.5,-348C535.5,-348 379.5,-348 379.5,-348 373.5,-348 367.5,-342 367.5,-336 367.5,-336 367.5,-316 367.5,-316 367.5,-310 373.5,-304 379.5,-304 379.5,-304 535.5,-304 535.5,-304 541.5,-304 547.5,-310 547.5,-316 547.5,-316 547.5,-336 547.5,-336 547.5,-342 541.5,-348 535.5,-348"/>
<text text-anchor="middle" x="457.5" y="-335" font-family="sans" font-size="10.00">sortBAM_samtools</text>
<text text-anchor="middle" x="457.5" y="-323" font-family="sans" font-size="10.00">pathSBS: output/bam</text>
<text text-anchor="middle" x="457.5" y="-311" font-family="sans" font-size="10.00">sampleSBS: Pfeiffer3_Aligned.out</text>
</g>
<!-- 15&#45;&gt;9 -->
<g id="edge12" class="edge"><title>15&#45;&gt;9</title>
<path fill="none" stroke="grey" stroke-width="2" d="M457.5,-303.686C457.5,-295.798 457.5,-286.684 457.5,-278.103"/>
<polygon fill="grey" stroke="grey" stroke-width="2" points="461,-278.018 457.5,-268.018 454,-278.018 461,-278.018"/>
</g>
<!-- 16&#45;&gt;15 -->
<g id="edge16" class="edge"><title>16&#45;&gt;15</title>
<path fill="none" stroke="grey" stroke-width="2" d="M457.5,-383.837C457.5,-376.165 457.5,-366.878 457.5,-358.053"/>
<polygon fill="grey" stroke="grey" stroke-width="2" points="461,-358.032 457.5,-348.032 454,-358.032 461,-358.032"/>
</g>
</g>
</svg>
