<?xml version="1.0" encoding="UTF-8" standalone="no"?>
<!DOCTYPE svg PUBLIC "-//W3C//DTD SVG 1.1//EN"
 "http://www.w3.org/Graphics/SVG/1.1/DTD/svg11.dtd">
<!-- Generated by graphviz version 2.38.0 (20140413.2041)
 -->
<!-- Title: snakemake_dag Pages: 1 -->
<svg width="3530pt" height="1120pt"
 viewBox="0.00 0.00 3530.00 1120.00" xmlns="http://www.w3.org/2000/svg" xmlns:xlink="http://www.w3.org/1999/xlink">
<g id="graph0" class="graph" transform="scale(1 1) rotate(0) translate(4 1116)">
<title>snakemake_dag</title>
<polygon fill="white" stroke="none" points="-4,4 -4,-1116 3526,-1116 3526,4 -4,4"/>
<!-- 0 -->
<g id="node1" class="node"><title>0</title>
<path fill="none" stroke="#56d8c1" stroke-width="2" d="M2916.5,-576C2916.5,-576 2812.5,-576 2812.5,-576 2806.5,-576 2800.5,-570 2800.5,-564 2800.5,-564 2800.5,-544 2800.5,-544 2800.5,-538 2806.5,-532 2812.5,-532 2812.5,-532 2916.5,-532 2916.5,-532 2922.5,-532 2928.5,-538 2928.5,-544 2928.5,-544 2928.5,-564 2928.5,-564 2928.5,-570 2922.5,-576 2916.5,-576"/>
<text text-anchor="middle" x="2864.5" y="-563" font-family="sans" font-size="10.00">mpileupSPLIT</text>
<text text-anchor="middle" x="2864.5" y="-551" font-family="sans" font-size="10.00">chrMPUS: 1</text>
<text text-anchor="middle" x="2864.5" y="-539" font-family="sans" font-size="10.00">sampleMPUS: Pfeiffer3</text>
</g>
<!-- 42 -->
<g id="node43" class="node"><title>42</title>
<path fill="none" stroke="#56d88a" stroke-width="2" d="M2271,-496C2271,-496 2136,-496 2136,-496 2130,-496 2124,-490 2124,-484 2124,-484 2124,-452 2124,-452 2124,-446 2130,-440 2136,-440 2136,-440 2271,-440 2271,-440 2277,-440 2283,-446 2283,-452 2283,-452 2283,-484 2283,-484 2283,-490 2277,-496 2271,-496"/>
<text text-anchor="middle" x="2203.5" y="-483" font-family="sans" font-size="10.00">mpileup2vcf_SingleSPLIT</text>
<text text-anchor="middle" x="2203.5" y="-471" font-family="sans" font-size="10.00">chrMPU2VCFSS: 1</text>
<text text-anchor="middle" x="2203.5" y="-459" font-family="sans" font-size="10.00">sampleMPU2VCFSS: Pfeiffer3</text>
<text text-anchor="middle" x="2203.5" y="-447" font-family="sans" font-size="10.00">varTypeMPU2VCFSS: indel</text>
</g>
<!-- 0&#45;&gt;42 -->
<g id="edge55" class="edge"><title>0&#45;&gt;42</title>
<path fill="none" stroke="grey" stroke-width="2" d="M2800.18,-533.712C2797.26,-533.084 2794.36,-532.508 2791.5,-532 2575.36,-493.563 2512.34,-535.667 2293.28,-496.17"/>
<polygon fill="grey" stroke="grey" stroke-width="2" points="2293.87,-492.72 2283.4,-494.353 2292.61,-499.605 2293.87,-492.72"/>
</g>
<!-- 55 -->
<g id="node56" class="node"><title>55</title>
<path fill="none" stroke="#56d88a" stroke-width="2" d="M2979,-496C2979,-496 2844,-496 2844,-496 2838,-496 2832,-490 2832,-484 2832,-484 2832,-452 2832,-452 2832,-446 2838,-440 2844,-440 2844,-440 2979,-440 2979,-440 2985,-440 2991,-446 2991,-452 2991,-452 2991,-484 2991,-484 2991,-490 2985,-496 2979,-496"/>
<text text-anchor="middle" x="2911.5" y="-483" font-family="sans" font-size="10.00">mpileup2vcf_SingleSPLIT</text>
<text text-anchor="middle" x="2911.5" y="-471" font-family="sans" font-size="10.00">chrMPU2VCFSS: 1</text>
<text text-anchor="middle" x="2911.5" y="-459" font-family="sans" font-size="10.00">sampleMPU2VCFSS: Pfeiffer3</text>
<text text-anchor="middle" x="2911.5" y="-447" font-family="sans" font-size="10.00">varTypeMPU2VCFSS: snp</text>
</g>
<!-- 0&#45;&gt;55 -->
<g id="edge75" class="edge"><title>0&#45;&gt;55</title>
<path fill="none" stroke="grey" stroke-width="2" d="M2876.36,-531.803C2880.89,-523.711 2886.19,-514.24 2891.28,-505.143"/>
<polygon fill="grey" stroke="grey" stroke-width="2" points="2894.43,-506.672 2896.26,-496.236 2888.32,-503.254 2894.43,-506.672"/>
</g>
<!-- 1 -->
<g id="node2" class="node"><title>1</title>
<path fill="none" stroke="#56d88a" stroke-width="2" d="M2094,-496C2094,-496 1959,-496 1959,-496 1953,-496 1947,-490 1947,-484 1947,-484 1947,-452 1947,-452 1947,-446 1953,-440 1959,-440 1959,-440 2094,-440 2094,-440 2100,-440 2106,-446 2106,-452 2106,-452 2106,-484 2106,-484 2106,-490 2100,-496 2094,-496"/>
<text text-anchor="middle" x="2026.5" y="-483" font-family="sans" font-size="10.00">mpileup2vcf_SingleSPLIT</text>
<text text-anchor="middle" x="2026.5" y="-471" font-family="sans" font-size="10.00">chrMPU2VCFSS: 2</text>
<text text-anchor="middle" x="2026.5" y="-459" font-family="sans" font-size="10.00">sampleMPU2VCFSS: Pfeiffer3</text>
<text text-anchor="middle" x="2026.5" y="-447" font-family="sans" font-size="10.00">varTypeMPU2VCFSS: indel</text>
</g>
<!-- 5 -->
<g id="node6" class="node"><title>5</title>
<path fill="none" stroke="#567bd8" stroke-width="2" d="M2167,-404C2167,-404 2062,-404 2062,-404 2056,-404 2050,-398 2050,-392 2050,-392 2050,-372 2050,-372 2050,-366 2056,-360 2062,-360 2062,-360 2167,-360 2167,-360 2173,-360 2179,-366 2179,-372 2179,-372 2179,-392 2179,-392 2179,-398 2173,-404 2167,-404"/>
<text text-anchor="middle" x="2114.5" y="-391" font-family="sans" font-size="10.00">vcfMERGE_varScanDIR</text>
<text text-anchor="middle" x="2114.5" y="-379" font-family="sans" font-size="10.00">sampleVCFM: Pfeiffer3</text>
<text text-anchor="middle" x="2114.5" y="-367" font-family="sans" font-size="10.00">varTypeVCFM: indel</text>
</g>
<!-- 1&#45;&gt;5 -->
<g id="edge9" class="edge"><title>1&#45;&gt;5</title>
<path fill="none" stroke="grey" stroke-width="2" d="M2054.83,-439.959C2064.42,-430.801 2075.16,-420.551 2084.85,-411.298"/>
<polygon fill="grey" stroke="grey" stroke-width="2" points="2087.55,-413.567 2092.36,-404.131 2082.71,-408.504 2087.55,-413.567"/>
</g>
<!-- 2 -->
<g id="node3" class="node"><title>2</title>
<path fill="none" stroke="#d8ac56" stroke-width="2" d="M2843,-1040C2843,-1040 2738,-1040 2738,-1040 2732,-1040 2726,-1034 2726,-1028 2726,-1028 2726,-1008 2726,-1008 2726,-1002 2732,-996 2738,-996 2738,-996 2843,-996 2843,-996 2849,-996 2855,-1002 2855,-1008 2855,-1008 2855,-1028 2855,-1028 2855,-1034 2849,-1040 2843,-1040"/>
<text text-anchor="middle" x="2790.5" y="-1027" font-family="sans" font-size="10.00">fastq2GZ</text>
<text text-anchor="middle" x="2790.5" y="-1015" font-family="sans" font-size="10.00">pathFGZ: output/fastq</text>
<text text-anchor="middle" x="2790.5" y="-1003" font-family="sans" font-size="10.00">sampleFGZ: Pfeiffer3.2</text>
</g>
<!-- 54 -->
<g id="node55" class="node"><title>54</title>
<path fill="none" stroke="#56d8a9" stroke-width="2" d="M2909.5,-960C2909.5,-960 2819.5,-960 2819.5,-960 2813.5,-960 2807.5,-954 2807.5,-948 2807.5,-948 2807.5,-936 2807.5,-936 2807.5,-930 2813.5,-924 2819.5,-924 2819.5,-924 2909.5,-924 2909.5,-924 2915.5,-924 2921.5,-930 2921.5,-936 2921.5,-936 2921.5,-948 2921.5,-948 2921.5,-954 2915.5,-960 2909.5,-960"/>
<text text-anchor="middle" x="2864.5" y="-945" font-family="sans" font-size="10.00">alignBAM_bwa</text>
<text text-anchor="middle" x="2864.5" y="-933" font-family="sans" font-size="10.00">sampleAB: Pfeiffer3</text>
</g>
<!-- 2&#45;&gt;54 -->
<g id="edge74" class="edge"><title>2&#45;&gt;54</title>
<path fill="none" stroke="grey" stroke-width="2" d="M2811.51,-995.993C2820.41,-987.091 2830.84,-976.661 2840.08,-967.42"/>
<polygon fill="grey" stroke="grey" stroke-width="2" points="2842.59,-969.861 2847.19,-960.315 2837.64,-964.911 2842.59,-969.861"/>
</g>
<!-- 3 -->
<g id="node4" class="node"><title>3</title>
<path fill="none" stroke="#afd856" stroke-width="2" d="M1235.5,-108C1235.5,-108 777.5,-108 777.5,-108 771.5,-108 765.5,-102 765.5,-96 765.5,-96 765.5,-84 765.5,-84 765.5,-78 771.5,-72 777.5,-72 777.5,-72 1235.5,-72 1235.5,-72 1241.5,-72 1247.5,-78 1247.5,-84 1247.5,-84 1247.5,-96 1247.5,-96 1247.5,-102 1241.5,-108 1235.5,-108"/>
<text text-anchor="middle" x="1006.5" y="-93" font-family="sans" font-size="10.00">vcfGetTable_utilsDIR</text>
<text text-anchor="middle" x="1006.5" y="-81" font-family="sans" font-size="10.00">sampleVCFGT: Pfeiffer2.varScan.snp.canonical_annotated.dbsnp_annotated.cosmic_annotated</text>
</g>
<!-- 51 -->
<g id="node52" class="node"><title>51</title>
<path fill="none" stroke="#56d0d8" stroke-width="2" d="M1510.5,-36C1510.5,-36 1480.5,-36 1480.5,-36 1474.5,-36 1468.5,-30 1468.5,-24 1468.5,-24 1468.5,-12 1468.5,-12 1468.5,-6 1474.5,-0 1480.5,-0 1480.5,-0 1510.5,-0 1510.5,-0 1516.5,-0 1522.5,-6 1522.5,-12 1522.5,-12 1522.5,-24 1522.5,-24 1522.5,-30 1516.5,-36 1510.5,-36"/>
<text text-anchor="middle" x="1495.5" y="-15" font-family="sans" font-size="10.00">all</text>
</g>
<!-- 3&#45;&gt;51 -->
<g id="edge69" class="edge"><title>3&#45;&gt;51</title>
<path fill="none" stroke="grey" stroke-width="2" d="M1125.5,-71.9656C1234.13,-56.4144 1388.12,-34.371 1458.19,-24.3407"/>
<polygon fill="grey" stroke="grey" stroke-width="2" points="1458.9,-27.7752 1468.3,-22.8934 1457.91,-20.8459 1458.9,-27.7752"/>
</g>
<!-- 4 -->
<g id="node5" class="node"><title>4</title>
<path fill="none" stroke="#56d88a" stroke-width="2" d="M2625,-496C2625,-496 2490,-496 2490,-496 2484,-496 2478,-490 2478,-484 2478,-484 2478,-452 2478,-452 2478,-446 2484,-440 2490,-440 2490,-440 2625,-440 2625,-440 2631,-440 2637,-446 2637,-452 2637,-452 2637,-484 2637,-484 2637,-490 2631,-496 2625,-496"/>
<text text-anchor="middle" x="2557.5" y="-483" font-family="sans" font-size="10.00">mpileup2vcf_SingleSPLIT</text>
<text text-anchor="middle" x="2557.5" y="-471" font-family="sans" font-size="10.00">chrMPU2VCFSS: 3</text>
<text text-anchor="middle" x="2557.5" y="-459" font-family="sans" font-size="10.00">sampleMPU2VCFSS: Pfeiffer3</text>
<text text-anchor="middle" x="2557.5" y="-447" font-family="sans" font-size="10.00">varTypeMPU2VCFSS: snp</text>
</g>
<!-- 14 -->
<g id="node15" class="node"><title>14</title>
<path fill="none" stroke="#567bd8" stroke-width="2" d="M2875,-404C2875,-404 2770,-404 2770,-404 2764,-404 2758,-398 2758,-392 2758,-392 2758,-372 2758,-372 2758,-366 2764,-360 2770,-360 2770,-360 2875,-360 2875,-360 2881,-360 2887,-366 2887,-372 2887,-372 2887,-392 2887,-392 2887,-398 2881,-404 2875,-404"/>
<text text-anchor="middle" x="2822.5" y="-391" font-family="sans" font-size="10.00">vcfMERGE_varScanDIR</text>
<text text-anchor="middle" x="2822.5" y="-379" font-family="sans" font-size="10.00">sampleVCFM: Pfeiffer3</text>
<text text-anchor="middle" x="2822.5" y="-367" font-family="sans" font-size="10.00">varTypeVCFM: snp</text>
</g>
<!-- 4&#45;&gt;14 -->
<g id="edge22" class="edge"><title>4&#45;&gt;14</title>
<path fill="none" stroke="grey" stroke-width="2" d="M2637.01,-441.797C2672.27,-430.622 2713.52,-417.546 2748.15,-406.567"/>
<polygon fill="grey" stroke="grey" stroke-width="2" points="2749.26,-409.888 2757.73,-403.529 2747.14,-403.215 2749.26,-409.888"/>
</g>
<!-- 6 -->
<g id="node7" class="node"><title>6</title>
<path fill="none" stroke="#56d87b" stroke-width="2" d="M1986,-324C1986,-324 1819,-324 1819,-324 1813,-324 1807,-318 1807,-312 1807,-312 1807,-300 1807,-300 1807,-294 1813,-288 1819,-288 1819,-288 1986,-288 1986,-288 1992,-288 1998,-294 1998,-300 1998,-300 1998,-312 1998,-312 1998,-318 1992,-324 1986,-324"/>
<text text-anchor="middle" x="1902.5" y="-309" font-family="sans" font-size="10.00">canonical</text>
<text text-anchor="middle" x="1902.5" y="-297" font-family="sans" font-size="10.00">sampleCAN: Pfeiffer3.varScan.indel</text>
</g>
<!-- 5&#45;&gt;6 -->
<g id="edge11" class="edge"><title>5&#45;&gt;6</title>
<path fill="none" stroke="grey" stroke-width="2" d="M2054.32,-359.993C2025.06,-349.781 1990.04,-337.556 1961.01,-327.423"/>
<polygon fill="grey" stroke="grey" stroke-width="2" points="1962.01,-324.064 1951.41,-324.073 1959.7,-330.673 1962.01,-324.064"/>
</g>
<!-- 43 -->
<g id="node44" class="node"><title>43</title>
<path fill="none" stroke="#d85656" stroke-width="2" d="M1983.5,-252C1983.5,-252 1707.5,-252 1707.5,-252 1701.5,-252 1695.5,-246 1695.5,-240 1695.5,-240 1695.5,-228 1695.5,-228 1695.5,-222 1701.5,-216 1707.5,-216 1707.5,-216 1983.5,-216 1983.5,-216 1989.5,-216 1995.5,-222 1995.5,-228 1995.5,-228 1995.5,-240 1995.5,-240 1995.5,-246 1989.5,-252 1983.5,-252"/>
<text text-anchor="middle" x="1845.5" y="-237" font-family="sans" font-size="10.00">indel</text>
<text text-anchor="middle" x="1845.5" y="-225" font-family="sans" font-size="10.00">sampleIndel: Pfeiffer3.varScan.indel.canonical_annotated</text>
</g>
<!-- 6&#45;&gt;43 -->
<g id="edge56" class="edge"><title>6&#45;&gt;43</title>
<path fill="none" stroke="grey" stroke-width="2" d="M1888.41,-287.697C1881.58,-279.305 1873.24,-269.07 1865.74,-259.861"/>
<polygon fill="grey" stroke="grey" stroke-width="2" points="1868.46,-257.649 1859.43,-252.104 1863.03,-262.069 1868.46,-257.649"/>
</g>
<!-- 7 -->
<g id="node8" class="node"><title>7</title>
<path fill="none" stroke="#56d8c1" stroke-width="2" d="M1293.5,-576C1293.5,-576 1189.5,-576 1189.5,-576 1183.5,-576 1177.5,-570 1177.5,-564 1177.5,-564 1177.5,-544 1177.5,-544 1177.5,-538 1183.5,-532 1189.5,-532 1189.5,-532 1293.5,-532 1293.5,-532 1299.5,-532 1305.5,-538 1305.5,-544 1305.5,-544 1305.5,-564 1305.5,-564 1305.5,-570 1299.5,-576 1293.5,-576"/>
<text text-anchor="middle" x="1241.5" y="-563" font-family="sans" font-size="10.00">mpileupSPLIT</text>
<text text-anchor="middle" x="1241.5" y="-551" font-family="sans" font-size="10.00">chrMPUS: 1</text>
<text text-anchor="middle" x="1241.5" y="-539" font-family="sans" font-size="10.00">sampleMPUS: Pfeiffer2</text>
</g>
<!-- 30 -->
<g id="node31" class="node"><title>30</title>
<path fill="none" stroke="#56d88a" stroke-width="2" d="M678,-496C678,-496 543,-496 543,-496 537,-496 531,-490 531,-484 531,-484 531,-452 531,-452 531,-446 537,-440 543,-440 543,-440 678,-440 678,-440 684,-440 690,-446 690,-452 690,-452 690,-484 690,-484 690,-490 684,-496 678,-496"/>
<text text-anchor="middle" x="610.5" y="-483" font-family="sans" font-size="10.00">mpileup2vcf_SingleSPLIT</text>
<text text-anchor="middle" x="610.5" y="-471" font-family="sans" font-size="10.00">chrMPU2VCFSS: 1</text>
<text text-anchor="middle" x="610.5" y="-459" font-family="sans" font-size="10.00">sampleMPU2VCFSS: Pfeiffer2</text>
<text text-anchor="middle" x="610.5" y="-447" font-family="sans" font-size="10.00">varTypeMPU2VCFSS: snp</text>
</g>
<!-- 7&#45;&gt;30 -->
<g id="edge42" class="edge"><title>7&#45;&gt;30</title>
<path fill="none" stroke="grey" stroke-width="2" d="M1177.18,-533.728C1174.26,-533.096 1171.36,-532.514 1168.5,-532 965.541,-495.429 906.193,-533.729 700.323,-496.183"/>
<polygon fill="grey" stroke="grey" stroke-width="2" points="700.879,-492.727 690.408,-494.337 699.598,-499.609 700.879,-492.727"/>
</g>
<!-- 38 -->
<g id="node39" class="node"><title>38</title>
<path fill="none" stroke="#56d88a" stroke-width="2" d="M1386,-496C1386,-496 1251,-496 1251,-496 1245,-496 1239,-490 1239,-484 1239,-484 1239,-452 1239,-452 1239,-446 1245,-440 1251,-440 1251,-440 1386,-440 1386,-440 1392,-440 1398,-446 1398,-452 1398,-452 1398,-484 1398,-484 1398,-490 1392,-496 1386,-496"/>
<text text-anchor="middle" x="1318.5" y="-483" font-family="sans" font-size="10.00">mpileup2vcf_SingleSPLIT</text>
<text text-anchor="middle" x="1318.5" y="-471" font-family="sans" font-size="10.00">chrMPU2VCFSS: 1</text>
<text text-anchor="middle" x="1318.5" y="-459" font-family="sans" font-size="10.00">sampleMPU2VCFSS: Pfeiffer2</text>
<text text-anchor="middle" x="1318.5" y="-447" font-family="sans" font-size="10.00">varTypeMPU2VCFSS: indel</text>
</g>
<!-- 7&#45;&gt;38 -->
<g id="edge51" class="edge"><title>7&#45;&gt;38</title>
<path fill="none" stroke="grey" stroke-width="2" d="M1260.93,-531.803C1268.73,-523.29 1277.94,-513.25 1286.67,-503.725"/>
<polygon fill="grey" stroke="grey" stroke-width="2" points="1289.36,-505.973 1293.53,-496.236 1284.2,-501.243 1289.36,-505.973"/>
</g>
<!-- 8 -->
<g id="node9" class="node"><title>8</title>
<path fill="none" stroke="#68d856" stroke-width="2" d="M1080.5,-180C1080.5,-180 726.5,-180 726.5,-180 720.5,-180 714.5,-174 714.5,-168 714.5,-168 714.5,-156 714.5,-156 714.5,-150 720.5,-144 726.5,-144 726.5,-144 1080.5,-144 1080.5,-144 1086.5,-144 1092.5,-150 1092.5,-156 1092.5,-156 1092.5,-168 1092.5,-168 1092.5,-174 1086.5,-180 1080.5,-180"/>
<text text-anchor="middle" x="903.5" y="-165" font-family="sans" font-size="10.00">cosmic</text>
<text text-anchor="middle" x="903.5" y="-153" font-family="sans" font-size="10.00">sampleCOS: Pfeiffer2.varScan.snp.canonical_annotated.dbsnp_annotated</text>
</g>
<!-- 8&#45;&gt;3 -->
<g id="edge4" class="edge"><title>8&#45;&gt;3</title>
<path fill="none" stroke="grey" stroke-width="2" d="M928.697,-143.876C941.914,-134.893 958.292,-123.763 972.607,-114.034"/>
<polygon fill="grey" stroke="grey" stroke-width="2" points="974.903,-116.705 981.207,-108.19 970.968,-110.916 974.903,-116.705"/>
</g>
<!-- 9 -->
<g id="node10" class="node"><title>9</title>
<path fill="none" stroke="#d8bc56" stroke-width="2" d="M1183.5,-808C1183.5,-808 1007.5,-808 1007.5,-808 1001.5,-808 995.5,-802 995.5,-796 995.5,-796 995.5,-776 995.5,-776 995.5,-770 1001.5,-764 1007.5,-764 1007.5,-764 1183.5,-764 1183.5,-764 1189.5,-764 1195.5,-770 1195.5,-776 1195.5,-776 1195.5,-796 1195.5,-796 1195.5,-802 1189.5,-808 1183.5,-808"/>
<text text-anchor="middle" x="1095.5" y="-795" font-family="sans" font-size="10.00">filteredBAM</text>
<text text-anchor="middle" x="1095.5" y="-783" font-family="sans" font-size="10.00">pathFB: output/processBam</text>
<text text-anchor="middle" x="1095.5" y="-771" font-family="sans" font-size="10.00">sampleFB: Pfeiffer2_realigned_sorted</text>
</g>
<!-- 34 -->
<g id="node35" class="node"><title>34</title>
<path fill="none" stroke="#566bd8" stroke-width="2" d="M1209,-728C1209,-728 982,-728 982,-728 976,-728 970,-722 970,-716 970,-716 970,-696 970,-696 970,-690 976,-684 982,-684 982,-684 1209,-684 1209,-684 1215,-684 1221,-690 1221,-696 1221,-696 1221,-716 1221,-716 1221,-722 1215,-728 1209,-728"/>
<text text-anchor="middle" x="1095.5" y="-715" font-family="sans" font-size="10.00">markdupBAM</text>
<text text-anchor="middle" x="1095.5" y="-703" font-family="sans" font-size="10.00">outputDIR: output</text>
<text text-anchor="middle" x="1095.5" y="-691" font-family="sans" font-size="10.00">sampleMDB: Pfeiffer2_realigned_sorted_filtered</text>
</g>
<!-- 9&#45;&gt;34 -->
<g id="edge47" class="edge"><title>9&#45;&gt;34</title>
<path fill="none" stroke="grey" stroke-width="2" d="M1095.5,-763.686C1095.5,-755.798 1095.5,-746.684 1095.5,-738.103"/>
<polygon fill="grey" stroke="grey" stroke-width="2" points="1099,-738.018 1095.5,-728.018 1092,-738.018 1099,-738.018"/>
</g>
<!-- 10 -->
<g id="node11" class="node"><title>10</title>
<path fill="none" stroke="#56d88a" stroke-width="2" d="M1917,-496C1917,-496 1782,-496 1782,-496 1776,-496 1770,-490 1770,-484 1770,-484 1770,-452 1770,-452 1770,-446 1776,-440 1782,-440 1782,-440 1917,-440 1917,-440 1923,-440 1929,-446 1929,-452 1929,-452 1929,-484 1929,-484 1929,-490 1923,-496 1917,-496"/>
<text text-anchor="middle" x="1849.5" y="-483" font-family="sans" font-size="10.00">mpileup2vcf_SingleSPLIT</text>
<text text-anchor="middle" x="1849.5" y="-471" font-family="sans" font-size="10.00">chrMPU2VCFSS: 3</text>
<text text-anchor="middle" x="1849.5" y="-459" font-family="sans" font-size="10.00">sampleMPU2VCFSS: Pfeiffer3</text>
<text text-anchor="middle" x="1849.5" y="-447" font-family="sans" font-size="10.00">varTypeMPU2VCFSS: indel</text>
</g>
<!-- 10&#45;&gt;5 -->
<g id="edge6" class="edge"><title>10&#45;&gt;5</title>
<path fill="none" stroke="grey" stroke-width="2" d="M1929.01,-441.797C1964.27,-430.622 2005.52,-417.546 2040.15,-406.567"/>
<polygon fill="grey" stroke="grey" stroke-width="2" points="2041.26,-409.888 2049.73,-403.529 2039.14,-403.215 2041.26,-409.888"/>
</g>
<!-- 11 -->
<g id="node12" class="node"><title>11</title>
<path fill="none" stroke="#56d8c1" stroke-width="2" d="M2770.5,-576C2770.5,-576 2666.5,-576 2666.5,-576 2660.5,-576 2654.5,-570 2654.5,-564 2654.5,-564 2654.5,-544 2654.5,-544 2654.5,-538 2660.5,-532 2666.5,-532 2666.5,-532 2770.5,-532 2770.5,-532 2776.5,-532 2782.5,-538 2782.5,-544 2782.5,-544 2782.5,-564 2782.5,-564 2782.5,-570 2776.5,-576 2770.5,-576"/>
<text text-anchor="middle" x="2718.5" y="-563" font-family="sans" font-size="10.00">mpileupSPLIT</text>
<text text-anchor="middle" x="2718.5" y="-551" font-family="sans" font-size="10.00">chrMPUS: 2</text>
<text text-anchor="middle" x="2718.5" y="-539" font-family="sans" font-size="10.00">sampleMPUS: Pfeiffer3</text>
</g>
<!-- 11&#45;&gt;1 -->
<g id="edge2" class="edge"><title>11&#45;&gt;1</title>
<path fill="none" stroke="grey" stroke-width="2" d="M2654.34,-536.4C2646.35,-534.714 2638.26,-533.189 2630.5,-532 2406.48,-497.694 2342.33,-536.849 2116.25,-496.164"/>
<polygon fill="grey" stroke="grey" stroke-width="2" points="2116.87,-492.72 2106.4,-494.361 2115.61,-499.606 2116.87,-492.72"/>
</g>
<!-- 58 -->
<g id="node59" class="node"><title>58</title>
<path fill="none" stroke="#56d88a" stroke-width="2" d="M2802,-496C2802,-496 2667,-496 2667,-496 2661,-496 2655,-490 2655,-484 2655,-484 2655,-452 2655,-452 2655,-446 2661,-440 2667,-440 2667,-440 2802,-440 2802,-440 2808,-440 2814,-446 2814,-452 2814,-452 2814,-484 2814,-484 2814,-490 2808,-496 2802,-496"/>
<text text-anchor="middle" x="2734.5" y="-483" font-family="sans" font-size="10.00">mpileup2vcf_SingleSPLIT</text>
<text text-anchor="middle" x="2734.5" y="-471" font-family="sans" font-size="10.00">chrMPU2VCFSS: 2</text>
<text text-anchor="middle" x="2734.5" y="-459" font-family="sans" font-size="10.00">sampleMPU2VCFSS: Pfeiffer3</text>
<text text-anchor="middle" x="2734.5" y="-447" font-family="sans" font-size="10.00">varTypeMPU2VCFSS: snp</text>
</g>
<!-- 11&#45;&gt;58 -->
<g id="edge78" class="edge"><title>11&#45;&gt;58</title>
<path fill="none" stroke="grey" stroke-width="2" d="M2722.54,-531.803C2724.01,-524.048 2725.73,-515.027 2727.4,-506.282"/>
<polygon fill="grey" stroke="grey" stroke-width="2" points="2730.88,-506.714 2729.31,-496.236 2724,-505.405 2730.88,-506.714"/>
</g>
<!-- 12 -->
<g id="node13" class="node"><title>12</title>
<path fill="none" stroke="#56d8c1" stroke-width="2" d="M1147.5,-576C1147.5,-576 1043.5,-576 1043.5,-576 1037.5,-576 1031.5,-570 1031.5,-564 1031.5,-564 1031.5,-544 1031.5,-544 1031.5,-538 1037.5,-532 1043.5,-532 1043.5,-532 1147.5,-532 1147.5,-532 1153.5,-532 1159.5,-538 1159.5,-544 1159.5,-544 1159.5,-564 1159.5,-564 1159.5,-570 1153.5,-576 1147.5,-576"/>
<text text-anchor="middle" x="1095.5" y="-563" font-family="sans" font-size="10.00">mpileupSPLIT</text>
<text text-anchor="middle" x="1095.5" y="-551" font-family="sans" font-size="10.00">chrMPUS: 3</text>
<text text-anchor="middle" x="1095.5" y="-539" font-family="sans" font-size="10.00">sampleMPUS: Pfeiffer2</text>
</g>
<!-- 35 -->
<g id="node36" class="node"><title>35</title>
<path fill="none" stroke="#56d88a" stroke-width="2" d="M501,-496C501,-496 366,-496 366,-496 360,-496 354,-490 354,-484 354,-484 354,-452 354,-452 354,-446 360,-440 366,-440 366,-440 501,-440 501,-440 507,-440 513,-446 513,-452 513,-452 513,-484 513,-484 513,-490 507,-496 501,-496"/>
<text text-anchor="middle" x="433.5" y="-483" font-family="sans" font-size="10.00">mpileup2vcf_SingleSPLIT</text>
<text text-anchor="middle" x="433.5" y="-471" font-family="sans" font-size="10.00">chrMPU2VCFSS: 3</text>
<text text-anchor="middle" x="433.5" y="-459" font-family="sans" font-size="10.00">sampleMPU2VCFSS: Pfeiffer2</text>
<text text-anchor="middle" x="433.5" y="-447" font-family="sans" font-size="10.00">varTypeMPU2VCFSS: snp</text>
</g>
<!-- 12&#45;&gt;35 -->
<g id="edge48" class="edge"><title>12&#45;&gt;35</title>
<path fill="none" stroke="grey" stroke-width="2" d="M1031.18,-533.711C1028.26,-533.083 1025.36,-532.508 1022.5,-532 805.924,-493.502 742.786,-535.729 523.298,-496.173"/>
<polygon fill="grey" stroke="grey" stroke-width="2" points="523.873,-492.72 513.405,-494.354 522.607,-499.604 523.873,-492.72"/>
</g>
<!-- 52 -->
<g id="node53" class="node"><title>52</title>
<path fill="none" stroke="#56d88a" stroke-width="2" d="M1209,-496C1209,-496 1074,-496 1074,-496 1068,-496 1062,-490 1062,-484 1062,-484 1062,-452 1062,-452 1062,-446 1068,-440 1074,-440 1074,-440 1209,-440 1209,-440 1215,-440 1221,-446 1221,-452 1221,-452 1221,-484 1221,-484 1221,-490 1215,-496 1209,-496"/>
<text text-anchor="middle" x="1141.5" y="-483" font-family="sans" font-size="10.00">mpileup2vcf_SingleSPLIT</text>
<text text-anchor="middle" x="1141.5" y="-471" font-family="sans" font-size="10.00">chrMPU2VCFSS: 3</text>
<text text-anchor="middle" x="1141.5" y="-459" font-family="sans" font-size="10.00">sampleMPU2VCFSS: Pfeiffer2</text>
<text text-anchor="middle" x="1141.5" y="-447" font-family="sans" font-size="10.00">varTypeMPU2VCFSS: indel</text>
</g>
<!-- 12&#45;&gt;52 -->
<g id="edge72" class="edge"><title>12&#45;&gt;52</title>
<path fill="none" stroke="grey" stroke-width="2" d="M1107.11,-531.803C1111.54,-523.711 1116.73,-514.24 1121.71,-505.143"/>
<polygon fill="grey" stroke="grey" stroke-width="2" points="1124.85,-506.688 1126.58,-496.236 1118.71,-503.326 1124.85,-506.688"/>
</g>
<!-- 13 -->
<g id="node14" class="node"><title>13</title>
<path fill="none" stroke="#56d88a" stroke-width="2" d="M3510,-496C3510,-496 3375,-496 3375,-496 3369,-496 3363,-490 3363,-484 3363,-484 3363,-452 3363,-452 3363,-446 3369,-440 3375,-440 3375,-440 3510,-440 3510,-440 3516,-440 3522,-446 3522,-452 3522,-452 3522,-484 3522,-484 3522,-490 3516,-496 3510,-496"/>
<text text-anchor="middle" x="3442.5" y="-483" font-family="sans" font-size="10.00">mpileup2vcf_SingleSPLIT</text>
<text text-anchor="middle" x="3442.5" y="-471" font-family="sans" font-size="10.00">chrMPU2VCFSS: GL000225.1</text>
<text text-anchor="middle" x="3442.5" y="-459" font-family="sans" font-size="10.00">sampleMPU2VCFSS: Pfeiffer3</text>
<text text-anchor="middle" x="3442.5" y="-447" font-family="sans" font-size="10.00">varTypeMPU2VCFSS: snp</text>
</g>
<!-- 13&#45;&gt;14 -->
<g id="edge20" class="edge"><title>13&#45;&gt;14</title>
<path fill="none" stroke="grey" stroke-width="2" d="M3362.63,-441.997C3359.56,-441.281 3356.51,-440.612 3353.5,-440 3192.81,-407.303 3000.71,-392.579 2897.29,-386.6"/>
<polygon fill="grey" stroke="grey" stroke-width="2" points="2897.44,-383.103 2887.26,-386.031 2897.05,-390.092 2897.44,-383.103"/>
</g>
<!-- 62 -->
<g id="node63" class="node"><title>62</title>
<path fill="none" stroke="#56d87b" stroke-width="2" d="M2782.5,-324C2782.5,-324 2622.5,-324 2622.5,-324 2616.5,-324 2610.5,-318 2610.5,-312 2610.5,-312 2610.5,-300 2610.5,-300 2610.5,-294 2616.5,-288 2622.5,-288 2622.5,-288 2782.5,-288 2782.5,-288 2788.5,-288 2794.5,-294 2794.5,-300 2794.5,-300 2794.5,-312 2794.5,-312 2794.5,-318 2788.5,-324 2782.5,-324"/>
<text text-anchor="middle" x="2702.5" y="-309" font-family="sans" font-size="10.00">canonical</text>
<text text-anchor="middle" x="2702.5" y="-297" font-family="sans" font-size="10.00">sampleCAN: Pfeiffer3.varScan.snp</text>
</g>
<!-- 14&#45;&gt;62 -->
<g id="edge82" class="edge"><title>14&#45;&gt;62</title>
<path fill="none" stroke="grey" stroke-width="2" d="M2788.43,-359.993C2773.03,-350.491 2754.79,-339.248 2739.1,-329.567"/>
<polygon fill="grey" stroke="grey" stroke-width="2" points="2740.53,-326.343 2730.19,-324.073 2736.86,-332.301 2740.53,-326.343"/>
</g>
<!-- 15 -->
<g id="node16" class="node"><title>15</title>
<path fill="none" stroke="#56d88a" stroke-width="2" d="M324,-496C324,-496 189,-496 189,-496 183,-496 177,-490 177,-484 177,-484 177,-452 177,-452 177,-446 183,-440 189,-440 189,-440 324,-440 324,-440 330,-440 336,-446 336,-452 336,-452 336,-484 336,-484 336,-490 330,-496 324,-496"/>
<text text-anchor="middle" x="256.5" y="-483" font-family="sans" font-size="10.00">mpileup2vcf_SingleSPLIT</text>
<text text-anchor="middle" x="256.5" y="-471" font-family="sans" font-size="10.00">chrMPU2VCFSS: 2</text>
<text text-anchor="middle" x="256.5" y="-459" font-family="sans" font-size="10.00">sampleMPU2VCFSS: Pfeiffer2</text>
<text text-anchor="middle" x="256.5" y="-447" font-family="sans" font-size="10.00">varTypeMPU2VCFSS: snp</text>
</g>
<!-- 49 -->
<g id="node50" class="node"><title>49</title>
<path fill="none" stroke="#567bd8" stroke-width="2" d="M504,-404C504,-404 399,-404 399,-404 393,-404 387,-398 387,-392 387,-392 387,-372 387,-372 387,-366 393,-360 399,-360 399,-360 504,-360 504,-360 510,-360 516,-366 516,-372 516,-372 516,-392 516,-392 516,-398 510,-404 504,-404"/>
<text text-anchor="middle" x="451.5" y="-391" font-family="sans" font-size="10.00">vcfMERGE_varScanDIR</text>
<text text-anchor="middle" x="451.5" y="-379" font-family="sans" font-size="10.00">sampleVCFM: Pfeiffer2</text>
<text text-anchor="middle" x="451.5" y="-367" font-family="sans" font-size="10.00">varTypeVCFM: snp</text>
</g>
<!-- 15&#45;&gt;49 -->
<g id="edge65" class="edge"><title>15&#45;&gt;49</title>
<path fill="none" stroke="grey" stroke-width="2" d="M319.273,-439.959C342.954,-429.758 369.778,-418.203 393.048,-408.179"/>
<polygon fill="grey" stroke="grey" stroke-width="2" points="394.647,-411.301 402.447,-404.131 391.878,-404.873 394.647,-411.301"/>
</g>
<!-- 16 -->
<g id="node17" class="node"><title>16</title>
<path fill="none" stroke="#59d856" stroke-width="2" d="M1169,-888C1169,-888 1022,-888 1022,-888 1016,-888 1010,-882 1010,-876 1010,-876 1010,-856 1010,-856 1010,-850 1016,-844 1022,-844 1022,-844 1169,-844 1169,-844 1175,-844 1181,-850 1181,-856 1181,-856 1181,-876 1181,-876 1181,-882 1175,-888 1169,-888"/>
<text text-anchor="middle" x="1095.5" y="-875" font-family="sans" font-size="10.00">sortBAM_biobambam</text>
<text text-anchor="middle" x="1095.5" y="-863" font-family="sans" font-size="10.00">pathSBB: output/processBam</text>
<text text-anchor="middle" x="1095.5" y="-851" font-family="sans" font-size="10.00">sampleSBB: Pfeiffer2_realigned</text>
</g>
<!-- 16&#45;&gt;9 -->
<g id="edge14" class="edge"><title>16&#45;&gt;9</title>
<path fill="none" stroke="grey" stroke-width="2" d="M1095.5,-843.686C1095.5,-835.798 1095.5,-826.684 1095.5,-818.103"/>
<polygon fill="grey" stroke="grey" stroke-width="2" points="1099,-818.018 1095.5,-808.018 1092,-818.018 1099,-818.018"/>
</g>
<!-- 17 -->
<g id="node18" class="node"><title>17</title>
<path fill="none" stroke="#56d88a" stroke-width="2" d="M147,-496C147,-496 12,-496 12,-496 6,-496 1.42109e-14,-490 1.42109e-14,-484 1.42109e-14,-484 1.42109e-14,-452 1.42109e-14,-452 1.42109e-14,-446 6,-440 12,-440 12,-440 147,-440 147,-440 153,-440 159,-446 159,-452 159,-452 159,-484 159,-484 159,-490 153,-496 147,-496"/>
<text text-anchor="middle" x="79.5" y="-483" font-family="sans" font-size="10.00">mpileup2vcf_SingleSPLIT</text>
<text text-anchor="middle" x="79.5" y="-471" font-family="sans" font-size="10.00">chrMPU2VCFSS: GL000192.1</text>
<text text-anchor="middle" x="79.5" y="-459" font-family="sans" font-size="10.00">sampleMPU2VCFSS: Pfeiffer2</text>
<text text-anchor="middle" x="79.5" y="-447" font-family="sans" font-size="10.00">varTypeMPU2VCFSS: snp</text>
</g>
<!-- 17&#45;&gt;49 -->
<g id="edge64" class="edge"><title>17&#45;&gt;49</title>
<path fill="none" stroke="grey" stroke-width="2" d="M159.025,-442.212C161.88,-441.446 164.711,-440.706 167.5,-440 237.865,-422.191 319.163,-406.345 376.698,-395.909"/>
<polygon fill="grey" stroke="grey" stroke-width="2" points="377.576,-399.307 386.797,-394.089 376.334,-392.418 377.576,-399.307"/>
</g>
<!-- 18 -->
<g id="node19" class="node"><title>18</title>
<path fill="none" stroke="#56d88a" stroke-width="2" d="M3156,-496C3156,-496 3021,-496 3021,-496 3015,-496 3009,-490 3009,-484 3009,-484 3009,-452 3009,-452 3009,-446 3015,-440 3021,-440 3021,-440 3156,-440 3156,-440 3162,-440 3168,-446 3168,-452 3168,-452 3168,-484 3168,-484 3168,-490 3162,-496 3156,-496"/>
<text text-anchor="middle" x="3088.5" y="-483" font-family="sans" font-size="10.00">mpileup2vcf_SingleSPLIT</text>
<text text-anchor="middle" x="3088.5" y="-471" font-family="sans" font-size="10.00">chrMPU2VCFSS: GL000192.1</text>
<text text-anchor="middle" x="3088.5" y="-459" font-family="sans" font-size="10.00">sampleMPU2VCFSS: Pfeiffer3</text>
<text text-anchor="middle" x="3088.5" y="-447" font-family="sans" font-size="10.00">varTypeMPU2VCFSS: snp</text>
</g>
<!-- 18&#45;&gt;14 -->
<g id="edge19" class="edge"><title>18&#45;&gt;14</title>
<path fill="none" stroke="grey" stroke-width="2" d="M3008.69,-441.797C2973.16,-430.577 2931.57,-417.443 2896.72,-406.437"/>
<polygon fill="grey" stroke="grey" stroke-width="2" points="2897.67,-403.067 2887.08,-403.393 2895.56,-409.742 2897.67,-403.067"/>
</g>
<!-- 19 -->
<g id="node20" class="node"><title>19</title>
<path fill="none" stroke="#567bd8" stroke-width="2" d="M1197,-404C1197,-404 1092,-404 1092,-404 1086,-404 1080,-398 1080,-392 1080,-392 1080,-372 1080,-372 1080,-366 1086,-360 1092,-360 1092,-360 1197,-360 1197,-360 1203,-360 1209,-366 1209,-372 1209,-372 1209,-392 1209,-392 1209,-398 1203,-404 1197,-404"/>
<text text-anchor="middle" x="1144.5" y="-391" font-family="sans" font-size="10.00">vcfMERGE_varScanDIR</text>
<text text-anchor="middle" x="1144.5" y="-379" font-family="sans" font-size="10.00">sampleVCFM: Pfeiffer2</text>
<text text-anchor="middle" x="1144.5" y="-367" font-family="sans" font-size="10.00">varTypeVCFM: indel</text>
</g>
<!-- 44 -->
<g id="node45" class="node"><title>44</title>
<path fill="none" stroke="#56d87b" stroke-width="2" d="M1320,-324C1320,-324 1153,-324 1153,-324 1147,-324 1141,-318 1141,-312 1141,-312 1141,-300 1141,-300 1141,-294 1147,-288 1153,-288 1153,-288 1320,-288 1320,-288 1326,-288 1332,-294 1332,-300 1332,-300 1332,-312 1332,-312 1332,-318 1326,-324 1320,-324"/>
<text text-anchor="middle" x="1236.5" y="-309" font-family="sans" font-size="10.00">canonical</text>
<text text-anchor="middle" x="1236.5" y="-297" font-family="sans" font-size="10.00">sampleCAN: Pfeiffer2.varScan.indel</text>
</g>
<!-- 19&#45;&gt;44 -->
<g id="edge57" class="edge"><title>19&#45;&gt;44</title>
<path fill="none" stroke="grey" stroke-width="2" d="M1170.62,-359.993C1182.1,-350.758 1195.63,-339.877 1207.43,-330.385"/>
<polygon fill="grey" stroke="grey" stroke-width="2" points="1209.68,-333.068 1215.27,-324.073 1205.29,-327.613 1209.68,-333.068"/>
</g>
<!-- 20 -->
<g id="node21" class="node"><title>20</title>
<path fill="none" stroke="#d8ac56" stroke-width="2" d="M1075,-1040C1075,-1040 970,-1040 970,-1040 964,-1040 958,-1034 958,-1028 958,-1028 958,-1008 958,-1008 958,-1002 964,-996 970,-996 970,-996 1075,-996 1075,-996 1081,-996 1087,-1002 1087,-1008 1087,-1008 1087,-1028 1087,-1028 1087,-1034 1081,-1040 1075,-1040"/>
<text text-anchor="middle" x="1022.5" y="-1027" font-family="sans" font-size="10.00">fastq2GZ</text>
<text text-anchor="middle" x="1022.5" y="-1015" font-family="sans" font-size="10.00">pathFGZ: output/fastq</text>
<text text-anchor="middle" x="1022.5" y="-1003" font-family="sans" font-size="10.00">sampleFGZ: Pfeiffer2.1</text>
</g>
<!-- 31 -->
<g id="node32" class="node"><title>31</title>
<path fill="none" stroke="#56d8a9" stroke-width="2" d="M1140.5,-960C1140.5,-960 1050.5,-960 1050.5,-960 1044.5,-960 1038.5,-954 1038.5,-948 1038.5,-948 1038.5,-936 1038.5,-936 1038.5,-930 1044.5,-924 1050.5,-924 1050.5,-924 1140.5,-924 1140.5,-924 1146.5,-924 1152.5,-930 1152.5,-936 1152.5,-936 1152.5,-948 1152.5,-948 1152.5,-954 1146.5,-960 1140.5,-960"/>
<text text-anchor="middle" x="1095.5" y="-945" font-family="sans" font-size="10.00">alignBAM_bwa</text>
<text text-anchor="middle" x="1095.5" y="-933" font-family="sans" font-size="10.00">sampleAB: Pfeiffer2</text>
</g>
<!-- 20&#45;&gt;31 -->
<g id="edge44" class="edge"><title>20&#45;&gt;31</title>
<path fill="none" stroke="grey" stroke-width="2" d="M1043.22,-995.993C1051.92,-987.179 1062.09,-976.868 1071.14,-967.694"/>
<polygon fill="grey" stroke="grey" stroke-width="2" points="1073.89,-969.892 1078.42,-960.315 1068.9,-964.976 1073.89,-969.892"/>
</g>
<!-- 21 -->
<g id="node22" class="node"><title>21</title>
<path fill="none" stroke="#afd856" stroke-width="2" d="M1803.5,-108C1803.5,-108 1437.5,-108 1437.5,-108 1431.5,-108 1425.5,-102 1425.5,-96 1425.5,-96 1425.5,-84 1425.5,-84 1425.5,-78 1431.5,-72 1437.5,-72 1437.5,-72 1803.5,-72 1803.5,-72 1809.5,-72 1815.5,-78 1815.5,-84 1815.5,-84 1815.5,-96 1815.5,-96 1815.5,-102 1809.5,-108 1803.5,-108"/>
<text text-anchor="middle" x="1620.5" y="-93" font-family="sans" font-size="10.00">vcfGetTable_utilsDIR</text>
<text text-anchor="middle" x="1620.5" y="-81" font-family="sans" font-size="10.00">sampleVCFGT: Pfeiffer3.varScan.indel.canonical_annotated.indel_annotated</text>
</g>
<!-- 21&#45;&gt;51 -->
<g id="edge71" class="edge"><title>21&#45;&gt;51</title>
<path fill="none" stroke="grey" stroke-width="2" d="M1589.92,-71.8761C1572.28,-61.9975 1550,-49.522 1531.52,-39.17"/>
<polygon fill="grey" stroke="grey" stroke-width="2" points="1533.22,-36.1117 1522.78,-34.2793 1529.8,-42.2192 1533.22,-36.1117"/>
</g>
<!-- 22 -->
<g id="node23" class="node"><title>22</title>
<path fill="none" stroke="#afd856" stroke-width="2" d="M2316.5,-108C2316.5,-108 1858.5,-108 1858.5,-108 1852.5,-108 1846.5,-102 1846.5,-96 1846.5,-96 1846.5,-84 1846.5,-84 1846.5,-78 1852.5,-72 1858.5,-72 1858.5,-72 2316.5,-72 2316.5,-72 2322.5,-72 2328.5,-78 2328.5,-84 2328.5,-84 2328.5,-96 2328.5,-96 2328.5,-102 2322.5,-108 2316.5,-108"/>
<text text-anchor="middle" x="2087.5" y="-93" font-family="sans" font-size="10.00">vcfGetTable_utilsDIR</text>
<text text-anchor="middle" x="2087.5" y="-81" font-family="sans" font-size="10.00">sampleVCFGT: Pfeiffer3.varScan.snp.canonical_annotated.dbsnp_annotated.cosmic_annotated</text>
</g>
<!-- 22&#45;&gt;51 -->
<g id="edge68" class="edge"><title>22&#45;&gt;51</title>
<path fill="none" stroke="grey" stroke-width="2" d="M1943.44,-71.9656C1807.67,-55.9119 1613.39,-32.9398 1532.77,-23.4067"/>
<polygon fill="grey" stroke="grey" stroke-width="2" points="1532.95,-19.9043 1522.61,-22.2057 1532.13,-26.8559 1532.95,-19.9043"/>
</g>
<!-- 23 -->
<g id="node24" class="node"><title>23</title>
<path fill="none" stroke="#d8ac56" stroke-width="2" d="M1222,-1040C1222,-1040 1117,-1040 1117,-1040 1111,-1040 1105,-1034 1105,-1028 1105,-1028 1105,-1008 1105,-1008 1105,-1002 1111,-996 1117,-996 1117,-996 1222,-996 1222,-996 1228,-996 1234,-1002 1234,-1008 1234,-1008 1234,-1028 1234,-1028 1234,-1034 1228,-1040 1222,-1040"/>
<text text-anchor="middle" x="1169.5" y="-1027" font-family="sans" font-size="10.00">fastq2GZ</text>
<text text-anchor="middle" x="1169.5" y="-1015" font-family="sans" font-size="10.00">pathFGZ: output/fastq</text>
<text text-anchor="middle" x="1169.5" y="-1003" font-family="sans" font-size="10.00">sampleFGZ: Pfeiffer2.2</text>
</g>
<!-- 23&#45;&gt;31 -->
<g id="edge43" class="edge"><title>23&#45;&gt;31</title>
<path fill="none" stroke="grey" stroke-width="2" d="M1148.49,-995.993C1139.59,-987.091 1129.16,-976.661 1119.92,-967.42"/>
<polygon fill="grey" stroke="grey" stroke-width="2" points="1122.36,-964.911 1112.81,-960.315 1117.41,-969.861 1122.36,-964.911"/>
</g>
<!-- 24 -->
<g id="node25" class="node"><title>24</title>
<path fill="none" stroke="#56d88a" stroke-width="2" d="M1032,-496C1032,-496 897,-496 897,-496 891,-496 885,-490 885,-484 885,-484 885,-452 885,-452 885,-446 891,-440 897,-440 897,-440 1032,-440 1032,-440 1038,-440 1044,-446 1044,-452 1044,-452 1044,-484 1044,-484 1044,-490 1038,-496 1032,-496"/>
<text text-anchor="middle" x="964.5" y="-483" font-family="sans" font-size="10.00">mpileup2vcf_SingleSPLIT</text>
<text text-anchor="middle" x="964.5" y="-471" font-family="sans" font-size="10.00">chrMPU2VCFSS: 2</text>
<text text-anchor="middle" x="964.5" y="-459" font-family="sans" font-size="10.00">sampleMPU2VCFSS: Pfeiffer2</text>
<text text-anchor="middle" x="964.5" y="-447" font-family="sans" font-size="10.00">varTypeMPU2VCFSS: indel</text>
</g>
<!-- 24&#45;&gt;19 -->
<g id="edge30" class="edge"><title>24&#45;&gt;19</title>
<path fill="none" stroke="grey" stroke-width="2" d="M1022.44,-439.959C1044.11,-429.849 1068.62,-418.408 1089.97,-408.447"/>
<polygon fill="grey" stroke="grey" stroke-width="2" points="1091.64,-411.531 1099.22,-404.131 1088.68,-405.188 1091.64,-411.531"/>
</g>
<!-- 25 -->
<g id="node26" class="node"><title>25</title>
<path fill="none" stroke="#78d856" stroke-width="2" d="M2910.5,-1112C2910.5,-1112 2816.5,-1112 2816.5,-1112 2810.5,-1112 2804.5,-1106 2804.5,-1100 2804.5,-1100 2804.5,-1088 2804.5,-1088 2804.5,-1082 2810.5,-1076 2816.5,-1076 2816.5,-1076 2910.5,-1076 2910.5,-1076 2916.5,-1076 2922.5,-1082 2922.5,-1088 2922.5,-1088 2922.5,-1100 2922.5,-1100 2922.5,-1106 2916.5,-1112 2910.5,-1112"/>
<text text-anchor="middle" x="2863.5" y="-1097" font-family="sans" font-size="10.00">bam2fastq</text>
<text text-anchor="middle" x="2863.5" y="-1085" font-family="sans" font-size="10.00">sampleB2F: Pfeiffer3</text>
</g>
<!-- 25&#45;&gt;2 -->
<g id="edge3" class="edge"><title>25&#45;&gt;2</title>
<path fill="none" stroke="grey" stroke-width="2" d="M2846.57,-1075.84C2838.18,-1067.33 2827.83,-1056.84 2818.31,-1047.2"/>
<polygon fill="grey" stroke="grey" stroke-width="2" points="2820.76,-1044.69 2811.25,-1040.03 2815.78,-1049.61 2820.76,-1044.69"/>
</g>
<!-- 56 -->
<g id="node57" class="node"><title>56</title>
<path fill="none" stroke="#d8ac56" stroke-width="2" d="M2990,-1040C2990,-1040 2885,-1040 2885,-1040 2879,-1040 2873,-1034 2873,-1028 2873,-1028 2873,-1008 2873,-1008 2873,-1002 2879,-996 2885,-996 2885,-996 2990,-996 2990,-996 2996,-996 3002,-1002 3002,-1008 3002,-1008 3002,-1028 3002,-1028 3002,-1034 2996,-1040 2990,-1040"/>
<text text-anchor="middle" x="2937.5" y="-1027" font-family="sans" font-size="10.00">fastq2GZ</text>
<text text-anchor="middle" x="2937.5" y="-1015" font-family="sans" font-size="10.00">pathFGZ: output/fastq</text>
<text text-anchor="middle" x="2937.5" y="-1003" font-family="sans" font-size="10.00">sampleFGZ: Pfeiffer3.1</text>
</g>
<!-- 25&#45;&gt;56 -->
<g id="edge76" class="edge"><title>25&#45;&gt;56</title>
<path fill="none" stroke="grey" stroke-width="2" d="M2880.66,-1075.84C2889.17,-1067.33 2899.66,-1056.84 2909.3,-1047.2"/>
<polygon fill="grey" stroke="grey" stroke-width="2" points="2911.87,-1049.58 2916.47,-1040.03 2906.92,-1044.63 2911.87,-1049.58"/>
</g>
<!-- 26 -->
<g id="node27" class="node"><title>26</title>
<path fill="none" stroke="#56d8c1" stroke-width="2" d="M1001.5,-576C1001.5,-576 897.5,-576 897.5,-576 891.5,-576 885.5,-570 885.5,-564 885.5,-564 885.5,-544 885.5,-544 885.5,-538 891.5,-532 897.5,-532 897.5,-532 1001.5,-532 1001.5,-532 1007.5,-532 1013.5,-538 1013.5,-544 1013.5,-544 1013.5,-564 1013.5,-564 1013.5,-570 1007.5,-576 1001.5,-576"/>
<text text-anchor="middle" x="949.5" y="-563" font-family="sans" font-size="10.00">mpileupSPLIT</text>
<text text-anchor="middle" x="949.5" y="-551" font-family="sans" font-size="10.00">chrMPUS: 2</text>
<text text-anchor="middle" x="949.5" y="-539" font-family="sans" font-size="10.00">sampleMPUS: Pfeiffer2</text>
</g>
<!-- 26&#45;&gt;15 -->
<g id="edge24" class="edge"><title>26&#45;&gt;15</title>
<path fill="none" stroke="grey" stroke-width="2" d="M885.089,-536.506C876.853,-534.78 868.505,-533.215 860.5,-532 636.433,-497.978 572.332,-536.857 346.247,-496.164"/>
<polygon fill="grey" stroke="grey" stroke-width="2" points="346.87,-492.72 336.403,-494.361 345.609,-499.606 346.87,-492.72"/>
</g>
<!-- 26&#45;&gt;24 -->
<g id="edge37" class="edge"><title>26&#45;&gt;24</title>
<path fill="none" stroke="grey" stroke-width="2" d="M953.285,-531.803C954.67,-524.048 956.281,-515.027 957.842,-506.282"/>
<polygon fill="grey" stroke="grey" stroke-width="2" points="961.324,-506.696 959.636,-496.236 954.433,-505.465 961.324,-506.696"/>
</g>
<!-- 27 -->
<g id="node28" class="node"><title>27</title>
<path fill="none" stroke="#56d8c1" stroke-width="2" d="M3317.5,-576C3317.5,-576 3213.5,-576 3213.5,-576 3207.5,-576 3201.5,-570 3201.5,-564 3201.5,-564 3201.5,-544 3201.5,-544 3201.5,-538 3207.5,-532 3213.5,-532 3213.5,-532 3317.5,-532 3317.5,-532 3323.5,-532 3329.5,-538 3329.5,-544 3329.5,-544 3329.5,-564 3329.5,-564 3329.5,-570 3323.5,-576 3317.5,-576"/>
<text text-anchor="middle" x="3265.5" y="-563" font-family="sans" font-size="10.00">mpileupSPLIT</text>
<text text-anchor="middle" x="3265.5" y="-551" font-family="sans" font-size="10.00">chrMPUS: GL000225.1</text>
<text text-anchor="middle" x="3265.5" y="-539" font-family="sans" font-size="10.00">sampleMPUS: Pfeiffer3</text>
</g>
<!-- 27&#45;&gt;13 -->
<g id="edge18" class="edge"><title>27&#45;&gt;13</title>
<path fill="none" stroke="grey" stroke-width="2" d="M3310.16,-531.803C3330.15,-522.32 3354.12,-510.943 3376.14,-500.494"/>
<polygon fill="grey" stroke="grey" stroke-width="2" points="3377.9,-503.53 3385.44,-496.08 3374.9,-497.206 3377.9,-503.53"/>
</g>
<!-- 63 -->
<g id="node64" class="node"><title>63</title>
<path fill="none" stroke="#56d88a" stroke-width="2" d="M3333,-496C3333,-496 3198,-496 3198,-496 3192,-496 3186,-490 3186,-484 3186,-484 3186,-452 3186,-452 3186,-446 3192,-440 3198,-440 3198,-440 3333,-440 3333,-440 3339,-440 3345,-446 3345,-452 3345,-452 3345,-484 3345,-484 3345,-490 3339,-496 3333,-496"/>
<text text-anchor="middle" x="3265.5" y="-483" font-family="sans" font-size="10.00">mpileup2vcf_SingleSPLIT</text>
<text text-anchor="middle" x="3265.5" y="-471" font-family="sans" font-size="10.00">chrMPU2VCFSS: GL000225.1</text>
<text text-anchor="middle" x="3265.5" y="-459" font-family="sans" font-size="10.00">sampleMPU2VCFSS: Pfeiffer3</text>
<text text-anchor="middle" x="3265.5" y="-447" font-family="sans" font-size="10.00">varTypeMPU2VCFSS: indel</text>
</g>
<!-- 27&#45;&gt;63 -->
<g id="edge83" class="edge"><title>27&#45;&gt;63</title>
<path fill="none" stroke="grey" stroke-width="2" d="M3265.5,-531.803C3265.5,-524.048 3265.5,-515.027 3265.5,-506.282"/>
<polygon fill="grey" stroke="grey" stroke-width="2" points="3269,-506.236 3265.5,-496.236 3262,-506.236 3269,-506.236"/>
</g>
<!-- 28 -->
<g id="node29" class="node"><title>28</title>
<path fill="none" stroke="#56a9d8" stroke-width="2" d="M2632.5,-252C2632.5,-252 2354.5,-252 2354.5,-252 2348.5,-252 2342.5,-246 2342.5,-240 2342.5,-240 2342.5,-228 2342.5,-228 2342.5,-222 2348.5,-216 2354.5,-216 2354.5,-216 2632.5,-216 2632.5,-216 2638.5,-216 2644.5,-222 2644.5,-228 2644.5,-228 2644.5,-240 2644.5,-240 2644.5,-246 2638.5,-252 2632.5,-252"/>
<text text-anchor="middle" x="2493.5" y="-237" font-family="sans" font-size="10.00">dbsnp</text>
<text text-anchor="middle" x="2493.5" y="-225" font-family="sans" font-size="10.00">sampleDbSnp: Pfeiffer3.varScan.snp.canonical_annotated</text>
</g>
<!-- 36 -->
<g id="node37" class="node"><title>36</title>
<path fill="none" stroke="#68d856" stroke-width="2" d="M2317.5,-180C2317.5,-180 1963.5,-180 1963.5,-180 1957.5,-180 1951.5,-174 1951.5,-168 1951.5,-168 1951.5,-156 1951.5,-156 1951.5,-150 1957.5,-144 1963.5,-144 1963.5,-144 2317.5,-144 2317.5,-144 2323.5,-144 2329.5,-150 2329.5,-156 2329.5,-156 2329.5,-168 2329.5,-168 2329.5,-174 2323.5,-180 2317.5,-180"/>
<text text-anchor="middle" x="2140.5" y="-165" font-family="sans" font-size="10.00">cosmic</text>
<text text-anchor="middle" x="2140.5" y="-153" font-family="sans" font-size="10.00">sampleCOS: Pfeiffer3.varScan.snp.canonical_annotated.dbsnp_annotated</text>
</g>
<!-- 28&#45;&gt;36 -->
<g id="edge49" class="edge"><title>28&#45;&gt;36</title>
<path fill="none" stroke="grey" stroke-width="2" d="M2407.6,-215.966C2355.82,-205.698 2289.77,-192.601 2236.31,-181.999"/>
<polygon fill="grey" stroke="grey" stroke-width="2" points="2236.97,-178.562 2226.48,-180.05 2235.61,-185.428 2236.97,-178.562"/>
</g>
<!-- 29 -->
<g id="node30" class="node"><title>29</title>
<path fill="none" stroke="#56d88a" stroke-width="2" d="M855,-496C855,-496 720,-496 720,-496 714,-496 708,-490 708,-484 708,-484 708,-452 708,-452 708,-446 714,-440 720,-440 720,-440 855,-440 855,-440 861,-440 867,-446 867,-452 867,-452 867,-484 867,-484 867,-490 861,-496 855,-496"/>
<text text-anchor="middle" x="787.5" y="-483" font-family="sans" font-size="10.00">mpileup2vcf_SingleSPLIT</text>
<text text-anchor="middle" x="787.5" y="-471" font-family="sans" font-size="10.00">chrMPU2VCFSS: GL000192.1</text>
<text text-anchor="middle" x="787.5" y="-459" font-family="sans" font-size="10.00">sampleMPU2VCFSS: Pfeiffer2</text>
<text text-anchor="middle" x="787.5" y="-447" font-family="sans" font-size="10.00">varTypeMPU2VCFSS: indel</text>
</g>
<!-- 29&#45;&gt;19 -->
<g id="edge29" class="edge"><title>29&#45;&gt;19</title>
<path fill="none" stroke="grey" stroke-width="2" d="M867.035,-442.251C869.887,-441.474 872.715,-440.721 875.5,-440 940.761,-423.11 1015.87,-407.51 1070.11,-396.916"/>
<polygon fill="grey" stroke="grey" stroke-width="2" points="1070.84,-400.34 1079.99,-394.997 1069.51,-393.468 1070.84,-400.34"/>
</g>
<!-- 30&#45;&gt;49 -->
<g id="edge63" class="edge"><title>30&#45;&gt;49</title>
<path fill="none" stroke="grey" stroke-width="2" d="M559.316,-439.959C540.436,-429.985 519.105,-418.716 500.43,-408.85"/>
<polygon fill="grey" stroke="grey" stroke-width="2" points="501.974,-405.707 491.497,-404.131 498.704,-411.897 501.974,-405.707"/>
</g>
<!-- 31&#45;&gt;16 -->
<g id="edge25" class="edge"><title>31&#45;&gt;16</title>
<path fill="none" stroke="grey" stroke-width="2" d="M1095.5,-923.837C1095.5,-916.165 1095.5,-906.878 1095.5,-898.053"/>
<polygon fill="grey" stroke="grey" stroke-width="2" points="1099,-898.032 1095.5,-888.032 1092,-898.032 1099,-898.032"/>
</g>
<!-- 32 -->
<g id="node33" class="node"><title>32</title>
<path fill="none" stroke="#d85656" stroke-width="2" d="M1472.5,-252C1472.5,-252 1196.5,-252 1196.5,-252 1190.5,-252 1184.5,-246 1184.5,-240 1184.5,-240 1184.5,-228 1184.5,-228 1184.5,-222 1190.5,-216 1196.5,-216 1196.5,-216 1472.5,-216 1472.5,-216 1478.5,-216 1484.5,-222 1484.5,-228 1484.5,-228 1484.5,-240 1484.5,-240 1484.5,-246 1478.5,-252 1472.5,-252"/>
<text text-anchor="middle" x="1334.5" y="-237" font-family="sans" font-size="10.00">indel</text>
<text text-anchor="middle" x="1334.5" y="-225" font-family="sans" font-size="10.00">sampleIndel: Pfeiffer2.varScan.indel.canonical_annotated</text>
</g>
<!-- 46 -->
<g id="node47" class="node"><title>46</title>
<path fill="none" stroke="#afd856" stroke-width="2" d="M1546.5,-180C1546.5,-180 1180.5,-180 1180.5,-180 1174.5,-180 1168.5,-174 1168.5,-168 1168.5,-168 1168.5,-156 1168.5,-156 1168.5,-150 1174.5,-144 1180.5,-144 1180.5,-144 1546.5,-144 1546.5,-144 1552.5,-144 1558.5,-150 1558.5,-156 1558.5,-156 1558.5,-168 1558.5,-168 1558.5,-174 1552.5,-180 1546.5,-180"/>
<text text-anchor="middle" x="1363.5" y="-165" font-family="sans" font-size="10.00">vcfGetTable_utilsDIR</text>
<text text-anchor="middle" x="1363.5" y="-153" font-family="sans" font-size="10.00">sampleVCFGT: Pfeiffer2.varScan.indel.canonical_annotated.indel_annotated</text>
</g>
<!-- 32&#45;&gt;46 -->
<g id="edge59" class="edge"><title>32&#45;&gt;46</title>
<path fill="none" stroke="grey" stroke-width="2" d="M1341.67,-215.697C1344.93,-207.813 1348.87,-198.304 1352.5,-189.546"/>
<polygon fill="grey" stroke="grey" stroke-width="2" points="1355.82,-190.683 1356.41,-180.104 1349.35,-188.003 1355.82,-190.683"/>
</g>
<!-- 33 -->
<g id="node34" class="node"><title>33</title>
<path fill="none" stroke="#56d8d0" stroke-width="2" d="M2907.5,-648C2907.5,-648 2821.5,-648 2821.5,-648 2815.5,-648 2809.5,-642 2809.5,-636 2809.5,-636 2809.5,-624 2809.5,-624 2809.5,-618 2815.5,-612 2821.5,-612 2821.5,-612 2907.5,-612 2907.5,-612 2913.5,-612 2919.5,-618 2919.5,-624 2919.5,-624 2919.5,-636 2919.5,-636 2919.5,-642 2913.5,-648 2907.5,-648"/>
<text text-anchor="middle" x="2864.5" y="-633" font-family="sans" font-size="10.00">indexBAM</text>
<text text-anchor="middle" x="2864.5" y="-621" font-family="sans" font-size="10.00">sampleIB: Pfeiffer3</text>
</g>
<!-- 33&#45;&gt;0 -->
<g id="edge1" class="edge"><title>33&#45;&gt;0</title>
<path fill="none" stroke="grey" stroke-width="2" d="M2864.5,-611.837C2864.5,-604.165 2864.5,-594.878 2864.5,-586.053"/>
<polygon fill="grey" stroke="grey" stroke-width="2" points="2868,-586.032 2864.5,-576.032 2861,-586.032 2868,-586.032"/>
</g>
<!-- 33&#45;&gt;11 -->
<g id="edge16" class="edge"><title>33&#45;&gt;11</title>
<path fill="none" stroke="grey" stroke-width="2" d="M2830.64,-611.837C2812.38,-602.581 2789.47,-590.973 2769.13,-580.664"/>
<polygon fill="grey" stroke="grey" stroke-width="2" points="2770.5,-577.431 2760,-576.032 2767.33,-583.675 2770.5,-577.431"/>
</g>
<!-- 33&#45;&gt;27 -->
<g id="edge39" class="edge"><title>33&#45;&gt;27</title>
<path fill="none" stroke="grey" stroke-width="2" d="M2919.84,-618.788C2990.51,-605.747 3113.04,-583.134 3191.63,-568.631"/>
<polygon fill="grey" stroke="grey" stroke-width="2" points="3192.27,-572.073 3201.47,-566.816 3191,-565.189 3192.27,-572.073"/>
</g>
<!-- 47 -->
<g id="node48" class="node"><title>47</title>
<path fill="none" stroke="#56d8c1" stroke-width="2" d="M2609.5,-576C2609.5,-576 2505.5,-576 2505.5,-576 2499.5,-576 2493.5,-570 2493.5,-564 2493.5,-564 2493.5,-544 2493.5,-544 2493.5,-538 2499.5,-532 2505.5,-532 2505.5,-532 2609.5,-532 2609.5,-532 2615.5,-532 2621.5,-538 2621.5,-544 2621.5,-544 2621.5,-564 2621.5,-564 2621.5,-570 2615.5,-576 2609.5,-576"/>
<text text-anchor="middle" x="2557.5" y="-563" font-family="sans" font-size="10.00">mpileupSPLIT</text>
<text text-anchor="middle" x="2557.5" y="-551" font-family="sans" font-size="10.00">chrMPUS: 3</text>
<text text-anchor="middle" x="2557.5" y="-539" font-family="sans" font-size="10.00">sampleMPUS: Pfeiffer3</text>
</g>
<!-- 33&#45;&gt;47 -->
<g id="edge60" class="edge"><title>33&#45;&gt;47</title>
<path fill="none" stroke="grey" stroke-width="2" d="M2809.26,-615.685C2759.61,-603.717 2686.3,-586.047 2631.58,-572.856"/>
<polygon fill="grey" stroke="grey" stroke-width="2" points="2632.13,-569.389 2621.59,-570.448 2630.49,-576.194 2632.13,-569.389"/>
</g>
<!-- 61 -->
<g id="node62" class="node"><title>61</title>
<path fill="none" stroke="#56d8c1" stroke-width="2" d="M3062.5,-576C3062.5,-576 2958.5,-576 2958.5,-576 2952.5,-576 2946.5,-570 2946.5,-564 2946.5,-564 2946.5,-544 2946.5,-544 2946.5,-538 2952.5,-532 2958.5,-532 2958.5,-532 3062.5,-532 3062.5,-532 3068.5,-532 3074.5,-538 3074.5,-544 3074.5,-544 3074.5,-564 3074.5,-564 3074.5,-570 3068.5,-576 3062.5,-576"/>
<text text-anchor="middle" x="3010.5" y="-563" font-family="sans" font-size="10.00">mpileupSPLIT</text>
<text text-anchor="middle" x="3010.5" y="-551" font-family="sans" font-size="10.00">chrMPUS: GL000192.1</text>
<text text-anchor="middle" x="3010.5" y="-539" font-family="sans" font-size="10.00">sampleMPUS: Pfeiffer3</text>
</g>
<!-- 33&#45;&gt;61 -->
<g id="edge81" class="edge"><title>33&#45;&gt;61</title>
<path fill="none" stroke="grey" stroke-width="2" d="M2898.36,-611.837C2916.62,-602.581 2939.53,-590.973 2959.87,-580.664"/>
<polygon fill="grey" stroke="grey" stroke-width="2" points="2961.67,-583.675 2969,-576.032 2958.5,-577.431 2961.67,-583.675"/>
</g>
<!-- 59 -->
<g id="node60" class="node"><title>59</title>
<path fill="none" stroke="#56d8d0" stroke-width="2" d="M1138.5,-648C1138.5,-648 1052.5,-648 1052.5,-648 1046.5,-648 1040.5,-642 1040.5,-636 1040.5,-636 1040.5,-624 1040.5,-624 1040.5,-618 1046.5,-612 1052.5,-612 1052.5,-612 1138.5,-612 1138.5,-612 1144.5,-612 1150.5,-618 1150.5,-624 1150.5,-624 1150.5,-636 1150.5,-636 1150.5,-642 1144.5,-648 1138.5,-648"/>
<text text-anchor="middle" x="1095.5" y="-633" font-family="sans" font-size="10.00">indexBAM</text>
<text text-anchor="middle" x="1095.5" y="-621" font-family="sans" font-size="10.00">sampleIB: Pfeiffer2</text>
</g>
<!-- 34&#45;&gt;59 -->
<g id="edge79" class="edge"><title>34&#45;&gt;59</title>
<path fill="none" stroke="grey" stroke-width="2" d="M1095.5,-683.993C1095.5,-676.061 1095.5,-666.915 1095.5,-658.478"/>
<polygon fill="grey" stroke="grey" stroke-width="2" points="1099,-658.315 1095.5,-648.315 1092,-658.315 1099,-658.315"/>
</g>
<!-- 35&#45;&gt;49 -->
<g id="edge62" class="edge"><title>35&#45;&gt;49</title>
<path fill="none" stroke="grey" stroke-width="2" d="M439.294,-439.959C441.063,-431.708 443.021,-422.57 444.841,-414.074"/>
<polygon fill="grey" stroke="grey" stroke-width="2" points="448.299,-414.642 446.972,-404.131 441.454,-413.175 448.299,-414.642"/>
</g>
<!-- 36&#45;&gt;22 -->
<g id="edge35" class="edge"><title>36&#45;&gt;22</title>
<path fill="none" stroke="grey" stroke-width="2" d="M2127.4,-143.697C2121.11,-135.389 2113.45,-125.277 2106.54,-116.141"/>
<polygon fill="grey" stroke="grey" stroke-width="2" points="2109.28,-113.964 2100.45,-108.104 2103.7,-118.19 2109.28,-113.964"/>
</g>
<!-- 37 -->
<g id="node38" class="node"><title>37</title>
<path fill="none" stroke="#56d8c1" stroke-width="2" d="M1547.5,-576C1547.5,-576 1443.5,-576 1443.5,-576 1437.5,-576 1431.5,-570 1431.5,-564 1431.5,-564 1431.5,-544 1431.5,-544 1431.5,-538 1437.5,-532 1443.5,-532 1443.5,-532 1547.5,-532 1547.5,-532 1553.5,-532 1559.5,-538 1559.5,-544 1559.5,-544 1559.5,-564 1559.5,-564 1559.5,-570 1553.5,-576 1547.5,-576"/>
<text text-anchor="middle" x="1495.5" y="-563" font-family="sans" font-size="10.00">mpileupSPLIT</text>
<text text-anchor="middle" x="1495.5" y="-551" font-family="sans" font-size="10.00">chrMPUS: GL000225.1</text>
<text text-anchor="middle" x="1495.5" y="-539" font-family="sans" font-size="10.00">sampleMPUS: Pfeiffer2</text>
</g>
<!-- 41 -->
<g id="node42" class="node"><title>41</title>
<path fill="none" stroke="#56d88a" stroke-width="2" d="M1563,-496C1563,-496 1428,-496 1428,-496 1422,-496 1416,-490 1416,-484 1416,-484 1416,-452 1416,-452 1416,-446 1422,-440 1428,-440 1428,-440 1563,-440 1563,-440 1569,-440 1575,-446 1575,-452 1575,-452 1575,-484 1575,-484 1575,-490 1569,-496 1563,-496"/>
<text text-anchor="middle" x="1495.5" y="-483" font-family="sans" font-size="10.00">mpileup2vcf_SingleSPLIT</text>
<text text-anchor="middle" x="1495.5" y="-471" font-family="sans" font-size="10.00">chrMPU2VCFSS: GL000225.1</text>
<text text-anchor="middle" x="1495.5" y="-459" font-family="sans" font-size="10.00">sampleMPU2VCFSS: Pfeiffer2</text>
<text text-anchor="middle" x="1495.5" y="-447" font-family="sans" font-size="10.00">varTypeMPU2VCFSS: snp</text>
</g>
<!-- 37&#45;&gt;41 -->
<g id="edge54" class="edge"><title>37&#45;&gt;41</title>
<path fill="none" stroke="grey" stroke-width="2" d="M1495.5,-531.803C1495.5,-524.048 1495.5,-515.027 1495.5,-506.282"/>
<polygon fill="grey" stroke="grey" stroke-width="2" points="1499,-506.236 1495.5,-496.236 1492,-506.236 1499,-506.236"/>
</g>
<!-- 57 -->
<g id="node58" class="node"><title>57</title>
<path fill="none" stroke="#56d88a" stroke-width="2" d="M1740,-496C1740,-496 1605,-496 1605,-496 1599,-496 1593,-490 1593,-484 1593,-484 1593,-452 1593,-452 1593,-446 1599,-440 1605,-440 1605,-440 1740,-440 1740,-440 1746,-440 1752,-446 1752,-452 1752,-452 1752,-484 1752,-484 1752,-490 1746,-496 1740,-496"/>
<text text-anchor="middle" x="1672.5" y="-483" font-family="sans" font-size="10.00">mpileup2vcf_SingleSPLIT</text>
<text text-anchor="middle" x="1672.5" y="-471" font-family="sans" font-size="10.00">chrMPU2VCFSS: GL000225.1</text>
<text text-anchor="middle" x="1672.5" y="-459" font-family="sans" font-size="10.00">sampleMPU2VCFSS: Pfeiffer2</text>
<text text-anchor="middle" x="1672.5" y="-447" font-family="sans" font-size="10.00">varTypeMPU2VCFSS: indel</text>
</g>
<!-- 37&#45;&gt;57 -->
<g id="edge77" class="edge"><title>37&#45;&gt;57</title>
<path fill="none" stroke="grey" stroke-width="2" d="M1540.16,-531.803C1560.15,-522.32 1584.12,-510.943 1606.14,-500.494"/>
<polygon fill="grey" stroke="grey" stroke-width="2" points="1607.9,-503.53 1615.44,-496.08 1604.9,-497.206 1607.9,-503.53"/>
</g>
<!-- 38&#45;&gt;19 -->
<g id="edge32" class="edge"><title>38&#45;&gt;19</title>
<path fill="none" stroke="grey" stroke-width="2" d="M1262.49,-439.959C1241.64,-429.894 1218.06,-418.511 1197.49,-408.581"/>
<polygon fill="grey" stroke="grey" stroke-width="2" points="1198.8,-405.326 1188.27,-404.131 1195.75,-411.63 1198.8,-405.326"/>
</g>
<!-- 39 -->
<g id="node40" class="node"><title>39</title>
<path fill="none" stroke="#56d88a" stroke-width="2" d="M2448,-496C2448,-496 2313,-496 2313,-496 2307,-496 2301,-490 2301,-484 2301,-484 2301,-452 2301,-452 2301,-446 2307,-440 2313,-440 2313,-440 2448,-440 2448,-440 2454,-440 2460,-446 2460,-452 2460,-452 2460,-484 2460,-484 2460,-490 2454,-496 2448,-496"/>
<text text-anchor="middle" x="2380.5" y="-483" font-family="sans" font-size="10.00">mpileup2vcf_SingleSPLIT</text>
<text text-anchor="middle" x="2380.5" y="-471" font-family="sans" font-size="10.00">chrMPU2VCFSS: GL000192.1</text>
<text text-anchor="middle" x="2380.5" y="-459" font-family="sans" font-size="10.00">sampleMPU2VCFSS: Pfeiffer3</text>
<text text-anchor="middle" x="2380.5" y="-447" font-family="sans" font-size="10.00">varTypeMPU2VCFSS: indel</text>
</g>
<!-- 39&#45;&gt;5 -->
<g id="edge7" class="edge"><title>39&#45;&gt;5</title>
<path fill="none" stroke="grey" stroke-width="2" d="M2300.69,-441.797C2265.16,-430.577 2223.57,-417.443 2188.72,-406.437"/>
<polygon fill="grey" stroke="grey" stroke-width="2" points="2189.67,-403.067 2179.08,-403.393 2187.56,-409.742 2189.67,-403.067"/>
</g>
<!-- 40 -->
<g id="node41" class="node"><title>40</title>
<path fill="none" stroke="#59d856" stroke-width="2" d="M2938,-888C2938,-888 2791,-888 2791,-888 2785,-888 2779,-882 2779,-876 2779,-876 2779,-856 2779,-856 2779,-850 2785,-844 2791,-844 2791,-844 2938,-844 2938,-844 2944,-844 2950,-850 2950,-856 2950,-856 2950,-876 2950,-876 2950,-882 2944,-888 2938,-888"/>
<text text-anchor="middle" x="2864.5" y="-875" font-family="sans" font-size="10.00">sortBAM_biobambam</text>
<text text-anchor="middle" x="2864.5" y="-863" font-family="sans" font-size="10.00">pathSBB: output/processBam</text>
<text text-anchor="middle" x="2864.5" y="-851" font-family="sans" font-size="10.00">sampleSBB: Pfeiffer3_realigned</text>
</g>
<!-- 60 -->
<g id="node61" class="node"><title>60</title>
<path fill="none" stroke="#d8bc56" stroke-width="2" d="M2952.5,-808C2952.5,-808 2776.5,-808 2776.5,-808 2770.5,-808 2764.5,-802 2764.5,-796 2764.5,-796 2764.5,-776 2764.5,-776 2764.5,-770 2770.5,-764 2776.5,-764 2776.5,-764 2952.5,-764 2952.5,-764 2958.5,-764 2964.5,-770 2964.5,-776 2964.5,-776 2964.5,-796 2964.5,-796 2964.5,-802 2958.5,-808 2952.5,-808"/>
<text text-anchor="middle" x="2864.5" y="-795" font-family="sans" font-size="10.00">filteredBAM</text>
<text text-anchor="middle" x="2864.5" y="-783" font-family="sans" font-size="10.00">pathFB: output/processBam</text>
<text text-anchor="middle" x="2864.5" y="-771" font-family="sans" font-size="10.00">sampleFB: Pfeiffer3_realigned_sorted</text>
</g>
<!-- 40&#45;&gt;60 -->
<g id="edge80" class="edge"><title>40&#45;&gt;60</title>
<path fill="none" stroke="grey" stroke-width="2" d="M2864.5,-843.686C2864.5,-835.798 2864.5,-826.684 2864.5,-818.103"/>
<polygon fill="grey" stroke="grey" stroke-width="2" points="2868,-818.018 2864.5,-808.018 2861,-818.018 2868,-818.018"/>
</g>
<!-- 41&#45;&gt;49 -->
<g id="edge66" class="edge"><title>41&#45;&gt;49</title>
<path fill="none" stroke="grey" stroke-width="2" d="M1415.66,-441.814C1412.58,-441.149 1409.52,-440.54 1406.5,-440 1237.85,-409.819 720.789,-391.264 526.414,-385.198"/>
<polygon fill="grey" stroke="grey" stroke-width="2" points="526.398,-381.696 516.294,-384.884 526.181,-388.692 526.398,-381.696"/>
</g>
<!-- 42&#45;&gt;5 -->
<g id="edge8" class="edge"><title>42&#45;&gt;5</title>
<path fill="none" stroke="grey" stroke-width="2" d="M2174.85,-439.959C2165.05,-430.711 2154.07,-420.348 2144.19,-411.024"/>
<polygon fill="grey" stroke="grey" stroke-width="2" points="2146.56,-408.449 2136.89,-404.131 2141.76,-413.54 2146.56,-408.449"/>
</g>
<!-- 43&#45;&gt;21 -->
<g id="edge34" class="edge"><title>43&#45;&gt;21</title>
<path fill="none" stroke="grey" stroke-width="2" d="M1818.36,-215.871C1777.82,-190.284 1701.39,-142.052 1656.31,-113.603"/>
<polygon fill="grey" stroke="grey" stroke-width="2" points="1658.06,-110.567 1647.74,-108.189 1654.33,-116.486 1658.06,-110.567"/>
</g>
<!-- 44&#45;&gt;32 -->
<g id="edge45" class="edge"><title>44&#45;&gt;32</title>
<path fill="none" stroke="grey" stroke-width="2" d="M1260.47,-287.876C1273.05,-278.893 1288.63,-267.763 1302.25,-258.034"/>
<polygon fill="grey" stroke="grey" stroke-width="2" points="1304.33,-260.85 1310.43,-252.19 1300.26,-255.154 1304.33,-260.85"/>
</g>
<!-- 45 -->
<g id="node46" class="node"><title>45</title>
<path fill="none" stroke="#56d87b" stroke-width="2" d="M637.5,-324C637.5,-324 477.5,-324 477.5,-324 471.5,-324 465.5,-318 465.5,-312 465.5,-312 465.5,-300 465.5,-300 465.5,-294 471.5,-288 477.5,-288 477.5,-288 637.5,-288 637.5,-288 643.5,-288 649.5,-294 649.5,-300 649.5,-300 649.5,-312 649.5,-312 649.5,-318 643.5,-324 637.5,-324"/>
<text text-anchor="middle" x="557.5" y="-309" font-family="sans" font-size="10.00">canonical</text>
<text text-anchor="middle" x="557.5" y="-297" font-family="sans" font-size="10.00">sampleCAN: Pfeiffer2.varScan.snp</text>
</g>
<!-- 48 -->
<g id="node49" class="node"><title>48</title>
<path fill="none" stroke="#56a9d8" stroke-width="2" d="M927.5,-252C927.5,-252 649.5,-252 649.5,-252 643.5,-252 637.5,-246 637.5,-240 637.5,-240 637.5,-228 637.5,-228 637.5,-222 643.5,-216 649.5,-216 649.5,-216 927.5,-216 927.5,-216 933.5,-216 939.5,-222 939.5,-228 939.5,-228 939.5,-240 939.5,-240 939.5,-246 933.5,-252 927.5,-252"/>
<text text-anchor="middle" x="788.5" y="-237" font-family="sans" font-size="10.00">dbsnp</text>
<text text-anchor="middle" x="788.5" y="-225" font-family="sans" font-size="10.00">sampleDbSnp: Pfeiffer2.varScan.snp.canonical_annotated</text>
</g>
<!-- 45&#45;&gt;48 -->
<g id="edge61" class="edge"><title>45&#45;&gt;48</title>
<path fill="none" stroke="grey" stroke-width="2" d="M613.714,-287.966C646.41,-278.057 687.804,-265.514 722.101,-255.121"/>
<polygon fill="grey" stroke="grey" stroke-width="2" points="723.479,-258.361 732.034,-252.111 721.449,-251.661 723.479,-258.361"/>
</g>
<!-- 46&#45;&gt;51 -->
<g id="edge70" class="edge"><title>46&#45;&gt;51</title>
<path fill="none" stroke="grey" stroke-width="2" d="M1370.93,-143.769C1379.78,-124.658 1395.97,-93.6694 1416.5,-72 1428.92,-58.8951 1445.14,-47.3184 1459.64,-38.3541"/>
<polygon fill="grey" stroke="grey" stroke-width="2" points="1461.62,-41.2527 1468.41,-33.1199 1458.03,-35.2432 1461.62,-41.2527"/>
</g>
<!-- 47&#45;&gt;4 -->
<g id="edge5" class="edge"><title>47&#45;&gt;4</title>
<path fill="none" stroke="grey" stroke-width="2" d="M2557.5,-531.803C2557.5,-524.048 2557.5,-515.027 2557.5,-506.282"/>
<polygon fill="grey" stroke="grey" stroke-width="2" points="2561,-506.236 2557.5,-496.236 2554,-506.236 2561,-506.236"/>
</g>
<!-- 47&#45;&gt;10 -->
<g id="edge15" class="edge"><title>47&#45;&gt;10</title>
<path fill="none" stroke="grey" stroke-width="2" d="M2493.06,-551.438C2381.54,-547.784 2145.44,-535.864 1939.51,-496.253"/>
<polygon fill="grey" stroke="grey" stroke-width="2" points="1939.9,-492.764 1929.42,-494.284 1938.56,-499.634 1939.9,-492.764"/>
</g>
<!-- 48&#45;&gt;8 -->
<g id="edge13" class="edge"><title>48&#45;&gt;8</title>
<path fill="none" stroke="grey" stroke-width="2" d="M816.632,-215.876C831.668,-206.724 850.367,-195.342 866.56,-185.485"/>
<polygon fill="grey" stroke="grey" stroke-width="2" points="868.538,-188.379 875.26,-180.19 864.898,-182.4 868.538,-188.379"/>
</g>
<!-- 49&#45;&gt;45 -->
<g id="edge58" class="edge"><title>49&#45;&gt;45</title>
<path fill="none" stroke="grey" stroke-width="2" d="M481.592,-359.993C495.075,-350.58 511.007,-339.458 524.785,-329.839"/>
<polygon fill="grey" stroke="grey" stroke-width="2" points="526.848,-332.667 533.044,-324.073 522.841,-326.927 526.848,-332.667"/>
</g>
<!-- 50 -->
<g id="node51" class="node"><title>50</title>
<path fill="none" stroke="#566bd8" stroke-width="2" d="M2978,-728C2978,-728 2751,-728 2751,-728 2745,-728 2739,-722 2739,-716 2739,-716 2739,-696 2739,-696 2739,-690 2745,-684 2751,-684 2751,-684 2978,-684 2978,-684 2984,-684 2990,-690 2990,-696 2990,-696 2990,-716 2990,-716 2990,-722 2984,-728 2978,-728"/>
<text text-anchor="middle" x="2864.5" y="-715" font-family="sans" font-size="10.00">markdupBAM</text>
<text text-anchor="middle" x="2864.5" y="-703" font-family="sans" font-size="10.00">outputDIR: output</text>
<text text-anchor="middle" x="2864.5" y="-691" font-family="sans" font-size="10.00">sampleMDB: Pfeiffer3_realigned_sorted_filtered</text>
</g>
<!-- 50&#45;&gt;33 -->
<g id="edge46" class="edge"><title>50&#45;&gt;33</title>
<path fill="none" stroke="grey" stroke-width="2" d="M2864.5,-683.993C2864.5,-676.061 2864.5,-666.915 2864.5,-658.478"/>
<polygon fill="grey" stroke="grey" stroke-width="2" points="2868,-658.315 2864.5,-648.315 2861,-658.315 2868,-658.315"/>
</g>
<!-- 52&#45;&gt;19 -->
<g id="edge31" class="edge"><title>52&#45;&gt;19</title>
<path fill="none" stroke="grey" stroke-width="2" d="M1142.47,-439.959C1142.76,-431.799 1143.08,-422.771 1143.38,-414.354"/>
<polygon fill="grey" stroke="grey" stroke-width="2" points="1146.89,-414.249 1143.75,-404.131 1139.89,-413.999 1146.89,-414.249"/>
</g>
<!-- 53 -->
<g id="node54" class="node"><title>53</title>
<path fill="none" stroke="#78d856" stroke-width="2" d="M1143.5,-1112C1143.5,-1112 1049.5,-1112 1049.5,-1112 1043.5,-1112 1037.5,-1106 1037.5,-1100 1037.5,-1100 1037.5,-1088 1037.5,-1088 1037.5,-1082 1043.5,-1076 1049.5,-1076 1049.5,-1076 1143.5,-1076 1143.5,-1076 1149.5,-1076 1155.5,-1082 1155.5,-1088 1155.5,-1088 1155.5,-1100 1155.5,-1100 1155.5,-1106 1149.5,-1112 1143.5,-1112"/>
<text text-anchor="middle" x="1096.5" y="-1097" font-family="sans" font-size="10.00">bam2fastq</text>
<text text-anchor="middle" x="1096.5" y="-1085" font-family="sans" font-size="10.00">sampleB2F: Pfeiffer2</text>
</g>
<!-- 53&#45;&gt;20 -->
<g id="edge33" class="edge"><title>53&#45;&gt;20</title>
<path fill="none" stroke="grey" stroke-width="2" d="M1079.34,-1075.84C1070.83,-1067.33 1060.34,-1056.84 1050.7,-1047.2"/>
<polygon fill="grey" stroke="grey" stroke-width="2" points="1053.08,-1044.63 1043.53,-1040.03 1048.13,-1049.58 1053.08,-1044.63"/>
</g>
<!-- 53&#45;&gt;23 -->
<g id="edge36" class="edge"><title>53&#45;&gt;23</title>
<path fill="none" stroke="grey" stroke-width="2" d="M1113.43,-1075.84C1121.82,-1067.33 1132.17,-1056.84 1141.69,-1047.2"/>
<polygon fill="grey" stroke="grey" stroke-width="2" points="1144.22,-1049.61 1148.75,-1040.03 1139.24,-1044.69 1144.22,-1049.61"/>
</g>
<!-- 54&#45;&gt;40 -->
<g id="edge53" class="edge"><title>54&#45;&gt;40</title>
<path fill="none" stroke="grey" stroke-width="2" d="M2864.5,-923.837C2864.5,-916.165 2864.5,-906.878 2864.5,-898.053"/>
<polygon fill="grey" stroke="grey" stroke-width="2" points="2868,-898.032 2864.5,-888.032 2861,-898.032 2868,-898.032"/>
</g>
<!-- 55&#45;&gt;14 -->
<g id="edge23" class="edge"><title>55&#45;&gt;14</title>
<path fill="none" stroke="grey" stroke-width="2" d="M2882.85,-439.959C2873.05,-430.711 2862.07,-420.348 2852.19,-411.024"/>
<polygon fill="grey" stroke="grey" stroke-width="2" points="2854.56,-408.449 2844.89,-404.131 2849.76,-413.54 2854.56,-408.449"/>
</g>
<!-- 56&#45;&gt;54 -->
<g id="edge73" class="edge"><title>56&#45;&gt;54</title>
<path fill="none" stroke="grey" stroke-width="2" d="M2916.78,-995.993C2908.08,-987.179 2897.91,-976.868 2888.86,-967.694"/>
<polygon fill="grey" stroke="grey" stroke-width="2" points="2891.1,-964.976 2881.58,-960.315 2886.11,-969.892 2891.1,-964.976"/>
</g>
<!-- 57&#45;&gt;19 -->
<g id="edge28" class="edge"><title>57&#45;&gt;19</title>
<path fill="none" stroke="grey" stroke-width="2" d="M1592.61,-442.083C1589.54,-441.343 1586.5,-440.645 1583.5,-440 1457.02,-412.799 1307.06,-396.725 1219.19,-388.905"/>
<polygon fill="grey" stroke="grey" stroke-width="2" points="1219.31,-385.403 1209.05,-388.015 1218.7,-392.376 1219.31,-385.403"/>
</g>
<!-- 58&#45;&gt;14 -->
<g id="edge21" class="edge"><title>58&#45;&gt;14</title>
<path fill="none" stroke="grey" stroke-width="2" d="M2762.83,-439.959C2772.42,-430.801 2783.16,-420.551 2792.85,-411.298"/>
<polygon fill="grey" stroke="grey" stroke-width="2" points="2795.55,-413.567 2800.36,-404.131 2790.71,-408.504 2795.55,-413.567"/>
</g>
<!-- 59&#45;&gt;7 -->
<g id="edge12" class="edge"><title>59&#45;&gt;7</title>
<path fill="none" stroke="grey" stroke-width="2" d="M1129.36,-611.837C1147.62,-602.581 1170.53,-590.973 1190.87,-580.664"/>
<polygon fill="grey" stroke="grey" stroke-width="2" points="1192.67,-583.675 1200,-576.032 1189.5,-577.431 1192.67,-583.675"/>
</g>
<!-- 59&#45;&gt;12 -->
<g id="edge17" class="edge"><title>59&#45;&gt;12</title>
<path fill="none" stroke="grey" stroke-width="2" d="M1095.5,-611.837C1095.5,-604.165 1095.5,-594.878 1095.5,-586.053"/>
<polygon fill="grey" stroke="grey" stroke-width="2" points="1099,-586.032 1095.5,-576.032 1092,-586.032 1099,-586.032"/>
</g>
<!-- 59&#45;&gt;26 -->
<g id="edge38" class="edge"><title>59&#45;&gt;26</title>
<path fill="none" stroke="grey" stroke-width="2" d="M1061.64,-611.837C1043.38,-602.581 1020.47,-590.973 1000.13,-580.664"/>
<polygon fill="grey" stroke="grey" stroke-width="2" points="1001.5,-577.431 990.996,-576.032 998.333,-583.675 1001.5,-577.431"/>
</g>
<!-- 59&#45;&gt;37 -->
<g id="edge50" class="edge"><title>59&#45;&gt;37</title>
<path fill="none" stroke="grey" stroke-width="2" d="M1150.7,-618.788C1220.95,-605.792 1342.57,-583.292 1420.99,-568.784"/>
<polygon fill="grey" stroke="grey" stroke-width="2" points="1422.09,-572.14 1431.29,-566.879 1420.82,-565.257 1422.09,-572.14"/>
</g>
<!-- 64 -->
<g id="node65" class="node"><title>64</title>
<path fill="none" stroke="#56d8c1" stroke-width="2" d="M839.5,-576C839.5,-576 735.5,-576 735.5,-576 729.5,-576 723.5,-570 723.5,-564 723.5,-564 723.5,-544 723.5,-544 723.5,-538 729.5,-532 735.5,-532 735.5,-532 839.5,-532 839.5,-532 845.5,-532 851.5,-538 851.5,-544 851.5,-544 851.5,-564 851.5,-564 851.5,-570 845.5,-576 839.5,-576"/>
<text text-anchor="middle" x="787.5" y="-563" font-family="sans" font-size="10.00">mpileupSPLIT</text>
<text text-anchor="middle" x="787.5" y="-551" font-family="sans" font-size="10.00">chrMPUS: GL000192.1</text>
<text text-anchor="middle" x="787.5" y="-539" font-family="sans" font-size="10.00">sampleMPUS: Pfeiffer2</text>
</g>
<!-- 59&#45;&gt;64 -->
<g id="edge84" class="edge"><title>59&#45;&gt;64</title>
<path fill="none" stroke="grey" stroke-width="2" d="M1040.44,-615.77C990.591,-603.795 916.766,-586.057 861.723,-572.833"/>
<polygon fill="grey" stroke="grey" stroke-width="2" points="862.215,-569.352 851.674,-570.419 860.58,-576.158 862.215,-569.352"/>
</g>
<!-- 60&#45;&gt;50 -->
<g id="edge67" class="edge"><title>60&#45;&gt;50</title>
<path fill="none" stroke="grey" stroke-width="2" d="M2864.5,-763.686C2864.5,-755.798 2864.5,-746.684 2864.5,-738.103"/>
<polygon fill="grey" stroke="grey" stroke-width="2" points="2868,-738.018 2864.5,-728.018 2861,-738.018 2868,-738.018"/>
</g>
<!-- 61&#45;&gt;18 -->
<g id="edge27" class="edge"><title>61&#45;&gt;18</title>
<path fill="none" stroke="grey" stroke-width="2" d="M3030.18,-531.803C3038.09,-523.29 3047.41,-513.25 3056.26,-503.725"/>
<polygon fill="grey" stroke="grey" stroke-width="2" points="3058.97,-505.946 3063.21,-496.236 3053.84,-501.183 3058.97,-505.946"/>
</g>
<!-- 61&#45;&gt;39 -->
<g id="edge52" class="edge"><title>61&#45;&gt;39</title>
<path fill="none" stroke="grey" stroke-width="2" d="M2946.18,-533.729C2943.26,-533.096 2940.36,-532.515 2937.5,-532 2734.97,-495.49 2675.75,-533.667 2470.3,-496.18"/>
<polygon fill="grey" stroke="grey" stroke-width="2" points="2470.88,-492.727 2460.41,-494.337 2469.6,-499.609 2470.88,-492.727"/>
</g>
<!-- 62&#45;&gt;28 -->
<g id="edge40" class="edge"><title>62&#45;&gt;28</title>
<path fill="none" stroke="grey" stroke-width="2" d="M2651.64,-287.966C2622.31,-278.142 2585.25,-265.729 2554.38,-255.389"/>
<polygon fill="grey" stroke="grey" stroke-width="2" points="2555.18,-251.968 2544.59,-252.111 2552.96,-258.606 2555.18,-251.968"/>
</g>
<!-- 63&#45;&gt;5 -->
<g id="edge10" class="edge"><title>63&#45;&gt;5</title>
<path fill="none" stroke="grey" stroke-width="2" d="M3185.67,-441.79C3182.58,-441.133 3179.52,-440.531 3176.5,-440 2986.49,-406.585 2399.04,-389.742 2189.61,-384.681"/>
<polygon fill="grey" stroke="grey" stroke-width="2" points="2189.41,-381.175 2179.33,-384.435 2189.25,-388.173 2189.41,-381.175"/>
</g>
<!-- 64&#45;&gt;17 -->
<g id="edge26" class="edge"><title>64&#45;&gt;17</title>
<path fill="none" stroke="grey" stroke-width="2" d="M723.063,-551.438C611.538,-547.784 375.437,-535.864 169.51,-496.253"/>
<polygon fill="grey" stroke="grey" stroke-width="2" points="169.903,-492.764 159.418,-494.284 168.563,-499.634 169.903,-492.764"/>
</g>
<!-- 64&#45;&gt;29 -->
<g id="edge41" class="edge"><title>64&#45;&gt;29</title>
<path fill="none" stroke="grey" stroke-width="2" d="M787.5,-531.803C787.5,-524.048 787.5,-515.027 787.5,-506.282"/>
<polygon fill="grey" stroke="grey" stroke-width="2" points="791,-506.236 787.5,-496.236 784,-506.236 791,-506.236"/>
</g>
</g>
</svg>
