<?xml version="1.0" encoding="UTF-8" standalone="no"?>
<!DOCTYPE svg PUBLIC "-//W3C//DTD SVG 1.1//EN"
 "http://www.w3.org/Graphics/SVG/1.1/DTD/svg11.dtd">
<!-- Generated by graphviz version 2.38.0 (20140413.2041)
 -->
<!-- Title: snakemake_dag Pages: 1 -->
<svg width="1806pt" height="1028pt"
 viewBox="0.00 0.00 1806.00 1028.00" xmlns="http://www.w3.org/2000/svg" xmlns:xlink="http://www.w3.org/1999/xlink">
<g id="graph0" class="graph" transform="scale(1 1) rotate(0) translate(4 1024)">
<title>snakemake_dag</title>
<polygon fill="white" stroke="none" points="-4,4 -4,-1024 1802,-1024 1802,4 -4,4"/>
<!-- 0 -->
<g id="node1" class="node"><title>0</title>
<path fill="none" stroke="#d89c56" stroke-width="2" d="M1281,-328C1281,-328 1121,-328 1121,-328 1115,-328 1109,-322 1109,-316 1109,-316 1109,-304 1109,-304 1109,-298 1115,-292 1121,-292 1121,-292 1281,-292 1281,-292 1287,-292 1293,-298 1293,-304 1293,-304 1293,-316 1293,-316 1293,-322 1287,-328 1281,-328"/>
<text text-anchor="middle" x="1201" y="-313" font-family="sans" font-size="10.00">canonical</text>
<text text-anchor="middle" x="1201" y="-301" font-family="sans" font-size="10.00">sampleCAN: Pfeiffer3.varScan.snp</text>
</g>
<!-- 13 -->
<g id="node14" class="node"><title>13</title>
<path fill="none" stroke="#d85656" stroke-width="2" d="M1335,-252C1335,-252 1057,-252 1057,-252 1051,-252 1045,-246 1045,-240 1045,-240 1045,-228 1045,-228 1045,-222 1051,-216 1057,-216 1057,-216 1335,-216 1335,-216 1341,-216 1347,-222 1347,-228 1347,-228 1347,-240 1347,-240 1347,-246 1341,-252 1335,-252"/>
<text text-anchor="middle" x="1196" y="-237" font-family="sans" font-size="10.00">dbsnp</text>
<text text-anchor="middle" x="1196" y="-225" font-family="sans" font-size="10.00">sampleDbSnp: Pfeiffer3.varScan.snp.canonical_annotated</text>
</g>
<!-- 0&#45;&gt;13 -->
<g id="edge14" class="edge"><title>0&#45;&gt;13</title>
<path fill="none" stroke="grey" stroke-width="2" d="M1199.84,-291.837C1199.25,-283.058 1198.51,-272.163 1197.84,-262.267"/>
<polygon fill="grey" stroke="grey" stroke-width="2" points="1201.32,-261.811 1197.15,-252.07 1194.34,-262.283 1201.32,-261.811"/>
</g>
<!-- 1 -->
<g id="node2" class="node"><title>1</title>
<path fill="none" stroke="#d87556" stroke-width="2" d="M1350,-180C1350,-180 996,-180 996,-180 990,-180 984,-174 984,-168 984,-168 984,-156 984,-156 984,-150 990,-144 996,-144 996,-144 1350,-144 1350,-144 1356,-144 1362,-150 1362,-156 1362,-156 1362,-168 1362,-168 1362,-174 1356,-180 1350,-180"/>
<text text-anchor="middle" x="1173" y="-165" font-family="sans" font-size="10.00">cosmic</text>
<text text-anchor="middle" x="1173" y="-153" font-family="sans" font-size="10.00">sampleCOS: Pfeiffer3.varScan.snp.canonical_annotated.dbsnp_annotated</text>
</g>
<!-- 17 -->
<g id="node18" class="node"><title>17</title>
<path fill="none" stroke="#56d89a" stroke-width="2" d="M1378,-108C1378,-108 920,-108 920,-108 914,-108 908,-102 908,-96 908,-96 908,-84 908,-84 908,-78 914,-72 920,-72 920,-72 1378,-72 1378,-72 1384,-72 1390,-78 1390,-84 1390,-84 1390,-96 1390,-96 1390,-102 1384,-108 1378,-108"/>
<text text-anchor="middle" x="1149" y="-93" font-family="sans" font-size="10.00">vcfGetTable_utilsDIR</text>
<text text-anchor="middle" x="1149" y="-81" font-family="sans" font-size="10.00">sampleVCFGT: Pfeiffer3.varScan.snp.canonical_annotated.dbsnp_annotated.cosmic_annotated</text>
</g>
<!-- 1&#45;&gt;17 -->
<g id="edge18" class="edge"><title>1&#45;&gt;17</title>
<path fill="none" stroke="grey" stroke-width="2" d="M1167.07,-143.697C1164.39,-135.898 1161.17,-126.509 1158.2,-117.829"/>
<polygon fill="grey" stroke="grey" stroke-width="2" points="1161.42,-116.429 1154.86,-108.104 1154.8,-118.699 1161.42,-116.429"/>
</g>
<!-- 2 -->
<g id="node3" class="node"><title>2</title>
<path fill="none" stroke="#78d856" stroke-width="2" d="M1374.5,-796C1374.5,-796 1227.5,-796 1227.5,-796 1221.5,-796 1215.5,-790 1215.5,-784 1215.5,-784 1215.5,-764 1215.5,-764 1215.5,-758 1221.5,-752 1227.5,-752 1227.5,-752 1374.5,-752 1374.5,-752 1380.5,-752 1386.5,-758 1386.5,-764 1386.5,-764 1386.5,-784 1386.5,-784 1386.5,-790 1380.5,-796 1374.5,-796"/>
<text text-anchor="middle" x="1301" y="-783" font-family="sans" font-size="10.00">sortBAM_biobambam</text>
<text text-anchor="middle" x="1301" y="-771" font-family="sans" font-size="10.00">pathSBB: output/processBam</text>
<text text-anchor="middle" x="1301" y="-759" font-family="sans" font-size="10.00">sampleSBB: Pfeiffer3_realigned</text>
</g>
<!-- 16 -->
<g id="node17" class="node"><title>16</title>
<path fill="none" stroke="#569ad8" stroke-width="2" d="M1389,-716C1389,-716 1213,-716 1213,-716 1207,-716 1201,-710 1201,-704 1201,-704 1201,-684 1201,-684 1201,-678 1207,-672 1213,-672 1213,-672 1389,-672 1389,-672 1395,-672 1401,-678 1401,-684 1401,-684 1401,-704 1401,-704 1401,-710 1395,-716 1389,-716"/>
<text text-anchor="middle" x="1301" y="-703" font-family="sans" font-size="10.00">filteredBAM</text>
<text text-anchor="middle" x="1301" y="-691" font-family="sans" font-size="10.00">pathFB: output/processBam</text>
<text text-anchor="middle" x="1301" y="-679" font-family="sans" font-size="10.00">sampleFB: Pfeiffer3_realigned_sorted</text>
</g>
<!-- 2&#45;&gt;16 -->
<g id="edge17" class="edge"><title>2&#45;&gt;16</title>
<path fill="none" stroke="grey" stroke-width="2" d="M1301,-751.686C1301,-743.798 1301,-734.684 1301,-726.103"/>
<polygon fill="grey" stroke="grey" stroke-width="2" points="1304.5,-726.018 1301,-716.018 1297.5,-726.018 1304.5,-726.018"/>
</g>
<!-- 3 -->
<g id="node4" class="node"><title>3</title>
<path fill="none" stroke="#56c1d8" stroke-width="2" d="M1344,-556C1344,-556 1258,-556 1258,-556 1252,-556 1246,-550 1246,-544 1246,-544 1246,-532 1246,-532 1246,-526 1252,-520 1258,-520 1258,-520 1344,-520 1344,-520 1350,-520 1356,-526 1356,-532 1356,-532 1356,-544 1356,-544 1356,-550 1350,-556 1344,-556"/>
<text text-anchor="middle" x="1301" y="-541" font-family="sans" font-size="10.00">indexBAM</text>
<text text-anchor="middle" x="1301" y="-529" font-family="sans" font-size="10.00">sampleIB: Pfeiffer3</text>
</g>
<!-- 36 -->
<g id="node37" class="node"><title>36</title>
<path fill="none" stroke="#56d88a" stroke-width="2" d="M1353.5,-484C1353.5,-484 1248.5,-484 1248.5,-484 1242.5,-484 1236.5,-478 1236.5,-472 1236.5,-472 1236.5,-460 1236.5,-460 1236.5,-454 1242.5,-448 1248.5,-448 1248.5,-448 1353.5,-448 1353.5,-448 1359.5,-448 1365.5,-454 1365.5,-460 1365.5,-460 1365.5,-472 1365.5,-472 1365.5,-478 1359.5,-484 1353.5,-484"/>
<text text-anchor="middle" x="1301" y="-469" font-family="sans" font-size="10.00">mpileupUNSPLIT</text>
<text text-anchor="middle" x="1301" y="-457" font-family="sans" font-size="10.00">sampleMPUU: Pfeiffer3</text>
</g>
<!-- 3&#45;&gt;36 -->
<g id="edge40" class="edge"><title>3&#45;&gt;36</title>
<path fill="none" stroke="grey" stroke-width="2" d="M1301,-519.697C1301,-511.983 1301,-502.712 1301,-494.112"/>
<polygon fill="grey" stroke="grey" stroke-width="2" points="1304.5,-494.104 1301,-484.104 1297.5,-494.104 1304.5,-494.104"/>
</g>
<!-- 4 -->
<g id="node5" class="node"><title>4</title>
<path fill="none" stroke="#d86656" stroke-width="2" d="M291,-332C291,-332 155,-332 155,-332 149,-332 143,-326 143,-320 143,-320 143,-300 143,-300 143,-294 149,-288 155,-288 155,-288 291,-288 291,-288 297,-288 303,-294 303,-300 303,-300 303,-320 303,-320 303,-326 297,-332 291,-332"/>
<text text-anchor="middle" x="223" y="-319" font-family="sans" font-size="10.00">mpileup2vcf_SingleUNSPLIT</text>
<text text-anchor="middle" x="223" y="-307" font-family="sans" font-size="10.00">sampleMPU2VCFSU: Pfeiffer2</text>
<text text-anchor="middle" x="223" y="-295" font-family="sans" font-size="10.00">varTypeMPU2VCFSU: indel</text>
</g>
<!-- 9 -->
<g id="node10" class="node"><title>9</title>
<path fill="none" stroke="#d89c56" stroke-width="2" d="M284.5,-252C284.5,-252 117.5,-252 117.5,-252 111.5,-252 105.5,-246 105.5,-240 105.5,-240 105.5,-228 105.5,-228 105.5,-222 111.5,-216 117.5,-216 117.5,-216 284.5,-216 284.5,-216 290.5,-216 296.5,-222 296.5,-228 296.5,-228 296.5,-240 296.5,-240 296.5,-246 290.5,-252 284.5,-252"/>
<text text-anchor="middle" x="201" y="-237" font-family="sans" font-size="10.00">canonical</text>
<text text-anchor="middle" x="201" y="-225" font-family="sans" font-size="10.00">sampleCAN: Pfeiffer2.varScan.indel</text>
</g>
<!-- 4&#45;&gt;9 -->
<g id="edge10" class="edge"><title>4&#45;&gt;9</title>
<path fill="none" stroke="grey" stroke-width="2" d="M216.755,-287.993C214.344,-279.885 211.556,-270.508 209.002,-261.916"/>
<polygon fill="grey" stroke="grey" stroke-width="2" points="212.352,-260.903 206.148,-252.315 205.643,-262.897 212.352,-260.903"/>
</g>
<!-- 5 -->
<g id="node6" class="node"><title>5</title>
<path fill="none" stroke="#56d0d8" stroke-width="2" d="M334,-180C334,-180 58,-180 58,-180 52,-180 46,-174 46,-168 46,-168 46,-156 46,-156 46,-150 52,-144 58,-144 58,-144 334,-144 334,-144 340,-144 346,-150 346,-156 346,-156 346,-168 346,-168 346,-174 340,-180 334,-180"/>
<text text-anchor="middle" x="196" y="-165" font-family="sans" font-size="10.00">indel</text>
<text text-anchor="middle" x="196" y="-153" font-family="sans" font-size="10.00">sampleIndel: Pfeiffer2.varScan.indel.canonical_annotated</text>
</g>
<!-- 10 -->
<g id="node11" class="node"><title>10</title>
<path fill="none" stroke="#56d89a" stroke-width="2" d="M378,-108C378,-108 12,-108 12,-108 6,-108 2.84217e-14,-102 2.84217e-14,-96 2.84217e-14,-96 2.84217e-14,-84 2.84217e-14,-84 2.84217e-14,-78 6,-72 12,-72 12,-72 378,-72 378,-72 384,-72 390,-78 390,-84 390,-84 390,-96 390,-96 390,-102 384,-108 378,-108"/>
<text text-anchor="middle" x="195" y="-93" font-family="sans" font-size="10.00">vcfGetTable_utilsDIR</text>
<text text-anchor="middle" x="195" y="-81" font-family="sans" font-size="10.00">sampleVCFGT: Pfeiffer2.varScan.indel.canonical_annotated.indel_annotated</text>
</g>
<!-- 5&#45;&gt;10 -->
<g id="edge11" class="edge"><title>5&#45;&gt;10</title>
<path fill="none" stroke="grey" stroke-width="2" d="M195.753,-143.697C195.643,-135.983 195.51,-126.712 195.387,-118.112"/>
<polygon fill="grey" stroke="grey" stroke-width="2" points="198.887,-118.053 195.244,-108.104 191.888,-118.153 198.887,-118.053"/>
</g>
<!-- 6 -->
<g id="node7" class="node"><title>6</title>
<path fill="none" stroke="#68d856" stroke-width="2" d="M475,-868C475,-868 385,-868 385,-868 379,-868 373,-862 373,-856 373,-856 373,-844 373,-844 373,-838 379,-832 385,-832 385,-832 475,-832 475,-832 481,-832 487,-838 487,-844 487,-844 487,-856 487,-856 487,-862 481,-868 475,-868"/>
<text text-anchor="middle" x="430" y="-853" font-family="sans" font-size="10.00">alignBAM_bwa</text>
<text text-anchor="middle" x="430" y="-841" font-family="sans" font-size="10.00">sampleAB: Pfeiffer2</text>
</g>
<!-- 23 -->
<g id="node24" class="node"><title>23</title>
<path fill="none" stroke="#78d856" stroke-width="2" d="M503.5,-796C503.5,-796 356.5,-796 356.5,-796 350.5,-796 344.5,-790 344.5,-784 344.5,-784 344.5,-764 344.5,-764 344.5,-758 350.5,-752 356.5,-752 356.5,-752 503.5,-752 503.5,-752 509.5,-752 515.5,-758 515.5,-764 515.5,-764 515.5,-784 515.5,-784 515.5,-790 509.5,-796 503.5,-796"/>
<text text-anchor="middle" x="430" y="-783" font-family="sans" font-size="10.00">sortBAM_biobambam</text>
<text text-anchor="middle" x="430" y="-771" font-family="sans" font-size="10.00">pathSBB: output/processBam</text>
<text text-anchor="middle" x="430" y="-759" font-family="sans" font-size="10.00">sampleSBB: Pfeiffer2_realigned</text>
</g>
<!-- 6&#45;&gt;23 -->
<g id="edge24" class="edge"><title>6&#45;&gt;23</title>
<path fill="none" stroke="grey" stroke-width="2" d="M430,-831.837C430,-824.165 430,-814.878 430,-806.053"/>
<polygon fill="grey" stroke="grey" stroke-width="2" points="433.5,-806.032 430,-796.032 426.5,-806.032 433.5,-806.032"/>
</g>
<!-- 7 -->
<g id="node8" class="node"><title>7</title>
<path fill="none" stroke="#56d86b" stroke-width="2" d="M1348,-1020C1348,-1020 1254,-1020 1254,-1020 1248,-1020 1242,-1014 1242,-1008 1242,-1008 1242,-996 1242,-996 1242,-990 1248,-984 1254,-984 1254,-984 1348,-984 1348,-984 1354,-984 1360,-990 1360,-996 1360,-996 1360,-1008 1360,-1008 1360,-1014 1354,-1020 1348,-1020"/>
<text text-anchor="middle" x="1301" y="-1005" font-family="sans" font-size="10.00">bam2fastq</text>
<text text-anchor="middle" x="1301" y="-993" font-family="sans" font-size="10.00">sampleB2F: Pfeiffer3</text>
</g>
<!-- 14 -->
<g id="node15" class="node"><title>14</title>
<path fill="none" stroke="#bed856" stroke-width="2" d="M1280.5,-948C1280.5,-948 1175.5,-948 1175.5,-948 1169.5,-948 1163.5,-942 1163.5,-936 1163.5,-936 1163.5,-916 1163.5,-916 1163.5,-910 1169.5,-904 1175.5,-904 1175.5,-904 1280.5,-904 1280.5,-904 1286.5,-904 1292.5,-910 1292.5,-916 1292.5,-916 1292.5,-936 1292.5,-936 1292.5,-942 1286.5,-948 1280.5,-948"/>
<text text-anchor="middle" x="1228" y="-935" font-family="sans" font-size="10.00">fastq2GZ</text>
<text text-anchor="middle" x="1228" y="-923" font-family="sans" font-size="10.00">pathFGZ: output/fastq</text>
<text text-anchor="middle" x="1228" y="-911" font-family="sans" font-size="10.00">sampleFGZ: Pfeiffer3.1</text>
</g>
<!-- 7&#45;&gt;14 -->
<g id="edge15" class="edge"><title>7&#45;&gt;14</title>
<path fill="none" stroke="grey" stroke-width="2" d="M1284.07,-983.837C1275.68,-975.331 1265.33,-964.839 1255.81,-955.195"/>
<polygon fill="grey" stroke="grey" stroke-width="2" points="1258.26,-952.693 1248.75,-948.032 1253.28,-957.609 1258.26,-952.693"/>
</g>
<!-- 29 -->
<g id="node30" class="node"><title>29</title>
<path fill="none" stroke="#bed856" stroke-width="2" d="M1427.5,-948C1427.5,-948 1322.5,-948 1322.5,-948 1316.5,-948 1310.5,-942 1310.5,-936 1310.5,-936 1310.5,-916 1310.5,-916 1310.5,-910 1316.5,-904 1322.5,-904 1322.5,-904 1427.5,-904 1427.5,-904 1433.5,-904 1439.5,-910 1439.5,-916 1439.5,-916 1439.5,-936 1439.5,-936 1439.5,-942 1433.5,-948 1427.5,-948"/>
<text text-anchor="middle" x="1375" y="-935" font-family="sans" font-size="10.00">fastq2GZ</text>
<text text-anchor="middle" x="1375" y="-923" font-family="sans" font-size="10.00">pathFGZ: output/fastq</text>
<text text-anchor="middle" x="1375" y="-911" font-family="sans" font-size="10.00">sampleFGZ: Pfeiffer3.2</text>
</g>
<!-- 7&#45;&gt;29 -->
<g id="edge34" class="edge"><title>7&#45;&gt;29</title>
<path fill="none" stroke="grey" stroke-width="2" d="M1318.16,-983.837C1326.67,-975.331 1337.16,-964.839 1346.8,-955.195"/>
<polygon fill="grey" stroke="grey" stroke-width="2" points="1349.37,-957.578 1353.97,-948.032 1344.42,-952.628 1349.37,-957.578"/>
</g>
<!-- 8 -->
<g id="node9" class="node"><title>8</title>
<path fill="none" stroke="#d89c56" stroke-width="2" d="M629,-328C629,-328 469,-328 469,-328 463,-328 457,-322 457,-316 457,-316 457,-304 457,-304 457,-298 463,-292 469,-292 469,-292 629,-292 629,-292 635,-292 641,-298 641,-304 641,-304 641,-316 641,-316 641,-322 635,-328 629,-328"/>
<text text-anchor="middle" x="549" y="-313" font-family="sans" font-size="10.00">canonical</text>
<text text-anchor="middle" x="549" y="-301" font-family="sans" font-size="10.00">sampleCAN: Pfeiffer2.varScan.snp</text>
</g>
<!-- 22 -->
<g id="node23" class="node"><title>22</title>
<path fill="none" stroke="#d85656" stroke-width="2" d="M774,-252C774,-252 496,-252 496,-252 490,-252 484,-246 484,-240 484,-240 484,-228 484,-228 484,-222 490,-216 496,-216 496,-216 774,-216 774,-216 780,-216 786,-222 786,-228 786,-228 786,-240 786,-240 786,-246 780,-252 774,-252"/>
<text text-anchor="middle" x="635" y="-237" font-family="sans" font-size="10.00">dbsnp</text>
<text text-anchor="middle" x="635" y="-225" font-family="sans" font-size="10.00">sampleDbSnp: Pfeiffer2.varScan.snp.canonical_annotated</text>
</g>
<!-- 8&#45;&gt;22 -->
<g id="edge23" class="edge"><title>8&#45;&gt;22</title>
<path fill="none" stroke="grey" stroke-width="2" d="M568.946,-291.837C580.343,-282.03 594.808,-269.584 607.294,-258.84"/>
<polygon fill="grey" stroke="grey" stroke-width="2" points="609.865,-261.246 615.162,-252.07 605.299,-255.939 609.865,-261.246"/>
</g>
<!-- 9&#45;&gt;5 -->
<g id="edge6" class="edge"><title>9&#45;&gt;5</title>
<path fill="none" stroke="grey" stroke-width="2" d="M199.764,-215.697C199.213,-207.983 198.551,-198.712 197.937,-190.112"/>
<polygon fill="grey" stroke="grey" stroke-width="2" points="201.425,-189.83 197.222,-180.104 194.443,-190.328 201.425,-189.83"/>
</g>
<!-- 26 -->
<g id="node27" class="node"><title>26</title>
<path fill="none" stroke="#567bd8" stroke-width="2" d="M914,-36C914,-36 884,-36 884,-36 878,-36 872,-30 872,-24 872,-24 872,-12 872,-12 872,-6 878,-0 884,-0 884,-0 914,-0 914,-0 920,-0 926,-6 926,-12 926,-12 926,-24 926,-24 926,-30 920,-36 914,-36"/>
<text text-anchor="middle" x="899" y="-15" font-family="sans" font-size="10.00">all</text>
</g>
<!-- 10&#45;&gt;26 -->
<g id="edge31" class="edge"><title>10&#45;&gt;26</title>
<path fill="none" stroke="grey" stroke-width="2" d="M366.318,-71.9656C531.923,-55.4991 770.733,-31.7538 861.806,-22.6983"/>
<polygon fill="grey" stroke="grey" stroke-width="2" points="862.311,-26.1655 871.915,-21.6931 861.618,-19.1998 862.311,-26.1655"/>
</g>
<!-- 11 -->
<g id="node12" class="node"><title>11</title>
<path fill="none" stroke="#d86656" stroke-width="2" d="M1280,-412C1280,-412 1144,-412 1144,-412 1138,-412 1132,-406 1132,-400 1132,-400 1132,-380 1132,-380 1132,-374 1138,-368 1144,-368 1144,-368 1280,-368 1280,-368 1286,-368 1292,-374 1292,-380 1292,-380 1292,-400 1292,-400 1292,-406 1286,-412 1280,-412"/>
<text text-anchor="middle" x="1212" y="-399" font-family="sans" font-size="10.00">mpileup2vcf_SingleUNSPLIT</text>
<text text-anchor="middle" x="1212" y="-387" font-family="sans" font-size="10.00">sampleMPU2VCFSU: Pfeiffer3</text>
<text text-anchor="middle" x="1212" y="-375" font-family="sans" font-size="10.00">varTypeMPU2VCFSU: snp</text>
</g>
<!-- 11&#45;&gt;0 -->
<g id="edge1" class="edge"><title>11&#45;&gt;0</title>
<path fill="none" stroke="grey" stroke-width="2" d="M1208.99,-367.686C1207.7,-358.544 1206.18,-347.756 1204.82,-338.059"/>
<polygon fill="grey" stroke="grey" stroke-width="2" points="1208.27,-337.507 1203.41,-328.093 1201.34,-338.484 1208.27,-337.507"/>
</g>
<!-- 12 -->
<g id="node13" class="node"><title>12</title>
<path fill="none" stroke="#56d89a" stroke-width="2" d="M1786,-108C1786,-108 1420,-108 1420,-108 1414,-108 1408,-102 1408,-96 1408,-96 1408,-84 1408,-84 1408,-78 1414,-72 1420,-72 1420,-72 1786,-72 1786,-72 1792,-72 1798,-78 1798,-84 1798,-84 1798,-96 1798,-96 1798,-102 1792,-108 1786,-108"/>
<text text-anchor="middle" x="1603" y="-93" font-family="sans" font-size="10.00">vcfGetTable_utilsDIR</text>
<text text-anchor="middle" x="1603" y="-81" font-family="sans" font-size="10.00">sampleVCFGT: Pfeiffer3.varScan.indel.canonical_annotated.indel_annotated</text>
</g>
<!-- 12&#45;&gt;26 -->
<g id="edge29" class="edge"><title>12&#45;&gt;26</title>
<path fill="none" stroke="grey" stroke-width="2" d="M1431.68,-71.9656C1266.08,-55.4991 1027.27,-31.7538 936.194,-22.6983"/>
<polygon fill="grey" stroke="grey" stroke-width="2" points="936.382,-19.1998 926.085,-21.6931 935.689,-26.1655 936.382,-19.1998"/>
</g>
<!-- 13&#45;&gt;1 -->
<g id="edge2" class="edge"><title>13&#45;&gt;1</title>
<path fill="none" stroke="grey" stroke-width="2" d="M1190.31,-215.697C1187.75,-207.898 1184.67,-198.509 1181.82,-189.829"/>
<polygon fill="grey" stroke="grey" stroke-width="2" points="1185.07,-188.512 1178.62,-180.104 1178.42,-190.697 1185.07,-188.512"/>
</g>
<!-- 24 -->
<g id="node25" class="node"><title>24</title>
<path fill="none" stroke="#68d856" stroke-width="2" d="M1346,-868C1346,-868 1256,-868 1256,-868 1250,-868 1244,-862 1244,-856 1244,-856 1244,-844 1244,-844 1244,-838 1250,-832 1256,-832 1256,-832 1346,-832 1346,-832 1352,-832 1358,-838 1358,-844 1358,-844 1358,-856 1358,-856 1358,-862 1352,-868 1346,-868"/>
<text text-anchor="middle" x="1301" y="-853" font-family="sans" font-size="10.00">alignBAM_bwa</text>
<text text-anchor="middle" x="1301" y="-841" font-family="sans" font-size="10.00">sampleAB: Pfeiffer3</text>
</g>
<!-- 14&#45;&gt;24 -->
<g id="edge25" class="edge"><title>14&#45;&gt;24</title>
<path fill="none" stroke="grey" stroke-width="2" d="M1248.72,-903.993C1257.42,-895.179 1267.59,-884.868 1276.64,-875.694"/>
<polygon fill="grey" stroke="grey" stroke-width="2" points="1279.39,-877.892 1283.92,-868.315 1274.4,-872.976 1279.39,-877.892"/>
</g>
<!-- 15 -->
<g id="node16" class="node"><title>15</title>
<path fill="none" stroke="#bed856" stroke-width="2" d="M409.5,-948C409.5,-948 304.5,-948 304.5,-948 298.5,-948 292.5,-942 292.5,-936 292.5,-936 292.5,-916 292.5,-916 292.5,-910 298.5,-904 304.5,-904 304.5,-904 409.5,-904 409.5,-904 415.5,-904 421.5,-910 421.5,-916 421.5,-916 421.5,-936 421.5,-936 421.5,-942 415.5,-948 409.5,-948"/>
<text text-anchor="middle" x="357" y="-935" font-family="sans" font-size="10.00">fastq2GZ</text>
<text text-anchor="middle" x="357" y="-923" font-family="sans" font-size="10.00">pathFGZ: output/fastq</text>
<text text-anchor="middle" x="357" y="-911" font-family="sans" font-size="10.00">sampleFGZ: Pfeiffer2.2</text>
</g>
<!-- 15&#45;&gt;6 -->
<g id="edge8" class="edge"><title>15&#45;&gt;6</title>
<path fill="none" stroke="grey" stroke-width="2" d="M377.724,-903.993C386.418,-895.179 396.59,-884.868 405.639,-875.694"/>
<polygon fill="grey" stroke="grey" stroke-width="2" points="408.388,-877.892 412.919,-868.315 403.405,-872.976 408.388,-877.892"/>
</g>
<!-- 35 -->
<g id="node36" class="node"><title>35</title>
<path fill="none" stroke="#afd856" stroke-width="2" d="M1414.5,-636C1414.5,-636 1187.5,-636 1187.5,-636 1181.5,-636 1175.5,-630 1175.5,-624 1175.5,-624 1175.5,-604 1175.5,-604 1175.5,-598 1181.5,-592 1187.5,-592 1187.5,-592 1414.5,-592 1414.5,-592 1420.5,-592 1426.5,-598 1426.5,-604 1426.5,-604 1426.5,-624 1426.5,-624 1426.5,-630 1420.5,-636 1414.5,-636"/>
<text text-anchor="middle" x="1301" y="-623" font-family="sans" font-size="10.00">markdupBAM</text>
<text text-anchor="middle" x="1301" y="-611" font-family="sans" font-size="10.00">outputDIR: output</text>
<text text-anchor="middle" x="1301" y="-599" font-family="sans" font-size="10.00">sampleMDB: Pfeiffer3_realigned_sorted_filtered</text>
</g>
<!-- 16&#45;&gt;35 -->
<g id="edge39" class="edge"><title>16&#45;&gt;35</title>
<path fill="none" stroke="grey" stroke-width="2" d="M1301,-671.686C1301,-663.798 1301,-654.684 1301,-646.103"/>
<polygon fill="grey" stroke="grey" stroke-width="2" points="1304.5,-646.018 1301,-636.018 1297.5,-646.018 1304.5,-646.018"/>
</g>
<!-- 17&#45;&gt;26 -->
<g id="edge28" class="edge"><title>17&#45;&gt;26</title>
<path fill="none" stroke="grey" stroke-width="2" d="M1088.16,-71.9656C1040.56,-58.6378 975.934,-40.5416 935.877,-29.3255"/>
<polygon fill="grey" stroke="grey" stroke-width="2" points="936.576,-25.8866 926.002,-26.5606 934.688,-32.6273 936.576,-25.8866"/>
</g>
<!-- 18 -->
<g id="node19" class="node"><title>18</title>
<path fill="none" stroke="#56d0d8" stroke-width="2" d="M1716,-180C1716,-180 1440,-180 1440,-180 1434,-180 1428,-174 1428,-168 1428,-168 1428,-156 1428,-156 1428,-150 1434,-144 1440,-144 1440,-144 1716,-144 1716,-144 1722,-144 1728,-150 1728,-156 1728,-156 1728,-168 1728,-168 1728,-174 1722,-180 1716,-180"/>
<text text-anchor="middle" x="1578" y="-165" font-family="sans" font-size="10.00">indel</text>
<text text-anchor="middle" x="1578" y="-153" font-family="sans" font-size="10.00">sampleIndel: Pfeiffer3.varScan.indel.canonical_annotated</text>
</g>
<!-- 18&#45;&gt;12 -->
<g id="edge13" class="edge"><title>18&#45;&gt;12</title>
<path fill="none" stroke="grey" stroke-width="2" d="M1584.18,-143.697C1587,-135.813 1590.39,-126.304 1593.52,-117.546"/>
<polygon fill="grey" stroke="grey" stroke-width="2" points="1596.82,-118.699 1596.89,-108.104 1590.23,-116.345 1596.82,-118.699"/>
</g>
<!-- 19 -->
<g id="node20" class="node"><title>19</title>
<path fill="none" stroke="#bed856" stroke-width="2" d="M556.5,-948C556.5,-948 451.5,-948 451.5,-948 445.5,-948 439.5,-942 439.5,-936 439.5,-936 439.5,-916 439.5,-916 439.5,-910 445.5,-904 451.5,-904 451.5,-904 556.5,-904 556.5,-904 562.5,-904 568.5,-910 568.5,-916 568.5,-916 568.5,-936 568.5,-936 568.5,-942 562.5,-948 556.5,-948"/>
<text text-anchor="middle" x="504" y="-935" font-family="sans" font-size="10.00">fastq2GZ</text>
<text text-anchor="middle" x="504" y="-923" font-family="sans" font-size="10.00">pathFGZ: output/fastq</text>
<text text-anchor="middle" x="504" y="-911" font-family="sans" font-size="10.00">sampleFGZ: Pfeiffer2.1</text>
</g>
<!-- 19&#45;&gt;6 -->
<g id="edge7" class="edge"><title>19&#45;&gt;6</title>
<path fill="none" stroke="grey" stroke-width="2" d="M482.993,-903.993C474.091,-895.091 463.661,-884.661 454.42,-875.42"/>
<polygon fill="grey" stroke="grey" stroke-width="2" points="456.861,-872.911 447.315,-868.315 451.911,-877.861 456.861,-872.911"/>
</g>
<!-- 20 -->
<g id="node21" class="node"><title>20</title>
<path fill="none" stroke="#56d89a" stroke-width="2" d="M878,-108C878,-108 420,-108 420,-108 414,-108 408,-102 408,-96 408,-96 408,-84 408,-84 408,-78 414,-72 420,-72 420,-72 878,-72 878,-72 884,-72 890,-78 890,-84 890,-84 890,-96 890,-96 890,-102 884,-108 878,-108"/>
<text text-anchor="middle" x="649" y="-93" font-family="sans" font-size="10.00">vcfGetTable_utilsDIR</text>
<text text-anchor="middle" x="649" y="-81" font-family="sans" font-size="10.00">sampleVCFGT: Pfeiffer2.varScan.snp.canonical_annotated.dbsnp_annotated.cosmic_annotated</text>
</g>
<!-- 20&#45;&gt;26 -->
<g id="edge30" class="edge"><title>20&#45;&gt;26</title>
<path fill="none" stroke="grey" stroke-width="2" d="M709.837,-71.9656C757.436,-58.6378 822.066,-40.5416 862.123,-29.3255"/>
<polygon fill="grey" stroke="grey" stroke-width="2" points="863.312,-32.6273 871.998,-26.5606 861.424,-25.8866 863.312,-32.6273"/>
</g>
<!-- 21 -->
<g id="node22" class="node"><title>21</title>
<path fill="none" stroke="#56c1d8" stroke-width="2" d="M473,-556C473,-556 387,-556 387,-556 381,-556 375,-550 375,-544 375,-544 375,-532 375,-532 375,-526 381,-520 387,-520 387,-520 473,-520 473,-520 479,-520 485,-526 485,-532 485,-532 485,-544 485,-544 485,-550 479,-556 473,-556"/>
<text text-anchor="middle" x="430" y="-541" font-family="sans" font-size="10.00">indexBAM</text>
<text text-anchor="middle" x="430" y="-529" font-family="sans" font-size="10.00">sampleIB: Pfeiffer2</text>
</g>
<!-- 27 -->
<g id="node28" class="node"><title>27</title>
<path fill="none" stroke="#56d88a" stroke-width="2" d="M482.5,-484C482.5,-484 377.5,-484 377.5,-484 371.5,-484 365.5,-478 365.5,-472 365.5,-472 365.5,-460 365.5,-460 365.5,-454 371.5,-448 377.5,-448 377.5,-448 482.5,-448 482.5,-448 488.5,-448 494.5,-454 494.5,-460 494.5,-460 494.5,-472 494.5,-472 494.5,-478 488.5,-484 482.5,-484"/>
<text text-anchor="middle" x="430" y="-469" font-family="sans" font-size="10.00">mpileupUNSPLIT</text>
<text text-anchor="middle" x="430" y="-457" font-family="sans" font-size="10.00">sampleMPUU: Pfeiffer2</text>
</g>
<!-- 21&#45;&gt;27 -->
<g id="edge32" class="edge"><title>21&#45;&gt;27</title>
<path fill="none" stroke="grey" stroke-width="2" d="M430,-519.697C430,-511.983 430,-502.712 430,-494.112"/>
<polygon fill="grey" stroke="grey" stroke-width="2" points="433.5,-494.104 430,-484.104 426.5,-494.104 433.5,-494.104"/>
</g>
<!-- 30 -->
<g id="node31" class="node"><title>30</title>
<path fill="none" stroke="#d87556" stroke-width="2" d="M823,-180C823,-180 469,-180 469,-180 463,-180 457,-174 457,-168 457,-168 457,-156 457,-156 457,-150 463,-144 469,-144 469,-144 823,-144 823,-144 829,-144 835,-150 835,-156 835,-156 835,-168 835,-168 835,-174 829,-180 823,-180"/>
<text text-anchor="middle" x="646" y="-165" font-family="sans" font-size="10.00">cosmic</text>
<text text-anchor="middle" x="646" y="-153" font-family="sans" font-size="10.00">sampleCOS: Pfeiffer2.varScan.snp.canonical_annotated.dbsnp_annotated</text>
</g>
<!-- 22&#45;&gt;30 -->
<g id="edge35" class="edge"><title>22&#45;&gt;30</title>
<path fill="none" stroke="grey" stroke-width="2" d="M637.719,-215.697C638.931,-207.983 640.388,-198.712 641.739,-190.112"/>
<polygon fill="grey" stroke="grey" stroke-width="2" points="645.217,-190.526 643.312,-180.104 638.302,-189.44 645.217,-190.526"/>
</g>
<!-- 31 -->
<g id="node32" class="node"><title>31</title>
<path fill="none" stroke="#569ad8" stroke-width="2" d="M518,-716C518,-716 342,-716 342,-716 336,-716 330,-710 330,-704 330,-704 330,-684 330,-684 330,-678 336,-672 342,-672 342,-672 518,-672 518,-672 524,-672 530,-678 530,-684 530,-684 530,-704 530,-704 530,-710 524,-716 518,-716"/>
<text text-anchor="middle" x="430" y="-703" font-family="sans" font-size="10.00">filteredBAM</text>
<text text-anchor="middle" x="430" y="-691" font-family="sans" font-size="10.00">pathFB: output/processBam</text>
<text text-anchor="middle" x="430" y="-679" font-family="sans" font-size="10.00">sampleFB: Pfeiffer2_realigned_sorted</text>
</g>
<!-- 23&#45;&gt;31 -->
<g id="edge36" class="edge"><title>23&#45;&gt;31</title>
<path fill="none" stroke="grey" stroke-width="2" d="M430,-751.686C430,-743.798 430,-734.684 430,-726.103"/>
<polygon fill="grey" stroke="grey" stroke-width="2" points="433.5,-726.018 430,-716.018 426.5,-726.018 433.5,-726.018"/>
</g>
<!-- 24&#45;&gt;2 -->
<g id="edge3" class="edge"><title>24&#45;&gt;2</title>
<path fill="none" stroke="grey" stroke-width="2" d="M1301,-831.837C1301,-824.165 1301,-814.878 1301,-806.053"/>
<polygon fill="grey" stroke="grey" stroke-width="2" points="1304.5,-806.032 1301,-796.032 1297.5,-806.032 1304.5,-806.032"/>
</g>
<!-- 25 -->
<g id="node26" class="node"><title>25</title>
<path fill="none" stroke="#d89c56" stroke-width="2" d="M1590.5,-252C1590.5,-252 1423.5,-252 1423.5,-252 1417.5,-252 1411.5,-246 1411.5,-240 1411.5,-240 1411.5,-228 1411.5,-228 1411.5,-222 1417.5,-216 1423.5,-216 1423.5,-216 1590.5,-216 1590.5,-216 1596.5,-216 1602.5,-222 1602.5,-228 1602.5,-228 1602.5,-240 1602.5,-240 1602.5,-246 1596.5,-252 1590.5,-252"/>
<text text-anchor="middle" x="1507" y="-237" font-family="sans" font-size="10.00">canonical</text>
<text text-anchor="middle" x="1507" y="-225" font-family="sans" font-size="10.00">sampleCAN: Pfeiffer3.varScan.indel</text>
</g>
<!-- 25&#45;&gt;18 -->
<g id="edge19" class="edge"><title>25&#45;&gt;18</title>
<path fill="none" stroke="grey" stroke-width="2" d="M1524.55,-215.697C1533.23,-207.135 1543.86,-196.656 1553.35,-187.304"/>
<polygon fill="grey" stroke="grey" stroke-width="2" points="1555.99,-189.617 1560.65,-180.104 1551.07,-184.633 1555.99,-189.617"/>
</g>
<!-- 27&#45;&gt;4 -->
<g id="edge5" class="edge"><title>27&#45;&gt;4</title>
<path fill="none" stroke="grey" stroke-width="2" d="M407.056,-447.931C371.333,-421.354 302.1,-369.848 259.477,-338.137"/>
<polygon fill="grey" stroke="grey" stroke-width="2" points="261.437,-335.233 251.325,-332.073 257.259,-340.85 261.437,-335.233"/>
</g>
<!-- 28 -->
<g id="node29" class="node"><title>28</title>
<path fill="none" stroke="#d86656" stroke-width="2" d="M574,-412C574,-412 438,-412 438,-412 432,-412 426,-406 426,-400 426,-400 426,-380 426,-380 426,-374 432,-368 438,-368 438,-368 574,-368 574,-368 580,-368 586,-374 586,-380 586,-380 586,-400 586,-400 586,-406 580,-412 574,-412"/>
<text text-anchor="middle" x="506" y="-399" font-family="sans" font-size="10.00">mpileup2vcf_SingleUNSPLIT</text>
<text text-anchor="middle" x="506" y="-387" font-family="sans" font-size="10.00">sampleMPU2VCFSU: Pfeiffer2</text>
<text text-anchor="middle" x="506" y="-375" font-family="sans" font-size="10.00">varTypeMPU2VCFSU: snp</text>
</g>
<!-- 27&#45;&gt;28 -->
<g id="edge33" class="edge"><title>27&#45;&gt;28</title>
<path fill="none" stroke="grey" stroke-width="2" d="M447.627,-447.837C456.363,-439.331 467.138,-428.839 477.043,-419.195"/>
<polygon fill="grey" stroke="grey" stroke-width="2" points="479.676,-421.516 484.399,-412.032 474.793,-416.501 479.676,-421.516"/>
</g>
<!-- 28&#45;&gt;8 -->
<g id="edge9" class="edge"><title>28&#45;&gt;8</title>
<path fill="none" stroke="grey" stroke-width="2" d="M517.75,-367.686C522.951,-358.252 529.118,-347.066 534.593,-337.134"/>
<polygon fill="grey" stroke="grey" stroke-width="2" points="537.814,-338.54 539.577,-328.093 531.684,-335.161 537.814,-338.54"/>
</g>
<!-- 29&#45;&gt;24 -->
<g id="edge26" class="edge"><title>29&#45;&gt;24</title>
<path fill="none" stroke="grey" stroke-width="2" d="M1353.99,-903.993C1345.09,-895.091 1334.66,-884.661 1325.42,-875.42"/>
<polygon fill="grey" stroke="grey" stroke-width="2" points="1327.86,-872.911 1318.31,-868.315 1322.91,-877.861 1327.86,-872.911"/>
</g>
<!-- 30&#45;&gt;20 -->
<g id="edge21" class="edge"><title>30&#45;&gt;20</title>
<path fill="none" stroke="grey" stroke-width="2" d="M646.742,-143.697C647.072,-135.983 647.469,-126.712 647.838,-118.112"/>
<polygon fill="grey" stroke="grey" stroke-width="2" points="651.335,-118.245 648.267,-108.104 644.342,-117.945 651.335,-118.245"/>
</g>
<!-- 34 -->
<g id="node35" class="node"><title>34</title>
<path fill="none" stroke="#afd856" stroke-width="2" d="M543.5,-636C543.5,-636 316.5,-636 316.5,-636 310.5,-636 304.5,-630 304.5,-624 304.5,-624 304.5,-604 304.5,-604 304.5,-598 310.5,-592 316.5,-592 316.5,-592 543.5,-592 543.5,-592 549.5,-592 555.5,-598 555.5,-604 555.5,-604 555.5,-624 555.5,-624 555.5,-630 549.5,-636 543.5,-636"/>
<text text-anchor="middle" x="430" y="-623" font-family="sans" font-size="10.00">markdupBAM</text>
<text text-anchor="middle" x="430" y="-611" font-family="sans" font-size="10.00">outputDIR: output</text>
<text text-anchor="middle" x="430" y="-599" font-family="sans" font-size="10.00">sampleMDB: Pfeiffer2_realigned_sorted_filtered</text>
</g>
<!-- 31&#45;&gt;34 -->
<g id="edge38" class="edge"><title>31&#45;&gt;34</title>
<path fill="none" stroke="grey" stroke-width="2" d="M430,-671.686C430,-663.798 430,-654.684 430,-646.103"/>
<polygon fill="grey" stroke="grey" stroke-width="2" points="433.5,-646.018 430,-636.018 426.5,-646.018 433.5,-646.018"/>
</g>
<!-- 32 -->
<g id="node33" class="node"><title>32</title>
<path fill="none" stroke="#56d86b" stroke-width="2" d="M478,-1020C478,-1020 384,-1020 384,-1020 378,-1020 372,-1014 372,-1008 372,-1008 372,-996 372,-996 372,-990 378,-984 384,-984 384,-984 478,-984 478,-984 484,-984 490,-990 490,-996 490,-996 490,-1008 490,-1008 490,-1014 484,-1020 478,-1020"/>
<text text-anchor="middle" x="431" y="-1005" font-family="sans" font-size="10.00">bam2fastq</text>
<text text-anchor="middle" x="431" y="-993" font-family="sans" font-size="10.00">sampleB2F: Pfeiffer2</text>
</g>
<!-- 32&#45;&gt;15 -->
<g id="edge16" class="edge"><title>32&#45;&gt;15</title>
<path fill="none" stroke="grey" stroke-width="2" d="M413.837,-983.837C405.331,-975.331 394.839,-964.839 385.195,-955.195"/>
<polygon fill="grey" stroke="grey" stroke-width="2" points="387.578,-952.628 378.032,-948.032 382.628,-957.578 387.578,-952.628"/>
</g>
<!-- 32&#45;&gt;19 -->
<g id="edge20" class="edge"><title>32&#45;&gt;19</title>
<path fill="none" stroke="grey" stroke-width="2" d="M447.931,-983.837C456.322,-975.331 466.672,-964.839 476.186,-955.195"/>
<polygon fill="grey" stroke="grey" stroke-width="2" points="478.721,-957.609 483.252,-948.032 473.738,-952.693 478.721,-957.609"/>
</g>
<!-- 33 -->
<g id="node34" class="node"><title>33</title>
<path fill="none" stroke="#d86656" stroke-width="2" d="M1480,-412C1480,-412 1344,-412 1344,-412 1338,-412 1332,-406 1332,-400 1332,-400 1332,-380 1332,-380 1332,-374 1338,-368 1344,-368 1344,-368 1480,-368 1480,-368 1486,-368 1492,-374 1492,-380 1492,-380 1492,-400 1492,-400 1492,-406 1486,-412 1480,-412"/>
<text text-anchor="middle" x="1412" y="-399" font-family="sans" font-size="10.00">mpileup2vcf_SingleUNSPLIT</text>
<text text-anchor="middle" x="1412" y="-387" font-family="sans" font-size="10.00">sampleMPU2VCFSU: Pfeiffer3</text>
<text text-anchor="middle" x="1412" y="-375" font-family="sans" font-size="10.00">varTypeMPU2VCFSU: indel</text>
</g>
<!-- 33&#45;&gt;25 -->
<g id="edge27" class="edge"><title>33&#45;&gt;25</title>
<path fill="none" stroke="grey" stroke-width="2" d="M1425.01,-367.91C1442.23,-339.989 1472.58,-290.79 1491.13,-260.72"/>
<polygon fill="grey" stroke="grey" stroke-width="2" points="1494.21,-262.396 1496.48,-252.047 1488.25,-258.72 1494.21,-262.396"/>
</g>
<!-- 34&#45;&gt;21 -->
<g id="edge22" class="edge"><title>34&#45;&gt;21</title>
<path fill="none" stroke="grey" stroke-width="2" d="M430,-591.993C430,-584.061 430,-574.915 430,-566.478"/>
<polygon fill="grey" stroke="grey" stroke-width="2" points="433.5,-566.315 430,-556.315 426.5,-566.315 433.5,-566.315"/>
</g>
<!-- 35&#45;&gt;3 -->
<g id="edge4" class="edge"><title>35&#45;&gt;3</title>
<path fill="none" stroke="grey" stroke-width="2" d="M1301,-591.993C1301,-584.061 1301,-574.915 1301,-566.478"/>
<polygon fill="grey" stroke="grey" stroke-width="2" points="1304.5,-566.315 1301,-556.315 1297.5,-566.315 1304.5,-566.315"/>
</g>
<!-- 36&#45;&gt;11 -->
<g id="edge12" class="edge"><title>36&#45;&gt;11</title>
<path fill="none" stroke="grey" stroke-width="2" d="M1280.36,-447.837C1269.93,-439.164 1257.01,-428.427 1245.23,-418.629"/>
<polygon fill="grey" stroke="grey" stroke-width="2" points="1247.22,-415.734 1237.3,-412.032 1242.75,-421.117 1247.22,-415.734"/>
</g>
<!-- 36&#45;&gt;33 -->
<g id="edge37" class="edge"><title>36&#45;&gt;33</title>
<path fill="none" stroke="grey" stroke-width="2" d="M1326.74,-447.837C1340.13,-438.914 1356.79,-427.806 1371.83,-417.783"/>
<polygon fill="grey" stroke="grey" stroke-width="2" points="1374.07,-420.491 1380.45,-412.032 1370.19,-414.667 1374.07,-420.491"/>
</g>
</g>
</svg>
