<?xml version="1.0" encoding="UTF-8" standalone="no"?>
<!DOCTYPE svg PUBLIC "-//W3C//DTD SVG 1.1//EN"
 "http://www.w3.org/Graphics/SVG/1.1/DTD/svg11.dtd">
<!-- Generated by graphviz version 2.38.0 (20140413.2041)
 -->
<!-- Title: snakemake_dag Pages: 1 -->
<svg width="274pt" height="116pt"
 viewBox="0.00 0.00 274.00 116.00" xmlns="http://www.w3.org/2000/svg" xmlns:xlink="http://www.w3.org/1999/xlink">
<g id="graph0" class="graph" transform="scale(1 1) rotate(0) translate(4 112)">
<title>snakemake_dag</title>
<polygon fill="white" stroke="none" points="-4,4 -4,-112 270,-112 270,4 -4,4"/>
<!-- 0 -->
<g id="node1" class="node"><title>0</title>
<path fill="none" stroke="#d85656" stroke-width="2" d="M112,-108C112,-108 12,-108 12,-108 6,-108 7.10543e-15,-102 7.10543e-15,-96 7.10543e-15,-96 7.10543e-15,-84 7.10543e-15,-84 7.10543e-15,-78 6,-72 12,-72 12,-72 112,-72 112,-72 118,-72 124,-78 124,-84 124,-84 124,-96 124,-96 124,-102 118,-108 112,-108"/>
<text text-anchor="middle" x="62" y="-93" font-family="sans" font-size="10.00">bam2fastq_picard</text>
<text text-anchor="middle" x="62" y="-81" font-family="sans" font-size="10.00">sampleB2FP: Pfeiffer3</text>
</g>
<!-- 1 -->
<g id="node2" class="node"><title>1</title>
<path fill="none" stroke="#59d856" stroke-width="2" d="M148,-36C148,-36 118,-36 118,-36 112,-36 106,-30 106,-24 106,-24 106,-12 106,-12 106,-6 112,-0 118,-0 118,-0 148,-0 148,-0 154,-0 160,-6 160,-12 160,-12 160,-24 160,-24 160,-30 154,-36 148,-36"/>
<text text-anchor="middle" x="133" y="-15" font-family="sans" font-size="10.00">all</text>
</g>
<!-- 0&#45;&gt;1 -->
<g id="edge1" class="edge"><title>0&#45;&gt;1</title>
<path fill="none" stroke="grey" stroke-width="2" d="M79.5506,-71.6966C88.2345,-63.135 98.863,-52.6562 108.348,-43.3045"/>
<polygon fill="grey" stroke="grey" stroke-width="2" points="110.988,-45.6175 115.651,-36.1043 106.073,-40.6327 110.988,-45.6175"/>
</g>
<!-- 2 -->
<g id="node3" class="node"><title>2</title>
<path fill="none" stroke="#d85656" stroke-width="2" d="M254,-108C254,-108 154,-108 154,-108 148,-108 142,-102 142,-96 142,-96 142,-84 142,-84 142,-78 148,-72 154,-72 154,-72 254,-72 254,-72 260,-72 266,-78 266,-84 266,-84 266,-96 266,-96 266,-102 260,-108 254,-108"/>
<text text-anchor="middle" x="204" y="-93" font-family="sans" font-size="10.00">bam2fastq_picard</text>
<text text-anchor="middle" x="204" y="-81" font-family="sans" font-size="10.00">sampleB2FP: Pfeiffer2</text>
</g>
<!-- 2&#45;&gt;1 -->
<g id="edge2" class="edge"><title>2&#45;&gt;1</title>
<path fill="none" stroke="grey" stroke-width="2" d="M186.449,-71.6966C177.766,-63.135 167.137,-52.6562 157.652,-43.3045"/>
<polygon fill="grey" stroke="grey" stroke-width="2" points="159.927,-40.6327 150.349,-36.1043 155.012,-45.6175 159.927,-40.6327"/>
</g>
</g>
</svg>
