<?xml version="1.0" encoding="UTF-8" standalone="no"?>
<!DOCTYPE svg PUBLIC "-//W3C//DTD SVG 1.1//EN"
 "http://www.w3.org/Graphics/SVG/1.1/DTD/svg11.dtd">
<!-- Generated by graphviz version 2.38.0 (20140413.2041)
 -->
<!-- Title: snakemake_dag Pages: 1 -->
<svg width="1166pt" height="652pt"
 viewBox="0.00 0.00 1166.00 652.00" xmlns="http://www.w3.org/2000/svg" xmlns:xlink="http://www.w3.org/1999/xlink">
<g id="graph0" class="graph" transform="scale(1 1) rotate(0) translate(4 648)">
<title>snakemake_dag</title>
<polygon fill="white" stroke="none" points="-4,4 -4,-648 1162,-648 1162,4 -4,4"/>
<!-- 0 -->
<g id="node1" class="node"><title>0</title>
<path fill="none" stroke="#568ad8" stroke-width="2" d="M925,-492C925,-492 829,-492 829,-492 823,-492 817,-486 817,-480 817,-480 817,-468 817,-468 817,-462 823,-456 829,-456 829,-456 925,-456 925,-456 931,-456 937,-462 937,-468 937,-468 937,-480 937,-480 937,-486 931,-492 925,-492"/>
<text text-anchor="middle" x="877" y="-477" font-family="sans" font-size="10.00">bamALIGN_bwa</text>
<text text-anchor="middle" x="877" y="-465" font-family="sans" font-size="10.00">sampleBAB: Pfeiffer2</text>
</g>
<!-- 21 -->
<g id="node22" class="node"><title>21</title>
<path fill="none" stroke="#88d856" stroke-width="2" d="M955.5,-420C955.5,-420 798.5,-420 798.5,-420 792.5,-420 786.5,-414 786.5,-408 786.5,-408 786.5,-388 786.5,-388 786.5,-382 792.5,-376 798.5,-376 798.5,-376 955.5,-376 955.5,-376 961.5,-376 967.5,-382 967.5,-388 967.5,-388 967.5,-408 967.5,-408 967.5,-414 961.5,-420 955.5,-420"/>
<text text-anchor="middle" x="877" y="-407" font-family="sans" font-size="10.00">sortBAM_biobambam</text>
<text text-anchor="middle" x="877" y="-395" font-family="sans" font-size="10.00">pathSBB: output/bam</text>
<text text-anchor="middle" x="877" y="-383" font-family="sans" font-size="10.00">sampleSBB: Pfeiffer2_Aligned.out</text>
</g>
<!-- 0&#45;&gt;21 -->
<g id="edge29" class="edge"><title>0&#45;&gt;21</title>
<path fill="none" stroke="grey" stroke-width="2" d="M877,-455.837C877,-448.165 877,-438.878 877,-430.053"/>
<polygon fill="grey" stroke="grey" stroke-width="2" points="880.5,-430.032 877,-420.032 873.5,-430.032 880.5,-430.032"/>
</g>
<!-- 1 -->
<g id="node2" class="node"><title>1</title>
<path fill="none" stroke="#d8c356" stroke-width="2" d="M970,-340C970,-340 784,-340 784,-340 778,-340 772,-334 772,-328 772,-328 772,-308 772,-308 772,-302 778,-296 784,-296 784,-296 970,-296 970,-296 976,-296 982,-302 982,-308 982,-308 982,-328 982,-328 982,-334 976,-340 970,-340"/>
<text text-anchor="middle" x="877" y="-327" font-family="sans" font-size="10.00">filteredBAM</text>
<text text-anchor="middle" x="877" y="-315" font-family="sans" font-size="10.00">pathFB: output/bam</text>
<text text-anchor="middle" x="877" y="-303" font-family="sans" font-size="10.00">sampleFB: Pfeiffer2_Aligned.out_sorted</text>
</g>
<!-- 22 -->
<g id="node23" class="node"><title>22</title>
<path fill="none" stroke="#d6d856" stroke-width="2" d="M995.5,-260C995.5,-260 758.5,-260 758.5,-260 752.5,-260 746.5,-254 746.5,-248 746.5,-248 746.5,-228 746.5,-228 746.5,-222 752.5,-216 758.5,-216 758.5,-216 995.5,-216 995.5,-216 1001.5,-216 1007.5,-222 1007.5,-228 1007.5,-228 1007.5,-248 1007.5,-248 1007.5,-254 1001.5,-260 995.5,-260"/>
<text text-anchor="middle" x="877" y="-247" font-family="sans" font-size="10.00">markdupBAM</text>
<text text-anchor="middle" x="877" y="-235" font-family="sans" font-size="10.00">outputDIR: output</text>
<text text-anchor="middle" x="877" y="-223" font-family="sans" font-size="10.00">sampleMDB: Pfeiffer2_Aligned.out_sorted_filtered</text>
</g>
<!-- 1&#45;&gt;22 -->
<g id="edge30" class="edge"><title>1&#45;&gt;22</title>
<path fill="none" stroke="grey" stroke-width="2" d="M877,-295.686C877,-287.798 877,-278.684 877,-270.103"/>
<polygon fill="grey" stroke="grey" stroke-width="2" points="880.5,-270.018 877,-260.018 873.5,-270.018 880.5,-270.018"/>
</g>
<!-- 2 -->
<g id="node3" class="node"><title>2</title>
<path fill="none" stroke="#56d8a2" stroke-width="2" d="M338,-644C338,-644 238,-644 238,-644 232,-644 226,-638 226,-632 226,-632 226,-620 226,-620 226,-614 232,-608 238,-608 238,-608 338,-608 338,-608 344,-608 350,-614 350,-620 350,-620 350,-632 350,-632 350,-638 344,-644 338,-644"/>
<text text-anchor="middle" x="288" y="-629" font-family="sans" font-size="10.00">bam2fastq_picard</text>
<text text-anchor="middle" x="288" y="-617" font-family="sans" font-size="10.00">sampleB2FP: Pfeiffer3</text>
</g>
<!-- 6 -->
<g id="node7" class="node"><title>6</title>
<path fill="none" stroke="#56d8a9" stroke-width="2" d="M266.5,-572C266.5,-572 161.5,-572 161.5,-572 155.5,-572 149.5,-566 149.5,-560 149.5,-560 149.5,-540 149.5,-540 149.5,-534 155.5,-528 161.5,-528 161.5,-528 266.5,-528 266.5,-528 272.5,-528 278.5,-534 278.5,-540 278.5,-540 278.5,-560 278.5,-560 278.5,-566 272.5,-572 266.5,-572"/>
<text text-anchor="middle" x="214" y="-559" font-family="sans" font-size="10.00">fastq2GZ</text>
<text text-anchor="middle" x="214" y="-547" font-family="sans" font-size="10.00">pathFGZ: output/fastq</text>
<text text-anchor="middle" x="214" y="-535" font-family="sans" font-size="10.00">sampleFGZ: Pfeiffer3.2</text>
</g>
<!-- 2&#45;&gt;6 -->
<g id="edge8" class="edge"><title>2&#45;&gt;6</title>
<path fill="none" stroke="grey" stroke-width="2" d="M270.837,-607.837C262.331,-599.331 251.839,-588.839 242.195,-579.195"/>
<polygon fill="grey" stroke="grey" stroke-width="2" points="244.578,-576.628 235.032,-572.032 239.628,-581.578 244.578,-576.628"/>
</g>
<!-- 15 -->
<g id="node16" class="node"><title>15</title>
<path fill="none" stroke="#56d8a9" stroke-width="2" d="M413.5,-572C413.5,-572 308.5,-572 308.5,-572 302.5,-572 296.5,-566 296.5,-560 296.5,-560 296.5,-540 296.5,-540 296.5,-534 302.5,-528 308.5,-528 308.5,-528 413.5,-528 413.5,-528 419.5,-528 425.5,-534 425.5,-540 425.5,-540 425.5,-560 425.5,-560 425.5,-566 419.5,-572 413.5,-572"/>
<text text-anchor="middle" x="361" y="-559" font-family="sans" font-size="10.00">fastq2GZ</text>
<text text-anchor="middle" x="361" y="-547" font-family="sans" font-size="10.00">pathFGZ: output/fastq</text>
<text text-anchor="middle" x="361" y="-535" font-family="sans" font-size="10.00">sampleFGZ: Pfeiffer3.1</text>
</g>
<!-- 2&#45;&gt;15 -->
<g id="edge16" class="edge"><title>2&#45;&gt;15</title>
<path fill="none" stroke="grey" stroke-width="2" d="M304.931,-607.837C313.322,-599.331 323.672,-588.839 333.186,-579.195"/>
<polygon fill="grey" stroke="grey" stroke-width="2" points="335.721,-581.609 340.252,-572.032 330.738,-576.693 335.721,-581.609"/>
</g>
<!-- 3 -->
<g id="node4" class="node"><title>3</title>
<path fill="none" stroke="#568ad8" stroke-width="2" d="M335,-492C335,-492 239,-492 239,-492 233,-492 227,-486 227,-480 227,-480 227,-468 227,-468 227,-462 233,-456 239,-456 239,-456 335,-456 335,-456 341,-456 347,-462 347,-468 347,-468 347,-480 347,-480 347,-486 341,-492 335,-492"/>
<text text-anchor="middle" x="287" y="-477" font-family="sans" font-size="10.00">bamALIGN_bwa</text>
<text text-anchor="middle" x="287" y="-465" font-family="sans" font-size="10.00">sampleBAB: Pfeiffer3</text>
</g>
<!-- 13 -->
<g id="node14" class="node"><title>13</title>
<path fill="none" stroke="#88d856" stroke-width="2" d="M365.5,-420C365.5,-420 208.5,-420 208.5,-420 202.5,-420 196.5,-414 196.5,-408 196.5,-408 196.5,-388 196.5,-388 196.5,-382 202.5,-376 208.5,-376 208.5,-376 365.5,-376 365.5,-376 371.5,-376 377.5,-382 377.5,-388 377.5,-388 377.5,-408 377.5,-408 377.5,-414 371.5,-420 365.5,-420"/>
<text text-anchor="middle" x="287" y="-407" font-family="sans" font-size="10.00">sortBAM_biobambam</text>
<text text-anchor="middle" x="287" y="-395" font-family="sans" font-size="10.00">pathSBB: output/bam</text>
<text text-anchor="middle" x="287" y="-383" font-family="sans" font-size="10.00">sampleSBB: Pfeiffer3_Aligned.out</text>
</g>
<!-- 3&#45;&gt;13 -->
<g id="edge14" class="edge"><title>3&#45;&gt;13</title>
<path fill="none" stroke="grey" stroke-width="2" d="M287,-455.837C287,-448.165 287,-438.878 287,-430.053"/>
<polygon fill="grey" stroke="grey" stroke-width="2" points="290.5,-430.032 287,-420.032 283.5,-430.032 290.5,-430.032"/>
</g>
<!-- 4 -->
<g id="node5" class="node"><title>4</title>
<path fill="none" stroke="#c6d856" stroke-width="2" d="M706,-108C706,-108 600,-108 600,-108 594,-108 588,-102 588,-96 588,-96 588,-84 588,-84 588,-78 594,-72 600,-72 600,-72 706,-72 706,-72 712,-72 718,-78 718,-84 718,-84 718,-96 718,-96 718,-102 712,-108 706,-108"/>
<text text-anchor="middle" x="653" y="-93" font-family="sans" font-size="10.00">collectWGS</text>
<text text-anchor="middle" x="653" y="-81" font-family="sans" font-size="10.00">sampleCWGS: Pfeiffer2</text>
</g>
<!-- 17 -->
<g id="node18" class="node"><title>17</title>
<path fill="none" stroke="#afd856" stroke-width="2" d="M595,-36C595,-36 565,-36 565,-36 559,-36 553,-30 553,-24 553,-24 553,-12 553,-12 553,-6 559,-0 565,-0 565,-0 595,-0 595,-0 601,-0 607,-6 607,-12 607,-12 607,-24 607,-24 607,-30 601,-36 595,-36"/>
<text text-anchor="middle" x="580" y="-15" font-family="sans" font-size="10.00">all</text>
</g>
<!-- 4&#45;&gt;17 -->
<g id="edge20" class="edge"><title>4&#45;&gt;17</title>
<path fill="none" stroke="grey" stroke-width="2" d="M634.955,-71.6966C625.938,-63.0503 614.882,-52.4486 605.057,-43.027"/>
<polygon fill="grey" stroke="grey" stroke-width="2" points="607.478,-40.4993 597.837,-36.1043 602.633,-45.5518 607.478,-40.4993"/>
</g>
<!-- 5 -->
<g id="node6" class="node"><title>5</title>
<path fill="none" stroke="#c6d856" stroke-width="2" d="M118,-108C118,-108 12,-108 12,-108 6,-108 0,-102 0,-96 0,-96 0,-84 0,-84 0,-78 6,-72 12,-72 12,-72 118,-72 118,-72 124,-72 130,-78 130,-84 130,-84 130,-96 130,-96 130,-102 124,-108 118,-108"/>
<text text-anchor="middle" x="65" y="-93" font-family="sans" font-size="10.00">collectWGS</text>
<text text-anchor="middle" x="65" y="-81" font-family="sans" font-size="10.00">sampleCWGS: Pfeiffer3</text>
</g>
<!-- 5&#45;&gt;17 -->
<g id="edge23" class="edge"><title>5&#45;&gt;17</title>
<path fill="none" stroke="grey" stroke-width="2" d="M130.294,-73.6043C133.231,-73.0366 136.143,-72.4984 139,-72 287.554,-46.0852 466.481,-28.8359 542.696,-22.1349"/>
<polygon fill="grey" stroke="grey" stroke-width="2" points="543.096,-25.6134 552.755,-21.2595 542.489,-18.6398 543.096,-25.6134"/>
</g>
<!-- 6&#45;&gt;3 -->
<g id="edge5" class="edge"><title>6&#45;&gt;3</title>
<path fill="none" stroke="grey" stroke-width="2" d="M234.724,-527.993C243.418,-519.179 253.59,-508.868 262.639,-499.694"/>
<polygon fill="grey" stroke="grey" stroke-width="2" points="265.388,-501.892 269.919,-492.315 260.405,-496.976 265.388,-501.892"/>
</g>
<!-- 7 -->
<g id="node8" class="node"><title>7</title>
<path fill="none" stroke="#56a9d8" stroke-width="2" d="M858,-108C858,-108 748,-108 748,-108 742,-108 736,-102 736,-96 736,-96 736,-84 736,-84 736,-78 742,-72 748,-72 748,-72 858,-72 858,-72 864,-72 870,-78 870,-84 870,-84 870,-96 870,-96 870,-102 864,-108 858,-108"/>
<text text-anchor="middle" x="803" y="-93" font-family="sans" font-size="10.00">collectRNASeq</text>
<text text-anchor="middle" x="803" y="-81" font-family="sans" font-size="10.00">sampleCRNAS: Pfeiffer2</text>
</g>
<!-- 7&#45;&gt;17 -->
<g id="edge18" class="edge"><title>7&#45;&gt;17</title>
<path fill="none" stroke="grey" stroke-width="2" d="M748.733,-71.9656C707.724,-59.0926 652.542,-41.7711 616.627,-30.4973"/>
<polygon fill="grey" stroke="grey" stroke-width="2" points="617.625,-27.1423 607.036,-27.4867 615.529,-33.821 617.625,-27.1423"/>
</g>
<!-- 8 -->
<g id="node9" class="node"><title>8</title>
<path fill="none" stroke="#5673d8" stroke-width="2" d="M264,-108C264,-108 160,-108 160,-108 154,-108 148,-102 148,-96 148,-96 148,-84 148,-84 148,-78 154,-72 160,-72 160,-72 264,-72 264,-72 270,-72 276,-78 276,-84 276,-84 276,-96 276,-96 276,-102 270,-108 264,-108"/>
<text text-anchor="middle" x="212" y="-93" font-family="sans" font-size="10.00">collectGCBias</text>
<text text-anchor="middle" x="212" y="-81" font-family="sans" font-size="10.00">sampleCGCB: Pfeiffer3</text>
</g>
<!-- 8&#45;&gt;17 -->
<g id="edge19" class="edge"><title>8&#45;&gt;17</title>
<path fill="none" stroke="grey" stroke-width="2" d="M276.053,-73.8886C279.075,-73.2371 282.069,-72.6042 285,-72 377.165,-53.002 486.331,-34.3964 542.484,-25.1095"/>
<polygon fill="grey" stroke="grey" stroke-width="2" points="543.363,-28.5118 552.661,-23.4324 542.225,-21.605 543.363,-28.5118"/>
</g>
<!-- 9 -->
<g id="node10" class="node"><title>9</title>
<path fill="none" stroke="#56d8a2" stroke-width="2" d="M927,-644C927,-644 827,-644 827,-644 821,-644 815,-638 815,-632 815,-632 815,-620 815,-620 815,-614 821,-608 827,-608 827,-608 927,-608 927,-608 933,-608 939,-614 939,-620 939,-620 939,-632 939,-632 939,-638 933,-644 927,-644"/>
<text text-anchor="middle" x="877" y="-629" font-family="sans" font-size="10.00">bam2fastq_picard</text>
<text text-anchor="middle" x="877" y="-617" font-family="sans" font-size="10.00">sampleB2FP: Pfeiffer2</text>
</g>
<!-- 11 -->
<g id="node12" class="node"><title>11</title>
<path fill="none" stroke="#56d8a9" stroke-width="2" d="M856.5,-572C856.5,-572 751.5,-572 751.5,-572 745.5,-572 739.5,-566 739.5,-560 739.5,-560 739.5,-540 739.5,-540 739.5,-534 745.5,-528 751.5,-528 751.5,-528 856.5,-528 856.5,-528 862.5,-528 868.5,-534 868.5,-540 868.5,-540 868.5,-560 868.5,-560 868.5,-566 862.5,-572 856.5,-572"/>
<text text-anchor="middle" x="804" y="-559" font-family="sans" font-size="10.00">fastq2GZ</text>
<text text-anchor="middle" x="804" y="-547" font-family="sans" font-size="10.00">pathFGZ: output/fastq</text>
<text text-anchor="middle" x="804" y="-535" font-family="sans" font-size="10.00">sampleFGZ: Pfeiffer2.2</text>
</g>
<!-- 9&#45;&gt;11 -->
<g id="edge12" class="edge"><title>9&#45;&gt;11</title>
<path fill="none" stroke="grey" stroke-width="2" d="M860.069,-607.837C851.678,-599.331 841.328,-588.839 831.814,-579.195"/>
<polygon fill="grey" stroke="grey" stroke-width="2" points="834.262,-576.693 824.748,-572.032 829.279,-581.609 834.262,-576.693"/>
</g>
<!-- 23 -->
<g id="node24" class="node"><title>23</title>
<path fill="none" stroke="#56d8a9" stroke-width="2" d="M1003.5,-572C1003.5,-572 898.5,-572 898.5,-572 892.5,-572 886.5,-566 886.5,-560 886.5,-560 886.5,-540 886.5,-540 886.5,-534 892.5,-528 898.5,-528 898.5,-528 1003.5,-528 1003.5,-528 1009.5,-528 1015.5,-534 1015.5,-540 1015.5,-540 1015.5,-560 1015.5,-560 1015.5,-566 1009.5,-572 1003.5,-572"/>
<text text-anchor="middle" x="951" y="-559" font-family="sans" font-size="10.00">fastq2GZ</text>
<text text-anchor="middle" x="951" y="-547" font-family="sans" font-size="10.00">pathFGZ: output/fastq</text>
<text text-anchor="middle" x="951" y="-535" font-family="sans" font-size="10.00">sampleFGZ: Pfeiffer2.1</text>
</g>
<!-- 9&#45;&gt;23 -->
<g id="edge31" class="edge"><title>9&#45;&gt;23</title>
<path fill="none" stroke="grey" stroke-width="2" d="M894.163,-607.837C902.669,-599.331 913.161,-588.839 922.805,-579.195"/>
<polygon fill="grey" stroke="grey" stroke-width="2" points="925.372,-581.578 929.968,-572.032 920.422,-576.628 925.372,-581.578"/>
</g>
<!-- 10 -->
<g id="node11" class="node"><title>10</title>
<path fill="none" stroke="#d8c356" stroke-width="2" d="M380,-340C380,-340 194,-340 194,-340 188,-340 182,-334 182,-328 182,-328 182,-308 182,-308 182,-302 188,-296 194,-296 194,-296 380,-296 380,-296 386,-296 392,-302 392,-308 392,-308 392,-328 392,-328 392,-334 386,-340 380,-340"/>
<text text-anchor="middle" x="287" y="-327" font-family="sans" font-size="10.00">filteredBAM</text>
<text text-anchor="middle" x="287" y="-315" font-family="sans" font-size="10.00">pathFB: output/bam</text>
<text text-anchor="middle" x="287" y="-303" font-family="sans" font-size="10.00">sampleFB: Pfeiffer3_Aligned.out_sorted</text>
</g>
<!-- 12 -->
<g id="node13" class="node"><title>12</title>
<path fill="none" stroke="#d6d856" stroke-width="2" d="M405.5,-260C405.5,-260 168.5,-260 168.5,-260 162.5,-260 156.5,-254 156.5,-248 156.5,-248 156.5,-228 156.5,-228 156.5,-222 162.5,-216 168.5,-216 168.5,-216 405.5,-216 405.5,-216 411.5,-216 417.5,-222 417.5,-228 417.5,-228 417.5,-248 417.5,-248 417.5,-254 411.5,-260 405.5,-260"/>
<text text-anchor="middle" x="287" y="-247" font-family="sans" font-size="10.00">markdupBAM</text>
<text text-anchor="middle" x="287" y="-235" font-family="sans" font-size="10.00">outputDIR: output</text>
<text text-anchor="middle" x="287" y="-223" font-family="sans" font-size="10.00">sampleMDB: Pfeiffer3_Aligned.out_sorted_filtered</text>
</g>
<!-- 10&#45;&gt;12 -->
<g id="edge13" class="edge"><title>10&#45;&gt;12</title>
<path fill="none" stroke="grey" stroke-width="2" d="M287,-295.686C287,-287.798 287,-278.684 287,-270.103"/>
<polygon fill="grey" stroke="grey" stroke-width="2" points="290.5,-270.018 287,-260.018 283.5,-270.018 290.5,-270.018"/>
</g>
<!-- 11&#45;&gt;0 -->
<g id="edge1" class="edge"><title>11&#45;&gt;0</title>
<path fill="none" stroke="grey" stroke-width="2" d="M824.724,-527.993C833.418,-519.179 843.59,-508.868 852.639,-499.694"/>
<polygon fill="grey" stroke="grey" stroke-width="2" points="855.388,-501.892 859.919,-492.315 850.405,-496.976 855.388,-501.892"/>
</g>
<!-- 24 -->
<g id="node25" class="node"><title>24</title>
<path fill="none" stroke="#56b1d8" stroke-width="2" d="M330,-180C330,-180 244,-180 244,-180 238,-180 232,-174 232,-168 232,-168 232,-156 232,-156 232,-150 238,-144 244,-144 244,-144 330,-144 330,-144 336,-144 342,-150 342,-156 342,-156 342,-168 342,-168 342,-174 336,-180 330,-180"/>
<text text-anchor="middle" x="287" y="-165" font-family="sans" font-size="10.00">indexBAM</text>
<text text-anchor="middle" x="287" y="-153" font-family="sans" font-size="10.00">sampleIB: Pfeiffer3</text>
</g>
<!-- 12&#45;&gt;24 -->
<g id="edge32" class="edge"><title>12&#45;&gt;24</title>
<path fill="none" stroke="grey" stroke-width="2" d="M287,-215.993C287,-208.061 287,-198.915 287,-190.478"/>
<polygon fill="grey" stroke="grey" stroke-width="2" points="290.5,-190.315 287,-180.315 283.5,-190.315 290.5,-190.315"/>
</g>
<!-- 13&#45;&gt;10 -->
<g id="edge11" class="edge"><title>13&#45;&gt;10</title>
<path fill="none" stroke="grey" stroke-width="2" d="M287,-375.686C287,-367.798 287,-358.684 287,-350.103"/>
<polygon fill="grey" stroke="grey" stroke-width="2" points="290.5,-350.018 287,-340.018 283.5,-350.018 290.5,-350.018"/>
</g>
<!-- 14 -->
<g id="node15" class="node"><title>14</title>
<path fill="none" stroke="#56a9d8" stroke-width="2" d="M416,-108C416,-108 306,-108 306,-108 300,-108 294,-102 294,-96 294,-96 294,-84 294,-84 294,-78 300,-72 306,-72 306,-72 416,-72 416,-72 422,-72 428,-78 428,-84 428,-84 428,-96 428,-96 428,-102 422,-108 416,-108"/>
<text text-anchor="middle" x="361" y="-93" font-family="sans" font-size="10.00">collectRNASeq</text>
<text text-anchor="middle" x="361" y="-81" font-family="sans" font-size="10.00">sampleCRNAS: Pfeiffer3</text>
</g>
<!-- 14&#45;&gt;17 -->
<g id="edge21" class="edge"><title>14&#45;&gt;17</title>
<path fill="none" stroke="grey" stroke-width="2" d="M414.293,-71.9656C454.165,-59.2213 507.677,-42.1169 542.966,-30.8372"/>
<polygon fill="grey" stroke="grey" stroke-width="2" points="544.394,-34.0554 552.854,-27.6769 542.263,-27.3878 544.394,-34.0554"/>
</g>
<!-- 15&#45;&gt;3 -->
<g id="edge4" class="edge"><title>15&#45;&gt;3</title>
<path fill="none" stroke="grey" stroke-width="2" d="M339.993,-527.993C331.091,-519.091 320.661,-508.661 311.42,-499.42"/>
<polygon fill="grey" stroke="grey" stroke-width="2" points="313.861,-496.911 304.315,-492.315 308.911,-501.861 313.861,-496.911"/>
</g>
<!-- 16 -->
<g id="node17" class="node"><title>16</title>
<path fill="none" stroke="#5673d8" stroke-width="2" d="M1004,-108C1004,-108 900,-108 900,-108 894,-108 888,-102 888,-96 888,-96 888,-84 888,-84 888,-78 894,-72 900,-72 900,-72 1004,-72 1004,-72 1010,-72 1016,-78 1016,-84 1016,-84 1016,-96 1016,-96 1016,-102 1010,-108 1004,-108"/>
<text text-anchor="middle" x="952" y="-93" font-family="sans" font-size="10.00">collectGCBias</text>
<text text-anchor="middle" x="952" y="-81" font-family="sans" font-size="10.00">sampleCGCB: Pfeiffer2</text>
</g>
<!-- 16&#45;&gt;17 -->
<g id="edge22" class="edge"><title>16&#45;&gt;17</title>
<path fill="none" stroke="grey" stroke-width="2" d="M887.948,-73.8801C884.926,-73.2309 881.932,-72.6008 879,-72 785.164,-52.7716 673.913,-34.1401 617.234,-24.9439"/>
<polygon fill="grey" stroke="grey" stroke-width="2" points="617.732,-21.4792 607.302,-23.3386 616.615,-28.3895 617.732,-21.4792"/>
</g>
<!-- 18 -->
<g id="node19" class="node"><title>18</title>
<path fill="none" stroke="#56d8c9" stroke-width="2" d="M558,-108C558,-108 458,-108 458,-108 452,-108 446,-102 446,-96 446,-96 446,-84 446,-84 446,-78 452,-72 458,-72 458,-72 558,-72 558,-72 564,-72 570,-78 570,-84 570,-84 570,-96 570,-96 570,-102 564,-108 558,-108"/>
<text text-anchor="middle" x="508" y="-93" font-family="sans" font-size="10.00">collectMultMetrics</text>
<text text-anchor="middle" x="508" y="-81" font-family="sans" font-size="10.00">sampleCMM: Pfeiffer3</text>
</g>
<!-- 18&#45;&gt;17 -->
<g id="edge24" class="edge"><title>18&#45;&gt;17</title>
<path fill="none" stroke="grey" stroke-width="2" d="M525.798,-71.6966C534.604,-63.135 545.382,-52.6562 555.001,-43.3045"/>
<polygon fill="grey" stroke="grey" stroke-width="2" points="557.677,-45.5846 562.407,-36.1043 552.797,-40.5657 557.677,-45.5846"/>
</g>
<!-- 19 -->
<g id="node20" class="node"><title>19</title>
<path fill="none" stroke="#56d8c9" stroke-width="2" d="M1146,-108C1146,-108 1046,-108 1046,-108 1040,-108 1034,-102 1034,-96 1034,-96 1034,-84 1034,-84 1034,-78 1040,-72 1046,-72 1046,-72 1146,-72 1146,-72 1152,-72 1158,-78 1158,-84 1158,-84 1158,-96 1158,-96 1158,-102 1152,-108 1146,-108"/>
<text text-anchor="middle" x="1096" y="-93" font-family="sans" font-size="10.00">collectMultMetrics</text>
<text text-anchor="middle" x="1096" y="-81" font-family="sans" font-size="10.00">sampleCMM: Pfeiffer2</text>
</g>
<!-- 19&#45;&gt;17 -->
<g id="edge25" class="edge"><title>19&#45;&gt;17</title>
<path fill="none" stroke="grey" stroke-width="2" d="M1033.75,-73.6611C1030.8,-73.0704 1027.87,-72.5127 1025,-72 875.043,-45.2113 694.168,-28.3977 617.382,-21.9706"/>
<polygon fill="grey" stroke="grey" stroke-width="2" points="617.507,-18.4691 607.252,-21.1327 616.93,-25.4452 617.507,-18.4691"/>
</g>
<!-- 20 -->
<g id="node21" class="node"><title>20</title>
<path fill="none" stroke="#56b1d8" stroke-width="2" d="M920,-180C920,-180 834,-180 834,-180 828,-180 822,-174 822,-168 822,-168 822,-156 822,-156 822,-150 828,-144 834,-144 834,-144 920,-144 920,-144 926,-144 932,-150 932,-156 932,-156 932,-168 932,-168 932,-174 926,-180 920,-180"/>
<text text-anchor="middle" x="877" y="-165" font-family="sans" font-size="10.00">indexBAM</text>
<text text-anchor="middle" x="877" y="-153" font-family="sans" font-size="10.00">sampleIB: Pfeiffer2</text>
</g>
<!-- 20&#45;&gt;4 -->
<g id="edge6" class="edge"><title>20&#45;&gt;4</title>
<path fill="none" stroke="grey" stroke-width="2" d="M822.49,-143.966C790.784,-134.057 750.645,-121.514 717.387,-111.121"/>
<polygon fill="grey" stroke="grey" stroke-width="2" points="718.343,-107.753 707.755,-108.111 716.255,-114.434 718.343,-107.753"/>
</g>
<!-- 20&#45;&gt;7 -->
<g id="edge9" class="edge"><title>20&#45;&gt;7</title>
<path fill="none" stroke="grey" stroke-width="2" d="M858.708,-143.697C849.567,-135.05 838.36,-124.449 828.4,-115.027"/>
<polygon fill="grey" stroke="grey" stroke-width="2" points="830.752,-112.434 821.082,-108.104 825.941,-117.519 830.752,-112.434"/>
</g>
<!-- 20&#45;&gt;16 -->
<g id="edge17" class="edge"><title>20&#45;&gt;16</title>
<path fill="none" stroke="grey" stroke-width="2" d="M895.539,-143.697C904.803,-135.05 916.162,-124.449 926.257,-115.027"/>
<polygon fill="grey" stroke="grey" stroke-width="2" points="928.751,-117.486 933.674,-108.104 923.975,-112.369 928.751,-117.486"/>
</g>
<!-- 20&#45;&gt;19 -->
<g id="edge27" class="edge"><title>20&#45;&gt;19</title>
<path fill="none" stroke="grey" stroke-width="2" d="M930.293,-143.966C961.159,-134.1 1000.2,-121.622 1032.63,-111.255"/>
<polygon fill="grey" stroke="grey" stroke-width="2" points="1034.01,-114.489 1042.47,-108.111 1031.88,-107.822 1034.01,-114.489"/>
</g>
<!-- 21&#45;&gt;1 -->
<g id="edge3" class="edge"><title>21&#45;&gt;1</title>
<path fill="none" stroke="grey" stroke-width="2" d="M877,-375.686C877,-367.798 877,-358.684 877,-350.103"/>
<polygon fill="grey" stroke="grey" stroke-width="2" points="880.5,-350.018 877,-340.018 873.5,-350.018 880.5,-350.018"/>
</g>
<!-- 22&#45;&gt;20 -->
<g id="edge28" class="edge"><title>22&#45;&gt;20</title>
<path fill="none" stroke="grey" stroke-width="2" d="M877,-215.993C877,-208.061 877,-198.915 877,-190.478"/>
<polygon fill="grey" stroke="grey" stroke-width="2" points="880.5,-190.315 877,-180.315 873.5,-190.315 880.5,-190.315"/>
</g>
<!-- 23&#45;&gt;0 -->
<g id="edge2" class="edge"><title>23&#45;&gt;0</title>
<path fill="none" stroke="grey" stroke-width="2" d="M929.993,-527.993C921.091,-519.091 910.661,-508.661 901.42,-499.42"/>
<polygon fill="grey" stroke="grey" stroke-width="2" points="903.861,-496.911 894.315,-492.315 898.911,-501.861 903.861,-496.911"/>
</g>
<!-- 24&#45;&gt;5 -->
<g id="edge7" class="edge"><title>24&#45;&gt;5</title>
<path fill="none" stroke="grey" stroke-width="2" d="M232.977,-143.966C201.554,-134.057 161.773,-121.514 128.812,-111.121"/>
<polygon fill="grey" stroke="grey" stroke-width="2" points="129.855,-107.78 119.266,-108.111 127.75,-114.456 129.855,-107.78"/>
</g>
<!-- 24&#45;&gt;8 -->
<g id="edge10" class="edge"><title>24&#45;&gt;8</title>
<path fill="none" stroke="grey" stroke-width="2" d="M268.461,-143.697C259.197,-135.05 247.838,-124.449 237.743,-115.027"/>
<polygon fill="grey" stroke="grey" stroke-width="2" points="240.025,-112.369 230.326,-108.104 235.249,-117.486 240.025,-112.369"/>
</g>
<!-- 24&#45;&gt;14 -->
<g id="edge15" class="edge"><title>24&#45;&gt;14</title>
<path fill="none" stroke="grey" stroke-width="2" d="M305.292,-143.697C314.433,-135.05 325.64,-124.449 335.6,-115.027"/>
<polygon fill="grey" stroke="grey" stroke-width="2" points="338.059,-117.519 342.918,-108.104 333.248,-112.434 338.059,-117.519"/>
</g>
<!-- 24&#45;&gt;18 -->
<g id="edge26" class="edge"><title>24&#45;&gt;18</title>
<path fill="none" stroke="grey" stroke-width="2" d="M340.78,-143.966C371.927,-134.1 411.323,-121.622 444.052,-111.255"/>
<polygon fill="grey" stroke="grey" stroke-width="2" points="445.502,-114.467 453.979,-108.111 443.389,-107.794 445.502,-114.467"/>
</g>
</g>
</svg>
