<?xml version="1.0" encoding="UTF-8" standalone="no"?>
<!DOCTYPE svg PUBLIC "-//W3C//DTD SVG 1.1//EN"
 "http://www.w3.org/Graphics/SVG/1.1/DTD/svg11.dtd">
<!-- Generated by graphviz version 2.38.0 (20140413.2041)
 -->
<!-- Title: snakemake_dag Pages: 1 -->
<svg width="651pt" height="652pt"
 viewBox="0.00 0.00 651.00 652.00" xmlns="http://www.w3.org/2000/svg" xmlns:xlink="http://www.w3.org/1999/xlink">
<g id="graph0" class="graph" transform="scale(1 1) rotate(0) translate(4 648)">
<title>snakemake_dag</title>
<polygon fill="white" stroke="none" points="-4,4 -4,-648 647,-648 647,4 -4,4"/>
<!-- 0 -->
<g id="node1" class="node"><title>0</title>
<path fill="none" stroke="#56d0d8" stroke-width="2" d="M484,-572C484,-572 379,-572 379,-572 373,-572 367,-566 367,-560 367,-560 367,-540 367,-540 367,-534 373,-528 379,-528 379,-528 484,-528 484,-528 490,-528 496,-534 496,-540 496,-540 496,-560 496,-560 496,-566 490,-572 484,-572"/>
<text text-anchor="middle" x="431.5" y="-559" font-family="sans" font-size="10.00">fastq2GZ</text>
<text text-anchor="middle" x="431.5" y="-547" font-family="sans" font-size="10.00">pathFGZ: output/fastq</text>
<text text-anchor="middle" x="431.5" y="-535" font-family="sans" font-size="10.00">sampleFGZ: Pfeiffer3.1</text>
</g>
<!-- 15 -->
<g id="node16" class="node"><title>15</title>
<path fill="none" stroke="#d86e56" stroke-width="2" d="M512.5,-492C512.5,-492 416.5,-492 416.5,-492 410.5,-492 404.5,-486 404.5,-480 404.5,-480 404.5,-468 404.5,-468 404.5,-462 410.5,-456 416.5,-456 416.5,-456 512.5,-456 512.5,-456 518.5,-456 524.5,-462 524.5,-468 524.5,-468 524.5,-480 524.5,-480 524.5,-486 518.5,-492 512.5,-492"/>
<text text-anchor="middle" x="464.5" y="-477" font-family="sans" font-size="10.00">bamALIGN_bwa</text>
<text text-anchor="middle" x="464.5" y="-465" font-family="sans" font-size="10.00">sampleBAB: Pfeiffer3</text>
</g>
<!-- 0&#45;&gt;15 -->
<g id="edge14" class="edge"><title>0&#45;&gt;15</title>
<path fill="none" stroke="grey" stroke-width="2" d="M440.868,-527.993C444.523,-519.796 448.756,-510.304 452.622,-501.637"/>
<polygon fill="grey" stroke="grey" stroke-width="2" points="455.902,-502.873 456.779,-492.315 449.509,-500.022 455.902,-502.873"/>
</g>
<!-- 1 -->
<g id="node2" class="node"><title>1</title>
<path fill="none" stroke="#68d856" stroke-width="2" d="M583,-260C583,-260 346,-260 346,-260 340,-260 334,-254 334,-248 334,-248 334,-228 334,-228 334,-222 340,-216 346,-216 346,-216 583,-216 583,-216 589,-216 595,-222 595,-228 595,-228 595,-248 595,-248 595,-254 589,-260 583,-260"/>
<text text-anchor="middle" x="464.5" y="-247" font-family="sans" font-size="10.00">markdupBAM</text>
<text text-anchor="middle" x="464.5" y="-235" font-family="sans" font-size="10.00">outputDIR: output</text>
<text text-anchor="middle" x="464.5" y="-223" font-family="sans" font-size="10.00">sampleMDB: Pfeiffer3_Aligned.out_sorted_filtered</text>
</g>
<!-- 2 -->
<g id="node3" class="node"><title>2</title>
<path fill="none" stroke="#56d8d8" stroke-width="2" d="M507.5,-180C507.5,-180 421.5,-180 421.5,-180 415.5,-180 409.5,-174 409.5,-168 409.5,-168 409.5,-156 409.5,-156 409.5,-150 415.5,-144 421.5,-144 421.5,-144 507.5,-144 507.5,-144 513.5,-144 519.5,-150 519.5,-156 519.5,-156 519.5,-168 519.5,-168 519.5,-174 513.5,-180 507.5,-180"/>
<text text-anchor="middle" x="464.5" y="-165" font-family="sans" font-size="10.00">indexBAM</text>
<text text-anchor="middle" x="464.5" y="-153" font-family="sans" font-size="10.00">sampleIB: Pfeiffer3</text>
</g>
<!-- 1&#45;&gt;2 -->
<g id="edge3" class="edge"><title>1&#45;&gt;2</title>
<path fill="none" stroke="grey" stroke-width="2" d="M464.5,-215.993C464.5,-208.061 464.5,-198.915 464.5,-190.478"/>
<polygon fill="grey" stroke="grey" stroke-width="2" points="468,-190.315 464.5,-180.315 461,-190.315 468,-190.315"/>
</g>
<!-- 9 -->
<g id="node10" class="node"><title>9</title>
<path fill="none" stroke="#d6d856" stroke-width="2" d="M406.5,-108C406.5,-108 318.5,-108 318.5,-108 312.5,-108 306.5,-102 306.5,-96 306.5,-96 306.5,-84 306.5,-84 306.5,-78 312.5,-72 318.5,-72 318.5,-72 406.5,-72 406.5,-72 412.5,-72 418.5,-78 418.5,-84 418.5,-84 418.5,-96 418.5,-96 418.5,-102 412.5,-108 406.5,-108"/>
<text text-anchor="middle" x="362.5" y="-93" font-family="sans" font-size="10.00">flagStats</text>
<text text-anchor="middle" x="362.5" y="-81" font-family="sans" font-size="10.00">sampleFS: Pfeiffer3</text>
</g>
<!-- 2&#45;&gt;9 -->
<g id="edge8" class="edge"><title>2&#45;&gt;9</title>
<path fill="none" stroke="grey" stroke-width="2" d="M439.548,-143.876C426.458,-134.893 410.24,-123.763 396.064,-114.034"/>
<polygon fill="grey" stroke="grey" stroke-width="2" points="397.774,-110.962 387.548,-108.19 393.813,-116.734 397.774,-110.962"/>
</g>
<!-- 11 -->
<g id="node12" class="node"><title>11</title>
<path fill="none" stroke="#88d856" stroke-width="2" d="M536.5,-108C536.5,-108 448.5,-108 448.5,-108 442.5,-108 436.5,-102 436.5,-96 436.5,-96 436.5,-84 436.5,-84 436.5,-78 442.5,-72 448.5,-72 448.5,-72 536.5,-72 536.5,-72 542.5,-72 548.5,-78 548.5,-84 548.5,-84 548.5,-96 548.5,-96 548.5,-102 542.5,-108 536.5,-108"/>
<text text-anchor="middle" x="492.5" y="-93" font-family="sans" font-size="10.00">readLen</text>
<text text-anchor="middle" x="492.5" y="-81" font-family="sans" font-size="10.00">sampleRL: Pfeiffer3</text>
</g>
<!-- 2&#45;&gt;11 -->
<g id="edge10" class="edge"><title>2&#45;&gt;11</title>
<path fill="none" stroke="grey" stroke-width="2" d="M471.421,-143.697C474.575,-135.813 478.378,-126.304 481.881,-117.546"/>
<polygon fill="grey" stroke="grey" stroke-width="2" points="485.194,-118.689 485.658,-108.104 478.695,-116.089 485.194,-118.689"/>
</g>
<!-- 3 -->
<g id="node4" class="node"><title>3</title>
<path fill="none" stroke="#68d856" stroke-width="2" d="M249,-260C249,-260 12,-260 12,-260 6,-260 0,-254 0,-248 0,-248 0,-228 0,-228 0,-222 6,-216 12,-216 12,-216 249,-216 249,-216 255,-216 261,-222 261,-228 261,-228 261,-248 261,-248 261,-254 255,-260 249,-260"/>
<text text-anchor="middle" x="130.5" y="-247" font-family="sans" font-size="10.00">markdupBAM</text>
<text text-anchor="middle" x="130.5" y="-235" font-family="sans" font-size="10.00">outputDIR: output</text>
<text text-anchor="middle" x="130.5" y="-223" font-family="sans" font-size="10.00">sampleMDB: Pfeiffer2_Aligned.out_sorted_filtered</text>
</g>
<!-- 20 -->
<g id="node21" class="node"><title>20</title>
<path fill="none" stroke="#56d8d8" stroke-width="2" d="M173.5,-180C173.5,-180 87.5,-180 87.5,-180 81.5,-180 75.5,-174 75.5,-168 75.5,-168 75.5,-156 75.5,-156 75.5,-150 81.5,-144 87.5,-144 87.5,-144 173.5,-144 173.5,-144 179.5,-144 185.5,-150 185.5,-156 185.5,-156 185.5,-168 185.5,-168 185.5,-174 179.5,-180 173.5,-180"/>
<text text-anchor="middle" x="130.5" y="-165" font-family="sans" font-size="10.00">indexBAM</text>
<text text-anchor="middle" x="130.5" y="-153" font-family="sans" font-size="10.00">sampleIB: Pfeiffer2</text>
</g>
<!-- 3&#45;&gt;20 -->
<g id="edge24" class="edge"><title>3&#45;&gt;20</title>
<path fill="none" stroke="grey" stroke-width="2" d="M130.5,-215.993C130.5,-208.061 130.5,-198.915 130.5,-190.478"/>
<polygon fill="grey" stroke="grey" stroke-width="2" points="134,-190.315 130.5,-180.315 127,-190.315 134,-190.315"/>
</g>
<!-- 4 -->
<g id="node5" class="node"><title>4</title>
<path fill="none" stroke="#c6d856" stroke-width="2" d="M554.5,-644C554.5,-644 454.5,-644 454.5,-644 448.5,-644 442.5,-638 442.5,-632 442.5,-632 442.5,-620 442.5,-620 442.5,-614 448.5,-608 454.5,-608 454.5,-608 554.5,-608 554.5,-608 560.5,-608 566.5,-614 566.5,-620 566.5,-620 566.5,-632 566.5,-632 566.5,-638 560.5,-644 554.5,-644"/>
<text text-anchor="middle" x="504.5" y="-629" font-family="sans" font-size="10.00">bam2fastq_picard</text>
<text text-anchor="middle" x="504.5" y="-617" font-family="sans" font-size="10.00">sampleB2FP: Pfeiffer3</text>
</g>
<!-- 4&#45;&gt;0 -->
<g id="edge1" class="edge"><title>4&#45;&gt;0</title>
<path fill="none" stroke="grey" stroke-width="2" d="M487.569,-607.837C479.178,-599.331 468.828,-588.839 459.314,-579.195"/>
<polygon fill="grey" stroke="grey" stroke-width="2" points="461.762,-576.693 452.248,-572.032 456.779,-581.609 461.762,-576.693"/>
</g>
<!-- 17 -->
<g id="node18" class="node"><title>17</title>
<path fill="none" stroke="#56d0d8" stroke-width="2" d="M631,-572C631,-572 526,-572 526,-572 520,-572 514,-566 514,-560 514,-560 514,-540 514,-540 514,-534 520,-528 526,-528 526,-528 631,-528 631,-528 637,-528 643,-534 643,-540 643,-540 643,-560 643,-560 643,-566 637,-572 631,-572"/>
<text text-anchor="middle" x="578.5" y="-559" font-family="sans" font-size="10.00">fastq2GZ</text>
<text text-anchor="middle" x="578.5" y="-547" font-family="sans" font-size="10.00">pathFGZ: output/fastq</text>
<text text-anchor="middle" x="578.5" y="-535" font-family="sans" font-size="10.00">sampleFGZ: Pfeiffer3.2</text>
</g>
<!-- 4&#45;&gt;17 -->
<g id="edge20" class="edge"><title>4&#45;&gt;17</title>
<path fill="none" stroke="grey" stroke-width="2" d="M521.663,-607.837C530.169,-599.331 540.661,-588.839 550.305,-579.195"/>
<polygon fill="grey" stroke="grey" stroke-width="2" points="552.872,-581.578 557.468,-572.032 547.922,-576.628 552.872,-581.578"/>
</g>
<!-- 5 -->
<g id="node6" class="node"><title>5</title>
<path fill="none" stroke="#c6d856" stroke-width="2" d="M194.5,-644C194.5,-644 94.5,-644 94.5,-644 88.5,-644 82.5,-638 82.5,-632 82.5,-632 82.5,-620 82.5,-620 82.5,-614 88.5,-608 94.5,-608 94.5,-608 194.5,-608 194.5,-608 200.5,-608 206.5,-614 206.5,-620 206.5,-620 206.5,-632 206.5,-632 206.5,-638 200.5,-644 194.5,-644"/>
<text text-anchor="middle" x="144.5" y="-629" font-family="sans" font-size="10.00">bam2fastq_picard</text>
<text text-anchor="middle" x="144.5" y="-617" font-family="sans" font-size="10.00">sampleB2FP: Pfeiffer2</text>
</g>
<!-- 8 -->
<g id="node9" class="node"><title>8</title>
<path fill="none" stroke="#56d0d8" stroke-width="2" d="M124,-572C124,-572 19,-572 19,-572 13,-572 7,-566 7,-560 7,-560 7,-540 7,-540 7,-534 13,-528 19,-528 19,-528 124,-528 124,-528 130,-528 136,-534 136,-540 136,-540 136,-560 136,-560 136,-566 130,-572 124,-572"/>
<text text-anchor="middle" x="71.5" y="-559" font-family="sans" font-size="10.00">fastq2GZ</text>
<text text-anchor="middle" x="71.5" y="-547" font-family="sans" font-size="10.00">pathFGZ: output/fastq</text>
<text text-anchor="middle" x="71.5" y="-535" font-family="sans" font-size="10.00">sampleFGZ: Pfeiffer2.2</text>
</g>
<!-- 5&#45;&gt;8 -->
<g id="edge7" class="edge"><title>5&#45;&gt;8</title>
<path fill="none" stroke="grey" stroke-width="2" d="M127.569,-607.837C119.178,-599.331 108.828,-588.839 99.3141,-579.195"/>
<polygon fill="grey" stroke="grey" stroke-width="2" points="101.762,-576.693 92.248,-572.032 96.7792,-581.609 101.762,-576.693"/>
</g>
<!-- 12 -->
<g id="node13" class="node"><title>12</title>
<path fill="none" stroke="#56d0d8" stroke-width="2" d="M271,-572C271,-572 166,-572 166,-572 160,-572 154,-566 154,-560 154,-560 154,-540 154,-540 154,-534 160,-528 166,-528 166,-528 271,-528 271,-528 277,-528 283,-534 283,-540 283,-540 283,-560 283,-560 283,-566 277,-572 271,-572"/>
<text text-anchor="middle" x="218.5" y="-559" font-family="sans" font-size="10.00">fastq2GZ</text>
<text text-anchor="middle" x="218.5" y="-547" font-family="sans" font-size="10.00">pathFGZ: output/fastq</text>
<text text-anchor="middle" x="218.5" y="-535" font-family="sans" font-size="10.00">sampleFGZ: Pfeiffer2.1</text>
</g>
<!-- 5&#45;&gt;12 -->
<g id="edge11" class="edge"><title>5&#45;&gt;12</title>
<path fill="none" stroke="grey" stroke-width="2" d="M161.663,-607.837C170.169,-599.331 180.661,-588.839 190.305,-579.195"/>
<polygon fill="grey" stroke="grey" stroke-width="2" points="192.872,-581.578 197.468,-572.032 187.922,-576.628 192.872,-581.578"/>
</g>
<!-- 6 -->
<g id="node7" class="node"><title>6</title>
<path fill="none" stroke="#b6d856" stroke-width="2" d="M209,-420C209,-420 52,-420 52,-420 46,-420 40,-414 40,-408 40,-408 40,-388 40,-388 40,-382 46,-376 52,-376 52,-376 209,-376 209,-376 215,-376 221,-382 221,-388 221,-388 221,-408 221,-408 221,-414 215,-420 209,-420"/>
<text text-anchor="middle" x="130.5" y="-407" font-family="sans" font-size="10.00">sortBAM_biobambam</text>
<text text-anchor="middle" x="130.5" y="-395" font-family="sans" font-size="10.00">pathSBB: output/bam</text>
<text text-anchor="middle" x="130.5" y="-383" font-family="sans" font-size="10.00">sampleSBB: Pfeiffer2_Aligned.out</text>
</g>
<!-- 13 -->
<g id="node14" class="node"><title>13</title>
<path fill="none" stroke="#9fd856" stroke-width="2" d="M223.5,-340C223.5,-340 37.5,-340 37.5,-340 31.5,-340 25.5,-334 25.5,-328 25.5,-328 25.5,-308 25.5,-308 25.5,-302 31.5,-296 37.5,-296 37.5,-296 223.5,-296 223.5,-296 229.5,-296 235.5,-302 235.5,-308 235.5,-308 235.5,-328 235.5,-328 235.5,-334 229.5,-340 223.5,-340"/>
<text text-anchor="middle" x="130.5" y="-327" font-family="sans" font-size="10.00">filteredBAM</text>
<text text-anchor="middle" x="130.5" y="-315" font-family="sans" font-size="10.00">pathFB: output/bam</text>
<text text-anchor="middle" x="130.5" y="-303" font-family="sans" font-size="10.00">sampleFB: Pfeiffer2_Aligned.out_sorted</text>
</g>
<!-- 6&#45;&gt;13 -->
<g id="edge12" class="edge"><title>6&#45;&gt;13</title>
<path fill="none" stroke="grey" stroke-width="2" d="M130.5,-375.686C130.5,-367.798 130.5,-358.684 130.5,-350.103"/>
<polygon fill="grey" stroke="grey" stroke-width="2" points="134,-350.018 130.5,-340.018 127,-350.018 134,-350.018"/>
</g>
<!-- 7 -->
<g id="node8" class="node"><title>7</title>
<path fill="none" stroke="#d6d856" stroke-width="2" d="M146.5,-108C146.5,-108 58.5,-108 58.5,-108 52.5,-108 46.5,-102 46.5,-96 46.5,-96 46.5,-84 46.5,-84 46.5,-78 52.5,-72 58.5,-72 58.5,-72 146.5,-72 146.5,-72 152.5,-72 158.5,-78 158.5,-84 158.5,-84 158.5,-96 158.5,-96 158.5,-102 152.5,-108 146.5,-108"/>
<text text-anchor="middle" x="102.5" y="-93" font-family="sans" font-size="10.00">flagStats</text>
<text text-anchor="middle" x="102.5" y="-81" font-family="sans" font-size="10.00">sampleFS: Pfeiffer2</text>
</g>
<!-- 16 -->
<g id="node17" class="node"><title>16</title>
<path fill="none" stroke="#5663d8" stroke-width="2" d="M312.5,-36C312.5,-36 282.5,-36 282.5,-36 276.5,-36 270.5,-30 270.5,-24 270.5,-24 270.5,-12 270.5,-12 270.5,-6 276.5,-0 282.5,-0 282.5,-0 312.5,-0 312.5,-0 318.5,-0 324.5,-6 324.5,-12 324.5,-12 324.5,-24 324.5,-24 324.5,-30 318.5,-36 312.5,-36"/>
<text text-anchor="middle" x="297.5" y="-15" font-family="sans" font-size="10.00">all</text>
</g>
<!-- 7&#45;&gt;16 -->
<g id="edge18" class="edge"><title>7&#45;&gt;16</title>
<path fill="none" stroke="grey" stroke-width="2" d="M150.202,-71.8761C184.286,-59.641 229.468,-43.4219 260.762,-32.188"/>
<polygon fill="grey" stroke="grey" stroke-width="2" points="262.173,-35.4001 270.403,-28.7272 259.808,-28.8117 262.173,-35.4001"/>
</g>
<!-- 18 -->
<g id="node19" class="node"><title>18</title>
<path fill="none" stroke="#d86e56" stroke-width="2" d="M178.5,-492C178.5,-492 82.5,-492 82.5,-492 76.5,-492 70.5,-486 70.5,-480 70.5,-480 70.5,-468 70.5,-468 70.5,-462 76.5,-456 82.5,-456 82.5,-456 178.5,-456 178.5,-456 184.5,-456 190.5,-462 190.5,-468 190.5,-468 190.5,-480 190.5,-480 190.5,-486 184.5,-492 178.5,-492"/>
<text text-anchor="middle" x="130.5" y="-477" font-family="sans" font-size="10.00">bamALIGN_bwa</text>
<text text-anchor="middle" x="130.5" y="-465" font-family="sans" font-size="10.00">sampleBAB: Pfeiffer2</text>
</g>
<!-- 8&#45;&gt;18 -->
<g id="edge22" class="edge"><title>8&#45;&gt;18</title>
<path fill="none" stroke="grey" stroke-width="2" d="M88.2492,-527.993C95.1353,-519.356 103.169,-509.279 110.371,-500.246"/>
<polygon fill="grey" stroke="grey" stroke-width="2" points="113.198,-502.316 116.695,-492.315 107.724,-497.952 113.198,-502.316"/>
</g>
<!-- 9&#45;&gt;16 -->
<g id="edge19" class="edge"><title>9&#45;&gt;16</title>
<path fill="none" stroke="grey" stroke-width="2" d="M346.433,-71.6966C338.561,-63.2198 328.945,-52.8636 320.327,-43.5826"/>
<polygon fill="grey" stroke="grey" stroke-width="2" points="322.752,-41.0507 313.383,-36.1043 317.622,-45.8139 322.752,-41.0507"/>
</g>
<!-- 10 -->
<g id="node11" class="node"><title>10</title>
<path fill="none" stroke="#b6d856" stroke-width="2" d="M543,-420C543,-420 386,-420 386,-420 380,-420 374,-414 374,-408 374,-408 374,-388 374,-388 374,-382 380,-376 386,-376 386,-376 543,-376 543,-376 549,-376 555,-382 555,-388 555,-388 555,-408 555,-408 555,-414 549,-420 543,-420"/>
<text text-anchor="middle" x="464.5" y="-407" font-family="sans" font-size="10.00">sortBAM_biobambam</text>
<text text-anchor="middle" x="464.5" y="-395" font-family="sans" font-size="10.00">pathSBB: output/bam</text>
<text text-anchor="middle" x="464.5" y="-383" font-family="sans" font-size="10.00">sampleSBB: Pfeiffer3_Aligned.out</text>
</g>
<!-- 19 -->
<g id="node20" class="node"><title>19</title>
<path fill="none" stroke="#9fd856" stroke-width="2" d="M557.5,-340C557.5,-340 371.5,-340 371.5,-340 365.5,-340 359.5,-334 359.5,-328 359.5,-328 359.5,-308 359.5,-308 359.5,-302 365.5,-296 371.5,-296 371.5,-296 557.5,-296 557.5,-296 563.5,-296 569.5,-302 569.5,-308 569.5,-308 569.5,-328 569.5,-328 569.5,-334 563.5,-340 557.5,-340"/>
<text text-anchor="middle" x="464.5" y="-327" font-family="sans" font-size="10.00">filteredBAM</text>
<text text-anchor="middle" x="464.5" y="-315" font-family="sans" font-size="10.00">pathFB: output/bam</text>
<text text-anchor="middle" x="464.5" y="-303" font-family="sans" font-size="10.00">sampleFB: Pfeiffer3_Aligned.out_sorted</text>
</g>
<!-- 10&#45;&gt;19 -->
<g id="edge23" class="edge"><title>10&#45;&gt;19</title>
<path fill="none" stroke="grey" stroke-width="2" d="M464.5,-375.686C464.5,-367.798 464.5,-358.684 464.5,-350.103"/>
<polygon fill="grey" stroke="grey" stroke-width="2" points="468,-350.018 464.5,-340.018 461,-350.018 468,-350.018"/>
</g>
<!-- 11&#45;&gt;16 -->
<g id="edge16" class="edge"><title>11&#45;&gt;16</title>
<path fill="none" stroke="grey" stroke-width="2" d="M444.798,-71.8761C410.714,-59.641 365.532,-43.4219 334.238,-32.188"/>
<polygon fill="grey" stroke="grey" stroke-width="2" points="335.192,-28.8117 324.597,-28.7272 332.827,-35.4001 335.192,-28.8117"/>
</g>
<!-- 12&#45;&gt;18 -->
<g id="edge21" class="edge"><title>12&#45;&gt;18</title>
<path fill="none" stroke="grey" stroke-width="2" d="M193.518,-527.993C182.642,-518.846 169.845,-508.086 158.635,-498.659"/>
<polygon fill="grey" stroke="grey" stroke-width="2" points="160.709,-495.83 150.803,-492.073 156.204,-501.188 160.709,-495.83"/>
</g>
<!-- 13&#45;&gt;3 -->
<g id="edge4" class="edge"><title>13&#45;&gt;3</title>
<path fill="none" stroke="grey" stroke-width="2" d="M130.5,-295.686C130.5,-287.798 130.5,-278.684 130.5,-270.103"/>
<polygon fill="grey" stroke="grey" stroke-width="2" points="134,-270.018 130.5,-260.018 127,-270.018 134,-270.018"/>
</g>
<!-- 14 -->
<g id="node15" class="node"><title>14</title>
<path fill="none" stroke="#88d856" stroke-width="2" d="M276.5,-108C276.5,-108 188.5,-108 188.5,-108 182.5,-108 176.5,-102 176.5,-96 176.5,-96 176.5,-84 176.5,-84 176.5,-78 182.5,-72 188.5,-72 188.5,-72 276.5,-72 276.5,-72 282.5,-72 288.5,-78 288.5,-84 288.5,-84 288.5,-96 288.5,-96 288.5,-102 282.5,-108 276.5,-108"/>
<text text-anchor="middle" x="232.5" y="-93" font-family="sans" font-size="10.00">readLen</text>
<text text-anchor="middle" x="232.5" y="-81" font-family="sans" font-size="10.00">sampleRL: Pfeiffer2</text>
</g>
<!-- 14&#45;&gt;16 -->
<g id="edge17" class="edge"><title>14&#45;&gt;16</title>
<path fill="none" stroke="grey" stroke-width="2" d="M248.567,-71.6966C256.439,-63.2198 266.055,-52.8636 274.673,-43.5826"/>
<polygon fill="grey" stroke="grey" stroke-width="2" points="277.378,-45.8139 281.617,-36.1043 272.248,-41.0507 277.378,-45.8139"/>
</g>
<!-- 15&#45;&gt;10 -->
<g id="edge9" class="edge"><title>15&#45;&gt;10</title>
<path fill="none" stroke="grey" stroke-width="2" d="M464.5,-455.837C464.5,-448.165 464.5,-438.878 464.5,-430.053"/>
<polygon fill="grey" stroke="grey" stroke-width="2" points="468,-430.032 464.5,-420.032 461,-430.032 468,-430.032"/>
</g>
<!-- 17&#45;&gt;15 -->
<g id="edge15" class="edge"><title>17&#45;&gt;15</title>
<path fill="none" stroke="grey" stroke-width="2" d="M546.137,-527.993C531.5,-518.491 514.179,-507.248 499.265,-497.567"/>
<polygon fill="grey" stroke="grey" stroke-width="2" points="501.095,-494.582 490.802,-492.073 497.284,-500.453 501.095,-494.582"/>
</g>
<!-- 18&#45;&gt;6 -->
<g id="edge5" class="edge"><title>18&#45;&gt;6</title>
<path fill="none" stroke="grey" stroke-width="2" d="M130.5,-455.837C130.5,-448.165 130.5,-438.878 130.5,-430.053"/>
<polygon fill="grey" stroke="grey" stroke-width="2" points="134,-430.032 130.5,-420.032 127,-430.032 134,-430.032"/>
</g>
<!-- 19&#45;&gt;1 -->
<g id="edge2" class="edge"><title>19&#45;&gt;1</title>
<path fill="none" stroke="grey" stroke-width="2" d="M464.5,-295.686C464.5,-287.798 464.5,-278.684 464.5,-270.103"/>
<polygon fill="grey" stroke="grey" stroke-width="2" points="468,-270.018 464.5,-260.018 461,-270.018 468,-270.018"/>
</g>
<!-- 20&#45;&gt;7 -->
<g id="edge6" class="edge"><title>20&#45;&gt;7</title>
<path fill="none" stroke="grey" stroke-width="2" d="M123.579,-143.697C120.425,-135.813 116.622,-126.304 113.119,-117.546"/>
<polygon fill="grey" stroke="grey" stroke-width="2" points="116.305,-116.089 109.342,-108.104 109.806,-118.689 116.305,-116.089"/>
</g>
<!-- 20&#45;&gt;14 -->
<g id="edge13" class="edge"><title>20&#45;&gt;14</title>
<path fill="none" stroke="grey" stroke-width="2" d="M155.452,-143.876C168.542,-134.893 184.76,-123.763 198.936,-114.034"/>
<polygon fill="grey" stroke="grey" stroke-width="2" points="201.187,-116.734 207.452,-108.19 197.226,-110.962 201.187,-116.734"/>
</g>
</g>
</svg>
