<?xml version="1.0" encoding="UTF-8" standalone="no"?>
<!DOCTYPE svg PUBLIC "-//W3C//DTD SVG 1.1//EN"
 "http://www.w3.org/Graphics/SVG/1.1/DTD/svg11.dtd">
<!-- Generated by graphviz version 2.38.0 (20140413.2041)
 -->
<!-- Title: snakemake_dag Pages: 1 -->
<svg width="896pt" height="724pt"
 viewBox="0.00 0.00 895.50 724.00" xmlns="http://www.w3.org/2000/svg" xmlns:xlink="http://www.w3.org/1999/xlink">
<g id="graph0" class="graph" transform="scale(1 1) rotate(0) translate(4 720)">
<title>snakemake_dag</title>
<polygon fill="white" stroke="none" points="-4,4 -4,-720 891.5,-720 891.5,4 -4,4"/>
<!-- 0 -->
<g id="node1" class="node"><title>0</title>
<path fill="none" stroke="#56b1d8" stroke-width="2" d="M715.5,-252C715.5,-252 629.5,-252 629.5,-252 623.5,-252 617.5,-246 617.5,-240 617.5,-240 617.5,-228 617.5,-228 617.5,-222 623.5,-216 629.5,-216 629.5,-216 715.5,-216 715.5,-216 721.5,-216 727.5,-222 727.5,-228 727.5,-228 727.5,-240 727.5,-240 727.5,-246 721.5,-252 715.5,-252"/>
<text text-anchor="middle" x="672.5" y="-237" font-family="sans" font-size="10.00">indexBAM</text>
<text text-anchor="middle" x="672.5" y="-225" font-family="sans" font-size="10.00">sampleIB: Pfeiffer2</text>
</g>
<!-- 2 -->
<g id="node3" class="node"><title>2</title>
<path fill="none" stroke="#c6d856" stroke-width="2" d="M875.5,-180C875.5,-180 769.5,-180 769.5,-180 763.5,-180 757.5,-174 757.5,-168 757.5,-168 757.5,-156 757.5,-156 757.5,-150 763.5,-144 769.5,-144 769.5,-144 875.5,-144 875.5,-144 881.5,-144 887.5,-150 887.5,-156 887.5,-156 887.5,-168 887.5,-168 887.5,-174 881.5,-180 875.5,-180"/>
<text text-anchor="middle" x="822.5" y="-165" font-family="sans" font-size="10.00">collectWGS</text>
<text text-anchor="middle" x="822.5" y="-153" font-family="sans" font-size="10.00">sampleCWGS: Pfeiffer2</text>
</g>
<!-- 0&#45;&gt;2 -->
<g id="edge3" class="edge"><title>0&#45;&gt;2</title>
<path fill="none" stroke="grey" stroke-width="2" d="M709.194,-215.876C729.518,-206.392 754.971,-194.513 776.602,-184.419"/>
<polygon fill="grey" stroke="grey" stroke-width="2" points="778.343,-187.469 785.925,-180.068 775.383,-181.126 778.343,-187.469"/>
</g>
<!-- 8 -->
<g id="node9" class="node"><title>8</title>
<path fill="none" stroke="#56d8d8" stroke-width="2" d="M275.5,-180C275.5,-180 175.5,-180 175.5,-180 169.5,-180 163.5,-174 163.5,-168 163.5,-168 163.5,-156 163.5,-156 163.5,-150 169.5,-144 175.5,-144 175.5,-144 275.5,-144 275.5,-144 281.5,-144 287.5,-150 287.5,-156 287.5,-156 287.5,-168 287.5,-168 287.5,-174 281.5,-180 275.5,-180"/>
<text text-anchor="middle" x="225.5" y="-165" font-family="sans" font-size="10.00">collectMultMetrics</text>
<text text-anchor="middle" x="225.5" y="-153" font-family="sans" font-size="10.00">sampleCMM: Pfeiffer2</text>
</g>
<!-- 0&#45;&gt;8 -->
<g id="edge9" class="edge"><title>0&#45;&gt;8</title>
<path fill="none" stroke="grey" stroke-width="2" d="M617.435,-226.899C545.94,-218.61 417.131,-202.423 297.806,-180.155"/>
<polygon fill="grey" stroke="grey" stroke-width="2" points="298.241,-176.675 287.766,-178.262 296.945,-183.554 298.241,-176.675"/>
</g>
<!-- 23 -->
<g id="node24" class="node"><title>23</title>
<path fill="none" stroke="#d8c356" stroke-width="2" d="M727.5,-180C727.5,-180 617.5,-180 617.5,-180 611.5,-180 605.5,-174 605.5,-168 605.5,-168 605.5,-156 605.5,-156 605.5,-150 611.5,-144 617.5,-144 617.5,-144 727.5,-144 727.5,-144 733.5,-144 739.5,-150 739.5,-156 739.5,-156 739.5,-168 739.5,-168 739.5,-174 733.5,-180 727.5,-180"/>
<text text-anchor="middle" x="672.5" y="-165" font-family="sans" font-size="10.00">collectRNASeq</text>
<text text-anchor="middle" x="672.5" y="-153" font-family="sans" font-size="10.00">sampleCRNAS: Pfeiffer2</text>
</g>
<!-- 0&#45;&gt;23 -->
<g id="edge30" class="edge"><title>0&#45;&gt;23</title>
<path fill="none" stroke="grey" stroke-width="2" d="M672.5,-215.697C672.5,-207.983 672.5,-198.712 672.5,-190.112"/>
<polygon fill="grey" stroke="grey" stroke-width="2" points="676,-190.104 672.5,-180.104 669,-190.104 676,-190.104"/>
</g>
<!-- 1 -->
<g id="node2" class="node"><title>1</title>
<path fill="none" stroke="#56d892" stroke-width="2" d="M451,-492C451,-492 294,-492 294,-492 288,-492 282,-486 282,-480 282,-480 282,-460 282,-460 282,-454 288,-448 294,-448 294,-448 451,-448 451,-448 457,-448 463,-454 463,-460 463,-460 463,-480 463,-480 463,-486 457,-492 451,-492"/>
<text text-anchor="middle" x="372.5" y="-479" font-family="sans" font-size="10.00">sortBAM_biobambam</text>
<text text-anchor="middle" x="372.5" y="-467" font-family="sans" font-size="10.00">pathSBB: output/bam</text>
<text text-anchor="middle" x="372.5" y="-455" font-family="sans" font-size="10.00">sampleSBB: Pfeiffer3_Aligned.out</text>
</g>
<!-- 12 -->
<g id="node13" class="node"><title>12</title>
<path fill="none" stroke="#88d856" stroke-width="2" d="M465.5,-412C465.5,-412 279.5,-412 279.5,-412 273.5,-412 267.5,-406 267.5,-400 267.5,-400 267.5,-380 267.5,-380 267.5,-374 273.5,-368 279.5,-368 279.5,-368 465.5,-368 465.5,-368 471.5,-368 477.5,-374 477.5,-380 477.5,-380 477.5,-400 477.5,-400 477.5,-406 471.5,-412 465.5,-412"/>
<text text-anchor="middle" x="372.5" y="-399" font-family="sans" font-size="10.00">filteredBAM</text>
<text text-anchor="middle" x="372.5" y="-387" font-family="sans" font-size="10.00">pathFB: output/bam</text>
<text text-anchor="middle" x="372.5" y="-375" font-family="sans" font-size="10.00">sampleFB: Pfeiffer3_Aligned.out_sorted</text>
</g>
<!-- 1&#45;&gt;12 -->
<g id="edge17" class="edge"><title>1&#45;&gt;12</title>
<path fill="none" stroke="grey" stroke-width="2" d="M372.5,-447.686C372.5,-439.798 372.5,-430.684 372.5,-422.103"/>
<polygon fill="grey" stroke="grey" stroke-width="2" points="376,-422.018 372.5,-412.018 369,-422.018 376,-422.018"/>
</g>
<!-- 22 -->
<g id="node23" class="node"><title>22</title>
<path fill="none" stroke="#5673d8" stroke-width="2" d="M590.5,-108C590.5,-108 506.5,-108 506.5,-108 500.5,-108 494.5,-102 494.5,-96 494.5,-96 494.5,-84 494.5,-84 494.5,-78 500.5,-72 506.5,-72 506.5,-72 590.5,-72 590.5,-72 596.5,-72 602.5,-78 602.5,-84 602.5,-84 602.5,-96 602.5,-96 602.5,-102 596.5,-108 590.5,-108"/>
<text text-anchor="middle" x="548.5" y="-87" font-family="sans" font-size="10.00">collectWGSMERGE</text>
</g>
<!-- 2&#45;&gt;22 -->
<g id="edge28" class="edge"><title>2&#45;&gt;22</title>
<path fill="none" stroke="grey" stroke-width="2" d="M757.218,-144.322C713.457,-133.142 656.1,-118.489 612.589,-107.373"/>
<polygon fill="grey" stroke="grey" stroke-width="2" points="613.241,-103.927 602.686,-104.843 611.508,-110.71 613.241,-103.927"/>
</g>
<!-- 3 -->
<g id="node4" class="node"><title>3</title>
<path fill="none" stroke="#5663d8" stroke-width="2" d="M756.5,-716C756.5,-716 656.5,-716 656.5,-716 650.5,-716 644.5,-710 644.5,-704 644.5,-704 644.5,-692 644.5,-692 644.5,-686 650.5,-680 656.5,-680 656.5,-680 756.5,-680 756.5,-680 762.5,-680 768.5,-686 768.5,-692 768.5,-692 768.5,-704 768.5,-704 768.5,-710 762.5,-716 756.5,-716"/>
<text text-anchor="middle" x="706.5" y="-701" font-family="sans" font-size="10.00">bam2fastq_picard</text>
<text text-anchor="middle" x="706.5" y="-689" font-family="sans" font-size="10.00">sampleB2FP: Pfeiffer2</text>
</g>
<!-- 21 -->
<g id="node22" class="node"><title>21</title>
<path fill="none" stroke="#56d882" stroke-width="2" d="M686,-644C686,-644 581,-644 581,-644 575,-644 569,-638 569,-632 569,-632 569,-612 569,-612 569,-606 575,-600 581,-600 581,-600 686,-600 686,-600 692,-600 698,-606 698,-612 698,-612 698,-632 698,-632 698,-638 692,-644 686,-644"/>
<text text-anchor="middle" x="633.5" y="-631" font-family="sans" font-size="10.00">fastq2GZ</text>
<text text-anchor="middle" x="633.5" y="-619" font-family="sans" font-size="10.00">pathFGZ: output/fastq</text>
<text text-anchor="middle" x="633.5" y="-607" font-family="sans" font-size="10.00">sampleFGZ: Pfeiffer2.1</text>
</g>
<!-- 3&#45;&gt;21 -->
<g id="edge27" class="edge"><title>3&#45;&gt;21</title>
<path fill="none" stroke="grey" stroke-width="2" d="M689.569,-679.837C681.178,-671.331 670.828,-660.839 661.314,-651.195"/>
<polygon fill="grey" stroke="grey" stroke-width="2" points="663.762,-648.693 654.248,-644.032 658.779,-653.609 663.762,-648.693"/>
</g>
<!-- 26 -->
<g id="node27" class="node"><title>26</title>
<path fill="none" stroke="#56d882" stroke-width="2" d="M833,-644C833,-644 728,-644 728,-644 722,-644 716,-638 716,-632 716,-632 716,-612 716,-612 716,-606 722,-600 728,-600 728,-600 833,-600 833,-600 839,-600 845,-606 845,-612 845,-612 845,-632 845,-632 845,-638 839,-644 833,-644"/>
<text text-anchor="middle" x="780.5" y="-631" font-family="sans" font-size="10.00">fastq2GZ</text>
<text text-anchor="middle" x="780.5" y="-619" font-family="sans" font-size="10.00">pathFGZ: output/fastq</text>
<text text-anchor="middle" x="780.5" y="-607" font-family="sans" font-size="10.00">sampleFGZ: Pfeiffer2.2</text>
</g>
<!-- 3&#45;&gt;26 -->
<g id="edge34" class="edge"><title>3&#45;&gt;26</title>
<path fill="none" stroke="grey" stroke-width="2" d="M723.663,-679.837C732.169,-671.331 742.661,-660.839 752.305,-651.195"/>
<polygon fill="grey" stroke="grey" stroke-width="2" points="754.872,-653.578 759.468,-644.032 749.922,-648.628 754.872,-653.578"/>
</g>
<!-- 4 -->
<g id="node5" class="node"><title>4</title>
<path fill="none" stroke="#56a9d8" stroke-width="2" d="M791,-332C791,-332 554,-332 554,-332 548,-332 542,-326 542,-320 542,-320 542,-300 542,-300 542,-294 548,-288 554,-288 554,-288 791,-288 791,-288 797,-288 803,-294 803,-300 803,-300 803,-320 803,-320 803,-326 797,-332 791,-332"/>
<text text-anchor="middle" x="672.5" y="-319" font-family="sans" font-size="10.00">markdupBAM</text>
<text text-anchor="middle" x="672.5" y="-307" font-family="sans" font-size="10.00">outputDIR: output</text>
<text text-anchor="middle" x="672.5" y="-295" font-family="sans" font-size="10.00">sampleMDB: Pfeiffer2_Aligned.out_sorted_filtered</text>
</g>
<!-- 4&#45;&gt;0 -->
<g id="edge1" class="edge"><title>4&#45;&gt;0</title>
<path fill="none" stroke="grey" stroke-width="2" d="M672.5,-287.993C672.5,-280.061 672.5,-270.915 672.5,-262.478"/>
<polygon fill="grey" stroke="grey" stroke-width="2" points="676,-262.315 672.5,-252.315 669,-262.315 676,-262.315"/>
</g>
<!-- 5 -->
<g id="node6" class="node"><title>5</title>
<path fill="none" stroke="#56d882" stroke-width="2" d="M352,-644C352,-644 247,-644 247,-644 241,-644 235,-638 235,-632 235,-632 235,-612 235,-612 235,-606 241,-600 247,-600 247,-600 352,-600 352,-600 358,-600 364,-606 364,-612 364,-612 364,-632 364,-632 364,-638 358,-644 352,-644"/>
<text text-anchor="middle" x="299.5" y="-631" font-family="sans" font-size="10.00">fastq2GZ</text>
<text text-anchor="middle" x="299.5" y="-619" font-family="sans" font-size="10.00">pathFGZ: output/fastq</text>
<text text-anchor="middle" x="299.5" y="-607" font-family="sans" font-size="10.00">sampleFGZ: Pfeiffer3.2</text>
</g>
<!-- 7 -->
<g id="node8" class="node"><title>7</title>
<path fill="none" stroke="#d8b456" stroke-width="2" d="M420.5,-564C420.5,-564 324.5,-564 324.5,-564 318.5,-564 312.5,-558 312.5,-552 312.5,-552 312.5,-540 312.5,-540 312.5,-534 318.5,-528 324.5,-528 324.5,-528 420.5,-528 420.5,-528 426.5,-528 432.5,-534 432.5,-540 432.5,-540 432.5,-552 432.5,-552 432.5,-558 426.5,-564 420.5,-564"/>
<text text-anchor="middle" x="372.5" y="-549" font-family="sans" font-size="10.00">bamALIGN_bwa</text>
<text text-anchor="middle" x="372.5" y="-537" font-family="sans" font-size="10.00">sampleBAB: Pfeiffer3</text>
</g>
<!-- 5&#45;&gt;7 -->
<g id="edge7" class="edge"><title>5&#45;&gt;7</title>
<path fill="none" stroke="grey" stroke-width="2" d="M320.224,-599.993C328.918,-591.179 339.09,-580.868 348.139,-571.694"/>
<polygon fill="grey" stroke="grey" stroke-width="2" points="350.888,-573.892 355.419,-564.315 345.905,-568.976 350.888,-573.892"/>
</g>
<!-- 6 -->
<g id="node7" class="node"><title>6</title>
<path fill="none" stroke="#88d856" stroke-width="2" d="M765.5,-412C765.5,-412 579.5,-412 579.5,-412 573.5,-412 567.5,-406 567.5,-400 567.5,-400 567.5,-380 567.5,-380 567.5,-374 573.5,-368 579.5,-368 579.5,-368 765.5,-368 765.5,-368 771.5,-368 777.5,-374 777.5,-380 777.5,-380 777.5,-400 777.5,-400 777.5,-406 771.5,-412 765.5,-412"/>
<text text-anchor="middle" x="672.5" y="-399" font-family="sans" font-size="10.00">filteredBAM</text>
<text text-anchor="middle" x="672.5" y="-387" font-family="sans" font-size="10.00">pathFB: output/bam</text>
<text text-anchor="middle" x="672.5" y="-375" font-family="sans" font-size="10.00">sampleFB: Pfeiffer2_Aligned.out_sorted</text>
</g>
<!-- 6&#45;&gt;4 -->
<g id="edge4" class="edge"><title>6&#45;&gt;4</title>
<path fill="none" stroke="grey" stroke-width="2" d="M672.5,-367.686C672.5,-359.798 672.5,-350.684 672.5,-342.103"/>
<polygon fill="grey" stroke="grey" stroke-width="2" points="676,-342.018 672.5,-332.018 669,-342.018 676,-342.018"/>
</g>
<!-- 7&#45;&gt;1 -->
<g id="edge2" class="edge"><title>7&#45;&gt;1</title>
<path fill="none" stroke="grey" stroke-width="2" d="M372.5,-527.837C372.5,-520.165 372.5,-510.878 372.5,-502.053"/>
<polygon fill="grey" stroke="grey" stroke-width="2" points="376,-502.032 372.5,-492.032 369,-502.032 376,-502.032"/>
</g>
<!-- 10 -->
<g id="node11" class="node"><title>10</title>
<path fill="none" stroke="#afd856" stroke-width="2" d="M121,-108C121,-108 12,-108 12,-108 6,-108 0,-102 0,-96 0,-96 0,-84 0,-84 0,-78 6,-72 12,-72 12,-72 121,-72 121,-72 127,-72 133,-78 133,-84 133,-84 133,-96 133,-96 133,-102 127,-108 121,-108"/>
<text text-anchor="middle" x="66.5" y="-87" font-family="sans" font-size="10.00">collectInsertSizeMERGE</text>
</g>
<!-- 8&#45;&gt;10 -->
<g id="edge11" class="edge"><title>8&#45;&gt;10</title>
<path fill="none" stroke="grey" stroke-width="2" d="M186.604,-143.876C164.868,-134.307 137.596,-122.3 114.536,-112.148"/>
<polygon fill="grey" stroke="grey" stroke-width="2" points="115.832,-108.894 105.269,-108.068 113.011,-115.301 115.832,-108.894"/>
</g>
<!-- 16 -->
<g id="node17" class="node"><title>16</title>
<path fill="none" stroke="#68d856" stroke-width="2" d="M322,-108C322,-108 163,-108 163,-108 157,-108 151,-102 151,-96 151,-96 151,-84 151,-84 151,-78 157,-72 163,-72 163,-72 322,-72 322,-72 328,-72 334,-78 334,-84 334,-84 334,-96 334,-96 334,-102 328,-108 322,-108"/>
<text text-anchor="middle" x="242.5" y="-87" font-family="sans" font-size="10.00">collectAlignmentSummaryMERGE</text>
</g>
<!-- 8&#45;&gt;16 -->
<g id="edge21" class="edge"><title>8&#45;&gt;16</title>
<path fill="none" stroke="grey" stroke-width="2" d="M229.702,-143.697C231.596,-135.898 233.877,-126.509 235.984,-117.829"/>
<polygon fill="grey" stroke="grey" stroke-width="2" points="239.387,-118.648 238.346,-108.104 232.585,-116.996 239.387,-118.648"/>
</g>
<!-- 9 -->
<g id="node10" class="node"><title>9</title>
<path fill="none" stroke="#56b1d8" stroke-width="2" d="M415.5,-252C415.5,-252 329.5,-252 329.5,-252 323.5,-252 317.5,-246 317.5,-240 317.5,-240 317.5,-228 317.5,-228 317.5,-222 323.5,-216 329.5,-216 329.5,-216 415.5,-216 415.5,-216 421.5,-216 427.5,-222 427.5,-228 427.5,-228 427.5,-240 427.5,-240 427.5,-246 421.5,-252 415.5,-252"/>
<text text-anchor="middle" x="372.5" y="-237" font-family="sans" font-size="10.00">indexBAM</text>
<text text-anchor="middle" x="372.5" y="-225" font-family="sans" font-size="10.00">sampleIB: Pfeiffer3</text>
</g>
<!-- 13 -->
<g id="node14" class="node"><title>13</title>
<path fill="none" stroke="#56d8d8" stroke-width="2" d="M133.5,-180C133.5,-180 33.5,-180 33.5,-180 27.5,-180 21.5,-174 21.5,-168 21.5,-168 21.5,-156 21.5,-156 21.5,-150 27.5,-144 33.5,-144 33.5,-144 133.5,-144 133.5,-144 139.5,-144 145.5,-150 145.5,-156 145.5,-156 145.5,-168 145.5,-168 145.5,-174 139.5,-180 133.5,-180"/>
<text text-anchor="middle" x="83.5" y="-165" font-family="sans" font-size="10.00">collectMultMetrics</text>
<text text-anchor="middle" x="83.5" y="-153" font-family="sans" font-size="10.00">sampleCMM: Pfeiffer3</text>
</g>
<!-- 9&#45;&gt;13 -->
<g id="edge18" class="edge"><title>9&#45;&gt;13</title>
<path fill="none" stroke="grey" stroke-width="2" d="M317.461,-219.669C271.477,-208.531 205.566,-192.566 155.414,-180.419"/>
<polygon fill="grey" stroke="grey" stroke-width="2" points="156.147,-176.995 145.604,-178.042 154.499,-183.798 156.147,-176.995"/>
</g>
<!-- 17 -->
<g id="node18" class="node"><title>17</title>
<path fill="none" stroke="#d8c356" stroke-width="2" d="M427.5,-180C427.5,-180 317.5,-180 317.5,-180 311.5,-180 305.5,-174 305.5,-168 305.5,-168 305.5,-156 305.5,-156 305.5,-150 311.5,-144 317.5,-144 317.5,-144 427.5,-144 427.5,-144 433.5,-144 439.5,-150 439.5,-156 439.5,-156 439.5,-168 439.5,-168 439.5,-174 433.5,-180 427.5,-180"/>
<text text-anchor="middle" x="372.5" y="-165" font-family="sans" font-size="10.00">collectRNASeq</text>
<text text-anchor="middle" x="372.5" y="-153" font-family="sans" font-size="10.00">sampleCRNAS: Pfeiffer3</text>
</g>
<!-- 9&#45;&gt;17 -->
<g id="edge22" class="edge"><title>9&#45;&gt;17</title>
<path fill="none" stroke="grey" stroke-width="2" d="M372.5,-215.697C372.5,-207.983 372.5,-198.712 372.5,-190.112"/>
<polygon fill="grey" stroke="grey" stroke-width="2" points="376,-190.104 372.5,-180.104 369,-190.104 376,-190.104"/>
</g>
<!-- 24 -->
<g id="node25" class="node"><title>24</title>
<path fill="none" stroke="#c6d856" stroke-width="2" d="M575.5,-180C575.5,-180 469.5,-180 469.5,-180 463.5,-180 457.5,-174 457.5,-168 457.5,-168 457.5,-156 457.5,-156 457.5,-150 463.5,-144 469.5,-144 469.5,-144 575.5,-144 575.5,-144 581.5,-144 587.5,-150 587.5,-156 587.5,-156 587.5,-168 587.5,-168 587.5,-174 581.5,-180 575.5,-180"/>
<text text-anchor="middle" x="522.5" y="-165" font-family="sans" font-size="10.00">collectWGS</text>
<text text-anchor="middle" x="522.5" y="-153" font-family="sans" font-size="10.00">sampleCWGS: Pfeiffer3</text>
</g>
<!-- 9&#45;&gt;24 -->
<g id="edge31" class="edge"><title>9&#45;&gt;24</title>
<path fill="none" stroke="grey" stroke-width="2" d="M409.194,-215.876C429.518,-206.392 454.971,-194.513 476.602,-184.419"/>
<polygon fill="grey" stroke="grey" stroke-width="2" points="478.343,-187.469 485.925,-180.068 475.383,-181.126 478.343,-187.469"/>
</g>
<!-- 11 -->
<g id="node12" class="node"><title>11</title>
<path fill="none" stroke="#56d8a9" stroke-width="2" d="M343.5,-36C343.5,-36 313.5,-36 313.5,-36 307.5,-36 301.5,-30 301.5,-24 301.5,-24 301.5,-12 301.5,-12 301.5,-6 307.5,-0 313.5,-0 313.5,-0 343.5,-0 343.5,-0 349.5,-0 355.5,-6 355.5,-12 355.5,-12 355.5,-24 355.5,-24 355.5,-30 349.5,-36 343.5,-36"/>
<text text-anchor="middle" x="328.5" y="-15" font-family="sans" font-size="10.00">all</text>
</g>
<!-- 10&#45;&gt;11 -->
<g id="edge15" class="edge"><title>10&#45;&gt;11</title>
<path fill="none" stroke="grey" stroke-width="2" d="M130.257,-71.9656C180.773,-58.4691 249.591,-40.0826 291.435,-28.9028"/>
<polygon fill="grey" stroke="grey" stroke-width="2" points="292.452,-32.2539 301.21,-26.2912 290.645,-25.4911 292.452,-32.2539"/>
</g>
<!-- 18 -->
<g id="node19" class="node"><title>18</title>
<path fill="none" stroke="#56a9d8" stroke-width="2" d="M491,-332C491,-332 254,-332 254,-332 248,-332 242,-326 242,-320 242,-320 242,-300 242,-300 242,-294 248,-288 254,-288 254,-288 491,-288 491,-288 497,-288 503,-294 503,-300 503,-300 503,-320 503,-320 503,-326 497,-332 491,-332"/>
<text text-anchor="middle" x="372.5" y="-319" font-family="sans" font-size="10.00">markdupBAM</text>
<text text-anchor="middle" x="372.5" y="-307" font-family="sans" font-size="10.00">outputDIR: output</text>
<text text-anchor="middle" x="372.5" y="-295" font-family="sans" font-size="10.00">sampleMDB: Pfeiffer3_Aligned.out_sorted_filtered</text>
</g>
<!-- 12&#45;&gt;18 -->
<g id="edge23" class="edge"><title>12&#45;&gt;18</title>
<path fill="none" stroke="grey" stroke-width="2" d="M372.5,-367.686C372.5,-359.798 372.5,-350.684 372.5,-342.103"/>
<polygon fill="grey" stroke="grey" stroke-width="2" points="376,-342.018 372.5,-332.018 369,-342.018 376,-342.018"/>
</g>
<!-- 13&#45;&gt;10 -->
<g id="edge12" class="edge"><title>13&#45;&gt;10</title>
<path fill="none" stroke="grey" stroke-width="2" d="M79.2978,-143.697C77.4038,-135.898 75.1235,-126.509 73.0157,-117.829"/>
<polygon fill="grey" stroke="grey" stroke-width="2" points="76.4151,-116.996 70.6539,-108.104 69.6128,-118.648 76.4151,-116.996"/>
</g>
<!-- 13&#45;&gt;16 -->
<g id="edge20" class="edge"><title>13&#45;&gt;16</title>
<path fill="none" stroke="grey" stroke-width="2" d="M122.396,-143.876C144.132,-134.307 171.404,-122.3 194.464,-112.148"/>
<polygon fill="grey" stroke="grey" stroke-width="2" points="195.989,-115.301 203.731,-108.068 193.168,-108.894 195.989,-115.301"/>
</g>
<!-- 14 -->
<g id="node15" class="node"><title>14</title>
<path fill="none" stroke="#56d892" stroke-width="2" d="M751,-492C751,-492 594,-492 594,-492 588,-492 582,-486 582,-480 582,-480 582,-460 582,-460 582,-454 588,-448 594,-448 594,-448 751,-448 751,-448 757,-448 763,-454 763,-460 763,-460 763,-480 763,-480 763,-486 757,-492 751,-492"/>
<text text-anchor="middle" x="672.5" y="-479" font-family="sans" font-size="10.00">sortBAM_biobambam</text>
<text text-anchor="middle" x="672.5" y="-467" font-family="sans" font-size="10.00">pathSBB: output/bam</text>
<text text-anchor="middle" x="672.5" y="-455" font-family="sans" font-size="10.00">sampleSBB: Pfeiffer2_Aligned.out</text>
</g>
<!-- 14&#45;&gt;6 -->
<g id="edge6" class="edge"><title>14&#45;&gt;6</title>
<path fill="none" stroke="grey" stroke-width="2" d="M672.5,-447.686C672.5,-439.798 672.5,-430.684 672.5,-422.103"/>
<polygon fill="grey" stroke="grey" stroke-width="2" points="676,-422.018 672.5,-412.018 669,-422.018 676,-422.018"/>
</g>
<!-- 15 -->
<g id="node16" class="node"><title>15</title>
<path fill="none" stroke="#5663d8" stroke-width="2" d="M423.5,-716C423.5,-716 323.5,-716 323.5,-716 317.5,-716 311.5,-710 311.5,-704 311.5,-704 311.5,-692 311.5,-692 311.5,-686 317.5,-680 323.5,-680 323.5,-680 423.5,-680 423.5,-680 429.5,-680 435.5,-686 435.5,-692 435.5,-692 435.5,-704 435.5,-704 435.5,-710 429.5,-716 423.5,-716"/>
<text text-anchor="middle" x="373.5" y="-701" font-family="sans" font-size="10.00">bam2fastq_picard</text>
<text text-anchor="middle" x="373.5" y="-689" font-family="sans" font-size="10.00">sampleB2FP: Pfeiffer3</text>
</g>
<!-- 15&#45;&gt;5 -->
<g id="edge5" class="edge"><title>15&#45;&gt;5</title>
<path fill="none" stroke="grey" stroke-width="2" d="M356.337,-679.837C347.831,-671.331 337.339,-660.839 327.695,-651.195"/>
<polygon fill="grey" stroke="grey" stroke-width="2" points="330.078,-648.628 320.532,-644.032 325.128,-653.578 330.078,-648.628"/>
</g>
<!-- 20 -->
<g id="node21" class="node"><title>20</title>
<path fill="none" stroke="#56d882" stroke-width="2" d="M499,-644C499,-644 394,-644 394,-644 388,-644 382,-638 382,-632 382,-632 382,-612 382,-612 382,-606 388,-600 394,-600 394,-600 499,-600 499,-600 505,-600 511,-606 511,-612 511,-612 511,-632 511,-632 511,-638 505,-644 499,-644"/>
<text text-anchor="middle" x="446.5" y="-631" font-family="sans" font-size="10.00">fastq2GZ</text>
<text text-anchor="middle" x="446.5" y="-619" font-family="sans" font-size="10.00">pathFGZ: output/fastq</text>
<text text-anchor="middle" x="446.5" y="-607" font-family="sans" font-size="10.00">sampleFGZ: Pfeiffer3.1</text>
</g>
<!-- 15&#45;&gt;20 -->
<g id="edge26" class="edge"><title>15&#45;&gt;20</title>
<path fill="none" stroke="grey" stroke-width="2" d="M390.431,-679.837C398.822,-671.331 409.172,-660.839 418.686,-651.195"/>
<polygon fill="grey" stroke="grey" stroke-width="2" points="421.221,-653.609 425.752,-644.032 416.238,-648.693 421.221,-653.609"/>
</g>
<!-- 16&#45;&gt;11 -->
<g id="edge16" class="edge"><title>16&#45;&gt;11</title>
<path fill="none" stroke="grey" stroke-width="2" d="M263.758,-71.6966C274.589,-62.8807 287.918,-52.0321 299.66,-42.4742"/>
<polygon fill="grey" stroke="grey" stroke-width="2" points="301.94,-45.1316 307.486,-36.1043 297.521,-39.7026 301.94,-45.1316"/>
</g>
<!-- 19 -->
<g id="node20" class="node"><title>19</title>
<path fill="none" stroke="#56d8b9" stroke-width="2" d="M464.5,-108C464.5,-108 364.5,-108 364.5,-108 358.5,-108 352.5,-102 352.5,-96 352.5,-96 352.5,-84 352.5,-84 352.5,-78 358.5,-72 364.5,-72 364.5,-72 464.5,-72 464.5,-72 470.5,-72 476.5,-78 476.5,-84 476.5,-84 476.5,-96 476.5,-96 476.5,-102 470.5,-108 464.5,-108"/>
<text text-anchor="middle" x="414.5" y="-87" font-family="sans" font-size="10.00">collectRNASeqMERGE</text>
</g>
<!-- 17&#45;&gt;19 -->
<g id="edge24" class="edge"><title>17&#45;&gt;19</title>
<path fill="none" stroke="grey" stroke-width="2" d="M382.882,-143.697C387.765,-135.559 393.687,-125.689 399.079,-116.701"/>
<polygon fill="grey" stroke="grey" stroke-width="2" points="402.094,-118.48 404.237,-108.104 396.091,-114.879 402.094,-118.48"/>
</g>
<!-- 18&#45;&gt;9 -->
<g id="edge10" class="edge"><title>18&#45;&gt;9</title>
<path fill="none" stroke="grey" stroke-width="2" d="M372.5,-287.993C372.5,-280.061 372.5,-270.915 372.5,-262.478"/>
<polygon fill="grey" stroke="grey" stroke-width="2" points="376,-262.315 372.5,-252.315 369,-262.315 376,-262.315"/>
</g>
<!-- 19&#45;&gt;11 -->
<g id="edge13" class="edge"><title>19&#45;&gt;11</title>
<path fill="none" stroke="grey" stroke-width="2" d="M393.242,-71.6966C382.411,-62.8807 369.082,-52.0321 357.34,-42.4742"/>
<polygon fill="grey" stroke="grey" stroke-width="2" points="359.479,-39.7026 349.514,-36.1043 355.06,-45.1316 359.479,-39.7026"/>
</g>
<!-- 20&#45;&gt;7 -->
<g id="edge8" class="edge"><title>20&#45;&gt;7</title>
<path fill="none" stroke="grey" stroke-width="2" d="M425.493,-599.993C416.591,-591.091 406.161,-580.661 396.92,-571.42"/>
<polygon fill="grey" stroke="grey" stroke-width="2" points="399.361,-568.911 389.815,-564.315 394.411,-573.861 399.361,-568.911"/>
</g>
<!-- 25 -->
<g id="node26" class="node"><title>25</title>
<path fill="none" stroke="#d8b456" stroke-width="2" d="M720.5,-564C720.5,-564 624.5,-564 624.5,-564 618.5,-564 612.5,-558 612.5,-552 612.5,-552 612.5,-540 612.5,-540 612.5,-534 618.5,-528 624.5,-528 624.5,-528 720.5,-528 720.5,-528 726.5,-528 732.5,-534 732.5,-540 732.5,-540 732.5,-552 732.5,-552 732.5,-558 726.5,-564 720.5,-564"/>
<text text-anchor="middle" x="672.5" y="-549" font-family="sans" font-size="10.00">bamALIGN_bwa</text>
<text text-anchor="middle" x="672.5" y="-537" font-family="sans" font-size="10.00">sampleBAB: Pfeiffer2</text>
</g>
<!-- 21&#45;&gt;25 -->
<g id="edge33" class="edge"><title>21&#45;&gt;25</title>
<path fill="none" stroke="grey" stroke-width="2" d="M644.572,-599.993C648.938,-591.708 654.002,-582.1 658.609,-573.357"/>
<polygon fill="grey" stroke="grey" stroke-width="2" points="661.809,-574.793 663.375,-564.315 655.616,-571.529 661.809,-574.793"/>
</g>
<!-- 22&#45;&gt;11 -->
<g id="edge14" class="edge"><title>22&#45;&gt;11</title>
<path fill="none" stroke="grey" stroke-width="2" d="M494.963,-71.9656C454.91,-59.2213 401.153,-42.1169 365.703,-30.8372"/>
<polygon fill="grey" stroke="grey" stroke-width="2" points="366.361,-27.3738 355.77,-27.6769 364.238,-34.0443 366.361,-27.3738"/>
</g>
<!-- 23&#45;&gt;19 -->
<g id="edge25" class="edge"><title>23&#45;&gt;19</title>
<path fill="none" stroke="grey" stroke-width="2" d="M609.716,-143.966C572.452,-133.855 525.075,-121.001 486.326,-110.488"/>
<polygon fill="grey" stroke="grey" stroke-width="2" points="487.239,-107.109 476.671,-107.868 485.406,-113.865 487.239,-107.109"/>
</g>
<!-- 24&#45;&gt;22 -->
<g id="edge29" class="edge"><title>24&#45;&gt;22</title>
<path fill="none" stroke="grey" stroke-width="2" d="M528.927,-143.697C531.855,-135.813 535.387,-126.304 538.64,-117.546"/>
<polygon fill="grey" stroke="grey" stroke-width="2" points="541.946,-118.697 542.147,-108.104 535.384,-116.26 541.946,-118.697"/>
</g>
<!-- 25&#45;&gt;14 -->
<g id="edge19" class="edge"><title>25&#45;&gt;14</title>
<path fill="none" stroke="grey" stroke-width="2" d="M672.5,-527.837C672.5,-520.165 672.5,-510.878 672.5,-502.053"/>
<polygon fill="grey" stroke="grey" stroke-width="2" points="676,-502.032 672.5,-492.032 669,-502.032 676,-502.032"/>
</g>
<!-- 26&#45;&gt;25 -->
<g id="edge32" class="edge"><title>26&#45;&gt;25</title>
<path fill="none" stroke="grey" stroke-width="2" d="M749.84,-599.993C736.103,-590.58 719.87,-579.458 705.832,-569.839"/>
<polygon fill="grey" stroke="grey" stroke-width="2" points="707.645,-566.838 697.417,-564.073 703.688,-572.613 707.645,-566.838"/>
</g>
</g>
</svg>
