<?xml version="1.0" encoding="UTF-8" standalone="no"?>
<!DOCTYPE svg PUBLIC "-//W3C//DTD SVG 1.1//EN"
 "http://www.w3.org/Graphics/SVG/1.1/DTD/svg11.dtd">
<!-- Generated by graphviz version 2.38.0 (20140413.2041)
 -->
<!-- Title: snakemake_dag Pages: 1 -->
<svg width="2042pt" height="1176pt"
 viewBox="0.00 0.00 2042.00 1176.00" xmlns="http://www.w3.org/2000/svg" xmlns:xlink="http://www.w3.org/1999/xlink">
<g id="graph0" class="graph" transform="scale(1 1) rotate(0) translate(4 1172)">
<title>snakemake_dag</title>
<polygon fill="white" stroke="none" points="-4,4 -4,-1172 2038,-1172 2038,4 -4,4"/>
<!-- 0 -->
<g id="node1" class="node"><title>0</title>
<path fill="none" stroke="#d85656" stroke-width="2" d="M654,-552C654,-552 525,-552 525,-552 519,-552 513,-546 513,-540 513,-540 513,-508 513,-508 513,-502 519,-496 525,-496 525,-496 654,-496 654,-496 660,-496 666,-502 666,-508 666,-508 666,-540 666,-540 666,-546 660,-552 654,-552"/>
<text text-anchor="middle" x="589.5" y="-539" font-family="sans" font-size="10.00">mpileup2vcf_single</text>
<text text-anchor="middle" x="589.5" y="-527" font-family="sans" font-size="10.00">chrMPU2VCFS: _1</text>
<text text-anchor="middle" x="589.5" y="-515" font-family="sans" font-size="10.00">sampleMPU2VCFS: Pfeiffer3</text>
<text text-anchor="middle" x="589.5" y="-503" font-family="sans" font-size="10.00">varTypeMPU2VCFS: snp</text>
</g>
<!-- 3 -->
<g id="node4" class="node"><title>3</title>
<path fill="none" stroke="#56c1d8" stroke-width="2" d="M681.5,-460C681.5,-460 513.5,-460 513.5,-460 507.5,-460 501.5,-454 501.5,-448 501.5,-448 501.5,-404 501.5,-404 501.5,-398 507.5,-392 513.5,-392 513.5,-392 681.5,-392 681.5,-392 687.5,-392 693.5,-398 693.5,-404 693.5,-404 693.5,-448 693.5,-448 693.5,-454 687.5,-460 681.5,-460"/>
<text text-anchor="middle" x="597.5" y="-447" font-family="sans" font-size="10.00">mergeVCF</text>
<text text-anchor="middle" x="597.5" y="-435" font-family="sans" font-size="10.00">pathMV: output/vcfGenUtil_varScan</text>
<text text-anchor="middle" x="597.5" y="-423" font-family="sans" font-size="10.00">sampleMVCF: Pfeiffer3</text>
<text text-anchor="middle" x="597.5" y="-411" font-family="sans" font-size="10.00">varTypeMVCF: snp</text>
<text text-anchor="middle" x="597.5" y="-399" font-family="sans" font-size="10.00">vcfProgramMVCF: varScan</text>
</g>
<!-- 0&#45;&gt;3 -->
<g id="edge6" class="edge"><title>0&#45;&gt;3</title>
<path fill="none" stroke="grey" stroke-width="2" d="M591.771,-495.747C592.435,-487.779 593.178,-478.865 593.903,-470.166"/>
<polygon fill="grey" stroke="grey" stroke-width="2" points="597.397,-470.378 594.74,-460.122 590.421,-469.797 597.397,-470.378"/>
</g>
<!-- 1 -->
<g id="node2" class="node"><title>1</title>
<path fill="none" stroke="#d85656" stroke-width="2" d="M1338,-552C1338,-552 1209,-552 1209,-552 1203,-552 1197,-546 1197,-540 1197,-540 1197,-508 1197,-508 1197,-502 1203,-496 1209,-496 1209,-496 1338,-496 1338,-496 1344,-496 1350,-502 1350,-508 1350,-508 1350,-540 1350,-540 1350,-546 1344,-552 1338,-552"/>
<text text-anchor="middle" x="1273.5" y="-539" font-family="sans" font-size="10.00">mpileup2vcf_single</text>
<text text-anchor="middle" x="1273.5" y="-527" font-family="sans" font-size="10.00">chrMPU2VCFS: _1</text>
<text text-anchor="middle" x="1273.5" y="-515" font-family="sans" font-size="10.00">sampleMPU2VCFS: Pfeiffer2</text>
<text text-anchor="middle" x="1273.5" y="-503" font-family="sans" font-size="10.00">varTypeMPU2VCFS: indel</text>
</g>
<!-- 10 -->
<g id="node11" class="node"><title>10</title>
<path fill="none" stroke="#56c1d8" stroke-width="2" d="M1349.5,-460C1349.5,-460 1181.5,-460 1181.5,-460 1175.5,-460 1169.5,-454 1169.5,-448 1169.5,-448 1169.5,-404 1169.5,-404 1169.5,-398 1175.5,-392 1181.5,-392 1181.5,-392 1349.5,-392 1349.5,-392 1355.5,-392 1361.5,-398 1361.5,-404 1361.5,-404 1361.5,-448 1361.5,-448 1361.5,-454 1355.5,-460 1349.5,-460"/>
<text text-anchor="middle" x="1265.5" y="-447" font-family="sans" font-size="10.00">mergeVCF</text>
<text text-anchor="middle" x="1265.5" y="-435" font-family="sans" font-size="10.00">pathMV: output/vcfGenUtil_varScan</text>
<text text-anchor="middle" x="1265.5" y="-423" font-family="sans" font-size="10.00">sampleMVCF: Pfeiffer2</text>
<text text-anchor="middle" x="1265.5" y="-411" font-family="sans" font-size="10.00">varTypeMVCF: indel</text>
<text text-anchor="middle" x="1265.5" y="-399" font-family="sans" font-size="10.00">vcfProgramMVCF: varScan</text>
</g>
<!-- 1&#45;&gt;10 -->
<g id="edge16" class="edge"><title>1&#45;&gt;10</title>
<path fill="none" stroke="grey" stroke-width="2" d="M1271.23,-495.747C1270.56,-487.779 1269.82,-478.865 1269.1,-470.166"/>
<polygon fill="grey" stroke="grey" stroke-width="2" points="1272.58,-469.797 1268.26,-460.122 1265.6,-470.378 1272.58,-469.797"/>
</g>
<!-- 2 -->
<g id="node3" class="node"><title>2</title>
<path fill="none" stroke="#d85656" stroke-width="2" d="M141,-552C141,-552 12,-552 12,-552 6,-552 0,-546 0,-540 0,-540 0,-508 0,-508 0,-502 6,-496 12,-496 12,-496 141,-496 141,-496 147,-496 153,-502 153,-508 153,-508 153,-540 153,-540 153,-546 147,-552 141,-552"/>
<text text-anchor="middle" x="76.5" y="-539" font-family="sans" font-size="10.00">mpileup2vcf_single</text>
<text text-anchor="middle" x="76.5" y="-527" font-family="sans" font-size="10.00">chrMPU2VCFS: _3</text>
<text text-anchor="middle" x="76.5" y="-515" font-family="sans" font-size="10.00">sampleMPU2VCFS: Pfeiffer3</text>
<text text-anchor="middle" x="76.5" y="-503" font-family="sans" font-size="10.00">varTypeMPU2VCFS: indel</text>
</g>
<!-- 31 -->
<g id="node32" class="node"><title>31</title>
<path fill="none" stroke="#56c1d8" stroke-width="2" d="M331.5,-460C331.5,-460 163.5,-460 163.5,-460 157.5,-460 151.5,-454 151.5,-448 151.5,-448 151.5,-404 151.5,-404 151.5,-398 157.5,-392 163.5,-392 163.5,-392 331.5,-392 331.5,-392 337.5,-392 343.5,-398 343.5,-404 343.5,-404 343.5,-448 343.5,-448 343.5,-454 337.5,-460 331.5,-460"/>
<text text-anchor="middle" x="247.5" y="-447" font-family="sans" font-size="10.00">mergeVCF</text>
<text text-anchor="middle" x="247.5" y="-435" font-family="sans" font-size="10.00">pathMV: output/vcfGenUtil_varScan</text>
<text text-anchor="middle" x="247.5" y="-423" font-family="sans" font-size="10.00">sampleMVCF: Pfeiffer3</text>
<text text-anchor="middle" x="247.5" y="-411" font-family="sans" font-size="10.00">varTypeMVCF: indel</text>
<text text-anchor="middle" x="247.5" y="-399" font-family="sans" font-size="10.00">vcfProgramMVCF: varScan</text>
</g>
<!-- 2&#45;&gt;31 -->
<g id="edge41" class="edge"><title>2&#45;&gt;31</title>
<path fill="none" stroke="grey" stroke-width="2" d="M125.044,-495.747C142.015,-486.219 161.392,-475.341 179.646,-465.093"/>
<polygon fill="grey" stroke="grey" stroke-width="2" points="181.495,-468.069 188.502,-460.122 178.069,-461.965 181.495,-468.069"/>
</g>
<!-- 50 -->
<g id="node51" class="node"><title>50</title>
<path fill="none" stroke="#56d85b" stroke-width="2" d="M706.5,-356C706.5,-356 546.5,-356 546.5,-356 540.5,-356 534.5,-350 534.5,-344 534.5,-344 534.5,-324 534.5,-324 534.5,-318 540.5,-312 546.5,-312 546.5,-312 706.5,-312 706.5,-312 712.5,-312 718.5,-318 718.5,-324 718.5,-324 718.5,-344 718.5,-344 718.5,-350 712.5,-356 706.5,-356"/>
<text text-anchor="middle" x="626.5" y="-343" font-family="sans" font-size="10.00">canonical</text>
<text text-anchor="middle" x="626.5" y="-331" font-family="sans" font-size="10.00">pathCAN: vcfGenUtil_varScan</text>
<text text-anchor="middle" x="626.5" y="-319" font-family="sans" font-size="10.00">sampleCAN: Pfeiffer3.varScan.snp</text>
</g>
<!-- 3&#45;&gt;50 -->
<g id="edge62" class="edge"><title>3&#45;&gt;50</title>
<path fill="none" stroke="grey" stroke-width="2" d="M608.134,-391.998C610.869,-383.51 613.802,-374.407 616.504,-366.022"/>
<polygon fill="grey" stroke="grey" stroke-width="2" points="619.92,-366.833 619.656,-356.241 613.257,-364.686 619.92,-366.833"/>
</g>
<!-- 4 -->
<g id="node5" class="node"><title>4</title>
<path fill="none" stroke="#56d892" stroke-width="2" d="M1718,-784C1718,-784 1481,-784 1481,-784 1475,-784 1469,-778 1469,-772 1469,-772 1469,-752 1469,-752 1469,-746 1475,-740 1481,-740 1481,-740 1718,-740 1718,-740 1724,-740 1730,-746 1730,-752 1730,-752 1730,-772 1730,-772 1730,-778 1724,-784 1718,-784"/>
<text text-anchor="middle" x="1599.5" y="-771" font-family="sans" font-size="10.00">markdupBAM</text>
<text text-anchor="middle" x="1599.5" y="-759" font-family="sans" font-size="10.00">outputDIR: output</text>
<text text-anchor="middle" x="1599.5" y="-747" font-family="sans" font-size="10.00">sampleMDB: Pfeiffer2_Aligned.out_sorted_filtered</text>
</g>
<!-- 20 -->
<g id="node21" class="node"><title>20</title>
<path fill="none" stroke="#70d856" stroke-width="2" d="M1642.5,-704C1642.5,-704 1556.5,-704 1556.5,-704 1550.5,-704 1544.5,-698 1544.5,-692 1544.5,-692 1544.5,-680 1544.5,-680 1544.5,-674 1550.5,-668 1556.5,-668 1556.5,-668 1642.5,-668 1642.5,-668 1648.5,-668 1654.5,-674 1654.5,-680 1654.5,-680 1654.5,-692 1654.5,-692 1654.5,-698 1648.5,-704 1642.5,-704"/>
<text text-anchor="middle" x="1599.5" y="-689" font-family="sans" font-size="10.00">indexBAM</text>
<text text-anchor="middle" x="1599.5" y="-677" font-family="sans" font-size="10.00">sampleIB: Pfeiffer2</text>
</g>
<!-- 4&#45;&gt;20 -->
<g id="edge28" class="edge"><title>4&#45;&gt;20</title>
<path fill="none" stroke="grey" stroke-width="2" d="M1599.5,-739.993C1599.5,-732.061 1599.5,-722.915 1599.5,-714.478"/>
<polygon fill="grey" stroke="grey" stroke-width="2" points="1603,-714.315 1599.5,-704.315 1596,-714.315 1603,-714.315"/>
</g>
<!-- 5 -->
<g id="node6" class="node"><title>5</title>
<path fill="none" stroke="#d87d56" stroke-width="2" d="M946.5,-36C946.5,-36 916.5,-36 916.5,-36 910.5,-36 904.5,-30 904.5,-24 904.5,-24 904.5,-12 904.5,-12 904.5,-6 910.5,-0 916.5,-0 916.5,-0 946.5,-0 946.5,-0 952.5,-0 958.5,-6 958.5,-12 958.5,-12 958.5,-24 958.5,-24 958.5,-30 952.5,-36 946.5,-36"/>
<text text-anchor="middle" x="931.5" y="-15" font-family="sans" font-size="10.00">all</text>
</g>
<!-- 6 -->
<g id="node7" class="node"><title>6</title>
<path fill="none" stroke="#61d856" stroke-width="2" d="M433.5,-116C433.5,-116 67.5,-116 67.5,-116 61.5,-116 55.5,-110 55.5,-104 55.5,-104 55.5,-84 55.5,-84 55.5,-78 61.5,-72 67.5,-72 67.5,-72 433.5,-72 433.5,-72 439.5,-72 445.5,-78 445.5,-84 445.5,-84 445.5,-104 445.5,-104 445.5,-110 439.5,-116 433.5,-116"/>
<text text-anchor="middle" x="250.5" y="-103" font-family="sans" font-size="10.00">getVcfTable</text>
<text text-anchor="middle" x="250.5" y="-91" font-family="sans" font-size="10.00">pathGVCFT: output/vcfGenUtil_varScan</text>
<text text-anchor="middle" x="250.5" y="-79" font-family="sans" font-size="10.00">sampleGVCFT: Pfeiffer3.varScan.indel.canonical_annotated.indel_annotated</text>
</g>
<!-- 6&#45;&gt;5 -->
<g id="edge9" class="edge"><title>6&#45;&gt;5</title>
<path fill="none" stroke="grey" stroke-width="2" d="M443.826,-71.9925C601.077,-54.905 810.185,-32.1825 894.216,-23.0514"/>
<polygon fill="grey" stroke="grey" stroke-width="2" points="894.735,-26.5158 904.298,-21.9559 893.978,-19.5567 894.735,-26.5158"/>
</g>
<!-- 7 -->
<g id="node8" class="node"><title>7</title>
<path fill="none" stroke="#d85656" stroke-width="2" d="M312,-552C312,-552 183,-552 183,-552 177,-552 171,-546 171,-540 171,-540 171,-508 171,-508 171,-502 177,-496 183,-496 183,-496 312,-496 312,-496 318,-496 324,-502 324,-508 324,-508 324,-540 324,-540 324,-546 318,-552 312,-552"/>
<text text-anchor="middle" x="247.5" y="-539" font-family="sans" font-size="10.00">mpileup2vcf_single</text>
<text text-anchor="middle" x="247.5" y="-527" font-family="sans" font-size="10.00">chrMPU2VCFS: _1</text>
<text text-anchor="middle" x="247.5" y="-515" font-family="sans" font-size="10.00">sampleMPU2VCFS: Pfeiffer3</text>
<text text-anchor="middle" x="247.5" y="-503" font-family="sans" font-size="10.00">varTypeMPU2VCFS: indel</text>
</g>
<!-- 7&#45;&gt;31 -->
<g id="edge43" class="edge"><title>7&#45;&gt;31</title>
<path fill="none" stroke="grey" stroke-width="2" d="M247.5,-495.747C247.5,-487.779 247.5,-478.865 247.5,-470.166"/>
<polygon fill="grey" stroke="grey" stroke-width="2" points="251,-470.122 247.5,-460.122 244,-470.122 251,-470.122"/>
</g>
<!-- 8 -->
<g id="node9" class="node"><title>8</title>
<path fill="none" stroke="#56d85b" stroke-width="2" d="M334,-276C334,-276 167,-276 167,-276 161,-276 155,-270 155,-264 155,-264 155,-244 155,-244 155,-238 161,-232 167,-232 167,-232 334,-232 334,-232 340,-232 346,-238 346,-244 346,-244 346,-264 346,-264 346,-270 340,-276 334,-276"/>
<text text-anchor="middle" x="250.5" y="-263" font-family="sans" font-size="10.00">canonical</text>
<text text-anchor="middle" x="250.5" y="-251" font-family="sans" font-size="10.00">pathCAN: vcfGenUtil_varScan</text>
<text text-anchor="middle" x="250.5" y="-239" font-family="sans" font-size="10.00">sampleCAN: Pfeiffer3.varScan.indel</text>
</g>
<!-- 30 -->
<g id="node31" class="node"><title>30</title>
<path fill="none" stroke="#56d882" stroke-width="2" d="M388.5,-196C388.5,-196 112.5,-196 112.5,-196 106.5,-196 100.5,-190 100.5,-184 100.5,-184 100.5,-164 100.5,-164 100.5,-158 106.5,-152 112.5,-152 112.5,-152 388.5,-152 388.5,-152 394.5,-152 400.5,-158 400.5,-164 400.5,-164 400.5,-184 400.5,-184 400.5,-190 394.5,-196 388.5,-196"/>
<text text-anchor="middle" x="250.5" y="-183" font-family="sans" font-size="10.00">indel</text>
<text text-anchor="middle" x="250.5" y="-171" font-family="sans" font-size="10.00">pathIndel: output/vcfGenUtil_varScan</text>
<text text-anchor="middle" x="250.5" y="-159" font-family="sans" font-size="10.00">sampleIndel: Pfeiffer3.varScan.indel.canonical_annotated</text>
</g>
<!-- 8&#45;&gt;30 -->
<g id="edge40" class="edge"><title>8&#45;&gt;30</title>
<path fill="none" stroke="grey" stroke-width="2" d="M250.5,-231.686C250.5,-223.798 250.5,-214.684 250.5,-206.103"/>
<polygon fill="grey" stroke="grey" stroke-width="2" points="254,-206.018 250.5,-196.018 247,-206.018 254,-206.018"/>
</g>
<!-- 9 -->
<g id="node10" class="node"><title>9</title>
<path fill="none" stroke="#56d8c9" stroke-width="2" d="M1578,-1096C1578,-1096 1473,-1096 1473,-1096 1467,-1096 1461,-1090 1461,-1084 1461,-1084 1461,-1064 1461,-1064 1461,-1058 1467,-1052 1473,-1052 1473,-1052 1578,-1052 1578,-1052 1584,-1052 1590,-1058 1590,-1064 1590,-1064 1590,-1084 1590,-1084 1590,-1090 1584,-1096 1578,-1096"/>
<text text-anchor="middle" x="1525.5" y="-1083" font-family="sans" font-size="10.00">fastq2GZ</text>
<text text-anchor="middle" x="1525.5" y="-1071" font-family="sans" font-size="10.00">pathFGZ: output/fastq</text>
<text text-anchor="middle" x="1525.5" y="-1059" font-family="sans" font-size="10.00">sampleFGZ: Pfeiffer2.2</text>
</g>
<!-- 32 -->
<g id="node33" class="node"><title>32</title>
<path fill="none" stroke="#97d856" stroke-width="2" d="M1647.5,-1016C1647.5,-1016 1551.5,-1016 1551.5,-1016 1545.5,-1016 1539.5,-1010 1539.5,-1004 1539.5,-1004 1539.5,-992 1539.5,-992 1539.5,-986 1545.5,-980 1551.5,-980 1551.5,-980 1647.5,-980 1647.5,-980 1653.5,-980 1659.5,-986 1659.5,-992 1659.5,-992 1659.5,-1004 1659.5,-1004 1659.5,-1010 1653.5,-1016 1647.5,-1016"/>
<text text-anchor="middle" x="1599.5" y="-1001" font-family="sans" font-size="10.00">bamALIGN_bwa</text>
<text text-anchor="middle" x="1599.5" y="-989" font-family="sans" font-size="10.00">sampleBAB: Pfeiffer2</text>
</g>
<!-- 9&#45;&gt;32 -->
<g id="edge44" class="edge"><title>9&#45;&gt;32</title>
<path fill="none" stroke="grey" stroke-width="2" d="M1546.51,-1051.99C1555.41,-1043.09 1565.84,-1032.66 1575.08,-1023.42"/>
<polygon fill="grey" stroke="grey" stroke-width="2" points="1577.59,-1025.86 1582.19,-1016.31 1572.64,-1020.91 1577.59,-1025.86"/>
</g>
<!-- 51 -->
<g id="node52" class="node"><title>51</title>
<path fill="none" stroke="#56d85b" stroke-width="2" d="M1320,-356C1320,-356 1153,-356 1153,-356 1147,-356 1141,-350 1141,-344 1141,-344 1141,-324 1141,-324 1141,-318 1147,-312 1153,-312 1153,-312 1320,-312 1320,-312 1326,-312 1332,-318 1332,-324 1332,-324 1332,-344 1332,-344 1332,-350 1326,-356 1320,-356"/>
<text text-anchor="middle" x="1236.5" y="-343" font-family="sans" font-size="10.00">canonical</text>
<text text-anchor="middle" x="1236.5" y="-331" font-family="sans" font-size="10.00">pathCAN: vcfGenUtil_varScan</text>
<text text-anchor="middle" x="1236.5" y="-319" font-family="sans" font-size="10.00">sampleCAN: Pfeiffer2.varScan.indel</text>
</g>
<!-- 10&#45;&gt;51 -->
<g id="edge63" class="edge"><title>10&#45;&gt;51</title>
<path fill="none" stroke="grey" stroke-width="2" d="M1254.87,-391.998C1252.13,-383.51 1249.2,-374.407 1246.5,-366.022"/>
<polygon fill="grey" stroke="grey" stroke-width="2" points="1249.74,-364.686 1243.34,-356.241 1243.08,-366.833 1249.74,-364.686"/>
</g>
<!-- 11 -->
<g id="node12" class="node"><title>11</title>
<path fill="none" stroke="#70d856" stroke-width="2" d="M617.5,-704C617.5,-704 531.5,-704 531.5,-704 525.5,-704 519.5,-698 519.5,-692 519.5,-692 519.5,-680 519.5,-680 519.5,-674 525.5,-668 531.5,-668 531.5,-668 617.5,-668 617.5,-668 623.5,-668 629.5,-674 629.5,-680 629.5,-680 629.5,-692 629.5,-692 629.5,-698 623.5,-704 617.5,-704"/>
<text text-anchor="middle" x="574.5" y="-689" font-family="sans" font-size="10.00">indexBAM</text>
<text text-anchor="middle" x="574.5" y="-677" font-family="sans" font-size="10.00">sampleIB: Pfeiffer3</text>
</g>
<!-- 13 -->
<g id="node14" class="node"><title>13</title>
<path fill="none" stroke="#a7d856" stroke-width="2" d="M623.5,-632C623.5,-632 525.5,-632 525.5,-632 519.5,-632 513.5,-626 513.5,-620 513.5,-620 513.5,-600 513.5,-600 513.5,-594 519.5,-588 525.5,-588 525.5,-588 623.5,-588 623.5,-588 629.5,-588 635.5,-594 635.5,-600 635.5,-600 635.5,-620 635.5,-620 635.5,-626 629.5,-632 623.5,-632"/>
<text text-anchor="middle" x="574.5" y="-619" font-family="sans" font-size="10.00">bam2mpileup</text>
<text text-anchor="middle" x="574.5" y="-607" font-family="sans" font-size="10.00">chrB2M: _1</text>
<text text-anchor="middle" x="574.5" y="-595" font-family="sans" font-size="10.00">sampleB2M: Pfeiffer3</text>
</g>
<!-- 11&#45;&gt;13 -->
<g id="edge21" class="edge"><title>11&#45;&gt;13</title>
<path fill="none" stroke="grey" stroke-width="2" d="M574.5,-667.837C574.5,-660.165 574.5,-650.878 574.5,-642.053"/>
<polygon fill="grey" stroke="grey" stroke-width="2" points="578,-642.032 574.5,-632.032 571,-642.032 578,-642.032"/>
</g>
<!-- 18 -->
<g id="node19" class="node"><title>18</title>
<path fill="none" stroke="#a7d856" stroke-width="2" d="M809.5,-632C809.5,-632 711.5,-632 711.5,-632 705.5,-632 699.5,-626 699.5,-620 699.5,-620 699.5,-600 699.5,-600 699.5,-594 705.5,-588 711.5,-588 711.5,-588 809.5,-588 809.5,-588 815.5,-588 821.5,-594 821.5,-600 821.5,-600 821.5,-620 821.5,-620 821.5,-626 815.5,-632 809.5,-632"/>
<text text-anchor="middle" x="760.5" y="-619" font-family="sans" font-size="10.00">bam2mpileup</text>
<text text-anchor="middle" x="760.5" y="-607" font-family="sans" font-size="10.00">chrB2M: _2</text>
<text text-anchor="middle" x="760.5" y="-595" font-family="sans" font-size="10.00">sampleB2M: Pfeiffer3</text>
</g>
<!-- 11&#45;&gt;18 -->
<g id="edge26" class="edge"><title>11&#45;&gt;18</title>
<path fill="none" stroke="grey" stroke-width="2" d="M617.64,-667.837C641.534,-658.33 671.664,-646.343 698.087,-635.831"/>
<polygon fill="grey" stroke="grey" stroke-width="2" points="699.637,-638.981 707.635,-632.032 697.05,-632.477 699.637,-638.981"/>
</g>
<!-- 29 -->
<g id="node30" class="node"><title>29</title>
<path fill="none" stroke="#a7d856" stroke-width="2" d="M467.5,-632C467.5,-632 369.5,-632 369.5,-632 363.5,-632 357.5,-626 357.5,-620 357.5,-620 357.5,-600 357.5,-600 357.5,-594 363.5,-588 369.5,-588 369.5,-588 467.5,-588 467.5,-588 473.5,-588 479.5,-594 479.5,-600 479.5,-600 479.5,-620 479.5,-620 479.5,-626 473.5,-632 467.5,-632"/>
<text text-anchor="middle" x="418.5" y="-619" font-family="sans" font-size="10.00">bam2mpileup</text>
<text text-anchor="middle" x="418.5" y="-607" font-family="sans" font-size="10.00">chrB2M: _3</text>
<text text-anchor="middle" x="418.5" y="-595" font-family="sans" font-size="10.00">sampleB2M: Pfeiffer3</text>
</g>
<!-- 11&#45;&gt;29 -->
<g id="edge39" class="edge"><title>11&#45;&gt;29</title>
<path fill="none" stroke="grey" stroke-width="2" d="M538.318,-667.837C518.629,-658.497 493.893,-646.763 472.016,-636.386"/>
<polygon fill="grey" stroke="grey" stroke-width="2" points="473.373,-633.156 462.838,-632.032 470.373,-639.48 473.373,-633.156"/>
</g>
<!-- 12 -->
<g id="node13" class="node"><title>12</title>
<path fill="none" stroke="#56d8c9" stroke-width="2" d="M1725,-1096C1725,-1096 1620,-1096 1620,-1096 1614,-1096 1608,-1090 1608,-1084 1608,-1084 1608,-1064 1608,-1064 1608,-1058 1614,-1052 1620,-1052 1620,-1052 1725,-1052 1725,-1052 1731,-1052 1737,-1058 1737,-1064 1737,-1064 1737,-1084 1737,-1084 1737,-1090 1731,-1096 1725,-1096"/>
<text text-anchor="middle" x="1672.5" y="-1083" font-family="sans" font-size="10.00">fastq2GZ</text>
<text text-anchor="middle" x="1672.5" y="-1071" font-family="sans" font-size="10.00">pathFGZ: output/fastq</text>
<text text-anchor="middle" x="1672.5" y="-1059" font-family="sans" font-size="10.00">sampleFGZ: Pfeiffer2.1</text>
</g>
<!-- 12&#45;&gt;32 -->
<g id="edge45" class="edge"><title>12&#45;&gt;32</title>
<path fill="none" stroke="grey" stroke-width="2" d="M1651.78,-1051.99C1643.08,-1043.18 1632.91,-1032.87 1623.86,-1023.69"/>
<polygon fill="grey" stroke="grey" stroke-width="2" points="1626.1,-1020.98 1616.58,-1016.31 1621.11,-1025.89 1626.1,-1020.98"/>
</g>
<!-- 13&#45;&gt;0 -->
<g id="edge1" class="edge"><title>13&#45;&gt;0</title>
<path fill="none" stroke="grey" stroke-width="2" d="M578.285,-587.803C579.67,-580.048 581.281,-571.027 582.842,-562.282"/>
<polygon fill="grey" stroke="grey" stroke-width="2" points="586.324,-562.696 584.636,-552.236 579.433,-561.465 586.324,-562.696"/>
</g>
<!-- 13&#45;&gt;7 -->
<g id="edge13" class="edge"><title>13&#45;&gt;7</title>
<path fill="none" stroke="grey" stroke-width="2" d="M513.448,-593.991C505.07,-591.96 496.575,-589.918 488.5,-588 422.38,-572.299 402.864,-570.887 334.333,-552.431"/>
<polygon fill="grey" stroke="grey" stroke-width="2" points="334.896,-548.957 324.328,-549.71 333.059,-555.712 334.896,-548.957"/>
</g>
<!-- 14 -->
<g id="node15" class="node"><title>14</title>
<path fill="none" stroke="#d89c56" stroke-width="2" d="M625.5,-1168C625.5,-1168 525.5,-1168 525.5,-1168 519.5,-1168 513.5,-1162 513.5,-1156 513.5,-1156 513.5,-1144 513.5,-1144 513.5,-1138 519.5,-1132 525.5,-1132 525.5,-1132 625.5,-1132 625.5,-1132 631.5,-1132 637.5,-1138 637.5,-1144 637.5,-1144 637.5,-1156 637.5,-1156 637.5,-1162 631.5,-1168 625.5,-1168"/>
<text text-anchor="middle" x="575.5" y="-1153" font-family="sans" font-size="10.00">bam2fastq_picard</text>
<text text-anchor="middle" x="575.5" y="-1141" font-family="sans" font-size="10.00">sampleB2FP: Pfeiffer3</text>
</g>
<!-- 23 -->
<g id="node24" class="node"><title>23</title>
<path fill="none" stroke="#56d8c9" stroke-width="2" d="M554,-1096C554,-1096 449,-1096 449,-1096 443,-1096 437,-1090 437,-1084 437,-1084 437,-1064 437,-1064 437,-1058 443,-1052 449,-1052 449,-1052 554,-1052 554,-1052 560,-1052 566,-1058 566,-1064 566,-1064 566,-1084 566,-1084 566,-1090 560,-1096 554,-1096"/>
<text text-anchor="middle" x="501.5" y="-1083" font-family="sans" font-size="10.00">fastq2GZ</text>
<text text-anchor="middle" x="501.5" y="-1071" font-family="sans" font-size="10.00">pathFGZ: output/fastq</text>
<text text-anchor="middle" x="501.5" y="-1059" font-family="sans" font-size="10.00">sampleFGZ: Pfeiffer3.1</text>
</g>
<!-- 14&#45;&gt;23 -->
<g id="edge31" class="edge"><title>14&#45;&gt;23</title>
<path fill="none" stroke="grey" stroke-width="2" d="M558.337,-1131.84C549.831,-1123.33 539.339,-1112.84 529.695,-1103.2"/>
<polygon fill="grey" stroke="grey" stroke-width="2" points="532.078,-1100.63 522.532,-1096.03 527.128,-1105.58 532.078,-1100.63"/>
</g>
<!-- 26 -->
<g id="node27" class="node"><title>26</title>
<path fill="none" stroke="#56d8c9" stroke-width="2" d="M701,-1096C701,-1096 596,-1096 596,-1096 590,-1096 584,-1090 584,-1084 584,-1084 584,-1064 584,-1064 584,-1058 590,-1052 596,-1052 596,-1052 701,-1052 701,-1052 707,-1052 713,-1058 713,-1064 713,-1064 713,-1084 713,-1084 713,-1090 707,-1096 701,-1096"/>
<text text-anchor="middle" x="648.5" y="-1083" font-family="sans" font-size="10.00">fastq2GZ</text>
<text text-anchor="middle" x="648.5" y="-1071" font-family="sans" font-size="10.00">pathFGZ: output/fastq</text>
<text text-anchor="middle" x="648.5" y="-1059" font-family="sans" font-size="10.00">sampleFGZ: Pfeiffer3.2</text>
</g>
<!-- 14&#45;&gt;26 -->
<g id="edge36" class="edge"><title>14&#45;&gt;26</title>
<path fill="none" stroke="grey" stroke-width="2" d="M592.431,-1131.84C600.822,-1123.33 611.172,-1112.84 620.686,-1103.2"/>
<polygon fill="grey" stroke="grey" stroke-width="2" points="623.221,-1105.61 627.752,-1096.03 618.238,-1100.69 623.221,-1105.61"/>
</g>
<!-- 15 -->
<g id="node16" class="node"><title>15</title>
<path fill="none" stroke="#97d856" stroke-width="2" d="M622.5,-1016C622.5,-1016 526.5,-1016 526.5,-1016 520.5,-1016 514.5,-1010 514.5,-1004 514.5,-1004 514.5,-992 514.5,-992 514.5,-986 520.5,-980 526.5,-980 526.5,-980 622.5,-980 622.5,-980 628.5,-980 634.5,-986 634.5,-992 634.5,-992 634.5,-1004 634.5,-1004 634.5,-1010 628.5,-1016 622.5,-1016"/>
<text text-anchor="middle" x="574.5" y="-1001" font-family="sans" font-size="10.00">bamALIGN_bwa</text>
<text text-anchor="middle" x="574.5" y="-989" font-family="sans" font-size="10.00">sampleBAB: Pfeiffer3</text>
</g>
<!-- 48 -->
<g id="node49" class="node"><title>48</title>
<path fill="none" stroke="#568ad8" stroke-width="2" d="M653,-944C653,-944 496,-944 496,-944 490,-944 484,-938 484,-932 484,-932 484,-912 484,-912 484,-906 490,-900 496,-900 496,-900 653,-900 653,-900 659,-900 665,-906 665,-912 665,-912 665,-932 665,-932 665,-938 659,-944 653,-944"/>
<text text-anchor="middle" x="574.5" y="-931" font-family="sans" font-size="10.00">sortBAM_biobambam</text>
<text text-anchor="middle" x="574.5" y="-919" font-family="sans" font-size="10.00">pathSBB: output/bam</text>
<text text-anchor="middle" x="574.5" y="-907" font-family="sans" font-size="10.00">sampleSBB: Pfeiffer3_Aligned.out</text>
</g>
<!-- 15&#45;&gt;48 -->
<g id="edge60" class="edge"><title>15&#45;&gt;48</title>
<path fill="none" stroke="grey" stroke-width="2" d="M574.5,-979.837C574.5,-972.165 574.5,-962.878 574.5,-954.053"/>
<polygon fill="grey" stroke="grey" stroke-width="2" points="578,-954.032 574.5,-944.032 571,-954.032 578,-954.032"/>
</g>
<!-- 16 -->
<g id="node17" class="node"><title>16</title>
<path fill="none" stroke="#61d856" stroke-width="2" d="M1841.5,-116C1841.5,-116 1383.5,-116 1383.5,-116 1377.5,-116 1371.5,-110 1371.5,-104 1371.5,-104 1371.5,-84 1371.5,-84 1371.5,-78 1377.5,-72 1383.5,-72 1383.5,-72 1841.5,-72 1841.5,-72 1847.5,-72 1853.5,-78 1853.5,-84 1853.5,-84 1853.5,-104 1853.5,-104 1853.5,-110 1847.5,-116 1841.5,-116"/>
<text text-anchor="middle" x="1612.5" y="-103" font-family="sans" font-size="10.00">getVcfTable</text>
<text text-anchor="middle" x="1612.5" y="-91" font-family="sans" font-size="10.00">pathGVCFT: output/vcfGenUtil_varScan</text>
<text text-anchor="middle" x="1612.5" y="-79" font-family="sans" font-size="10.00">sampleGVCFT: Pfeiffer2.varScan.snp.canonical_annotated.dbsnp_annotated.cosmic_annotated</text>
</g>
<!-- 16&#45;&gt;5 -->
<g id="edge11" class="edge"><title>16&#45;&gt;5</title>
<path fill="none" stroke="grey" stroke-width="2" d="M1419.17,-71.9925C1261.92,-54.905 1052.81,-32.1825 968.784,-23.0514"/>
<polygon fill="grey" stroke="grey" stroke-width="2" points="969.022,-19.5567 958.702,-21.9559 968.265,-26.5158 969.022,-19.5567"/>
</g>
<!-- 17 -->
<g id="node18" class="node"><title>17</title>
<path fill="none" stroke="#61d856" stroke-width="2" d="M933.5,-116C933.5,-116 475.5,-116 475.5,-116 469.5,-116 463.5,-110 463.5,-104 463.5,-104 463.5,-84 463.5,-84 463.5,-78 469.5,-72 475.5,-72 475.5,-72 933.5,-72 933.5,-72 939.5,-72 945.5,-78 945.5,-84 945.5,-84 945.5,-104 945.5,-104 945.5,-110 939.5,-116 933.5,-116"/>
<text text-anchor="middle" x="704.5" y="-103" font-family="sans" font-size="10.00">getVcfTable</text>
<text text-anchor="middle" x="704.5" y="-91" font-family="sans" font-size="10.00">pathGVCFT: output/vcfGenUtil_varScan</text>
<text text-anchor="middle" x="704.5" y="-79" font-family="sans" font-size="10.00">sampleGVCFT: Pfeiffer3.varScan.snp.canonical_annotated.dbsnp_annotated.cosmic_annotated</text>
</g>
<!-- 17&#45;&gt;5 -->
<g id="edge10" class="edge"><title>17&#45;&gt;5</title>
<path fill="none" stroke="grey" stroke-width="2" d="M768.942,-71.9925C809.743,-58.6919 861.016,-41.9771 894.949,-30.9155"/>
<polygon fill="grey" stroke="grey" stroke-width="2" points="896.041,-34.2408 904.463,-27.8137 893.871,-27.5855 896.041,-34.2408"/>
</g>
<!-- 22 -->
<g id="node23" class="node"><title>22</title>
<path fill="none" stroke="#d85656" stroke-width="2" d="M825,-552C825,-552 696,-552 696,-552 690,-552 684,-546 684,-540 684,-540 684,-508 684,-508 684,-502 690,-496 696,-496 696,-496 825,-496 825,-496 831,-496 837,-502 837,-508 837,-508 837,-540 837,-540 837,-546 831,-552 825,-552"/>
<text text-anchor="middle" x="760.5" y="-539" font-family="sans" font-size="10.00">mpileup2vcf_single</text>
<text text-anchor="middle" x="760.5" y="-527" font-family="sans" font-size="10.00">chrMPU2VCFS: _2</text>
<text text-anchor="middle" x="760.5" y="-515" font-family="sans" font-size="10.00">sampleMPU2VCFS: Pfeiffer3</text>
<text text-anchor="middle" x="760.5" y="-503" font-family="sans" font-size="10.00">varTypeMPU2VCFS: indel</text>
</g>
<!-- 18&#45;&gt;22 -->
<g id="edge30" class="edge"><title>18&#45;&gt;22</title>
<path fill="none" stroke="grey" stroke-width="2" d="M760.5,-587.803C760.5,-580.048 760.5,-571.027 760.5,-562.282"/>
<polygon fill="grey" stroke="grey" stroke-width="2" points="764,-562.236 760.5,-552.236 757,-562.236 764,-562.236"/>
</g>
<!-- 49 -->
<g id="node50" class="node"><title>49</title>
<path fill="none" stroke="#d85656" stroke-width="2" d="M996,-552C996,-552 867,-552 867,-552 861,-552 855,-546 855,-540 855,-540 855,-508 855,-508 855,-502 861,-496 867,-496 867,-496 996,-496 996,-496 1002,-496 1008,-502 1008,-508 1008,-508 1008,-540 1008,-540 1008,-546 1002,-552 996,-552"/>
<text text-anchor="middle" x="931.5" y="-539" font-family="sans" font-size="10.00">mpileup2vcf_single</text>
<text text-anchor="middle" x="931.5" y="-527" font-family="sans" font-size="10.00">chrMPU2VCFS: _2</text>
<text text-anchor="middle" x="931.5" y="-515" font-family="sans" font-size="10.00">sampleMPU2VCFS: Pfeiffer3</text>
<text text-anchor="middle" x="931.5" y="-503" font-family="sans" font-size="10.00">varTypeMPU2VCFS: snp</text>
</g>
<!-- 18&#45;&gt;49 -->
<g id="edge61" class="edge"><title>18&#45;&gt;49</title>
<path fill="none" stroke="grey" stroke-width="2" d="M803.651,-587.803C822.956,-578.32 846.116,-566.943 867.388,-556.494"/>
<polygon fill="grey" stroke="grey" stroke-width="2" points="868.94,-559.631 876.372,-552.08 865.853,-553.348 868.94,-559.631"/>
</g>
<!-- 19 -->
<g id="node20" class="node"><title>19</title>
<path fill="none" stroke="#d85656" stroke-width="2" d="M1167,-552C1167,-552 1038,-552 1038,-552 1032,-552 1026,-546 1026,-540 1026,-540 1026,-508 1026,-508 1026,-502 1032,-496 1038,-496 1038,-496 1167,-496 1167,-496 1173,-496 1179,-502 1179,-508 1179,-508 1179,-540 1179,-540 1179,-546 1173,-552 1167,-552"/>
<text text-anchor="middle" x="1102.5" y="-539" font-family="sans" font-size="10.00">mpileup2vcf_single</text>
<text text-anchor="middle" x="1102.5" y="-527" font-family="sans" font-size="10.00">chrMPU2VCFS: _3</text>
<text text-anchor="middle" x="1102.5" y="-515" font-family="sans" font-size="10.00">sampleMPU2VCFS: Pfeiffer2</text>
<text text-anchor="middle" x="1102.5" y="-503" font-family="sans" font-size="10.00">varTypeMPU2VCFS: indel</text>
</g>
<!-- 19&#45;&gt;10 -->
<g id="edge17" class="edge"><title>19&#45;&gt;10</title>
<path fill="none" stroke="grey" stroke-width="2" d="M1148.77,-495.747C1164.8,-486.306 1183.08,-475.539 1200.35,-465.373"/>
<polygon fill="grey" stroke="grey" stroke-width="2" points="1202.42,-468.212 1209.26,-460.122 1198.87,-462.181 1202.42,-468.212"/>
</g>
<!-- 21 -->
<g id="node22" class="node"><title>21</title>
<path fill="none" stroke="#a7d856" stroke-width="2" d="M1835.5,-632C1835.5,-632 1737.5,-632 1737.5,-632 1731.5,-632 1725.5,-626 1725.5,-620 1725.5,-620 1725.5,-600 1725.5,-600 1725.5,-594 1731.5,-588 1737.5,-588 1737.5,-588 1835.5,-588 1835.5,-588 1841.5,-588 1847.5,-594 1847.5,-600 1847.5,-600 1847.5,-620 1847.5,-620 1847.5,-626 1841.5,-632 1835.5,-632"/>
<text text-anchor="middle" x="1786.5" y="-619" font-family="sans" font-size="10.00">bam2mpileup</text>
<text text-anchor="middle" x="1786.5" y="-607" font-family="sans" font-size="10.00">chrB2M: _2</text>
<text text-anchor="middle" x="1786.5" y="-595" font-family="sans" font-size="10.00">sampleB2M: Pfeiffer2</text>
</g>
<!-- 20&#45;&gt;21 -->
<g id="edge29" class="edge"><title>20&#45;&gt;21</title>
<path fill="none" stroke="grey" stroke-width="2" d="M1642.87,-667.837C1666.89,-658.33 1697.19,-646.343 1723.75,-635.831"/>
<polygon fill="grey" stroke="grey" stroke-width="2" points="1725.34,-638.966 1733.35,-632.032 1722.76,-632.457 1725.34,-638.966"/>
</g>
<!-- 37 -->
<g id="node38" class="node"><title>37</title>
<path fill="none" stroke="#a7d856" stroke-width="2" d="M1648.5,-632C1648.5,-632 1550.5,-632 1550.5,-632 1544.5,-632 1538.5,-626 1538.5,-620 1538.5,-620 1538.5,-600 1538.5,-600 1538.5,-594 1544.5,-588 1550.5,-588 1550.5,-588 1648.5,-588 1648.5,-588 1654.5,-588 1660.5,-594 1660.5,-600 1660.5,-600 1660.5,-620 1660.5,-620 1660.5,-626 1654.5,-632 1648.5,-632"/>
<text text-anchor="middle" x="1599.5" y="-619" font-family="sans" font-size="10.00">bam2mpileup</text>
<text text-anchor="middle" x="1599.5" y="-607" font-family="sans" font-size="10.00">chrB2M: _1</text>
<text text-anchor="middle" x="1599.5" y="-595" font-family="sans" font-size="10.00">sampleB2M: Pfeiffer2</text>
</g>
<!-- 20&#45;&gt;37 -->
<g id="edge49" class="edge"><title>20&#45;&gt;37</title>
<path fill="none" stroke="grey" stroke-width="2" d="M1599.5,-667.837C1599.5,-660.165 1599.5,-650.878 1599.5,-642.053"/>
<polygon fill="grey" stroke="grey" stroke-width="2" points="1603,-642.032 1599.5,-632.032 1596,-642.032 1603,-642.032"/>
</g>
<!-- 42 -->
<g id="node43" class="node"><title>42</title>
<path fill="none" stroke="#a7d856" stroke-width="2" d="M1493.5,-632C1493.5,-632 1395.5,-632 1395.5,-632 1389.5,-632 1383.5,-626 1383.5,-620 1383.5,-620 1383.5,-600 1383.5,-600 1383.5,-594 1389.5,-588 1395.5,-588 1395.5,-588 1493.5,-588 1493.5,-588 1499.5,-588 1505.5,-594 1505.5,-600 1505.5,-600 1505.5,-620 1505.5,-620 1505.5,-626 1499.5,-632 1493.5,-632"/>
<text text-anchor="middle" x="1444.5" y="-619" font-family="sans" font-size="10.00">bam2mpileup</text>
<text text-anchor="middle" x="1444.5" y="-607" font-family="sans" font-size="10.00">chrB2M: _3</text>
<text text-anchor="middle" x="1444.5" y="-595" font-family="sans" font-size="10.00">sampleB2M: Pfeiffer2</text>
</g>
<!-- 20&#45;&gt;42 -->
<g id="edge54" class="edge"><title>20&#45;&gt;42</title>
<path fill="none" stroke="grey" stroke-width="2" d="M1563.55,-667.837C1543.99,-658.497 1519.41,-646.763 1497.67,-636.386"/>
<polygon fill="grey" stroke="grey" stroke-width="2" points="1499.09,-633.182 1488.55,-632.032 1496.07,-639.499 1499.09,-633.182"/>
</g>
<!-- 41 -->
<g id="node42" class="node"><title>41</title>
<path fill="none" stroke="#d85656" stroke-width="2" d="M1851,-552C1851,-552 1722,-552 1722,-552 1716,-552 1710,-546 1710,-540 1710,-540 1710,-508 1710,-508 1710,-502 1716,-496 1722,-496 1722,-496 1851,-496 1851,-496 1857,-496 1863,-502 1863,-508 1863,-508 1863,-540 1863,-540 1863,-546 1857,-552 1851,-552"/>
<text text-anchor="middle" x="1786.5" y="-539" font-family="sans" font-size="10.00">mpileup2vcf_single</text>
<text text-anchor="middle" x="1786.5" y="-527" font-family="sans" font-size="10.00">chrMPU2VCFS: _2</text>
<text text-anchor="middle" x="1786.5" y="-515" font-family="sans" font-size="10.00">sampleMPU2VCFS: Pfeiffer2</text>
<text text-anchor="middle" x="1786.5" y="-503" font-family="sans" font-size="10.00">varTypeMPU2VCFS: indel</text>
</g>
<!-- 21&#45;&gt;41 -->
<g id="edge53" class="edge"><title>21&#45;&gt;41</title>
<path fill="none" stroke="grey" stroke-width="2" d="M1786.5,-587.803C1786.5,-580.048 1786.5,-571.027 1786.5,-562.282"/>
<polygon fill="grey" stroke="grey" stroke-width="2" points="1790,-562.236 1786.5,-552.236 1783,-562.236 1790,-562.236"/>
</g>
<!-- 43 -->
<g id="node44" class="node"><title>43</title>
<path fill="none" stroke="#d85656" stroke-width="2" d="M2022,-552C2022,-552 1893,-552 1893,-552 1887,-552 1881,-546 1881,-540 1881,-540 1881,-508 1881,-508 1881,-502 1887,-496 1893,-496 1893,-496 2022,-496 2022,-496 2028,-496 2034,-502 2034,-508 2034,-508 2034,-540 2034,-540 2034,-546 2028,-552 2022,-552"/>
<text text-anchor="middle" x="1957.5" y="-539" font-family="sans" font-size="10.00">mpileup2vcf_single</text>
<text text-anchor="middle" x="1957.5" y="-527" font-family="sans" font-size="10.00">chrMPU2VCFS: _2</text>
<text text-anchor="middle" x="1957.5" y="-515" font-family="sans" font-size="10.00">sampleMPU2VCFS: Pfeiffer2</text>
<text text-anchor="middle" x="1957.5" y="-503" font-family="sans" font-size="10.00">varTypeMPU2VCFS: snp</text>
</g>
<!-- 21&#45;&gt;43 -->
<g id="edge55" class="edge"><title>21&#45;&gt;43</title>
<path fill="none" stroke="grey" stroke-width="2" d="M1829.65,-587.803C1848.96,-578.32 1872.12,-566.943 1893.39,-556.494"/>
<polygon fill="grey" stroke="grey" stroke-width="2" points="1894.94,-559.631 1902.37,-552.08 1891.85,-553.348 1894.94,-559.631"/>
</g>
<!-- 22&#45;&gt;31 -->
<g id="edge42" class="edge"><title>22&#45;&gt;31</title>
<path fill="none" stroke="grey" stroke-width="2" d="M683.758,-498.305C680.641,-497.493 677.546,-496.72 674.5,-496 566.422,-470.442 440.708,-451.386 353.806,-439.849"/>
<polygon fill="grey" stroke="grey" stroke-width="2" points="354.041,-436.35 343.67,-438.514 353.127,-443.29 354.041,-436.35"/>
</g>
<!-- 23&#45;&gt;15 -->
<g id="edge23" class="edge"><title>23&#45;&gt;15</title>
<path fill="none" stroke="grey" stroke-width="2" d="M522.224,-1051.99C530.918,-1043.18 541.09,-1032.87 550.139,-1023.69"/>
<polygon fill="grey" stroke="grey" stroke-width="2" points="552.888,-1025.89 557.419,-1016.31 547.905,-1020.98 552.888,-1025.89"/>
</g>
<!-- 24 -->
<g id="node25" class="node"><title>24</title>
<path fill="none" stroke="#61d856" stroke-width="2" d="M1341.5,-116C1341.5,-116 975.5,-116 975.5,-116 969.5,-116 963.5,-110 963.5,-104 963.5,-104 963.5,-84 963.5,-84 963.5,-78 969.5,-72 975.5,-72 975.5,-72 1341.5,-72 1341.5,-72 1347.5,-72 1353.5,-78 1353.5,-84 1353.5,-84 1353.5,-104 1353.5,-104 1353.5,-110 1347.5,-116 1341.5,-116"/>
<text text-anchor="middle" x="1158.5" y="-103" font-family="sans" font-size="10.00">getVcfTable</text>
<text text-anchor="middle" x="1158.5" y="-91" font-family="sans" font-size="10.00">pathGVCFT: output/vcfGenUtil_varScan</text>
<text text-anchor="middle" x="1158.5" y="-79" font-family="sans" font-size="10.00">sampleGVCFT: Pfeiffer2.varScan.indel.canonical_annotated.indel_annotated</text>
</g>
<!-- 24&#45;&gt;5 -->
<g id="edge8" class="edge"><title>24&#45;&gt;5</title>
<path fill="none" stroke="grey" stroke-width="2" d="M1094.06,-71.9925C1053.26,-58.6919 1001.98,-41.9771 968.051,-30.9155"/>
<polygon fill="grey" stroke="grey" stroke-width="2" points="969.129,-27.5855 958.537,-27.8137 966.959,-34.2408 969.129,-27.5855"/>
</g>
<!-- 25 -->
<g id="node26" class="node"><title>25</title>
<path fill="none" stroke="#56c1d8" stroke-width="2" d="M1698.5,-460C1698.5,-460 1530.5,-460 1530.5,-460 1524.5,-460 1518.5,-454 1518.5,-448 1518.5,-448 1518.5,-404 1518.5,-404 1518.5,-398 1524.5,-392 1530.5,-392 1530.5,-392 1698.5,-392 1698.5,-392 1704.5,-392 1710.5,-398 1710.5,-404 1710.5,-404 1710.5,-448 1710.5,-448 1710.5,-454 1704.5,-460 1698.5,-460"/>
<text text-anchor="middle" x="1614.5" y="-447" font-family="sans" font-size="10.00">mergeVCF</text>
<text text-anchor="middle" x="1614.5" y="-435" font-family="sans" font-size="10.00">pathMV: output/vcfGenUtil_varScan</text>
<text text-anchor="middle" x="1614.5" y="-423" font-family="sans" font-size="10.00">sampleMVCF: Pfeiffer2</text>
<text text-anchor="middle" x="1614.5" y="-411" font-family="sans" font-size="10.00">varTypeMVCF: snp</text>
<text text-anchor="middle" x="1614.5" y="-399" font-family="sans" font-size="10.00">vcfProgramMVCF: varScan</text>
</g>
<!-- 36 -->
<g id="node37" class="node"><title>36</title>
<path fill="none" stroke="#56d85b" stroke-width="2" d="M1693.5,-356C1693.5,-356 1533.5,-356 1533.5,-356 1527.5,-356 1521.5,-350 1521.5,-344 1521.5,-344 1521.5,-324 1521.5,-324 1521.5,-318 1527.5,-312 1533.5,-312 1533.5,-312 1693.5,-312 1693.5,-312 1699.5,-312 1705.5,-318 1705.5,-324 1705.5,-324 1705.5,-344 1705.5,-344 1705.5,-350 1699.5,-356 1693.5,-356"/>
<text text-anchor="middle" x="1613.5" y="-343" font-family="sans" font-size="10.00">canonical</text>
<text text-anchor="middle" x="1613.5" y="-331" font-family="sans" font-size="10.00">pathCAN: vcfGenUtil_varScan</text>
<text text-anchor="middle" x="1613.5" y="-319" font-family="sans" font-size="10.00">sampleCAN: Pfeiffer2.varScan.snp</text>
</g>
<!-- 25&#45;&gt;36 -->
<g id="edge48" class="edge"><title>25&#45;&gt;36</title>
<path fill="none" stroke="grey" stroke-width="2" d="M1614.13,-391.998C1614.04,-383.603 1613.94,-374.607 1613.85,-366.299"/>
<polygon fill="grey" stroke="grey" stroke-width="2" points="1617.35,-366.202 1613.74,-356.241 1610.35,-366.28 1617.35,-366.202"/>
</g>
<!-- 26&#45;&gt;15 -->
<g id="edge22" class="edge"><title>26&#45;&gt;15</title>
<path fill="none" stroke="grey" stroke-width="2" d="M627.493,-1051.99C618.591,-1043.09 608.161,-1032.66 598.92,-1023.42"/>
<polygon fill="grey" stroke="grey" stroke-width="2" points="601.361,-1020.91 591.815,-1016.31 596.411,-1025.86 601.361,-1020.91"/>
</g>
<!-- 27 -->
<g id="node28" class="node"><title>27</title>
<path fill="none" stroke="#d85656" stroke-width="2" d="M1509,-552C1509,-552 1380,-552 1380,-552 1374,-552 1368,-546 1368,-540 1368,-540 1368,-508 1368,-508 1368,-502 1374,-496 1380,-496 1380,-496 1509,-496 1509,-496 1515,-496 1521,-502 1521,-508 1521,-508 1521,-540 1521,-540 1521,-546 1515,-552 1509,-552"/>
<text text-anchor="middle" x="1444.5" y="-539" font-family="sans" font-size="10.00">mpileup2vcf_single</text>
<text text-anchor="middle" x="1444.5" y="-527" font-family="sans" font-size="10.00">chrMPU2VCFS: _3</text>
<text text-anchor="middle" x="1444.5" y="-515" font-family="sans" font-size="10.00">sampleMPU2VCFS: Pfeiffer2</text>
<text text-anchor="middle" x="1444.5" y="-503" font-family="sans" font-size="10.00">varTypeMPU2VCFS: snp</text>
</g>
<!-- 27&#45;&gt;25 -->
<g id="edge34" class="edge"><title>27&#45;&gt;25</title>
<path fill="none" stroke="grey" stroke-width="2" d="M1492.76,-495.747C1509.63,-486.219 1528.9,-475.341 1547.04,-465.093"/>
<polygon fill="grey" stroke="grey" stroke-width="2" points="1548.86,-468.087 1555.85,-460.122 1545.42,-461.991 1548.86,-468.087"/>
</g>
<!-- 28 -->
<g id="node29" class="node"><title>28</title>
<path fill="none" stroke="#568ad8" stroke-width="2" d="M1678,-944C1678,-944 1521,-944 1521,-944 1515,-944 1509,-938 1509,-932 1509,-932 1509,-912 1509,-912 1509,-906 1515,-900 1521,-900 1521,-900 1678,-900 1678,-900 1684,-900 1690,-906 1690,-912 1690,-912 1690,-932 1690,-932 1690,-938 1684,-944 1678,-944"/>
<text text-anchor="middle" x="1599.5" y="-931" font-family="sans" font-size="10.00">sortBAM_biobambam</text>
<text text-anchor="middle" x="1599.5" y="-919" font-family="sans" font-size="10.00">pathSBB: output/bam</text>
<text text-anchor="middle" x="1599.5" y="-907" font-family="sans" font-size="10.00">sampleSBB: Pfeiffer2_Aligned.out</text>
</g>
<!-- 45 -->
<g id="node46" class="node"><title>45</title>
<path fill="none" stroke="#d86656" stroke-width="2" d="M1692.5,-864C1692.5,-864 1506.5,-864 1506.5,-864 1500.5,-864 1494.5,-858 1494.5,-852 1494.5,-852 1494.5,-832 1494.5,-832 1494.5,-826 1500.5,-820 1506.5,-820 1506.5,-820 1692.5,-820 1692.5,-820 1698.5,-820 1704.5,-826 1704.5,-832 1704.5,-832 1704.5,-852 1704.5,-852 1704.5,-858 1698.5,-864 1692.5,-864"/>
<text text-anchor="middle" x="1599.5" y="-851" font-family="sans" font-size="10.00">filteredBAM</text>
<text text-anchor="middle" x="1599.5" y="-839" font-family="sans" font-size="10.00">pathFB: output/bam</text>
<text text-anchor="middle" x="1599.5" y="-827" font-family="sans" font-size="10.00">sampleFB: Pfeiffer2_Aligned.out_sorted</text>
</g>
<!-- 28&#45;&gt;45 -->
<g id="edge57" class="edge"><title>28&#45;&gt;45</title>
<path fill="none" stroke="grey" stroke-width="2" d="M1599.5,-899.686C1599.5,-891.798 1599.5,-882.684 1599.5,-874.103"/>
<polygon fill="grey" stroke="grey" stroke-width="2" points="1603,-874.018 1599.5,-864.018 1596,-874.018 1603,-874.018"/>
</g>
<!-- 29&#45;&gt;2 -->
<g id="edge3" class="edge"><title>29&#45;&gt;2</title>
<path fill="none" stroke="grey" stroke-width="2" d="M357.373,-597.045C307.416,-586.91 234.8,-571.352 163.386,-552.432"/>
<polygon fill="grey" stroke="grey" stroke-width="2" points="163.885,-548.942 153.32,-549.74 162.076,-555.705 163.885,-548.942"/>
</g>
<!-- 47 -->
<g id="node48" class="node"><title>47</title>
<path fill="none" stroke="#d85656" stroke-width="2" d="M483,-552C483,-552 354,-552 354,-552 348,-552 342,-546 342,-540 342,-540 342,-508 342,-508 342,-502 348,-496 354,-496 354,-496 483,-496 483,-496 489,-496 495,-502 495,-508 495,-508 495,-540 495,-540 495,-546 489,-552 483,-552"/>
<text text-anchor="middle" x="418.5" y="-539" font-family="sans" font-size="10.00">mpileup2vcf_single</text>
<text text-anchor="middle" x="418.5" y="-527" font-family="sans" font-size="10.00">chrMPU2VCFS: _3</text>
<text text-anchor="middle" x="418.5" y="-515" font-family="sans" font-size="10.00">sampleMPU2VCFS: Pfeiffer3</text>
<text text-anchor="middle" x="418.5" y="-503" font-family="sans" font-size="10.00">varTypeMPU2VCFS: snp</text>
</g>
<!-- 29&#45;&gt;47 -->
<g id="edge59" class="edge"><title>29&#45;&gt;47</title>
<path fill="none" stroke="grey" stroke-width="2" d="M418.5,-587.803C418.5,-580.048 418.5,-571.027 418.5,-562.282"/>
<polygon fill="grey" stroke="grey" stroke-width="2" points="422,-562.236 418.5,-552.236 415,-562.236 422,-562.236"/>
</g>
<!-- 30&#45;&gt;6 -->
<g id="edge12" class="edge"><title>30&#45;&gt;6</title>
<path fill="none" stroke="grey" stroke-width="2" d="M250.5,-151.686C250.5,-143.798 250.5,-134.684 250.5,-126.103"/>
<polygon fill="grey" stroke="grey" stroke-width="2" points="254,-126.018 250.5,-116.018 247,-126.018 254,-126.018"/>
</g>
<!-- 31&#45;&gt;8 -->
<g id="edge14" class="edge"><title>31&#45;&gt;8</title>
<path fill="none" stroke="grey" stroke-width="2" d="M248.086,-391.819C248.623,-361.354 249.414,-316.528 249.943,-286.58"/>
<polygon fill="grey" stroke="grey" stroke-width="2" points="253.447,-286.334 250.125,-276.274 246.449,-286.211 253.447,-286.334"/>
</g>
<!-- 32&#45;&gt;28 -->
<g id="edge38" class="edge"><title>32&#45;&gt;28</title>
<path fill="none" stroke="grey" stroke-width="2" d="M1599.5,-979.837C1599.5,-972.165 1599.5,-962.878 1599.5,-954.053"/>
<polygon fill="grey" stroke="grey" stroke-width="2" points="1603,-954.032 1599.5,-944.032 1596,-954.032 1603,-954.032"/>
</g>
<!-- 33 -->
<g id="node34" class="node"><title>33</title>
<path fill="none" stroke="#d8c356" stroke-width="2" d="M1751.5,-276C1751.5,-276 1473.5,-276 1473.5,-276 1467.5,-276 1461.5,-270 1461.5,-264 1461.5,-264 1461.5,-244 1461.5,-244 1461.5,-238 1467.5,-232 1473.5,-232 1473.5,-232 1751.5,-232 1751.5,-232 1757.5,-232 1763.5,-238 1763.5,-244 1763.5,-244 1763.5,-264 1763.5,-264 1763.5,-270 1757.5,-276 1751.5,-276"/>
<text text-anchor="middle" x="1612.5" y="-263" font-family="sans" font-size="10.00">dbsnp</text>
<text text-anchor="middle" x="1612.5" y="-251" font-family="sans" font-size="10.00">pathDbSnp: output/vcfGenUtil_varScan</text>
<text text-anchor="middle" x="1612.5" y="-239" font-family="sans" font-size="10.00">sampleDbSnp: Pfeiffer2.varScan.snp.canonical_annotated</text>
</g>
<!-- 46 -->
<g id="node47" class="node"><title>46</title>
<path fill="none" stroke="#d8d356" stroke-width="2" d="M1789.5,-196C1789.5,-196 1435.5,-196 1435.5,-196 1429.5,-196 1423.5,-190 1423.5,-184 1423.5,-184 1423.5,-164 1423.5,-164 1423.5,-158 1429.5,-152 1435.5,-152 1435.5,-152 1789.5,-152 1789.5,-152 1795.5,-152 1801.5,-158 1801.5,-164 1801.5,-164 1801.5,-184 1801.5,-184 1801.5,-190 1795.5,-196 1789.5,-196"/>
<text text-anchor="middle" x="1612.5" y="-183" font-family="sans" font-size="10.00">cosmic</text>
<text text-anchor="middle" x="1612.5" y="-171" font-family="sans" font-size="10.00">pathCOS: output/vcfGenUtil_varScan</text>
<text text-anchor="middle" x="1612.5" y="-159" font-family="sans" font-size="10.00">sampleCOS: Pfeiffer2.varScan.snp.canonical_annotated.dbsnp_annotated</text>
</g>
<!-- 33&#45;&gt;46 -->
<g id="edge58" class="edge"><title>33&#45;&gt;46</title>
<path fill="none" stroke="grey" stroke-width="2" d="M1612.5,-231.686C1612.5,-223.798 1612.5,-214.684 1612.5,-206.103"/>
<polygon fill="grey" stroke="grey" stroke-width="2" points="1616,-206.018 1612.5,-196.018 1609,-206.018 1616,-206.018"/>
</g>
<!-- 34 -->
<g id="node35" class="node"><title>34</title>
<path fill="none" stroke="#56d882" stroke-width="2" d="M1317.5,-276C1317.5,-276 1041.5,-276 1041.5,-276 1035.5,-276 1029.5,-270 1029.5,-264 1029.5,-264 1029.5,-244 1029.5,-244 1029.5,-238 1035.5,-232 1041.5,-232 1041.5,-232 1317.5,-232 1317.5,-232 1323.5,-232 1329.5,-238 1329.5,-244 1329.5,-244 1329.5,-264 1329.5,-264 1329.5,-270 1323.5,-276 1317.5,-276"/>
<text text-anchor="middle" x="1179.5" y="-263" font-family="sans" font-size="10.00">indel</text>
<text text-anchor="middle" x="1179.5" y="-251" font-family="sans" font-size="10.00">pathIndel: output/vcfGenUtil_varScan</text>
<text text-anchor="middle" x="1179.5" y="-239" font-family="sans" font-size="10.00">sampleIndel: Pfeiffer2.varScan.indel.canonical_annotated</text>
</g>
<!-- 34&#45;&gt;24 -->
<g id="edge32" class="edge"><title>34&#45;&gt;24</title>
<path fill="none" stroke="grey" stroke-width="2" d="M1176.67,-231.691C1173.06,-204.523 1166.79,-157.339 1162.64,-126.139"/>
<polygon fill="grey" stroke="grey" stroke-width="2" points="1166.11,-125.674 1161.32,-116.223 1159.17,-126.597 1166.11,-125.674"/>
</g>
<!-- 35 -->
<g id="node36" class="node"><title>35</title>
<path fill="none" stroke="#d89c56" stroke-width="2" d="M1648.5,-1168C1648.5,-1168 1548.5,-1168 1548.5,-1168 1542.5,-1168 1536.5,-1162 1536.5,-1156 1536.5,-1156 1536.5,-1144 1536.5,-1144 1536.5,-1138 1542.5,-1132 1548.5,-1132 1548.5,-1132 1648.5,-1132 1648.5,-1132 1654.5,-1132 1660.5,-1138 1660.5,-1144 1660.5,-1144 1660.5,-1156 1660.5,-1156 1660.5,-1162 1654.5,-1168 1648.5,-1168"/>
<text text-anchor="middle" x="1598.5" y="-1153" font-family="sans" font-size="10.00">bam2fastq_picard</text>
<text text-anchor="middle" x="1598.5" y="-1141" font-family="sans" font-size="10.00">sampleB2FP: Pfeiffer2</text>
</g>
<!-- 35&#45;&gt;9 -->
<g id="edge15" class="edge"><title>35&#45;&gt;9</title>
<path fill="none" stroke="grey" stroke-width="2" d="M1581.57,-1131.84C1573.18,-1123.33 1562.83,-1112.84 1553.31,-1103.2"/>
<polygon fill="grey" stroke="grey" stroke-width="2" points="1555.76,-1100.69 1546.25,-1096.03 1550.78,-1105.61 1555.76,-1100.69"/>
</g>
<!-- 35&#45;&gt;12 -->
<g id="edge20" class="edge"><title>35&#45;&gt;12</title>
<path fill="none" stroke="grey" stroke-width="2" d="M1615.66,-1131.84C1624.17,-1123.33 1634.66,-1112.84 1644.3,-1103.2"/>
<polygon fill="grey" stroke="grey" stroke-width="2" points="1646.87,-1105.58 1651.47,-1096.03 1641.92,-1100.63 1646.87,-1105.58"/>
</g>
<!-- 36&#45;&gt;33 -->
<g id="edge46" class="edge"><title>36&#45;&gt;33</title>
<path fill="none" stroke="grey" stroke-width="2" d="M1613.23,-311.686C1613.13,-303.798 1613.01,-294.684 1612.9,-286.103"/>
<polygon fill="grey" stroke="grey" stroke-width="2" points="1616.4,-285.972 1612.77,-276.018 1609.4,-286.062 1616.4,-285.972"/>
</g>
<!-- 37&#45;&gt;1 -->
<g id="edge2" class="edge"><title>37&#45;&gt;1</title>
<path fill="none" stroke="grey" stroke-width="2" d="M1538.24,-593.746C1530.26,-591.794 1522.19,-589.837 1514.5,-588 1448.4,-572.209 1428.87,-570.879 1360.33,-552.43"/>
<polygon fill="grey" stroke="grey" stroke-width="2" points="1360.9,-548.956 1350.33,-549.71 1359.06,-555.711 1360.9,-548.956"/>
</g>
<!-- 40 -->
<g id="node41" class="node"><title>40</title>
<path fill="none" stroke="#d85656" stroke-width="2" d="M1680,-552C1680,-552 1551,-552 1551,-552 1545,-552 1539,-546 1539,-540 1539,-540 1539,-508 1539,-508 1539,-502 1545,-496 1551,-496 1551,-496 1680,-496 1680,-496 1686,-496 1692,-502 1692,-508 1692,-508 1692,-540 1692,-540 1692,-546 1686,-552 1680,-552"/>
<text text-anchor="middle" x="1615.5" y="-539" font-family="sans" font-size="10.00">mpileup2vcf_single</text>
<text text-anchor="middle" x="1615.5" y="-527" font-family="sans" font-size="10.00">chrMPU2VCFS: _1</text>
<text text-anchor="middle" x="1615.5" y="-515" font-family="sans" font-size="10.00">sampleMPU2VCFS: Pfeiffer2</text>
<text text-anchor="middle" x="1615.5" y="-503" font-family="sans" font-size="10.00">varTypeMPU2VCFS: snp</text>
</g>
<!-- 37&#45;&gt;40 -->
<g id="edge52" class="edge"><title>37&#45;&gt;40</title>
<path fill="none" stroke="grey" stroke-width="2" d="M1603.54,-587.803C1605.01,-580.048 1606.73,-571.027 1608.4,-562.282"/>
<polygon fill="grey" stroke="grey" stroke-width="2" points="1611.88,-562.714 1610.31,-552.236 1605,-561.405 1611.88,-562.714"/>
</g>
<!-- 38 -->
<g id="node39" class="node"><title>38</title>
<path fill="none" stroke="#56d892" stroke-width="2" d="M693,-784C693,-784 456,-784 456,-784 450,-784 444,-778 444,-772 444,-772 444,-752 444,-752 444,-746 450,-740 456,-740 456,-740 693,-740 693,-740 699,-740 705,-746 705,-752 705,-752 705,-772 705,-772 705,-778 699,-784 693,-784"/>
<text text-anchor="middle" x="574.5" y="-771" font-family="sans" font-size="10.00">markdupBAM</text>
<text text-anchor="middle" x="574.5" y="-759" font-family="sans" font-size="10.00">outputDIR: output</text>
<text text-anchor="middle" x="574.5" y="-747" font-family="sans" font-size="10.00">sampleMDB: Pfeiffer3_Aligned.out_sorted_filtered</text>
</g>
<!-- 38&#45;&gt;11 -->
<g id="edge19" class="edge"><title>38&#45;&gt;11</title>
<path fill="none" stroke="grey" stroke-width="2" d="M574.5,-739.993C574.5,-732.061 574.5,-722.915 574.5,-714.478"/>
<polygon fill="grey" stroke="grey" stroke-width="2" points="578,-714.315 574.5,-704.315 571,-714.315 578,-714.315"/>
</g>
<!-- 39 -->
<g id="node40" class="node"><title>39</title>
<path fill="none" stroke="#d8d356" stroke-width="2" d="M866.5,-196C866.5,-196 512.5,-196 512.5,-196 506.5,-196 500.5,-190 500.5,-184 500.5,-184 500.5,-164 500.5,-164 500.5,-158 506.5,-152 512.5,-152 512.5,-152 866.5,-152 866.5,-152 872.5,-152 878.5,-158 878.5,-164 878.5,-164 878.5,-184 878.5,-184 878.5,-190 872.5,-196 866.5,-196"/>
<text text-anchor="middle" x="689.5" y="-183" font-family="sans" font-size="10.00">cosmic</text>
<text text-anchor="middle" x="689.5" y="-171" font-family="sans" font-size="10.00">pathCOS: output/vcfGenUtil_varScan</text>
<text text-anchor="middle" x="689.5" y="-159" font-family="sans" font-size="10.00">sampleCOS: Pfeiffer3.varScan.snp.canonical_annotated.dbsnp_annotated</text>
</g>
<!-- 39&#45;&gt;17 -->
<g id="edge25" class="edge"><title>39&#45;&gt;17</title>
<path fill="none" stroke="grey" stroke-width="2" d="M693.599,-151.686C695.116,-143.798 696.868,-134.684 698.519,-126.103"/>
<polygon fill="grey" stroke="grey" stroke-width="2" points="702.007,-126.499 700.458,-116.018 695.132,-125.177 702.007,-126.499"/>
</g>
<!-- 40&#45;&gt;25 -->
<g id="edge35" class="edge"><title>40&#45;&gt;25</title>
<path fill="none" stroke="grey" stroke-width="2" d="M1615.22,-495.747C1615.13,-487.779 1615.04,-478.865 1614.95,-470.166"/>
<polygon fill="grey" stroke="grey" stroke-width="2" points="1618.45,-470.085 1614.85,-460.122 1611.45,-470.158 1618.45,-470.085"/>
</g>
<!-- 41&#45;&gt;10 -->
<g id="edge18" class="edge"><title>41&#45;&gt;10</title>
<path fill="none" stroke="grey" stroke-width="2" d="M1709.76,-498.294C1706.64,-497.485 1703.55,-496.716 1700.5,-496 1639.77,-481.733 1479.76,-457.624 1371.68,-442.014"/>
<polygon fill="grey" stroke="grey" stroke-width="2" points="1372.12,-438.54 1361.72,-440.578 1371.12,-445.469 1372.12,-438.54"/>
</g>
<!-- 42&#45;&gt;19 -->
<g id="edge27" class="edge"><title>42&#45;&gt;19</title>
<path fill="none" stroke="grey" stroke-width="2" d="M1383.37,-597.045C1333.42,-586.91 1260.8,-571.352 1189.39,-552.432"/>
<polygon fill="grey" stroke="grey" stroke-width="2" points="1189.88,-548.942 1179.32,-549.74 1188.08,-555.705 1189.88,-548.942"/>
</g>
<!-- 42&#45;&gt;27 -->
<g id="edge37" class="edge"><title>42&#45;&gt;27</title>
<path fill="none" stroke="grey" stroke-width="2" d="M1444.5,-587.803C1444.5,-580.048 1444.5,-571.027 1444.5,-562.282"/>
<polygon fill="grey" stroke="grey" stroke-width="2" points="1448,-562.236 1444.5,-552.236 1441,-562.236 1448,-562.236"/>
</g>
<!-- 43&#45;&gt;25 -->
<g id="edge33" class="edge"><title>43&#45;&gt;25</title>
<path fill="none" stroke="grey" stroke-width="2" d="M1880.65,-498.699C1877.57,-497.778 1874.51,-496.875 1871.5,-496 1822.01,-481.595 1766.85,-466.641 1720.36,-454.352"/>
<polygon fill="grey" stroke="grey" stroke-width="2" points="1721.13,-450.938 1710.57,-451.772 1719.35,-457.706 1721.13,-450.938"/>
</g>
<!-- 44 -->
<g id="node45" class="node"><title>44</title>
<path fill="none" stroke="#d86656" stroke-width="2" d="M667.5,-864C667.5,-864 481.5,-864 481.5,-864 475.5,-864 469.5,-858 469.5,-852 469.5,-852 469.5,-832 469.5,-832 469.5,-826 475.5,-820 481.5,-820 481.5,-820 667.5,-820 667.5,-820 673.5,-820 679.5,-826 679.5,-832 679.5,-832 679.5,-852 679.5,-852 679.5,-858 673.5,-864 667.5,-864"/>
<text text-anchor="middle" x="574.5" y="-851" font-family="sans" font-size="10.00">filteredBAM</text>
<text text-anchor="middle" x="574.5" y="-839" font-family="sans" font-size="10.00">pathFB: output/bam</text>
<text text-anchor="middle" x="574.5" y="-827" font-family="sans" font-size="10.00">sampleFB: Pfeiffer3_Aligned.out_sorted</text>
</g>
<!-- 44&#45;&gt;38 -->
<g id="edge50" class="edge"><title>44&#45;&gt;38</title>
<path fill="none" stroke="grey" stroke-width="2" d="M574.5,-819.686C574.5,-811.798 574.5,-802.684 574.5,-794.103"/>
<polygon fill="grey" stroke="grey" stroke-width="2" points="578,-794.018 574.5,-784.018 571,-794.018 578,-794.018"/>
</g>
<!-- 45&#45;&gt;4 -->
<g id="edge7" class="edge"><title>45&#45;&gt;4</title>
<path fill="none" stroke="grey" stroke-width="2" d="M1599.5,-819.686C1599.5,-811.798 1599.5,-802.684 1599.5,-794.103"/>
<polygon fill="grey" stroke="grey" stroke-width="2" points="1603,-794.018 1599.5,-784.018 1596,-794.018 1603,-794.018"/>
</g>
<!-- 46&#45;&gt;16 -->
<g id="edge24" class="edge"><title>46&#45;&gt;16</title>
<path fill="none" stroke="grey" stroke-width="2" d="M1612.5,-151.686C1612.5,-143.798 1612.5,-134.684 1612.5,-126.103"/>
<polygon fill="grey" stroke="grey" stroke-width="2" points="1616,-126.018 1612.5,-116.018 1609,-126.018 1616,-126.018"/>
</g>
<!-- 47&#45;&gt;3 -->
<g id="edge4" class="edge"><title>47&#45;&gt;3</title>
<path fill="none" stroke="grey" stroke-width="2" d="M469.315,-495.747C487.161,-486.176 507.548,-475.243 526.732,-464.954"/>
<polygon fill="grey" stroke="grey" stroke-width="2" points="528.583,-467.933 535.742,-460.122 525.275,-461.764 528.583,-467.933"/>
</g>
<!-- 48&#45;&gt;44 -->
<g id="edge56" class="edge"><title>48&#45;&gt;44</title>
<path fill="none" stroke="grey" stroke-width="2" d="M574.5,-899.686C574.5,-891.798 574.5,-882.684 574.5,-874.103"/>
<polygon fill="grey" stroke="grey" stroke-width="2" points="578,-874.018 574.5,-864.018 571,-874.018 578,-874.018"/>
</g>
<!-- 49&#45;&gt;3 -->
<g id="edge5" class="edge"><title>49&#45;&gt;3</title>
<path fill="none" stroke="grey" stroke-width="2" d="M854.644,-498.734C851.558,-497.803 848.501,-496.888 845.5,-496 799.086,-482.261 747.555,-467.797 703.544,-455.68"/>
<polygon fill="grey" stroke="grey" stroke-width="2" points="704.263,-452.248 693.693,-452.973 702.408,-458.998 704.263,-452.248"/>
</g>
<!-- 52 -->
<g id="node53" class="node"><title>52</title>
<path fill="none" stroke="#d8c356" stroke-width="2" d="M821.5,-276C821.5,-276 543.5,-276 543.5,-276 537.5,-276 531.5,-270 531.5,-264 531.5,-264 531.5,-244 531.5,-244 531.5,-238 537.5,-232 543.5,-232 543.5,-232 821.5,-232 821.5,-232 827.5,-232 833.5,-238 833.5,-244 833.5,-244 833.5,-264 833.5,-264 833.5,-270 827.5,-276 821.5,-276"/>
<text text-anchor="middle" x="682.5" y="-263" font-family="sans" font-size="10.00">dbsnp</text>
<text text-anchor="middle" x="682.5" y="-251" font-family="sans" font-size="10.00">pathDbSnp: output/vcfGenUtil_varScan</text>
<text text-anchor="middle" x="682.5" y="-239" font-family="sans" font-size="10.00">sampleDbSnp: Pfeiffer3.varScan.snp.canonical_annotated</text>
</g>
<!-- 50&#45;&gt;52 -->
<g id="edge64" class="edge"><title>50&#45;&gt;52</title>
<path fill="none" stroke="grey" stroke-width="2" d="M641.802,-311.686C647.839,-303.277 654.876,-293.477 661.383,-284.413"/>
<polygon fill="grey" stroke="grey" stroke-width="2" points="664.421,-286.183 667.41,-276.018 658.735,-282.1 664.421,-286.183"/>
</g>
<!-- 51&#45;&gt;34 -->
<g id="edge47" class="edge"><title>51&#45;&gt;34</title>
<path fill="none" stroke="grey" stroke-width="2" d="M1220.92,-311.686C1214.72,-303.191 1207.47,-293.275 1200.79,-284.133"/>
<polygon fill="grey" stroke="grey" stroke-width="2" points="1203.59,-282.027 1194.86,-276.018 1197.93,-286.157 1203.59,-282.027"/>
</g>
<!-- 52&#45;&gt;39 -->
<g id="edge51" class="edge"><title>52&#45;&gt;39</title>
<path fill="none" stroke="grey" stroke-width="2" d="M684.413,-231.686C685.121,-223.798 685.939,-214.684 686.709,-206.103"/>
<polygon fill="grey" stroke="grey" stroke-width="2" points="690.206,-206.291 687.614,-196.018 683.234,-205.665 690.206,-206.291"/>
</g>
</g>
</svg>
