<?xml version="1.0" encoding="UTF-8" standalone="no"?>
<!DOCTYPE svg PUBLIC "-//W3C//DTD SVG 1.1//EN"
 "http://www.w3.org/Graphics/SVG/1.1/DTD/svg11.dtd">
<!-- Generated by graphviz version 2.38.0 (20140413.2041)
 -->
<!-- Title: snakemake_dag Pages: 1 -->
<svg width="2454pt" height="288pt"
 viewBox="0.00 0.00 2454.00 288.00" xmlns="http://www.w3.org/2000/svg" xmlns:xlink="http://www.w3.org/1999/xlink">
<g id="graph0" class="graph" transform="scale(1 1) rotate(0) translate(4 284)">
<title>snakemake_dag</title>
<polygon fill="white" stroke="none" points="-4,4 -4,-284 2450,-284 2450,4 -4,4"/>
<!-- 0 -->
<g id="node1" class="node"><title>0</title>
<path fill="none" stroke="#56c1d8" stroke-width="2" d="M498,-208C498,-208 364,-208 364,-208 358,-208 352,-202 352,-196 352,-196 352,-176 352,-176 352,-170 358,-164 364,-164 364,-164 498,-164 498,-164 504,-164 510,-170 510,-176 510,-176 510,-196 510,-196 510,-202 504,-208 498,-208"/>
<text text-anchor="middle" x="431" y="-195" font-family="sans" font-size="10.00">fastq2GZ</text>
<text text-anchor="middle" x="431" y="-183" font-family="sans" font-size="10.00">pathFGZ: output/fastq</text>
<text text-anchor="middle" x="431" y="-171" font-family="sans" font-size="10.00">sampleFGZ: Part1&#45;Pfeiffer3.1</text>
</g>
<!-- 15 -->
<g id="node16" class="node"><title>15</title>
<path fill="none" stroke="#d85656" stroke-width="2" d="M835,-128C835,-128 731,-128 731,-128 725,-128 719,-122 719,-116 719,-116 719,-84 719,-84 719,-78 725,-72 731,-72 731,-72 835,-72 835,-72 841,-72 847,-78 847,-84 847,-84 847,-116 847,-116 847,-122 841,-128 835,-128"/>
<text text-anchor="middle" x="783" y="-115" font-family="sans" font-size="10.00">mergeFASTQ</text>
<text text-anchor="middle" x="783" y="-103" font-family="sans" font-size="10.00">compressionSuffix: .gz</text>
<text text-anchor="middle" x="783" y="-91" font-family="sans" font-size="10.00">readDirection: .1</text>
<text text-anchor="middle" x="783" y="-79" font-family="sans" font-size="10.00">sampleFM: Pfeiffer3</text>
</g>
<!-- 0&#45;&gt;15 -->
<g id="edge14" class="edge"><title>0&#45;&gt;15</title>
<path fill="none" stroke="grey" stroke-width="2" d="M510.435,-166.044C569.952,-151.841 650.808,-132.546 708.976,-118.665"/>
<polygon fill="grey" stroke="grey" stroke-width="2" points="709.92,-122.038 718.835,-116.312 708.295,-115.229 709.92,-122.038"/>
</g>
<!-- 1 -->
<g id="node2" class="node"><title>1</title>
<path fill="none" stroke="#d8bc56" stroke-width="2" d="M1062,-36C1062,-36 1032,-36 1032,-36 1026,-36 1020,-30 1020,-24 1020,-24 1020,-12 1020,-12 1020,-6 1026,-0 1032,-0 1032,-0 1062,-0 1062,-0 1068,-0 1074,-6 1074,-12 1074,-12 1074,-24 1074,-24 1074,-30 1068,-36 1062,-36"/>
<text text-anchor="middle" x="1047" y="-15" font-family="sans" font-size="10.00">all</text>
</g>
<!-- 2 -->
<g id="node3" class="node"><title>2</title>
<path fill="none" stroke="#56c1d8" stroke-width="2" d="M2258,-208C2258,-208 2124,-208 2124,-208 2118,-208 2112,-202 2112,-196 2112,-196 2112,-176 2112,-176 2112,-170 2118,-164 2124,-164 2124,-164 2258,-164 2258,-164 2264,-164 2270,-170 2270,-176 2270,-176 2270,-196 2270,-196 2270,-202 2264,-208 2258,-208"/>
<text text-anchor="middle" x="2191" y="-195" font-family="sans" font-size="10.00">fastq2GZ</text>
<text text-anchor="middle" x="2191" y="-183" font-family="sans" font-size="10.00">pathFGZ: output/fastq</text>
<text text-anchor="middle" x="2191" y="-171" font-family="sans" font-size="10.00">sampleFGZ: Part3&#45;Pfeiffer2.2</text>
</g>
<!-- 19 -->
<g id="node20" class="node"><title>19</title>
<path fill="none" stroke="#d85656" stroke-width="2" d="M1363,-128C1363,-128 1259,-128 1259,-128 1253,-128 1247,-122 1247,-116 1247,-116 1247,-84 1247,-84 1247,-78 1253,-72 1259,-72 1259,-72 1363,-72 1363,-72 1369,-72 1375,-78 1375,-84 1375,-84 1375,-116 1375,-116 1375,-122 1369,-128 1363,-128"/>
<text text-anchor="middle" x="1311" y="-115" font-family="sans" font-size="10.00">mergeFASTQ</text>
<text text-anchor="middle" x="1311" y="-103" font-family="sans" font-size="10.00">compressionSuffix: .gz</text>
<text text-anchor="middle" x="1311" y="-91" font-family="sans" font-size="10.00">readDirection: .2</text>
<text text-anchor="middle" x="1311" y="-79" font-family="sans" font-size="10.00">sampleFM: Pfeiffer2</text>
</g>
<!-- 2&#45;&gt;19 -->
<g id="edge20" class="edge"><title>2&#45;&gt;19</title>
<path fill="none" stroke="grey" stroke-width="2" d="M2111.96,-165.528C2108.94,-164.979 2105.95,-164.466 2103,-164 1965.9,-142.322 1554.85,-115.79 1385.34,-105.436"/>
<polygon fill="grey" stroke="grey" stroke-width="2" points="1385.45,-101.936 1375.25,-104.822 1385.02,-108.923 1385.45,-101.936"/>
</g>
<!-- 3 -->
<g id="node4" class="node"><title>3</title>
<path fill="none" stroke="#56c1d8" stroke-width="2" d="M850,-208C850,-208 716,-208 716,-208 710,-208 704,-202 704,-196 704,-196 704,-176 704,-176 704,-170 710,-164 716,-164 716,-164 850,-164 850,-164 856,-164 862,-170 862,-176 862,-176 862,-196 862,-196 862,-202 856,-208 850,-208"/>
<text text-anchor="middle" x="783" y="-195" font-family="sans" font-size="10.00">fastq2GZ</text>
<text text-anchor="middle" x="783" y="-183" font-family="sans" font-size="10.00">pathFGZ: output/fastq</text>
<text text-anchor="middle" x="783" y="-171" font-family="sans" font-size="10.00">sampleFGZ: Part2&#45;Pfeiffer3.2</text>
</g>
<!-- 24 -->
<g id="node25" class="node"><title>24</title>
<path fill="none" stroke="#d85656" stroke-width="2" d="M586,-128C586,-128 482,-128 482,-128 476,-128 470,-122 470,-116 470,-116 470,-84 470,-84 470,-78 476,-72 482,-72 482,-72 586,-72 586,-72 592,-72 598,-78 598,-84 598,-84 598,-116 598,-116 598,-122 592,-128 586,-128"/>
<text text-anchor="middle" x="534" y="-115" font-family="sans" font-size="10.00">mergeFASTQ</text>
<text text-anchor="middle" x="534" y="-103" font-family="sans" font-size="10.00">compressionSuffix: .gz</text>
<text text-anchor="middle" x="534" y="-91" font-family="sans" font-size="10.00">readDirection: .2</text>
<text text-anchor="middle" x="534" y="-79" font-family="sans" font-size="10.00">sampleFM: Pfeiffer3</text>
</g>
<!-- 3&#45;&gt;24 -->
<g id="edge28" class="edge"><title>3&#45;&gt;24</title>
<path fill="none" stroke="grey" stroke-width="2" d="M720.488,-163.912C686.383,-152.406 643.946,-138.09 608.174,-126.023"/>
<polygon fill="grey" stroke="grey" stroke-width="2" points="608.868,-122.563 598.274,-122.683 606.63,-129.196 608.868,-122.563"/>
</g>
<!-- 4 -->
<g id="node5" class="node"><title>4</title>
<path fill="none" stroke="#56c1d8" stroke-width="2" d="M1554,-208C1554,-208 1420,-208 1420,-208 1414,-208 1408,-202 1408,-196 1408,-196 1408,-176 1408,-176 1408,-170 1414,-164 1420,-164 1420,-164 1554,-164 1554,-164 1560,-164 1566,-170 1566,-176 1566,-176 1566,-196 1566,-196 1566,-202 1560,-208 1554,-208"/>
<text text-anchor="middle" x="1487" y="-195" font-family="sans" font-size="10.00">fastq2GZ</text>
<text text-anchor="middle" x="1487" y="-183" font-family="sans" font-size="10.00">pathFGZ: output/fastq</text>
<text text-anchor="middle" x="1487" y="-171" font-family="sans" font-size="10.00">sampleFGZ: Part1&#45;Pfeiffer2.2</text>
</g>
<!-- 4&#45;&gt;19 -->
<g id="edge23" class="edge"><title>4&#45;&gt;19</title>
<path fill="none" stroke="grey" stroke-width="2" d="M1442.59,-163.803C1422.72,-154.32 1398.88,-142.943 1376.99,-132.494"/>
<polygon fill="grey" stroke="grey" stroke-width="2" points="1378.27,-129.229 1367.74,-128.08 1375.26,-135.546 1378.27,-129.229"/>
</g>
<!-- 5 -->
<g id="node6" class="node"><title>5</title>
<path fill="none" stroke="#88d856" stroke-width="2" d="M936,-280C936,-280 806,-280 806,-280 800,-280 794,-274 794,-268 794,-268 794,-256 794,-256 794,-250 800,-244 806,-244 806,-244 936,-244 936,-244 942,-244 948,-250 948,-256 948,-256 948,-268 948,-268 948,-274 942,-280 936,-280"/>
<text text-anchor="middle" x="871" y="-265" font-family="sans" font-size="10.00">bam2fastq_picard</text>
<text text-anchor="middle" x="871" y="-253" font-family="sans" font-size="10.00">sampleB2FP: Part2&#45;Pfeiffer3</text>
</g>
<!-- 5&#45;&gt;3 -->
<g id="edge7" class="edge"><title>5&#45;&gt;3</title>
<path fill="none" stroke="grey" stroke-width="2" d="M850.59,-243.837C840.276,-235.164 827.508,-224.427 815.856,-214.629"/>
<polygon fill="grey" stroke="grey" stroke-width="2" points="817.918,-211.789 808.011,-208.032 813.412,-217.147 817.918,-211.789"/>
</g>
<!-- 14 -->
<g id="node15" class="node"><title>14</title>
<path fill="none" stroke="#56c1d8" stroke-width="2" d="M1026,-208C1026,-208 892,-208 892,-208 886,-208 880,-202 880,-196 880,-196 880,-176 880,-176 880,-170 886,-164 892,-164 892,-164 1026,-164 1026,-164 1032,-164 1038,-170 1038,-176 1038,-176 1038,-196 1038,-196 1038,-202 1032,-208 1026,-208"/>
<text text-anchor="middle" x="959" y="-195" font-family="sans" font-size="10.00">fastq2GZ</text>
<text text-anchor="middle" x="959" y="-183" font-family="sans" font-size="10.00">pathFGZ: output/fastq</text>
<text text-anchor="middle" x="959" y="-171" font-family="sans" font-size="10.00">sampleFGZ: Part2&#45;Pfeiffer3.1</text>
</g>
<!-- 5&#45;&gt;14 -->
<g id="edge13" class="edge"><title>5&#45;&gt;14</title>
<path fill="none" stroke="grey" stroke-width="2" d="M891.41,-243.837C901.724,-235.164 914.492,-224.427 926.144,-214.629"/>
<polygon fill="grey" stroke="grey" stroke-width="2" points="928.588,-217.147 933.989,-208.032 924.082,-211.789 928.588,-217.147"/>
</g>
<!-- 6 -->
<g id="node7" class="node"><title>6</title>
<path fill="none" stroke="#88d856" stroke-width="2" d="M1509.5,-280C1509.5,-280 1380.5,-280 1380.5,-280 1374.5,-280 1368.5,-274 1368.5,-268 1368.5,-268 1368.5,-256 1368.5,-256 1368.5,-250 1374.5,-244 1380.5,-244 1380.5,-244 1509.5,-244 1509.5,-244 1515.5,-244 1521.5,-250 1521.5,-256 1521.5,-256 1521.5,-268 1521.5,-268 1521.5,-274 1515.5,-280 1509.5,-280"/>
<text text-anchor="middle" x="1445" y="-265" font-family="sans" font-size="10.00">bam2fastq_picard</text>
<text text-anchor="middle" x="1445" y="-253" font-family="sans" font-size="10.00">sampleB2FP: Part4&#45;Pfeiffer2</text>
</g>
<!-- 12 -->
<g id="node13" class="node"><title>12</title>
<path fill="none" stroke="#56c1d8" stroke-width="2" d="M1906,-208C1906,-208 1772,-208 1772,-208 1766,-208 1760,-202 1760,-196 1760,-196 1760,-176 1760,-176 1760,-170 1766,-164 1772,-164 1772,-164 1906,-164 1906,-164 1912,-164 1918,-170 1918,-176 1918,-176 1918,-196 1918,-196 1918,-202 1912,-208 1906,-208"/>
<text text-anchor="middle" x="1839" y="-195" font-family="sans" font-size="10.00">fastq2GZ</text>
<text text-anchor="middle" x="1839" y="-183" font-family="sans" font-size="10.00">pathFGZ: output/fastq</text>
<text text-anchor="middle" x="1839" y="-171" font-family="sans" font-size="10.00">sampleFGZ: Part4&#45;Pfeiffer2.1</text>
</g>
<!-- 6&#45;&gt;12 -->
<g id="edge12" class="edge"><title>6&#45;&gt;12</title>
<path fill="none" stroke="grey" stroke-width="2" d="M1521.65,-249.093C1581.33,-239.505 1666.46,-225.141 1749.99,-208.154"/>
<polygon fill="grey" stroke="grey" stroke-width="2" points="1750.8,-211.559 1759.9,-206.124 1749.4,-204.702 1750.8,-211.559"/>
</g>
<!-- 17 -->
<g id="node18" class="node"><title>17</title>
<path fill="none" stroke="#56c1d8" stroke-width="2" d="M1378,-208C1378,-208 1244,-208 1244,-208 1238,-208 1232,-202 1232,-196 1232,-196 1232,-176 1232,-176 1232,-170 1238,-164 1244,-164 1244,-164 1378,-164 1378,-164 1384,-164 1390,-170 1390,-176 1390,-176 1390,-196 1390,-196 1390,-202 1384,-208 1378,-208"/>
<text text-anchor="middle" x="1311" y="-195" font-family="sans" font-size="10.00">fastq2GZ</text>
<text text-anchor="middle" x="1311" y="-183" font-family="sans" font-size="10.00">pathFGZ: output/fastq</text>
<text text-anchor="middle" x="1311" y="-171" font-family="sans" font-size="10.00">sampleFGZ: Part4&#45;Pfeiffer2.2</text>
</g>
<!-- 6&#45;&gt;17 -->
<g id="edge18" class="edge"><title>6&#45;&gt;17</title>
<path fill="none" stroke="grey" stroke-width="2" d="M1413.92,-243.837C1397.31,-234.664 1376.52,-223.181 1357.98,-212.943"/>
<polygon fill="grey" stroke="grey" stroke-width="2" points="1359.53,-209.803 1349.09,-208.032 1356.15,-215.93 1359.53,-209.803"/>
</g>
<!-- 7 -->
<g id="node8" class="node"><title>7</title>
<path fill="none" stroke="#56c1d8" stroke-width="2" d="M674,-208C674,-208 540,-208 540,-208 534,-208 528,-202 528,-196 528,-196 528,-176 528,-176 528,-170 534,-164 540,-164 540,-164 674,-164 674,-164 680,-164 686,-170 686,-176 686,-176 686,-196 686,-196 686,-202 680,-208 674,-208"/>
<text text-anchor="middle" x="607" y="-195" font-family="sans" font-size="10.00">fastq2GZ</text>
<text text-anchor="middle" x="607" y="-183" font-family="sans" font-size="10.00">pathFGZ: output/fastq</text>
<text text-anchor="middle" x="607" y="-171" font-family="sans" font-size="10.00">sampleFGZ: Part3&#45;Pfeiffer3.1</text>
</g>
<!-- 7&#45;&gt;15 -->
<g id="edge15" class="edge"><title>7&#45;&gt;15</title>
<path fill="none" stroke="grey" stroke-width="2" d="M651.412,-163.803C671.282,-154.32 695.119,-142.943 717.013,-132.494"/>
<polygon fill="grey" stroke="grey" stroke-width="2" points="718.743,-135.546 726.26,-128.08 715.728,-129.229 718.743,-135.546"/>
</g>
<!-- 8 -->
<g id="node9" class="node"><title>8</title>
<path fill="none" stroke="#88d856" stroke-width="2" d="M1816,-280C1816,-280 1686,-280 1686,-280 1680,-280 1674,-274 1674,-268 1674,-268 1674,-256 1674,-256 1674,-250 1680,-244 1686,-244 1686,-244 1816,-244 1816,-244 1822,-244 1828,-250 1828,-256 1828,-256 1828,-268 1828,-268 1828,-274 1822,-280 1816,-280"/>
<text text-anchor="middle" x="1751" y="-265" font-family="sans" font-size="10.00">bam2fastq_picard</text>
<text text-anchor="middle" x="1751" y="-253" font-family="sans" font-size="10.00">sampleB2FP: Part1&#45;Pfeiffer2</text>
</g>
<!-- 8&#45;&gt;4 -->
<g id="edge8" class="edge"><title>8&#45;&gt;4</title>
<path fill="none" stroke="grey" stroke-width="2" d="M1690.1,-243.93C1655.01,-234.093 1610.35,-221.576 1571.86,-210.786"/>
<polygon fill="grey" stroke="grey" stroke-width="2" points="1572.79,-207.412 1562.21,-208.083 1570.9,-214.152 1572.79,-207.412"/>
</g>
<!-- 16 -->
<g id="node17" class="node"><title>16</title>
<path fill="none" stroke="#56c1d8" stroke-width="2" d="M2082,-208C2082,-208 1948,-208 1948,-208 1942,-208 1936,-202 1936,-196 1936,-196 1936,-176 1936,-176 1936,-170 1942,-164 1948,-164 1948,-164 2082,-164 2082,-164 2088,-164 2094,-170 2094,-176 2094,-176 2094,-196 2094,-196 2094,-202 2088,-208 2082,-208"/>
<text text-anchor="middle" x="2015" y="-195" font-family="sans" font-size="10.00">fastq2GZ</text>
<text text-anchor="middle" x="2015" y="-183" font-family="sans" font-size="10.00">pathFGZ: output/fastq</text>
<text text-anchor="middle" x="2015" y="-171" font-family="sans" font-size="10.00">sampleFGZ: Part1&#45;Pfeiffer2.1</text>
</g>
<!-- 8&#45;&gt;16 -->
<g id="edge17" class="edge"><title>8&#45;&gt;16</title>
<path fill="none" stroke="grey" stroke-width="2" d="M1811.9,-243.93C1846.99,-234.093 1891.65,-221.576 1930.14,-210.786"/>
<polygon fill="grey" stroke="grey" stroke-width="2" points="1931.1,-214.152 1939.79,-208.083 1929.21,-207.412 1931.1,-214.152"/>
</g>
<!-- 9 -->
<g id="node10" class="node"><title>9</title>
<path fill="none" stroke="#56c1d8" stroke-width="2" d="M1202,-208C1202,-208 1068,-208 1068,-208 1062,-208 1056,-202 1056,-196 1056,-196 1056,-176 1056,-176 1056,-170 1062,-164 1068,-164 1068,-164 1202,-164 1202,-164 1208,-164 1214,-170 1214,-176 1214,-176 1214,-196 1214,-196 1214,-202 1208,-208 1202,-208"/>
<text text-anchor="middle" x="1135" y="-195" font-family="sans" font-size="10.00">fastq2GZ</text>
<text text-anchor="middle" x="1135" y="-183" font-family="sans" font-size="10.00">pathFGZ: output/fastq</text>
<text text-anchor="middle" x="1135" y="-171" font-family="sans" font-size="10.00">sampleFGZ: Part2&#45;Pfeiffer2.2</text>
</g>
<!-- 9&#45;&gt;19 -->
<g id="edge22" class="edge"><title>9&#45;&gt;19</title>
<path fill="none" stroke="grey" stroke-width="2" d="M1179.41,-163.803C1199.28,-154.32 1223.12,-142.943 1245.01,-132.494"/>
<polygon fill="grey" stroke="grey" stroke-width="2" points="1246.74,-135.546 1254.26,-128.08 1243.73,-129.229 1246.74,-135.546"/>
</g>
<!-- 10 -->
<g id="node11" class="node"><title>10</title>
<path fill="none" stroke="#56c1d8" stroke-width="2" d="M2434,-208C2434,-208 2300,-208 2300,-208 2294,-208 2288,-202 2288,-196 2288,-196 2288,-176 2288,-176 2288,-170 2294,-164 2300,-164 2300,-164 2434,-164 2434,-164 2440,-164 2446,-170 2446,-176 2446,-176 2446,-196 2446,-196 2446,-202 2440,-208 2434,-208"/>
<text text-anchor="middle" x="2367" y="-195" font-family="sans" font-size="10.00">fastq2GZ</text>
<text text-anchor="middle" x="2367" y="-183" font-family="sans" font-size="10.00">pathFGZ: output/fastq</text>
<text text-anchor="middle" x="2367" y="-171" font-family="sans" font-size="10.00">sampleFGZ: Part3&#45;Pfeiffer2.1</text>
</g>
<!-- 25 -->
<g id="node26" class="node"><title>25</title>
<path fill="none" stroke="#d85656" stroke-width="2" d="M1891,-128C1891,-128 1787,-128 1787,-128 1781,-128 1775,-122 1775,-116 1775,-116 1775,-84 1775,-84 1775,-78 1781,-72 1787,-72 1787,-72 1891,-72 1891,-72 1897,-72 1903,-78 1903,-84 1903,-84 1903,-116 1903,-116 1903,-122 1897,-128 1891,-128"/>
<text text-anchor="middle" x="1839" y="-115" font-family="sans" font-size="10.00">mergeFASTQ</text>
<text text-anchor="middle" x="1839" y="-103" font-family="sans" font-size="10.00">compressionSuffix: .gz</text>
<text text-anchor="middle" x="1839" y="-91" font-family="sans" font-size="10.00">readDirection: .1</text>
<text text-anchor="middle" x="1839" y="-79" font-family="sans" font-size="10.00">sampleFM: Pfeiffer2</text>
</g>
<!-- 10&#45;&gt;25 -->
<g id="edge31" class="edge"><title>10&#45;&gt;25</title>
<path fill="none" stroke="grey" stroke-width="2" d="M2287.92,-165.766C2284.91,-165.15 2281.93,-164.558 2279,-164 2151.21,-139.658 2000.93,-120.056 1913.19,-109.507"/>
<polygon fill="grey" stroke="grey" stroke-width="2" points="1913.41,-106.009 1903.06,-108.297 1912.58,-112.959 1913.41,-106.009"/>
</g>
<!-- 11 -->
<g id="node12" class="node"><title>11</title>
<path fill="none" stroke="#88d856" stroke-width="2" d="M1269,-280C1269,-280 1139,-280 1139,-280 1133,-280 1127,-274 1127,-268 1127,-268 1127,-256 1127,-256 1127,-250 1133,-244 1139,-244 1139,-244 1269,-244 1269,-244 1275,-244 1281,-250 1281,-256 1281,-256 1281,-268 1281,-268 1281,-274 1275,-280 1269,-280"/>
<text text-anchor="middle" x="1204" y="-265" font-family="sans" font-size="10.00">bam2fastq_picard</text>
<text text-anchor="middle" x="1204" y="-253" font-family="sans" font-size="10.00">sampleB2FP: Part2&#45;Pfeiffer2</text>
</g>
<!-- 11&#45;&gt;9 -->
<g id="edge10" class="edge"><title>11&#45;&gt;9</title>
<path fill="none" stroke="grey" stroke-width="2" d="M1188,-243.837C1180.14,-235.414 1170.47,-225.045 1161.55,-215.479"/>
<polygon fill="grey" stroke="grey" stroke-width="2" points="1163.99,-212.959 1154.61,-208.032 1158.87,-217.733 1163.99,-212.959"/>
</g>
<!-- 21 -->
<g id="node22" class="node"><title>21</title>
<path fill="none" stroke="#56c1d8" stroke-width="2" d="M1730,-208C1730,-208 1596,-208 1596,-208 1590,-208 1584,-202 1584,-196 1584,-196 1584,-176 1584,-176 1584,-170 1590,-164 1596,-164 1596,-164 1730,-164 1730,-164 1736,-164 1742,-170 1742,-176 1742,-176 1742,-196 1742,-196 1742,-202 1736,-208 1730,-208"/>
<text text-anchor="middle" x="1663" y="-195" font-family="sans" font-size="10.00">fastq2GZ</text>
<text text-anchor="middle" x="1663" y="-183" font-family="sans" font-size="10.00">pathFGZ: output/fastq</text>
<text text-anchor="middle" x="1663" y="-171" font-family="sans" font-size="10.00">sampleFGZ: Part2&#45;Pfeiffer2.1</text>
</g>
<!-- 11&#45;&gt;21 -->
<g id="edge24" class="edge"><title>11&#45;&gt;21</title>
<path fill="none" stroke="grey" stroke-width="2" d="M1281.08,-252.096C1354.08,-243.183 1466.93,-228.164 1573.92,-208.127"/>
<polygon fill="grey" stroke="grey" stroke-width="2" points="1574.74,-211.533 1583.92,-206.235 1573.44,-204.655 1574.74,-211.533"/>
</g>
<!-- 12&#45;&gt;25 -->
<g id="edge30" class="edge"><title>12&#45;&gt;25</title>
<path fill="none" stroke="grey" stroke-width="2" d="M1839,-163.803C1839,-156.048 1839,-147.027 1839,-138.282"/>
<polygon fill="grey" stroke="grey" stroke-width="2" points="1842.5,-138.236 1839,-128.236 1835.5,-138.236 1842.5,-138.236"/>
</g>
<!-- 13 -->
<g id="node14" class="node"><title>13</title>
<path fill="none" stroke="#88d856" stroke-width="2" d="M321,-280C321,-280 191,-280 191,-280 185,-280 179,-274 179,-268 179,-268 179,-256 179,-256 179,-250 185,-244 191,-244 191,-244 321,-244 321,-244 327,-244 333,-250 333,-256 333,-256 333,-268 333,-268 333,-274 327,-280 321,-280"/>
<text text-anchor="middle" x="256" y="-265" font-family="sans" font-size="10.00">bam2fastq_picard</text>
<text text-anchor="middle" x="256" y="-253" font-family="sans" font-size="10.00">sampleB2FP: Part1&#45;Pfeiffer3</text>
</g>
<!-- 13&#45;&gt;0 -->
<g id="edge1" class="edge"><title>13&#45;&gt;0</title>
<path fill="none" stroke="grey" stroke-width="2" d="M296.588,-243.837C318.971,-234.372 347.169,-222.448 371.951,-211.969"/>
<polygon fill="grey" stroke="grey" stroke-width="2" points="373.414,-215.151 381.262,-208.032 370.688,-208.703 373.414,-215.151"/>
</g>
<!-- 22 -->
<g id="node23" class="node"><title>22</title>
<path fill="none" stroke="#56c1d8" stroke-width="2" d="M146,-208C146,-208 12,-208 12,-208 6,-208 1.42109e-14,-202 1.42109e-14,-196 1.42109e-14,-196 1.42109e-14,-176 1.42109e-14,-176 1.42109e-14,-170 6,-164 12,-164 12,-164 146,-164 146,-164 152,-164 158,-170 158,-176 158,-176 158,-196 158,-196 158,-202 152,-208 146,-208"/>
<text text-anchor="middle" x="79" y="-195" font-family="sans" font-size="10.00">fastq2GZ</text>
<text text-anchor="middle" x="79" y="-183" font-family="sans" font-size="10.00">pathFGZ: output/fastq</text>
<text text-anchor="middle" x="79" y="-171" font-family="sans" font-size="10.00">sampleFGZ: Part1&#45;Pfeiffer3.2</text>
</g>
<!-- 13&#45;&gt;22 -->
<g id="edge25" class="edge"><title>13&#45;&gt;22</title>
<path fill="none" stroke="grey" stroke-width="2" d="M214.948,-243.837C192.309,-234.372 163.789,-222.448 138.724,-211.969"/>
<polygon fill="grey" stroke="grey" stroke-width="2" points="139.883,-208.66 129.307,-208.032 137.183,-215.119 139.883,-208.66"/>
</g>
<!-- 14&#45;&gt;15 -->
<g id="edge16" class="edge"><title>14&#45;&gt;15</title>
<path fill="none" stroke="grey" stroke-width="2" d="M914.588,-163.803C894.718,-154.32 870.881,-142.943 848.987,-132.494"/>
<polygon fill="grey" stroke="grey" stroke-width="2" points="850.272,-129.229 839.74,-128.08 847.257,-135.546 850.272,-129.229"/>
</g>
<!-- 15&#45;&gt;1 -->
<g id="edge5" class="edge"><title>15&#45;&gt;1</title>
<path fill="none" stroke="grey" stroke-width="2" d="M847.244,-79.5321C898.286,-64.0648 967.873,-42.9779 1010,-30.2115"/>
<polygon fill="grey" stroke="grey" stroke-width="2" points="1011.28,-33.4809 1019.84,-27.2312 1009.25,-26.7817 1011.28,-33.4809"/>
</g>
<!-- 16&#45;&gt;25 -->
<g id="edge32" class="edge"><title>16&#45;&gt;25</title>
<path fill="none" stroke="grey" stroke-width="2" d="M1970.59,-163.803C1950.72,-154.32 1926.88,-142.943 1904.99,-132.494"/>
<polygon fill="grey" stroke="grey" stroke-width="2" points="1906.27,-129.229 1895.74,-128.08 1903.26,-135.546 1906.27,-129.229"/>
</g>
<!-- 17&#45;&gt;19 -->
<g id="edge21" class="edge"><title>17&#45;&gt;19</title>
<path fill="none" stroke="grey" stroke-width="2" d="M1311,-163.803C1311,-156.048 1311,-147.027 1311,-138.282"/>
<polygon fill="grey" stroke="grey" stroke-width="2" points="1314.5,-138.236 1311,-128.236 1307.5,-138.236 1314.5,-138.236"/>
</g>
<!-- 18 -->
<g id="node19" class="node"><title>18</title>
<path fill="none" stroke="#56c1d8" stroke-width="2" d="M322,-208C322,-208 188,-208 188,-208 182,-208 176,-202 176,-196 176,-196 176,-176 176,-176 176,-170 182,-164 188,-164 188,-164 322,-164 322,-164 328,-164 334,-170 334,-176 334,-176 334,-196 334,-196 334,-202 328,-208 322,-208"/>
<text text-anchor="middle" x="255" y="-195" font-family="sans" font-size="10.00">fastq2GZ</text>
<text text-anchor="middle" x="255" y="-183" font-family="sans" font-size="10.00">pathFGZ: output/fastq</text>
<text text-anchor="middle" x="255" y="-171" font-family="sans" font-size="10.00">sampleFGZ: Part3&#45;Pfeiffer3.2</text>
</g>
<!-- 18&#45;&gt;24 -->
<g id="edge27" class="edge"><title>18&#45;&gt;24</title>
<path fill="none" stroke="grey" stroke-width="2" d="M325.043,-163.912C366.225,-151.513 418.249,-135.85 460.084,-123.254"/>
<polygon fill="grey" stroke="grey" stroke-width="2" points="461.099,-126.604 469.665,-120.37 459.081,-119.901 461.099,-126.604"/>
</g>
<!-- 19&#45;&gt;1 -->
<g id="edge4" class="edge"><title>19&#45;&gt;1</title>
<path fill="none" stroke="grey" stroke-width="2" d="M1246.76,-79.5321C1195.71,-64.0648 1126.13,-42.9779 1084,-30.2115"/>
<polygon fill="grey" stroke="grey" stroke-width="2" points="1084.75,-26.7817 1074.16,-27.2312 1082.72,-33.4809 1084.75,-26.7817"/>
</g>
<!-- 20 -->
<g id="node21" class="node"><title>20</title>
<path fill="none" stroke="#88d856" stroke-width="2" d="M495,-280C495,-280 365,-280 365,-280 359,-280 353,-274 353,-268 353,-268 353,-256 353,-256 353,-250 359,-244 365,-244 365,-244 495,-244 495,-244 501,-244 507,-250 507,-256 507,-256 507,-268 507,-268 507,-274 501,-280 495,-280"/>
<text text-anchor="middle" x="430" y="-265" font-family="sans" font-size="10.00">bam2fastq_picard</text>
<text text-anchor="middle" x="430" y="-253" font-family="sans" font-size="10.00">sampleB2FP: Part3&#45;Pfeiffer3</text>
</g>
<!-- 20&#45;&gt;7 -->
<g id="edge9" class="edge"><title>20&#45;&gt;7</title>
<path fill="none" stroke="grey" stroke-width="2" d="M471.052,-243.837C493.691,-234.372 522.211,-222.448 547.276,-211.969"/>
<polygon fill="grey" stroke="grey" stroke-width="2" points="548.817,-215.119 556.693,-208.032 546.117,-208.66 548.817,-215.119"/>
</g>
<!-- 20&#45;&gt;18 -->
<g id="edge19" class="edge"><title>20&#45;&gt;18</title>
<path fill="none" stroke="grey" stroke-width="2" d="M389.412,-243.837C367.029,-234.372 338.831,-222.448 314.049,-211.969"/>
<polygon fill="grey" stroke="grey" stroke-width="2" points="315.312,-208.703 304.738,-208.032 312.586,-215.151 315.312,-208.703"/>
</g>
<!-- 21&#45;&gt;25 -->
<g id="edge29" class="edge"><title>21&#45;&gt;25</title>
<path fill="none" stroke="grey" stroke-width="2" d="M1707.41,-163.803C1727.28,-154.32 1751.12,-142.943 1773.01,-132.494"/>
<polygon fill="grey" stroke="grey" stroke-width="2" points="1774.74,-135.546 1782.26,-128.08 1771.73,-129.229 1774.74,-135.546"/>
</g>
<!-- 22&#45;&gt;24 -->
<g id="edge26" class="edge"><title>22&#45;&gt;24</title>
<path fill="none" stroke="grey" stroke-width="2" d="M158.101,-165.87C161.102,-165.225 164.076,-164.599 167,-164 267.861,-143.331 385.264,-123.996 459.593,-112.335"/>
<polygon fill="grey" stroke="grey" stroke-width="2" points="460.45,-115.744 469.789,-110.742 459.369,-108.828 460.45,-115.744"/>
</g>
<!-- 23 -->
<g id="node24" class="node"><title>23</title>
<path fill="none" stroke="#88d856" stroke-width="2" d="M2344,-280C2344,-280 2214,-280 2214,-280 2208,-280 2202,-274 2202,-268 2202,-268 2202,-256 2202,-256 2202,-250 2208,-244 2214,-244 2214,-244 2344,-244 2344,-244 2350,-244 2356,-250 2356,-256 2356,-256 2356,-268 2356,-268 2356,-274 2350,-280 2344,-280"/>
<text text-anchor="middle" x="2279" y="-265" font-family="sans" font-size="10.00">bam2fastq_picard</text>
<text text-anchor="middle" x="2279" y="-253" font-family="sans" font-size="10.00">sampleB2FP: Part3&#45;Pfeiffer2</text>
</g>
<!-- 23&#45;&gt;2 -->
<g id="edge6" class="edge"><title>23&#45;&gt;2</title>
<path fill="none" stroke="grey" stroke-width="2" d="M2258.59,-243.837C2248.28,-235.164 2235.51,-224.427 2223.86,-214.629"/>
<polygon fill="grey" stroke="grey" stroke-width="2" points="2225.92,-211.789 2216.01,-208.032 2221.41,-217.147 2225.92,-211.789"/>
</g>
<!-- 23&#45;&gt;10 -->
<g id="edge11" class="edge"><title>23&#45;&gt;10</title>
<path fill="none" stroke="grey" stroke-width="2" d="M2299.41,-243.837C2309.72,-235.164 2322.49,-224.427 2334.14,-214.629"/>
<polygon fill="grey" stroke="grey" stroke-width="2" points="2336.59,-217.147 2341.99,-208.032 2332.08,-211.789 2336.59,-217.147"/>
</g>
<!-- 24&#45;&gt;1 -->
<g id="edge2" class="edge"><title>24&#45;&gt;1</title>
<path fill="none" stroke="grey" stroke-width="2" d="M598.193,-88.9894C706.828,-72.0483 923.531,-38.2545 1010.06,-24.7603"/>
<polygon fill="grey" stroke="grey" stroke-width="2" points="1010.61,-28.2169 1019.95,-23.2178 1009.53,-21.3005 1010.61,-28.2169"/>
</g>
<!-- 25&#45;&gt;1 -->
<g id="edge3" class="edge"><title>25&#45;&gt;1</title>
<path fill="none" stroke="grey" stroke-width="2" d="M1774.86,-92.521C1616.34,-76.5091 1209.89,-35.4539 1084.45,-22.7824"/>
<polygon fill="grey" stroke="grey" stroke-width="2" points="1084.51,-19.2709 1074.21,-21.7481 1083.8,-26.2354 1084.51,-19.2709"/>
</g>
</g>
</svg>
